<svg width="160" height="160" viewBox="0 0 160 160" fill="none" xmlns="http://www.w3.org/2000/svg">
<path d="M111.509 36.8748C110.597 36.9234 109.734 36.972 108.822 37.0206L107.48 37.1664C107.047 37.215 106.616 37.2636 106.183 37.3122C105.321 37.458 104.458 37.5552 103.594 37.7496C102.73 37.944 101.914 38.0898 101.051 38.3328C97.7418 39.1589 94.5279 40.3253 91.506 41.6861C85.4142 44.4076 79.898 48.004 74.9573 52.1835C70.0169 56.363 65.6519 61.1258 62.0542 66.423C60.2796 69.0473 58.6487 71.8176 57.3535 74.6849C56.0105 77.5521 54.9073 80.5168 54.2356 83.5298C56.2024 81.1486 58.2168 78.9129 60.3755 76.7747C62.4861 74.6849 64.6924 72.6923 66.9468 70.8942C69.2015 69.0473 71.5518 67.3464 73.9022 65.7427C76.3006 64.1388 78.6988 62.681 81.1932 61.3202C86.1336 58.6472 91.2662 56.4602 96.3988 54.9051C96.7823 54.8078 97.1661 54.7107 97.5499 54.5649C95.4393 58.6959 93.4247 62.8267 91.41 67.0063L89.8272 70.2624L88.2923 73.5185C87.7645 74.5877 87.285 75.7055 86.7574 76.8234L85.2703 80.0795C84.4549 81.9748 83.4476 83.8215 82.3443 85.6683C81.2891 87.5149 80.0899 89.3133 78.7948 91.0627C78.1712 91.9376 77.4996 92.8124 76.8282 93.6871C76.1087 94.5133 75.4852 95.3882 74.7176 96.2144C73.9981 97.0404 73.2786 97.8666 72.5111 98.6928C71.7437 99.4705 70.9761 100.297 70.2088 101.074C69.825 101.463 69.4412 101.852 69.0096 102.241C68.6258 102.629 68.1941 103.018 67.8103 103.407L66.5633 104.525C66.1314 104.914 65.6998 105.254 65.316 105.642C63.6372 107.1 61.8623 108.558 60.0396 109.871C58.2171 111.231 56.3462 112.544 54.3797 113.71C52.461 114.925 50.4463 116.043 48.3838 117.112C46.3211 118.181 44.1626 119.105 41.9561 119.931C39.7497 120.757 37.4473 121.486 35.0488 122.069C37.4473 122.652 39.9414 122.895 42.4358 122.944C44.9302 122.992 47.4724 122.798 49.9666 122.458C52.4609 122.069 54.9551 121.534 57.4014 120.805L59.2242 120.271C59.8479 120.076 60.4234 119.834 61.0469 119.639C61.6707 119.445 62.2461 119.202 62.8218 118.959C63.3973 118.716 64.021 118.473 64.5965 118.23C66.9468 117.258 69.2493 116.091 71.5037 114.828C73.7583 113.564 75.9168 112.203 78.0274 110.697C80.1378 109.239 82.2005 107.587 84.1671 105.886C85.1744 105.011 86.1336 104.136 87.045 103.213C87.9564 102.289 88.9159 101.366 89.7791 100.345C91.554 98.4012 93.2808 96.3114 94.8636 94.1246C96.4466 91.9376 97.8856 89.6534 99.2295 87.2235L100.955 84.0159C101.531 82.9468 102.058 81.8776 102.634 80.8085L104.314 77.6009L105.944 74.3932C110.31 65.7912 114.483 57.092 118.464 48.2956L124.028 36L111.509 36.8748Z" fill="url(#paint0_linear_1730_4772)"/>
<path d="M105.991 74.4914C109.685 67.2502 113.186 59.9602 116.591 52.6218C108.582 52.1358 102.153 53.1564 97.0692 54.7601C97.2132 54.7115 97.3571 54.6629 97.5011 54.6143C95.3905 58.7453 93.3758 62.8762 91.3612 67.0557L89.7784 70.3119L88.2433 73.568C87.7157 74.6371 87.236 75.755 86.7084 76.8728L85.2215 80.129C84.4061 82.0243 83.3988 83.8709 82.2955 85.7178C81.2401 87.5646 80.0411 89.3628 78.7459 91.1122C78.1224 91.9871 77.4508 92.8618 76.7791 93.7365C76.0597 94.5627 75.4361 95.4377 74.6688 96.2639C73.9493 97.0899 73.2296 97.9161 72.4622 98.7423C71.6947 99.52 70.9273 100.346 70.1597 101.124C69.776 101.513 69.3924 101.901 68.9605 102.29C68.577 102.679 68.1451 103.068 67.7615 103.456L66.5142 104.574C66.0826 104.963 65.6509 105.303 65.2671 105.692C63.5884 107.15 61.8135 108.608 59.9908 109.92C58.168 111.281 56.2974 112.593 54.3306 113.76C52.4119 114.974 50.3975 116.092 48.3347 117.161C46.2722 118.231 44.1138 119.154 41.9072 119.98C39.7007 120.806 37.3984 121.535 35 122.118C37.3984 122.702 39.8926 122.945 42.387 122.993C44.8811 123.042 47.4234 122.847 49.9177 122.507C52.4119 122.118 54.9063 121.584 57.3526 120.855L59.1753 120.32C59.7989 120.126 60.3746 119.883 60.9981 119.689C61.6216 119.494 62.1973 119.251 62.7728 119.008C63.3484 118.765 63.972 118.522 64.5477 118.279C66.898 117.307 69.2005 116.141 71.4549 114.877C73.7093 113.614 75.8678 112.253 77.9784 110.746C80.089 109.288 82.1515 107.636 84.1183 105.935C85.1256 105.06 86.0848 104.185 86.9962 103.262C87.9076 102.339 88.867 101.415 89.7303 100.395C91.505 98.4506 93.232 96.3611 94.8148 94.1741C96.3978 91.9871 97.8368 89.7029 99.1792 87.273L100.907 84.0654C101.483 82.9962 102.01 81.9271 102.586 80.858L104.264 77.6503L105.991 74.4914Z" fill="url(#paint1_linear_1730_4772)"/>
<defs>
<linearGradient id="paint0_linear_1730_4772" x1="130.333" y1="45.8141" x2="28.1514" y2="111.308" gradientUnits="userSpaceOnUse">
<stop stop-color="#89E8FF"/>
<stop offset="0.4022" stop-color="#00E0D3"/>
<stop offset="0.4958" stop-color="#00DAD8"/>
<stop offset="0.6196" stop-color="#00C9E7"/>
<stop offset="0.6832" stop-color="#00BEF1"/>
</linearGradient>
<linearGradient id="paint1_linear_1730_4772" x1="79.1567" y1="49.3001" x2="72.373" y2="125.827" gradientUnits="userSpaceOnUse">
<stop stop-color="#0088AB"/>
<stop offset="0.0301966" stop-color="#0095B2"/>
<stop offset="0.1055" stop-color="#00B0C2"/>
<stop offset="0.1724" stop-color="#00C0CC"/>
<stop offset="0.2235" stop-color="#00C6CF"/>
<stop offset="0.3263" stop-color="#00C2D0"/>
<stop offset="0.4262" stop-color="#00B6D4"/>
<stop offset="0.5248" stop-color="#00A3DA"/>
<stop offset="0.5922" stop-color="#0091E0"/>
<stop offset="0.6819" stop-color="#0095E1"/>
<stop offset="0.7686" stop-color="#00A0E6"/>
<stop offset="0.854" stop-color="#00B4EC"/>
<stop offset="0.9382" stop-color="#00CFF6"/>
<stop offset="1" stop-color="#00E8FF"/>
</linearGradient>
</defs>
</svg>
