<svg width="160" height="160" viewBox="0 0 160 160" fill="none" xmlns="http://www.w3.org/2000/svg">
<g clip-path="url(#clip0_1120_4374)">
<path d="M139.538 65.4425C139.205 65.1057 139.011 64.7972 138.736 64.3688C138.593 64.1514 138.438 63.9174 138.266 63.6659C138.742 63.1178 139.143 62.4837 139.446 61.7867L140.66 59.0277L137.671 58.5993C137.167 58.5251 136.354 58.3138 135.403 58.0625C133.571 57.5826 131.217 56.9656 128.652 56.6972C129.528 56.3145 130.273 55.6233 130.793 54.6864L131.286 53.801C131.286 53.801 131.154 52.5617 130.673 52.1733C130.857 51.7906 131 51.3678 131.097 50.905L131.504 48.9286L129.591 48.2776C129.293 48.1748 128.996 48.1002 128.704 48.0546C128.595 47.6949 128.434 47.3121 128.217 46.9064L127.083 44.833L125.039 46.0268C124.529 46.324 124.1 46.6668 123.75 47.0492C123.447 46.9923 123.12 46.9637 122.777 46.9637C122.777 46.9637 121.609 46.8322 120.32 47.3008L118.671 45.5928L116.718 43.5136C114.892 41.5657 112.418 40.9888 109.898 41.9484C108.937 40.9888 107.436 40.1948 105.106 40.1948C104.315 40.1948 103.622 40.2919 103.216 40.3432C103.216 40.3432 100.009 40.926 98.2054 42.634L96.0181 41.5943C94.5521 43.8964 92.0441 44.6273 92.0441 44.6273C91.8722 43.9533 91.5804 43.3249 91.1624 42.7481L91.3053 41.9371C91.3053 41.9141 91.7977 39.1667 93.298 36.836L95.9093 32.7802L92.21 33.1972C92.2217 32.8318 92.2044 32.3978 92.1529 31.8836L91.8207 28.7304L88.9232 30.0384C88.6025 30.1812 88.3333 30.324 88.0817 30.4555L87.5087 29.2387L86.1803 29.9243C86.0485 29.5988 85.877 29.2274 85.6423 28.799L84.1131 26L81.943 28.3364C81.7195 28.5763 81.5307 28.799 81.3704 29.0103L80.0534 27.7024L78.7246 29.016C78.5587 28.8047 78.3754 28.582 78.152 28.342L75.9591 26L74.4243 28.8103C74.1895 29.2387 74.0234 29.6044 73.8919 29.9299L72.5692 29.2446L71.9964 30.4611C71.7445 30.33 71.4755 30.1869 71.1546 30.0384L68.2458 28.7361L67.9251 31.9006C67.8737 32.4091 67.8563 32.8375 67.8678 33.2032L64.1629 32.7862L66.7798 36.8416C68.286 39.1667 68.7667 41.9141 68.7667 41.9371L68.9041 42.7481C68.4862 43.3306 68.1885 43.959 68.0224 44.6332C68.0224 44.6332 65.6519 43.6221 64.0654 41.5943L61.8323 42.6566C59.2841 40.9429 57.7037 40.2747 54.9552 40.1948C52.6246 40.1319 51.1243 40.9888 50.1622 41.9484C47.6368 40.9945 45.1688 41.5713 43.348 43.5193C43.348 43.5193 42.1513 44.816 41.3954 45.5984C40.6395 46.3868 39.5228 47.0379 39.5228 47.0379C39.5228 47.0379 37.9367 46.6838 36.3046 47.0552C35.9553 46.6724 35.5203 46.3296 35.0049 46.0268L32.9548 44.833L31.8267 46.918C31.609 47.3178 31.4544 47.6949 31.3516 48.0546C31.0595 48.1002 30.7617 48.1748 30.4639 48.2776L28.5627 48.9399L28.9579 50.905C29.0551 51.3791 29.1927 51.8019 29.3816 52.1846C29.2728 52.3959 29.1756 52.6186 29.0955 52.8528L28.7747 53.8068L29.2614 54.692C29.7769 55.6233 30.5153 56.3201 31.3974 56.703C28.8261 56.9715 26.4785 57.5882 24.6403 58.0681C23.6955 58.3138 22.8823 58.5307 22.3785 58.605L19.3779 59.0392L20.0593 60.5814L20.6035 61.8097C20.9126 62.495 21.3192 63.129 21.7886 63.6776C21.611 63.9287 20.8552 65.1113 20.5173 65.4481L19 66.9846L20.4546 68.5842C20.6375 68.7784 22.2697 70.4863 24.9094 70.492C25.6309 70.492 26.3466 70.3666 27.0567 70.1148C27.7611 71.2119 28.5971 72.3255 29.3589 72.874C27.9558 74.5192 26.3583 75.9473 24.0848 77.0268L22.1839 77.9291L23.0025 80.0943C23.5353 81.4022 24.5716 82.8359 26.5756 83.3844C26.1463 84.6638 25.9403 85.875 25.757 86.9545C25.3274 89.5193 25.1441 90.5817 22.8823 91.3758L20.8495 92.0841L21.4337 94.1518C21.9031 95.8368 22.6075 96.9508 23.3691 97.6877L22.0176 99.1727C22.0176 99.1727 25.2245 101.572 28.368 101.863C28.4138 101.869 31.0939 102.04 32.2964 100.509C32.7774 102.246 33.539 103.845 34.2317 105.296C35.6519 108.278 36.4077 110.043 35.4572 111.654L33.3099 115.287L37.5301 115.11C39.3739 115.036 41.0862 114.921 42.5692 114.556C42.5692 114.636 42.5636 114.71 42.5577 114.784L42.2142 117.903L45.9133 117.126C46.3029 117.012 46.6691 116.858 47.0013 116.681C49.2917 119.354 53.1858 121.439 58.4308 121.439H58.7344L52.7047 123.907L57.0969 126.186C59.9885 127.688 63.2008 128.945 66.8658 130.013L66.356 131.766L68.5607 132.412C69.8319 132.783 74.4301 134 80.0303 134C85.6306 134 90.2231 132.783 91.5002 132.412L93.6988 131.766L93.1892 130.018C96.8597 128.951 100.072 127.694 102.964 126.191L107.356 123.912L101.321 121.445H101.624C106.869 121.445 110.757 119.36 113.048 116.686C113.38 116.864 113.747 117.017 114.136 117.132L117.835 117.909L117.497 114.796C117.491 114.721 117.486 114.641 117.486 114.561C118.963 114.927 120.681 115.036 122.519 115.116L126.739 115.293L124.604 111.665C123.647 110.055 124.409 108.289 125.823 105.308C126.516 103.857 127.278 102.257 127.759 100.521C128.572 101.138 129.448 101.509 130.318 101.703C130.318 101.703 130.994 101.903 131.641 101.92C133.508 101.977 134.441 101.446 135.724 100.641L138.055 99.1783L136.692 97.6933C137.453 96.9621 138.157 95.8485 138.627 94.1692L139.217 92.0953L137.178 91.387C134.911 90.5932 134.733 89.5305 134.304 86.966C134.121 85.8862 133.92 84.6699 133.485 83.3957C135.489 82.8415 136.52 81.408 137.052 80.1055L137.866 77.9352L135.964 77.0325C133.691 75.9529 132.094 74.5248 130.685 72.8797C131.452 72.3316 132.288 71.2176 132.998 70.1209C133.703 70.3722 134.418 70.4919 135.145 70.4976C137.785 70.4976 139.423 68.79 139.601 68.5956L141.055 66.9961L139.538 65.4425Z" fill="white"/>
<path fill-rule="evenodd" clip-rule="evenodd" d="M61.4193 93.5929V76.1709C61.4193 74.5486 60.9497 72.9262 60.3887 71.4355H73.9427C75.1853 73.1374 77.4414 74.28 80.0297 74.28C82.6065 74.28 84.8626 73.1374 86.1111 71.4355H99.6652C99.0926 72.9322 98.6286 74.5486 98.6286 76.1709V93.5929H61.4193ZM80.0241 117.401C78.1288 115.522 76.7772 115.316 71.6695 115.316C65.5651 115.316 61.4193 111.746 61.4193 106.04V94.6153H98.623V106.04C98.623 111.746 94.4829 115.316 88.3672 115.316C83.2651 115.311 81.9135 115.522 80.0241 117.401Z" fill="#FFDD2D"/>
<path d="M63.5774 119.553V123.031L60.5483 124.248C63.108 125.408 66.286 126.562 70.0196 127.413L71.7373 121.832C68.0727 121.083 65.5187 120.301 63.5774 119.553Z" fill="white"/>
<path d="M80.0257 124.267C76.4469 124.267 73.435 123.895 72.2324 123.621L70.417 129.476C73.2687 130.173 76.6071 130.687 80.0257 130.687C83.433 130.687 86.7715 130.178 89.6345 129.476L87.8137 123.621C86.611 123.901 83.6106 124.267 80.0257 124.267Z" fill="white"/>
<path d="M96.4699 119.553C94.5232 120.301 91.9751 121.078 88.3101 121.838L90.0338 127.418C93.7731 126.567 96.9396 125.414 99.4992 124.254L96.4756 123.037V119.553H96.4699Z" fill="white"/>
<path d="M57.2344 63.4324C61.9757 60.8789 73.5654 55.2581 65.7091 49.1975C64.6385 48.3752 63.4586 47.6327 62.4681 46.7128C61.2425 47.6553 62.926 49.9974 63.3499 50.854C63.3499 50.854 60.7331 51.117 60.1089 51.117C56.0663 51.0997 51.8287 48.712 53.9761 44.1367C52.367 44.4679 52.1722 46.0102 51.6798 47.3298C50.6489 46.6329 48.857 45.1362 47.4767 45.3475C48.5993 48.9293 53.3234 52.1567 56.988 52.8875C53.2832 54.8984 46.4118 56.3948 42.7982 52.0652C40.2617 56.9605 43.7948 59.0055 47.2592 61.5701C34.0715 67.5735 36.0185 74.3084 27.3662 79.6092C28.4886 80.1348 33.4933 79.0782 33.94 79.0152C32.0618 81.4427 31.1855 82.471 30.6359 83.6534C30.1091 84.7617 29.8741 86.0125 29.3533 88.7087C28.9467 90.8394 28.2022 92.9643 25.6025 94.3753C26.6218 96.2144 28.8836 94.7749 29.8284 94.5294C29.7025 94.7236 29.3817 96.9398 28.5344 98.0084C32.9779 97.7224 30.9221 88.3775 35.3659 90.6279C36.6198 91.2563 36.9977 92.7301 36.4195 93.9352C33.499 99.9447 40.1358 105.24 39.775 110.506C41.4068 110.495 43.0961 110.449 44.1613 108.25C44.7169 109.347 45.5756 110.889 46.0565 112.374L47.3853 110.118C48.2039 113.854 51.6969 117.304 56.4154 117.612C54.165 114.059 56.8623 109.21 51.3934 104.052C52.0749 103.503 53.6495 102.446 54.2108 101.727C47.4998 102.515 40.4964 97.2197 43.6745 94.7065C45.7532 93.0671 46.6636 96.4716 49.8705 95.9001L48.6162 94.8208C49.0572 94.3865 49.5609 93.8211 50.0822 93.3927C48.7193 93.2269 47.2305 92.3586 47.2305 92.3586L48.0436 91.0165C40.1816 91.005 39.981 85.0074 43.1764 84.7673C44.6765 84.6589 46.6178 87.4176 51.4566 86.8409C50.838 86.0982 50.5918 84.973 50.2998 84.1448C51.4679 84.0361 52.8422 84.0476 53.9474 83.5107C51.5825 83.2079 50.9869 82.4141 49.0172 80.9286L51.302 80.095C47.9865 78.4437 48.1869 75.5709 48.0838 72.5775C49.8186 73.5713 51.8574 75.1137 54.0334 74.3998C54.5486 74.2283 54.8808 73.9883 54.8921 73.4514C51.7888 72.2121 49.796 67.4423 57.2344 63.4324ZM51.571 63.9008C47.4194 68.3277 49.2174 70.9782 50.0538 71.795C48.5074 71.4635 46.1998 69.4986 46.7266 67.5965C46.2341 68.1851 45.7304 68.8247 45.215 69.4815C44.1841 70.8524 43.2624 72.1948 42.4434 73.4971C41.1835 77.233 43.4912 81.0888 47.4194 82.7968C43.0559 82.1567 41.0977 78.284 41.1093 75.8164C39.0248 79.7465 38.0286 83.3336 38.1201 86.3439C38.1601 87.4635 38.2576 88.5089 38.4065 89.4971C39.4084 91.3934 41.0175 92.0904 43.8862 92.4389C41.2809 92.6043 39.9008 92.4844 38.7671 91.2964C40.5421 98.9106 48.8453 105.502 52.2237 111.146C48.8396 106.759 41.8363 100.225 39.3857 95.5005C39.1967 97.2085 39.6548 101.584 41.7847 104.274C38.6469 101.196 38.4005 96.5346 38.6068 93.804C37.8109 91.8391 37.3069 89.6456 37.2381 87.1494C37.1753 84.8528 37.3356 82.8593 37.6848 81.0715C35.7037 83.882 32.8403 84.9674 31.4318 89.2457C31.7066 83.7276 35.8352 83.6421 38.9273 76.9418C40.1242 74.0112 41.8652 71.4809 43.7891 68.6132C41.344 69.4131 39.5116 69.9842 36.6829 73.0743C38.6926 68.3333 50.3054 63.004 55.6253 57.8459C54.0275 58.1831 47.5054 58.3485 44.797 56.5436C49.7042 57.8688 60.6243 56.3548 64.7473 53.5445C61.9012 57.629 55.7054 57.863 48.1639 65.9857C49.126 65.2202 50.4085 64.4492 51.571 63.9008Z" fill="white"/>
<path d="M130.691 88.7082C130.17 86.0123 129.941 84.7615 129.414 83.6532C128.87 82.4706 127.988 81.4425 126.104 79.015C126.551 79.0775 131.567 80.1346 132.684 79.609C124.031 74.308 125.979 67.5733 112.785 61.5698C116.25 59.0051 119.783 56.9603 117.246 52.0591C113.633 56.3946 106.761 54.8981 103.056 52.8817C106.727 52.1504 111.445 48.9287 112.568 45.3416C111.182 45.1302 109.389 46.6269 108.359 47.3179C107.866 45.9986 107.677 44.4563 106.068 44.1191C108.216 48.7003 103.972 51.088 99.924 51.1051C99.3056 51.1051 96.6943 50.8425 96.6943 50.8425C97.1123 49.9857 98.7958 47.6437 97.5647 46.7012C96.574 47.6264 95.4059 48.3633 94.3294 49.1861C86.4672 55.2467 98.0687 60.873 102.81 63.4207C110.237 67.4304 108.261 72.2002 105.152 73.4226C105.164 73.9595 105.496 74.1993 106.017 74.3708C108.181 75.0908 110.231 73.5484 111.955 72.5485C111.858 75.5419 112.063 78.4208 108.748 80.066L111.027 80.8998C109.057 82.385 108.467 83.1788 106.103 83.4817C107.202 84.0186 108.588 84.0073 109.75 84.1158C109.453 84.9442 109.195 86.0694 108.588 86.8119C113.432 87.383 115.379 84.6299 116.868 84.7386C120.052 84.9784 119.863 90.9762 111.995 90.9875L112.808 92.3298C112.808 92.3298 111.319 93.1981 109.951 93.3639C110.472 93.7865 110.981 94.3575 111.422 94.792L110.168 95.8713C113.369 96.4428 114.285 93.0383 116.364 94.6775C119.542 97.1909 112.545 102.486 105.828 101.698C106.394 102.417 107.969 103.48 108.651 104.028C103.176 109.181 105.868 114.036 103.629 117.595C108.336 117.281 111.829 113.831 112.659 110.095L113.988 112.351C114.463 110.866 115.333 109.324 115.877 108.227C116.937 110.426 118.637 110.472 120.275 110.483C119.903 105.216 126.534 99.9213 123.625 93.9122C123.041 92.7125 123.419 91.2388 124.673 90.6048C129.128 88.3543 127.061 97.6995 131.51 97.985C130.657 96.9167 130.342 94.7004 130.222 94.5065C131.161 94.752 133.417 96.1915 134.436 94.3463C131.853 92.9641 131.109 90.839 130.691 88.7082ZM122.371 81.0654C122.72 82.8591 122.898 84.847 122.817 87.1434C122.743 89.6395 122.245 91.8328 121.449 93.7977C121.649 96.5283 121.409 101.189 118.271 104.268C120.395 101.572 120.859 97.2022 120.67 95.4944C118.208 100.218 111.211 106.753 107.82 111.14C111.205 105.496 119.508 98.8989 121.289 91.2903C120.143 92.4729 118.775 92.5983 116.164 92.4327C119.027 92.0841 120.636 91.3875 121.638 89.4908C121.787 88.5084 121.884 87.4572 121.924 86.3381C122.022 83.3276 121.02 79.7402 118.935 75.8103C118.952 78.2781 116.994 82.1508 112.625 82.7905C116.541 81.0769 118.855 77.2211 117.601 73.4913C116.788 72.1887 115.872 70.8405 114.829 69.4757C114.314 68.8187 113.81 68.179 113.312 67.5906C113.839 69.4925 111.531 71.4577 109.985 71.7891C110.827 70.9722 112.619 68.3219 108.473 63.8945C109.636 64.4431 110.918 65.2142 111.886 65.9681C104.345 57.8456 98.1544 57.6171 95.2971 53.5272C99.4259 56.3377 110.346 57.8569 115.247 56.526C112.545 58.3312 106.017 58.1654 104.419 57.8283C109.739 62.9865 121.363 68.3158 123.367 73.0572C120.539 69.9669 118.7 69.3956 116.267 68.5957C118.196 71.4689 119.926 73.9937 121.122 76.9243C124.221 83.6246 128.355 83.7044 128.624 89.2282C127.215 84.9611 124.358 83.8759 122.371 81.0654Z" fill="white"/>
<path d="M86.1069 71.4297C84.8643 73.132 82.6026 74.2746 80.0312 74.2746C79.43 74.2746 78.8518 74.206 78.302 74.1031C78.4564 74.8058 78.8173 75.531 79.5674 76.1538C79.2641 78.193 80.1458 80.101 82.3392 80.5978C82.5739 81.6375 83.2151 82.42 84.3031 82.7915L82.7741 84.5508C82.1846 85.2247 81.4171 85.4418 80.7987 85.3617L73.9731 84.5906C74.2707 83.8364 73.4806 82.9625 71.3159 83.334L73.9961 75.8512L72.3638 72.3839L69.2661 75.0227L69.037 82.8714L67.7026 82.2256C65.9847 81.4831 65.4754 84.6077 67.1129 84.6192L67.7714 84.625C67.7256 84.9448 67.829 85.2989 68.0862 85.413C67.7771 85.5388 67.6857 86.1157 68.0693 86.3213C67.68 86.5101 67.6225 87.1041 67.9373 87.361C67.5994 87.9379 67.5367 89.1889 68.7335 89.503C69.7183 89.76 70.3367 88.709 70.5373 88.0979L81.1594 91.3766C82.654 91.8052 83.7305 91.5652 84.9788 90.4741L87.7503 88.0579C87.401 89.6403 87.9681 91.0623 89.1762 91.5366C89.1762 91.5366 88.9873 92.9874 89.0617 93.587L92.7782 93.5931H98.6301V76.1709C98.6301 74.5484 99.0941 72.9264 99.6666 71.4297H92.7782H86.1069Z" fill="white"/>
<path d="M70.1996 100.743L70.4059 101C70.6921 101.355 70.8638 101.269 71.1904 101.08L71.6711 100.823C71.9748 100.595 73.9504 101.349 74.0592 99.7093C74.2767 100.932 72.8166 103.508 73.6983 104.947L74.8838 106.884L71.0128 106.941C70.5892 106.941 70.3657 107.198 70.2513 107.427L69.2378 109.523C68.9744 110.077 68.9913 110.648 69.3235 111.031L70.0105 111.802C70.0105 111.802 70.5718 111.328 70.755 110.706L70.4515 110.391C70.1996 110.151 70.1996 109.923 70.3371 109.626L70.9613 108.335C71.2016 107.826 71.4481 107.718 71.9976 107.849L75.13 108.523C75.3591 108.58 75.7312 108.689 75.9544 108.306C76.3383 107.626 77.014 107.581 77.701 107.689C79.4191 107.946 83.3872 108.358 84.8015 106.707C86.4621 108.906 89.7091 108.906 89.4972 110.06L88.81 113.841H89.8407L90.4706 109.974C90.5394 109.523 90.8199 108.906 90.3331 108.557C90.1327 108.403 90.0411 108.323 89.5886 107.547C88.9991 106.518 89.0273 104.976 88.4607 103.645C88.9991 103.011 89.583 102.794 90.0928 102.914C91.2379 103.194 91.5473 105.165 93.1735 106.77C92.9903 106.056 92.9101 105.273 92.5265 104.593C92.5265 104.593 93.6544 105.467 93.9462 106.49C94.1295 107.13 94.3186 107.598 94.897 107.895C95.2807 108.032 95.7388 107.849 96.1967 107.301C96.1967 107.301 95.1261 105.781 94.3416 104.788C93.2649 103.422 91.8278 102.051 89.8694 102.211C89.2508 102.263 88.6554 102.543 88.0883 102.88C85.8608 101.634 84.1317 102.954 83.4445 102.954L79.2758 102.708C78.4568 102.657 77.81 101.709 77.81 101.709C77.7068 98.1901 74.8723 96.7906 73.8931 96.7906C73.8931 96.7906 73.9847 96.1566 73.727 95.9336L72.8565 97.0246L70.4402 96.1449L72.3355 97.6931L70.2797 100.075C70.0681 100.309 70.0967 100.618 70.1996 100.743Z" fill="white"/>
<path d="M67.4685 105.686C66.8842 106.137 66.9131 106.765 67.2625 107.468L67.6118 108.119L68.5222 107.428L68.3162 106.982C68.1672 106.668 68.1729 106.348 68.4306 106.148L69.7361 105.166C70.1026 104.897 70.2171 104.869 70.6066 104.926L73.361 105.503C73.361 105.503 72.943 104.897 72.8054 104.28L70.2114 103.938C69.8449 103.892 69.6215 104.046 69.301 104.292L67.4685 105.686Z" fill="white"/>
<path d="M85.0806 113.842H86.1228L87.795 109.735C87.8521 109.592 87.9322 109.529 87.9952 109.409C87.2451 109.112 86.8041 108.907 86.1801 108.547C86.598 109.107 86.9244 109.347 86.7526 109.867L85.0806 113.842Z" fill="white"/>
<path d="M85.9693 58.2912L87.8994 47.2266L80.5869 49.7056V61.1129L85.9693 58.2912ZM81.8236 50.8252L86.6739 49.043C86.6739 49.043 85.729 49.8085 84.6011 50.5798C83.5988 51.2707 81.8236 52.0076 81.8236 52.0076V50.8252ZM81.8236 53.5043L86.2616 51.9219C86.2616 51.9219 85.729 52.4817 84.6067 53.253C83.6047 53.9381 81.8295 54.6754 81.8295 54.6754V53.5043H81.8236ZM81.8236 56.3488L85.729 54.8525C85.729 54.8525 85.729 55.3264 84.6011 56.0918C83.5988 56.7832 81.8236 57.5199 81.8236 57.5199V56.3488Z" fill="white"/>
<path d="M72.9579 68.0754L73.1181 68.3324H74.6241L74.6414 68.5952C74.6586 68.8465 74.7159 69.1034 74.8017 69.3665C75.0364 70.0804 75.5001 70.8287 76.2447 71.4342C77.1092 72.131 78.3579 72.6337 80.0185 72.6337C83.6203 72.6337 85.2465 70.309 85.4009 68.5952L85.4124 68.3324H86.9242L87.0845 68.0754C88.5047 65.8592 90.2397 63.3972 92.2552 63.0428L86.7581 59.8613L80.0185 63.5171L73.2727 59.8613L67.7812 63.0428C69.797 63.3914 71.532 65.8592 72.9579 68.0754Z" fill="white"/>
<path d="M79.4516 61.1129V49.7056L72.1504 47.2266L74.0687 58.2912L79.4516 61.1129ZM78.2202 57.5314C78.2202 57.5314 76.4453 56.7889 75.443 56.1033C74.3149 55.3376 74.3149 54.8581 74.3149 54.8581L78.2259 56.3544V57.5314H78.2202ZM78.2202 50.8252V52.0076C78.2202 52.0076 76.4453 51.2707 75.443 50.5798C74.3092 49.8085 73.3584 49.043 73.3584 49.043L78.2202 50.8252ZM78.2202 53.5043V54.6811C78.2202 54.6811 76.4453 53.9442 75.443 53.2586C74.3092 52.4875 73.7825 51.9277 73.7825 51.9277L78.2202 53.5043Z" fill="white"/>
<path d="M80.0257 42.3477C75.8513 42.3477 72.7191 43.7129 72.0376 45.3121L80.0257 48.4596L88.0024 45.3121C87.3267 43.7129 84.2001 42.3477 80.0257 42.3477Z" fill="white"/>
<path d="M80.0249 37.7791C83.1 37.7791 86.1807 38.7103 88.2536 39.9155C88.5914 38.8016 88.9523 38.0078 89.4447 37.0995L87.5551 37.3907L86.0261 34.1348L83.1688 35.6484L80.0249 32.5469L76.8757 35.6484L74.0241 34.1348L72.4836 37.3907L70.5938 37.0995C71.0862 38.0078 71.4414 38.8016 71.7905 39.9155C73.8695 38.7103 76.9385 37.7791 80.0249 37.7791Z" fill="white"/>
<path d="M132.134 62.8547C133.165 62.7236 133.995 62.3809 135.009 61.6267C132.827 61.05 128.258 59.3992 124.358 60.1417C123.069 60.3131 122.354 60.8329 122.812 61.1299C124.908 62.5179 127.496 65.7341 129.38 69.4868C131.035 67.4362 130.342 64.7456 129.993 63.9743C133.291 65.9566 134.155 66.9218 135.684 66.5452C134.866 65.294 133.715 64.1687 132.134 62.8547Z" fill="white"/>
<path d="M30.6699 69.4811C32.5538 65.7281 35.1421 62.5122 37.2436 61.1242C37.713 60.8269 36.9859 60.3072 35.709 60.1357C31.8036 59.3989 27.2226 61.0441 25.0409 61.6212C26.0658 62.3749 26.8791 62.7178 27.9213 62.8492C26.3352 64.1686 25.1841 65.2882 24.3652 66.5392C25.9056 66.9163 26.7646 65.9509 30.0573 63.9688C29.7194 64.7458 29.0207 67.4305 30.6699 69.4811Z" fill="white"/>
<path fill-rule="evenodd" clip-rule="evenodd" d="M53.5367 104.314C55.0539 103.114 56.3139 102.514 56.2509 99.6069C53.9718 100.772 47.5068 100.709 44.804 96.9965C44.0424 95.9399 44.8557 95.4084 45.5941 96.2425C47.4436 98.3332 50.8682 97.3851 52.1165 96.7852C51.9158 96.0654 51.3607 95.1285 50.8967 94.7287C51.3663 94.2717 52.689 93.5862 52.958 92.4096C52.2537 92.0269 49.5108 91.7526 49.5108 91.7526C49.9518 91.3301 50.5017 90.7415 50.1695 89.1708C47.3693 90.0276 43.9049 88.8625 43.1205 87.8284C42.3475 86.8116 43.1376 85.8579 43.7905 86.5317C45.1875 87.9942 52.0707 89.6678 54.6303 87.1257C53.6795 86.8632 52.6319 86.0178 52.443 85.4922C54.8136 85.2524 56.7032 83.8585 56.8578 82.122C55.5463 82.122 53.0727 82.025 52.2253 81.3966C53.3591 80.9796 54.0806 80.5683 54.4414 79.3002C50.1064 79.0372 49.7629 75.8271 49.7401 75.2961C52.5631 76.9182 57.5334 76.1984 56.245 72.1999C53.8973 72.0744 51.5322 68.2872 57.9859 64.8087C63.8552 61.6382 70.5265 58.2225 69.9365 52.5957C69.5529 48.997 63.6148 46.5408 62.859 44.7186C60.3795 45.8954 59.8812 47.2607 60.9978 49.5512C60.9978 49.5512 55.4719 50.0995 55.037 46.7065C54.8481 45.1872 55.8673 43.7647 56.9609 42.6738C56.3423 42.6738 52.1792 41.5598 50.9253 44.9416C48.5948 43.3537 46.5964 43.4106 45.0272 45.09C47.5354 46.5751 49.0872 51.6705 53.2331 53.1728C50.284 54.7665 45.514 54.0982 42.7312 49.197C40.0971 53.1555 38.5797 57.0743 44.2315 61.2611C33.9526 65.9278 34.0271 74.8504 25.0827 79.1002C25.9874 81.5277 27.9 81.5277 30.3394 81.1511C26.4742 86.1607 29.7669 91.4041 23.6455 93.5463C24.2181 95.5914 25.3691 97.2249 27.6253 96.6252C26.984 97.6249 26.5603 97.602 25.5638 98.6986C28.9079 100.801 32.8763 99.2814 33.7754 92.5352C33.9356 91.3301 35.5962 92.0841 35.0236 93.2664C31.2098 101.132 40.8529 107.05 37.44 112.819C40.4463 112.693 42.7425 112.459 43.9909 111.448C44.6036 112.659 44.9758 113.859 44.8383 115.041C46.4989 114.704 47.1057 113.727 47.2204 112.596C48.3084 115.767 52.2022 119.154 58.4326 119.154C55.1284 114.447 58.2035 109.677 53.5367 104.314ZM47.3865 110.112L46.0581 112.368C45.5828 110.883 44.718 109.34 44.1627 108.244C43.092 110.443 41.4027 110.489 39.7762 110.5C40.1371 105.234 33.5003 99.9384 36.4208 93.9291C37.005 92.7296 36.6211 91.2558 35.3671 90.6218C30.918 88.3711 32.9792 97.716 28.5357 98.0018C29.3833 96.9337 29.7038 94.7175 29.83 94.5231C28.8849 94.7688 26.6231 96.2081 25.6038 94.3689C28.2035 92.9582 28.948 90.8331 29.3546 88.7023C29.87 86.0061 30.1104 84.7554 30.6315 83.6472C31.1814 82.4646 32.0574 81.4366 33.9356 79.0091C33.4889 79.0716 28.4899 80.1287 27.3619 79.6031C36.0141 74.3019 34.0672 67.5674 47.2547 61.5639C43.7961 58.9992 40.263 56.9541 42.7941 52.0588C46.4075 56.3885 53.2733 54.8922 56.9837 52.8814C53.3189 52.1502 48.5948 48.9288 47.4781 45.3413C48.8581 45.13 50.6505 46.6266 51.6755 47.3236C52.1736 45.9983 52.3686 44.4616 53.9774 44.1305C51.8301 48.7059 56.0677 51.0933 60.1105 51.1107C60.7401 51.1107 63.3514 50.8479 63.3514 50.8479C62.9335 49.9911 61.2441 47.6491 62.4695 46.7065C63.4602 47.6321 64.6396 48.369 65.7107 49.1914C73.5727 55.2576 61.9771 60.8784 57.2358 63.4317C49.7972 67.4418 51.7899 72.2172 54.8937 73.434C54.8822 73.9709 54.5502 74.2107 54.0347 74.3822C51.8588 75.1017 49.8202 73.5537 48.0854 72.5599C48.1881 75.5531 47.982 78.432 51.3034 80.0769L49.0184 80.9054C50.9827 82.396 51.5841 83.1846 53.949 83.4931C52.8436 84.03 51.4751 84.0185 50.3011 84.1272C50.5988 84.9552 50.8396 86.0804 51.4577 86.8233C46.6192 87.3944 44.6781 84.6411 43.1778 84.7495C39.9825 84.9894 40.1829 90.9872 48.045 90.9989L47.2321 92.341C47.2321 92.341 48.7207 93.2095 50.0894 93.3749C49.5683 93.7974 49.0644 94.3689 48.6234 94.803L49.8773 95.8827C46.6652 96.4538 45.7605 93.0493 43.6759 94.6889C40.498 97.2021 47.5011 102.498 54.2124 101.709C53.6511 102.429 52.0707 103.491 51.395 104.04C56.8634 109.192 54.1663 114.047 56.4168 117.606C51.6985 117.298 48.2055 113.842 47.3865 110.112Z" fill="black"/>
<path fill-rule="evenodd" clip-rule="evenodd" d="M38.7568 91.2965C39.8965 92.4789 41.2707 92.6045 43.8763 92.4386C41.0073 92.0906 39.3981 91.3937 38.3962 89.4972C38.253 88.5149 38.1556 87.4637 38.1155 86.3441C38.024 83.3338 39.0202 79.7464 41.1047 75.8163C41.0934 78.2785 43.046 82.1512 47.4151 82.7967C43.4867 81.0831 41.1792 77.2275 42.4387 73.4972C43.2577 72.1949 44.1798 70.847 45.2105 69.4819C45.7259 68.8249 46.2296 68.1852 46.7221 67.5966C46.1953 69.4988 48.5031 71.4637 50.049 71.7953C49.2131 70.9781 47.4151 68.3335 51.5665 63.9068C50.4099 64.4549 49.1271 65.226 48.1538 65.9802C55.6894 57.8575 61.8908 57.6289 64.7369 53.5391C60.614 56.3493 49.6943 57.8687 44.7866 56.5379C47.4952 58.343 54.0176 58.1772 55.6149 57.8404C50.3011 62.9985 38.6884 68.3279 36.6726 73.0688C39.5013 69.9731 41.3338 69.4072 43.7846 68.6134C41.8549 71.4866 40.1199 74.0116 38.9231 76.9415C35.831 83.6364 31.6966 83.7221 31.4272 89.24C32.836 84.9617 35.6991 83.8763 37.6805 81.066C37.331 82.8595 37.165 84.8474 37.2281 87.1435C37.2969 89.6401 37.8007 91.8334 38.5966 93.7983C38.3962 96.5287 38.6366 101.19 41.7747 104.269C39.6445 101.578 39.1864 97.2028 39.3754 95.495C41.8318 100.219 48.8353 106.754 52.2194 111.141C48.8353 105.503 40.5379 98.9108 38.7568 91.2965Z" fill="black"/>
<path fill-rule="evenodd" clip-rule="evenodd" d="M116.272 68.6119C118.706 69.4115 120.544 69.977 123.373 73.073C121.369 68.332 109.739 63.0024 104.425 57.8445C106.022 58.1759 112.55 58.3469 115.253 56.542C110.351 57.8731 99.4313 56.3537 95.3027 53.543C98.1544 57.633 104.35 57.8616 111.891 65.9841C110.924 65.2304 109.641 64.4593 108.479 63.9107C112.624 68.3376 110.832 70.9881 109.991 71.8049C111.536 71.4737 113.844 69.5087 113.317 67.6066C113.816 68.1947 114.32 68.8349 114.835 69.4914C115.871 70.8623 116.788 72.2049 117.607 73.5072C118.866 77.2429 116.553 81.0985 112.636 82.8065C117.005 82.1668 118.964 78.2882 118.941 75.8263C121.031 79.7564 122.027 83.3433 121.936 86.3538C121.895 87.4734 121.798 88.5188 121.649 89.507C120.641 91.4033 119.032 92.1003 116.169 92.4486C118.78 92.6088 120.149 92.4887 121.294 91.3065C119.513 98.9207 111.216 105.513 107.826 111.156C111.216 106.769 118.208 100.234 120.676 95.5107C120.864 97.2184 120.406 101.594 118.276 104.285C121.414 101.206 121.655 96.5443 121.454 93.8139C122.245 91.849 122.743 89.6557 122.823 87.1591C122.897 84.863 122.72 82.8695 122.376 81.0816C124.363 83.8919 127.22 84.9773 128.635 89.2557C128.366 83.7321 124.232 83.6462 121.133 76.9515C119.931 74.0042 118.202 71.4793 116.272 68.6119Z" fill="black"/>
<path fill-rule="evenodd" clip-rule="evenodd" d="M129.717 81.1391C132.151 81.5218 134.063 81.5221 134.974 79.0943C126.029 74.8443 126.104 65.9278 115.825 61.2552C121.477 57.074 119.954 53.1498 117.325 49.1911C114.548 54.0919 109.761 54.7606 106.824 53.1667C110.958 51.6643 112.521 46.5692 115.029 45.0839C113.46 43.4048 111.456 43.3475 109.125 44.9354C107.866 41.554 103.708 42.6679 103.084 42.6679C104.172 43.7532 105.203 45.1754 105.008 46.7007C104.579 50.0934 99.0529 49.5453 99.0529 49.5453C100.17 47.2545 99.6715 45.8893 97.192 44.7128C96.4362 46.535 90.5038 48.9911 90.1142 52.59C89.5189 58.2163 96.2013 61.6323 102.065 64.8023C108.518 68.281 106.153 72.0739 103.811 72.194C102.511 76.1925 107.482 76.912 110.311 75.29C110.299 75.821 109.939 79.0315 105.604 79.2941C105.97 80.5624 106.686 80.9735 107.82 81.3904C106.972 82.0245 104.499 82.1161 103.193 82.1161C103.348 83.8524 105.243 85.2519 107.614 85.4861C107.425 86.0117 106.371 86.857 105.426 87.1201C107.986 89.6617 114.869 87.9879 116.266 86.5258C116.908 85.8515 117.692 86.8057 116.925 87.8225C116.134 88.862 112.676 90.0275 109.87 89.1649C109.549 90.73 110.088 91.3242 110.528 91.7467C110.528 91.7467 107.786 92.0208 107.076 92.4035C107.345 93.5803 108.673 94.26 109.137 94.7226C108.667 95.1226 108.112 96.0595 107.912 96.7791C109.171 97.3846 112.596 98.3271 114.434 96.2366C115.178 95.4082 115.991 95.9338 115.23 96.9904C112.527 100.703 106.062 100.761 103.777 99.601C103.714 102.508 104.974 103.108 106.491 104.308C101.819 109.672 104.905 114.441 101.601 119.137C107.826 119.137 111.719 115.749 112.807 112.579C112.934 113.704 113.529 114.687 115.184 115.024C115.058 113.842 115.424 112.642 116.031 111.431C117.291 112.442 119.587 112.676 122.594 112.802C119.186 107.033 128.829 101.115 125.004 93.2488C124.438 92.0667 126.098 91.3125 126.258 92.518C127.152 99.264 131.126 100.783 134.475 98.6812C133.468 97.5846 133.05 97.6075 132.408 96.6076C134.664 97.2075 135.81 95.574 136.388 93.5287C130.295 91.3924 133.588 86.1487 129.717 81.1391ZM130.232 94.5286C130.353 94.7226 130.668 96.9391 131.521 98.0071C127.071 97.7216 129.133 88.3765 124.684 90.6271C123.43 91.2556 123.057 92.7293 123.636 93.9344C126.545 99.9435 119.914 105.239 120.286 110.505C118.648 110.494 116.948 110.448 115.888 108.249C115.344 109.346 114.468 110.888 113.993 112.373L112.664 110.117C111.84 113.853 108.347 117.303 103.64 117.617C105.879 114.064 103.187 109.209 108.662 104.051C107.974 103.502 106.4 102.44 105.833 101.72C112.55 102.508 119.547 97.2133 116.369 94.6999C114.291 93.0605 113.375 96.465 110.173 95.8937L111.428 94.8142C110.986 94.3801 110.477 93.8147 109.956 93.3861C111.324 93.2205 112.813 92.3522 112.813 92.3522L112 91.0099C119.862 90.9984 120.051 85.0006 116.873 84.7607C115.379 84.652 113.432 87.4112 108.593 86.8341C109.206 86.0916 109.457 84.9664 109.755 84.1381C108.587 84.0295 107.207 84.0412 106.108 83.5039C108.473 83.2015 109.068 82.4072 111.032 80.9222L108.753 80.0881C112.069 78.4373 111.857 75.5641 111.96 72.5711C110.231 73.5649 108.181 75.1071 106.022 74.3932C105.506 74.2219 105.169 73.9819 105.157 73.445C108.267 72.2226 110.248 67.453 102.815 63.4429C98.0794 60.8896 86.4783 55.2688 94.3347 49.2082C95.4109 48.3858 96.5793 47.6429 97.5641 46.7233C98.7954 47.6659 97.1119 50.0079 96.6939 50.8647C96.6939 50.8647 99.305 51.1275 99.9236 51.1275C103.972 51.1102 108.215 48.7227 106.068 44.1416C107.677 44.4728 107.866 46.0208 108.358 47.3404C109.389 46.6435 111.176 45.1524 112.567 45.3638C111.439 48.9454 106.726 52.1728 103.056 52.9041C106.761 54.9147 113.632 56.4114 117.245 52.0815C119.776 56.9768 116.249 59.0216 112.785 61.5864C125.978 67.5842 124.025 74.3248 132.683 79.6255C131.567 80.1511 126.55 79.0943 126.104 79.0315C127.994 81.4591 128.875 82.4871 129.414 83.6697C129.94 84.7778 130.17 86.023 130.69 88.7248C131.103 90.8555 131.853 92.9806 134.441 94.3914C133.428 96.2137 131.172 94.7741 130.232 94.5286Z" fill="black"/>
<path fill-rule="evenodd" clip-rule="evenodd" d="M67.4096 109.272L69.2935 107.679L69.0074 107.108C68.8011 106.696 68.9099 106.673 69.1277 106.514L70.1238 105.777C70.3529 105.588 70.5934 105.611 70.874 105.68L73.8574 106.377H70.7081C69.981 106.422 69.7688 106.702 69.5054 107.239L69.2879 107.679L68.4806 109.335C68.2055 109.907 68.0622 110.666 68.7839 111.523L69.3565 112.203L68.1999 114.539H69.1732L69.9749 112.917C70.038 112.86 71.2235 111.78 71.4752 110.666C71.1317 110.386 70.8913 110.192 71.0802 109.804L71.4409 109.027C71.5614 108.77 71.6013 108.667 71.9448 108.73L75.0714 109.404C75.4607 109.512 76.0334 109.684 76.4514 109.055C76.8809 108.404 76.9382 108.473 77.9343 108.57L79.5321 108.741C81.7138 108.947 83.8956 108.404 84.7428 107.73C85.0407 108.404 85.6306 108.924 85.9053 109.449C86.0084 109.644 85.8369 109.918 85.7049 110.261L83.9126 114.533H86.6785L88.242 110.638C88.3848 110.267 88.5967 109.969 88.757 109.821L87.8579 114.539H90.5437L91.2539 109.872C91.4085 108.833 91.3166 108.501 90.8186 108.073C89.7019 107.13 89.7249 105.154 89.3641 103.955C89.5529 103.846 89.7764 103.789 90.0397 103.823C90.6238 103.874 91.0648 105.365 91.752 106.325C93.1264 108.25 94.9986 110.375 97.1461 107.382C96.9399 107.039 96.7165 106.731 96.4531 106.433L95.8519 105.731C95.5028 105.342 93.8422 103.446 93.1491 102.766C91.5744 101.184 89.158 101.424 88.1959 102.195C86.0141 101.053 83.7124 102.252 83.1685 102.207L79.4121 101.978C79.2401 101.967 78.9824 101.909 78.7991 101.618L79.4978 101.39C78.8449 98.6764 77.2015 96.4086 74.3325 96.0144C74.3325 96.0144 74.1666 95.1578 73.7256 94.992L72.8667 95.9975C72.6264 96.0317 72.3628 96.106 72.1452 96.1971L68.4806 94.8379L71.2292 97.6083C71.2292 97.6083 69.8033 99.6245 69.3967 100.036C69.1277 100.413 69.1502 100.704 69.4538 101.064L69.9866 101.761C70.2612 102.121 70.5648 102.109 71.0058 101.887L71.607 101.573C71.8703 101.355 72.7521 101.784 73.1301 101.441C72.8897 102.23 72.7694 102.989 72.7121 103.589L70.2443 103.292C69.7058 103.218 69.4596 103.292 69.1333 103.549L67.0259 105.165C66.3389 105.691 66.127 106.599 66.5506 107.484L67.4096 109.272ZM87.7951 109.735L86.1231 113.848H85.0807L86.753 109.867C86.9245 109.353 86.5984 109.113 86.1804 108.553C86.7988 108.901 87.2454 109.13 87.9955 109.415C87.9323 109.53 87.8522 109.592 87.7951 109.735ZM71.6699 100.83L71.1946 101.081C70.8627 101.27 70.6966 101.355 70.4102 101.001L70.2039 100.739C70.101 100.613 70.0667 100.31 70.2784 100.07L72.3285 97.6882L70.4389 96.1402L72.8439 97.0256L73.7256 95.9289C73.9834 96.146 73.892 96.7799 73.892 96.7799C74.8653 96.7799 77.6996 98.1852 77.8086 101.704C77.8086 101.704 78.4498 102.646 79.2688 102.698L83.4431 102.949C84.136 102.949 85.8654 101.635 88.0869 102.875C88.6482 102.538 89.2494 102.269 89.868 102.201C91.8264 102.058 93.2692 103.417 94.3403 104.789C95.1247 105.782 96.2012 107.302 96.2012 107.302C95.7375 107.85 95.285 108.033 94.9015 107.896C94.3229 107.599 94.134 107.136 93.951 106.491C93.659 105.468 92.5308 104.594 92.5308 104.594C92.9144 105.28 92.9946 106.057 93.1778 106.771C91.5459 105.16 91.2365 103.195 90.0971 102.921C89.5933 102.795 89.0034 103.012 88.4593 103.64C89.0321 104.971 89.0034 106.514 89.5933 107.547C90.0397 108.319 90.1372 108.387 90.3374 108.558C90.8186 108.901 90.5493 109.524 90.4751 109.975L89.8567 113.842H88.8145L89.5015 110.061C89.7134 108.907 86.4666 108.907 84.806 106.708C83.3915 108.358 79.4234 107.947 77.7055 107.69C77.0127 107.587 76.337 107.633 75.959 108.313C75.7358 108.696 75.3634 108.581 75.1346 108.524L72.0019 107.85C71.4524 107.725 71.2118 107.833 70.9715 108.336L70.3472 109.627C70.2098 109.929 70.2157 110.152 70.4673 110.398L70.7652 110.712C70.5878 111.329 70.0209 111.803 70.0209 111.803L69.3393 111.038C69.0074 110.649 68.99 110.09 69.2534 109.541L70.2671 107.428C70.3872 107.193 70.605 106.942 71.0286 106.942L74.8994 106.885L73.7144 104.96C72.8322 103.515 74.2982 100.939 74.0748 99.7217C73.9547 101.35 71.9793 100.607 71.6699 100.83ZM67.4671 105.685L69.2992 104.291C69.6257 104.046 69.8433 103.886 70.2157 103.932L72.804 104.274C72.9468 104.891 73.3591 105.497 73.3591 105.497L70.605 104.92C70.2157 104.874 70.101 104.891 69.7345 105.154L68.429 106.136C68.1712 106.337 68.1597 106.656 68.3087 106.971L68.5206 107.422L67.61 108.107L67.2606 107.456C66.9058 106.765 66.8828 106.131 67.4671 105.685Z" fill="black"/>
<path fill-rule="evenodd" clip-rule="evenodd" d="M75.45 56.0987C76.452 56.7901 78.2274 57.527 78.2274 57.527V56.35L74.3159 54.8594C74.3159 54.8594 74.3159 55.3388 75.45 56.0987Z" fill="black"/>
<path fill-rule="evenodd" clip-rule="evenodd" d="M78.2205 54.6808V53.5041L73.7827 51.9219C73.7827 51.9219 74.3094 52.4817 75.4435 53.2528C76.4455 53.9383 78.2205 54.6808 78.2205 54.6808Z" fill="black"/>
<path fill-rule="evenodd" clip-rule="evenodd" d="M78.2207 52.0073V50.8252L73.3589 49.043C73.3589 49.043 74.3097 49.8084 75.4435 50.5795C76.4453 51.2705 78.2207 52.0073 78.2207 52.0073Z" fill="black"/>
<path fill-rule="evenodd" clip-rule="evenodd" d="M91.8784 68.0758H96.8485C96.6427 67.356 95.8696 66.6309 94.4207 66.6309C93.0465 66.6309 92.2219 67.4188 91.8784 68.0758Z" fill="black"/>
<path fill-rule="evenodd" clip-rule="evenodd" d="M86.6791 49.043L81.8286 50.8252V52.0073C81.8286 52.0073 83.604 51.2705 84.606 50.5795C85.734 49.8084 86.6791 49.043 86.6791 49.043Z" fill="black"/>
<path fill-rule="evenodd" clip-rule="evenodd" d="M85.734 54.8594L81.8286 56.3556V57.5326C81.8286 57.5326 83.604 56.7901 84.606 56.1045C85.734 55.3388 85.734 54.8594 85.734 54.8594Z" fill="black"/>
<path fill-rule="evenodd" clip-rule="evenodd" d="M86.26 51.9219L81.8223 53.5041V54.6808C81.8223 54.6808 83.6031 53.944 84.5995 53.2584C85.7333 52.4817 86.26 51.9219 86.26 51.9219Z" fill="black"/>
<path fill-rule="evenodd" clip-rule="evenodd" d="M65.6181 66.6309C64.1694 66.6309 63.3962 67.356 63.1904 68.0758H68.1662C67.8114 67.4188 66.9981 66.6309 65.6181 66.6309Z" fill="black"/>
<path fill-rule="evenodd" clip-rule="evenodd" d="M89.8972 45.8659C89.8972 43.0782 85.2017 40.582 80.0194 40.582C74.8372 40.582 70.1417 43.0782 70.1417 45.8659L70.2505 46.5511L72.312 58.3925L62.5201 64.0874C61.4777 64.6988 60.1723 66.3782 60.0062 68.069H61.7929C62.0906 66.3782 63.4246 64.5044 65.9271 64.6189C68.1889 64.7388 69.529 66.1097 70.8573 68.069L71.201 68.5832L71.6935 69.3542H57.292C58.3513 71.4733 59.3533 73.724 59.3533 76.1632V106.032C59.3533 113.715 65.2686 117.376 71.6763 117.376C76.6239 117.376 77.2937 117.153 80.0251 119.878C82.7454 117.153 83.415 117.376 88.3741 117.376C94.7761 117.376 100.697 113.715 100.697 106.032V76.1688C100.697 73.7296 101.699 71.4789 102.758 69.3599H88.3456L88.8437 68.5888L89.1872 68.0747C90.5099 66.1154 91.8556 64.7444 94.1174 64.6245C96.6086 64.5102 97.9539 66.3838 98.2462 68.0747H100.027C99.8665 66.3838 98.5553 64.6988 97.519 64.0933L87.727 58.3981L89.794 46.5568L89.8972 45.8659ZM72.1457 47.2251L79.4525 49.7043V61.1116L74.0701 58.2896L72.1457 47.2251ZM73.9439 71.4278C74.906 72.7414 76.4634 73.7125 78.3072 74.0896C78.462 74.7806 78.84 75.5404 79.5728 76.1517C79.2693 78.1909 80.1454 80.093 82.3444 80.5957C82.5734 81.6354 83.2205 82.4177 84.3026 82.7892L82.7736 84.5485C82.1898 85.2226 81.4279 85.4397 80.7983 85.3596L73.9726 84.5885C74.2703 83.8346 73.4802 82.9607 71.3211 83.3317L74.0069 75.8489L72.3691 72.3816L69.2656 75.0206L69.0365 82.8691L67.7195 82.2238C65.9842 81.4813 65.4805 84.6056 67.1298 84.6171L67.7824 84.6227C67.7423 84.9427 67.8398 85.2966 68.0919 85.4055C67.7824 85.5367 67.6908 86.1194 68.0801 86.3251C67.6852 86.5078 67.6335 87.102 67.9485 87.359C67.6051 87.9359 67.5534 89.1866 68.7502 89.501C69.7294 89.7581 70.3419 88.7072 70.5425 88.0956L81.1589 91.3745C82.6648 91.8029 83.73 91.5631 84.9785 90.4721L87.7501 88.0558C87.4005 89.638 87.9733 91.0604 89.1815 91.5345C89.1815 91.5345 89.0096 92.957 89.0613 93.5908H61.4206V76.1688C61.4206 74.5466 60.9509 72.9245 60.3901 71.4278H73.9439ZM85.3619 78.0365C84.7781 79.1505 84.8352 80.4301 85.5222 81.5897L85.0643 82.035C83.0715 81.7895 82.2871 78.8249 82.2871 78.8249C82.2469 79.0934 82.2241 79.3505 82.23 79.6131C81.0675 79.1847 80.3343 78.1567 80.3918 76.7459C80.8328 76.9914 81.3252 77.1626 81.8519 77.2542L81.9892 76.3857C80.5976 76.1459 79.7847 75.2778 79.4755 74.2493C79.4069 74.2437 79.3494 74.2268 79.2864 74.2208C79.5326 74.2381 79.7791 74.261 80.0307 74.261C80.8554 74.261 81.64 74.1353 82.373 73.9181C82.9512 74.7407 83.9763 75.3291 85.0072 75.4432C84.8408 76.1288 84.921 76.9799 85.3619 78.0365ZM88.3111 85.8737C88.1105 86.1424 87.9502 86.4506 87.8471 86.7877L86.7363 87.8045C86.9597 86.1822 85.8661 84.2686 84.8695 83.486L86.0491 82.3322L86.2841 82.5723C85.8889 83.606 86.6621 85.6339 88.3111 85.8737ZM82.9456 85.3652L83.8616 84.4686C84.7894 85.2797 86.015 87.0905 85.6312 88.8156L84.6348 89.7296C84.4285 89.9296 84.2168 90.0722 83.9993 90.2034C84.6235 88.6671 83.8273 86.3021 82.9456 85.3652ZM80.9756 86.1251H81.0043C81.3365 86.1766 81.6917 86.1194 82.0122 85.988C82.7109 86.9821 83.2548 89.244 82.4189 90.6548C81.9433 90.6665 81.4798 90.5805 81.0445 90.455L80.7008 90.3521C81.4053 89.2611 81.3078 87.3302 80.9756 86.1251ZM78.6681 85.8395L79.9565 85.9995C80.1627 87.0676 80.0251 88.9128 79.3438 89.9638L77.8434 89.5295C78.5022 88.6385 78.8114 86.8048 78.6681 85.8395ZM75.9825 85.514L77.5458 85.6967C77.7004 86.5535 77.4081 88.3755 76.8186 89.244L75.2265 88.787C75.8622 87.9473 76.091 86.468 75.9825 85.514ZM69.6549 85.097C68.9278 85.331 68.6071 84.8054 68.6357 84.3602C70.0616 83.8402 70.6971 84.1775 71.115 84.44C71.4987 84.6799 71.8196 85.3652 72.3346 85.7939C72.2489 86.3764 72.0713 87.2217 71.8596 87.7871C70.3994 87.4161 70.3249 86.1307 70.8688 85.3484C70.5653 84.9942 70.2448 84.9026 69.6549 85.097ZM68.6357 87.9359C68.6357 87.9359 69.0711 88.1186 69.6206 88.1586C69.5576 88.4615 69.3227 88.747 68.9506 88.6671C68.6414 88.5985 68.5037 88.2216 68.6357 87.9359ZM67.1984 83.7659C66.8375 83.5261 66.9978 83.0005 67.3988 83.0005C67.8398 83.012 68.4236 83.5088 69.0022 83.7545C69.0022 83.7545 67.4846 83.9601 67.1984 83.7659ZM68.6813 86.7933C68.9966 87.0962 69.9413 86.9821 69.9413 86.9821L69.9758 87.1704C69.5635 87.719 68.418 87.4733 68.6813 86.7933ZM69.9528 86.1707C69.2769 86.4392 68.5843 86.0738 68.796 85.6395C69.111 85.925 69.9871 85.7824 69.9871 85.7824L69.9528 86.1707ZM70.9492 78.3281L69.6549 83.0293L70.0959 75.4432L72.0999 73.7354L73.1193 75.9688L70.5425 83.3378L71.2241 78.3794C71.287 78.0253 71.0063 77.9852 70.9492 78.3281ZM71.0408 84.0287C71.0408 84.0287 72.4836 83.9601 72.8902 84.1145C73.1879 84.24 72.9877 84.7429 72.5982 84.6857C72.1918 84.6344 71.0408 84.0287 71.0408 84.0287ZM73.3026 85.1713L74.8715 85.3652C74.9918 86.2223 74.7683 87.6731 74.2073 88.4842L72.6898 88.0445C73.0909 87.0905 73.1879 86.1937 73.3026 85.1713ZM98.6296 106.038C98.6296 109.671 96.9465 112.43 94.146 113.96L95.1483 111.927H94.1749L92.8863 114.532C91.5521 115.034 90.0405 115.314 88.3682 115.314C83.2604 115.314 81.909 115.52 80.0194 117.399C78.1242 115.52 76.7728 115.314 71.6707 115.314C70.0101 115.314 68.4981 115.046 67.1697 114.543H67.204L68.4924 111.927H67.5247L66.3966 114.217C66.1275 114.092 65.8642 113.955 65.6123 113.806L66.5399 111.927H65.578L64.8906 113.326C62.7033 111.721 61.4149 109.208 61.4149 106.038V94.6134H98.6183V106.038H98.6296ZM99.6664 71.4278C99.0879 72.9245 98.624 74.5466 98.624 76.1688V93.5908H96.5913C95.6694 92.7 94.8905 89.7296 94.8905 89.7296C94.3866 90.7976 94.965 92.9626 95.5033 93.5908H92.8863C92.2393 92.7169 91.678 89.6211 91.678 89.6211C90.8935 90.5119 91.3918 92.9169 91.8786 93.5908H90.1377C90.0287 92.3515 90.384 91.0033 90.384 91.0033C89.4736 90.8377 88.5059 90.3578 88.5115 89.3525C88.9696 89.7809 89.1585 89.775 89.794 89.7638L90.5329 89.181C88.082 89.2613 87.9676 86.5764 89.9143 85.3196C87.9733 85.3826 86.5244 84.2288 87.2287 82.1723C85.8487 81.4583 85.3619 79.1276 86.3813 78.1052C85.6427 77.3053 85.5222 75.7348 85.992 74.6665C85.0128 74.6665 83.9135 74.2781 83.3006 73.6097C83.2548 73.6326 83.1977 73.6497 83.146 73.667C84.3714 73.17 85.4077 72.3929 86.1064 71.4335H99.6664V71.4278ZM92.2566 63.0423C90.2409 63.3908 88.5059 65.8528 87.0857 68.0747L86.9254 68.3316H85.4077L85.4021 68.5944C85.2475 70.3082 83.6156 72.6329 80.0194 72.6329C78.3589 72.6329 77.1046 72.1247 76.2461 71.4335C75.5016 70.828 75.0319 70.0794 74.8029 69.3657C74.7169 69.1088 74.6652 68.8457 74.6426 68.5944L74.6311 68.3316H73.1249L72.9647 68.0747C71.5389 65.8584 69.8039 63.3965 67.794 63.0423L73.2854 59.8606L80.0307 63.5164L86.7652 59.8606L92.2566 63.0423ZM85.969 58.2896L80.592 61.1116V49.7043L87.8988 47.2251L85.969 58.2896ZM80.0251 48.4592L72.0372 45.3117C72.7129 43.7122 75.8451 42.347 80.0251 42.347C84.1995 42.347 87.326 43.7122 88.0017 45.3117L80.0251 48.4592Z" fill="black"/>
<path fill-rule="evenodd" clip-rule="evenodd" d="M97.777 82.6875L97.7944 81.8136C95.1086 81.7506 94.4902 78.5918 94.4902 78.5918C93.7057 80.9165 95.7558 82.6533 97.777 82.6875Z" fill="black"/>
<path fill-rule="evenodd" clip-rule="evenodd" d="M94.387 88.0394L94.118 87.2109C91.8276 87.7937 90.6423 84.1719 90.6423 84.1719C89.9093 86.8053 92.4631 88.6676 94.387 88.0394Z" fill="black"/>
<path fill-rule="evenodd" clip-rule="evenodd" d="M95.9786 84.6793C93.2413 85.1136 92.1193 81.9375 92.1193 81.9375C91.8155 83.6684 92.938 85.4221 94.7534 85.6048C94.3411 87.8611 96.4426 89.0205 98.2634 88.2152L98 87.427C96.4196 87.9583 94.9366 86.3986 95.9786 84.6793Z" fill="black"/>
<path fill-rule="evenodd" clip-rule="evenodd" d="M94.3394 75.6174L94.3622 74.7433C90.7489 74.0008 91.0524 71.5215 91.0524 71.5215C90.2738 73.8579 92.3237 75.583 94.3394 75.6174Z" fill="black"/>
<path fill-rule="evenodd" clip-rule="evenodd" d="M71.4469 111.93L70.1528 114.546H71.1264L72.4146 111.93H71.4469Z" fill="black"/>
<path fill-rule="evenodd" clip-rule="evenodd" d="M73.3995 111.93L72.1108 114.546H73.0903L74.3672 111.93H73.3995Z" fill="black"/>
<path fill-rule="evenodd" clip-rule="evenodd" d="M81.222 111.93L79.9336 114.546H80.9011L82.1953 111.93H81.222Z" fill="black"/>
<path fill-rule="evenodd" clip-rule="evenodd" d="M83.1813 111.93L81.8813 114.546H82.8606L84.1431 111.93H83.1813Z" fill="black"/>
<path fill-rule="evenodd" clip-rule="evenodd" d="M79.2686 111.93L77.9746 114.546H78.9482L80.2366 111.93H79.2686Z" fill="black"/>
<path fill-rule="evenodd" clip-rule="evenodd" d="M90.6938 114.546H91.6672L92.9556 111.93H91.982L90.6938 114.546Z" fill="black"/>
<path fill-rule="evenodd" clip-rule="evenodd" d="M75.3575 111.93L74.0688 114.546H75.0422L76.3308 111.93H75.3575Z" fill="black"/>
<path fill-rule="evenodd" clip-rule="evenodd" d="M77.306 111.93L76.0176 114.546H76.9968L78.2852 111.93H77.306Z" fill="black"/>
<path fill-rule="evenodd" clip-rule="evenodd" d="M72.883 97.8633C72.7054 97.8633 72.5508 98.0347 72.5508 98.2575C72.5508 98.4744 72.7054 98.6515 72.883 98.6515C73.0662 98.6515 73.2265 98.4744 73.2265 98.2575C73.2208 98.0347 73.0662 97.8633 72.883 97.8633Z" fill="black"/>
<path fill-rule="evenodd" clip-rule="evenodd" d="M80.0244 38.8186C84.0329 38.8186 87.2452 40.1439 89.0145 41.566C89.0145 41.566 89.5471 38.3902 91.3394 35.6026L88.1097 35.9623L86.4205 32.3752L83.1739 34.0603L80.0244 30.9414L76.875 34.0603L73.6166 32.3752L71.9274 35.9623L68.6978 35.6026C70.4957 38.3902 71.0227 41.566 71.0227 41.566C72.7979 40.1439 76.0158 38.8186 80.0244 38.8186ZM72.4828 37.3905L74.0233 34.1345L76.875 35.6485L80.0244 32.5466L83.1739 35.6485L86.0256 34.1345L87.5487 37.3905L89.4442 37.0992C88.9574 38.0075 88.5909 38.8013 88.2531 39.9152C86.1802 38.7101 83.0995 37.7789 80.0244 37.7789C76.938 37.7789 73.8629 38.7101 71.79 39.9152C71.4465 38.8013 71.0857 38.0075 70.5932 37.0992L72.4828 37.3905Z" fill="black"/>
<path fill-rule="evenodd" clip-rule="evenodd" d="M83.324 32.4026C83.7934 32.4425 84.2114 32.0884 84.2513 31.6258C84.2974 31.1575 83.6102 29.9121 83.6102 29.9121C83.6102 29.9121 82.5852 31.0144 82.5509 31.483C82.505 31.94 82.86 32.357 83.324 32.4026Z" fill="black"/>
<path fill-rule="evenodd" clip-rule="evenodd" d="M88.6144 34.3167C89.0325 34.5397 89.5419 34.374 89.7653 33.957C89.9944 33.5456 89.8454 32.1348 89.8454 32.1348C89.8454 32.1348 88.4826 32.7461 88.2594 33.1629C88.0416 33.5742 88.2023 34.0884 88.6144 34.3167Z" fill="black"/>
<path fill-rule="evenodd" clip-rule="evenodd" d="M76.721 32.4026C77.1962 32.357 77.5456 31.9456 77.5054 31.483C77.4598 31.0144 76.4461 29.9121 76.4461 29.9121C76.4461 29.9121 75.7648 31.1632 75.8049 31.6258C75.8392 32.0884 76.2572 32.4425 76.721 32.4026Z" fill="black"/>
<path fill-rule="evenodd" clip-rule="evenodd" d="M71.4356 34.3167C71.8536 34.0884 72.0081 33.5742 71.7904 33.1629C71.5728 32.7461 70.2043 32.1348 70.2043 32.1348C70.2043 32.1348 70.0612 33.5456 70.2903 33.957C70.5022 34.374 71.0176 34.5397 71.4356 34.3167Z" fill="black"/>
<path fill-rule="evenodd" clip-rule="evenodd" d="M134.91 63.3356C136.038 62.9355 136.909 61.8618 137.344 60.8678C134.475 60.4565 126.853 57.2633 120.589 59.8625C122.936 57.6404 125.044 57.3549 125.244 54.1563C126.217 54.8531 127.861 55.2471 128.789 53.5848C128.142 51.6826 126.51 53.225 126.281 52.6994C125.96 51.9681 128.336 52.9224 128.846 50.4489C126.996 49.8149 126.446 51.3228 126.115 50.9743C125.811 50.6433 127.288 50.0088 126.2 48.0156C124.276 49.1408 125.278 50.4033 124.872 50.5461C124.379 50.7401 124.769 49.1921 122.639 49.2663C122.427 51.5456 124.637 51.6198 124.276 51.9798C123.835 52.4195 123.263 50.6715 121.654 51.5571C121.682 53.3964 123.177 54.4074 124.717 53.9733C124.465 57.4692 121.247 56.818 118.854 60.7593C123.927 63.3527 126.223 67.8768 129.344 71.0067C130.375 70.2759 132.139 67.0312 132.139 67.0312C135.517 69.6417 137.893 67.0427 137.893 67.0427C136.731 65.8545 136.685 64.9522 134.91 63.3356ZM129.986 63.9696C130.335 64.7409 131.028 67.431 129.373 69.4819C127.489 65.7289 124.9 62.513 122.804 61.125C122.347 60.828 123.057 60.308 124.351 60.1365C128.25 59.3997 132.826 61.0449 135.002 61.622C133.988 62.3757 133.163 62.7186 132.127 62.8444C133.708 64.1694 134.864 65.289 135.677 66.5344C134.148 66.9171 133.284 65.9517 129.986 63.9696Z" fill="black"/>
<path fill-rule="evenodd" clip-rule="evenodd" d="M97.4095 122.314V118.041C94.0997 119.555 89.891 120.783 84.474 121.269L84.2276 122.794C84.6857 122.857 85.2698 122.914 86.0488 122.965C84.0443 123.239 81.4504 123.371 80.0304 123.371C78.6046 123.371 76.0163 123.239 74.0064 122.965C74.7795 122.914 75.3634 122.857 75.8217 122.794L75.5753 121.269C70.1583 120.783 65.944 119.555 62.6398 118.041V122.314L58.1504 124.153C61.4773 125.878 65.3026 127.284 69.723 128.42L69.1962 130.208C71.7275 130.951 75.7757 131.705 80.0189 131.705C84.2619 131.705 88.3049 130.945 90.8413 130.208L90.3202 128.42C94.7354 127.284 98.572 125.878 101.899 124.153L97.4095 122.314ZM60.5496 124.251L63.5789 123.034V119.555C65.5256 120.303 68.0796 121.08 71.7444 121.84L70.0265 127.421C66.2875 126.564 63.1092 125.41 60.5496 124.251ZM80.0245 130.682C76.606 130.682 73.2677 130.174 70.416 129.471L72.2312 123.617C73.4338 123.896 76.4457 124.262 80.0245 124.262C83.6092 124.262 86.6042 123.89 87.8125 123.617L89.6333 129.471C86.7701 130.174 83.4375 130.682 80.0245 130.682ZM90.0284 127.421L88.3106 121.84C91.9751 121.086 94.5291 120.303 96.4761 119.555V123.034L99.4997 124.251C96.9401 125.41 93.7733 126.564 90.0284 127.421Z" fill="black"/>
<path fill-rule="evenodd" clip-rule="evenodd" d="M27.9101 67.0312C27.9101 67.0312 29.6738 70.2759 30.6987 71.0067C33.8252 67.8824 36.1271 63.3583 41.1948 60.7593C38.7955 56.818 35.5775 57.4806 35.3369 53.9733C36.8772 54.4074 38.3661 53.3906 38.4005 51.5571C36.7857 50.6715 36.2132 52.4312 35.7779 51.9798C35.4173 51.6084 37.6217 51.5456 37.4157 49.2663C35.2854 49.1979 35.6747 50.7401 35.1766 50.5461C34.7757 50.4033 35.7779 49.1349 33.8482 48.0156C32.7659 50.0149 34.2489 50.6433 33.9397 50.9743C33.6135 51.3228 33.0523 49.8205 31.2082 50.4489C31.7066 52.9224 34.0943 51.9681 33.7738 52.6994C33.5447 53.225 31.9183 51.6826 31.277 53.5848C32.1933 55.2529 33.8425 54.8587 34.81 54.1619C35.0164 57.3663 37.1179 57.6348 39.4712 59.8625C33.2012 57.2633 25.5795 60.4565 22.6991 60.8734C23.1401 61.8618 24.0105 62.9355 25.1385 63.3241C23.3635 64.9578 23.3174 65.8605 22.1553 67.0427C22.1553 67.0427 24.5259 69.6417 27.9101 67.0312ZM24.3597 66.54C25.1786 65.2947 26.3297 64.1694 27.9215 62.85C26.8792 62.7186 26.0603 62.3757 25.0411 61.622C27.2227 61.0449 31.8038 59.394 35.7091 60.1365C36.9917 60.308 37.7135 60.828 37.2438 61.125C35.1479 62.513 32.5539 65.7289 30.67 69.4819C29.0208 67.431 29.7196 64.7466 30.0574 63.9753C26.7647 65.9517 25.9057 66.9171 24.3597 66.54Z" fill="black"/>
<path fill-rule="evenodd" clip-rule="evenodd" d="M77.2817 64.6465V66.5259C77.929 65.7434 79.1887 65.8975 79.1887 65.8975V68.6108C79.1887 68.6108 79.1429 69.9477 78.6733 70.5188H80.0305H81.3877C80.9122 69.9477 80.8723 68.6108 80.8723 68.6108V65.9031C80.8723 65.9031 82.1262 65.7492 82.7734 66.5315V64.6521H80.0305H77.2817V64.6465Z" fill="black"/>
</g>
<defs>
<clipPath id="clip0_1120_4374">
<rect width="122" height="108" fill="white" transform="translate(19 26)"/>
</clipPath>
</defs>
</svg>
