<svg width="160" height="160" viewBox="0 0 160 160" fill="none" xmlns="http://www.w3.org/2000/svg">
<path d="M103.676 42.8624C104.745 41.5807 107.095 38.3766 107.737 37.0949C94.0594 36.8813 80.3822 37.0949 66.7051 37.0949C60.0802 37.0949 52.8142 36.8813 46.1894 37.0949C38.9234 37.3085 37 41.5807 37 48.6298V109.935C37 116.984 37.4274 121.897 43.4112 123.606C45.9756 124.247 97.265 123.82 104.531 123.82C111.37 123.82 117.781 125.101 121.627 120.829C125.047 116.984 123.764 108.44 123.764 102.459C123.764 93.0602 124.406 44.7848 122.91 42.4351C121.414 43.7168 99.6158 73.1947 97.6924 75.758L73.9711 107.372C73.7574 107.586 73.5437 108.013 73.33 108.226L72.9026 108.654L72.6888 108.867L72.4751 109.081C70.9792 107.799 53.0279 80.671 50.036 76.1852C48.9675 74.6899 47.6853 72.9811 47.0442 71.4858L59.4391 62.9415C60.935 64.4368 67.7736 75.1172 69.9107 78.1077C70.5518 78.9621 70.9792 79.6029 71.6203 80.4574C71.834 80.8846 72.2614 81.5254 72.4751 81.739C72.9025 82.3798 72.6888 81.9526 73.1162 82.3798L73.5437 82.807L103.676 42.8624Z" fill="#0099D5"/>
</svg>
