<svg width="160" height="160" viewBox="0 0 160 160" fill="none" xmlns="http://www.w3.org/2000/svg">
<path d="M104.453 58.661V60.5575H120.745C121.831 60.5575 123.461 60.5575 124.53 61.6422C125.6 62.7268 125.616 64.3538 125.616 65.422V81.6918C125.616 82.7764 125.616 84.4034 124.53 85.4716C123.444 86.5563 121.815 86.5563 120.745 86.5563H112.879C111.523 86.5563 109.755 86.5563 109.094 85.0641C108.416 83.5719 109.365 82.2177 110.18 81.1199L120.778 67.0194H104.486L97.969 75.6966C96.8763 77.1494 95.9316 78.4083 95.9316 80.0352C95.9316 81.6622 96.8104 82.8323 97.969 84.3738L99.5982 86.5431C101.227 88.7124 102.857 90.8817 105.029 91.9664C107.201 93.051 109.769 93.051 113.323 93.051H120.367C124.448 93.051 130.537 93.051 134.618 88.9754C138.7 84.8997 138.7 78.9506 138.7 76.7813V70.2734C138.7 68.1041 138.7 62.1549 134.618 58.0793C130.537 54.0036 124.448 54.0036 120.367 54.0036L109.11 54C108.024 53.9997 106.668 54 105.588 55.0847C104.502 56.1693 104.502 57.5235 104.502 58.6016" fill="#C4151C"/>
<path d="M85.0342 67.0742H101.162L81.7429 93.1716H65.6152L85.0342 67.0742Z" fill="#C4151C"/>
<path d="M21.5107 71.6758C21.5107 70.5911 21.5107 69.2369 22.5969 68.1589C23.683 67.0808 25.0391 67.0742 26.1186 67.0742H53.404C56.9258 67.0742 59.5259 67.0742 61.6982 68.1589C63.8705 69.2435 65.4833 71.4128 67.129 73.5821L68.7582 75.7514C69.9134 77.2897 70.7955 78.463 70.7955 80.09C70.7955 81.717 69.8509 82.9759 68.7582 84.4286L62.2413 93.1058H45.9491L56.5472 79.0054C57.3602 77.9207 58.3114 76.5666 57.6334 75.0612C56.9554 73.569 55.1912 73.569 53.8483 73.569H41.0779V106.108H28.0441V73.569H21.5272V71.6692" fill="#C4151C"/>
</svg>
