<svg width="160" height="160" viewBox="0 0 160 160" fill="none" xmlns="http://www.w3.org/2000/svg">
<circle cx="80" cy="80" r="54" fill="#64C474"/>
<mask id="mask0_1120_4381" style="mask-type:alpha" maskUnits="userSpaceOnUse" x="26" y="26" width="108" height="108">
<circle cx="80" cy="80" r="54" fill="#D9D9D9"/>
</mask>
<g mask="url(#mask0_1120_4381)">
<path d="M67.7492 48.0913H68.2291C54.2168 94.538 44.5232 106.245 36.9412 109.1V108.244C36.9412 106.055 37.3251 102.152 38.9566 98.4403C37.613 97.3933 35.8854 96.8224 34.1579 96.8224C29.839 96.8224 26 98.4403 26 103.961C26 112.432 29.4551 117 34.2539 117C45.6749 117 55.7524 103.485 68.7091 62.4631L68.2291 73.5989L64.7741 115.763C65.9257 116.524 67.6533 117 69.3808 117C72.932 117 75.811 115.763 77.5387 111.385L98.4612 62.6535L92.031 105.674C90.6873 114.43 96.3498 117 101.628 117C107.195 117 112.858 113.002 118.136 107.577C118.712 106.911 119 106.15 119 105.483C119 104.532 118.424 103.675 117.368 103.199C115.161 105.103 110.65 107.958 107.579 107.958C104.988 107.958 103.644 106.53 104.412 100.915L112.282 46.0926C111.13 45.3311 108.731 44.8552 107.003 44.8552C103.452 44.8552 100.477 46.6635 98.7491 50.9465L76.483 100.725L79.938 50.0899H80.0339C82.2415 50.0899 83.3931 48.1866 83.3931 46.3781C83.3931 45.4264 83.0093 44.4745 82.0495 43.9036C77.9225 46.1877 69.7648 42 61.7986 42C50.4737 42 45.8669 48.8528 45.8669 54.849C45.8669 59.6078 48.7461 63.8908 53.641 63.8908C54.9846 63.8908 56.3282 63.6054 57.7677 62.9389C56.6161 61.6065 55.8483 59.5125 55.8483 57.4188C55.8483 52.9454 59.0155 48.0913 67.7492 48.0913Z" fill="#F5F7F9"/>
</g>
</svg>
