<svg width="160" height="160" viewBox="0 0 160 160" fill="none" xmlns="http://www.w3.org/2000/svg">
<g clip-path="url(#clip0_1120_4383)">
<path d="M126.73 98.4897C121.657 103.621 114.787 106.4 107.6 106.507C102.738 106.507 98.0879 105.224 94.0718 102.766L88.7873 108.752C87.5191 110.355 85.6167 110.997 83.82 110.997C82.2346 110.997 80.7549 110.355 79.381 109.286C76.6331 106.828 76.4217 102.552 78.7468 99.8794L87.9418 89.5105C90.584 86.5174 95.2343 86.3035 98.0879 89.0829C100.73 91.7554 104.112 93.2518 107.811 93.2518C111.51 93.1449 114.998 91.6483 117.535 89.0829C123.031 83.6311 123.031 74.5449 117.535 68.9863C114.892 66.2071 111.299 64.8174 107.494 64.8174C103.795 64.8174 100.202 66.2071 97.6652 68.8794L71.0316 98.276L70.9259 98.3829L70.8202 98.4897C65.5358 103.621 58.666 106.507 51.3735 106.507C43.9753 106.507 37.1054 103.621 31.9267 98.4897C26.8536 93.4657 24 86.5174 24 79.1414C24 71.7657 26.8536 64.8174 31.9267 59.6863C36.9997 54.5553 43.8696 51.6691 51.162 51.5622C56.0238 51.6691 60.6741 53.0587 64.3732 55.3036L68.0723 51.2415C70.6088 48.4622 74.7307 48.2484 77.4786 50.707C80.2265 53.1656 80.4379 57.4415 78.007 60.1139L70.2917 68.7725C67.7552 71.5518 63.5277 71.6588 60.8854 68.9863C59.6172 67.7035 58.0319 66.6346 56.4465 65.8863C54.7554 65.138 52.9587 64.8174 51.162 64.8174C47.4629 64.9243 43.9753 66.4208 41.4387 68.9863C38.6908 71.6588 37.2111 75.1863 37.2111 79.0346C37.2111 82.8829 38.7964 86.4105 41.4387 89.0829C44.0809 91.8622 47.5687 93.2518 51.4792 93.2518C55.1783 93.2518 58.7717 91.7552 61.3081 89.1897L88.2589 59.6863C93.3319 54.4484 100.307 51.5622 107.494 51.5622C114.892 51.5622 121.762 54.4484 126.941 59.6863C137.721 70.4829 137.721 87.9071 126.73 98.4897Z" fill="#4285F5"/>
</g>
<defs>
<clipPath id="clip0_1120_4383">
<rect width="111" height="62" fill="white" transform="translate(24 49)"/>
</clipPath>
</defs>
</svg>
