<svg width="160" height="160" viewBox="0 0 160 160" fill="none" xmlns="http://www.w3.org/2000/svg">
<rect x="35" y="35" width="89" height="89" rx="2" fill="#F78F1E"/>
<path fill-rule="evenodd" clip-rule="evenodd" d="M78.476 79.2618C78.9238 78.59 78.9238 77.7148 78.476 77.043L61.7412 51.9409C61.1285 51.0219 61.3769 49.7801 62.2959 49.1674L72.4318 42.4102C73.3509 41.7975 74.5926 42.0458 75.2053 42.9649L97.9241 77.043C98.372 77.7148 98.372 78.59 97.9241 79.2618L75.2053 113.34C74.5926 114.259 73.3509 114.507 72.4318 113.895L62.2959 107.137C61.3769 106.525 61.1285 105.283 61.7412 104.364L78.476 79.2618Z" fill="white"/>
<rect x="56.5762" y="40.3945" width="29.6667" height="10.7879" rx="2" fill="#F78F1E"/>
<rect x="56.5762" y="105.121" width="35.0606" height="10.7879" rx="2" fill="#F78F1E"/>
</svg>
