<svg width="160" height="160" viewBox="0 0 160 160" fill="none" xmlns="http://www.w3.org/2000/svg">
<path d="M60.6603 32.1713L98.1207 32C107.106 32.0009 115.723 35.5355 122.076 41.8263C128.429 48.1171 131.999 56.6491 132 65.5456V94.4579C132 98.863 131.124 103.225 129.421 107.295C127.718 111.364 125.223 115.062 122.077 118.177C118.931 121.292 115.196 123.762 111.085 125.448C106.975 127.133 102.57 128 98.1207 128H60.8757C56.427 128 52.0218 127.133 47.9116 125.447C43.8014 123.762 40.0667 121.291 36.9208 118.177C33.7753 115.062 31.2801 111.364 29.5779 107.294C27.8757 103.225 26.9997 98.8628 27 94.4579V65.5456C27 47.0156 41.9495 32.1713 60.6603 32.1713Z" fill="black"/>
<path d="M69.6426 85.8314V84.2076H59.757V76.9807H79.0281V85.577C79.0281 99.1075 72.4988 106.969 60.1409 106.969C47.4027 106.969 40 97.0377 40 79.5279C40 62.4536 48.0789 52 62.8914 52C68.491 52 73.3158 53.467 75.9536 55.3765V62.816C72.1639 60.4925 67.8004 59.247 63.3422 59.2165C53.6257 59.2165 49.5087 65.743 49.5087 79.5279C49.5087 92.8981 52.9178 99.7382 60.317 99.7382C67.3887 99.7731 69.6426 94.3616 69.6426 85.8314ZM119 86.8489C119 99.8393 111.921 107 101.743 107C91.5655 107 84.4868 99.8393 84.4868 86.9465C84.4868 73.9561 91.562 66.7954 101.743 66.7954C111.925 66.7954 119 73.9247 119 86.8489ZM109.445 86.8489C109.445 77.9354 106.871 74.0223 101.757 74.0223C96.6439 74.0223 94.066 77.9354 94.066 86.9465C94.066 95.8599 96.6404 99.7766 101.757 99.7766C106.875 99.7766 109.445 95.8286 109.445 86.8489Z" fill="white"/>
</svg>
