<svg width="160" height="160" viewBox="0 0 160 160" fill="none" xmlns="http://www.w3.org/2000/svg">
<g clip-path="url(#clip0_1120_4399)">
<path d="M138 50H62.6206V75.7143H23V110H138V50Z" fill="#FF0508"/>
<path d="M80.5001 61.5712H79.6419C76.4951 61.714 74.6357 63.5711 74.6357 66.714C74.6357 69.714 76.4951 71.8569 79.6419 71.9997H80.5001V61.5712ZM80.5001 76.714V75.2854H79.6419C74.4926 74.9997 71.2028 71.9997 71.2028 66.8569C71.2028 61.2854 74.4926 58.714 79.6419 58.5711H80.5001V57.1426H83.9329V58.5711H84.7911C90.0834 58.8569 93.2302 61.2854 93.2302 66.8569C93.2302 72.1426 90.0834 74.9997 84.7911 75.2854H83.9329V76.714H80.5001ZM83.9329 72.1426H84.7911C87.7949 71.9997 89.7973 69.8569 89.7973 66.8569C89.7973 63.8569 87.7949 61.8569 84.7911 61.714H83.9329V72.1426ZM84.076 101.857V98.8569H86.0784C86.7936 98.8569 87.2227 98.5711 87.5088 97.9997L81.6444 84.1426H85.5063L89.3682 94.8569H90.0834L93.9454 84.1426H97.6643L92.372 96.9997C91.2277 99.8569 89.3682 101.857 86.0784 101.857H84.076ZM95.9478 75.714V57.9997H99.5237V72.4283H100.239L104.244 57.9997H110.823V75.714H107.248V61.1426H106.532L102.67 75.714H95.9478ZM113.684 101.857V84.1426H117.26V98.5712H117.975L121.98 84.1426H128.56V101.857H124.984V87.2854H124.269L120.407 101.714H113.684V101.857ZM58.6158 95.714L62.1916 96.1426C61.3334 99.8569 58.3297 102.143 54.4677 102.143C48.7464 102.143 46.0287 97.9997 46.0287 92.8569C46.0287 87.5711 48.8894 83.5711 54.6108 83.5711C58.0436 83.5711 60.7613 85.2854 62.0486 88.5711L58.7588 89.9997C58.0436 88.1426 56.7563 86.714 54.6108 86.714C51.0349 86.714 49.8906 89.5711 49.8906 92.714C49.8906 95.8569 51.1779 98.8569 54.7538 98.8569C56.7563 98.9997 58.0436 97.714 58.6158 95.714ZM114.399 75.714V57.9997H117.975V65.1426H125.127V57.9997H128.703V75.714H125.127V68.4283H117.975V75.714H114.399ZM63.3359 101.857V98.4283H64.4802C66.0536 98.4283 66.6257 97.5712 66.6257 95.1426L66.7687 84.2854V84.1426H79.2128V101.857H75.7799V87.2854H70.2016L70.0585 94.714C69.9155 99.5711 68.3421 101.714 64.9093 101.714H63.3359V101.857ZM100.239 101.857V84.1426H111.539V87.2854H103.815V101.714H100.239V101.857ZM32.4404 101.857V98.8569H34.4429C35.158 98.8569 35.5871 98.5711 35.8732 97.9997L30.0088 84.1426H33.8707L37.7327 94.8569H38.4478L42.3098 84.1426H45.8857L40.5934 96.9997C39.4491 99.8569 37.5896 101.857 34.2998 101.857H32.4404Z" fill="white"/>
</g>
<defs>
<clipPath id="clip0_1120_4399">
<rect width="115" height="60" fill="white" transform="translate(23 50)"/>
</clipPath>
</defs>
</svg>
