<svg width="160" height="160" viewBox="0 0 160 160" fill="none" xmlns="http://www.w3.org/2000/svg">
<path d="M71.2732 139.378C65.7011 138.587 56.3819 135.447 51.1851 132.61C35.6273 124.117 24.6535 109.208 20.9087 91.4758C19.7005 85.7548 19.6964 74.2149 20.9007 68.5129C25.0137 49.0374 38.0871 32.7748 55.7421 25.1721C69.6629 19.1773 83.9792 18.3879 98.1383 22.8344C108.607 26.122 116.046 30.7915 123.955 39.0404C134.767 50.3164 140.253 64.0951 140.253 79.9753C140.253 95.8555 134.767 109.634 123.955 120.91C116.061 129.143 108.604 133.83 98.1995 137.097C89.1302 139.945 80.446 140.681 71.2732 139.378ZM93.8757 136.217C110.051 132.478 124.754 120.791 132.483 105.528C133.384 103.749 134.947 99.8191 135.957 96.7948C137.693 91.5987 137.794 90.6731 137.794 79.9753C137.794 69.2776 137.693 68.3519 135.957 63.1559C130.428 46.6004 119.508 34.2948 104.022 27.1682C90.6866 21.0314 73.7719 20.4728 59.5827 25.7006C42.7854 31.8894 28.8519 47.1225 23.7141 64.9151C22.4891 69.1575 22.2607 71.5238 22.2607 79.9753C22.2607 88.4268 22.4891 90.7932 23.7141 95.0356C26.9984 106.409 34.7653 118.159 43.4979 124.965C58.4651 136.63 75.5641 140.449 93.8757 136.217ZM74.0756 123.999C62.7472 122.216 51.3936 115.902 48.8901 109.993C48.4232 108.891 46.9995 107.348 45.7263 106.564C42.6988 104.701 40.748 101.475 40.748 98.3336C40.748 96.3579 40.3146 95.4128 38.7219 93.9155C36.8459 92.1519 36.7211 91.7678 37.036 88.7289C37.2698 86.4723 37.0911 85.0589 36.4641 84.2048C34.2512 81.1905 36.4665 74.7823 40.8782 71.4367C47.7372 66.2351 61.1225 62.0941 84.2626 58.015C88.3705 57.2908 92.6083 56.4405 93.68 56.1254C97.5748 54.9802 93.2673 54.4223 80.6905 54.4432C70.1039 54.4608 67.52 54.6705 62.5053 55.9191C54.6468 57.8758 50.6322 59.411 43.5382 63.1722C38.2556 65.9729 37.621 66.175 38.0793 64.9104C39.2198 61.7639 52.2064 55.4479 63.312 52.6385C68.2606 51.3866 70.6041 51.2069 81.34 51.2554C88.127 51.2861 95.1112 51.6178 96.8605 51.9926C99.8352 52.6299 100.145 52.5703 101.649 51.0724C102.533 50.1916 103.002 49.2365 102.69 48.9499C101.187 47.5687 92.9743 46.2039 84.1833 45.8747C76.8583 45.6004 73.1471 45.7755 67.9535 46.6404C59.7022 48.0147 51.4923 50.3371 47.166 52.5207C44.0145 54.1114 43.939 54.1191 44.6603 52.7767C46.2174 49.8785 58.6137 45.5023 71.2072 43.4049C79.1589 42.0805 89.7319 42.3499 97.1355 44.0654C99.7504 44.6713 102.041 45.0168 102.225 44.8331C102.808 44.2529 99.4324 42.4086 94.5231 40.6246C90.0419 38.9962 89.1625 38.9045 78.4174 38.9449C68.1748 38.9835 66.5221 39.1494 61.6934 40.6243C58.7465 41.5244 56.3353 42.1649 56.3353 42.0476C56.3353 41.5104 61.6512 39.2226 65.7605 37.9913C81.8935 33.1573 101.495 36.7504 107.474 45.6377C108.292 46.8545 109.907 48.4118 111.063 49.0984C114.74 51.2828 117.349 54.2119 117.786 56.6455C118.014 57.9135 119.038 59.7842 120.062 60.8026C122.461 63.1884 123.663 66.9648 122.634 68.8799C122.018 70.0261 122.135 70.5981 123.309 72.1796C125.856 75.6105 124.705 79.9248 120.19 83.8733C116.932 86.7226 108.59 90.5501 101.996 92.221C97.5062 93.3588 75.5804 97.3969 73.5463 97.4607C73.1891 97.4718 73.3949 97.7703 74.0036 98.1238C74.6123 98.4773 78.1899 99.1093 81.9538 99.5283C93.4224 100.805 106.692 98.6651 118.847 93.5794C121.258 92.5706 123.231 91.9869 123.231 92.2823C123.231 94.1798 113.444 98.341 103.422 100.705C91.3312 103.557 80.8363 103.553 69.2022 100.692C65.3951 99.7565 63.6647 99.6144 61.9191 100.094C58.4578 101.046 58.5713 101.742 62.4222 103.177C77.5685 108.822 95.0358 108.987 113.501 103.66C119.599 101.901 120.187 102.819 114.434 105.116C97.9248 111.708 76.5381 112.139 60.6795 106.2C55.346 104.202 54.6081 104.069 53.7374 104.948C52.8707 105.822 52.9025 106.033 54.0258 106.863C55.7669 108.148 64.7036 111.525 70.6037 113.127C74.5537 114.199 77.4941 114.461 85.8863 114.485C95.97 114.513 99.1707 114.1 110.242 111.336C111.822 110.942 111.831 110.959 110.578 111.968C109.018 113.226 101.012 115.803 95.2749 116.894C89.5056 117.991 77.728 117.998 72.2474 116.908C67.847 116.033 62.0282 114.218 56.66 112.046L54.0621 110.994L56.3353 112.994C60.0039 116.222 68.6615 120.07 74.6732 121.144C80.5946 122.202 89.3282 121.892 95.7983 120.394C97.8422 119.921 99.6005 119.619 99.7056 119.724C99.9883 120.005 93.4327 122.507 90.4326 123.263C86.6352 124.219 77.9551 124.61 74.0756 123.999ZM49.1911 101.955C49.1911 101.201 46.6001 99.8068 46.1086 100.296C45.5664 100.836 47.9607 103.298 48.6284 102.887C48.9379 102.696 49.1911 102.277 49.1911 101.955ZM55.0364 97.7857L56.66 96.8817L53.5828 95.5176C51.1269 94.4289 50.2304 94.3001 49.1432 94.8796C47.645 95.6783 47.7141 95.8316 50.3228 97.4973C52.519 98.8997 52.9842 98.9282 55.0364 97.7857ZM65.0532 94.2261C65.9653 93.8807 73.6562 92.2914 82.1442 90.6943C104.822 86.4272 114.588 83.2233 117.969 78.9416C119.269 77.2962 119.725 75.4053 118.998 74.6809C118.813 74.4967 116.11 75.6067 112.99 77.1475C106.226 80.4887 96.7243 82.9799 78.9838 86.0633C65.7226 88.3682 55.6858 90.7575 55.6858 91.6097C55.6858 92.1295 61.2991 94.7115 62.6254 94.8017C63.0486 94.8305 64.1412 94.5715 65.0532 94.2261ZM44.6448 91.6041C44.6448 90.8501 42.0538 89.4563 41.5623 89.9459C41.0201 90.486 43.4144 92.9475 44.0821 92.5365C44.3916 92.346 44.6448 91.9264 44.6448 91.6041ZM51.8239 87.0735C55.6794 85.1143 65.0031 82.8235 78.0926 80.6192C84.5224 79.5364 93.4364 77.7637 97.9015 76.68C106.415 74.6136 115.027 71.1813 114.367 70.1176C114.154 69.774 113.014 69.091 111.834 68.5998C109.854 67.7757 109.171 67.8743 102.983 69.8781C99.2951 71.0723 93.5014 72.5431 90.1079 73.1465C74.563 75.9109 63.3592 78.234 58.2837 79.7454C52.6701 81.417 45.2943 84.893 45.2943 85.8669C45.2943 86.2923 48.2447 88.2477 49.0546 88.3592C49.1581 88.3733 50.4043 87.7949 51.8239 87.0735ZM48.4516 77.5856C53.9138 75.1712 61.8748 73.0762 75.0357 70.5897C92.4609 67.2975 100.1 65.6695 100.695 65.1211C101.392 64.48 94.593 63.1559 90.6048 63.1559C85.1958 63.1559 73.3569 65.1145 63.018 67.7197C47.9523 71.5161 40.0985 75.709 40.0985 79.9557C40.0985 82.5333 40.7018 82.7175 42.9489 80.8258C44.0602 79.8902 46.5365 78.4321 48.4516 77.5856ZM117.776 64.8033C117.316 62.9784 116.01 62.6596 114.824 64.0829C114.197 64.8349 114.397 65.1906 115.881 65.9666C118.071 67.1117 118.319 66.9591 117.776 64.8033ZM109.448 61.5019C110.241 60.9481 110.891 60.247 110.891 59.9441C110.891 59.6411 109.135 58.8026 106.989 58.0806L103.086 56.768L100.432 58.27L97.7769 59.772L101.898 61.0722C107.074 62.7049 107.674 62.7391 109.448 61.5019ZM112.19 55.5141C112.19 55.2248 111.324 54.1616 110.265 53.1513C108.635 51.5959 108.184 51.4435 107.321 52.157C105.897 53.3341 106.38 54.2012 108.982 55.1375C111.734 56.1282 112.19 56.1817 112.19 55.5141Z" fill="#00457C"/>
</svg>
