<svg width="160" height="160" viewBox="0 0 160 160" fill="none" xmlns="http://www.w3.org/2000/svg">
<path fill-rule="evenodd" clip-rule="evenodd" d="M89.8764 74.7598C89.9218 75.8247 90.8936 75.9933 91.3183 75.1028C91.0032 76.3931 89.6899 76.1888 89.8764 74.7687V74.7598Z" fill="#008D21"/>
<path fill-rule="evenodd" clip-rule="evenodd" d="M53.435 78.132L44.7254 36.4551C49.3443 35.2766 54.8848 35.8927 56.6667 42.3486L64.643 71.242C65.9814 76.0884 69.6192 75.5455 70.4279 71.2481L78.9541 26C83.3866 26 88.7013 28.8908 87.8425 35.4616L82.7628 74.3954C82.5544 75.9945 84.1184 76.157 84.3488 74.5326L89.8973 35.2647C95.295 35.2647 99.5896 38.7865 99.2463 43.509C98.7354 50.681 96.6257 75.3337 98.4485 87.2849C99.0928 91.5017 99.1146 93.6603 101.607 96.6151C106.058 93.4632 109.682 88.5617 115.452 84.7282C118.738 82.5489 124.233 83.4289 126.957 88.7035C121.49 96.8614 113.377 106.932 106.646 118.026C91.1495 143.565 52.5071 137.291 46.8554 108.531C45.6909 102.586 44.7254 95.8157 43.5593 88.3067L38 52.4561C40.6017 51.7908 46.4306 51.4626 47.4776 56.7073L51.8708 78.6646C52.2642 80.629 53.7923 79.8474 53.435 78.132Z" fill="#008D21"/>
<path fill-rule="evenodd" clip-rule="evenodd" d="M97.8762 81.1568C97.8981 81.6222 97.9249 82.0773 97.953 82.5277C76.2096 84.0029 57.361 91.6074 45.7831 102.558C45.4116 100.332 45.0496 98.0111 44.6797 95.6021C57.5113 86.2732 76.6187 80.76 97.8762 81.1568ZM101.733 96.5224C102.36 96.0705 102.973 95.5827 103.58 95.0696C105.49 93.7584 107.36 92.2235 109.354 90.6603C106.887 93.0125 104.649 95.3007 102.166 97.0594C102.012 96.8774 101.868 96.6984 101.733 96.5224Z" fill="#008D21"/>
<path fill-rule="evenodd" clip-rule="evenodd" d="M51.7533 70.0801L44.7254 36.4551C49.3443 35.2766 54.8848 35.8927 56.6667 42.3486L64.643 71.242C65.1272 72.9933 65.9077 74.0404 66.7526 74.4611C62.4377 73.5317 58.0962 72.3206 53.7641 70.8064C53.0886 70.5708 52.4178 70.3277 51.7533 70.0801ZM67.7651 74.6728C68.9312 74.5848 70.0282 73.3797 70.4279 71.2481L78.9541 26C83.3866 26 88.7013 28.8908 87.8425 35.4616L82.7628 74.3954C82.5544 75.9945 84.1184 76.157 84.3488 74.5326L89.8973 35.2647C95.295 35.2647 99.5896 38.7865 99.2463 43.509C98.864 48.8611 97.5929 63.9493 97.7306 76.2286C88.3221 77.2639 78.1422 76.7985 67.7651 74.6728ZM39.9231 64.8622C43.1408 66.5254 46.5106 68.0498 50.0198 69.4222L47.4776 56.7089C46.4306 51.4642 40.6017 51.7923 38 52.4576L39.9231 64.8622Z" fill="#008D21"/>
<path fill-rule="evenodd" clip-rule="evenodd" d="M50.805 65.5349L44.7254 36.4551C49.3443 35.2766 54.8848 35.8927 56.6667 42.3486L64.6021 71.0943C59.6133 69.6102 54.9773 67.7323 50.805 65.5349ZM97.7197 74.5103C93.4189 74.8684 88.9365 74.913 84.3364 74.6042L84.3472 74.5297L89.8957 35.2617C95.2934 35.2617 99.588 38.7835 99.2447 43.5062C98.8811 48.6135 97.7087 62.5771 97.7197 74.5103ZM82.7518 74.4819L82.7628 74.3939L87.8425 35.4601C88.7013 28.8908 83.3866 26 78.9541 26L70.4295 71.2481C70.3417 71.7193 70.2195 72.1475 70.0675 72.5264C73.7429 73.3603 77.5718 73.9866 81.5215 74.3701C81.9306 74.4133 82.3411 74.4476 82.7518 74.4819ZM49.0512 64.5743L47.4776 56.7073C46.4306 51.4626 40.6017 51.7908 38 52.4561L38.7225 57.1174C41.6425 59.8414 45.1219 62.3517 49.0512 64.5743Z" fill="#008D21"/>
<path fill-rule="evenodd" clip-rule="evenodd" d="M97.9533 82.5234C98.0302 83.6526 98.1242 84.7265 98.2416 85.732C82.6311 93.4722 71.7398 108.114 70.8574 125.353C70.7195 128.044 70.8323 130.692 71.1755 133.282C59.6432 130.755 49.5371 122.176 46.8554 108.532C46.5121 106.787 46.1893 104.971 45.8711 103.089C57.0226 91.8016 75.981 83.9301 97.9533 82.5234Z" fill="#008D21"/>
<path fill-rule="evenodd" clip-rule="evenodd" d="M98.2191 85.5353C98.2865 86.1423 98.3634 86.7255 98.4479 87.2835C99.0922 91.5005 99.1142 93.6589 101.606 96.6139C103.664 95.158 105.543 93.3292 107.539 91.4034C107.853 92.2821 108.291 93.1845 108.9 94.1704C113.593 91.76 117.873 87.9786 123.19 84.6641C124.65 85.489 125.978 86.8122 126.954 88.7021C121.488 96.86 113.375 106.93 106.644 118.025C97.8587 132.505 81.6353 136.756 68.2002 132.482C68.2002 129.999 68.3883 127.485 68.7754 124.96C71.4227 107.689 82.7339 93.5485 98.2191 85.5353Z" fill="#008D21"/>
<path fill-rule="evenodd" clip-rule="evenodd" d="M98.4381 87.0566L98.4708 87.2849C99.0461 91.0574 99.1259 93.1829 100.922 95.7067L114.216 106.483L106.665 118.028C98.742 130.146 86.2427 135.298 74.2636 133.811C73.7071 131.147 73.4126 128.401 73.4126 125.589C73.414 109.054 83.4998 94.6418 98.4381 87.0566Z" fill="#008D21"/>
<path fill-rule="evenodd" clip-rule="evenodd" d="M101.627 96.6123C106.079 93.4604 109.702 88.5589 115.476 84.7254C118.758 82.5459 124.253 83.4261 126.977 88.7007C123.435 93.9855 118.782 100.078 114.114 106.73C106.179 103.975 101.905 97.3493 101.627 96.6123Z" fill="#008D21"/>
<path fill-rule="evenodd" clip-rule="evenodd" d="M98.4154 87.0647C80.1935 96.7174 71.4024 114.088 74.6453 133.754L73.8819 133.866C70.5843 113.895 79.8911 96.7338 98.3964 86.9336L98.4154 87.0647Z" fill="#008D21"/>
<path fill-rule="evenodd" clip-rule="evenodd" d="M97.9693 82.7083C77.7759 84.0046 60.7783 90.283 45.9561 103.592L45.7993 102.647C60.7453 89.2194 77.5847 83.8331 97.952 82.5234L97.9693 82.7083Z" fill="#008D21"/>
<path fill-rule="evenodd" clip-rule="evenodd" d="M39.8979 64.6934C43.2066 66.4654 46.5293 68.0495 49.957 69.4369L50.1435 70.3706C46.7142 69.0117 43.3821 67.4365 40.0468 65.6481L39.8979 64.6934ZM51.7641 70.1454C66.3372 75.7257 81.7988 77.817 97.729 76.558L97.7619 76.928C81.7251 78.1929 66.4845 76.5014 51.9569 71.0703L51.7641 70.1454Z" fill="#008D21"/>
<path fill-rule="evenodd" clip-rule="evenodd" d="M111.657 110.248C106.63 106.573 103.566 102.548 101.732 96.5234C104.781 101.183 108.531 105.035 114.111 106.732C112.887 108.572 112.881 108.409 111.657 110.248Z" fill="#008D21"/>
</svg>
