<svg width="160" height="160" viewBox="0 0 160 160" fill="none" xmlns="http://www.w3.org/2000/svg">
<path d="M107.308 41.2299C107.577 39.5007 106.733 37.5824 104.652 37.0196H40.3384C40.3384 37.0196 40.1187 36.9917 39.7875 37.0025C34.4772 37.2398 35.9239 41.3469 37.1709 42.7442L70.0442 79.3678L105.649 43.8043C105.65 43.8032 107.119 42.4296 107.308 41.2299Z" fill="url(#paint0_linear_1120_4432)"/>
<path d="M134.192 68.0441C134.192 68.0441 128.251 61.4319 121.911 54.4293C115.028 46.8118 107.678 38.7308 107.007 38.1707C105.976 37.3112 105.212 37.0622 104.765 37H104.314C106.391 37.5623 107.233 39.4787 106.965 41.2063C106.776 42.4049 105.31 43.7773 105.31 43.7773L69.7682 79.3077L55.3933 93.6767L46.5313 102.156C44.6299 103.638 44.374 106.276 45.9594 108.052L67.836 132.492C69.4192 134.271 72.2422 134.51 74.1434 133.028L133.619 73.9402C135.519 72.4596 135.774 69.821 134.192 68.0441Z" fill="url(#paint1_linear_1120_4432)"/>
<defs>
<linearGradient id="paint0_linear_1120_4432" x1="71.6785" y1="78.5542" x2="71.6785" y2="37.1602" gradientUnits="userSpaceOnUse">
<stop offset="0.0044" stop-color="#09738C"/>
<stop offset="0.9959" stop-color="#009CA3"/>
</linearGradient>
<linearGradient id="paint1_linear_1120_4432" x1="40.4611" y1="85.4998" x2="132.536" y2="85.4998" gradientUnits="userSpaceOnUse">
<stop stop-color="#A8E4B6"/>
<stop offset="0.9959" stop-color="#009CA3"/>
</linearGradient>
</defs>
</svg>
