<svg width="160" height="160" viewBox="0 0 160 160" fill="none" xmlns="http://www.w3.org/2000/svg">
<path d="M93.2952 61.7297L80.3165 74.8208L67.3331 61.7297C60.1644 54.5047 60.1644 42.7723 67.3331 35.3225C69.0318 33.6071 71.0536 32.2453 73.2817 31.316C75.5098 30.3867 77.9 29.9082 80.3141 29.9082C82.7283 29.9082 85.1185 30.3867 87.3466 31.316C89.5747 32.2453 91.5965 33.6071 93.2952 35.3225C100.464 42.7723 100.464 54.5047 93.2952 61.7297Z" fill="#5FAF2D"/>
<path d="M67.3331 98.7447L80.3118 85.6582L93.2952 98.7447C100.464 105.97 100.464 117.707 93.2952 125.152C91.5965 126.867 89.5747 128.229 87.3466 129.158C85.1185 130.088 82.7283 130.566 80.3141 130.566C77.9 130.566 75.5098 130.088 73.2817 129.158C71.0536 128.229 69.0318 126.867 67.3331 125.152C60.1644 117.702 60.1644 105.97 67.3331 98.7447Z" fill="#005A28"/>
<path d="M98.6645 93.5543L85.6812 80.2382L98.6598 67.1471C100.359 65.431 102.381 64.0687 104.609 63.1389C106.838 62.2092 109.229 61.7305 111.643 61.7305C114.058 61.7305 116.449 62.2092 118.677 63.1389C120.906 64.0687 122.928 65.431 124.627 67.1471C131.791 74.3721 131.791 86.1044 124.627 93.5543C122.928 95.2697 120.906 96.6314 118.678 97.5607C116.45 98.4901 114.06 98.9685 111.646 98.9685C109.231 98.9685 106.841 98.4901 104.613 97.5607C102.385 96.6314 100.363 95.2697 98.6645 93.5543Z" fill="#1EAF37"/>
<path d="M62.1741 67.1487L75.1574 80.2399L62.1788 93.331C60.48 95.0471 58.4579 96.4095 56.2294 97.3392C54.0008 98.2689 51.6101 98.7476 49.1954 98.7476C46.7807 98.7476 44.3899 98.2689 42.1614 97.3392C39.9329 96.4095 37.9107 95.0471 36.212 93.331C29.0433 86.1061 29.0433 74.3737 36.212 66.9238C43.1465 59.9285 55.0147 59.9285 62.1741 67.1487Z" fill="#AAE641"/>
</svg>
