<svg width="160" height="160" viewBox="0 0 160 160" fill="none" xmlns="http://www.w3.org/2000/svg">
<g clip-path="url(#clip0_1120_4442)">
<path d="M240 130.988H40V134.988H240V130.988Z" fill="#376CD9"/>
<path d="M100.5 99.2778C100.5 102.428 103.209 104.915 106.64 104.915C110.072 104.915 112.781 102.428 112.781 99.2778C112.781 96.1276 110.072 93.6406 106.64 93.6406C103.209 93.6406 100.5 96.1276 100.5 99.2778ZM110.975 99.2778C110.975 101.433 108.988 103.257 106.64 103.257C104.293 103.257 102.306 101.433 102.306 99.2778C102.306 97.1224 104.293 95.2986 106.64 95.2986C108.988 95.2986 110.975 97.1224 110.975 99.2778Z" fill="#BA6025"/>
<path d="M77.0216 45.0598C75.5768 46.2204 74.6738 47.8784 74.6738 49.7022C74.6738 51.526 75.2156 53.184 76.6604 54.5104C77.9246 55.8368 79.7306 56.5 81.7172 56.6658H81.8978C83.7038 56.6658 85.5098 56.0026 86.774 54.842C88.2188 53.6814 88.9412 52.0234 89.1218 50.1996C89.1218 48.3758 88.58 46.7178 87.1352 45.3914C85.871 44.065 84.065 43.4018 82.0784 43.236C80.2724 43.0702 78.4664 43.7334 77.0216 45.0598ZM87.3158 50.0338C87.3158 51.3602 86.5934 52.5208 85.5098 53.5156C84.4262 54.3446 82.9814 54.842 81.5366 54.842C80.0918 54.842 78.8276 54.1788 77.744 53.184C76.6604 52.1892 76.4798 51.0286 76.4798 49.7022C76.4798 48.3758 77.2022 47.2152 78.2858 46.2204C79.3694 45.3914 80.6336 44.894 81.8978 44.894H82.0784C83.5232 44.894 84.7874 45.5572 85.871 46.552C86.9546 47.5468 87.3158 48.7074 87.3158 50.0338Z" fill="#58AD66"/>
<path d="M99.7778 28.6469C98.6942 27.4863 97.0688 26.8231 95.2628 26.8231H93.6374C86.0522 26.4915 78.2864 26.3257 70.5206 25.9941C69.9788 25.9941 69.437 25.9941 68.8952 26.1599C66.0056 26.6573 64.019 28.8127 63.8384 31.7971C63.6578 36.6053 63.4772 40.5845 63.2966 44.7295L63.116 51.3615L62.3936 65.7861C62.3936 66.9467 63.2966 67.9415 64.5608 67.9415C65.825 67.9415 66.9086 67.1125 66.9086 65.9519L67.9922 44.7295C68.1728 40.5845 68.3534 36.6053 68.534 31.7971C68.534 30.3049 69.6176 30.1391 69.9788 29.9733H70.5206C78.2864 30.1391 86.0522 30.4707 93.6374 30.8023H95.2628C95.624 30.8023 96.3464 30.9681 96.7076 31.2997C97.0688 31.6313 97.2494 32.2945 97.0688 32.6261L96.1658 53.8485L95.4434 65.9519C95.4434 67.1125 96.3464 68.1073 97.6106 68.1073H97.7912C99.0554 68.1073 99.9584 67.2783 99.9584 66.1177L100.681 53.1853L101.403 32.9577C101.584 31.2997 101.042 29.8075 99.7778 28.6469Z" fill="#58AD66"/>
<path d="M54.0858 36.1078C54.2664 35.942 54.447 35.942 54.6276 35.942L58.962 34.7814C60.2262 34.4498 60.9486 33.2892 60.5874 32.2944C60.2262 31.1338 58.962 30.4706 57.8784 30.8022L53.544 31.9628C53.1828 32.1286 52.641 32.2944 51.9186 32.4602C49.2096 33.7866 48.126 36.4394 49.029 39.258C50.6544 44.5636 54.0858 58.325 55.7112 64.7912C56.253 66.9466 56.6142 68.4388 56.6142 68.7704C56.7948 69.7652 57.8784 70.2626 58.7814 70.2626H59.3232C60.5874 69.931 61.3098 68.7704 60.9486 67.7756C60.9486 67.444 60.5874 66.1176 60.0456 63.9622C58.4202 57.3302 54.9888 43.5688 53.3634 38.0974C53.0022 36.771 53.9052 36.2736 54.0858 36.1078Z" fill="#58AD66"/>
<path d="M39.999 70.2631V118.345C39.999 122.656 43.7916 125.972 48.3066 125.972H111.697C116.393 125.972 120.005 122.49 120.005 118.345V114.532C120.005 111.547 117.296 109.06 114.045 109.06H99.597C97.2492 109.06 95.4432 107.402 95.4432 105.247V92.6461C95.4432 90.4907 97.2492 88.8327 99.597 88.8327H114.045C117.296 88.8327 120.005 86.3457 120.005 83.3613V79.3821C120.005 75.0713 116.212 71.7553 111.697 71.7553H51.9186C50.6544 71.7553 49.5708 72.7501 49.5708 73.9107C49.5708 75.0713 50.6544 76.0661 51.9186 76.0661H111.878C114.045 76.0661 115.67 77.7241 115.67 79.5479V83.3613C115.67 84.1903 114.948 84.6877 114.226 84.6877H99.7776C94.9014 84.6877 91.1088 88.3353 91.1088 92.6461V105.247C91.1088 109.723 95.082 113.205 99.7776 113.205H114.226C115.129 113.205 115.67 113.868 115.67 114.532V118.345C115.67 120.335 113.864 121.827 111.878 121.827H48.3066C46.1394 121.827 44.514 120.169 44.514 118.345V70.2631C44.514 68.2735 46.32 66.6155 48.4872 66.6155H50.2932C51.5574 66.6155 52.641 65.6207 52.641 64.4601C52.641 63.2995 51.5574 62.3047 50.2932 62.3047H48.4872C43.7916 62.6363 39.999 66.1181 39.999 70.2631Z" fill="#BA6025"/>
<path d="M53.0022 78.0562L47.0424 81.0406C46.6812 81.2064 46.5006 81.7038 46.6812 82.2012C46.8618 82.5328 47.223 82.6986 47.4036 82.6986C47.5842 82.6986 47.7648 82.6986 47.7648 82.5328L53.7246 79.5484C54.0858 79.3826 54.2664 78.8852 54.0858 78.3878C54.0858 77.8904 53.544 77.8904 53.0022 78.0562Z" fill="#BA6025"/>
<path d="M72.8683 78.0562L47.2231 90.8228C46.8619 90.9886 46.6813 91.486 46.8619 91.9834C47.0425 92.315 47.4037 92.4808 47.5843 92.4808C47.7649 92.4808 47.9455 92.4808 47.9455 92.315L73.5907 79.5484C73.9519 79.3826 74.1325 78.8852 73.9519 78.3878C73.9519 77.8904 73.4101 77.8904 72.8683 78.0562Z" fill="#BA6025"/>
<path d="M93.9985 78.3869C93.8179 78.0553 93.2761 77.8895 92.7343 78.0553L47.2231 100.604C46.8619 100.77 46.6813 101.267 46.8619 101.765C47.0425 102.096 47.4037 102.262 47.5843 102.262C47.7649 102.262 47.9455 102.262 47.9455 102.096L93.4567 79.5475C93.9985 79.2159 94.1791 78.7185 93.9985 78.3869Z" fill="#BA6025"/>
<path d="M107.001 82.5321C107.182 82.5321 107.362 82.5321 107.362 82.3663L112.78 79.7135C113.142 79.5477 113.322 79.0503 113.142 78.5529C112.961 78.2213 112.419 78.0555 111.877 78.2213L106.459 80.8741C106.098 81.0399 105.918 81.5373 106.098 82.0347C106.279 82.3663 106.64 82.5321 107.001 82.5321Z" fill="#BA6025"/>
<path d="M88.7611 90.8224C88.5805 90.4908 88.0387 90.325 87.4969 90.4908L47.2231 110.387C46.8619 110.553 46.6813 111.05 46.8619 111.547C47.0425 111.879 47.4037 112.045 47.5843 112.045C47.7649 112.045 47.9455 112.045 47.9455 111.879L88.2193 91.8172C88.7611 91.6514 88.9417 91.154 88.7611 90.8224Z" fill="#BA6025"/>
<path d="M51.3772 120.002C51.5578 120.002 51.7384 120.002 51.7384 119.836L88.2196 101.764C88.5808 101.598 88.7614 101.101 88.5808 100.604C88.4002 100.272 87.8584 100.106 87.3166 100.272L50.8354 118.344C50.4742 118.51 50.2936 119.007 50.4742 119.505C50.6548 119.836 51.016 120.002 51.3772 120.002Z" fill="#BA6025"/>
<path d="M71.0617 120.002C71.2423 120.002 71.4229 120.002 71.4229 119.837L89.4829 110.883C89.8441 110.718 90.0247 110.22 89.8441 109.723C89.6635 109.391 89.1217 109.225 88.5799 109.391L70.5199 118.344C70.1587 118.51 69.9781 119.008 70.1587 119.505C70.5199 119.837 70.8811 120.002 71.0617 120.002Z" fill="#BA6025"/>
<path d="M90.2055 119.505C90.3861 119.836 90.7473 120.002 90.9279 120.002C91.1085 120.002 91.2891 120.002 91.2891 119.836L97.7907 116.686C98.1519 116.52 98.3325 116.023 98.1519 115.526C97.9713 115.194 97.4295 115.028 96.8877 115.194L90.3861 118.344C90.0249 118.676 90.0249 119.173 90.2055 119.505Z" fill="#BA6025"/>
<path d="M110.794 120.003C110.975 120.003 111.155 120.003 111.155 119.837L112.961 119.008C113.323 118.843 113.503 118.345 113.323 117.848C113.142 117.516 112.6 117.35 112.058 117.516L110.252 118.345C109.891 118.511 109.711 119.008 109.891 119.506C110.252 119.837 110.433 120.003 110.794 120.003Z" fill="#BA6025"/>
</g>
<defs>
<clipPath id="clip0_1120_4442">
<rect width="80" height="109" fill="white" transform="translate(40 26)"/>
</clipPath>
</defs>
</svg>
