<svg width="160" height="160" viewBox="0 0 160 160" fill="none" xmlns="http://www.w3.org/2000/svg">
<path d="M125 82.9578C125 67.6262 116.649 54.1462 104.103 46.4678L104.271 56.8786C111.729 63.2885 116.455 72.6117 116.455 82.9578C116.455 87.6841 115.445 92.1903 113.671 96.3083C108.272 91.1805 104.427 85.1462 102.032 78.0242C99.1444 69.4004 98.4714 59.9605 98.3676 48.423L98.3807 43.4634C95.7913 42.3499 93.0852 41.4695 90.3145 40.8477L90.3276 48.4098C90.5992 88.2409 97.5 104.66 107.767 117L107.78 116.988L107.767 117C118.267 109.076 125 96.7744 125 82.9578C125 82.9706 125 82.9706 125 82.9578Z" fill="#3B175C"/>
<path d="M69.6854 48.4176L69.6983 40.8555C66.9276 41.477 64.2217 42.3577 61.6323 43.4712L61.6452 48.4304C61.5287 59.9552 60.8684 69.4078 57.9812 78.032C55.5989 85.154 51.7407 91.1752 46.3417 96.3157C44.568 92.1981 43.5581 87.6919 43.5581 82.9656C43.5581 72.6063 48.2708 63.2959 55.7413 56.8861L55.9096 46.4753C43.3509 54.1409 35 67.6208 35 82.9524V82.9656C35 96.7818 41.7455 109.083 52.2326 117.008L52.2197 116.995L52.2326 117.008C62.5256 104.681 69.4135 88.2487 69.6854 48.4176Z" fill="#3B175C"/>
<path d="M84.0403 33.1684C82.5772 33.0518 81.2567 33 80.0137 33C78.7707 33 77.4502 33.0518 75.974 33.1684V42.1159C75.974 81.3255 74.4594 98.3662 68.5942 124.834C76.0259 126.712 83.9236 126.712 91.3684 124.847C85.5421 98.5735 84.0403 81.5327 84.0403 42.1159V33.1684Z" fill="#3B175C"/>
</svg>
