<svg width="160" height="160" viewBox="0 0 160 160" fill="none" xmlns="http://www.w3.org/2000/svg">
<path fill-rule="evenodd" clip-rule="evenodd" d="M84.4621 101.084C84.3148 99.7186 85.1535 93.0004 85.1535 93.0004C85.1535 93.0004 86.8392 93.2791 88.4658 93.4565C90.0924 93.6339 92.7094 93.7745 92.7094 93.7745C92.7094 93.7745 91.2983 98.8152 92.1178 99.9659C94.012 102.625 104.365 109.193 106.739 111.829C107.933 113.001 109.144 114.138 110.626 115.162C111.674 116.042 115.056 116.143 115.945 117.022C116.539 117.658 117.267 119.509 116.902 119.844C116.653 120.072 111.529 120.183 110.626 120.023C109.648 120.023 108.477 119.092 108.477 119.092C108.477 119.092 107.75 119.844 106.739 119.312C104.959 118.436 105.225 116.629 104.185 115.162C103.591 114.577 94.8896 108.927 89.2828 105.803C84.4726 103.124 84.6864 103.162 84.4621 101.084ZM49.8634 83.6918C48.821 82.7769 44.9693 86.0325 43.8682 85.7977C42.7671 85.563 43.8441 82.8736 42.8686 83.0375C41.5459 83.2596 41.1931 86.3165 40.0051 86.5539C38.0891 87.2649 37 84.432 37 81.0505C37 77.6689 38.2181 73.984 42.3668 71.6246C46.5154 69.2652 52.659 68.6641 57.4261 70.2433C61.9497 67.852 67.9012 60.9117 81.1566 60.5873C94.4119 60.2629 99.3748 66.8039 102.192 65.2378C105.01 63.6717 105.963 60.1407 105.351 57.5028C104.176 52.4501 101.899 49.7027 100.076 45.2035C98.932 42.3804 98.8693 38.6513 100.311 35.9166C100.958 34.7019 102.528 33.2851 104.897 33.0238C107.265 32.7625 107.889 34.7282 109.547 35.2644C111.204 35.8006 114.747 36.1307 115.024 37.3782C115.301 38.6256 111.05 39.6062 110.086 39.504C107.829 39.2652 106.404 40.765 106.527 43.4147C106.672 46.7843 107.475 47.9875 110.62 52.7839C113.765 57.5803 113.736 65.5555 109.719 71.1202C108.453 72.7458 107.104 74.1267 106.21 75.9855C105.49 77.4745 106.21 74.4739 106.21 80.4171C106.21 86.3604 103.176 89.2212 99.2119 90.4772C93.8745 92.1682 89.2654 91.5357 84.5516 90.987C78.029 90.2277 72.925 90.3165 70.261 90.987C67.9524 91.5702 60.7269 95.5965 59.8377 97.4701C59.3657 98.4816 56.8156 109.009 56.3483 111.321C56.1572 112.273 56.2648 114.168 55.8185 115.011C55.3302 115.948 49.3844 119.651 47.366 120.411C46.436 120.762 44.5582 121.211 44.3351 120.89C43.0196 119.394 43.0242 119.048 46.847 116.323C45.5117 113.587 49.3642 112.919 50.497 111.57C51.7334 110.103 53.9762 94.1283 54.745 92.0479C55.5139 89.9675 58.515 89.2513 59.7316 87.4006C59.156 86.7441 58.359 87.0946 56.2509 87.6778C54.4422 88.1806 50.6652 89.5101 49.8634 88.8454C49.0617 88.1806 50.9059 84.6068 49.8634 83.6918Z" fill="#2E2E33"/>
</svg>
