<svg width="160" height="160" viewBox="0 0 160 160" fill="none" xmlns="http://www.w3.org/2000/svg">
<path d="M79.5 41.625C53.6925 41.625 33 61.3875 33 86.0325C33 94.4025 35.5575 102.54 40.2075 109.515H62.5275C57.8775 106.027 54.39 100.912 52.53 95.3325C50.9025 89.7525 50.9025 83.7075 52.7625 78.1275C54.6225 72.5475 58.3425 67.665 62.9925 64.1775C67.875 60.69 73.455 58.83 79.5 58.83C85.3125 58.83 91.125 60.69 96.0075 64.1775C100.89 67.665 104.378 72.5475 106.238 78.1275C108.098 83.7075 108.098 89.7525 106.47 95.3325C104.842 100.912 101.355 106.027 96.4725 109.515H118.793C123.443 102.54 125.768 94.4025 126 86.0325C126 61.3875 105.308 41.625 79.5 41.625Z" fill="#C8102E"/>
<path d="M64.3877 93.4727C65.3177 96.7277 67.4102 99.5177 70.2002 101.378C72.9902 103.47 76.2452 104.4 79.5002 104.4C82.7552 104.4 86.2427 103.238 88.8002 101.378C91.5902 99.2852 93.4502 96.7277 94.6127 93.4727H64.3877Z" fill="#C8102E"/>
</svg>
