<svg width="160" height="160" viewBox="0 0 160 160" fill="none" xmlns="http://www.w3.org/2000/svg">
<g clip-path="url(#clip0_1120_4489)">
<path d="M110.03 35H49.9699C41.6734 35 35 41.6734 35 49.9699V110.03C35 118.326 41.6734 125 49.9699 125H110.03C118.326 125 125 118.326 125 110.03V49.9699C125 41.6734 118.326 35 110.03 35ZM120.311 108.407C120.13 108.587 119.95 108.587 119.77 108.587C108.227 101.553 94.5189 97.5852 80.0903 97.5852C65.6614 97.5852 51.9539 101.553 40.2305 108.587C40.0501 108.768 39.6894 108.587 39.6894 108.407C39.509 108.227 39.509 107.866 39.8697 107.866C50.3307 99.7494 59.5291 89.4688 66.3827 77.2044C73.4168 65.1201 77.7455 52.1343 79.5492 38.9679C79.5492 38.7876 79.7295 38.6072 80.0903 38.6072C80.2706 38.6072 80.4508 38.7876 80.6311 38.9679C82.4348 52.1343 86.7635 65.1201 93.7975 77.2044C100.832 89.2885 109.85 99.5691 120.491 107.685C120.491 107.866 120.491 108.227 120.311 108.407Z" fill="#FE5000"/>
</g>
<defs>
<clipPath id="clip0_1120_4489">
<rect width="90" height="90" fill="white" transform="translate(35 35)"/>
</clipPath>
</defs>
</svg>
