<svg width="160" height="160" viewBox="0 0 160 160" fill="none" xmlns="http://www.w3.org/2000/svg">
<path d="M93.3333 27H66.6667C51.9391 27 40 38.8645 40 53.5V106.5C40 121.136 51.9391 133 66.6667 133H93.3333C108.061 133 120 121.136 120 106.5V53.5C120 38.8645 108.061 27 93.3333 27Z" fill="#282828"/>
<path d="M82.5862 49H77.4138C70.5578 49 65 54.6458 65 61.6102V98.3898C65 105.354 70.5578 111 77.4138 111H82.5862C89.4422 111 95 105.354 95 98.3898V61.6102C95 54.6458 89.4422 49 82.5862 49Z" fill="#FFDE00"/>
</svg>
