<svg width="160" height="160" viewBox="0 0 160 160" fill="none" xmlns="http://www.w3.org/2000/svg">
<path d="M80 20C46.8203 20 20 46.8203 20 80C20 113.18 46.8203 140 80 140C113.18 140 140 113.18 140 80C140 46.8203 113.18 20 80 20ZM71.7051 105.438L67.2811 118.433C50.6912 112.903 39.6313 97.1429 39.6313 79.447C39.6313 61.7512 50.6912 46.2673 67.5576 40.4608L71.9816 53.4562C60.9217 57.0507 53.7327 67.5576 53.7327 79.1705C53.1797 91.3364 60.6452 101.843 71.7051 105.438ZM92.1659 118.71L88.0184 105.438C99.3548 101.843 106.82 91.3364 106.82 79.447C106.82 67.5576 99.3548 57.3272 88.2949 53.7327L92.7189 40.4608C109.585 45.9908 120.922 61.7512 120.922 79.447C120.922 97.6959 109.309 113.456 92.1659 118.71Z" fill="#00BEF0"/>
</svg>
