<svg width="160" height="160" viewBox="0 0 160 160" fill="none" xmlns="http://www.w3.org/2000/svg">
<path d="M86.1298 60.0741C85.8038 59.0963 85.152 57.7926 84.5001 56.4889L72.7668 34H54.515L66.9001 56.163H23.9597L22.493 63.0074L21.0264 69.8519H63.6409L39.5224 94.9482H60.7075L82.2187 71.4815C83.5224 70.1778 84.5001 68.8741 85.4779 67.5704C86.4557 66.2667 87.1076 64.637 87.1076 63.3333C86.7816 62.0296 86.7816 61.0519 86.1298 60.0741Z" fill="#6E50E1"/>
<path d="M138.974 89.6506H95.0148L118.813 64.5117H98.3667L78.9259 86.6339C77.25 88.645 75.9092 90.321 74.5685 91.6617C73.5629 93.3376 72.8926 94.6784 72.8926 96.6895C72.8926 97.695 72.8926 98.3654 73.2278 99.0358C73.563 99.7062 73.8981 100.712 74.5685 102.052L88.3111 126.521H107.752L94.0093 103.393H135.622L138.974 89.6506Z" fill="#32E17D"/>
</svg>
