<svg width="160" height="160" viewBox="0 0 160 160" fill="none" xmlns="http://www.w3.org/2000/svg">
<path d="M43.692 76.4962L37.6288 67.7945L31.6732 76.4962H25L34.2922 63.7481L25.4664 51.4297H32.0678L37.844 59.5584L43.5126 51.4297H49.7911L41.0371 63.5332L50.4011 76.4962H43.692Z" fill="#CC0D2C"/>
<path d="M64.7332 76.9259C62.1261 76.9259 59.7701 76.3649 57.6653 75.2429C55.5845 74.1209 53.9461 72.5811 52.7502 70.6235C51.5782 68.642 50.9922 66.4219 50.9922 63.963C50.9922 61.5041 51.5782 59.2958 52.7502 57.3382C53.9461 55.3568 55.5845 53.8051 57.6653 52.683C59.7701 51.561 62.1261 51 64.7332 51C67.3402 51 69.6842 51.561 71.7651 52.683C73.846 53.8051 75.4844 55.3568 76.6803 57.3382C77.8762 59.2958 78.4741 61.5041 78.4741 63.963C78.4741 66.4219 77.8762 68.642 76.6803 70.6235C75.4844 72.5811 73.846 74.1209 71.7651 75.2429C69.6842 76.3649 67.3402 76.9259 64.7332 76.9259ZM64.7332 71.9842C66.2161 71.9842 67.5555 71.65 68.7514 70.9816C69.9473 70.2893 70.8801 69.3343 71.5498 68.1168C72.2434 66.8993 72.5903 65.5147 72.5903 63.963C72.5903 62.4112 72.2434 61.0266 71.5498 59.8091C70.8801 58.5916 69.9473 57.6486 68.7514 56.9801C67.5555 56.2878 66.2161 55.9417 64.7332 55.9417C63.2502 55.9417 61.9108 56.2878 60.7149 56.9801C59.519 57.6486 58.5742 58.5916 57.8806 59.8091C57.2109 61.0266 56.876 62.4112 56.876 63.963C56.876 65.5147 57.2109 66.8993 57.8806 68.1168C58.5742 69.3343 59.519 70.2893 60.7149 70.9816C61.9108 71.65 63.2502 71.9842 64.7332 71.9842Z" fill="#CC0D2C"/>
<path d="M104.26 51.4297L93.5688 71.268C92.5403 73.1779 91.2966 74.6222 89.8375 75.601C88.4025 76.5798 86.8358 77.0692 85.1376 77.0692C83.8221 77.0692 82.4588 76.7827 81.0476 76.2097L82.4468 71.8052C83.4514 72.1155 84.2885 72.2707 84.9583 72.2707C85.6758 72.2707 86.3216 72.1036 86.8956 71.7694C87.4697 71.4113 87.9959 70.8622 88.4742 70.1222L88.6895 69.8357L78.7874 51.4297H84.9941L91.6673 64.894L98.5557 51.4297H104.26Z" fill="#CC0D2C"/>
<path d="M129.547 76.4962L129.511 61.4921L122.12 73.8463H119.537L112.146 61.7786V76.4962H106.693V51.4297H111.5L120.9 67.0067L130.157 51.4297H134.964L135 76.4962H129.547Z" fill="#CC0D2C"/>
<path d="M27.1954 83.9335H47.4661V88.5529H32.9717V93.7094H39.9319C42.9695 93.7094 45.2775 94.3421 46.8561 95.6073C48.4587 96.8726 49.2599 98.6989 49.2599 101.086C49.2599 103.593 48.3749 105.538 46.605 106.923C44.8351 108.308 42.3356 109 39.1067 109H27.1954V83.9335ZM38.7838 104.703C40.2667 104.703 41.4028 104.416 42.1921 103.843C42.9814 103.247 43.3761 102.387 43.3761 101.265C43.3761 99.0689 41.8453 97.9707 38.7838 97.9707H32.9717V104.703H38.7838Z" fill="#CC0D2C"/>
<path d="M70.4785 103.629H58.8184L56.594 109H50.6384L61.8321 83.9335H67.5724L78.802 109H72.7029L70.4785 103.629ZM68.6487 99.2241L64.6664 89.6272L60.684 99.2241H68.6487Z" fill="#CC0D2C"/>
<path d="M105.166 83.9335V109H99.3535V98.7227H87.9445V109H82.1324V83.9335H87.9445V93.8169H99.3535V83.9335H105.166Z" fill="#CC0D2C"/>
<path d="M117.715 98.4299L116.628 99.514V109H111.386V83.9335H116.628V93.0093L125.553 83.9335H132.6L121.586 94.9065L133.392 109H126.25L117.715 98.4299Z" fill="#CC0D2C"/>
</svg>
