<svg width="160" height="160" viewBox="0 0 160 160" fill="none" xmlns="http://www.w3.org/2000/svg">
<path d="M24 83.4058C24 53.899 49.0215 30 80.0202 30C111.009 30 136.036 53.899 136.04 83.4058C136.04 93.8586 132.678 103.573 127.449 111.785H100.561C108.779 105.439 114.008 95.7295 114.008 84.5235C114.008 65.8485 98.6953 50.5411 80.0202 50.5411C61.3452 50.5411 46.0378 65.8485 46.0378 84.5235C46.0378 95.7295 51.2666 105.439 59.4792 111.785H32.5916C26.9886 103.573 24 93.8586 24 83.4058Z" fill="#E61C41"/>
<path d="M80.0191 105.813C71.4324 105.813 64.3327 100.21 61.7183 92.3672H98.32C95.7055 100.21 88.6107 105.813 80.0191 105.813Z" fill="#E61C41"/>
</svg>
