<svg width="160" height="160" viewBox="0 0 160 160" fill="none" xmlns="http://www.w3.org/2000/svg">
<path d="M73.392 36.7043C75.3256 35.5681 77.3755 35.1129 79.3125 35C77.1317 35.0466 75.0002 35.6566 73.125 36.7708C71.2498 37.885 69.6948 39.4655 68.6112 41.3585L31.853 104.943C31.0079 106.388 30.458 107.986 30.2351 109.644C30.0123 111.303 30.121 112.989 30.5549 114.605C30.9888 116.222 31.7393 117.736 32.7628 119.06C33.7864 120.384 35.0626 121.491 36.5175 122.318C37.966 123.158 39.5658 123.703 41.2253 123.924C42.8849 124.144 44.5717 124.035 46.1891 123.603C47.8065 123.17 49.3227 122.423 50.6509 121.404C51.9792 120.385 53.0934 119.114 53.9298 117.664L79.7676 73.0381L68.7241 53.9626C65.1992 47.9463 67.3586 40.1094 73.392 36.7043Z" fill="#00A1DE"/>
<path d="M127.562 104.947L90.8039 41.3619C89.721 39.4687 88.1667 37.8879 86.2922 36.7732C84.4176 35.6584 82.2865 35.0475 80.106 35C82.1559 35.1129 84.2024 35.5681 86.0265 36.7043C92.0565 40.2223 94.2193 47.9463 90.691 54.0755L79.6509 73.1544L105.485 117.777C106.319 119.23 107.432 120.504 108.76 121.525C110.088 122.546 111.605 123.294 113.223 123.727C114.841 124.159 116.529 124.268 118.19 124.045C119.85 123.823 121.45 123.274 122.898 122.431C129.044 118.8 131.09 110.967 127.562 104.943V104.947Z" fill="#0039A6"/>
<path d="M86.1391 36.7043C84.2021 35.5681 82.1557 35.1129 80.2187 35H79.3084C77.2619 35.1129 75.2119 35.5681 73.3913 36.7043C71.9369 37.5312 70.6611 38.6386 69.6378 39.9622C68.6145 41.2858 67.864 42.7994 67.4298 44.4151C66.9956 46.0308 66.8864 47.7167 67.1085 49.3749C67.3305 51.0332 67.8794 52.6309 68.7234 54.0755L79.7635 73.1544L90.8036 53.9626C94.3319 47.9463 92.1725 40.1094 86.1391 36.7043Z" fill="#002C77"/>
<path d="M92.8504 111.304C92.8486 113.021 92.5087 114.72 91.8501 116.306C91.1914 117.891 90.227 119.331 89.0118 120.544C87.7966 121.756 86.3544 122.718 84.7677 123.373C83.1809 124.029 81.4806 124.365 79.7638 124.363C78.0471 124.365 76.3468 124.029 74.76 123.373C73.1732 122.718 71.7311 121.756 70.5159 120.544C69.3007 119.331 68.3362 117.891 67.6776 116.306C67.019 114.72 66.679 113.021 66.6772 111.304C66.6818 107.837 68.063 104.514 70.5171 102.066C72.9712 99.6178 76.2973 98.2444 79.7638 98.2481C86.9334 98.2481 92.8539 104.151 92.8539 111.304H92.8504Z" fill="#EEAF30"/>
</svg>
