<svg width="160" height="160" viewBox="0 0 160 160" fill="none" xmlns="http://www.w3.org/2000/svg">
<path fill-rule="evenodd" clip-rule="evenodd" d="M61.6492 58.1311L76.9957 45.5594C81.9437 41.5061 84.0907 40.4583 86.6507 39.769C89.2105 39.0796 91.7793 39.0796 94.3393 39.769C96.8992 40.4583 99.0462 41.5061 103.994 45.5594L119.341 58.1311C122.847 61.0035 123.953 62.1674 125.014 63.6374C126.075 65.1075 126.805 66.6494 127.27 68.4018C127.735 70.1542 127.934 71.7474 127.934 76.2799V97.0521C127.934 104.249 127.185 106.858 125.778 109.489C124.371 112.12 122.306 114.185 119.675 115.592C117.044 116.999 114.435 117.748 107.238 117.748H73.7518C66.5553 117.748 63.9457 116.999 61.3148 115.592C58.6838 114.185 56.619 112.12 55.212 109.489C53.8049 106.858 53.0557 104.249 53.0557 97.0521V76.2799C53.0557 71.7474 53.2553 70.1542 53.72 68.4018C54.1849 66.6494 54.9148 65.1075 55.976 63.6374C57.0371 62.1674 58.143 61.0035 61.6492 58.1311Z" fill="#FFC943"/>
<path fill-rule="evenodd" clip-rule="evenodd" d="M40.9964 68.1353C52.1121 80.2247 61.1405 94.239 67.6138 109.674L68.1834 109.409C61.7839 94.3073 52.8028 80.3127 41.7055 68.2351C39.1262 65.4286 36.2802 62.061 32.2788 61.493C32.2023 61.4813 32.1941 61.5963 32.2682 61.611C35.9548 62.3076 38.5837 65.5102 40.9964 68.1353Z" fill="#012968"/>
<path fill-rule="evenodd" clip-rule="evenodd" d="M65.6174 110.606C53.5436 99.0658 39.5482 88.8957 23.598 80.7162C23.4378 80.634 23.2909 80.9123 23.4525 80.9972C38.6107 88.9226 52.557 98.9754 64.9118 110.935L65.6174 110.606Z" fill="#012968"/>
<path fill-rule="evenodd" clip-rule="evenodd" d="M38.7095 59.8276C38.5432 60.1969 37.8371 61.208 37.7835 62.3852C37.6346 63.5175 38.1404 64.8131 38.1602 64.7619C38.2292 64.7771 37.0139 64.0677 36.4309 62.7006C35.7618 61.4099 35.7273 59.4625 36.148 58.7412C36.8176 57.1601 38.397 56.7336 38.8311 57.368C39.2826 57.9925 39.0261 58.9962 38.7095 59.8276Z" fill="#012968"/>
<path fill-rule="evenodd" clip-rule="evenodd" d="M38.7739 72.3507C39.0585 72.0631 39.7472 71.0381 40.8228 70.5657C41.8236 70.0188 43.2127 70.0237 43.1718 70.061C43.2109 70.1213 42.1121 69.2407 40.6298 69.1881C39.1865 69.0279 37.36 69.6972 36.8399 70.3499C35.6078 71.5444 35.7815 73.1735 36.5268 73.3511C37.2723 73.5487 38.115 72.9477 38.7739 72.3507Z" fill="#012968"/>
<path fill-rule="evenodd" clip-rule="evenodd" d="M42.8597 77.1281C43.1443 76.8404 43.833 75.8155 44.9086 75.3431C45.9094 74.7962 47.3 74.8004 47.2576 74.8384C47.2974 74.8965 46.1974 74.0165 44.7156 73.9655C43.2723 73.8053 41.4453 74.4731 40.9259 75.1273C39.6953 76.3211 39.8674 77.9509 40.6126 78.1285C41.3574 78.3244 42.2009 77.7253 42.8597 77.1281Z" fill="#012968"/>
<path fill-rule="evenodd" clip-rule="evenodd" d="M33.8265 91.457C34.1108 91.1693 34.7995 90.1445 35.8751 89.6721C36.8776 89.1245 38.2667 89.1294 38.2258 89.1667C38.2641 89.2254 37.1654 88.3448 35.6838 88.2936C34.2405 88.1334 32.4133 88.8014 31.8924 89.4563C30.6618 90.6501 30.834 92.2799 31.5807 92.4568C32.3256 92.6527 33.1689 92.0534 33.8265 91.457Z" fill="#012968"/>
<path fill-rule="evenodd" clip-rule="evenodd" d="M27.2023 87.412C27.4876 87.1222 28.1748 86.0979 29.2526 85.6264C30.2527 85.0781 31.6419 85.083 31.6017 85.1217C31.6399 85.1804 30.5414 84.2998 29.0597 84.2487C27.6164 84.0885 25.7892 84.7565 25.2699 85.4107C24.0377 86.6052 24.2099 88.235 24.9559 88.4102C25.7014 88.6078 26.5442 88.007 27.2023 87.412Z" fill="#012968"/>
<path fill-rule="evenodd" clip-rule="evenodd" d="M44.1742 65.086C43.9533 65.4241 43.0954 66.3128 42.8588 67.4641C42.5344 68.5599 42.8281 69.9197 42.8568 69.8717C42.9232 69.8972 41.8338 69.005 41.4728 67.5636C41.015 66.1836 41.2878 64.2551 41.8166 63.6091C42.7271 62.1545 44.3541 61.9828 44.6835 62.6772C45.0298 63.3651 44.6198 64.3165 44.1742 65.086Z" fill="#012968"/>
<path fill-rule="evenodd" clip-rule="evenodd" d="M49.8647 70.3141C49.5119 70.588 48.2185 71.202 47.7159 72.3407C47.1011 73.384 47.2772 74.9519 47.3233 74.9102C47.4067 74.9643 46.0904 73.5855 45.8398 71.9046C45.4483 70.2531 46.1242 68.2989 46.9395 67.8148C48.3947 66.6148 50.6068 67.0692 50.9357 67.9386C51.2911 68.8102 50.587 69.6655 49.8647 70.3141Z" fill="#012968"/>
<path fill-rule="evenodd" clip-rule="evenodd" d="M56.3491 78.6121C55.956 78.8228 54.5769 79.2105 53.8902 80.2474C53.1096 81.1728 53.019 82.7465 53.0715 82.7147C53.145 82.7826 52.0782 81.2016 52.1125 79.5029C52.0048 77.8083 52.9995 75.9954 53.8847 75.6573C55.5204 74.7196 57.6262 75.5389 57.8041 76.4515C58.0085 77.3699 57.1705 78.0942 56.3491 78.6121Z" fill="#012968"/>
<path fill-rule="evenodd" clip-rule="evenodd" d="M43.0755 87.5173C42.8048 87.7603 41.7869 88.3333 41.4426 89.2887C41.0028 90.1721 41.234 91.437 41.269 91.4025C41.3417 91.4416 40.1907 90.3939 39.8916 89.0422C39.4803 87.7189 39.9186 86.0905 40.5548 85.6517C41.6695 84.5922 43.4938 84.8355 43.8114 85.5242C44.1488 86.2127 43.6257 86.9489 43.0755 87.5173Z" fill="#012968"/>
<path fill-rule="evenodd" clip-rule="evenodd" d="M31.0801 63.3778C31.237 63.1953 31.5995 62.5596 32.215 62.2323C32.7828 61.8656 33.6053 61.8065 33.5825 61.8318C33.6082 61.8635 32.9202 61.3911 32.0409 61.4256C31.1801 61.395 30.1281 61.8709 29.8493 62.28C29.1735 63.0399 29.3466 63.9966 29.795 64.0682C30.2453 64.1518 30.7178 63.7601 31.0801 63.3778Z" fill="#012968"/>
<path fill-rule="evenodd" clip-rule="evenodd" d="M32.1401 59.1811C32.1742 59.4185 32.1408 60.1506 32.4856 60.7573C32.769 61.3728 33.4327 61.8636 33.4271 61.8317C33.4658 61.8172 32.6331 61.8463 31.9075 61.3442C31.1639 60.9089 30.5312 59.9422 30.5133 59.4474C30.3482 58.4414 31.0065 57.7261 31.4239 57.9069C31.8475 58.0777 32.0364 58.6624 32.1401 59.1811Z" fill="#012968"/>
<path fill-rule="evenodd" clip-rule="evenodd" d="M22.1674 82.9869C22.3229 82.8051 22.6846 82.168 23.3023 81.8416C23.8694 81.4732 24.6911 81.4163 24.6691 81.4395C24.694 81.4734 24.006 81.0012 23.1281 81.0349C22.2668 81.0026 21.2147 81.4787 20.9359 81.8876C20.2601 82.6475 20.4339 83.6057 20.8823 83.6775C21.3311 83.7617 21.8036 83.37 22.1674 82.9869Z" fill="#012968"/>
<path fill-rule="evenodd" clip-rule="evenodd" d="M23.5795 78.6935C23.5945 78.9327 23.5006 79.6601 23.7953 80.2922C24.0271 80.9297 24.6482 81.4733 24.6454 81.4399C24.6856 81.4285 23.8524 81.3903 23.1712 80.8312C22.4669 80.3355 21.9137 79.3209 21.9372 78.8249C21.855 77.8094 22.5687 77.1503 22.969 77.3647C23.3776 77.5698 23.5204 78.1686 23.5795 78.6935Z" fill="#012968"/>
<path fill-rule="evenodd" clip-rule="evenodd" d="M124.331 47.6234C121.284 49.7796 116.855 47.717 115.43 44.5469C113.856 41.0417 115.074 36.7127 118.101 34.4701C121.377 32.0425 125.379 32.6916 127.421 35.899C129.408 39.0217 127.649 42.6287 124.251 43.2265C121.818 43.6544 120.026 42.15 120.083 40.8825C120.131 39.893 121.281 39.3403 121.965 40.1446C122.238 40.4671 122.236 40.9504 122.063 41.2911C122.799 41.9219 124.638 41.9175 125.915 40.5794C127.543 38.8716 126.312 36.2813 124.552 35.2014C122.313 33.8258 119.616 34.856 117.987 36.6613C116.281 38.5553 115.731 41.5426 116.787 43.916C117.985 46.604 121.164 47.8404 123.83 46.6898C124.457 46.4193 124.877 47.2372 124.331 47.6234Z" fill="#FFC943"/>
<path d="M109.877 94.1528C110.043 94.1196 110.293 94.1029 110.626 94.1029C111.857 94.1029 112.473 94.8176 112.473 96.2471C112.473 97.045 112.298 97.7183 111.949 98.2668C111.599 98.8154 111.059 99.156 110.326 99.289C106.166 100.12 103.205 100.752 101.441 101.184C101.374 101.45 101.308 101.849 101.241 102.381C100.309 108.565 98.4456 113.202 95.6503 116.294C92.8547 119.386 89.3936 120.932 85.2671 120.932C82.4715 120.932 80.3251 120.217 78.8275 118.787C77.3299 117.358 76.5811 115.463 76.5811 113.102C76.5811 109.778 78.1869 106.778 81.3983 104.101C84.6097 101.425 89.3437 99.156 95.6004 97.2943C95.7668 96.3634 96.0995 94.1029 96.5987 90.5124C96.7317 89.7145 96.948 88.2683 97.2476 86.174C95.6835 89.5982 93.7201 92.1663 91.3571 93.8785C88.9944 95.5905 86.332 96.4465 83.3701 96.4465C80.5414 96.4465 78.4114 95.5823 76.9805 93.8535C75.5495 92.1248 74.834 89.8641 74.834 87.0715C74.834 86.0742 74.9338 85.1266 75.1334 84.2291C75.3332 83.3315 75.6161 82.2676 75.9821 81.0375C76.4147 79.5748 76.7309 78.3779 76.9306 77.4471C77.1302 76.5162 77.2301 75.4855 77.2301 74.3552C77.2301 72.7595 76.631 71.9617 75.433 71.9617C74.6676 71.9617 73.8107 72.2524 72.8622 72.8344C71.9137 73.4161 70.9236 74.2222 69.892 75.2529C69.3262 75.8181 68.7771 76.1007 68.2447 76.1007C67.7455 76.1007 67.3377 75.9012 67.0216 75.5022C66.7055 75.1032 66.5474 74.6046 66.5474 74.0061C66.5474 72.7762 67.0299 71.6125 67.995 70.5155C69.2264 69.1524 70.7073 68.0637 72.4378 67.2492C74.1684 66.4346 75.9654 66.0273 77.8291 66.0273C79.8591 66.0273 81.4482 66.6425 82.5963 67.8726C83.7446 69.1025 84.3186 70.9145 84.3186 73.3081C84.3186 74.6046 84.2021 75.8181 83.9691 76.9484C83.7361 78.0787 83.4033 79.3752 82.9707 80.8381C82.6047 82.2012 82.3468 83.2484 82.1971 83.9796C82.0472 84.7111 81.9723 85.4425 81.9723 86.174C81.9723 87.7031 82.2385 88.7752 82.7711 89.3904C83.3035 90.0053 84.3019 90.313 85.7663 90.313C87.4634 90.313 89.2606 89.4403 91.1575 87.6949C93.0545 85.9494 94.735 83.5309 96.1993 80.4391C97.6635 77.3473 98.6454 73.8898 99.1446 70.0667C99.3442 68.5706 99.7353 67.5234 100.318 66.925C100.9 66.3266 101.757 66.0273 102.888 66.0273C105.218 66.0273 106.383 67.191 106.383 69.5182C106.383 69.917 106.366 70.2329 106.333 70.4656C105.9 73.5574 105.351 76.9983 104.686 80.7882C103.887 85.5755 103.088 90.4957 102.289 95.5491C104.419 95.1168 106.949 94.6514 109.877 94.1528ZM94.7517 103.029C90.6584 104.292 87.6216 105.689 85.6415 107.218C83.6613 108.747 82.6713 110.493 82.6713 112.454C82.6713 113.385 82.9707 114.183 83.5697 114.848C84.1689 115.513 84.9842 115.845 86.0158 115.845C88.1457 115.845 89.9678 114.848 91.4819 112.853C92.9962 110.858 94.0694 107.733 94.7018 103.478L94.7517 103.029Z" fill="#192122"/>
</svg>
