<svg width="160" height="160" viewBox="0 0 160 160" fill="none" xmlns="http://www.w3.org/2000/svg">
<path d="M138.063 56C138.356 56 138.576 56.2672 138.52 56.5543L129.412 102.625C129.369 102.843 129.178 103 128.955 103H115.427C115.134 103 114.914 102.733 114.97 102.447L118.661 83.5115C118.754 83.0305 118.134 82.7513 117.834 83.1396L105.913 98.5887C105.825 98.703 105.688 98.7699 105.544 98.7699H99.0782C98.8919 98.7699 98.7233 98.6592 98.6502 98.4884L92.0902 83.2244C91.91 82.8052 91.2952 82.869 91.2054 83.3163L87.3327 102.627C87.289 102.843 87.098 103 86.8759 103H73.3504C73.0565 103 72.8358 102.732 72.8935 102.444L82.1333 56.3734C82.1766 56.1563 82.368 56 82.5897 56H94.8223C95.0114 56 95.1818 56.1141 95.2535 56.2888L105.067 80.2391C105.202 80.5686 105.643 80.6304 105.864 80.3508L124.956 56.1771C125.045 56.0653 125.179 56 125.322 56H138.063Z" fill="#45C643"/>
<path fill-rule="evenodd" clip-rule="evenodd" d="M80.24 85.031C80.9753 85.031 81.5269 85.7038 81.3828 86.4249L78.2551 102.063C78.146 102.608 77.6678 103 77.1124 103H67.3562C66.622 103 66.0709 102.33 66.2126 101.609L67.1806 96.6977C67.3228 95.9776 66.7716 95.3071 66.0374 95.3071H46.064C45.5073 95.3071 45.0283 95.7006 44.9207 96.2472L43.7751 102.06C43.6674 102.606 43.1885 103 42.6318 103H32.8822C32.1468 103 31.5953 102.327 31.7395 101.606L33.4641 92.9835H23.9421C22.8695 92.9835 22 92.1139 22 91.0413V90.6658C22 89.5931 22.8695 88.7236 23.9421 88.7236H35.1599C35.1623 88.7236 35.1646 88.7236 35.167 88.7236H45.6231C46.6925 88.7236 47.5594 87.8567 47.5594 86.7873C47.5594 85.7179 46.6925 84.851 45.6231 84.851H44.8563C44.8517 84.851 44.8472 84.851 44.8426 84.851H35.9472C34.8746 84.851 34.0051 83.9815 34.0051 82.9089V82.5333C34.0051 81.4607 34.8746 80.5911 35.9472 80.5911H41.6582C41.6761 80.507 41.7021 80.4329 41.7367 80.3704C42.2238 79.4916 42.6943 78.5172 43.1483 77.4468C43.3342 77.0086 43.7608 76.7185 44.2368 76.7185H48.3279C49.4005 76.7185 50.2701 75.8489 50.2701 74.7763V74.4007C50.2701 73.3327 49.408 72.466 48.3416 72.4586H38.6581C37.5855 72.4586 36.7159 71.5891 36.7159 70.5165V70.1409C36.7159 69.0683 37.5855 68.1988 38.6581 68.1988H51.3145C52.0607 67.9277 52.5936 67.2125 52.5936 66.3727V65.881C52.5936 64.8083 51.7241 63.9388 50.6515 63.9388H48.6081C48.5651 63.9388 48.5227 63.9365 48.4811 63.932H44.2018C43.1291 63.932 42.2596 63.0625 42.2596 61.9899V61.9048C42.2596 60.8321 43.1291 59.9626 44.2018 59.9626H48.0848L48.8221 56.8931C48.9479 56.3693 49.4164 56 49.9552 56H80.8588C81.5937 56 82.1452 56.6721 82.0015 57.393L76.7729 83.6381C76.6292 84.3589 77.1807 85.031 77.9156 85.031H80.24ZM57.4034 69.589C56.4675 73.4823 55.5878 76.6455 54.7642 79.0789C54.2538 80.5869 53.6859 81.9223 53.0605 83.0852C52.6087 83.9254 53.1869 85.031 54.1409 85.031H62.5132C63.0683 85.031 63.5464 84.6394 63.6556 84.095L66.9506 67.6705C67.0951 66.9492 66.5436 66.276 65.8079 66.276H59.1107C58.5708 66.276 58.1016 66.6469 57.9769 67.1722L57.4034 69.589ZM27.4217 82.5333C27.4217 81.4607 28.2912 80.5911 29.3639 80.5911H30.9012C31.9738 80.5911 32.8434 81.4607 32.8434 82.5333V82.9089C32.8434 83.9815 31.9738 84.851 30.9012 84.851H29.3639C28.2912 84.851 27.4217 83.9815 27.4217 82.9089V82.5333Z" fill="#7F2FCB"/>
</svg>
