<svg width="161" height="160" viewBox="0 0 161 160" fill="none" xmlns="http://www.w3.org/2000/svg">
<path fill-rule="evenodd" clip-rule="evenodd" d="M80.7998 136C111.728 136 136.8 110.928 136.8 80C136.8 49.072 111.728 24 80.7998 24C49.8718 24 24.7998 49.072 24.7998 80C24.7998 110.928 49.8718 136 80.7998 136ZM95.0688 71.7794C95.584 73.84 95.584 75.4752 95.584 77.76V82.24C95.584 84.5696 96.3232 86.3616 97.712 88.1088C99.1456 89.8112 101.094 90.6624 103.558 90.6624C106.022 90.6624 107.949 89.8112 109.338 88.1088C110.771 86.3616 111.488 84.3232 111.488 81.9936C111.488 79.7088 110.771 77.7152 109.338 76.0128C107.904 74.3104 105.955 73.4592 103.491 73.4592C101.317 73.4592 99.1612 74.194 97.824 75.52C97.824 73.84 97.6898 72.4324 97.174 71.0138C96.5472 69.2904 95.555 67.7652 94.242 66.4344C96.9726 65.0248 100.056 64.32 103.491 64.32C108.733 64.32 113.146 65.9328 116.73 69.1584C120.314 72.384 122.106 76.6624 122.106 81.9936C122.106 87.3248 120.314 91.648 116.73 94.9632C113.146 98.2784 108.733 99.936 103.491 99.936C98.2944 99.936 93.904 98.2784 90.32 94.9632C86.736 91.648 84.944 87.3248 84.944 81.9936V79.44C84.6994 75.4928 83.2658 73.5266 80.352 73.5266C78.56 73.5266 77.1712 74.2434 76.1856 75.677C75.2448 77.0658 74.7744 78.7682 74.7744 80.7842V93.3506C74.7744 95.6802 74.192 97.293 73.0272 98.189C71.8624 99.085 70.608 99.533 69.264 99.533C67.92 99.533 66.6656 99.085 65.5008 98.189C64.336 97.293 63.7536 95.6802 63.7536 93.3506V79.7762C63.7536 75.6098 62.1632 73.5266 58.9824 73.5266C57.28 73.5266 55.936 74.221 54.9504 75.6098C53.9648 76.9538 53.472 78.6562 53.472 80.717V93.3506C53.472 95.6802 52.8672 97.293 51.6576 98.189C50.4928 99.085 49.2384 99.533 47.8944 99.533C46.5504 99.533 45.296 99.085 44.1312 98.189C42.9664 97.293 42.384 95.6802 42.384 93.3506V70.637C42.384 68.397 42.944 66.8514 44.064 66.0002C45.184 65.149 46.3936 64.7234 47.6928 64.7234C48.9472 64.7234 50.1344 65.1266 51.2544 65.933C52.3744 66.6946 52.9792 68.061 53.0688 70.0322H53.2032C54.0544 68.4642 55.3536 67.1426 57.1008 66.0674C58.848 64.9922 60.8864 64.4546 63.216 64.4546C67.9648 64.4546 71.3248 66.3586 73.296 70.1666C74.7262 67.9154 76.5554 66.3296 78.784 65.4094C80.3254 64.7728 82.0576 64.4546 83.9808 64.4546C86.848 64.4546 89.2224 65.1938 91.104 66.6722C91.4954 66.9634 91.8616 67.2656 92.203 67.579C93.515 68.7968 94.6746 70.2026 95.0688 71.7794Z" fill="#00BFF0"/>
</svg>
