<svg width="160" height="160" viewBox="0 0 160 160" fill="none" xmlns="http://www.w3.org/2000/svg">
<path d="M39.7871 66.5957H66.5956V93.4042H39.7871V66.5957Z" fill="#387EE9"/>
<path d="M95.1914 38L113.064 38C117.999 38 122 42.0009 122 46.9362V64.8085H95.1914V38Z" fill="#387EE9"/>
<path d="M38 47.0025C38 42.0306 42.0306 38 47.0025 38L64.8085 38V64.8085H38L38 47.0025Z" fill="#00C2FF"/>
<path d="M66.5957 39.7871H93.4042V66.5956H66.5957V39.7871Z" fill="#5B73AF"/>
<path d="M38 95.1914H64.8085V122H47.0025C42.0306 122 38 117.969 38 112.997L38 95.1914Z" fill="#0C63E7"/>
<path d="M66.5957 93.4043H80H93.4042V120.213H66.5957V93.4043Z" fill="#5B73AF"/>
<path d="M95.1914 95.1914H122V112.997C122 117.969 117.969 122 112.997 122H95.1914V95.1914Z" fill="#00C2FF"/>
<path d="M93.4043 66.5957H120.213V93.4042H93.4043V66.5957Z" fill="#0C63E7"/>
</svg>
