<svg width="160" height="160" viewBox="0 0 160 160" fill="none" xmlns="http://www.w3.org/2000/svg">
<path d="M79.5435 134.259C106.974 134.259 129.21 112.023 129.21 84.5924C129.21 57.1602 106.974 34.9238 79.5435 34.9238C52.1114 34.9238 29.875 57.1602 29.875 84.5924C29.875 112.023 52.1114 134.259 79.5435 134.259Z" fill="white"/>
<path fill-rule="evenodd" clip-rule="evenodd" d="M65.749 102.578L70.8924 112.039L71.8863 111.395L75.3614 109.747L77.3604 109.332L79.4791 108.895L81.254 108.966L82.2927 109.777L84.7813 111.953C84.7813 111.953 86.6477 112.852 86.8177 112.9L88.4338 113.358L89.4034 113.437L89.6314 113.282L91.07 109.881L91.9051 105.644L92.0546 104.598H93.1699L94.134 104.872L94.3451 105.138L94.1564 107.675L92.5272 112.835L91.8733 114.074L92.0714 114.52L92.8486 116.11C92.8486 116.11 92.6879 116.904 92.6132 116.981C92.5366 117.056 91.8154 117.807 91.8154 117.807L90.6533 118.524L89.2222 119.092L88.6543 121.08L88.019 122.008L87.0438 123.04L86.175 123.552L85.0765 123.778C85.0765 123.778 83.9555 121.267 83.92 121.212C83.8864 121.16 82.0555 118.173 81.9602 117.993C81.8668 117.814 80.2469 116.308 80.2469 116.308L79.9443 116.084L79.1484 118.429L77.4632 122.292L75.4847 124.054L74.6047 124.85L73.6706 124.686C73.6706 124.686 72.1703 123.484 72.1703 123.391C72.1703 123.297 71.0904 121.099 71.0904 121.099C71.0904 121.099 70.6084 120.267 70.4291 120.191C69.7382 119.852 69.0501 119.508 68.3646 119.159C68.3646 119.159 67.5706 118.335 67.5314 118.173C67.494 118.012 67.182 116.999 67.182 116.999C67.182 116.999 67.4118 116.329 67.5407 116.054C67.6733 115.778 69.0932 114.558 69.0932 114.558L65.1829 105.487L64.3721 103.195L65.749 102.578Z" fill="#38A13A"/>
<path d="M40.1274 112.931C40.027 112.981 39.9118 112.991 39.8045 112.959C39.6971 112.928 39.6053 112.858 39.5471 112.762C39.4889 112.667 39.4684 112.553 39.4896 112.444C39.5109 112.334 39.5725 112.236 39.6622 112.169C42.7392 110.28 45.8555 108.608 49.0298 107.263C52.1349 105.95 55.2886 104.948 58.5039 104.367L59.6006 101.97C59.6373 101.89 59.697 101.822 59.7722 101.776C59.8473 101.729 59.9345 101.706 60.0228 101.709L65.9098 101.944L66.9299 100.225C66.9618 100.17 67.0052 100.123 67.0571 100.086C67.109 100.049 67.1682 100.024 67.2307 100.012L69.4539 99.4704L70.0331 98.6763C70.0671 98.6273 70.1106 98.5856 70.161 98.5537C70.2114 98.5218 70.2677 98.5003 70.3266 98.4905C70.3854 98.4806 70.4456 98.4827 70.5037 98.4966C70.5617 98.5104 70.6164 98.5358 70.6644 98.5711C70.7125 98.6065 70.753 98.6511 70.7836 98.7023C70.8141 98.7536 70.8341 98.8104 70.8423 98.8695C70.8505 98.9286 70.8467 98.9888 70.8313 99.0464C70.8159 99.104 70.789 99.158 70.7524 99.2051L70.0798 100.128C70.017 100.212 69.9263 100.272 69.8239 100.296L67.6043 100.838L66.5431 102.628C66.5021 102.697 66.4431 102.754 66.3724 102.792C66.3017 102.831 66.2219 102.85 66.1415 102.846L60.2862 102.613L59.2306 104.926C59.2028 104.999 59.1565 105.063 59.0962 105.112C59.0359 105.162 58.9638 105.195 58.8869 105.208C55.6547 105.768 52.4899 106.764 49.3754 108.085C46.2535 109.408 43.1764 111.059 40.1274 112.931Z" fill="black"/>
<path d="M58.4006 104.594C58.45 104.49 58.5379 104.409 58.6458 104.367C58.7537 104.326 58.8733 104.328 58.9798 104.373C59.0863 104.418 59.1714 104.502 59.2173 104.608C59.2633 104.714 59.2665 104.833 59.2264 104.942L55.7047 113.321L61.0723 115.645C61.1476 115.678 61.2124 115.732 61.2594 115.799C61.3064 115.867 61.3339 115.946 61.3387 116.028C61.3435 116.11 61.3256 116.192 61.2868 116.265C61.248 116.337 61.19 116.398 61.119 116.439L56.9004 118.887L64.2409 131.929C64.2989 132.033 64.3133 132.155 64.2811 132.269C64.2489 132.384 64.1726 132.48 64.069 132.538C63.9655 132.596 63.8431 132.611 63.7289 132.579C63.6147 132.546 63.5179 132.47 63.46 132.366L55.9046 118.941C55.8477 118.839 55.8332 118.718 55.8643 118.605C55.8954 118.492 55.9696 118.396 56.0709 118.337L59.9065 116.11L54.9817 113.979C54.9229 113.96 54.8689 113.928 54.8228 113.887C54.7768 113.846 54.7397 113.796 54.7141 113.74C54.6885 113.683 54.6748 113.623 54.6739 113.561C54.673 113.499 54.6849 113.438 54.7089 113.381L58.4006 104.594ZM65.6272 101.984C65.6804 101.955 65.739 101.937 65.7994 101.931C65.8599 101.925 65.921 101.931 65.9789 101.95C66.0368 101.968 66.0903 101.998 66.1362 102.038C66.1821 102.078 66.2193 102.127 66.2457 102.181C66.2721 102.236 66.287 102.296 66.2895 102.356C66.292 102.417 66.2821 102.478 66.2605 102.534C66.2388 102.591 66.2057 102.643 66.1633 102.686C66.1209 102.73 66.0701 102.764 66.0139 102.788C66.0046 102.791 63.0994 104.196 62.2773 104.557C61.3488 105.831 65.7411 118.831 69.0929 126.945C69.8084 128.68 70.481 130.192 71.049 131.316C71.531 132.273 71.914 132.919 72.1513 133.147C72.2433 133.133 72.3374 133.149 72.4204 133.191C72.5034 133.233 72.5711 133.3 72.6141 133.383C72.6571 133.465 72.6733 133.559 72.6603 133.651C72.6473 133.743 72.6059 133.829 72.5417 133.897C72.3101 134.136 72.0429 134.149 71.7458 133.958C71.3759 133.723 70.8584 132.919 70.2512 131.718C69.5371 130.264 68.8753 128.785 68.2671 127.283C64.8855 119.092 60.6146 105.913 61.5861 104.015C61.6168 103.948 61.6635 103.89 61.7222 103.845C61.7808 103.8 61.8496 103.771 61.9224 103.759C61.9784 103.75 65.616 101.99 65.6272 101.984ZM69.3638 99.6489C69.4001 99.5426 69.4751 99.4539 69.5738 99.4002C69.6725 99.3465 69.7878 99.3318 69.8968 99.3591C70.0058 99.3863 70.1006 99.4535 70.1624 99.5473C70.2242 99.6411 70.2486 99.7547 70.2306 99.8657C69.8196 101.491 70.3203 103.01 71.6132 104.432C72.9453 105.898 75.0938 107.264 77.9411 108.548C78.6611 108.298 79.4252 108.2 80.1849 108.262C80.8538 108.323 81.4647 108.525 82.0308 108.839C84.9976 107.701 86.9033 106.483 87.9066 105.194C88.8725 103.953 88.9827 102.634 88.3979 101.246C88.3752 101.192 88.3634 101.134 88.3631 101.076C88.3628 101.017 88.374 100.959 88.3961 100.905C88.4408 100.796 88.5271 100.708 88.6361 100.662C88.7451 100.617 88.8679 100.616 88.9774 100.661C89.0869 100.705 89.1741 100.792 89.22 100.901C89.9355 102.597 89.7973 104.217 88.609 105.741C87.4825 107.188 85.3881 108.531 82.1485 109.749C82.0851 109.773 82.0172 109.78 81.9499 109.773C81.8825 109.767 81.8175 109.745 81.7599 109.71C81.2585 109.398 80.6921 109.206 80.1046 109.149C79.4121 109.099 78.717 109.201 78.0681 109.448C77.9601 109.486 77.8416 109.481 77.7374 109.433C74.6996 108.081 72.3941 106.62 70.9537 105.033C69.4497 103.378 68.8724 101.592 69.3638 99.6489Z" fill="black"/>
<path d="M65.29 102.664C65.2459 102.561 65.2421 102.444 65.2793 102.339C65.3166 102.233 65.3923 102.145 65.4913 102.092C65.5904 102.039 65.7057 102.025 65.8144 102.053C65.9231 102.081 66.0173 102.149 66.0784 102.243L70.936 111.379C71.9446 110.663 73.0239 110.052 74.1569 109.556C75.3386 109.036 76.5955 108.708 77.8804 108.584C77.9389 108.579 77.9979 108.586 78.0539 108.604C78.1099 108.621 78.1618 108.65 78.2067 108.688C78.2517 108.726 78.2887 108.772 78.3157 108.824C78.3428 108.876 78.3593 108.933 78.3643 108.992C78.3694 109.05 78.3628 109.109 78.3451 109.165C78.3273 109.221 78.2987 109.273 78.2609 109.318C78.2231 109.363 78.1768 109.4 78.1246 109.427C78.0725 109.454 78.0155 109.471 77.957 109.476C76.7655 109.59 75.5999 109.894 74.5044 110.376C73.2866 110.914 72.1334 111.588 71.0668 112.384C71.0155 112.427 70.9555 112.457 70.891 112.474C70.8265 112.49 70.7592 112.492 70.6939 112.479C70.6286 112.466 70.567 112.439 70.5135 112.399C70.4601 112.36 70.4161 112.309 70.3848 112.25L65.29 102.664ZM81.6413 109.612C81.6046 109.566 81.5773 109.514 81.5609 109.457C81.5446 109.401 81.5394 109.342 81.5459 109.284C81.5523 109.225 81.5701 109.169 81.5984 109.118C81.6266 109.066 81.6647 109.021 81.7104 108.984C81.7562 108.947 81.8087 108.92 81.865 108.904C81.9213 108.887 81.9803 108.882 82.0386 108.889C82.0969 108.895 82.1534 108.913 82.2048 108.941C82.2562 108.969 82.3015 109.008 82.3382 109.053C83.3284 110.286 84.412 111.269 85.617 111.944C86.7362 112.577 87.9901 112.935 89.2751 112.988C89.8169 111.706 90.2971 110.391 90.6894 109.029C91.1079 107.577 91.4274 106.064 91.6199 104.47C91.6237 104.41 91.6398 104.35 91.6674 104.296C91.6949 104.241 91.7332 104.193 91.78 104.154C91.8268 104.115 91.8811 104.086 91.9395 104.069C91.9979 104.051 92.0592 104.046 92.1198 104.053C92.1803 104.06 92.2387 104.08 92.2915 104.11C92.3443 104.14 92.3903 104.181 92.4268 104.23C92.4632 104.279 92.4893 104.335 92.5035 104.394C92.5176 104.453 92.5196 104.515 92.5092 104.575C92.3147 106.165 91.9923 107.737 91.5451 109.276C91.1154 110.77 90.583 112.209 89.9795 113.603C89.9464 113.687 89.8888 113.759 89.8141 113.809C89.7394 113.86 89.6512 113.887 89.561 113.887C88.0252 113.879 86.517 113.478 85.1798 112.723C83.8739 111.99 82.7025 110.935 81.6413 109.612Z" fill="black"/>
<path d="M88.9632 101.195C88.9037 101.1 88.8818 100.986 88.9017 100.876C88.9216 100.766 88.982 100.668 89.0709 100.6C89.1598 100.532 89.2709 100.5 89.3824 100.51C89.4938 100.519 89.5975 100.571 89.6732 100.653L92.3112 104.109L94.6914 104.513C99.1137 105.047 99.8759 105.675 102.269 107.648C102.848 108.126 103.527 108.687 104.399 109.357C104.498 109.432 104.556 109.544 104.569 109.662L104.67 110.542C106.987 111.263 109.079 112.298 110.91 113.701C112.819 115.16 114.443 117.014 115.743 119.319C115.772 119.37 115.79 119.426 115.797 119.484C115.805 119.542 115.8 119.601 115.784 119.657C115.769 119.713 115.742 119.766 115.706 119.812C115.67 119.858 115.625 119.897 115.574 119.925C115.523 119.954 115.467 119.972 115.409 119.979C115.351 119.986 115.292 119.982 115.236 119.966C115.18 119.951 115.127 119.924 115.081 119.888C115.035 119.852 114.997 119.807 114.968 119.756C113.816 117.679 112.25 115.86 110.368 114.411C108.552 113.021 106.46 112.005 104.132 111.31C104.048 111.285 103.973 111.236 103.916 111.169C103.86 111.102 103.824 111.019 103.814 110.932L103.702 109.948C103.028 109.421 102.361 108.884 101.703 108.337C99.463 106.489 98.7512 105.903 94.5849 105.4L94.5663 105.397L91.9899 104.961C91.8786 104.942 91.7786 104.882 91.7096 104.793L88.9632 101.195Z" fill="black"/>
<path d="M93.7456 104.87C93.7549 104.757 93.8071 104.651 93.8916 104.575C93.976 104.499 94.0863 104.458 94.2 104.46C94.3137 104.463 94.4221 104.508 94.5033 104.588C94.5845 104.667 94.6322 104.775 94.6368 104.889C94.6083 106.608 94.3864 108.319 93.9754 109.989C93.6206 111.422 93.0552 112.795 92.2977 114.062C93.0151 115.089 93.357 116.085 92.9927 117.019C92.6321 117.944 91.5747 118.738 89.4822 119.336C89.329 120.577 88.9329 121.612 88.2715 122.419C87.5504 123.304 86.5265 123.912 85.1701 124.212C85.0661 124.235 84.9576 124.219 84.8641 124.168C84.7706 124.118 84.6983 124.035 84.6601 123.936C84.107 122.48 83.4038 121.087 82.562 119.777C81.8332 118.646 81.0101 117.58 80.1015 116.588L79.767 117.578C78.7638 120.582 77.7586 123.586 74.7526 125.141C74.7125 125.161 74.6697 125.176 74.6255 125.184C73.7138 125.346 72.9777 125.004 72.2995 124.192C71.6979 123.467 71.1505 122.357 70.5545 120.876C70.3808 120.44 69.8632 120.3 69.3551 120.164C68.995 120.084 68.6479 119.955 68.3238 119.779C67.9415 119.541 67.608 119.233 67.341 118.871C66.8702 118.245 66.6404 117.522 66.6404 117.451C66.6404 117.415 66.6404 117.178 66.7096 116.862C66.7768 116.547 66.9132 116.153 67.1841 115.786C67.5391 115.312 68.0734 114.899 68.4284 114.654C67.5219 113 66.7067 111.297 65.9865 109.554C65.1402 107.49 64.4483 105.367 63.9165 103.202C63.9024 103.145 63.8996 103.086 63.9083 103.028C63.917 102.97 63.937 102.914 63.9672 102.864C63.9974 102.814 64.0371 102.77 64.0842 102.736C64.1313 102.701 64.1847 102.676 64.2415 102.662C64.2983 102.647 64.3574 102.645 64.4152 102.653C64.4731 102.662 64.5287 102.682 64.5788 102.712C64.629 102.742 64.6727 102.782 64.7074 102.829C64.7422 102.876 64.7674 102.93 64.7815 102.987C65.3037 105.11 65.9825 107.191 66.8123 109.214C67.5951 111.123 68.4751 112.894 69.4092 114.587C69.4652 114.689 69.4793 114.808 69.4486 114.92C69.4179 115.032 69.3448 115.128 69.2448 115.187C69.2411 115.187 68.3574 115.704 67.8997 116.319C67.7434 116.537 67.6352 116.786 67.5821 117.049C67.5523 117.182 67.536 117.317 67.5335 117.453C67.5335 117.479 67.7054 117.868 68.0566 118.331C68.2472 118.589 68.4919 118.841 68.7815 119.015C68.9907 119.14 69.2878 119.22 69.5849 119.301C70.3079 119.495 71.0421 119.693 71.3822 120.545C71.9464 121.946 72.4527 122.983 72.9852 123.62C73.4223 124.149 73.8782 124.386 74.4069 124.311C77.0412 122.914 77.981 120.104 78.9226 117.294C79.1113 116.726 79.3018 116.156 79.5018 115.605C79.5269 115.533 79.5702 115.468 79.6274 115.417C79.6846 115.367 79.7539 115.331 79.8286 115.315C79.9033 115.298 79.981 115.301 80.0543 115.323C80.1275 115.345 80.194 115.386 80.2472 115.441C81.3933 116.621 82.4196 117.912 83.3112 119.295C84.1164 120.547 84.7965 121.868 85.3495 123.248C86.3135 122.974 87.0534 122.505 87.5802 121.858C88.1744 121.13 88.5163 120.16 88.6265 118.974C88.6295 118.878 88.6633 118.785 88.7228 118.71C88.7824 118.635 88.8645 118.58 88.9572 118.555C90.9338 118.03 91.8848 117.399 92.1594 116.694C92.4191 116.031 92.0623 115.226 91.4046 114.35C91.3503 114.277 91.3195 114.19 91.3161 114.099C91.3128 114.009 91.3372 113.92 91.386 113.843C92.1632 112.629 92.7293 111.265 93.1123 109.769C93.499 108.263 93.7008 106.62 93.7456 104.87Z" fill="black"/>
<path d="M94.1513 107.006C94.045 106.976 93.9532 106.908 93.8936 106.815C93.834 106.723 93.8107 106.611 93.8283 106.502C93.8459 106.393 93.9031 106.294 93.9889 106.225C94.0747 106.155 94.1831 106.12 94.2933 106.126L97.4377 106.636C97.6768 106.675 97.8412 106.897 97.8076 107.136C97.1363 111.85 96.0242 116.49 94.4858 120.995C93.0098 125.361 91.2312 129.5 89.305 133.532C89.2487 133.63 89.1575 133.703 89.0496 133.736C88.9418 133.77 88.8252 133.762 88.7232 133.713C88.6212 133.664 88.5413 133.579 88.4995 133.474C88.4578 133.369 88.4572 133.252 88.4979 133.147C90.4148 129.134 92.184 125.025 93.6394 120.711C95.1128 116.396 96.1915 111.956 96.8622 107.446L94.1513 107.006ZM103.812 110.852C103.827 110.739 103.884 110.636 103.972 110.564C104.061 110.491 104.173 110.455 104.287 110.463C104.401 110.47 104.507 110.521 104.585 110.605C104.663 110.688 104.706 110.798 104.705 110.912L104.117 119.699C104.109 119.815 104.056 119.924 103.969 120.001C103.882 120.079 103.768 120.12 103.652 120.115L98.2579 120.227L101.767 124.618C101.827 124.694 101.861 124.788 101.863 124.885C101.866 124.982 101.836 125.077 101.78 125.156L97.6133 130.914C97.5799 130.964 97.5368 131.007 97.4866 131.04C97.4364 131.072 97.38 131.095 97.321 131.105C97.2619 131.116 97.2012 131.115 97.1427 131.101C97.0842 131.088 97.029 131.063 96.9803 131.028C96.9317 130.993 96.8906 130.948 96.8596 130.896C96.8287 130.845 96.8083 130.788 96.7999 130.728C96.7915 130.669 96.7952 130.608 96.8107 130.55C96.8262 130.492 96.8533 130.438 96.8903 130.391L100.859 124.907L97.0117 120.097C96.9554 120.033 96.9186 119.954 96.9054 119.87C96.8923 119.786 96.9035 119.7 96.9377 119.622C96.9718 119.544 97.0275 119.478 97.0982 119.43C97.169 119.383 97.2517 119.357 97.3368 119.355L103.256 119.233L103.816 110.854L103.812 110.852Z" fill="black"/>
<path d="M97.081 107.421C97.035 107.384 96.9969 107.338 96.9688 107.286C96.9407 107.234 96.9232 107.177 96.9174 107.118C96.9115 107.059 96.9173 107 96.9346 106.943C96.9519 106.887 96.9802 106.834 97.0179 106.789C97.0556 106.743 97.102 106.705 97.1543 106.678C97.2067 106.651 97.2639 106.634 97.3228 106.629C97.3817 106.624 97.441 106.63 97.4973 106.648C97.5536 106.666 97.6058 106.695 97.6508 106.733L101.836 110.199C101.887 110.234 101.931 110.28 101.964 110.333C101.997 110.386 102.018 110.445 102.027 110.507C102.035 110.568 102.031 110.631 102.014 110.691C101.997 110.751 101.968 110.807 101.928 110.855C101.888 110.903 101.839 110.942 101.783 110.97C101.727 110.998 101.666 111.014 101.604 111.017C101.542 111.02 101.479 111.01 101.421 110.987C101.363 110.965 101.31 110.93 101.266 110.886L97.081 107.421ZM79.4817 115.776C79.4739 115.715 79.4787 115.653 79.4958 115.594C79.513 115.535 79.5421 115.48 79.5814 115.433C79.6206 115.386 79.6692 115.347 79.7241 115.32C79.7789 115.292 79.8389 115.276 79.9002 115.273C79.9615 115.27 80.0229 115.279 80.0804 115.3C80.1379 115.322 80.1904 115.355 80.2346 115.397C80.2788 115.44 80.3137 115.491 80.3372 115.548C80.3607 115.605 80.3722 115.666 80.371 115.727L81.4135 133.81C81.4167 133.869 81.4083 133.927 81.3889 133.983C81.3694 134.038 81.3393 134.089 81.3002 134.133C81.2212 134.221 81.1104 134.274 80.9922 134.28C80.874 134.287 80.7581 134.246 80.67 134.167C80.5819 134.088 80.5288 133.977 80.5223 133.859L79.4798 115.774L79.4817 115.776ZM79.9731 110.247C80.6363 110.247 81.2416 110.474 81.6844 110.842C82.1496 111.228 82.4373 111.768 82.4373 112.37C82.4373 112.971 82.1496 113.51 81.6844 113.898C81.2003 114.289 80.5952 114.499 79.9731 114.492C79.3098 114.492 78.7045 114.264 78.2617 113.896C78.0309 113.714 77.8437 113.482 77.7135 113.218C77.5832 112.954 77.5133 112.664 77.5088 112.37C77.5088 111.768 77.7984 111.228 78.2617 110.842C78.7045 110.474 79.3098 110.247 79.9731 110.247ZM81.1146 111.525C80.7903 111.27 80.3878 111.134 79.9749 111.141C79.5608 111.133 79.1567 111.269 78.8315 111.525C78.7022 111.626 78.5967 111.754 78.5227 111.9C78.4487 112.046 78.4081 112.206 78.4037 112.37C78.4086 112.533 78.4497 112.693 78.524 112.839C78.5983 112.984 78.704 113.111 78.8334 113.211C79.1567 113.468 79.5598 113.605 79.9731 113.597C80.3867 113.605 80.7901 113.469 81.1146 113.212C81.2443 113.113 81.3501 112.985 81.4244 112.84C81.4987 112.694 81.5397 112.533 81.5443 112.37C81.5397 112.206 81.4988 112.045 81.4245 111.899C81.3501 111.753 81.2443 111.626 81.1146 111.525Z" fill="black"/>
<path d="M81.2195 113.587C81.1454 113.501 81.1064 113.391 81.1104 113.278C81.1143 113.164 81.161 113.057 81.2409 112.977C81.3209 112.897 81.4282 112.85 81.5414 112.845C81.6545 112.841 81.7651 112.88 81.851 112.953C81.8603 112.961 84.5095 115.61 85.2046 116.057C85.2563 116.087 85.3013 116.128 85.3369 116.176C85.3725 116.224 85.398 116.279 85.4119 116.338C85.4258 116.396 85.4278 116.457 85.4177 116.516C85.4076 116.575 85.3857 116.632 85.3533 116.682C85.3209 116.733 85.2786 116.776 85.229 116.81C85.1794 116.844 85.1235 116.867 85.0646 116.879C85.0057 116.891 84.9451 116.891 84.8863 116.878C84.8275 116.866 84.7718 116.842 84.7225 116.808C83.9397 116.307 81.227 113.594 81.2195 113.587ZM81.681 112.455C81.6318 112.418 81.5906 112.373 81.5598 112.32C81.5291 112.267 81.5094 112.209 81.5021 112.148C81.4948 112.088 81.4999 112.026 81.5173 111.968C81.5346 111.91 81.5637 111.855 81.6028 111.808C81.642 111.762 81.6902 111.723 81.7447 111.696C81.7992 111.669 81.8587 111.653 81.9196 111.649C81.9805 111.646 82.0415 111.655 82.0987 111.675C82.156 111.696 82.2084 111.729 82.2527 111.771C82.2583 111.775 83.9341 113.194 87.0822 114.17C90.2695 115.158 90.9907 115.192 90.9925 115.194C91.0509 115.197 91.1081 115.212 91.1607 115.237C91.2133 115.263 91.2604 115.299 91.2993 115.342C91.3381 115.386 91.368 115.437 91.3872 115.492C91.4064 115.547 91.4145 115.606 91.411 115.664C91.4076 115.723 91.3927 115.78 91.3672 115.833C91.3416 115.885 91.306 115.932 91.2623 115.971C91.2186 116.01 91.1676 116.04 91.1124 116.059C91.0571 116.078 90.9986 116.086 90.9402 116.083C90.9365 116.083 90.1107 116.044 86.8206 115.024C83.4951 113.992 81.6847 112.46 81.681 112.455ZM78.2638 113.538C78.2973 113.425 78.3745 113.329 78.4786 113.272C78.5827 113.215 78.705 113.202 78.8187 113.236C78.9325 113.269 79.0282 113.346 79.085 113.45C79.1417 113.554 79.1548 113.677 79.1214 113.79C79.1177 113.798 78.3367 116.481 76.857 117.348C76.755 117.407 76.6333 117.424 76.5189 117.394C76.4045 117.364 76.3067 117.29 76.247 117.188C76.1873 117.086 76.1706 116.964 76.2006 116.85C76.2305 116.735 76.3047 116.638 76.4068 116.578C77.5782 115.892 78.262 113.546 78.2638 113.538ZM77.6716 112.389C77.7531 112.303 77.8654 112.253 77.9839 112.25C78.1023 112.247 78.2171 112.291 78.3031 112.372C78.3891 112.454 78.4391 112.566 78.4423 112.685C78.4454 112.803 78.4014 112.918 78.3199 113.004L76.1583 115.281C75.9151 115.541 75.6784 115.807 75.4483 116.079C74.5516 117.125 74.034 117.725 72.1919 117.843C69.8939 117.988 69.4306 117.452 69.4287 117.45C69.3893 117.407 69.3588 117.357 69.339 117.302C69.3191 117.247 69.3103 117.188 69.313 117.13C69.3157 117.072 69.3298 117.014 69.3546 116.962C69.3795 116.909 69.4145 116.861 69.4577 116.822C69.5008 116.782 69.5514 116.752 69.6063 116.732C69.6613 116.712 69.7196 116.703 69.778 116.706C69.8364 116.709 69.8936 116.723 69.9466 116.748C69.9995 116.773 70.047 116.808 70.0863 116.851C70.0863 116.851 70.2657 117.071 72.134 116.952C73.6043 116.858 74.0284 116.361 74.7683 115.5C74.9831 115.25 75.2223 114.973 75.5137 114.665L77.6716 112.389ZM78.6954 111.442C78.6445 111.54 78.5593 111.616 78.4561 111.655C78.3528 111.694 78.2388 111.693 78.1359 111.654C78.0329 111.614 77.9483 111.537 77.8981 111.439C77.8479 111.341 77.8358 111.227 77.864 111.121C77.8603 111.13 77.7333 111.435 76.5469 111.838C75.3007 112.26 73.7968 113.019 72.6515 113.598C71.8612 113.996 71.2335 114.314 70.9177 114.401C70.8063 114.425 70.6899 114.406 70.5924 114.347C70.4949 114.288 70.4237 114.194 70.3934 114.084C70.3631 113.974 70.3759 113.856 70.4293 113.756C70.4826 113.655 70.5725 113.579 70.6805 113.542C70.9084 113.477 71.5025 113.178 72.2498 112.8C73.4212 112.21 74.9588 111.433 76.261 110.992C79.2951 109.962 78.6954 111.438 78.6954 111.442ZM83.3157 123.769C83.5313 123.768 83.745 123.81 83.9443 123.892C84.1437 123.975 84.3248 124.095 84.4773 124.248C84.6297 124.4 84.7505 124.581 84.8327 124.781C84.9149 124.98 84.9568 125.194 84.9561 125.409C84.9589 125.735 84.8643 126.055 84.6843 126.326C84.5042 126.598 84.2471 126.81 83.9458 126.934C83.6446 127.059 83.313 127.091 82.9936 127.025C82.6743 126.96 82.3818 126.801 82.1536 126.568C81.9237 126.338 81.7671 126.046 81.7037 125.728C81.6402 125.409 81.6728 125.079 81.7974 124.779C81.9219 124.479 82.1327 124.223 82.403 124.043C82.6733 123.863 82.991 123.768 83.3157 123.769ZM83.8426 124.882C83.7736 124.813 83.6915 124.758 83.6011 124.72C83.5107 124.682 83.4137 124.663 83.3157 124.663C83.2177 124.663 83.1207 124.682 83.0303 124.72C82.9399 124.758 82.8578 124.813 82.7889 124.882C82.719 124.951 82.6636 125.033 82.6257 125.124C82.5879 125.214 82.5684 125.311 82.5684 125.409C82.5684 125.507 82.5879 125.604 82.6257 125.695C82.6636 125.785 82.719 125.867 82.7889 125.936C82.93 126.069 83.1172 126.141 83.3109 126.138C83.5046 126.135 83.6895 126.057 83.8265 125.92C83.9635 125.783 84.0417 125.598 84.0447 125.405C84.0477 125.211 83.9752 125.024 83.8426 124.882ZM83.7323 129.221C84.1619 129.221 84.5739 129.391 84.8777 129.695C85.1815 129.999 85.3521 130.411 85.3521 130.84C85.3521 131.27 85.1815 131.682 84.8777 131.986C84.5739 132.29 84.1619 132.46 83.7323 132.46C83.3027 132.46 82.8907 132.29 82.587 131.986C82.2832 131.682 82.1125 131.27 82.1125 130.84C82.1125 130.411 82.2832 129.999 82.587 129.695C82.8907 129.391 83.3027 129.221 83.7323 129.221ZM84.2461 130.329C84.1789 130.261 84.0989 130.207 84.0107 130.17C83.9225 130.133 83.8279 130.114 83.7323 130.114C83.6368 130.114 83.5422 130.133 83.454 130.17C83.3658 130.207 83.2858 130.261 83.2186 130.329C83.1175 130.43 83.0488 130.559 83.0211 130.7C82.9934 130.84 83.008 130.986 83.0629 131.118C83.1179 131.25 83.2108 131.363 83.33 131.443C83.4491 131.522 83.5891 131.565 83.7323 131.565C83.8756 131.565 84.0156 131.522 84.1347 131.443C84.2539 131.363 84.3468 131.25 84.4017 131.118C84.4567 130.986 84.4713 130.84 84.4436 130.7C84.4159 130.559 84.3472 130.43 84.2461 130.329Z" fill="black"/>
<path d="M79.5434 33.1348C86.302 33.1261 92.9957 34.4531 99.2399 37.0396C105.484 39.6261 111.156 43.421 115.928 48.2063C120.714 52.9792 124.509 58.6506 127.095 64.8948C129.682 71.1389 131.009 77.8327 131 84.5913C131.009 91.3503 129.682 98.0443 127.095 104.289C124.509 110.533 120.714 116.205 115.928 120.978C111.156 125.763 105.484 129.558 99.2399 132.145C92.9957 134.731 86.302 136.058 79.5434 136.05C65.3331 136.05 52.47 130.29 43.1565 120.978C38.371 116.205 34.5759 110.533 31.9894 104.289C29.4029 98.0443 28.0761 91.3503 28.085 84.5913C28.0763 77.8327 29.4033 71.1389 31.9898 64.8948C34.5763 58.6506 38.3712 52.9792 43.1565 48.2063C52.47 38.8948 65.3331 33.1348 79.5434 33.1348ZM113.397 50.7341C108.956 46.2824 103.679 42.7519 97.8691 40.3457C92.0594 37.9394 85.8316 36.7047 79.5434 36.7126C73.2541 36.7043 67.0251 37.9389 61.2144 40.3455C55.4038 42.7521 50.126 46.2832 45.6843 50.736C41.2317 55.177 37.7007 60.4542 35.2941 66.2642C32.8875 72.0742 31.6528 78.3026 31.6609 84.5913C31.6528 90.88 32.8875 97.1084 35.2941 102.918C37.7007 108.728 41.2317 114.006 45.6843 118.447C50.1256 122.899 55.403 126.431 61.2134 128.837C67.0238 131.244 73.2525 132.478 79.5415 132.47C85.8299 132.478 92.0579 131.243 97.8677 128.837C103.677 126.43 108.954 122.899 113.395 118.447C117.848 114.006 121.379 108.728 123.786 102.918C126.193 97.1085 127.428 90.8801 127.42 84.5913C127.428 78.3026 126.193 72.0744 123.787 66.2644C121.38 60.4544 117.849 55.1772 113.397 50.736V50.7341Z" fill="#38A13A"/>
<path fill-rule="evenodd" clip-rule="evenodd" d="M62.4674 44.9351L63.6071 30.4465C63.6071 30.4465 65.268 27.9897 65.3259 27.9243C65.382 27.8571 68.601 26.2279 68.601 26.2279L71.2335 25.2153L74.8112 24.7127L77.9836 24.4213L80.7207 24.2793L85.0925 24.8566L88.588 25.4526L92.8851 26.5418L96.7394 28.3204L99.2018 30.1569L100.431 32.1934L100.581 36.838L100.954 44.4456L100.973 47.788L90.3106 45.8188L76.1284 44.8137L68.4011 46.3849L62.3311 46.9024L62.4674 44.9351Z" fill="white"/>
<path fill-rule="evenodd" clip-rule="evenodd" d="M62.49 44.6391C76.6965 41.2332 89.3112 42.0235 100.641 46.1954L100.883 50.1412C88.7563 47.4509 75.923 46.825 62.1836 49.0464L62.4807 44.7587L62.49 44.6391Z" fill="#38A13A"/>
<path d="M62.6177 48.7063C62.6 48.8177 62.5408 48.9183 62.4522 48.988C62.3635 49.0578 62.2518 49.0915 62.1393 49.0826C62.0269 49.0736 61.9219 49.0226 61.8454 48.9397C61.7689 48.8568 61.7265 48.7481 61.7266 48.6353L63.1595 30.4138C63.1636 30.3575 63.1782 30.3023 63.2025 30.2513C64.2712 27.6319 67.1596 25.8982 70.8999 24.9267C74.3656 24.028 78.5786 23.7739 82.7262 24.0672C86.8738 24.3624 90.9672 25.2088 94.1975 26.5035C97.6314 27.8804 100.114 29.7842 100.718 32.1121C100.727 32.1476 100.732 32.1839 100.733 32.2205C100.834 35.4358 100.933 38.3018 101.032 41.1696C101.129 44.0393 101.228 46.909 101.327 50.128C101.332 50.1886 101.325 50.2496 101.306 50.3073C101.287 50.365 101.256 50.4182 101.216 50.4636C101.176 50.5091 101.127 50.5458 101.072 50.5716C101.017 50.5974 100.957 50.6117 100.896 50.6136C100.835 50.6155 100.775 50.605 100.718 50.5827C100.662 50.5604 100.61 50.5269 100.567 50.484C100.524 50.4412 100.49 50.39 100.468 50.3336C100.445 50.2772 100.434 50.2168 100.436 50.1561C100.337 46.937 100.238 44.0654 100.139 41.1976C100.041 38.3429 99.9443 35.4881 99.8435 32.2915C99.296 30.2887 97.0223 28.5979 93.8649 27.333C90.7225 26.0719 86.7243 25.2499 82.6626 24.9603C78.6028 24.6707 74.4926 24.9155 71.1222 25.7917C67.6659 26.6885 65.0073 28.2429 64.0451 30.5521L62.6177 48.7044V48.7063Z" fill="black"/>
<path d="M60.2857 64.2993C60.3437 64.3158 60.3979 64.3438 60.4448 64.3818C60.4917 64.4197 60.5304 64.4668 60.5586 64.5202C60.5869 64.5735 60.604 64.632 60.6089 64.6922C60.6139 64.7523 60.6066 64.8129 60.5875 64.8701C60.5684 64.9274 60.5379 64.9802 60.4979 65.0253C60.4578 65.0704 60.409 65.107 60.3545 65.1327C60.2999 65.1585 60.2406 65.1729 60.1803 65.1751C60.12 65.1774 60.0599 65.1673 60.0036 65.1456C56.9396 64.1125 54.352 62.6421 52.6425 60.9924C50.9367 59.3483 50.0829 57.5099 50.4472 55.7014C51.2973 51.4679 57.756 48.927 66.2156 47.821C70.8808 47.2119 76.168 47.0307 81.4478 47.2343C86.7295 47.4398 92.0111 48.0284 96.6651 48.9662C105.313 50.7038 111.836 53.6799 112.357 57.6594C112.549 59.1354 111.796 60.6505 109.969 62.2367C108.232 63.7444 105.495 65.3381 101.637 67.042C101.582 67.071 101.522 67.0886 101.461 67.0934C101.399 67.0983 101.337 67.0904 101.279 67.0702C101.221 67.0501 101.167 67.0181 101.122 66.9763C101.076 66.9345 101.04 66.8837 101.015 66.8272C100.99 66.7707 100.977 66.7097 100.977 66.648C100.977 66.5863 100.989 66.5252 101.014 66.4685C101.038 66.4118 101.074 66.3608 101.119 66.3187C101.164 66.2766 101.218 66.2442 101.276 66.2237C105.054 64.5571 107.718 63.0102 109.384 61.5623C110.965 60.1928 111.624 58.9373 111.471 57.7734C111.01 54.2386 104.775 51.5071 96.4913 49.8406C91.8841 48.9121 86.6529 48.3273 81.4161 48.1255C76.1811 47.9237 70.9461 48.1031 66.3296 48.7047C58.238 49.7621 52.082 52.0863 51.3197 55.8752C51.0208 57.3586 51.7737 58.9168 53.259 60.3497C54.8788 61.9116 57.3487 63.3072 60.2857 64.2993Z" fill="black"/>
<path d="M57.8653 61.6619C57.7627 61.7178 57.6422 61.7313 57.5297 61.6994C57.4173 61.6675 57.3218 61.5928 57.2639 61.4913C57.2059 61.3898 57.19 61.2696 57.2197 61.1565C57.2494 61.0434 57.3222 60.9465 57.4225 60.8866C64.6621 56.7389 73.6916 54.9641 82.0952 55.0332C91.3825 55.1079 99.9299 57.4433 104.477 61.3144C104.522 61.3524 104.558 61.3988 104.585 61.451C104.612 61.5032 104.628 61.5601 104.632 61.6185C104.637 61.6769 104.63 61.7356 104.612 61.7913C104.594 61.847 104.565 61.8985 104.527 61.9431C104.489 61.9876 104.442 62.0242 104.39 62.0508C104.338 62.0774 104.281 62.0934 104.223 62.098C104.164 62.1026 104.106 62.0957 104.05 62.0776C103.994 62.0595 103.943 62.0306 103.898 61.9926C99.5077 58.2523 91.1769 55.9972 82.0877 55.9244C73.8299 55.8571 64.9629 57.5965 57.8653 61.6619Z" fill="black"/>
<path d="M59.9806 59.8214C59.9907 59.7077 60.044 59.6022 60.1295 59.5266C60.215 59.451 60.3262 59.411 60.4403 59.4148C60.5544 59.4186 60.6627 59.466 60.7429 59.5472C60.8232 59.6284 60.8693 59.7372 60.8717 59.8513L60.6326 67.36C62.0264 69.5328 62.6971 71.8308 62.8633 74.2166C63.0296 76.6024 62.6896 79.0705 62.0693 81.5814C62.4075 89.4413 66.1086 95.4591 71.11 98.9005C73.5909 100.625 76.4611 101.707 79.4631 102.049C82.4471 102.383 85.4655 101.889 88.188 100.623C93.3501 98.2186 97.8153 92.8715 99.891 83.9673C99.8948 81.2395 100.182 78.6557 100.474 76.0588C100.689 74.1288 100.904 72.1914 101.005 70.2091C101.115 68.0158 100.977 65.6804 100.836 63.332C100.764 62.0952 100.689 60.8546 100.65 59.5916C100.648 59.533 100.658 59.4746 100.679 59.4198C100.7 59.3651 100.731 59.3149 100.772 59.2723C100.812 59.2298 100.86 59.1955 100.914 59.1716C100.968 59.1477 101.025 59.1346 101.084 59.133C101.143 59.1314 101.201 59.1414 101.256 59.1623C101.311 59.1833 101.361 59.2148 101.403 59.2552C101.446 59.2955 101.48 59.3438 101.504 59.3974C101.528 59.451 101.541 59.5087 101.543 59.5674C101.58 60.7724 101.653 62.0279 101.729 63.2797C101.87 65.6505 102.01 68.0064 101.898 70.2502C101.793 72.2773 101.576 74.2204 101.361 76.1559C101.072 78.7472 100.782 81.3255 100.782 83.9971C100.784 84.0392 100.78 84.0813 100.771 84.1223C98.6299 93.3573 93.9667 98.9173 88.5636 101.434C85.6946 102.768 82.5142 103.288 79.3697 102.938C76.2195 102.579 73.2077 101.444 70.6037 99.6347C65.3799 96.0401 61.5182 89.7627 61.1763 81.5796C61.1716 81.5295 61.1754 81.479 61.1875 81.4301C61.7966 78.9808 62.1328 76.5819 61.9722 74.2746C61.8134 71.9952 61.1651 69.8019 59.8068 67.7318C59.7568 67.6547 59.7338 67.5639 59.7377 67.4721L59.9806 59.8214Z" fill="black"/>
<path d="M60.3573 67.0763C60.4136 67.0976 60.465 67.1301 60.5085 67.1719C60.552 67.2136 60.5865 67.2637 60.6101 67.3191C60.6337 67.3746 60.6458 67.4342 60.6457 67.4944C60.6457 67.5547 60.6334 67.6143 60.6097 67.6697C60.586 67.7251 60.5513 67.7751 60.5077 67.8167C60.4642 67.8583 60.4126 67.8907 60.3562 67.9119C60.2998 67.9331 60.2397 67.9426 60.1795 67.94C60.1194 67.9373 60.0603 67.9225 60.006 67.8965C58.8178 67.3883 57.8724 67.3304 57.1662 67.6106C56.5945 67.8385 56.1667 68.3019 55.8902 68.9259C55.5912 69.5985 55.4642 70.4486 55.509 71.4107C55.6249 73.9086 56.9009 77.0773 59.4044 79.6742C59.4371 79.7083 59.4643 79.7474 59.4848 79.79C59.8528 80.5485 60.1966 80.8979 60.5273 81.0418C60.8411 81.1763 61.2055 81.1352 61.5698 81.0922C61.628 81.0856 61.687 81.0905 61.7434 81.1067C61.7998 81.1229 61.8524 81.15 61.8983 81.1865C61.9442 81.223 61.9824 81.2682 62.0109 81.3195C62.0393 81.3708 62.0573 81.4272 62.0639 81.4855C62.0706 81.5438 62.0656 81.6028 62.0495 81.6591C62.0333 81.7155 62.0062 81.7681 61.9696 81.814C61.9331 81.8599 61.8879 81.8982 61.8366 81.9266C61.7853 81.955 61.7289 81.973 61.6707 81.9797C61.1905 82.0357 60.7085 82.0917 60.176 81.8601C59.6716 81.6415 59.1802 81.18 58.7132 80.2421C56.0845 77.4901 54.743 74.1216 54.6179 71.4481C54.5674 70.3495 54.7187 69.3612 55.0719 68.5653C55.4418 67.7283 56.034 67.1024 56.8393 66.783C57.7566 66.4186 58.9355 66.4654 60.3573 67.0763ZM101.867 71.4985C101.781 71.5739 101.669 71.6134 101.555 71.6089C101.441 71.6043 101.333 71.5561 101.253 71.4742C101.173 71.3922 101.128 71.2828 101.126 71.1685C101.125 71.0541 101.167 70.9436 101.245 70.8596C102.635 69.5032 103.791 69.0287 104.679 69.1875C105.368 69.3108 105.873 69.789 106.185 70.5196C106.465 71.1697 106.588 72.0329 106.551 73.0268C106.427 76.315 104.524 81.1613 100.61 84.2366C100.563 84.2729 100.511 84.2997 100.454 84.3156C100.398 84.3315 100.339 84.3361 100.28 84.3292C100.222 84.3223 100.166 84.3039 100.114 84.2752C100.063 84.2465 100.018 84.2079 99.9819 84.1618C99.9455 84.1157 99.9187 84.0629 99.9028 84.0064C99.8869 83.9498 99.8823 83.8908 99.8892 83.8325C99.8961 83.7742 99.9145 83.7178 99.9432 83.6666C99.9719 83.6154 100.01 83.5704 100.057 83.5341C103.748 80.6345 105.544 76.0796 105.658 72.995C105.691 72.1338 105.59 71.3995 105.364 70.8689C105.172 70.4205 104.888 70.1309 104.522 70.0656C103.911 69.9535 103.025 70.3645 101.867 71.4985ZM67.1429 57.1052C67.1651 57.051 67.1978 57.0017 67.239 56.9601C67.2803 56.9185 67.3293 56.8854 67.3834 56.8628C67.4374 56.8401 67.4954 56.8284 67.554 56.8281C67.6126 56.8279 67.6706 56.8392 67.7249 56.8614C67.7791 56.8836 67.8284 56.9163 67.87 56.9575C67.9116 56.9988 67.9447 57.0479 67.9673 57.1019C67.9899 57.1559 68.0017 57.2139 68.0019 57.2725C68.0022 57.3311 67.9909 57.3892 67.9687 57.4434L65.8575 62.5625C65.8266 62.6363 65.7766 62.7006 65.7125 62.7485C65.6485 62.7965 65.5727 62.8264 65.4932 62.8353C65.5104 62.8928 65.5158 62.9532 65.509 63.0129C65.5022 63.0725 65.4834 63.1302 65.4537 63.1824C65.424 63.2346 65.3841 63.2803 65.3363 63.3166C65.2885 63.353 65.2338 63.3792 65.1756 63.3939C65.2228 63.4819 65.2392 63.5832 65.2223 63.6816C64.6338 67.0258 64.8879 70.7512 65.1121 74.0319C65.3774 77.8937 65.5997 81.1576 64.3535 82.6896C64.3018 82.7522 64.234 82.7997 64.1575 82.8268C64.0809 82.8539 63.9984 82.8597 63.9188 82.8436C63.8392 82.8275 63.7654 82.79 63.7055 82.7353C63.6455 82.6805 63.6015 82.6105 63.5782 82.5327L61.9715 77.0773C61.949 77.0196 61.9388 76.9579 61.9415 76.8961C61.9441 76.8343 61.9596 76.7737 61.9869 76.7182C62.0143 76.6627 62.0528 76.6135 62.1001 76.5737C62.1475 76.5338 62.2026 76.5043 62.262 76.4869C62.3213 76.4695 62.3837 76.4646 62.445 76.4725C62.5064 76.4805 62.5654 76.5011 62.6183 76.5331C62.6713 76.565 62.7171 76.6077 62.7527 76.6583C62.7883 76.7088 62.813 76.7663 62.8253 76.8269L64.12 81.2137C64.602 79.663 64.4245 77.066 64.2227 74.0899C64.0023 70.8783 63.7538 67.2463 64.2788 63.9002L63.5352 63.6349C63.4383 63.6064 63.3539 63.5458 63.2958 63.4632C63.2378 63.3805 63.2095 63.2805 63.2155 63.1797C63.2216 63.0788 63.2617 62.983 63.3293 62.9079C63.3968 62.8328 63.4879 62.7828 63.5875 62.7661L64.2881 62.6428L63.7351 61.8768C63.6701 61.7957 63.6355 61.6945 63.6371 61.5906C63.6388 61.4867 63.6766 61.3866 63.7441 61.3076C63.8116 61.2286 63.9046 61.1756 64.0069 61.1578C64.1093 61.1399 64.2147 61.1583 64.3049 61.2099L65.2279 61.7498L67.1429 57.1052Z" fill="black"/>
<path d="M56.6981 71.0659C56.6641 71.1149 56.6206 71.1566 56.5702 71.1885C56.5198 71.2205 56.4636 71.242 56.4047 71.2518C56.3459 71.2616 56.2856 71.2595 56.2276 71.2456C56.1696 71.2318 56.1149 71.2064 56.0668 71.1711C56.0188 71.1358 55.9782 71.0912 55.9477 71.0399C55.9172 70.9886 55.8972 70.9318 55.889 70.8727C55.8808 70.8136 55.8845 70.7535 55.9 70.6958C55.9154 70.6382 55.9422 70.5842 55.9789 70.5371C56.8644 69.3358 57.7126 68.8221 58.5216 69.0126C59.3007 69.1938 59.9527 70.0346 60.4721 71.546L60.4814 71.5797C61.3371 74.4157 61.4212 76.0598 61.2026 76.8389C61.0158 77.504 60.6178 77.7338 60.1638 77.6254C59.8238 77.5451 59.4856 77.2182 59.2521 76.7193C58.8355 75.8225 58.6823 74.2438 59.5398 72.5848C59.5914 72.486 59.678 72.41 59.7827 72.3718C59.7321 72.1926 59.6798 72.0138 59.6258 71.8356C59.2147 70.638 58.7776 69.9897 58.318 69.8814C57.892 69.7824 57.3502 70.1803 56.6981 71.0659ZM60.3413 76.596C60.4814 76.1065 60.4553 75.1444 60.0872 73.5488C59.6575 74.7016 59.779 75.7347 60.0629 76.3457C60.1769 76.5904 60.2871 76.738 60.3656 76.7567C60.403 76.7642 60.3152 76.6969 60.3432 76.5979L60.3413 76.596ZM101.715 80.5643C101.645 80.6601 101.54 80.7244 101.423 80.743C101.306 80.7616 101.187 80.7329 101.091 80.6633C100.995 80.5937 100.93 80.4888 100.912 80.3718C100.893 80.2548 100.922 80.1352 100.992 80.0393C101.66 79.1219 101.944 77.3919 102.178 75.9757C102.393 74.6679 102.57 73.5937 103.099 73.3228C103.594 73.0687 104.127 73.4199 104.775 74.6866C104.802 74.7388 104.818 74.7956 104.822 74.854C104.827 74.9123 104.82 74.971 104.802 75.0267C104.784 75.0824 104.755 75.134 104.717 75.1786C104.679 75.2231 104.633 75.2597 104.581 75.2863C104.528 75.313 104.472 75.3291 104.413 75.3337C104.355 75.3383 104.296 75.3314 104.24 75.3134C104.185 75.2954 104.133 75.2665 104.089 75.2285C104.044 75.1906 104.007 75.1442 103.981 75.092C103.626 74.397 103.518 74.1093 103.504 74.1168C103.379 74.1803 103.235 75.0547 103.06 76.1177C102.809 77.6311 102.505 79.4769 101.715 80.5643ZM60.1937 66.9127C60.0839 66.8963 59.9841 66.8398 59.9136 66.754C59.843 66.6683 59.8068 66.5594 59.8119 66.4485C59.8171 66.3376 59.8631 66.2326 59.9413 66.1537C60.0194 66.0748 60.124 66.0277 60.2348 66.0215L68.5917 66.4138C68.7063 66.4243 68.8124 66.4787 68.8879 66.5655C68.9634 66.6524 69.0025 66.765 68.997 66.88C68.9914 66.9949 68.9417 67.1033 68.8582 67.1825C68.7747 67.2617 68.6638 67.3056 68.5487 67.305L60.1937 66.9127ZM81.7856 69.3452C81.674 69.3593 81.5611 69.3309 81.4694 69.2657C81.3778 69.2005 81.314 69.1032 81.2907 68.9931C81.2674 68.8831 81.2863 68.7683 81.3437 68.6715C81.4012 68.5748 81.4928 68.5031 81.6006 68.4708C82.502 68.2744 83.4282 68.217 84.347 68.3008C85.3448 68.4022 86.3249 68.6353 87.2615 68.9939C87.3166 69.0141 87.3672 69.0448 87.4104 69.0845C87.4536 69.1242 87.4885 69.1719 87.5132 69.2251C87.538 69.2783 87.552 69.3358 87.5545 69.3944C87.557 69.453 87.5479 69.5115 87.5278 69.5666C87.5076 69.6217 87.4769 69.6722 87.4372 69.7154C87.3975 69.7586 87.3498 69.7936 87.2966 69.8183C87.2434 69.843 87.1859 69.857 87.1273 69.8595C87.0687 69.862 87.0102 69.8529 86.9551 69.8328C86.0907 69.5003 85.1861 69.2835 84.2648 69.1882C83.4352 69.1142 82.5992 69.1671 81.7856 69.3452Z" fill="black"/>
<path d="M80.3613 66.4153C81.0003 66.901 81.5253 67.4877 81.8859 68.1621C82.2816 68.8978 82.4653 69.7289 82.4164 70.5629C82.338 72.2985 81.4375 74.0977 80.0381 75.4578C78.6369 76.8179 76.7312 77.7483 74.6369 77.7483C74.5491 77.7483 74.4426 77.7465 74.3174 77.7409C72.139 77.6418 70.4444 77.2514 69.2207 76.2593C67.9839 75.2542 67.2646 73.6717 67.0628 71.2037C66.9302 69.5521 67.2497 68.2649 67.8886 67.2784C68.6172 66.1537 69.742 65.44 71.0722 65.0346C71.1207 65.0205 71.1711 65.0141 71.2216 65.0159C72.6584 65.0906 74.0969 65.2121 75.5131 65.4512C76.8807 65.681 78.2315 66.0192 79.5374 66.5274C79.6411 66.484 79.7416 66.4334 79.8382 66.376C79.9184 66.3265 80.0122 66.3037 80.1061 66.3107C80.2001 66.3178 80.2894 66.3544 80.3613 66.4153ZM81.0993 68.5825C80.8268 68.086 80.4615 67.6464 80.0232 67.2878C79.9218 67.3359 79.8183 67.3796 79.713 67.4185C79.6592 67.442 79.6012 67.4544 79.5425 67.4551C79.4837 67.4557 79.4255 67.4446 79.3711 67.4223C78.0792 66.9151 76.7362 66.5493 75.3655 66.3312C74.0044 66.1138 72.6322 65.9735 71.2553 65.9108C70.153 66.2621 69.2263 66.8524 68.6359 67.7642C68.1035 68.5862 67.8382 69.6885 67.9559 71.1346C68.1334 73.3354 68.7424 74.7217 69.7831 75.5662C70.8349 76.42 72.3632 76.7581 74.3548 76.8497C74.4295 76.8534 74.5229 76.8534 74.635 76.8534C76.4828 76.8534 78.1698 76.0276 79.4141 74.8188C80.6584 73.6119 81.4561 72.0314 81.5253 70.5255C81.529 70.4751 81.529 70.4059 81.529 70.3163C81.533 69.7109 81.3852 69.1161 81.0993 68.5825ZM89.5608 68.1005C88.7892 68.5134 88.1409 69.0384 87.6869 69.6698C87.1787 70.3597 86.9288 71.206 86.9807 72.0612C87.0498 73.5652 87.8476 75.1439 89.0919 76.3527C90.3361 77.5615 92.0251 78.3892 93.8709 78.3892C93.983 78.3892 94.0765 78.3854 94.1512 78.3835C96.1428 78.292 97.671 77.9538 98.7229 77.1C99.7635 76.2574 100.373 74.8712 100.552 72.6684C100.608 71.9772 100.576 71.3644 100.47 70.8207C100.371 70.3219 100.208 69.8866 99.9933 69.5036L98.7733 69.1093C98.7575 69.1054 98.7424 69.0991 98.7285 69.0907C97.4936 68.6049 96.1353 68.149 94.7229 67.9566C93.3291 67.766 91.8756 67.8296 90.4314 68.3714C90.3713 68.3932 90.3072 68.4021 90.2434 68.3972C90.1796 68.3924 90.1176 68.374 90.0615 68.3433C89.9774 68.3004 89.8821 68.2574 89.8037 68.22C89.721 68.1838 89.6399 68.1439 89.5608 68.1005ZM86.9639 69.1467C87.5599 68.3209 88.4174 67.6577 89.4244 67.1663C89.5159 67.1215 89.62 67.1095 89.7193 67.1323C89.8187 67.1551 89.9071 67.2113 89.9699 67.2915C89.9961 67.3251 90.0578 67.355 90.1755 67.4092L90.3025 67.469C91.842 66.9328 93.3758 66.8711 94.8425 67.0729C96.339 67.2784 97.7626 67.7511 99.0536 68.263L100.429 68.7058C100.53 68.7383 100.616 68.8059 100.672 68.8964C100.984 69.4027 101.213 69.9856 101.346 70.6507C101.469 71.271 101.505 71.9641 101.443 72.7376C101.243 75.2056 100.524 76.7899 99.2871 77.7913C98.0634 78.7852 96.367 79.1738 94.1904 79.2747C94.084 79.2795 93.9775 79.282 93.8709 79.2822C91.7766 79.2822 89.8691 78.3518 88.4697 76.9917C87.0685 75.6316 86.168 73.8343 86.0895 72.0967C86.0283 71.041 86.3375 69.9988 86.9639 69.1467Z" fill="black"/>
<path d="M98.7862 67.9128C98.0719 67.2339 97.1821 66.768 96.2173 66.5676C94.76 66.2425 93.1159 66.3938 91.5017 66.7245C91.0104 66.8254 90.5339 67.0048 90.2724 67.2047L90.2388 67.2327C90.2705 67.2514 90.3097 67.2719 90.3621 67.2944C92.1188 66.9033 93.9336 66.8475 95.711 67.1299C96.7983 67.2981 97.8277 67.5746 98.7862 67.9128ZM96.4097 65.6988C98.0445 66.0631 99.4887 66.9525 100.514 68.6881C100.569 68.7686 100.595 68.8645 100.59 68.9614C100.585 69.0583 100.549 69.1509 100.487 69.2255C100.425 69.3 100.34 69.3524 100.246 69.3747C100.151 69.3971 100.052 69.3882 99.9632 69.3495C98.5665 68.7086 97.0897 68.2592 95.5727 68.0136C93.8684 67.7422 92.1276 67.8025 90.4461 68.1911C90.3552 68.2172 90.2582 68.2132 90.1696 68.1799C89.8146 68.0491 89.583 67.8866 89.4485 67.7072C89.3671 67.608 89.3139 67.4886 89.2945 67.3618C89.2752 67.2349 89.2902 67.1051 89.3382 66.9861C89.4209 66.7911 89.5561 66.623 89.7287 66.5003C90.093 66.2163 90.7114 65.9772 91.3224 65.852C93.0449 65.4971 94.8105 65.342 96.4097 65.6988ZM69.7044 64.9889C71.255 64.3443 72.7833 63.9389 74.2873 63.8193C75.7935 63.6892 77.3103 63.877 78.7394 64.3705C79.2681 64.5517 79.9818 64.8749 80.4283 65.2579C80.6476 65.4294 80.8129 65.6603 80.9048 65.923C80.9542 66.0775 80.9609 66.2424 80.924 66.4003C80.8872 66.5582 80.8082 66.7032 80.6955 66.8198C80.5049 67.0365 80.1836 67.242 79.6922 67.4233C79.5886 67.4627 79.474 67.4621 79.3709 67.4214C77.8763 66.8198 76.3125 66.4574 74.7188 66.2294C73.1084 65.9996 71.4755 65.9062 69.8613 65.8464C69.7596 65.8432 69.662 65.8052 69.585 65.7388C69.5079 65.6723 69.4559 65.5814 69.4378 65.4813C69.4196 65.3811 69.4364 65.2778 69.4852 65.1885C69.5341 65.0993 69.6121 65.0294 69.7062 64.9907L69.7044 64.9889ZM74.3564 64.7086C73.6364 64.7688 72.9231 64.892 72.2247 65.0767C73.1028 65.1365 73.9771 65.2205 74.8459 65.3457C76.4433 65.5737 78.0201 65.9361 79.5372 66.5284C79.7181 66.4647 79.8831 66.3627 80.0211 66.2294C80.0435 66.2033 80.0528 66.1865 80.0491 66.179C80.0041 66.0824 79.9353 65.9988 79.8492 65.9361C79.4942 65.6334 78.8982 65.3681 78.4498 65.2131C77.1363 64.7607 75.7405 64.5888 74.3564 64.7086ZM85.8333 68.8731C85.9015 68.7776 86.0045 68.7129 86.12 68.6927C86.2355 68.6726 86.3543 68.6987 86.4508 68.7655C86.5472 68.8322 86.6135 68.9342 86.6353 69.0494C86.6572 69.1646 86.6328 69.2838 86.5676 69.3812C84.7049 72.0697 86.1883 75.1374 87.4139 77.6746C88.2546 79.4121 88.9833 80.9217 88.5834 82.1024C88.5087 82.3173 88.3779 82.534 88.2042 82.7376C87.9239 83.059 87.5204 83.3505 87.0552 83.5149C86.7073 83.642 86.3345 83.6859 85.9666 83.643C85.5987 83.6002 85.2459 83.4719 84.9365 83.2682L84.9179 83.2851C84.4396 83.627 83.8156 83.7746 83.2121 83.7484C82.6068 83.7204 82.0089 83.513 81.596 83.1505L81.5456 83.102C80.7578 83.2751 79.9383 83.2384 79.1691 82.9955C78.6911 82.8528 78.2567 82.5919 77.9062 82.2369C77.7254 82.0495 77.5841 81.8279 77.4904 81.585C77.3967 81.3421 77.3526 81.0829 77.3606 80.8227C77.3718 80.2491 77.611 79.5821 78.1715 78.8273C78.245 78.7415 78.3483 78.6868 78.4605 78.6742C78.5728 78.6616 78.6857 78.692 78.7764 78.7593C78.8672 78.8266 78.929 78.9257 78.9495 79.0368C78.9701 79.1479 78.9477 79.2626 78.887 79.3579C78.448 79.9539 78.2593 80.4434 78.2518 80.8395C78.2462 81.1571 78.3601 81.4186 78.5563 81.6242C78.773 81.8558 79.0869 82.0296 79.4456 82.1473C80.1294 82.3696 80.944 82.3733 81.5531 82.1716C81.6432 82.1423 81.7402 82.1425 81.8303 82.172C81.9203 82.2016 81.9985 82.259 82.0538 82.336C82.0911 82.3883 82.136 82.4369 82.1883 82.4817C82.4424 82.7096 82.8366 82.8367 83.2495 82.8554C83.668 82.874 84.0902 82.7806 84.3947 82.5602C84.458 82.5156 84.5163 82.4642 84.5685 82.407L84.5741 82.3995C84.6519 82.3105 84.7618 82.2559 84.8797 82.2475C84.9976 82.2391 85.114 82.2776 85.2037 82.3547C85.3905 82.5172 85.5811 82.6237 85.7698 82.6891C86.0916 82.7957 86.4401 82.7898 86.7581 82.6723C87.0551 82.5672 87.3206 82.3885 87.5297 82.1529C87.6186 82.0545 87.6883 81.9405 87.7352 81.8166C88.0211 80.9796 87.3653 79.6232 86.6105 78.0613C85.2822 75.3149 83.6736 71.9894 85.8333 68.8731Z" fill="black"/>
<path d="M82.0225 78.4686C81.968 78.4897 81.9099 78.4998 81.8515 78.4985C81.7931 78.4971 81.7356 78.4843 81.6821 78.4607C81.6287 78.4371 81.5804 78.4032 81.5401 78.361C81.4997 78.3187 81.4681 78.269 81.447 78.2145C81.4259 78.16 81.4158 78.1019 81.4171 78.0435C81.4185 77.9851 81.4313 77.9276 81.4549 77.8742C81.4785 77.8207 81.5124 77.7725 81.5546 77.7321C81.5969 77.6918 81.6466 77.6602 81.7011 77.6391C82.284 77.4111 82.8632 77.2841 83.4386 77.3233C84.0327 77.3663 84.61 77.5849 85.1612 78.052C85.2461 78.1298 85.2976 78.2375 85.3049 78.3525C85.3122 78.4675 85.2748 78.5809 85.2005 78.6689C85.1262 78.757 85.0208 78.8129 84.9062 78.825C84.7916 78.8371 84.6768 78.8045 84.5858 78.7339C84.2498 78.4331 83.8246 78.2506 83.3751 78.2145C82.9435 78.1846 82.4877 78.2892 82.0225 78.4686ZM97.9328 52.7198C97.8752 52.709 97.8202 52.6869 97.7711 52.6549C97.7219 52.6229 97.6796 52.5815 97.6465 52.5331C97.6133 52.4847 97.59 52.4302 97.5779 52.3728C97.5659 52.3154 97.5652 52.2562 97.576 52.1985C97.5868 52.1409 97.6088 52.0859 97.6409 52.0368C97.6729 51.9876 97.7143 51.9453 97.7627 51.9121C97.8111 51.879 97.8656 51.8557 97.923 51.8436C97.9804 51.8316 98.0396 51.8309 98.0972 51.8417C100.13 52.2266 102.002 52.6824 103.689 53.3027C105.395 53.9286 106.919 54.7301 108.238 55.7987C108.321 55.8759 108.372 55.9817 108.38 56.0948C108.388 56.2079 108.352 56.3197 108.281 56.4077C108.209 56.4956 108.107 56.553 107.995 56.5683C107.882 56.5836 107.768 56.5556 107.676 56.49C106.443 55.4905 105.004 54.7357 103.383 54.1397C101.742 53.5362 99.917 53.0934 97.9328 52.7198ZM97.0585 31.7557C97.0558 31.6972 97.0646 31.6387 97.0845 31.5836C97.1044 31.5285 97.135 31.4779 97.1744 31.4346C97.2139 31.3913 97.2615 31.3562 97.3146 31.3313C97.3676 31.3064 97.425 31.2922 97.4835 31.2895C97.542 31.2868 97.6005 31.2957 97.6556 31.3156C97.7107 31.3355 97.7613 31.366 97.8046 31.4055C97.8479 31.445 97.883 31.4926 97.9079 31.5456C97.9328 31.5986 97.947 31.6561 97.9496 31.7146L98.4989 42.6403C98.5044 42.7004 98.4977 42.7609 98.4792 42.8182C98.4607 42.8756 98.4308 42.9286 98.3913 42.974C98.3517 43.0195 98.3034 43.0565 98.2492 43.0828C98.1949 43.1091 98.136 43.1242 98.0758 43.1271C98.0156 43.13 97.9554 43.1207 97.8989 43.0997C97.8424 43.0788 97.7908 43.0466 97.747 43.0051C97.7033 42.9636 97.6684 42.9138 97.6445 42.8585C97.6206 42.8032 97.6081 42.7436 97.6078 42.6833L97.0585 31.7557ZM97.8357 45.6801C97.8304 45.6205 97.8372 45.5604 97.8556 45.5035C97.874 45.4466 97.9036 45.3939 97.9428 45.3487C97.9819 45.3035 98.0297 45.2665 98.0834 45.2401C98.1371 45.2137 98.1955 45.1984 98.2552 45.195C98.315 45.1916 98.3748 45.2003 98.4311 45.2205C98.4874 45.2406 98.5391 45.2719 98.5831 45.3125C98.6271 45.353 98.6625 45.402 98.6872 45.4564C98.7119 45.5109 98.7254 45.5698 98.7269 45.6296L98.839 47.638C98.8341 47.7493 98.7881 47.8547 98.7098 47.9339C98.6315 48.0131 98.5266 48.0603 98.4154 48.0663C98.3042 48.0724 98.1948 48.0369 98.1083 47.9667C98.0219 47.8965 97.9647 47.7967 97.9478 47.6866L97.8357 45.6782V45.6801Z" fill="black"/>
<path d="M62.5883 45.1927C62.5314 45.2069 62.4722 45.2098 62.4142 45.2011C62.3561 45.1925 62.3004 45.1725 62.25 45.1423C62.1997 45.1121 62.1559 45.0723 62.1209 45.0252C62.086 44.9781 62.0607 44.9245 62.0465 44.8676C62.0322 44.8107 62.0294 44.7515 62.038 44.6935C62.0466 44.6354 62.0666 44.5797 62.0968 44.5294C62.127 44.479 62.1668 44.4352 62.2139 44.4002C62.2611 44.3653 62.3146 44.34 62.3716 44.3258C68.9535 42.663 75.4664 41.8372 81.8952 42.024C88.3296 42.2127 94.6762 43.4197 100.918 45.8241C100.973 45.8454 101.023 45.8772 101.065 45.9177C101.108 45.9582 101.142 46.0068 101.165 46.0604C101.189 46.1141 101.202 46.172 101.203 46.2306C101.205 46.2893 101.194 46.3477 101.173 46.4024C101.152 46.4571 101.12 46.5071 101.08 46.5495C101.039 46.5919 100.991 46.626 100.937 46.6496C100.883 46.6733 100.825 46.6862 100.767 46.6875C100.708 46.6889 100.65 46.6786 100.595 46.6574C94.6131 44.352 88.2812 43.0864 81.8728 42.9152C75.5337 42.7303 69.0974 43.5504 62.5883 45.1927ZM61.6093 64.1185C61.6053 64.0573 61.614 63.9959 61.6347 63.9382C61.6554 63.8805 61.6877 63.8276 61.7296 63.7829C61.7716 63.7381 61.8222 63.7025 61.8785 63.6781C61.9348 63.6537 61.9954 63.6411 62.0567 63.6411C62.1181 63.6411 62.1787 63.6537 62.235 63.6781C62.2913 63.7025 62.3419 63.7381 62.3839 63.7829C62.4258 63.8276 62.4581 63.8805 62.4788 63.9382C62.4995 63.9959 62.5082 64.0573 62.5042 64.1185V65.4057C62.5042 65.5246 62.457 65.6387 62.3729 65.7228C62.2888 65.8069 62.1747 65.8541 62.0558 65.8541C61.9369 65.8541 61.8228 65.8069 61.7388 65.7228C61.6547 65.6387 61.6074 65.5246 61.6074 65.4057V64.1166L61.6093 64.1185ZM62.6144 68.0998C62.6243 67.9862 62.6773 67.8808 62.7624 67.805C62.8476 67.7293 62.9584 67.6889 63.0724 67.6923C63.1863 67.6956 63.2946 67.7424 63.3752 67.823C63.4557 67.9036 63.5024 68.012 63.5056 68.1259L63.4682 69.4151C63.4648 69.5335 63.4144 69.6457 63.3282 69.727C63.242 69.8083 63.1271 69.852 63.0086 69.8485C62.8902 69.845 62.778 69.7947 62.6967 69.7085C62.6154 69.6223 62.5717 69.5073 62.5752 69.3889L62.6144 68.0998ZM79.713 82.6669C79.6995 82.7238 79.675 82.7775 79.6407 82.8249C79.6065 82.8723 79.5632 82.9125 79.5134 82.9433C79.4636 82.974 79.4083 82.9946 79.3505 83.0039C79.2928 83.0132 79.2338 83.011 79.1768 82.9976C79.1199 82.9841 79.0662 82.9595 79.0188 82.9252C78.9714 82.891 78.9312 82.8477 78.9004 82.7979C78.8697 82.7481 78.8491 82.6928 78.8398 82.635C78.8305 82.5773 78.8327 82.5183 78.8462 82.4613C78.9825 81.8934 79.2105 81.488 79.487 81.232C79.7095 81.0187 80.0028 80.895 80.3109 80.8845C80.6099 80.8812 80.9023 80.9728 81.146 81.1461C81.5159 81.3983 81.8597 81.8373 82.1045 82.4296C82.1412 82.5371 82.1356 82.6546 82.0887 82.7581C82.0419 82.8616 81.9573 82.9434 81.8523 82.9868C81.7472 83.0301 81.6296 83.0318 81.5234 82.9914C81.4172 82.9511 81.3303 82.8718 81.2805 82.7696C81.103 82.3418 80.8789 82.041 80.6453 81.8859C80.5559 81.8178 80.4475 81.7793 80.3352 81.7757C80.2431 81.783 80.1568 81.8235 80.0923 81.8897C79.9391 82.0316 79.8046 82.2857 79.713 82.6669ZM85.3254 82.8593C85.2736 82.9574 85.1874 83.0328 85.0832 83.0709C84.9791 83.1091 84.8646 83.1074 84.7617 83.066C84.6588 83.0247 84.5749 82.9467 84.5261 82.8471C84.4774 82.7475 84.4673 82.6334 84.4977 82.5267C84.6864 82.0578 84.9256 81.7308 85.1815 81.5459C85.3771 81.397 85.6234 81.3312 85.8672 81.3628C86.1092 81.4021 86.3292 81.5267 86.4875 81.714C86.7341 81.9887 86.9433 82.4483 87.0666 83.0872C87.0827 83.1467 87.0864 83.2089 87.0774 83.2699C87.0683 83.3308 87.0468 83.3893 87.0142 83.4416C86.9816 83.4939 86.9386 83.5389 86.8878 83.5738C86.837 83.6087 86.7795 83.6328 86.719 83.6445C86.6585 83.6562 86.5962 83.6553 86.5361 83.6419C86.4759 83.6284 86.4192 83.6028 86.3694 83.5664C86.3196 83.5301 86.2779 83.4839 86.2468 83.4307C86.2156 83.3775 86.1958 83.3184 86.1885 83.2572C86.097 82.7864 85.9681 82.4726 85.8224 82.3119C85.785 82.2708 85.7607 82.2502 85.7476 82.2484C85.7401 82.2484 85.7252 82.2558 85.699 82.2745C85.5776 82.3605 85.4506 82.5529 85.3254 82.8593ZM74.8256 85.2657C76.6715 87.7673 79.8756 87.7131 82.6463 87.6645L82.9975 87.6589C83.4104 87.6533 83.827 87.6627 84.2493 87.672C86.0989 87.7131 88.0325 87.7542 89.4749 86.3885C89.5608 86.3072 89.6754 86.2631 89.7937 86.2659C89.912 86.2687 90.0244 86.3181 90.1063 86.4034C90.1754 86.4768 90.2177 86.5712 90.2265 86.6715C90.2353 86.7719 90.2101 86.8722 90.1549 86.9565C89.9606 87.2815 89.7701 87.6066 89.5963 87.9037C87.941 90.7435 87.7953 90.9938 82.7957 91.1059C80.3669 91.1601 78.6761 90.8369 77.331 89.9756C75.9821 89.1125 75.018 87.7393 74.0409 85.6916C73.997 85.5889 73.9931 85.4736 74.0298 85.3681C74.0665 85.2627 74.1412 85.1747 74.2393 85.1214C74.3375 85.0682 74.4519 85.0534 74.5604 85.0801C74.6688 85.1068 74.7634 85.1729 74.8256 85.2657ZM82.6612 88.5557C80.5033 88.5931 78.097 88.6342 76.1315 87.5655C76.6378 88.2755 77.1778 88.821 77.8092 89.2246C78.9937 89.9812 80.5332 90.2652 82.7789 90.2148C86.8536 90.1232 87.3375 89.9383 88.4529 88.0886C87.1171 88.6267 85.6523 88.5931 84.2306 88.5632C83.8158 88.5539 83.4048 88.5445 83.0087 88.5501L82.6612 88.5557ZM75.0105 67.8513C75.9241 67.8513 76.7574 68.154 77.3646 68.6435C77.9998 69.1554 78.3922 69.8691 78.3922 70.665C78.3922 71.4608 77.9998 72.1745 77.3646 72.6864C76.6929 73.2108 75.8626 73.4908 75.0105 73.4805C74.0951 73.4805 73.2618 73.1778 72.6565 72.6864C72.0213 72.1745 71.6289 71.4608 71.6289 70.665C71.6289 69.8691 72.0213 69.1554 72.6565 68.6435C73.2618 68.154 74.0951 67.8513 75.0105 67.8513ZM76.8041 69.3403C76.2909 68.9445 75.6586 68.7343 75.0105 68.7444C74.3025 68.7444 73.6691 68.9723 73.2133 69.3403C72.7854 69.6841 72.522 70.153 72.522 70.6668C72.522 71.1769 72.7854 71.6458 73.2133 71.9933C73.6691 72.3576 74.3025 72.5856 75.0105 72.5856C75.7168 72.5856 76.3501 72.3576 76.8041 71.9914C77.2338 71.6458 77.4954 71.1787 77.4954 70.665C77.4954 70.153 77.2338 69.6841 76.8041 69.3385V69.3403Z" fill="black"/>
<path d="M73.4842 68.5288C73.3793 68.5702 73.2625 68.5706 73.1573 68.5298C73.0521 68.4889 72.9661 68.4099 72.9166 68.3085C72.867 68.2071 72.8576 68.0907 72.8901 67.9826C72.9226 67.8745 72.9947 67.7827 73.0919 67.7254C73.8579 67.3517 74.5978 67.2097 75.3152 67.2751V67.2714C76.0289 67.3368 76.7108 67.6002 77.3628 68.0374C77.4493 68.108 77.5064 68.2083 77.5228 68.3187C77.5393 68.4291 77.514 68.5417 77.4518 68.6344C77.3897 68.7271 77.2952 68.7933 77.1868 68.8201C77.0785 68.8469 76.964 68.8323 76.8659 68.7791C76.385 68.4392 75.8257 68.2271 75.2404 68.1626C74.6327 68.1201 74.025 68.2462 73.4842 68.5269V68.5288ZM75.0704 69.2705C75.4275 69.2688 75.7725 69.4 76.0382 69.6385C76.171 69.7567 76.2775 69.9013 76.3509 70.0632C76.4243 70.2251 76.4629 70.4006 76.4642 70.5783C76.4629 70.7557 76.4244 70.931 76.351 71.0925C76.2776 71.2541 76.171 71.3985 76.0382 71.5162C75.7729 71.7557 75.4278 71.8876 75.0704 71.8861C74.7117 71.8885 74.3651 71.7566 74.0989 71.5162C73.9668 71.3981 73.8609 71.2536 73.7882 71.0921C73.7154 70.9305 73.6774 70.7555 73.6767 70.5783C73.6767 70.2084 73.8392 69.8777 74.1008 69.6385C74.367 69.3995 74.7127 69.2683 75.0704 69.2705ZM75.4385 70.298C75.3368 70.209 75.2056 70.161 75.0704 70.1635C74.935 70.1616 74.8038 70.2102 74.7024 70.2999C74.6623 70.3345 74.6299 70.3772 74.6073 70.4252C74.5848 70.4731 74.5726 70.5253 74.5716 70.5783C74.5724 70.6313 74.5845 70.6835 74.607 70.7315C74.6296 70.7795 74.6621 70.8222 74.7024 70.8567C74.8039 70.946 74.9352 70.994 75.0704 70.9912C75.2057 70.9942 75.3371 70.9462 75.4385 70.8567C75.4786 70.822 75.511 70.7794 75.5335 70.7314C75.556 70.6834 75.5682 70.6313 75.5693 70.5783C75.5685 70.525 75.5564 70.4724 75.5339 70.4241C75.5114 70.3758 75.4788 70.3329 75.4385 70.298Z" fill="black"/>
<path d="M75.0706 69.5477C75.3479 69.5474 75.6155 69.6499 75.8217 69.8354C76.0272 70.0222 76.1561 70.2838 76.1561 70.5771C76.1553 70.717 76.1251 70.8551 76.0675 70.9826C76.0099 71.11 75.9261 71.2239 75.8217 71.3169C75.6158 71.5029 75.348 71.6055 75.0706 71.6046C74.7925 71.6059 74.524 71.5033 74.3177 71.3169C74.214 71.2234 74.1311 71.1091 74.0743 70.9815C74.0176 70.8539 73.9883 70.7158 73.9883 70.5761C73.9883 70.4365 74.0176 70.2984 74.0743 70.1708C74.1311 70.0432 74.214 69.9289 74.3177 69.8354C74.5243 69.6494 74.7926 69.5469 75.0706 69.5477ZM75.2201 70.4967C75.1785 70.461 75.1254 70.4418 75.0706 70.4426C75.0152 70.4413 74.9613 70.4606 74.9193 70.4967C74.9072 70.5066 74.8973 70.5188 74.8903 70.5326C74.8832 70.5464 74.8791 70.5616 74.8782 70.5771C74.8782 70.607 74.895 70.6331 74.9193 70.6574C74.9611 70.6925 75.0142 70.7111 75.0687 70.7097C75.1245 70.712 75.1792 70.6933 75.2219 70.6574C75.2336 70.6474 75.2432 70.6351 75.2499 70.6213C75.2567 70.6075 75.2605 70.5924 75.2612 70.5771C75.2605 70.5617 75.2567 70.5466 75.2499 70.5328C75.2432 70.519 75.2318 70.5067 75.2201 70.4967ZM92.6288 70.2445C91.9226 70.2445 91.2874 70.4725 90.8315 70.8368C90.4055 71.1824 90.1402 71.6532 90.1402 72.1633C90.1402 72.6752 90.4055 73.146 90.8315 73.4897C91.2874 73.8559 91.9226 74.0839 92.6288 74.0839C93.335 74.0839 93.9702 73.8559 94.4242 73.4897C94.8539 73.146 95.1155 72.6752 95.1155 72.1633C95.1155 71.6532 94.8539 71.1824 94.4242 70.8368C93.9103 70.4426 93.2764 70.2339 92.6288 70.2445ZM90.2748 70.1436C90.8801 69.6523 91.7133 69.3496 92.6288 69.3496C93.5443 69.3496 94.3757 69.6523 94.9829 70.1436C95.6181 70.6537 96.0104 71.3692 96.0104 72.1633C96.0104 72.9592 95.6181 73.6728 94.9829 74.1848C94.3757 74.6742 93.5443 74.9769 92.6288 74.9769C91.7133 74.9769 90.8801 74.6742 90.2748 74.1848C89.6395 73.6728 89.2472 72.9592 89.2472 72.1633C89.2472 71.3692 89.6395 70.6537 90.2748 70.1436Z" fill="black"/>
<path d="M94.5452 69.2267C94.6424 69.284 94.7145 69.3759 94.747 69.484C94.7795 69.5921 94.77 69.7084 94.7205 69.8098C94.671 69.9113 94.585 69.9903 94.4798 70.0311C94.3745 70.0719 94.2578 70.0716 94.1528 70.0301C93.6129 69.7489 93.0057 69.6228 92.3985 69.6658C91.8125 69.73 91.2526 69.9421 90.7712 70.2823C90.6731 70.3395 90.557 70.3573 90.4463 70.3319C90.3356 70.3065 90.2388 70.2399 90.1755 70.1456C90.1122 70.0514 90.0871 69.9366 90.1055 69.8245C90.1238 69.7125 90.1842 69.6116 90.2742 69.5425C90.8804 69.117 91.5852 68.8533 92.3219 68.7765C93.0393 68.713 93.7792 68.8549 94.5452 69.2267ZM92.5666 71.6667C92.4315 71.6642 92.3003 71.7122 92.1986 71.8012C92.1585 71.8359 92.1261 71.8785 92.1035 71.9265C92.081 71.9745 92.0688 72.0266 92.0678 72.0796C92.0678 72.1861 92.1182 72.2851 92.1986 72.3599C92.3003 72.4489 92.4315 72.4968 92.5666 72.4944C92.702 72.4963 92.8333 72.4477 92.9347 72.358C92.975 72.3232 93.0076 72.2802 93.0301 72.2319C93.0526 72.1836 93.0647 72.131 93.0655 72.0777C93.0642 72.0251 93.0519 71.9733 93.0293 71.9256C93.0068 71.878 92.9746 71.8356 92.9347 71.8012C92.833 71.7122 92.7018 71.6642 92.5666 71.6667ZM91.5988 71.1399C91.8646 70.9013 92.2095 70.7701 92.5666 70.7718C92.944 70.7718 93.2878 70.9119 93.5381 71.1399C93.7997 71.379 93.9604 71.7116 93.9604 72.0796C93.9596 72.2573 93.9215 72.4327 93.8484 72.5947C93.7753 72.7566 93.669 72.9013 93.5363 73.0194C93.2701 73.2583 92.9244 73.3896 92.5666 73.3874C92.2095 73.3891 91.8646 73.2579 91.5988 73.0194C91.4661 72.9013 91.3598 72.7566 91.2867 72.5947C91.2136 72.4327 91.1755 72.2573 91.1748 72.0796C91.1748 71.7116 91.3354 71.379 91.5988 71.1399Z" fill="black"/>
<path d="M92.5691 71.9457C92.5139 71.9439 92.4601 71.9625 92.4178 71.998C92.4057 72.0078 92.3959 72.02 92.3888 72.0339C92.3817 72.0477 92.3776 72.0628 92.3767 72.0784C92.3776 72.0939 92.3817 72.109 92.3888 72.1228C92.3959 72.1367 92.4057 72.1489 92.4178 72.1587C92.4593 72.1944 92.5125 72.2137 92.5672 72.2129C92.6226 72.2141 92.6766 72.1948 92.7186 72.1587C92.7306 72.1489 92.7405 72.1367 92.7476 72.1228C92.7546 72.109 92.7588 72.0939 92.7597 72.0784C92.7588 72.0628 92.7546 72.0477 92.7476 72.0339C92.7405 72.02 92.7306 72.0078 92.7186 71.998C92.6768 71.963 92.6236 71.9444 92.5691 71.9457ZM91.8162 71.3385C92.0225 71.1521 92.291 71.0495 92.5691 71.0508C92.8587 71.0508 93.1259 71.1592 93.3202 71.3385C93.4238 71.4321 93.5068 71.5463 93.5635 71.6739C93.6202 71.8015 93.6495 71.9396 93.6495 72.0793C93.6495 72.2189 93.6202 72.357 93.5635 72.4846C93.5068 72.6123 93.4238 72.7265 93.3202 72.8201C93.1141 73.0065 92.8461 73.1097 92.5682 73.1097C92.2903 73.1097 92.0223 73.0065 91.8162 72.8201C91.7125 72.7265 91.6296 72.6123 91.5728 72.4846C91.5161 72.357 91.4868 72.2189 91.4868 72.0793C91.4868 71.9396 91.5161 71.8015 91.5728 71.6739C91.6296 71.5463 91.7125 71.4321 91.8162 71.3385ZM64.7409 85.7356C65.0267 85.7356 65.2603 85.4777 65.2603 85.1583C65.2603 84.8407 65.0267 84.581 64.739 84.581C64.4513 84.581 64.2178 84.8407 64.2178 85.1601C64.2178 85.4777 64.4513 85.7356 64.7409 85.7356ZM72.2664 85.4628C72.5541 85.4628 72.7895 85.2031 72.7895 84.8836C72.7895 84.566 72.5541 84.3082 72.2664 84.3082C71.9787 84.3082 71.7451 84.566 71.7451 84.8855C71.7451 85.2031 71.9768 85.4628 72.2664 85.4628ZM74.1029 84.5903C74.3906 84.5903 74.6242 84.3325 74.6242 84.013C74.6242 83.6954 74.3906 83.4338 74.1029 83.4338C73.8152 83.4338 73.5817 83.6954 73.5817 84.013C73.5817 84.3306 73.8152 84.5903 74.1029 84.5903ZM77.4135 85.3806C77.6882 85.4647 78.0301 85.1489 78.1814 84.6706C78.3308 84.1961 78.23 83.7402 77.9572 83.6543C77.6807 83.5683 77.3369 83.8841 77.1875 84.3605C77.038 84.8369 77.1389 85.2947 77.4135 85.3806ZM79.5695 85.8607C79.8442 85.9467 80.1879 85.6309 80.3374 85.1545C80.4869 84.6781 80.386 84.2204 80.1132 84.1344C79.8386 84.0485 79.4948 84.3661 79.3453 84.8425C79.1959 85.3189 79.2949 85.7748 79.5695 85.8607ZM81.6695 86.2251C81.9572 86.2251 82.1945 85.8234 82.1982 85.3245C82.2038 84.8257 81.974 84.4184 81.6863 84.4166C81.3986 84.4128 81.1632 84.8164 81.1576 85.3152C81.1538 85.8159 81.3818 86.2213 81.6695 86.2251ZM83.7638 86.4642C84.0497 86.4679 84.287 86.0644 84.2907 85.5656C84.2963 85.0667 84.0665 84.6594 83.7788 84.6576C83.4911 84.6538 83.2557 85.0574 83.2501 85.5562C83.2463 86.0569 83.4743 86.4623 83.762 86.4661L83.7638 86.4642ZM85.7592 86.1877C86.0338 86.1074 86.144 85.6534 86.0021 85.1732C85.8619 84.6949 85.5238 84.3717 85.2491 84.4521C84.9726 84.5343 84.8624 84.9882 85.0044 85.4665C85.1445 85.9467 85.4827 86.2699 85.7573 86.1877H85.7592ZM87.1978 85.9971C87.4724 85.9168 87.5826 85.4628 87.4406 84.9845C87.3005 84.5044 86.9642 84.1812 86.6877 84.2634C86.4112 84.3437 86.3029 84.7977 86.443 85.2778C86.5831 85.7561 86.9213 86.0775 87.1978 85.9971ZM88.8811 85.7916C89.1576 85.7094 89.2678 85.2554 89.1277 84.7753C88.9857 84.297 88.6494 83.9738 88.3729 84.056C88.0964 84.1363 87.9881 84.5903 88.1282 85.0686C88.2683 85.5487 88.6065 85.872 88.883 85.7897L88.8811 85.7916ZM71.8983 87.7384C72.186 87.7384 72.4214 87.4787 72.4214 87.1592C72.4214 86.8416 72.186 86.5819 71.8983 86.5819C71.6106 86.5819 71.3771 86.8416 71.3771 87.1611C71.3771 87.4787 71.6087 87.7384 71.8983 87.7384ZM72.4084 89.6851C72.6961 89.6851 72.9315 89.4254 72.9315 89.106C72.9315 88.7884 72.6961 88.5287 72.4084 88.5287C72.1206 88.5287 71.8871 88.7884 71.8871 89.1078C71.8871 89.4254 72.1188 89.6851 72.4084 89.6851Z" fill="black"/>
<path d="M71.7282 90.1955C72.014 90.1955 72.2476 89.9377 72.2476 89.6182C72.2476 89.3006 72.014 89.0391 71.7263 89.0391C71.4386 89.0391 71.2051 89.3006 71.2051 89.6182C71.2051 89.9358 71.4386 90.1955 71.7282 90.1955ZM72.2382 91.8266C72.526 91.8266 72.7595 91.565 72.7595 91.2474C72.7595 90.9298 72.526 90.6682 72.2364 90.6682C71.9505 90.6682 71.717 90.9298 71.717 91.2474C71.717 91.565 71.9505 91.8266 72.2382 91.8266Z" fill="black"/>
<path d="M71.6315 91.9383C71.9211 91.9383 72.1547 91.6786 72.1547 91.3591C72.1547 91.0415 71.9211 90.7837 71.6315 90.7837C71.3438 90.7837 71.1103 91.0415 71.1103 91.361C71.1103 91.6786 71.342 91.9383 71.6315 91.9383ZM69.6063 92.581C69.894 92.581 70.1276 92.3231 70.1276 92.0037C70.1276 91.686 69.894 91.4264 69.6063 91.4264C69.3186 91.4264 69.0851 91.686 69.0851 92.0055C69.0851 92.3231 69.3186 92.581 69.6063 92.581ZM68.1864 91.0284C68.4741 91.0284 68.7095 90.7706 68.7095 90.4511C68.7095 90.1335 68.4741 89.8738 68.1864 89.8738C67.8987 89.8738 67.6652 90.1335 67.6652 90.453C67.6652 90.7706 67.8968 91.0284 68.1864 91.0284ZM69.4363 89.3245C69.724 89.3245 69.9576 89.0667 69.9576 88.7472C69.9576 88.4296 69.724 88.1699 69.4363 88.1699C69.1486 88.1699 68.915 88.4277 68.915 88.7491C68.915 89.0667 69.1486 89.3245 69.4363 89.3245ZM66.5759 89.6851C66.8637 89.6851 67.0991 89.4254 67.0991 89.1059C67.0991 88.7883 66.8637 88.5286 66.5759 88.5286C66.2882 88.5286 66.0547 88.7883 66.0547 89.1078C66.0547 89.4254 66.2882 89.6851 66.5778 89.6851H66.5759Z" fill="black"/>
<path d="M67.2875 89.1741C67.5752 89.1741 67.8087 88.9163 67.8087 88.5968C67.8087 88.2792 67.5752 88.0195 67.2856 88.0195C66.9998 88.0195 66.7662 88.2773 66.7662 88.5987C66.7662 88.9163 66.9998 89.1741 67.2875 89.1741ZM66.0376 88.0569C66.3253 88.0569 66.5588 87.7972 66.5588 87.4777C66.5588 87.1601 66.3253 86.9004 66.0357 86.9004C65.7499 86.9004 65.5163 87.1601 65.5163 87.4796C65.5163 87.7972 65.7499 88.0569 66.0376 88.0569ZM68.3655 95.4609C68.6551 95.4609 68.8886 95.2012 68.8886 94.8817C68.8886 94.5641 68.6551 94.3044 68.3655 94.3044C68.0796 94.3044 67.8461 94.5641 67.8461 94.8836C67.8461 95.2012 68.0796 95.4609 68.3674 95.4609H68.3655ZM65.2791 91.2199C65.5668 91.2199 65.8022 90.9602 65.8022 90.6407C65.8022 90.3231 65.5668 90.0653 65.2791 90.0653C64.9914 90.0653 64.7578 90.3231 64.7578 90.6426C64.7578 90.9602 64.9895 91.2199 65.2791 91.2199ZM71.1679 96.9182C71.4556 96.9182 71.691 96.6585 71.691 96.339C71.691 96.0214 71.4556 95.7636 71.1679 95.7636C70.8802 95.7636 70.6467 96.0214 70.6467 96.3409C70.6467 96.6585 70.8802 96.9182 71.1698 96.9182H71.1679ZM71.7564 94.9695C72.0442 94.9695 72.2777 94.7098 72.2777 94.3904C72.2777 94.0728 72.0442 93.8149 71.7546 93.8149C71.4687 93.8149 71.2352 94.0728 71.2352 94.3922C71.2352 94.7098 71.4687 94.9695 71.7564 94.9695ZM74.3123 95.6122C74.6 95.6122 74.8335 95.3544 74.8335 95.0349C74.8335 94.7173 74.6 94.4576 74.3104 94.4576C74.0227 94.4576 73.791 94.7173 73.791 95.0368C73.791 95.3544 74.0245 95.6122 74.3123 95.6122ZM74.5962 97.9233C74.884 97.9233 75.1175 97.6636 75.1175 97.3441C75.1175 97.0265 74.884 96.7687 74.5962 96.7687C74.3085 96.7687 74.075 97.0265 74.075 97.346C74.075 97.6636 74.3067 97.9233 74.5962 97.9233ZM76.5206 100.543C76.8083 100.543 77.0437 100.285 77.0437 99.9654C77.0437 99.6477 76.8083 99.3881 76.5206 99.3881C76.2329 99.3881 75.9993 99.6459 75.9993 99.9672C75.9993 100.285 76.2329 100.543 76.5224 100.543H76.5206ZM77.0325 98.2876C77.3202 98.2876 77.5537 98.0298 77.5537 97.7103C77.5537 97.3927 77.3202 97.1312 77.0306 97.1312C76.7448 97.1312 76.5112 97.3927 76.5112 97.7103C76.5112 98.0279 76.7448 98.2895 77.0325 98.2895V98.2876ZM83.6986 98.9696C83.9863 98.9696 84.2198 98.7117 84.2198 98.3923C84.2198 98.0746 83.9863 97.815 83.6967 97.815C83.4108 97.815 83.1773 98.0746 83.1773 98.3941C83.1773 98.7117 83.4108 98.9696 83.6986 98.9696ZM86.0264 100.997C86.3142 100.997 86.5496 100.739 86.5496 100.419C86.5496 100.102 86.3142 99.842 86.0264 99.842C85.7387 99.842 85.5052 100.102 85.5052 100.421C85.5052 100.739 85.7369 100.997 86.0264 100.997ZM87.8518 99.0387C88.1395 99.0387 88.373 98.7809 88.373 98.4614C88.373 98.1438 88.1395 97.8841 87.8499 97.8841C87.5641 97.8841 87.3305 98.1438 87.3305 98.4632C87.3305 98.7809 87.5641 99.0406 87.8518 99.0406V99.0387ZM90.0844 97.942C90.3721 97.942 90.6075 97.6823 90.6075 97.3628C90.6075 97.0452 90.3721 96.7855 90.0844 96.7855C89.7967 96.7855 89.5631 97.0452 89.5631 97.3647C89.5631 97.6823 89.7948 97.942 90.0844 97.942ZM91.8462 96.1615C92.1339 96.1615 92.3693 95.9037 92.3693 95.5842C92.3693 95.2666 92.1339 95.0069 91.8462 95.0069C91.5585 95.0069 91.3249 95.2666 91.3249 95.5861C91.3249 95.9037 91.5585 96.1615 91.848 96.1615H91.8462ZM91.962 93.927C92.2479 93.927 92.4814 93.6692 92.4814 93.3497C92.4814 93.0321 92.2479 92.7706 91.9601 92.7706C91.6724 92.7706 91.4389 93.0321 91.4389 93.3497C91.4389 93.6673 91.6724 93.9289 91.962 93.9289V93.927ZM93.778 92.3651C94.0657 92.3651 94.3011 92.1073 94.3011 91.7878C94.3011 91.4702 94.0657 91.2105 93.778 91.2105C93.4903 91.2105 93.2567 91.4684 93.2567 91.7897C93.2567 92.1073 93.4884 92.3651 93.778 92.3651Z" fill="black"/>
<path d="M93.3073 92.6108C93.595 92.6108 93.8285 92.3529 93.8285 92.0316C93.8285 91.714 93.595 91.4562 93.3054 91.4562C93.0196 91.4562 92.786 91.714 92.786 92.0335C92.786 92.3511 93.0196 92.6108 93.3073 92.6108ZM92.6814 91.4748C92.971 91.4748 93.2045 91.2151 93.2045 90.8957C93.2045 90.5781 92.971 90.3184 92.6814 90.3184C92.3937 90.3184 92.1602 90.5781 92.1602 90.8975C92.1602 91.2151 92.3918 91.4748 92.6814 91.4748Z" fill="black"/>
<path d="M93.1183 90.9258C93.406 90.9258 93.6395 90.6661 93.6395 90.3466C93.6395 90.029 93.406 89.7712 93.1164 89.7712C92.8287 89.7712 92.5952 90.029 92.5952 90.3485C92.5952 90.6661 92.8287 90.9258 93.1183 90.9258ZM91.9431 90.0159C92.2308 90.0159 92.4662 89.7581 92.4662 89.4386C92.4662 89.121 92.2308 88.8613 91.9431 88.8613C91.6554 88.8613 91.4219 89.121 91.4219 89.4405C91.4219 89.7581 91.6535 90.0159 91.9431 90.0159Z" fill="black"/>
<path d="M92.2647 89.4876C92.5543 89.4876 92.7878 89.2298 92.7878 88.9103C92.7878 88.5927 92.5543 88.333 92.2647 88.333C91.977 88.333 91.7453 88.5908 91.7453 88.9122C91.7453 89.2298 91.9751 89.4876 92.2647 89.4876ZM91.1101 88.5198C91.3978 88.5198 91.6332 88.262 91.6332 87.9425C91.6332 87.6249 91.3978 87.3652 91.1101 87.3652C90.8224 87.3652 90.5889 87.6249 90.5889 87.9444C90.5889 88.262 90.8224 88.5217 91.112 88.5217L91.1101 88.5198Z" fill="black"/>
<path d="M90.7494 87.707C91.039 87.707 91.2725 87.4491 91.2725 87.1278C91.2725 86.8102 91.039 86.5524 90.7494 86.5524C90.4617 86.5524 90.23 86.8102 90.23 87.1297C90.23 87.4473 90.4617 87.707 90.7494 87.707ZM95.6536 91.5407C95.9414 91.5407 96.173 91.281 96.173 90.9615C96.173 90.6439 95.9395 90.3861 95.6518 90.3861C95.3641 90.3861 95.1305 90.6439 95.1305 90.9634C95.1305 91.281 95.3641 91.5407 95.6536 91.5407ZM97.4509 90.1638C97.7387 90.1638 97.9741 89.9041 97.9741 89.5846C97.9741 89.267 97.7387 89.0073 97.4509 89.0073C97.1632 89.0073 96.9297 89.267 96.9297 89.5865C96.9297 89.9041 97.1632 90.1638 97.4528 90.1638H97.4509ZM78.6279 92.7962C78.5701 92.7723 78.5179 92.7367 78.4747 92.6914C78.4316 92.6462 78.3983 92.5925 78.3771 92.5337C78.3559 92.4748 78.3473 92.4122 78.3517 92.3498C78.3562 92.2875 78.3736 92.2267 78.4029 92.1715C78.4322 92.1163 78.4728 92.0678 78.5219 92.0292C78.5711 91.9905 78.6278 91.9626 78.6884 91.9472C78.749 91.9318 78.8122 91.9292 78.8738 91.9396C78.9355 91.9501 78.9943 91.9733 79.0464 92.0078C80.2907 92.6673 81.4901 92.9457 82.6578 92.9307C83.8274 92.9158 84.9764 92.6056 86.1141 92.09C86.2205 92.0503 86.338 92.0524 86.4429 92.096C86.5478 92.1396 86.6322 92.2213 86.6792 92.3247C86.7261 92.4281 86.7321 92.5454 86.6959 92.6531C86.6597 92.7607 86.584 92.8506 86.4841 92.9046C85.2454 93.465 83.9787 93.8051 82.6671 93.8219C81.3519 93.8406 80.0086 93.5323 78.6279 92.7962ZM79.9282 102.771C79.882 102.807 79.829 102.834 79.7724 102.85C79.7158 102.866 79.6566 102.87 79.5982 102.863C79.5398 102.856 79.4834 102.838 79.4322 102.809C79.3809 102.78 79.3359 102.742 79.2996 102.695C79.2632 102.649 79.2364 102.596 79.2205 102.54C79.2047 102.483 79.2002 102.424 79.2072 102.365C79.2142 102.307 79.2327 102.251 79.2615 102.199C79.2903 102.148 79.329 102.103 79.3752 102.067C79.846 101.697 80.4457 101.133 80.8605 100.462C81.1464 99.9985 81.3444 99.4847 81.3463 98.9541C81.3463 98.8359 81.3932 98.7226 81.4768 98.639C81.5603 98.5554 81.6737 98.5085 81.7919 98.5085C81.91 98.5085 82.0234 98.5554 82.1069 98.639C82.1905 98.7226 82.2374 98.8359 82.2374 98.9541C82.2356 99.6715 81.9815 100.34 81.619 100.931C81.1636 101.635 80.5918 102.258 79.9282 102.771ZM80.4532 82.6663C80.8344 82.6663 81.1408 82.4365 81.1408 82.1544C81.1408 81.8704 80.8344 81.6406 80.4551 81.6406C80.0758 81.6406 79.7676 81.8704 79.7676 82.1544C79.7676 82.4365 80.074 82.6663 80.4532 82.6663Z" fill="black"/>
<path d="M80.4539 81.6349C80.6463 81.6349 80.8182 81.6928 80.9452 81.7862C81.0056 81.8273 81.0555 81.8821 81.0908 81.946C81.1262 82.0099 81.1461 82.0813 81.1489 82.1543C81.146 82.2277 81.1259 82.2995 81.0902 82.3637C81.0545 82.428 81.0042 82.4829 80.9434 82.5242C80.8009 82.6249 80.6302 82.6778 80.4557 82.6755C80.2806 82.6785 80.1091 82.6255 79.9663 82.5242C79.9053 82.483 79.8549 82.4281 79.8192 82.3638C79.7835 82.2995 79.7635 82.2277 79.7607 82.1543C79.7607 82.0104 79.8392 81.8796 79.9663 81.7862C80.1092 81.6851 80.2788 81.6321 80.4539 81.6349ZM80.9359 81.7974C80.7957 81.698 80.6276 81.6456 80.4557 81.6479C80.2833 81.6454 80.1145 81.6977 79.9737 81.7974C79.9153 81.8374 79.8669 81.8905 79.8325 81.9524C79.7982 82.0144 79.7787 82.0835 79.7757 82.1543C79.7757 82.2944 79.8504 82.4214 79.9737 82.513C80.097 82.6064 80.267 82.6624 80.4557 82.6624C80.6426 82.6624 80.8126 82.6064 80.9359 82.513C80.9952 82.4732 81.0442 82.42 81.0789 82.3576C81.1137 82.2953 81.1332 82.2256 81.1358 82.1543C81.1327 82.0833 81.113 82.014 81.0783 81.952C81.0436 81.8901 80.9948 81.8371 80.9359 81.7974ZM85.6907 82.9614C86.07 82.9614 86.3782 82.7316 86.3782 82.4476C86.3782 82.1636 86.07 81.9338 85.6907 81.9338C85.3114 81.9338 85.005 82.1636 85.005 82.4476C85.005 82.7316 85.3114 82.9614 85.6907 82.9614Z" fill="black"/>
<path d="M85.6901 81.9239C85.8654 81.9215 86.037 81.9751 86.1796 82.0771C86.3048 82.1705 86.3851 82.3013 86.3851 82.4452C86.3824 82.5184 86.3624 82.5899 86.3266 82.6539C86.2909 82.7179 86.2405 82.7725 86.1796 82.8132C86.0372 82.9157 85.8655 82.9694 85.6901 82.9664C85.5147 82.9694 85.343 82.9157 85.2006 82.8132C85.1397 82.7725 85.0893 82.7179 85.0536 82.6539C85.0179 82.5899 84.9978 82.5184 84.9951 82.4452C84.9981 82.372 85.0183 82.3006 85.054 82.2366C85.0897 82.1727 85.1399 82.1181 85.2006 82.0771C85.3433 81.9751 85.5148 81.9215 85.6901 81.9239ZM86.1703 82.0883C86.0303 81.9884 85.862 81.936 85.6901 81.9389C85.5176 81.9356 85.3486 81.988 85.2081 82.0883C85.1493 82.128 85.1007 82.181 85.0663 82.243C85.0319 82.305 85.0126 82.3743 85.0101 82.4452C85.0101 82.5853 85.0848 82.7105 85.2081 82.802C85.3314 82.8954 85.5033 82.9515 85.6901 82.9515C85.877 82.9515 86.0488 82.8954 86.1703 82.802C86.2289 82.7626 86.2774 82.7099 86.3118 82.6482C86.3462 82.5866 86.3656 82.5176 86.3683 82.447C86.366 82.3758 86.3469 82.3062 86.3125 82.2438C86.278 82.1815 86.2293 82.1282 86.1703 82.0883Z" fill="black"/>
</svg>
