<svg width="161" height="160" viewBox="0 0 161 160" fill="none" xmlns="http://www.w3.org/2000/svg">
<path d="M98.0379 45.1755L90.4238 33.998L65.3839 53.0515L57.3926 59.1315H58.247L59.5097 58.6864L98.0379 45.1755Z" fill="#111111"/>
<path d="M107.271 48.3369L76.499 59.1313H111.661L110.572 55.6815L108.169 48.0195L107.271 48.3369Z" fill="#111111"/>
<path d="M118.152 59.1308C119.747 59.1308 121.027 60.4963 121.027 62.1707V76.6557L124.227 74.9691L126.777 73.6157V57.308C126.777 54.9623 124.979 53.0508 122.756 53.0508H115.805L117.714 59.1308H118.152Z" fill="#111111"/>
<path d="M121.026 119.923H122.756C124.98 119.923 126.776 118.011 126.776 115.66V105.436L121.026 108.476V119.923Z" fill="#111111"/>
<path d="M95.1633 95.6021C95.1633 87.2239 101.609 80.4022 109.527 80.4022H113.929L115.277 79.6835V69.3548C115.277 67.0068 113.479 65.0976 111.256 65.0976H42.6983C41.4632 64.7596 40.5478 63.5898 40.5478 62.1707C40.5478 60.4963 41.8335 59.1308 43.4228 59.1308H47.5559L49.7512 57.4563L55.5403 53.0508H43.4228C38.6549 53.0508 34.7979 57.139 34.7979 62.1707V116.882C34.7979 121.917 38.6549 126.002 43.4228 126.002H95.1633C95.59 126.002 96.0051 125.955 96.4214 125.883H111.256C113.48 125.883 115.277 123.982 115.277 121.632V110.802H109.527C101.61 110.802 95.1633 103.986 95.1633 95.6021Z" fill="#111111"/>
<path d="M115.277 86.4823H109.527C104.764 86.4823 100.913 90.5729 100.913 95.6023C100.913 100.638 104.766 104.722 109.527 104.722H115.277L126.776 98.6423L126.799 80.4023L115.277 86.4823ZM109.527 98.6423C107.943 98.6423 106.652 97.2767 106.652 95.6023C106.652 93.9279 107.943 92.5623 109.527 92.5623C111.122 92.5623 112.402 93.9279 112.402 95.6023C112.402 97.2767 111.122 98.6423 109.527 98.6423Z" fill="#111111"/>
</svg>
