<svg width="161" height="160" viewBox="0 0 161 160" fill="none" xmlns="http://www.w3.org/2000/svg">
<g clip-path="url(#clip0_1120_4406)">
<path d="M72.073 139.378C66.5009 138.587 57.1817 135.447 51.9849 132.61C36.4271 124.117 25.4533 109.208 21.7085 91.4758C20.5003 85.7548 20.4962 74.2149 21.7005 68.5129C25.8136 49.0374 38.8869 32.7748 56.5419 25.1721C70.4627 19.1773 84.779 18.3879 98.9381 22.8344C109.407 26.122 116.845 30.7915 124.755 39.0404C135.567 50.3164 141.052 64.0951 141.052 79.9753C141.052 95.8555 135.567 109.634 124.755 120.91C116.861 129.143 109.404 133.83 98.9993 137.097C89.93 139.945 81.2458 140.681 72.073 139.378ZM94.6755 136.217C110.851 132.478 125.554 120.791 133.282 105.528C134.183 103.749 135.747 99.8191 136.757 96.7948C138.492 91.5987 138.593 90.6731 138.593 79.9753C138.593 69.2776 138.492 68.3519 136.757 63.1559C131.227 46.6004 120.307 34.2948 104.821 27.1682C91.4864 21.0314 74.5717 20.4728 60.3825 25.7006C43.5852 31.8894 29.6517 47.1225 24.5139 64.9151C23.2889 69.1575 23.0605 71.5238 23.0605 79.9753C23.0605 88.4268 23.2889 90.7932 24.5139 95.0356C27.7982 106.409 35.5651 118.159 44.2977 124.965C59.2649 136.63 76.3639 140.449 94.6755 136.217ZM74.8754 123.999C63.547 122.216 52.1934 115.902 49.6899 109.993C49.223 108.891 47.7993 107.348 46.5261 106.564C43.4986 104.701 41.5478 101.475 41.5478 98.3336C41.5478 96.3579 41.1144 95.4128 39.5217 93.9155C37.6458 92.1519 37.5209 91.7678 37.8358 88.7289C38.0696 86.4723 37.8909 85.0589 37.2639 84.2048C35.051 81.1905 37.2663 74.7823 41.678 71.4367C48.537 66.2351 61.9223 62.0941 85.0624 58.015C89.1703 57.2908 93.4081 56.4405 94.4798 56.1254C98.3746 54.9802 94.0671 54.4223 81.4903 54.4432C70.9037 54.4608 68.3198 54.6705 63.3051 55.9191C55.4466 57.8758 51.432 59.411 44.338 63.1722C39.0554 65.9729 38.4208 66.175 38.8791 64.9104C40.0196 61.7639 53.0062 55.4479 64.1118 52.6385C69.0604 51.3866 71.4039 51.2069 82.1398 51.2554C88.9268 51.2861 95.911 51.6178 97.6603 51.9926C100.635 52.6299 100.945 52.5703 102.449 51.0724C103.333 50.1916 103.801 49.2365 103.49 48.9499C101.987 47.5687 93.7741 46.2039 84.9831 45.8747C77.6581 45.6004 73.9469 45.7755 68.7533 46.6404C60.502 48.0147 52.2921 50.3371 47.9658 52.5207C44.8143 54.1114 44.7388 54.1191 45.4601 52.7767C47.0173 49.8785 59.4135 45.5023 72.007 43.4049C79.9587 42.0805 90.5317 42.3499 97.9353 44.0654C100.55 44.6713 102.841 45.0168 103.025 44.8331C103.608 44.2529 100.232 42.4086 95.3229 40.6246C90.8417 38.9962 89.9623 38.9045 79.2172 38.9449C68.9746 38.9835 67.3219 39.1494 62.4933 40.6243C59.5463 41.5244 57.1351 42.1649 57.1351 42.0476C57.1351 41.5104 62.451 39.2226 66.5603 37.9913C82.6933 33.1573 102.295 36.7504 108.273 45.6377C109.092 46.8545 110.707 48.4118 111.863 49.0984C115.54 51.2828 118.149 54.2119 118.586 56.6455C118.814 57.9135 119.838 59.7842 120.862 60.8026C123.26 63.1884 124.463 66.9648 123.434 68.8799C122.818 70.0261 122.935 70.5981 124.109 72.1796C126.656 75.6105 125.505 79.9248 120.99 83.8733C117.732 86.7226 109.39 90.5501 102.796 92.221C98.306 93.3588 76.3802 97.3969 74.3461 97.4607C73.9889 97.4718 74.1947 97.7703 74.8034 98.1238C75.4121 98.4773 78.9897 99.1093 82.7536 99.5283C94.2222 100.805 107.492 98.6651 119.647 93.5794C122.058 92.5706 124.031 91.9869 124.031 92.2823C124.031 94.1798 114.244 98.341 104.222 100.705C92.131 103.557 81.6361 103.553 70.002 100.692C66.1949 99.7565 64.4645 99.6144 62.7189 100.094C59.2576 101.046 59.3711 101.742 63.222 103.177C78.3683 108.822 95.8356 108.987 114.301 103.66C120.398 101.901 120.987 102.819 115.234 105.116C98.7246 111.708 77.3379 112.139 61.4793 106.2C56.1458 104.202 55.4079 104.069 54.5372 104.948C53.6705 105.822 53.7024 106.033 54.8256 106.863C56.5667 108.148 65.5034 111.525 71.4035 113.127C75.3535 114.199 78.2939 114.461 86.6861 114.485C96.7698 114.513 99.9705 114.1 111.041 111.336C112.621 110.942 112.63 110.959 111.378 111.968C109.817 113.226 101.812 115.803 96.0748 116.894C90.3054 117.991 78.5278 117.998 73.0472 116.908C68.6468 116.033 62.828 114.218 57.4598 112.046L54.8619 110.994L57.1351 112.994C60.8037 116.222 69.4613 120.07 75.473 121.144C81.3944 122.202 90.128 121.892 96.5981 120.394C98.642 119.921 100.4 119.619 100.505 119.724C100.788 120.005 94.2325 122.507 91.2324 123.263C87.435 124.219 78.755 124.61 74.8754 123.999ZM49.9909 101.955C49.9909 101.201 47.3999 99.8068 46.9084 100.296C46.3662 100.836 48.7605 103.298 49.4282 102.887C49.7377 102.696 49.9909 102.277 49.9909 101.955ZM55.8362 97.7857L57.4598 96.8817L54.3826 95.5176C51.9267 94.4289 51.0302 94.3001 49.943 94.8796C48.4448 95.6783 48.5139 95.8316 51.1226 97.4973C53.3188 98.8997 53.784 98.9282 55.8362 97.7857ZM65.853 94.2261C66.7651 93.8807 74.456 92.2914 82.944 90.6943C105.621 86.4272 115.388 83.2233 118.769 78.9416C120.068 77.2962 120.525 75.4053 119.798 74.6809C119.613 74.4967 116.909 75.6067 113.79 77.1475C107.026 80.4887 97.5241 82.9799 79.7836 86.0633C66.5224 88.3682 56.4856 90.7575 56.4856 91.6097C56.4856 92.1295 62.0989 94.7115 63.4252 94.8017C63.8484 94.8305 64.941 94.5715 65.853 94.2261ZM45.4446 91.6041C45.4446 90.8501 42.8536 89.4563 42.3621 89.9459C41.8199 90.486 44.2142 92.9475 44.8819 92.5365C45.1914 92.346 45.4446 91.9264 45.4446 91.6041ZM52.6237 87.0735C56.4792 85.1143 65.8029 82.8235 78.8924 80.6192C85.3222 79.5364 94.2362 77.7637 98.7013 76.68C107.215 74.6136 115.827 71.1813 115.167 70.1176C114.954 69.774 113.814 69.091 112.634 68.5998C110.653 67.7757 109.971 67.8743 103.783 69.8781C100.095 71.0723 94.3012 72.5431 90.9077 73.1465C75.3628 75.9109 64.159 78.234 59.0835 79.7454C53.4699 81.417 46.0941 84.893 46.0941 85.8669C46.0941 86.2923 49.0445 88.2477 49.8544 88.3592C49.9579 88.3733 51.2041 87.7949 52.6237 87.0735ZM49.2514 77.5856C54.7136 75.1712 62.6746 73.0762 75.8355 70.5897C93.2607 67.2975 100.9 65.6695 101.495 65.1211C102.191 64.48 95.3928 63.1559 91.4046 63.1559C85.9956 63.1559 74.1567 65.1145 63.8178 67.7197C48.7521 71.5161 40.8983 75.709 40.8983 79.9557C40.8983 82.5333 41.5016 82.7175 43.7487 80.8258C44.86 79.8902 47.3363 78.4321 49.2514 77.5856ZM118.576 64.8033C118.116 62.9784 116.81 62.6596 115.624 64.0829C114.997 64.8349 115.197 65.1906 116.681 65.9666C118.87 67.1117 119.119 66.9591 118.576 64.8033ZM110.247 61.5019C111.041 60.9481 111.691 60.247 111.691 59.9441C111.691 59.6411 109.935 58.8026 107.789 58.0806L103.886 56.768L101.231 58.27L98.5767 59.772L102.698 61.0722C107.874 62.7049 108.474 62.7391 110.247 61.5019ZM112.99 55.5141C112.99 55.2248 112.124 54.1616 111.065 53.1513C109.435 51.5959 108.984 51.4435 108.121 52.157C106.697 53.3341 107.18 54.2012 109.782 55.1375C112.534 56.1282 112.99 56.1817 112.99 55.5141Z" fill="#00457C"/>
</g>
<defs>
<clipPath id="clip0_1120_4406">
<rect width="120" height="120" fill="white" transform="translate(20.7998 20)"/>
</clipPath>
</defs>
</svg>
