<svg width="161" height="160" viewBox="0 0 161 160" fill="none" xmlns="http://www.w3.org/2000/svg">
<g clip-path="url(#clip0_1120_4411)">
<path d="M37.14 112.505C35.6319 110.655 34.2466 108.708 32.9932 106.678C35.447 110.845 38.4416 114.671 41.8994 118.059C40.1905 116.315 38.6005 114.46 37.14 112.505V112.505Z" stroke="#009FE3" stroke-miterlimit="10"/>
<path d="M41.8994 118.059C38.4416 114.671 35.447 110.845 32.9932 106.678C34.2466 108.708 35.6319 110.655 37.14 112.505C38.6005 114.46 40.1905 116.315 41.8994 118.059V118.059Z" stroke="#009FE3" stroke-miterlimit="10"/>
<path d="M37.14 112.505C35.6319 110.655 34.2466 108.708 32.9932 106.678C35.447 110.845 38.4416 114.671 41.8994 118.059C40.1905 116.315 38.6005 114.46 37.14 112.505V112.505Z" stroke="#009FE3" stroke-miterlimit="10"/>
<path d="M119.572 40.7046C119.33 40.4695 119.083 40.24 118.836 40.0104C108.846 30.6018 95.6776 25.2688 81.9323 25.0656C68.1869 24.8624 54.8652 29.8037 44.5999 38.9129C34.3347 48.0222 27.8729 60.6365 26.4917 74.2627C25.1105 87.889 28.9104 101.536 37.1404 112.506C35.6323 110.655 34.247 108.708 32.9935 106.678C26.2088 95.1614 23.8867 81.57 26.4649 68.4656C29.043 55.3612 36.3434 43.6489 46.9899 35.5361C57.6365 27.4233 70.894 23.4704 84.2636 24.4225C97.6333 25.3745 110.192 31.1657 119.572 40.7046Z" fill="#1F1001"/>
<path d="M127.393 50.6372C125.476 47.5209 123.245 44.6079 120.734 41.9434C123.161 44.56 125.325 47.4061 127.196 50.4412C127.945 51.6504 128.646 52.8913 129.298 54.164C128.706 52.9656 128.071 51.7892 127.393 50.6372Z" fill="#3C3C3B"/>
<path d="M122.291 38.0752C116.847 32.608 110.373 28.2656 103.24 25.2972C96.107 22.3288 88.4561 20.7928 80.726 20.7775C72.996 20.7621 65.339 22.2676 58.1944 25.2077C51.0498 28.1477 44.5582 32.4644 39.0923 37.91C33.6263 43.3555 29.2935 49.8229 26.3424 56.9408C23.3914 64.0587 21.8802 71.6872 21.8956 79.3884C21.911 87.0896 23.4527 94.712 26.4322 101.818C29.4118 108.924 33.7704 115.374 39.2582 120.798C44.7023 126.265 51.1765 130.608 58.3093 133.576C65.442 136.545 73.093 138.081 80.823 138.096C88.553 138.111 96.2101 136.606 103.355 133.666C110.499 130.726 116.991 126.409 122.457 120.963C127.923 115.518 132.256 109.051 135.207 101.933C138.158 94.8147 139.669 87.1862 139.653 79.485C139.638 71.7838 138.096 64.1614 135.117 57.0553C132.137 49.9491 127.779 43.4991 122.291 38.0752ZM80.3952 133.758C66.0539 133.777 52.2776 128.189 42.0284 118.195L41.8935 118.061C36.7953 112.979 32.7517 106.947 29.9934 100.309C27.2351 93.6707 25.8163 86.5562 25.8178 79.3716C25.821 64.8617 31.6097 50.9474 41.9104 40.6895C52.2111 30.4317 66.18 24.6707 80.7443 24.6739C95.3085 24.677 109.275 30.4441 119.571 40.7063L119.712 40.8407C120.066 41.2046 120.42 41.574 120.762 41.9603C123.273 44.6248 125.504 47.5379 127.421 50.6541C128.095 51.7738 128.736 52.9773 129.326 54.1809C133.597 62.5202 135.65 71.8119 135.287 81.1672C134.923 90.5225 132.157 99.6286 127.252 107.614C122.348 115.6 115.468 122.199 107.272 126.779C99.076 131.359 89.8375 133.768 80.4402 133.775L80.3952 133.758Z" fill="#3C3C3B"/>
<path d="M135.304 79.0513C135.308 89.8177 132.123 100.346 126.147 109.317C120.172 118.288 111.672 125.302 101.713 129.481C91.7533 133.661 80.7775 134.819 70.1604 132.811C59.5433 130.803 49.757 125.718 42.0279 118.193L41.893 118.059C36.7949 112.977 32.7512 106.945 29.9929 100.307C27.2347 93.6688 25.8158 86.5542 25.8174 79.3697C25.8205 64.8598 31.6092 50.9454 41.9099 40.6876C52.2106 30.4297 66.1796 24.6687 80.7438 24.6719C95.3081 24.675 109.275 30.4421 119.571 40.7044L119.711 40.8387C120.065 41.2026 120.419 41.5721 120.762 41.9583C123.273 44.6228 125.504 47.5359 127.421 50.6522C128.095 51.7718 128.735 52.9754 129.325 54.179C133.272 61.8793 135.322 70.4052 135.304 79.0513Z" fill="#FFD330"/>
<path d="M47.04 100.224L58.2388 35.6946H79.5013C79.5013 35.6946 96.5326 34.9948 103.146 47.4842C109.76 59.9735 106.338 75.9113 95.8977 89.2907C91.29 95.2023 83.3279 98.1804 83.3279 98.1804L85.8115 83.6982C85.8115 83.6982 95.8583 76.4767 94.6334 58.4004C93.768 45.7264 82.5693 44.1085 68.7858 45.1218L59.1041 100.224H47.04Z" fill="#3C3C3B"/>
<path d="M89.1555 60.5625C89.1555 60.5625 89.5882 65.8135 88.0317 70.0792H82.4127L74.4842 115.676H84.5423C84.5423 115.676 93.4148 116.359 100.939 108.101C108.463 99.8443 109.401 88.5082 107.783 80.8948C109.919 76.2626 111.23 71.2961 111.66 66.2166C111.66 66.2166 118.729 71.6691 119.74 82.6805C120.751 93.692 116.425 107.346 110.845 113.179C105.265 119.012 98.1516 125.254 86.9697 125.254H60.6895L71.877 60.5625H89.1555Z" fill="#3C3C3B"/>
</g>
<defs>
<clipPath id="clip0_1120_4411">
<rect width="118" height="117" fill="white" transform="translate(21.7998 21)"/>
</clipPath>
</defs>
</svg>
