<svg width="161" height="160" viewBox="0 0 161 160" fill="none" xmlns="http://www.w3.org/2000/svg">
<g clip-path="url(#clip0_1120_4415)">
<path d="M140.337 65.4425C140.005 65.1057 139.811 64.7972 139.536 64.3688C139.392 64.1514 139.238 63.9174 139.066 63.6659C139.541 63.1178 139.942 62.4837 140.246 61.7867L141.46 59.0277L138.471 58.5993C137.967 58.5251 137.154 58.3138 136.203 58.0625C134.37 57.5826 132.017 56.9656 129.452 56.6972C130.328 56.3145 131.072 55.6233 131.593 54.6864L132.086 53.801C132.086 53.801 131.954 52.5617 131.473 52.1733C131.656 51.7906 131.799 51.3678 131.897 50.905L132.303 48.9286L130.391 48.2776C130.093 48.1748 129.795 48.1002 129.503 48.0546C129.395 47.6949 129.234 47.3121 129.017 46.9064L127.883 44.833L125.838 46.0268C125.329 46.324 124.899 46.6668 124.55 47.0492C124.247 46.9923 123.92 46.9637 123.577 46.9637C123.577 46.9637 122.409 46.8322 121.12 47.3008L119.471 45.5928L117.518 43.5136C115.691 41.5657 113.218 40.9888 110.698 41.9484C109.736 40.9888 108.236 40.1948 105.906 40.1948C105.115 40.1948 104.422 40.2919 104.016 40.3432C104.016 40.3432 100.809 40.926 99.0052 42.634L96.8179 41.5943C95.3519 43.8964 92.8439 44.6273 92.8439 44.6273C92.672 43.9533 92.3802 43.3249 91.9622 42.7481L92.1051 41.9371C92.1051 41.9141 92.5975 39.1667 94.0978 36.836L96.7091 32.7802L93.0098 33.1972C93.0215 32.8318 93.0042 32.3978 92.9527 31.8836L92.6205 28.7304L89.723 30.0384C89.4023 30.1812 89.1331 30.324 88.8815 30.4555L88.3085 29.2387L86.9801 29.9243C86.8483 29.5988 86.6768 29.2274 86.4421 28.799L84.9129 26L82.7428 28.3364C82.5193 28.5763 82.3305 28.799 82.1702 29.0103L80.8532 27.7024L79.5244 29.016C79.3585 28.8047 79.1752 28.582 78.9518 28.342L76.7589 26L75.2241 28.8103C74.9893 29.2387 74.8232 29.6044 74.6917 29.9299L73.369 29.2446L72.7962 30.4611C72.5443 30.33 72.2753 30.1869 71.9544 30.0384L69.0456 28.7361L68.725 31.9006C68.6735 32.4091 68.6561 32.8375 68.6676 33.2032L64.9627 32.7862L67.5796 36.8416C69.0858 39.1667 69.5665 41.9141 69.5665 41.9371L69.7039 42.7481C69.286 43.3306 68.9883 43.959 68.8222 44.6332C68.8222 44.6332 66.4517 43.6221 64.8652 41.5943L62.6321 42.6566C60.0839 40.9429 58.5035 40.2747 55.755 40.1948C53.4244 40.1319 51.9241 40.9888 50.962 41.9484C48.4366 40.9945 45.9686 41.5713 44.1478 43.5193C44.1478 43.5193 42.9511 44.816 42.1952 45.5984C41.4393 46.3868 40.3226 47.0379 40.3226 47.0379C40.3226 47.0379 38.7365 46.6838 37.1044 47.0552C36.7551 46.6724 36.3201 46.3296 35.8047 46.0268L33.7546 44.833L32.6265 46.918C32.4088 47.3178 32.2543 47.6949 32.1514 48.0546C31.8593 48.1002 31.5615 48.1748 31.2637 48.2776L29.3625 48.9399L29.7577 50.905C29.8549 51.3791 29.9925 51.8019 30.1814 52.1846C30.0726 52.3959 29.9754 52.6186 29.8953 52.8528L29.5745 53.8068L30.0612 54.692C30.5767 55.6233 31.3151 56.3201 32.1972 56.703C29.6259 56.9715 27.2783 57.5882 25.4401 58.0681C24.4953 58.3138 23.6821 58.5307 23.1783 58.605L20.1777 59.0392L20.8591 60.5814L21.4033 61.8097C21.7124 62.495 22.119 63.129 22.5884 63.6776C22.4108 63.9287 21.655 65.1113 21.3171 65.4481L19.7998 66.9846L21.2544 68.5842C21.4373 68.7784 23.0695 70.4863 25.7092 70.492C26.4307 70.492 27.1464 70.3666 27.8565 70.1148C28.5609 71.2119 29.3969 72.3255 30.1587 72.874C28.7556 74.5192 27.1581 75.9473 24.8846 77.0268L22.9837 77.9291L23.8023 80.0943C24.3351 81.4022 25.3714 82.8359 27.3754 83.3844C26.9461 84.6638 26.7401 85.875 26.5568 86.9545C26.1272 89.5193 25.9439 90.5817 23.6821 91.3758L21.6493 92.0841L22.2335 94.1518C22.7029 95.8368 23.4073 96.9508 24.1689 97.6877L22.8174 99.1727C22.8174 99.1727 26.0243 101.572 29.1678 101.863C29.2136 101.869 31.8937 102.04 33.0962 100.509C33.5773 102.246 34.3388 103.845 35.0315 105.296C36.4517 108.278 37.2075 110.043 36.2571 111.654L34.1097 115.287L38.3299 115.11C40.1737 115.036 41.886 114.921 43.369 114.556C43.369 114.636 43.3634 114.71 43.3575 114.784L43.014 117.903L46.7131 117.126C47.1027 117.012 47.4689 116.858 47.8011 116.681C50.0916 119.354 53.9856 121.439 59.2306 121.439H59.5342L53.5045 123.907L57.8967 126.186C60.7883 127.688 64.0006 128.945 67.6656 130.013L67.1558 131.766L69.3605 132.412C70.6317 132.783 75.2299 134 80.8301 134C86.4304 134 91.0229 132.783 92.3 132.412L94.4986 131.766L93.989 130.018C97.6595 128.951 100.872 127.694 103.764 126.191L108.156 123.912L102.12 121.445H102.424C107.669 121.445 111.557 119.36 113.848 116.686C114.18 116.864 114.546 117.017 114.936 117.132L118.635 117.909L118.297 114.796C118.291 114.721 118.286 114.641 118.286 114.561C119.763 114.927 121.481 115.036 123.319 115.116L127.539 115.293L125.404 111.665C124.447 110.055 125.209 108.289 126.623 105.308C127.316 103.857 128.078 102.257 128.559 100.521C129.371 101.138 130.248 101.509 131.118 101.703C131.118 101.703 131.794 101.903 132.441 101.92C134.308 101.977 135.241 101.446 136.524 100.641L138.854 99.1783L137.491 97.6933C138.253 96.9621 138.957 95.8485 139.427 94.1692L140.017 92.0953L137.978 91.387C135.711 90.5932 135.533 89.5305 135.104 86.966C134.92 85.8862 134.72 84.6699 134.285 83.3957C136.289 82.8415 137.32 81.408 137.852 80.1055L138.665 77.9352L136.764 77.0325C134.491 75.9529 132.893 74.5248 131.484 72.8797C132.252 72.3316 133.088 71.2176 133.798 70.1209C134.502 70.3722 135.218 70.4919 135.945 70.4976C138.585 70.4976 140.223 68.79 140.4 68.5956L141.855 66.9961L140.337 65.4425Z" fill="white"/>
<path fill-rule="evenodd" clip-rule="evenodd" d="M62.2192 93.5929V76.1709C62.2192 74.5486 61.7495 72.9262 61.1885 71.4355H74.7425C75.9851 73.1374 78.2412 74.28 80.8295 74.28C83.4063 74.28 85.6624 73.1374 86.9109 71.4355H100.465C99.8924 72.9322 99.4284 74.5486 99.4284 76.1709V93.5929H62.2192ZM80.8239 117.401C78.9286 115.522 77.5771 115.316 72.4693 115.316C66.3649 115.316 62.2192 111.746 62.2192 106.04V94.6153H99.4228V106.04C99.4228 111.746 95.2827 115.316 89.167 115.316C84.0649 115.311 82.7133 115.522 80.8239 117.401Z" fill="#FFDD2D"/>
<path d="M64.3767 119.553V123.031L61.3477 124.248C63.9073 125.408 67.0853 126.562 70.8189 127.413L72.5366 121.832C68.872 121.083 66.318 120.301 64.3767 119.553Z" fill="white"/>
<path d="M80.8255 124.267C77.2467 124.267 74.2348 123.895 73.0322 123.621L71.2168 129.476C74.0685 130.173 77.4069 130.687 80.8255 130.687C84.2328 130.687 87.5713 130.178 90.4343 129.476L88.6135 123.621C87.4108 123.901 84.4104 124.267 80.8255 124.267Z" fill="white"/>
<path d="M97.2692 119.553C95.3225 120.301 92.7744 121.078 89.1094 121.838L90.8331 127.418C94.5724 126.567 97.7389 125.414 100.299 124.254L97.2749 123.037V119.553H97.2692Z" fill="white"/>
<path d="M58.0342 63.4324C62.7755 60.8789 74.3652 55.2581 66.5089 49.1975C65.4383 48.3752 64.2584 47.6327 63.2679 46.7128C62.0423 47.6553 63.7258 49.9974 64.1497 50.854C64.1497 50.854 61.5329 51.117 60.9087 51.117C56.8661 51.0997 52.6285 48.712 54.7759 44.1367C53.1668 44.4679 52.972 46.0102 52.4796 47.3298C51.4487 46.6329 49.6568 45.1362 48.2765 45.3475C49.3991 48.9293 54.1232 52.1567 57.7878 52.8875C54.083 54.8984 47.2116 56.3948 43.598 52.0652C41.0615 56.9605 44.5946 59.0055 48.059 61.5701C34.8714 67.5735 36.8183 74.3084 28.166 79.6092C29.2884 80.1348 34.2931 79.0782 34.7398 79.0152C32.8616 81.4427 31.9853 82.471 31.4358 83.6534C30.9089 84.7617 30.6739 86.0125 30.1531 88.7087C29.7465 90.8394 29.002 92.9643 26.4023 94.3753C27.4216 96.2144 29.6834 94.7749 30.6282 94.5294C30.5023 94.7236 30.1815 96.9398 29.3342 98.0084C33.7777 97.7224 31.7219 88.3775 36.1657 90.6279C37.4196 91.2563 37.7975 92.7301 37.2193 93.9352C34.2988 99.9447 40.9356 105.24 40.5748 110.506C42.2066 110.495 43.8959 110.449 44.9611 108.25C45.5167 109.347 46.3754 110.889 46.8563 112.374L48.1851 110.118C49.0037 113.854 52.4967 117.304 57.2152 117.612C54.9648 114.059 57.6621 109.21 52.1932 104.052C52.8747 103.503 54.4493 102.446 55.0106 101.727C48.2996 102.515 41.2962 97.2197 44.4743 94.7065C46.553 93.0671 47.4634 96.4716 50.6703 95.9001L49.416 94.8208C49.857 94.3865 50.3607 93.8211 50.882 93.3927C49.5191 93.2269 48.0303 92.3586 48.0303 92.3586L48.8434 91.0165C40.9814 91.005 40.7808 85.0074 43.9762 84.7673C45.4763 84.6589 47.4176 87.4176 52.2564 86.8409C51.6378 86.0982 51.3916 84.973 51.0996 84.1448C52.2677 84.0361 53.6421 84.0476 54.7472 83.5107C52.3823 83.2079 51.7868 82.4141 49.817 80.9286L52.1018 80.095C48.7863 78.4437 48.9868 75.5709 48.8836 72.5775C50.6184 73.5713 52.6572 75.1137 54.8332 74.3998C55.3484 74.2283 55.6806 73.9883 55.6919 73.4514C52.5886 72.2121 50.5958 67.4423 58.0342 63.4324ZM52.3708 63.9008C48.2192 68.3277 50.0172 70.9782 50.8536 71.795C49.3072 71.4635 46.9996 69.4986 47.5264 67.5965C47.034 68.1851 46.5302 68.8247 46.0148 69.4815C44.9839 70.8524 44.0622 72.1948 43.2432 73.4971C41.9833 77.233 44.2911 81.0888 48.2192 82.7968C43.8557 82.1567 41.8975 78.284 41.9091 75.8164C39.8246 79.7465 38.8284 83.3336 38.9199 86.3439C38.96 87.4635 39.0574 88.5089 39.2063 89.4971C40.2082 91.3934 41.8173 92.0904 44.686 92.4389C42.0807 92.6043 40.7006 92.4844 39.5669 91.2964C41.3419 98.9106 49.6451 105.502 53.0235 111.146C49.6394 106.759 42.6361 100.225 40.1855 95.5005C39.9965 97.2085 40.4546 101.584 42.5845 104.274C39.4467 101.196 39.2003 96.5346 39.4066 93.804C38.6107 91.8391 38.1067 89.6456 38.0379 87.1494C37.9751 84.8528 38.1354 82.8593 38.4846 81.0715C36.5035 83.882 33.6401 84.9674 32.2316 89.2457C32.5064 83.7276 36.6351 83.6421 39.7271 76.9418C40.924 74.0112 42.665 71.4809 44.5889 68.6132C42.1438 69.4131 40.3114 69.9842 37.4827 73.0743C39.4924 68.3333 51.1052 63.004 56.4251 57.8459C54.8273 58.1831 48.3052 58.3485 45.5968 56.5436C50.504 57.8688 61.4241 56.3548 65.5471 53.5445C62.701 57.629 56.5052 57.863 48.9637 65.9857C49.9258 65.2202 51.2083 64.4492 52.3708 63.9008Z" fill="white"/>
<path d="M131.491 88.7082C130.97 86.0123 130.741 84.7615 130.214 83.6532C129.67 82.4706 128.788 81.4425 126.904 79.015C127.351 79.0775 132.367 80.1346 133.484 79.609C124.831 74.308 126.778 67.5733 113.585 61.5698C117.049 59.0051 120.582 56.9603 118.046 52.0591C114.432 56.3946 107.561 54.8981 103.856 52.8817C107.526 52.1504 112.245 48.9287 113.367 45.3416C111.982 45.1302 110.189 46.6269 109.159 47.3179C108.666 45.9986 108.477 44.4563 106.868 44.1191C109.015 48.7003 104.772 51.088 100.724 51.1051C100.105 51.1051 97.4941 50.8425 97.4941 50.8425C97.9121 49.9857 99.5956 47.6437 98.3645 46.7012C97.3738 47.6264 96.2057 48.3633 95.1292 49.1861C87.267 55.2467 98.8685 60.873 103.61 63.4207C111.037 67.4304 109.061 72.2002 105.952 73.4226C105.963 73.9595 106.295 74.1993 106.816 74.3708C108.981 75.0908 111.031 73.5484 112.755 72.5485C112.657 75.5419 112.863 78.4208 109.548 80.066L111.827 80.8998C109.857 82.385 109.267 83.1788 106.902 83.4817C108.002 84.0186 109.388 84.0073 110.55 84.1158C110.252 84.9442 109.995 86.0694 109.388 86.8119C114.232 87.383 116.179 84.6299 117.668 84.7386C120.852 84.9784 120.663 90.9762 112.795 90.9875L113.608 92.3298C113.608 92.3298 112.119 93.1981 110.75 93.3639C111.272 93.7865 111.781 94.3575 112.222 94.792L110.968 95.8713C114.169 96.4428 115.085 93.0383 117.164 94.6775C120.342 97.1909 113.344 102.486 106.628 101.698C107.194 102.417 108.769 103.48 109.451 104.028C103.976 109.181 106.667 114.036 104.429 117.595C109.136 117.281 112.629 113.831 113.459 110.095L114.787 112.351C115.263 110.866 116.133 109.324 116.677 108.227C117.737 110.426 119.437 110.472 121.075 110.483C120.703 105.216 127.334 99.9213 124.425 93.9122C123.841 92.7125 124.219 91.2388 125.473 90.6048C129.928 88.3543 127.86 97.6995 132.31 97.985C131.457 96.9167 131.142 94.7004 131.021 94.5065C131.961 94.752 134.217 96.1915 135.236 94.3463C132.653 92.9641 131.909 90.839 131.491 88.7082ZM123.171 81.0654C123.52 82.8591 123.698 84.847 123.617 87.1434C123.543 89.6395 123.045 91.8328 122.249 93.7977C122.449 96.5283 122.209 101.189 119.071 104.268C121.195 101.572 121.659 97.2022 121.47 95.4944C119.008 100.218 112.01 106.753 108.62 111.14C112.004 105.496 120.308 98.8989 122.089 91.2903C120.943 92.4729 119.575 92.5983 116.963 92.4327C119.827 92.0841 121.435 91.3875 122.438 89.4908C122.587 88.5084 122.684 87.4572 122.724 86.3381C122.821 83.3276 121.819 79.7402 119.735 75.8103C119.752 78.2781 117.794 82.1508 113.425 82.7905C117.341 81.0769 119.655 77.2211 118.401 73.4913C117.588 72.1887 116.672 70.8405 115.629 69.4757C115.114 68.8187 114.61 68.179 114.112 67.5906C114.638 69.4925 112.331 71.4577 110.785 71.7891C111.627 70.9722 113.419 68.3219 109.273 63.8945C110.436 64.4431 111.718 65.2142 112.686 65.9681C105.145 57.8456 98.9542 57.6171 96.0969 53.5272C100.226 56.3377 111.146 57.8569 116.047 56.526C113.344 58.3312 106.816 58.1654 105.219 57.8283C110.539 62.9865 122.163 68.3158 124.167 73.0572C121.338 69.9669 119.5 69.3956 117.067 68.5957C118.996 71.4689 120.725 73.9937 121.922 76.9243C125.02 83.6246 129.155 83.7044 129.424 89.2282C128.015 84.9611 125.158 83.8759 123.171 81.0654Z" fill="white"/>
<path d="M86.9067 71.4297C85.6641 73.132 83.4024 74.2746 80.831 74.2746C80.2298 74.2746 79.6516 74.206 79.1018 74.1031C79.2562 74.8058 79.6171 75.531 80.3672 76.1538C80.0639 78.193 80.9456 80.101 83.139 80.5978C83.3737 81.6375 84.0149 82.42 85.1029 82.7915L83.5739 84.5508C82.9844 85.2247 82.2169 85.4418 81.5985 85.3617L74.7729 84.5906C75.0705 83.8364 74.2804 82.9625 72.1157 83.334L74.7959 75.8512L73.1636 72.3839L70.0659 75.0227L69.8368 82.8714L68.5024 82.2256C66.7845 81.4831 66.2752 84.6077 67.9127 84.6192L68.5712 84.625C68.5254 84.9448 68.6288 85.2989 68.886 85.413C68.5769 85.5388 68.4855 86.1157 68.8691 86.3213C68.4798 86.5101 68.4223 87.1041 68.7371 87.361C68.3993 87.9379 68.3365 89.1889 69.5333 89.503C70.5182 89.76 71.1365 88.709 71.3371 88.0979L81.9592 91.3766C83.4538 91.8052 84.5303 91.5652 85.7786 90.4741L88.5501 88.0579C88.2008 89.6403 88.7679 91.0623 89.976 91.5366C89.976 91.5366 89.7871 92.9874 89.8615 93.587L93.578 93.5931H99.4299V76.1709C99.4299 74.5484 99.8939 72.9264 100.466 71.4297H93.578H86.9067Z" fill="white"/>
<path d="M70.9994 100.743L71.2057 101C71.4919 101.355 71.6636 101.269 71.9902 101.08L72.4709 100.823C72.7746 100.595 74.7502 101.349 74.859 99.7093C75.0765 100.932 73.6164 103.508 74.4981 104.947L75.6836 106.884L71.8126 106.941C71.389 106.941 71.1655 107.198 71.0511 107.427L70.0376 109.523C69.7742 110.077 69.7911 110.648 70.1233 111.031L70.8103 111.802C70.8103 111.802 71.3716 111.328 71.5548 110.706L71.2513 110.391C70.9994 110.151 70.9994 109.923 71.1369 109.626L71.7611 108.335C72.0014 107.826 72.2479 107.718 72.7974 107.849L75.9298 108.523C76.1589 108.58 76.531 108.689 76.7542 108.306C77.1381 107.626 77.8138 107.581 78.5008 107.689C80.2189 107.946 84.187 108.358 85.6013 106.707C87.2619 108.906 90.5089 108.906 90.297 110.06L89.6098 113.841H90.6405L91.2704 109.974C91.3392 109.523 91.6197 108.906 91.1329 108.557C90.9325 108.403 90.8409 108.323 90.3884 107.547C89.7989 106.518 89.8271 104.976 89.2605 103.645C89.7989 103.011 90.3828 102.794 90.8926 102.914C92.0377 103.194 92.3471 105.165 93.9733 106.77C93.7901 106.056 93.7099 105.273 93.3263 104.593C93.3263 104.593 94.4542 105.467 94.746 106.49C94.9293 107.13 95.1184 107.598 95.6968 107.895C96.0805 108.032 96.5386 107.849 96.9965 107.301C96.9965 107.301 95.9259 105.781 95.1414 104.788C94.0647 103.422 92.6276 102.051 90.6692 102.211C90.0506 102.263 89.4552 102.543 88.8881 102.88C86.6606 101.634 84.9315 102.954 84.2443 102.954L80.0756 102.708C79.2566 102.657 78.6098 101.709 78.6098 101.709C78.5066 98.1901 75.6721 96.7906 74.6929 96.7906C74.6929 96.7906 74.7845 96.1566 74.5268 95.9336L73.6564 97.0246L71.24 96.1449L73.1353 97.6931L71.0795 100.075C70.8679 100.309 70.8965 100.618 70.9994 100.743Z" fill="white"/>
<path d="M68.2688 105.686C67.6845 106.137 67.7134 106.765 68.0628 107.468L68.4121 108.119L69.3225 107.428L69.1165 106.982C68.9675 106.668 68.9732 106.348 69.2309 106.148L70.5364 105.166C70.9029 104.897 71.0174 104.869 71.4069 104.926L74.1613 105.503C74.1613 105.503 73.7433 104.897 73.6057 104.28L71.0117 103.938C70.6452 103.892 70.4218 104.046 70.1013 104.292L68.2688 105.686Z" fill="white"/>
<path d="M85.8809 113.842H86.923L88.5953 109.735C88.6524 109.592 88.7325 109.529 88.7955 109.409C88.0453 109.112 87.6044 108.907 86.9804 108.547C87.3983 109.107 87.7247 109.347 87.5529 109.867L85.8809 113.842Z" fill="white"/>
<path d="M86.7692 58.2912L88.6992 47.2266L81.3867 49.7056V61.1129L86.7692 58.2912ZM82.6234 50.8252L87.4737 49.043C87.4737 49.043 86.5288 49.8085 85.4009 50.5798C84.3986 51.2707 82.6234 52.0076 82.6234 52.0076V50.8252ZM82.6234 53.5043L87.0614 51.9219C87.0614 51.9219 86.5288 52.4817 85.4065 53.253C84.4045 53.9381 82.6293 54.6754 82.6293 54.6754V53.5043H82.6234ZM82.6234 56.3488L86.5288 54.8525C86.5288 54.8525 86.5288 55.3264 85.4009 56.0918C84.3986 56.7832 82.6234 57.5199 82.6234 57.5199V56.3488Z" fill="white"/>
<path d="M73.7577 68.0754L73.9179 68.3324H75.4239L75.4412 68.5952C75.4584 68.8465 75.5157 69.1034 75.6015 69.3665C75.8362 70.0804 76.2999 70.8287 77.0445 71.4342C77.909 72.131 79.1577 72.6337 80.8183 72.6337C84.4201 72.6337 86.0463 70.309 86.2007 68.5952L86.2122 68.3324H87.724L87.8843 68.0754C89.3045 65.8592 91.0395 63.3972 93.055 63.0428L87.5579 59.8613L80.8183 63.5171L74.0725 59.8613L68.5811 63.0428C70.5968 63.3914 72.3318 65.8592 73.7577 68.0754Z" fill="white"/>
<path d="M80.2514 61.1129V49.7056L72.9502 47.2266L74.8685 58.2912L80.2514 61.1129ZM79.0201 57.5314C79.0201 57.5314 77.2451 56.7889 76.2428 56.1033C75.1147 55.3376 75.1147 54.8581 75.1147 54.8581L79.0257 56.3544V57.5314H79.0201ZM79.0201 50.8252V52.0076C79.0201 52.0076 77.2451 51.2707 76.2428 50.5798C75.109 49.8085 74.1583 49.043 74.1583 49.043L79.0201 50.8252ZM79.0201 53.5043V54.6811C79.0201 54.6811 77.2451 53.9442 76.2428 53.2586C75.109 52.4875 74.5823 51.9277 74.5823 51.9277L79.0201 53.5043Z" fill="white"/>
<path d="M80.825 42.3477C76.6507 42.3477 73.5185 43.7129 72.8369 45.3121L80.825 48.4596L88.8017 45.3121C88.126 43.7129 84.9994 42.3477 80.825 42.3477Z" fill="white"/>
<path d="M80.8247 37.7791C83.8998 37.7791 86.9805 38.7103 89.0534 39.9155C89.3912 38.8016 89.7521 38.0078 90.2445 37.0995L88.3549 37.3907L86.8259 34.1348L83.9686 35.6484L80.8247 32.5469L77.6756 35.6484L74.8239 34.1348L73.2834 37.3907L71.3936 37.0995C71.886 38.0078 72.2412 38.8016 72.5903 39.9155C74.6693 38.7103 77.7383 37.7791 80.8247 37.7791Z" fill="white"/>
<path d="M132.934 62.8547C133.965 62.7236 134.795 62.3809 135.809 61.6267C133.627 61.05 129.057 59.3992 125.158 60.1417C123.869 60.3131 123.154 60.8329 123.611 61.1299C125.707 62.5179 128.296 65.7341 130.18 69.4868C131.835 67.4362 131.142 64.7456 130.793 63.9743C134.091 65.9566 134.955 66.9218 136.484 66.5452C135.665 65.294 134.514 64.1687 132.934 62.8547Z" fill="white"/>
<path d="M31.4697 69.4811C33.3536 65.7281 35.9419 62.5122 38.0434 61.1242C38.5128 60.8269 37.7857 60.3072 36.5088 60.1357C32.6034 59.3989 28.0224 61.0441 25.8407 61.6212C26.8656 62.3749 27.6789 62.7178 28.7211 62.8492C27.135 64.1686 25.9839 65.2882 25.165 66.5392C26.7054 66.9163 27.5644 65.9509 30.8571 63.9688C30.5192 64.7458 29.8205 67.4305 31.4697 69.4811Z" fill="white"/>
<path fill-rule="evenodd" clip-rule="evenodd" d="M54.3365 104.314C55.8537 103.114 57.1137 102.514 57.0507 99.6069C54.7716 100.772 48.3066 100.709 45.6038 96.9965C44.8422 95.9399 45.6555 95.4084 46.3939 96.2425C48.2434 98.3332 51.6681 97.3851 52.9163 96.7852C52.7157 96.0654 52.1605 95.1285 51.6965 94.7287C52.1661 94.2717 53.4888 93.5862 53.7578 92.4096C53.0535 92.0269 50.3106 91.7526 50.3106 91.7526C50.7516 91.3301 51.3015 90.7415 50.9694 89.1708C48.1691 90.0276 44.7047 88.8625 43.9203 87.8284C43.1473 86.8116 43.9374 85.8579 44.5903 86.5317C45.9873 87.9942 52.8705 89.6678 55.4301 87.1257C54.4793 86.8632 53.4317 86.0178 53.2428 85.4922C55.6134 85.2524 57.503 83.8585 57.6576 82.122C56.3462 82.122 53.8725 82.025 53.0251 81.3966C54.1589 80.9796 54.8804 80.5683 55.2412 79.3002C50.9062 79.0372 50.5627 75.8271 50.5399 75.2961C53.3629 76.9182 58.3332 76.1984 57.0448 72.1999C54.6971 72.0744 52.332 68.2872 58.7857 64.8087C64.655 61.6382 71.3263 58.2225 70.7363 52.5957C70.3527 48.997 64.4146 46.5408 63.6588 44.7186C61.1793 45.8954 60.681 47.2607 61.7976 49.5512C61.7976 49.5512 56.2717 50.0995 55.8368 46.7065C55.6479 45.1872 56.6671 43.7647 57.7607 42.6738C57.1421 42.6738 52.979 41.5598 51.7251 44.9416C49.3946 43.3537 47.3962 43.4106 45.827 45.09C48.3352 46.5751 49.887 51.6705 54.0329 53.1728C51.0838 54.7665 46.3138 54.0982 43.531 49.197C40.8969 53.1555 39.3795 57.0743 45.0313 61.2611C34.7525 65.9278 34.8269 74.8504 25.8825 79.1002C26.7872 81.5277 28.6998 81.5277 31.1392 81.1511C27.274 86.1607 30.5667 91.4041 24.4453 93.5463C25.0179 95.5914 26.1689 97.2249 28.4251 96.6252C27.7838 97.6249 27.3601 97.602 26.3636 98.6986C29.7077 100.801 33.6761 99.2814 34.5752 92.5352C34.7354 91.3301 36.396 92.0841 35.8234 93.2664C32.0096 101.132 41.6527 107.05 38.2398 112.819C41.2461 112.693 43.5423 112.459 44.7907 111.448C45.4034 112.659 45.7756 113.859 45.6381 115.041C47.2987 114.704 47.9055 113.727 48.0202 112.596C49.1082 115.767 53.002 119.154 59.2324 119.154C55.9282 114.447 59.0033 109.677 54.3365 104.314ZM48.1863 110.112L46.8579 112.368C46.3827 110.883 45.5179 109.34 44.9625 108.244C43.8918 110.443 42.2025 110.489 40.576 110.5C40.9369 105.234 34.3001 99.9384 37.2206 93.9291C37.8048 92.7296 37.4209 91.2558 36.1669 90.6218C31.7178 88.3711 33.779 97.716 29.3355 98.0018C30.1831 96.9337 30.5036 94.7175 30.6298 94.5231C29.6847 94.7688 27.4229 96.2081 26.4036 94.3689C29.0033 92.9582 29.7478 90.8331 30.1544 88.7023C30.6698 86.0061 30.9102 84.7554 31.4313 83.6472C31.9812 82.4646 32.8572 81.4366 34.7354 79.0091C34.2887 79.0716 29.2897 80.1287 28.1617 79.6031C36.8139 74.3019 34.867 67.5674 48.0545 61.5639C44.596 58.9992 41.0628 56.9541 43.5939 52.0588C47.2073 56.3885 54.0731 54.8922 57.7835 52.8814C54.1187 52.1502 49.3946 48.9288 48.2779 45.3413C49.6579 45.13 51.4503 46.6266 52.4753 47.3236C52.9734 45.9983 53.1684 44.4616 54.7772 44.1305C52.6299 48.7059 56.8675 51.0933 60.9103 51.1107C61.5399 51.1107 64.1513 50.8479 64.1513 50.8479C63.7333 49.9911 62.0439 47.6491 63.2693 46.7065C64.26 47.6321 65.4394 48.369 66.5105 49.1914C74.3725 55.2576 62.7769 60.8784 58.0356 63.4317C50.597 67.4418 52.5897 72.2172 55.6935 73.434C55.682 73.9709 55.35 74.2107 54.8346 74.3822C52.6586 75.1017 50.62 73.5537 48.8852 72.5599C48.9879 75.5531 48.7818 78.432 52.1032 80.0769L49.8182 80.9054C51.7825 82.396 52.3839 83.1846 54.7488 83.4931C53.6434 84.03 52.2749 84.0185 51.1009 84.1272C51.3986 84.9552 51.6394 86.0804 52.2575 86.8233C47.419 87.3944 45.4779 84.6411 43.9776 84.7495C40.7823 84.9894 40.9827 90.9872 48.8448 90.9989L48.0319 92.341C48.0319 92.341 49.5205 93.2095 50.8892 93.3749C50.3681 93.7974 49.8642 94.3689 49.4232 94.803L50.6771 95.8827C47.465 96.4538 46.5603 93.0493 44.4757 94.6889C41.2978 97.2021 48.3009 102.498 55.0122 101.709C54.4509 102.429 52.8705 103.491 52.1948 104.04C57.6632 109.192 54.9661 114.047 57.2166 117.606C52.4983 117.298 49.0053 113.842 48.1863 110.112Z" fill="black"/>
<path fill-rule="evenodd" clip-rule="evenodd" d="M39.5571 91.2965C40.6968 92.4789 42.071 92.6045 44.6765 92.4386C41.8076 92.0906 40.1984 91.3937 39.1965 89.4972C39.0533 88.5149 38.9559 87.4637 38.9158 86.3441C38.8243 83.3338 39.8205 79.7464 41.905 75.8163C41.8937 78.2785 43.8463 82.1512 48.2154 82.7967C44.287 81.0831 41.9795 77.2275 43.239 73.4972C44.058 72.1949 44.9801 70.847 46.0108 69.4819C46.5262 68.8249 47.0299 68.1852 47.5224 67.5966C46.9956 69.4988 49.3034 71.4637 50.8493 71.7953C50.0134 70.9781 48.2154 68.3335 52.3668 63.9068C51.2102 64.4549 49.9274 65.226 48.9541 65.9802C56.4897 57.8575 62.6911 57.6289 65.5372 53.5391C61.4143 56.3493 50.4946 57.8687 45.5869 56.5379C48.2955 58.343 54.8179 58.1772 56.4152 57.8404C51.1014 62.9985 39.4886 68.3279 37.4729 73.0688C40.3016 69.9731 42.1341 69.4072 44.5849 68.6134C42.6551 71.4866 40.9202 74.0116 39.7234 76.9415C36.6313 83.6364 32.4969 83.7221 32.2275 89.24C33.6363 84.9617 36.4994 83.8763 38.4808 81.066C38.1313 82.8595 37.9653 84.8474 38.0284 87.1435C38.0972 89.6401 38.601 91.8334 39.3969 93.7983C39.1965 96.5287 39.4369 101.19 42.575 104.269C40.4448 101.578 39.9867 97.2028 40.1757 95.495C42.6321 100.219 49.6356 106.754 53.0197 111.141C49.6356 105.503 41.3382 98.9108 39.5571 91.2965Z" fill="black"/>
<path fill-rule="evenodd" clip-rule="evenodd" d="M117.072 68.6119C119.506 69.4115 121.344 69.977 124.172 73.073C122.168 68.332 110.538 63.0024 105.224 57.8445C106.822 58.1759 113.35 58.3469 116.053 56.542C111.151 57.8731 100.231 56.3537 96.1025 53.543C98.9542 57.633 105.15 57.8616 112.691 65.9841C111.724 65.2304 110.441 64.4593 109.279 63.9107C113.424 68.3376 111.632 70.9881 110.79 71.8049C112.336 71.4737 114.644 69.5087 114.117 67.6066C114.615 68.1947 115.119 68.8349 115.635 69.4914C116.671 70.8623 117.587 72.2049 118.406 73.5072C119.666 77.2429 117.352 81.0985 113.436 82.8065C117.805 82.1668 119.763 78.2882 119.74 75.8263C121.831 79.7564 122.827 83.3433 122.735 86.3538C122.695 87.4734 122.598 88.5188 122.449 89.507C121.441 91.4033 119.832 92.1003 116.969 92.4486C119.58 92.6088 120.949 92.4887 122.094 91.3065C120.313 98.9207 112.016 105.513 108.626 111.156C112.016 106.769 119.008 100.234 121.475 95.5107C121.664 97.2184 121.206 101.594 119.076 104.285C122.214 101.206 122.455 96.5443 122.254 93.8139C123.044 91.849 123.543 89.6557 123.623 87.1591C123.697 84.863 123.52 82.8695 123.176 81.0816C125.163 83.8919 128.02 84.9773 129.435 89.2557C129.166 83.7321 125.031 83.6462 121.933 76.9515C120.731 74.0042 119.001 71.4793 117.072 68.6119Z" fill="black"/>
<path fill-rule="evenodd" clip-rule="evenodd" d="M130.517 81.1391C132.95 81.5218 134.863 81.5221 135.773 79.0943C126.829 74.8443 126.904 65.9278 116.625 61.2552C122.277 57.074 120.754 53.1498 118.125 49.1911C115.348 54.0919 110.561 54.7606 107.623 53.1667C111.758 51.6643 113.321 46.5692 115.829 45.0839C114.26 43.4048 112.256 43.3475 109.925 44.9354C108.666 41.554 104.508 42.6679 103.884 42.6679C104.972 43.7532 106.003 45.1754 105.808 46.7007C105.378 50.0934 99.8527 49.5453 99.8527 49.5453C100.969 47.2545 100.471 45.8893 97.9918 44.7128C97.236 46.535 91.3036 48.9911 90.9141 52.59C90.3187 58.2163 97.0011 61.6323 102.865 64.8023C109.318 68.281 106.953 72.0739 104.611 72.194C103.311 76.1925 108.282 76.912 111.111 75.29C111.099 75.821 110.738 79.0315 106.404 79.2941C106.77 80.5624 107.486 80.9735 108.62 81.3904C107.772 82.0245 105.298 82.1161 103.993 82.1161C104.148 83.8524 106.043 85.2519 108.413 85.4861C108.225 86.0117 107.171 86.857 106.226 87.1201C108.786 89.6617 115.669 87.9879 117.066 86.5258C117.707 85.8515 118.492 86.8057 117.724 87.8225C116.934 88.862 113.476 90.0275 110.67 89.1649C110.349 90.73 110.887 91.3242 111.328 91.7467C111.328 91.7467 108.585 92.0208 107.875 92.4035C108.144 93.5803 109.473 94.26 109.937 94.7226C109.467 95.1226 108.911 96.0595 108.711 96.7791C109.971 97.3846 113.396 98.3271 115.234 96.2366C115.978 95.4082 116.791 95.9338 116.029 96.9904C113.327 100.703 106.862 100.761 104.577 99.601C104.514 102.508 105.774 103.108 107.291 104.308C102.619 109.672 105.705 114.441 102.401 119.137C108.626 119.137 112.519 115.749 113.607 112.579C113.733 113.704 114.329 114.687 115.984 115.024C115.858 113.842 116.224 112.642 116.831 111.431C118.091 112.442 120.387 112.676 123.394 112.802C119.986 107.033 129.629 101.115 125.804 93.2488C125.237 92.0667 126.898 91.3125 127.058 92.518C127.951 99.264 131.926 100.783 135.275 98.6812C134.267 97.5846 133.849 97.6075 133.208 96.6076C135.464 97.2075 136.61 95.574 137.188 93.5287C131.095 91.3924 134.388 86.1487 130.517 81.1391ZM131.032 94.5286C131.152 94.7226 131.467 96.9391 132.321 98.0071C127.871 97.7216 129.933 88.3765 125.484 90.6271C124.229 91.2556 123.857 92.7293 124.436 93.9344C127.344 99.9435 120.714 105.239 121.086 110.505C119.448 110.494 117.747 110.448 116.688 108.249C116.144 109.346 115.268 110.888 114.793 112.373L113.464 110.117C112.64 113.853 109.147 117.303 104.439 117.617C106.678 114.064 103.987 109.209 109.461 104.051C108.774 103.502 107.199 102.44 106.633 101.72C113.35 102.508 120.347 97.2133 117.169 94.6999C115.09 93.0605 114.174 96.465 110.973 95.8937L112.227 94.8142C111.786 94.3801 111.277 93.8147 110.756 93.3861C112.124 93.2205 113.613 92.3522 113.613 92.3522L112.8 91.0099C120.662 90.9984 120.851 85.0006 117.673 84.7607C116.178 84.652 114.231 87.4112 109.393 86.8341C110.006 86.0916 110.257 84.9664 110.555 84.1381C109.387 84.0295 108.007 84.0412 106.907 83.5039C109.272 83.2015 109.868 82.4072 111.832 80.9222L109.553 80.0881C112.869 78.4373 112.657 75.5641 112.76 72.5711C111.03 73.5649 108.98 75.1071 106.822 74.3932C106.306 74.2219 105.968 73.9819 105.957 73.445C109.067 72.2226 111.048 67.453 103.615 63.4429C98.8792 60.8896 87.2781 55.2688 95.1345 49.2082C96.2107 48.3858 97.3791 47.6429 98.3639 46.7233C99.5952 47.6659 97.9117 50.0079 97.4937 50.8647C97.4937 50.8647 100.105 51.1275 100.723 51.1275C104.772 51.1102 109.015 48.7227 106.868 44.1416C108.477 44.4728 108.666 46.0208 109.158 47.3404C110.189 46.6435 111.975 45.1524 113.367 45.3638C112.239 48.9454 107.526 52.1728 103.855 52.9041C107.561 54.9147 114.432 56.4114 118.045 52.0815C120.576 56.9768 117.049 59.0216 113.584 61.5864C126.778 67.5842 124.825 74.3248 133.483 79.6255C132.367 80.1511 127.35 79.0943 126.904 79.0315C128.793 81.4591 129.675 82.4871 130.213 83.6697C130.74 84.7778 130.969 86.023 131.49 88.7248C131.903 90.8555 132.653 92.9806 135.241 94.3914C134.227 96.2137 131.971 94.7741 131.032 94.5286Z" fill="black"/>
<path fill-rule="evenodd" clip-rule="evenodd" d="M68.2099 109.272L70.0938 107.679L69.8077 107.108C69.6014 106.696 69.7102 106.673 69.928 106.514L70.9241 105.777C71.1532 105.588 71.3937 105.611 71.6743 105.68L74.6577 106.377H71.5084C70.7812 106.422 70.5691 106.702 70.3057 107.239L70.0882 107.679L69.2809 109.335C69.0058 109.907 68.8625 110.666 69.5842 111.523L70.1568 112.203L69.0002 114.539H69.9735L70.7751 112.917C70.8383 112.86 72.0238 111.78 72.2755 110.666C71.932 110.386 71.6916 110.192 71.8805 109.804L72.2412 109.027C72.3617 108.77 72.4016 108.667 72.7451 108.73L75.8717 109.404C76.261 109.512 76.8337 109.684 77.2517 109.055C77.6812 108.404 77.7385 108.473 78.7346 108.57L80.3324 108.741C82.5141 108.947 84.6959 108.404 85.5431 107.73C85.841 108.404 86.4309 108.924 86.7056 109.449C86.8087 109.644 86.6372 109.918 86.5052 110.261L84.7129 114.533H87.4788L89.0423 110.638C89.1851 110.267 89.397 109.969 89.5573 109.821L88.6582 114.539H91.344L92.0542 109.872C92.2088 108.833 92.1169 108.501 91.6188 108.073C90.5022 107.13 90.5252 105.154 90.1643 103.955C90.3532 103.846 90.5767 103.789 90.84 103.823C91.4241 103.874 91.8651 105.365 92.5523 106.325C93.9266 108.25 95.7989 110.375 97.9464 107.382C97.7402 107.039 97.5167 106.731 97.2534 106.433L96.6522 105.731C96.303 105.342 94.6425 103.446 93.9494 102.766C92.3746 101.184 89.9583 101.424 88.9962 102.195C86.8144 101.053 84.5127 102.252 83.9688 102.207L80.2124 101.978C80.0404 101.967 79.7827 101.909 79.5994 101.618L80.2981 101.39C79.6452 98.6764 78.0018 96.4086 75.1328 96.0144C75.1328 96.0144 74.9669 95.1578 74.5259 94.992L73.667 95.9975C73.4267 96.0317 73.1631 96.106 72.9455 96.1971L69.2809 94.8379L72.0295 97.6083C72.0295 97.6083 70.6036 99.6245 70.197 100.036C69.928 100.413 69.9505 100.704 70.2541 101.064L70.7869 101.761C71.0615 102.121 71.3651 102.109 71.8061 101.887L72.4073 101.573C72.6706 101.355 73.5524 101.784 73.9304 101.441C73.69 102.23 73.5697 102.989 73.5124 103.589L71.0446 103.292C70.5061 103.218 70.2599 103.292 69.9336 103.549L67.8262 105.165C67.1392 105.691 66.9273 106.599 67.3509 107.484L68.2099 109.272ZM88.5954 109.735L86.9234 113.848H85.881L87.5532 109.867C87.7248 109.353 87.3987 109.113 86.9807 108.553C87.5991 108.901 88.0457 109.13 88.7958 109.415C88.7326 109.53 88.6525 109.592 88.5954 109.735ZM72.4702 100.83L71.9949 101.081C71.663 101.27 71.4969 101.355 71.2105 101.001L71.0042 100.739C70.9013 100.613 70.867 100.31 71.0787 100.07L73.1288 97.6882L71.2391 96.1402L73.6442 97.0256L74.5259 95.9289C74.7837 96.146 74.6923 96.7799 74.6923 96.7799C75.6656 96.7799 78.4999 98.1852 78.6089 101.704C78.6089 101.704 79.2501 102.646 80.0691 102.698L84.2434 102.949C84.9363 102.949 86.6656 101.635 88.8872 102.875C89.4485 102.538 90.0497 102.269 90.6683 102.201C92.6267 102.058 94.0695 103.417 95.1406 104.789C95.925 105.782 97.0015 107.302 97.0015 107.302C96.5378 107.85 96.0853 108.033 95.7018 107.896C95.1232 107.599 94.9343 107.136 94.7513 106.491C94.4592 105.468 93.3311 104.594 93.3311 104.594C93.7147 105.28 93.7948 106.057 93.9781 106.771C92.3462 105.16 92.0368 103.195 90.8974 102.921C90.3936 102.795 89.8037 103.012 89.2596 103.64C89.8324 104.971 89.8037 106.514 90.3936 107.547C90.84 108.319 90.9375 108.387 91.1377 108.558C91.6189 108.901 91.3496 109.524 91.2754 109.975L90.657 113.842H89.6148L90.3018 110.061C90.5137 108.907 87.2669 108.907 85.6063 106.708C84.1918 108.358 80.2236 107.947 78.5058 107.69C77.8129 107.587 77.1373 107.633 76.7593 108.313C76.5361 108.696 76.1637 108.581 75.9348 108.524L72.8022 107.85C72.2527 107.725 72.0121 107.833 71.7717 108.336L71.1475 109.627C71.0101 109.929 71.0159 110.152 71.2676 110.398L71.5655 110.712C71.3881 111.329 70.8212 111.803 70.8212 111.803L70.1396 111.038C69.8077 110.649 69.7903 110.09 70.0537 109.541L71.0674 107.428C71.1875 107.193 71.4052 106.942 71.8288 106.942L75.6997 106.885L74.5146 104.96C73.6325 103.515 75.0985 100.939 74.8751 99.7217C74.755 101.35 72.7796 100.607 72.4702 100.83ZM68.2674 105.685L70.0995 104.291C70.426 104.046 70.6436 103.886 71.0159 103.932L73.6043 104.274C73.7471 104.891 74.1594 105.497 74.1594 105.497L71.4052 104.92C71.0159 104.874 70.9013 104.891 70.5348 105.154L69.2292 106.136C68.9715 106.337 68.96 106.656 69.109 106.971L69.3209 107.422L68.4103 108.107L68.0609 107.456C67.7061 106.765 67.6831 106.131 68.2674 105.685Z" fill="black"/>
<path fill-rule="evenodd" clip-rule="evenodd" d="M76.2502 56.0987C77.2523 56.7901 79.0277 57.527 79.0277 57.527V56.35L75.1162 54.8594C75.1162 54.8594 75.1162 55.3388 76.2502 56.0987Z" fill="black"/>
<path fill-rule="evenodd" clip-rule="evenodd" d="M79.0198 54.6808V53.5041L74.582 51.9219C74.582 51.9219 75.1088 52.4817 76.2428 53.2528C77.2448 53.9383 79.0198 54.6808 79.0198 54.6808Z" fill="black"/>
<path fill-rule="evenodd" clip-rule="evenodd" d="M79.021 52.0073V50.8252L74.1592 49.043C74.1592 49.043 75.11 49.8084 76.2438 50.5795C77.2456 51.2705 79.021 52.0073 79.021 52.0073Z" fill="black"/>
<path fill-rule="evenodd" clip-rule="evenodd" d="M92.6777 68.0758H97.6479C97.442 67.356 96.6689 66.6309 95.22 66.6309C93.8459 66.6309 93.0212 67.4188 92.6777 68.0758Z" fill="black"/>
<path fill-rule="evenodd" clip-rule="evenodd" d="M87.4794 49.043L82.6289 50.8252V52.0073C82.6289 52.0073 84.4043 51.2705 85.4063 50.5795C86.5343 49.8084 87.4794 49.043 87.4794 49.043Z" fill="black"/>
<path fill-rule="evenodd" clip-rule="evenodd" d="M86.5343 54.8594L82.6289 56.3556V57.5326C82.6289 57.5326 84.4043 56.7901 85.4063 56.1045C86.5343 55.3388 86.5343 54.8594 86.5343 54.8594Z" fill="black"/>
<path fill-rule="evenodd" clip-rule="evenodd" d="M87.0598 51.9219L82.6221 53.5041V54.6808C82.6221 54.6808 84.4029 53.944 85.3993 53.2584C86.5331 52.4817 87.0598 51.9219 87.0598 51.9219Z" fill="black"/>
<path fill-rule="evenodd" clip-rule="evenodd" d="M66.4179 66.6309C64.9692 66.6309 64.1961 67.356 63.9902 68.0758H68.966C68.6112 67.4188 67.7979 66.6309 66.4179 66.6309Z" fill="black"/>
<path fill-rule="evenodd" clip-rule="evenodd" d="M90.697 45.8659C90.697 43.0782 86.0015 40.582 80.8192 40.582C75.637 40.582 70.9415 43.0782 70.9415 45.8659L71.0503 46.5511L73.1119 58.3925L63.3199 64.0874C62.2775 64.6988 60.9721 66.3782 60.806 68.069H62.5927C62.8904 66.3782 64.2244 64.5044 66.7269 64.6189C68.9887 64.7388 70.3288 66.1097 71.6571 68.069L72.0008 68.5832L72.4933 69.3542H58.0918C59.1511 71.4733 60.1531 73.724 60.1531 76.1632V106.032C60.1531 113.715 66.0684 117.376 72.4761 117.376C77.4237 117.376 78.0935 117.153 80.8249 119.878C83.5452 117.153 84.2148 117.376 89.1739 117.376C95.5759 117.376 101.497 113.715 101.497 106.032V76.1688C101.497 73.7296 102.499 71.4789 103.558 69.3599H89.1454L89.6435 68.5888L89.987 68.0747C91.3097 66.1154 92.6554 64.7444 94.9172 64.6245C97.4084 64.5102 98.7537 66.3838 99.046 68.0747H100.827C100.666 66.3838 99.3551 64.6988 98.3188 64.0933L88.5268 58.3981L90.5938 46.5568L90.697 45.8659ZM72.9455 47.2251L80.2523 49.7043V61.1116L74.8699 58.2896L72.9455 47.2251ZM74.7437 71.4278C75.7058 72.7414 77.2632 73.7125 79.107 74.0896C79.2618 74.7806 79.6398 75.5404 80.3726 76.1517C80.0691 78.1909 80.9452 80.093 83.1442 80.5957C83.3732 81.6354 84.0203 82.4177 85.1024 82.7892L83.5734 84.5485C82.9896 85.2226 82.2277 85.4397 81.5981 85.3596L74.7724 84.5885C75.0701 83.8346 74.28 82.9607 72.1209 83.3317L74.8067 75.8489L73.169 72.3816L70.0654 75.0206L69.8364 82.8691L68.5193 82.2238C66.784 81.4813 66.2803 84.6056 67.9296 84.6171L68.5823 84.6227C68.5421 84.9427 68.6396 85.2966 68.8917 85.4055C68.5823 85.5367 68.4906 86.1194 68.8799 86.3251C68.485 86.5078 68.4333 87.102 68.7484 87.359C68.4049 87.9359 68.3532 89.1866 69.55 89.501C70.5292 89.7581 71.1417 88.7072 71.3423 88.0956L81.9587 91.3745C83.4646 91.8029 84.5298 91.5631 85.7783 90.4721L88.5499 88.0558C88.2003 89.638 88.7731 91.0604 89.9814 91.5345C89.9814 91.5345 89.8094 92.957 89.8611 93.5908H62.2204V76.1688C62.2204 74.5466 61.7507 72.9245 61.1899 71.4278H74.7437ZM86.1617 78.0365C85.5779 79.1505 85.635 80.4301 86.322 81.5897L85.8641 82.035C83.8713 81.7895 83.0869 78.8249 83.0869 78.8249C83.0467 79.0934 83.0239 79.3505 83.0298 79.6131C81.8673 79.1847 81.1341 78.1567 81.1916 76.7459C81.6326 76.9914 82.125 77.1626 82.6518 77.2542L82.789 76.3857C81.3974 76.1459 80.5845 75.2778 80.2753 74.2493C80.2067 74.2437 80.1492 74.2268 80.0862 74.2208C80.3325 74.2381 80.5789 74.261 80.8305 74.261C81.6552 74.261 82.4398 74.1353 83.1728 73.9181C83.751 74.7407 84.7761 75.3291 85.807 75.4432C85.6406 76.1288 85.7208 76.9799 86.1617 78.0365ZM89.1109 85.8737C88.9103 86.1424 88.75 86.4506 88.6469 86.7877L87.5361 87.8045C87.7595 86.1822 86.6659 84.2686 85.6693 83.486L86.8489 82.3322L87.0839 82.5723C86.6887 83.606 87.4619 85.6339 89.1109 85.8737ZM83.7454 85.3652L84.6614 84.4686C85.5892 85.2797 86.8148 87.0905 86.431 88.8156L85.4346 89.7296C85.2283 89.9296 85.0166 90.0722 84.7991 90.2034C85.4233 88.6671 84.6271 86.3021 83.7454 85.3652ZM81.7754 86.1251H81.8041C82.1363 86.1766 82.4915 86.1194 82.812 85.988C83.5107 86.9821 84.0546 89.244 83.2187 90.6548C82.7432 90.6665 82.2796 90.5805 81.8443 90.455L81.5006 90.3521C82.2051 89.2611 82.1076 87.3302 81.7754 86.1251ZM79.4679 85.8395L80.7563 85.9995C80.9625 87.0676 80.8249 88.9128 80.1436 89.9638L78.6432 89.5295C79.302 88.6385 79.6112 86.8048 79.4679 85.8395ZM76.7823 85.514L78.3456 85.6967C78.5002 86.5535 78.2079 88.3755 77.6184 89.244L76.0263 88.787C76.662 87.9473 76.8908 86.468 76.7823 85.514ZM70.4547 85.097C69.7276 85.331 69.4069 84.8054 69.4355 84.3602C70.8614 83.8402 71.4969 84.1775 71.9149 84.44C72.2985 84.6799 72.6194 85.3652 73.1344 85.7939C73.0487 86.3764 72.8711 87.2217 72.6594 87.7871C71.1992 87.4161 71.1248 86.1307 71.6686 85.3484C71.3651 84.9942 71.0446 84.9026 70.4547 85.097ZM69.4355 87.9359C69.4355 87.9359 69.8709 88.1186 70.4204 88.1586C70.3574 88.4615 70.1225 88.747 69.7504 88.6671C69.4412 88.5985 69.3035 88.2216 69.4355 87.9359ZM67.9982 83.7659C67.6373 83.5261 67.7976 83.0005 68.1986 83.0005C68.6396 83.012 69.2234 83.5088 69.802 83.7545C69.802 83.7545 68.2844 83.9601 67.9982 83.7659ZM69.4811 86.7933C69.7964 87.0962 70.7411 86.9821 70.7411 86.9821L70.7756 87.1704C70.3633 87.719 69.2178 87.4733 69.4811 86.7933ZM70.7526 86.1707C70.0767 86.4392 69.3841 86.0738 69.5958 85.6395C69.9108 85.925 70.7869 85.7824 70.7869 85.7824L70.7526 86.1707ZM71.749 78.3281L70.4547 83.0293L70.8957 75.4432L72.8997 73.7354L73.9191 75.9688L71.3423 83.3378L72.0239 78.3794C72.0868 78.0253 71.8061 77.9852 71.749 78.3281ZM71.8406 84.0287C71.8406 84.0287 73.2834 83.9601 73.69 84.1145C73.9877 84.24 73.7875 84.7429 73.398 84.6857C72.9916 84.6344 71.8406 84.0287 71.8406 84.0287ZM74.1024 85.1713L75.6713 85.3652C75.7916 86.2223 75.5681 87.6731 75.0071 88.4842L73.4896 88.0445C73.8907 87.0905 73.9877 86.1937 74.1024 85.1713ZM99.4294 106.038C99.4294 109.671 97.7463 112.43 94.9458 113.96L95.9481 111.927H94.9747L93.6861 114.532C92.3519 115.034 90.8403 115.314 89.168 115.314C84.0602 115.314 82.7088 115.52 80.8192 117.399C78.924 115.52 77.5726 115.314 72.4705 115.314C70.8099 115.314 69.2979 115.046 67.9695 114.543H68.0038L69.2922 111.927H68.3245L67.1964 114.217C66.9274 114.092 66.664 113.955 66.4121 113.806L67.3397 111.927H66.3778L65.6904 113.326C63.5031 111.721 62.2147 109.208 62.2147 106.038V94.6134H99.4181V106.038H99.4294ZM100.466 71.4278C99.8877 72.9245 99.4238 74.5466 99.4238 76.1688V93.5908H97.3911C96.4692 92.7 95.6903 89.7296 95.6903 89.7296C95.1864 90.7976 95.7648 92.9626 96.3031 93.5908H93.6861C93.0391 92.7169 92.4778 89.6211 92.4778 89.6211C91.6933 90.5119 92.1917 92.9169 92.6784 93.5908H90.9376C90.8286 92.3515 91.1838 91.0033 91.1838 91.0033C90.2734 90.8377 89.3057 90.3578 89.3113 89.3525C89.7694 89.7809 89.9583 89.775 90.5938 89.7638L91.3327 89.181C88.8818 89.2613 88.7674 86.5764 90.7141 85.3196C88.7731 85.3826 87.3242 84.2288 88.0285 82.1723C86.6485 81.4583 86.1617 79.1276 87.1811 78.1052C86.4425 77.3053 86.322 75.7348 86.7918 74.6665C85.8126 74.6665 84.7133 74.2781 84.1004 73.6097C84.0546 73.6326 83.9975 73.6497 83.9458 73.667C85.1712 73.17 86.2075 72.3929 86.9062 71.4335H100.466V71.4278ZM93.0564 63.0423C91.0407 63.3908 89.3057 65.8528 87.8855 68.0747L87.7252 68.3316H86.2075L86.2019 68.5944C86.0473 70.3082 84.4154 72.6329 80.8192 72.6329C79.1587 72.6329 77.9044 72.1247 77.0459 71.4335C76.3014 70.828 75.8317 70.0794 75.6027 69.3657C75.5167 69.1088 75.465 68.8457 75.4424 68.5944L75.4309 68.3316H73.9247L73.7645 68.0747C72.3387 65.8584 70.6037 63.3965 68.5938 63.0423L74.0852 59.8606L80.8305 63.5164L87.565 59.8606L93.0564 63.0423ZM86.7688 58.2896L81.3918 61.1116V49.7043L88.6986 47.2251L86.7688 58.2896ZM80.8249 48.4592L72.837 45.3117C73.5127 43.7122 76.6449 42.347 80.8249 42.347C84.9993 42.347 88.1258 43.7122 88.8015 45.3117L80.8249 48.4592Z" fill="black"/>
<path fill-rule="evenodd" clip-rule="evenodd" d="M98.5763 82.6875L98.5937 81.8136C95.9079 81.7506 95.2895 78.5918 95.2895 78.5918C94.505 80.9165 96.5551 82.6533 98.5763 82.6875Z" fill="black"/>
<path fill-rule="evenodd" clip-rule="evenodd" d="M95.1868 88.0394L94.9178 87.2109C92.6274 87.7937 91.4421 84.1719 91.4421 84.1719C90.7091 86.8053 93.2629 88.6676 95.1868 88.0394Z" fill="black"/>
<path fill-rule="evenodd" clip-rule="evenodd" d="M96.7789 84.6793C94.0416 85.1136 92.9196 81.9375 92.9196 81.9375C92.6158 83.6684 93.7383 85.4221 95.5537 85.6048C95.1414 87.8611 97.2429 89.0205 99.0637 88.2152L98.8003 87.427C97.2199 87.9583 95.7369 86.3986 96.7789 84.6793Z" fill="black"/>
<path fill-rule="evenodd" clip-rule="evenodd" d="M95.1397 75.6174L95.1625 74.7433C91.5492 74.0008 91.8527 71.5215 91.8527 71.5215C91.0741 73.8579 93.124 75.583 95.1397 75.6174Z" fill="black"/>
<path fill-rule="evenodd" clip-rule="evenodd" d="M72.2472 111.93L70.9531 114.546H71.9267L73.2149 111.93H72.2472Z" fill="black"/>
<path fill-rule="evenodd" clip-rule="evenodd" d="M74.1998 111.93L72.9111 114.546H73.8906L75.1675 111.93H74.1998Z" fill="black"/>
<path fill-rule="evenodd" clip-rule="evenodd" d="M82.0218 111.93L80.7334 114.546H81.7009L82.9952 111.93H82.0218Z" fill="black"/>
<path fill-rule="evenodd" clip-rule="evenodd" d="M83.9816 111.93L82.6816 114.546H83.6609L84.9434 111.93H83.9816Z" fill="black"/>
<path fill-rule="evenodd" clip-rule="evenodd" d="M80.0685 111.93L78.7744 114.546H79.748L81.0364 111.93H80.0685Z" fill="black"/>
<path fill-rule="evenodd" clip-rule="evenodd" d="M91.4941 114.546H92.4675L93.7559 111.93H92.7823L91.4941 114.546Z" fill="black"/>
<path fill-rule="evenodd" clip-rule="evenodd" d="M76.1568 111.93L74.8682 114.546H75.8415L77.1301 111.93H76.1568Z" fill="black"/>
<path fill-rule="evenodd" clip-rule="evenodd" d="M78.1058 111.93L76.8174 114.546H77.7966L79.085 111.93H78.1058Z" fill="black"/>
<path fill-rule="evenodd" clip-rule="evenodd" d="M73.6828 97.8633C73.5052 97.8633 73.3506 98.0347 73.3506 98.2575C73.3506 98.4744 73.5052 98.6515 73.6828 98.6515C73.866 98.6515 74.0263 98.4744 74.0263 98.2575C74.0206 98.0347 73.866 97.8633 73.6828 97.8633Z" fill="black"/>
<path fill-rule="evenodd" clip-rule="evenodd" d="M80.8237 38.8186C84.8322 38.8186 88.0445 40.1439 89.8138 41.566C89.8138 41.566 90.3464 38.3902 92.1388 35.6026L88.9091 35.9623L87.2199 32.3752L83.9732 34.0603L80.8237 30.9414L77.6743 34.0603L74.416 32.3752L72.7268 35.9623L69.4971 35.6026C71.2951 38.3902 71.822 41.566 71.822 41.566C73.5972 40.1439 76.8152 38.8186 80.8237 38.8186ZM73.2822 37.3905L74.8226 34.1345L77.6743 35.6485L80.8237 32.5466L83.9732 35.6485L86.8249 34.1345L88.348 37.3905L90.2435 37.0992C89.7567 38.0075 89.3902 38.8013 89.0524 39.9152C86.9795 38.7101 83.8988 37.7789 80.8237 37.7789C77.7373 37.7789 74.6622 38.7101 72.5893 39.9152C72.2458 38.8013 71.885 38.0075 71.3925 37.0992L73.2822 37.3905Z" fill="black"/>
<path fill-rule="evenodd" clip-rule="evenodd" d="M84.1238 32.4026C84.5932 32.4425 85.0112 32.0884 85.0512 31.6258C85.0972 31.1575 84.41 29.9121 84.41 29.9121C84.41 29.9121 83.385 31.0144 83.3507 31.483C83.3049 31.94 83.6598 32.357 84.1238 32.4026Z" fill="black"/>
<path fill-rule="evenodd" clip-rule="evenodd" d="M89.4142 34.3167C89.8323 34.5397 90.3417 34.374 90.5651 33.957C90.7942 33.5456 90.6452 32.1348 90.6452 32.1348C90.6452 32.1348 89.2824 32.7461 89.0592 33.1629C88.8414 33.5742 89.0021 34.0884 89.4142 34.3167Z" fill="black"/>
<path fill-rule="evenodd" clip-rule="evenodd" d="M77.5213 32.4026C77.9965 32.357 78.3459 31.9456 78.3057 31.483C78.2601 31.0144 77.2464 29.9121 77.2464 29.9121C77.2464 29.9121 76.5651 31.1632 76.6052 31.6258C76.6395 32.0884 77.0575 32.4425 77.5213 32.4026Z" fill="black"/>
<path fill-rule="evenodd" clip-rule="evenodd" d="M72.2354 34.3167C72.6534 34.0884 72.808 33.5742 72.5902 33.1629C72.3726 32.7461 71.0041 32.1348 71.0041 32.1348C71.0041 32.1348 70.861 33.5456 71.0901 33.957C71.302 34.374 71.8174 34.5397 72.2354 34.3167Z" fill="black"/>
<path fill-rule="evenodd" clip-rule="evenodd" d="M135.71 63.3356C136.838 62.9355 137.708 61.8618 138.143 60.8678C135.275 60.4565 127.653 57.2633 121.388 59.8625C123.736 57.6404 125.843 57.3549 126.044 54.1563C127.017 54.8531 128.661 55.2471 129.589 53.5848C128.942 51.6826 127.309 53.225 127.08 52.6994C126.759 51.9681 129.136 52.9224 129.646 50.4489C127.796 49.8149 127.246 51.3228 126.914 50.9743C126.611 50.6433 128.088 50.0088 127 48.0156C125.076 49.1408 126.078 50.4033 125.672 50.5461C125.179 50.7401 125.569 49.1921 123.438 49.2663C123.226 51.5456 125.437 51.6198 125.076 51.9798C124.635 52.4195 124.063 50.6715 122.454 51.5571C122.482 53.3964 123.977 54.4074 125.517 53.9733C125.265 57.4692 122.047 56.818 119.653 60.7593C124.727 63.3527 127.023 67.8768 130.144 71.0067C131.175 70.2759 132.938 67.0312 132.938 67.0312C136.317 69.6417 138.693 67.0427 138.693 67.0427C137.531 65.8545 137.485 64.9522 135.71 63.3356ZM130.785 63.9696C131.135 64.7409 131.827 67.431 130.172 69.4819C128.288 65.7289 125.7 62.513 123.604 61.125C123.146 60.828 123.856 60.308 125.151 60.1365C129.05 59.3997 133.625 61.0449 135.801 61.622C134.788 62.3757 133.963 62.7186 132.927 62.8444C134.508 64.1694 135.664 65.289 136.477 66.5344C134.948 66.9171 134.083 65.9517 130.785 63.9696Z" fill="black"/>
<path fill-rule="evenodd" clip-rule="evenodd" d="M98.2093 122.314V118.041C94.8995 119.555 90.6908 120.783 85.2738 121.269L85.0274 122.794C85.4855 122.857 86.0696 122.914 86.8486 122.965C84.8441 123.239 82.2502 123.371 80.8302 123.371C79.4044 123.371 76.8161 123.239 74.8062 122.965C75.5793 122.914 76.1632 122.857 76.6215 122.794L76.3751 121.269C70.9581 120.783 66.7438 119.555 63.4396 118.041V122.314L58.9502 124.153C62.2772 125.878 66.1024 127.284 70.5228 128.42L69.996 130.208C72.5273 130.951 76.5755 131.705 80.8187 131.705C85.0617 131.705 89.1047 130.945 91.6411 130.208L91.12 128.42C95.5352 127.284 99.3718 125.878 102.699 124.153L98.2093 122.314ZM61.3494 124.251L64.3787 123.034V119.555C66.3254 120.303 68.8794 121.08 72.5442 121.84L70.8263 127.421C67.0873 126.564 63.909 125.41 61.3494 124.251ZM80.8243 130.682C77.4058 130.682 74.0675 130.174 71.2158 129.471L73.031 123.617C74.2336 123.896 77.2455 124.262 80.8243 124.262C84.409 124.262 87.404 123.89 88.6123 123.617L90.4331 129.471C87.5699 130.174 84.2373 130.682 80.8243 130.682ZM90.8282 127.421L89.1104 121.84C92.7749 121.086 95.329 120.303 97.2759 119.555V123.034L100.3 124.251C97.7399 125.41 94.5732 126.564 90.8282 127.421Z" fill="black"/>
<path fill-rule="evenodd" clip-rule="evenodd" d="M28.7099 67.0312C28.7099 67.0312 30.4736 70.2759 31.4985 71.0067C34.625 67.8824 36.9269 63.3583 41.9946 60.7593C39.5953 56.818 36.3774 57.4806 36.1367 53.9733C37.677 54.4074 39.166 53.3906 39.2003 51.5571C37.5855 50.6715 37.013 52.4312 36.5777 51.9798C36.2171 51.6084 38.4215 51.5456 38.2155 49.2663C36.0852 49.1979 36.4745 50.7401 35.9764 50.5461C35.5755 50.4033 36.5777 49.1349 34.648 48.0156C33.5657 50.0149 35.0487 50.6433 34.7395 50.9743C34.4133 51.3228 33.8521 49.8205 32.008 50.4489C32.5064 52.9224 34.8941 51.9681 34.5736 52.6994C34.3445 53.225 32.7181 51.6826 32.0768 53.5848C32.9931 55.2529 34.6423 54.8587 35.6098 54.1619C35.8162 57.3663 37.9177 57.6348 40.271 59.8625C34.001 57.2633 26.3793 60.4565 23.4989 60.8734C23.9399 61.8618 24.8103 62.9355 25.9383 63.3241C24.1633 64.9578 24.1172 65.8605 22.9551 67.0427C22.9551 67.0427 25.3257 69.6417 28.7099 67.0312ZM25.1595 66.54C25.9784 65.2947 27.1295 64.1694 28.7213 62.85C27.679 62.7186 26.8601 62.3757 25.8409 61.622C28.0225 61.0449 32.6036 59.394 36.5089 60.1365C37.7915 60.308 38.5133 60.828 38.0436 61.125C35.9477 62.513 33.3537 65.7289 31.4698 69.4819C29.8206 67.431 30.5194 64.7466 30.8572 63.9753C27.5645 65.9517 26.7055 66.9171 25.1595 66.54Z" fill="black"/>
<path fill-rule="evenodd" clip-rule="evenodd" d="M78.0811 64.6465V66.5259C78.7283 65.7434 79.988 65.8975 79.988 65.8975V68.6108C79.988 68.6108 79.9422 69.9477 79.4726 70.5188H80.8298H82.1871C81.7116 69.9477 81.6716 68.6108 81.6716 68.6108V65.9031C81.6716 65.9031 82.9255 65.7492 83.5727 66.5315V64.6521H80.8298H78.0811V64.6465Z" fill="black"/>
</g>
<defs>
<clipPath id="clip0_1120_4415">
<rect width="122" height="108" fill="white" transform="translate(19.7998 26)"/>
</clipPath>
</defs>
</svg>
