<svg width="161" height="160" viewBox="0 0 161 160" fill="none" xmlns="http://www.w3.org/2000/svg">
<path d="M55.2592 61H63.968V82.9354C63.968 88.3081 62.4803 92.3287 59.5047 94.9972C56.5655 97.6657 52.8642 99 48.401 99C43.3208 99 39.293 97.5946 36.3175 94.7837C33.3057 91.9373 31.7998 87.8632 31.7998 82.5618V61H40.5086V80.7472C40.5086 87.5787 43.1394 90.9944 48.401 90.9944C50.8322 90.9944 52.5739 90.1938 53.6263 88.5927C54.7149 86.9916 55.2592 84.5365 55.2592 81.2275V61ZM80.9913 98.3596H72.8268V74.3427H80.9913V76.2107C82.5878 74.6807 84.6017 73.9157 87.033 73.9157C93.6735 73.9157 96.9937 77.2959 96.9937 84.0562V98.3596H88.8292V85.4438C88.8292 84.1273 88.4663 83.1312 87.7406 82.4551C87.0511 81.7435 86.0714 81.3876 84.8014 81.3876C83.3862 81.3876 82.116 81.9391 80.9913 83.0421V98.3596ZM106.286 95.4242C103.819 93.0048 102.585 89.9803 102.585 86.3511C102.585 82.7219 103.819 79.6976 106.286 77.2781C108.754 74.8942 112.056 73.7022 116.192 73.7022C120.329 73.7022 123.613 74.8942 126.044 77.2781C128.548 79.662 129.8 82.6863 129.8 86.3511C129.8 90.016 128.548 93.0402 126.044 95.4242C123.613 97.8081 120.329 99 116.192 99C112.056 99 108.754 97.8081 106.286 95.4242ZM111.294 86.3511C111.294 87.8455 111.747 89.0908 112.654 90.0871C113.598 91.0478 114.777 91.5281 116.192 91.5281C117.644 91.5281 118.823 91.0655 119.73 90.1404C120.637 89.1798 121.091 87.9166 121.091 86.3511C121.091 84.8567 120.619 83.6292 119.676 82.6685C118.769 81.6722 117.607 81.1742 116.192 81.1742C114.777 81.1742 113.598 81.6545 112.654 82.6152C111.747 83.5402 111.294 84.7857 111.294 86.3511Z" fill="#179BD6"/>
</svg>
