<svg width="161" height="160" viewBox="0 0 161 160" fill="none" xmlns="http://www.w3.org/2000/svg">
<path d="M80.332 23.9805C49.6586 23.9805 24.8643 48.8619 24.8643 79.643C24.8643 110.424 49.6586 135.305 80.332 135.305C111.005 135.305 135.8 110.424 135.8 79.643C135.8 48.8619 111.005 23.9805 80.332 23.9805ZM72.6637 103.242L68.5739 115.298C53.2372 110.168 43.0127 95.5465 43.0127 79.1299C43.0127 62.7134 53.2372 48.3488 68.8295 42.9621L72.9193 55.0181C62.6948 58.3527 56.0489 68.1001 56.0489 78.8734C55.5377 90.1599 62.4392 99.9072 72.6637 103.242ZM91.5789 115.554L87.7448 103.242C98.2249 99.9072 105.126 90.1598 105.126 79.1299C105.126 68.1001 98.2249 58.6092 88.0004 55.2746L92.0902 42.9621C107.682 48.0923 118.163 62.7134 118.163 79.1299C118.163 96.0596 107.427 110.681 91.5789 115.554Z" fill="#00BEF0"/>
</svg>
