<svg width="161" height="160" viewBox="0 0 161 160" fill="none" xmlns="http://www.w3.org/2000/svg">
<path d="M80.2998 138C112.608 138 138.8 111.809 138.8 79.5C138.8 47.1913 112.608 21 80.2998 21C47.9911 21 21.7998 47.1913 21.7998 79.5C21.7998 111.809 47.9911 138 80.2998 138Z" fill="#FFCD28"/>
<path d="M53.7998 108.097V98.168C53.7998 96.7371 55.2822 95.7744 56.6124 96.3425C62.8159 98.9983 69.6204 100.281 77.026 100.281C87.1706 100.281 93.0444 97.5224 93.0444 92.6592C93.0444 88.3204 89.1742 86.2178 81.2981 86.2178H70.257C69.1284 86.2178 68.2166 85.3176 68.2166 84.2101V74.8196C68.2166 73.7109 69.1296 72.8107 70.257 72.8107H81.2981C87.7057 72.8107 90.9102 70.8417 90.9102 67.0298C90.9102 62.8233 86.3705 60.7207 77.2948 60.7207C70.3102 60.7207 64.0129 61.7857 58.4055 63.9945C57.0917 64.5114 55.6715 63.5487 55.6715 62.1528V52.6824C55.6715 51.45 56.445 50.3638 57.604 49.8993C64.0928 47.2998 72.1033 46 81.4313 46C89.5749 46 96.382 47.7081 101.854 51.1254C107.327 54.5403 110.129 58.8791 110.129 64.0057C110.129 70.7155 107.369 75.2728 101.849 77.5752C101.425 77.7513 101.444 78.3643 101.874 78.5254C108.145 80.8789 112.8 85.9756 112.8 93.7056C112.8 99.886 109.731 105.013 103.592 109.082C97.5828 113.03 89.5736 115 79.6966 115C70.1035 115 62.1679 113.582 55.6854 110.852C54.5543 110.379 53.7998 109.306 53.7998 108.097Z" fill="#212223"/>
</svg>
