<svg width="160" height="160" viewBox="0 0 160 160" fill="none" xmlns="http://www.w3.org/2000/svg">
<path d="M59.9619 59.168V72.603C59.96 73.1508 59.7409 73.6755 59.3526 74.0622C58.9643 74.4489 58.4385 74.666 57.8903 74.666H56.0885V62.8712H49.8443V74.666H48.0644C47.5169 74.666 46.9918 74.4486 46.6046 74.0617C46.2175 73.6749 46 73.1501 46 72.603V59.168H59.9619Z" fill="#960391"/>
<path d="M62.6543 66.9167C62.6543 62.3679 66.0318 59 69.9052 59C71.521 59.0084 73.0778 59.6074 74.282 60.6839L74.9604 59.1677H77.8199V74.6657H76.6163C76.1223 74.6649 75.6391 74.5214 75.2249 74.2523C74.8107 73.9833 74.4833 73.6003 74.282 73.1494C73.0778 74.226 71.521 74.825 69.9052 74.8334C66.0536 74.8334 62.6543 71.4364 62.6543 66.9167ZM70.4377 62.6886C68.2493 62.6886 66.557 64.3726 66.557 66.9021C66.557 69.4317 68.242 71.1156 70.4377 71.1156C72.6334 71.1156 74.3258 69.4463 74.3258 66.9167C74.3258 64.3871 72.6261 62.6886 70.4377 62.6886Z" fill="#960391"/>
<path d="M95.4143 59.168V72.603C95.4124 73.1508 95.1932 73.6755 94.8049 74.0622C94.4166 74.4489 93.8908 74.666 93.3426 74.666H91.5335V62.8712H85.2675V74.666H83.4584C82.9102 74.666 82.3844 74.4489 81.9961 74.0622C81.6078 73.6755 81.3886 73.1508 81.3867 72.603V59.168H95.4143Z" fill="#960391"/>
<path d="M98.127 66.9167C98.127 62.3679 101.497 59 105.378 59C106.994 59.0084 108.55 59.6074 109.755 60.6839L110.426 59.1677H113.293V74.6657H112.089C111.595 74.6659 111.111 74.5227 110.697 74.2535C110.282 73.9844 109.955 73.6008 109.755 73.1494C108.55 74.226 106.994 74.825 105.378 74.8334C101.497 74.8334 98.127 71.4364 98.127 66.9167ZM105.881 62.6886C103.693 62.6886 102.008 64.3726 102.008 66.9021C102.008 69.4317 103.693 71.1156 105.881 71.1156C108.07 71.1156 109.762 69.4317 109.762 66.9021C109.762 64.3726 108.077 62.6886 105.881 62.6886Z" fill="#960391"/>
<path d="M65.9788 82.1777V95.4687C65.9788 96.01 65.7638 96.5291 65.3808 96.9118C64.9978 97.2946 64.4778 97.5096 63.9358 97.5096H62.1178V87.8461L55.6228 97.5096H51.957V84.2186C51.957 83.6773 52.1718 83.1582 52.5548 82.7755C52.9378 82.3928 53.4578 82.1777 53.9988 82.1777H55.7888V91.8413L62.2838 82.1777H65.9788Z" fill="#FF9901"/>
<path d="M83.3469 82.1777V95.4687C83.3469 96.01 83.1319 96.5291 82.7489 96.9118C82.3659 97.2946 81.8469 97.5096 81.3049 97.5096H79.5149V91.5095H73.3449V97.5096H71.5559C71.0129 97.5096 70.4929 97.2948 70.1089 96.9123C69.7249 96.5297 69.5079 96.0106 69.5059 95.4687V82.1777H73.3449V87.8461H79.5149V82.1777H83.3469Z" fill="#FF9901"/>
<path d="M86.0391 89.8435C86.0391 85.3435 89.3731 82.0117 93.2121 82.0117C94.8101 82.022 96.3501 82.6143 97.5421 83.6776L98.1991 82.1776H101.085V97.5095H99.8591C99.3711 97.5127 98.8931 97.3739 98.4831 97.1101C98.0731 96.8463 97.7481 96.4688 97.5491 96.0239C96.3571 97.0871 94.8181 97.6794 93.2201 97.6897C89.3731 97.6753 86.0391 94.3436 86.0391 89.8435ZM93.7101 85.6752C91.5451 85.6752 89.8781 87.3411 89.8781 89.8435C89.8781 92.3459 91.5451 94.0118 93.7101 94.0118C95.8751 94.0118 97.5491 92.3459 97.5491 89.8435C97.5491 87.3411 95.8751 85.6752 93.7101 85.6752Z" fill="#FF9901"/>
<path d="M118.405 82.1777V95.4687C118.405 95.7367 118.352 96.0021 118.249 96.2497C118.147 96.4973 117.996 96.7223 117.807 96.9118C117.617 97.1013 117.392 97.2517 117.144 97.3542C116.896 97.4568 116.631 97.5096 116.363 97.5096H114.573V91.5095H108.396V97.5096H106.606C106.064 97.5096 105.545 97.2946 105.162 96.9118C104.779 96.5291 104.564 96.01 104.564 95.4687V82.1777H108.396V87.8461H114.573V82.1777H118.405Z" fill="#FF9901"/>
<path d="M135.9 91.8411C135.522 93.4715 134.612 94.9298 133.313 95.9861C132.014 97.0425 130.401 97.6368 128.726 97.6753C126.648 97.6753 124.655 96.8502 123.185 95.3815C121.715 93.9127 120.889 91.9207 120.889 89.8435C120.889 87.7664 121.715 85.7743 123.185 84.3056C124.655 82.8369 126.648 82.0117 128.726 82.0117C130.401 82.0503 132.014 82.6446 133.313 83.7009C134.612 84.7573 135.522 86.2156 135.9 87.8459H132.06C131.778 87.1986 131.311 86.6486 130.718 86.264C130.126 85.8794 129.433 85.6771 128.726 85.6824C126.561 85.6824 124.887 87.3483 124.887 89.8507C124.887 92.3532 126.554 94.0191 128.726 94.0191C129.433 94.0243 130.126 93.8221 130.718 93.4375C131.311 93.0529 131.778 92.5028 132.06 91.8556L135.9 91.8411Z" fill="#FF9901"/>
<path d="M42.6916 82.012C41.5571 82.0372 40.4552 82.3959 39.5236 83.0433V80.9591L37.5824 80L35.67 80.9591V83.0433C34.7331 82.4048 33.6287 82.0561 32.4948 82.0409C28.9948 82.0409 26 85.0409 26 89.8727C26 94.7045 29.002 97.7045 32.4948 97.7045C33.628 97.6914 34.7323 97.3453 35.67 96.7093V99.0409L37.5824 100L39.5236 99.0409V96.6805C40.4593 97.3151 41.5609 97.6611 42.6916 97.6756C46.1988 97.6756 49.1864 94.6756 49.1864 89.8438C49.1864 85.0121 46.1988 82.012 42.6916 82.012ZM35.6917 93.0097C34.9962 93.6201 34.1124 93.9739 33.1876 94.0122C31.3546 94.0122 29.8536 92.5121 29.8536 89.8438C29.8536 87.1755 31.3546 85.6755 33.1876 85.6755C34.1125 85.6874 35.0019 86.0332 35.6917 86.6491V93.0097ZM42.0277 94.0122C41.1029 93.9739 40.2191 93.6201 39.5236 93.0097V86.6491C40.2091 86.0227 41.099 85.6665 42.0277 85.6467C43.8607 85.6467 45.3617 87.1467 45.3617 89.815C45.3617 92.4833 43.8607 94.0122 42.0277 94.0122Z" fill="#FF9901"/>
</svg>
