<svg width="160" height="160" viewBox="0 0 160 160" fill="none" xmlns="http://www.w3.org/2000/svg">
<path d="M91.232 38.0273C79.3816 38.0273 68.6599 42.7519 60.9102 50.3614C75.6873 52.4519 87.0657 64.8696 87.0657 79.9003C87.0657 94.9312 75.7078 107.37 60.9102 109.439C68.6599 117.049 79.3816 121.774 91.232 121.774C114.847 121.774 133.999 103.021 133.999 79.9003C133.999 56.7793 114.847 38.0273 91.232 38.0273Z" fill="#00DFBD"/>
<path d="M60.9105 50.3599C59.4821 50.1508 58.029 50.0254 56.5349 50.0254C39.6651 50.0254 26 63.4047 26 79.9196C26 96.435 39.6651 109.814 56.5349 109.814C58.029 109.814 59.4821 109.668 60.9105 109.48C53.2018 101.912 48.4411 91.4594 48.4411 79.9405C48.4411 68.4219 53.2018 57.9694 60.9105 50.4017V50.3599Z" fill="#0090FF"/>
<path d="M87.0467 79.9023C87.0467 64.8506 75.6888 52.4329 60.8912 50.3633C53.1824 57.9309 48.4209 68.3835 48.4209 79.9023C48.4209 91.4208 53.1824 101.874 60.8912 109.441C75.6642 107.351 87.0467 94.9332 87.0467 79.9023Z" fill="#0079C5"/>
</svg>
