<svg width="160" height="160" viewBox="0 0 160 160" fill="none" xmlns="http://www.w3.org/2000/svg">
<path fill-rule="evenodd" clip-rule="evenodd" d="M51.8208 130.428C54.4203 130.847 57.7478 131.162 61.9071 131.476C66.0664 131.791 70.9535 131.895 76.5686 132C83.2233 132 89.1502 131.581 94.2456 130.952C99.3407 130.218 103.708 129.169 107.347 127.807C110.987 126.444 114.002 124.766 116.498 122.775C118.577 121.097 120.449 119.105 122.009 116.903C123.568 114.702 124.816 112.291 125.648 109.67C126.48 107.049 127 104.113 127 101.073C127 96.6694 126.064 92.7904 124.297 89.4358C122.529 86.0807 120.241 83.2502 117.225 80.9436C114.21 78.637 110.779 76.9599 106.827 75.9115V75.5968C110.675 74.1289 113.794 72.3468 116.186 70.0402C118.681 67.8388 120.449 65.3226 121.697 62.492C122.841 59.6614 123.465 56.8307 123.465 53.6855C123.465 50.6452 122.945 47.8145 121.905 45.1936C120.865 42.6774 119.409 40.371 117.641 38.4839C115.874 36.492 113.69 34.9194 111.403 33.6613C109.011 32.1936 106.308 31.0403 103.5 30.2016C100.693 29.3629 97.4691 28.7339 93.8297 28.4194C90.1903 28.1048 86.0308 28 81.4558 28C78.5442 28 75.7367 28 72.825 28.1048C70.0177 28.2097 67.2101 28.3145 64.6106 28.5242C62.011 28.7339 59.6194 28.9436 57.4358 29.2581C55.2522 29.4677 53.3805 29.7823 51.9247 30.0968V54.3146H33V71.7177H51.8208V89.121H33V106.524H51.8208V130.428ZM74.4888 45.4033C75.4248 45.2984 76.6726 45.0887 78.2323 44.9839C79.792 44.8791 81.7677 44.7742 84.2633 44.7742C89.4625 44.7742 93.5178 45.8226 96.2213 47.8145C99.0288 49.8065 100.38 52.742 100.484 56.621C100.484 59.1372 99.7566 61.3388 98.4047 63.2259C97.0531 65.113 94.9734 66.5807 92.1659 67.6291C89.4624 68.6775 86.0308 69.2019 81.9754 69.2019H74.4888V45.4033ZM74.4888 85.7664H82.2877C85.1989 85.7664 87.7987 85.9761 90.2943 86.6048C92.7896 87.1292 94.9734 87.9679 96.845 89.121C98.7169 90.2745 100.173 91.7419 101.212 93.6291C102.252 95.4113 102.772 97.6132 102.772 100.234C102.772 102.96 102.252 105.162 101.212 107.049C100.173 108.936 98.7169 110.403 96.9491 111.556C95.1812 112.71 93.1019 113.549 90.7103 114.073C88.3187 114.597 85.9271 114.807 83.2233 114.807C81.2476 114.807 79.5839 114.807 78.1282 114.807C76.6726 114.807 75.4248 114.702 74.2811 114.492V85.7664H74.4888Z" fill="#00757E"/>
</svg>
