<svg width="160" height="160" viewBox="0 0 160 160" fill="none" xmlns="http://www.w3.org/2000/svg">
<rect x="30" y="30" width="100" height="100" rx="15" fill="#0BE6E6"/>
<path d="M108.89 102.971H105.555V120.751H108.89V116.306H120V102.971H108.89ZM116.665 113.531H108.89V105.751H116.665V113.531ZM46.1099 47.1959V64.5559L56.6649 72.9709L47.7799 120.751H71.6649L73.8899 115.946L70.9599 107.891L76.6649 79.6409H91.1099L95.5549 65.7509L105.555 64.0859V42.4159L57.7749 39.0859L46.1099 47.1959ZM107.78 62.4159L118.89 58.5309V47.4159L107.78 43.5309V62.4159ZM124.01 56.3059H126.23L127.66 49.6409H125.435L124.01 56.3059ZM123.77 49.6409H121.11V56.3059H122.34L123.77 49.6409ZM129.325 49.6409L127.895 56.3059H130V49.6409H129.325Z" fill="black"/>
<path d="M56.665 72.9702L49.95 67.6152L45.555 85.1952H30V112.415H78.1L79.26 105.665L73.865 103.82L79.895 101.975L81.14 94.7202L76.24 92.7602L81.86 90.5102L83.01 83.8252L77.59 81.3802H93.54L95.555 72.9702H56.665Z" fill="white"/>
</svg>
