<svg width="160" height="160" viewBox="0 0 160 160" fill="none" xmlns="http://www.w3.org/2000/svg">
<g clip-path="url(#clip0_1120_4471)">
<path d="M102.271 50.0005H62.4205C55.2114 49.9584 48.2581 52.6506 42.9816 57.527C37.7051 62.4034 34.5037 69.0959 34.0315 76.2369C33.5593 83.3778 35.852 90.4282 40.4411 95.9473C45.0302 101.467 51.5693 105.038 58.7221 105.932V117L71.7868 106.189H102.299C109.805 106.185 117.002 103.222 122.307 97.9503C127.612 92.6791 130.59 85.5319 130.587 78.0808C130.583 70.6298 127.598 63.4854 122.287 58.2193C116.977 52.9532 109.777 49.9968 102.271 50.0005Z" fill="black"/>
<path d="M60.8141 91.7076C63.4817 91.7056 66.089 90.9186 68.3061 89.4463C70.5232 87.9737 72.2511 85.8816 73.2705 83.4347C74.2902 80.9877 74.5559 78.2955 74.0343 75.6986C73.5127 73.1016 72.2273 70.7164 70.3403 68.8446C68.4535 66.9728 66.0497 65.6984 63.4332 65.1824C60.8166 64.6665 58.1048 64.9322 55.6403 65.946C53.1759 66.9598 51.0696 68.6761 49.5877 70.878C48.1059 73.0799 47.3149 75.6685 47.3149 78.3166C47.3174 81.8689 48.7407 85.2749 51.272 87.7861C53.8033 90.2969 57.2355 91.7076 60.8141 91.7076Z" fill="#0D9031"/>
<path d="M60.8137 69.9081C62.491 69.9081 64.1306 70.402 65.5251 71.3272C66.9196 72.2524 68.0063 73.5674 68.6478 75.1058C69.2893 76.6442 69.4565 78.3369 69.1285 79.9697C68.8009 81.6026 67.9922 83.1022 66.8057 84.2788C65.619 85.4556 64.1074 86.2563 62.4621 86.5802C60.8168 86.9038 59.1117 86.736 57.5627 86.0975C56.0136 85.459 54.69 84.3789 53.7595 82.9936C52.829 81.6083 52.3333 79.9802 52.3351 78.3152C52.3375 76.0847 53.2319 73.9463 54.8217 72.37C56.4115 70.7936 58.5666 69.9081 60.8137 69.9081ZM60.8137 64.9336C58.1456 64.9354 55.538 65.7226 53.3206 67.1954C51.1033 68.6684 49.3757 70.7609 48.3563 73.2085C47.337 75.656 47.0717 78.3486 47.594 80.9458C48.1163 83.5431 49.4028 85.9283 51.2907 87.7996C53.1786 89.6709 55.5831 90.9449 58.2002 91.4598C60.8174 91.9747 63.5296 91.7077 65.9939 90.6924C68.4582 89.6773 70.5637 87.9594 72.0447 85.7565C73.5254 83.5532 74.3147 80.9637 74.313 78.3152C74.3116 76.5567 73.9616 74.8157 73.2825 73.1915C72.6035 71.5673 71.6089 70.0918 70.3553 68.8492C69.1017 67.6066 67.614 66.6212 65.9768 65.9494C64.3396 65.2776 62.5852 64.9324 60.8137 64.9336Z" fill="#8BD1AA"/>
<path d="M103.881 91.7229C106.55 91.7249 109.159 90.9407 111.379 89.47C113.599 87.9994 115.329 85.9083 116.352 83.4609C117.374 81.0137 117.642 78.3205 117.122 75.7221C116.601 73.1237 115.316 70.7368 113.429 68.8635C111.542 66.9902 109.138 65.7147 106.52 65.1983C103.902 64.6819 101.189 64.9478 98.7238 65.9625C96.2585 66.9772 94.1517 68.6949 92.67 70.8984C91.1886 73.1019 90.3987 75.6922 90.4004 78.3414C90.4031 81.8897 91.8241 85.2919 94.3517 87.8011C96.8793 90.3099 100.307 91.7206 103.881 91.7229Z" fill="#0D9031"/>
<path d="M103.881 69.9257C105.558 69.9257 107.197 70.4193 108.591 71.3441C109.986 72.2689 111.072 73.5834 111.714 75.1212C112.356 76.6591 112.524 78.3513 112.197 79.9839C111.87 81.6166 111.062 83.1162 109.876 84.2934C108.69 85.4702 107.18 86.2719 105.535 86.5965C103.89 86.9214 102.185 86.7546 100.636 86.1178C99.0871 85.4806 97.7628 84.4019 96.8312 83.0179C95.8995 81.6338 95.4024 80.0066 95.4024 78.342C95.4047 76.1106 96.2988 73.9713 97.8884 72.3935C99.478 70.8156 101.633 69.9281 103.881 69.9257ZM103.881 64.9512C101.213 64.953 98.606 65.7399 96.389 67.2124C94.1716 68.6849 92.444 70.7769 91.4246 73.2239C90.4049 75.6709 90.1392 78.3631 90.6608 80.9601C91.1821 83.557 92.4678 85.9422 94.3545 87.8139C96.2416 89.6859 98.6452 90.9602 101.262 91.4761C103.879 91.992 106.59 91.7263 109.055 90.7126C111.519 89.6989 113.625 87.9824 115.107 85.7804C116.589 83.5788 117.38 80.9901 117.38 78.342C117.378 74.7897 115.954 71.3837 113.423 68.8727C110.892 66.3617 107.46 64.9512 103.881 64.9512Z" fill="#8BD1AA"/>
</g>
<defs>
<clipPath id="clip0_1120_4471">
<rect width="160" height="160" rx="80" fill="white"/>
</clipPath>
</defs>
</svg>
