<svg width="160" height="160" viewBox="0 0 160 160" fill="none" xmlns="http://www.w3.org/2000/svg">
<path d="M131 91.5174C130.957 87.8322 130.141 84.1978 128.606 80.8517C127.07 77.5056 124.85 74.5233 122.09 72.0998C122.984 69.649 123.438 67.0579 123.432 64.4473C123.432 63.0158 123.289 61.6048 123.029 60.24C121.078 49.8732 112.033 42 101.198 42H74.9076V90.7221C74.9076 100.099 66.9389 107.736 57.1418 107.736C56.8409 107.736 56.5222 107.726 56.2162 107.715C46.8475 107.259 39.3657 99.8062 39.3657 90.7247V56.3816C39.3657 54.1113 41.2298 52.2642 43.5146 52.2642H53.8038C56.6649 52.2642 58.9855 49.9733 58.9855 47.1334C58.9855 44.3037 56.6649 42.0051 53.8038 42.0051H43.5197C35.5127 42.0051 29 48.452 29 56.3816V60.9865H29.0051L29 60.9917V90.7247L29.0051 91.1043C29.2218 105.968 41.7551 118 57.1418 118C72.6585 118 85.2785 105.763 85.2785 90.7247V52.259H101.198C101.303 52.259 101.402 52.2642 101.499 52.2796C107.9 52.4437 113.056 57.8388 113.056 64.4473C113.071 66.8794 112.36 69.2603 111.016 71.2815C109.463 73.7007 109.855 76.361 112.245 77.7078C114.785 79.0774 116.907 81.1154 118.384 83.6042C119.862 86.0931 120.64 88.939 120.634 91.838C120.634 100.014 114.565 106.769 106.803 107.646C106.247 107.705 105.681 107.736 105.102 107.736H88.3487C85.4927 107.736 83.1722 110.037 83.1722 112.872C83.1722 115.709 85.4927 118 88.3487 118H105.102C119.372 118 130.992 106.256 130.992 91.838C131.005 91.7277 130.997 91.6225 130.997 91.5174H131Z" fill="#CC163F"/>
</svg>
