<svg width="160" height="160" viewBox="0 0 160 160" fill="none" xmlns="http://www.w3.org/2000/svg">
<path d="M104.411 52C120.703 52 133.908 64.9659 133.908 80.9588L133.873 80.9625C133.869 94.6037 134 108 134 108H115.778L115.64 80.9625H115.609C115.609 74.8891 110.596 69.9633 104.407 69.9633C98.2215 69.9633 93.2047 74.8854 93.2047 80.9625H93.2356L93.3278 108H75.0216L74.8831 80.9625H74.8522C74.8522 74.8891 69.8396 69.9633 63.65 69.9633C57.4648 69.9633 52.448 74.8854 52.448 80.9625H52.4788L52.5749 108H34.2685L34.1301 80.9625H34.1609C34.1609 76.9311 34.9989 73.0962 36.5136 69.6123C35.7524 69.8122 34.9566 69.9292 34.1301 69.9292C29.0865 69.9292 25 65.9169 25 60.9647C25 56.0124 29.0865 52 34.1263 52C38.8701 52 42.7682 55.5519 43.2141 60.0928C48.5192 55.0839 55.7156 52 63.6542 52C71.5618 52 78.7351 55.0612 84.0326 60.0361C89.3298 55.0612 96.5031 52 104.411 52Z" fill="#FF0550"/>
</svg>
