<svg width="160" height="160" viewBox="0 0 160 160" fill="none" xmlns="http://www.w3.org/2000/svg">
<path d="M140 79.9986C140 95.7427 133.811 110.546 122.573 121.678C111.336 132.811 96.3926 138.943 80.5 138.943C64.6074 138.943 49.6641 132.811 38.4271 121.678C27.1892 110.546 21 95.7427 21 79.9986C21 64.2545 27.1892 49.4509 38.4271 38.3189C49.6641 27.186 64.6074 21.0547 80.5 21.0547C96.3926 21.0547 111.336 27.186 122.573 38.3189C133.811 49.4509 140 64.2545 140 79.9986Z" fill="#1EA0B2"/>
<path d="M123.317 80.5551C123.317 103.588 104.396 122.261 81.0555 122.261C57.7155 122.261 38.7939 103.588 38.7939 80.5551C38.7939 57.5222 57.7155 38.8496 81.0555 38.8496C104.396 38.8496 123.317 57.5222 123.317 80.5551Z" fill="#6148AC"/>
<path d="M80.4998 34.4004C55.0501 34.4004 34.3457 54.8553 34.3457 79.9984C34.3457 105.141 55.0501 125.597 80.4998 125.597C105.949 125.597 126.654 105.141 126.654 79.9984C126.654 54.8553 105.949 34.4004 80.4998 34.4004ZM80.4998 118.635C58.9357 118.635 41.3921 101.303 41.3921 79.9984C41.3921 58.6942 58.9357 41.3619 80.4998 41.3619C102.064 41.3619 119.608 58.6942 119.608 79.9984C119.608 101.303 102.064 118.635 80.4998 118.635Z" fill="white"/>
<path d="M140 79.9986C140 95.7427 133.868 110.546 122.735 121.678C111.603 132.811 96.7998 138.943 81.0557 138.943V21.0547C96.7998 21.0547 111.603 27.186 122.735 38.3189C133.868 49.4509 140 64.2545 140 79.9986Z" fill="#1EA0B2"/>
<path d="M123.317 80.5551C123.317 103.588 104.396 122.261 81.0557 122.261V38.8496C104.396 38.8496 123.317 57.5222 123.317 80.5551Z" fill="#6148AC"/>
<path d="M126.654 79.9984C126.654 105.141 106.199 125.597 81.0557 125.597V118.635C102.36 118.635 119.692 101.303 119.692 79.9984C119.692 58.6942 102.36 41.3619 81.0557 41.3619V34.4004C106.199 34.4004 126.654 54.8553 126.654 79.9984Z" fill="white"/>
<path d="M75.1131 106.69H85.887V101.245C92.2436 101.245 97.7384 97.6147 97.7384 88.326C97.7384 80.105 92.4052 74.6599 84.4325 74.6599C81.8468 74.6599 81.3081 73.5923 81.3081 72.6314C81.3081 71.7238 81.8468 70.6562 83.5706 70.6562H95.5836V58.645H85.887V53.3066H75.1131V58.7517C68.4332 58.7517 63.2617 62.3818 63.2617 71.6705C63.2617 79.8915 67.9484 85.3365 75.0053 85.3365C78.0759 85.3365 78.6146 86.4042 78.6146 87.3651C78.6146 88.2726 78.0759 89.3403 76.3521 89.3403H65.4165V101.352H75.1131V106.69Z" fill="#FFDC2E"/>
</svg>
