<svg width="160" height="160" viewBox="0 0 160 160" fill="none" xmlns="http://www.w3.org/2000/svg">
<path d="M119 52.9238H98.9822L90.0088 66.0223L99.6725 78.4314L119 52.9238Z" fill="#2172D2"/>
<path d="M100.363 50.8561L112.098 35L119 50.8561H100.363Z" fill="#2172D2"/>
<path d="M119 108.077H98.9825L78.9648 80.5008L88.6286 67.4023L119 108.077Z" fill="#2172D2"/>
<path d="M112.098 126.001L100.363 110.145H119L112.098 126.001Z" fill="#2172D2"/>
<rect x="41" y="52.9238" width="16.5664" height="15.8561" fill="#2172D2"/>
<path d="M58.9473 35H110.027L98.2924 50.8561H58.9473V35Z" fill="#2172D2"/>
<path d="M58.9473 35H110.027L98.2924 50.8561H58.9473V35Z" fill="#2172D2"/>
<path d="M58.9473 110.145H97.9473L110.027 126.001H58.9473V110.145Z" fill="#2172D2"/>
<rect x="41" y="70.1582" width="16.5664" height="38.6061" fill="#2172D2"/>
</svg>
