<svg width="160" height="160" viewBox="0 0 160 160" fill="none" xmlns="http://www.w3.org/2000/svg">
<g clip-path="url(#clip0_1120_4534)">
<path d="M100.3 50.0005H60.4498C53.2407 49.9584 46.2874 52.6506 41.0109 57.527C35.7344 62.4034 32.533 69.0959 32.0608 76.2369C31.5886 83.3778 33.8813 90.4282 38.4704 95.9473C43.0595 101.467 49.5986 105.038 56.7514 105.932V117L69.8161 106.189H100.328C107.834 106.185 115.031 103.222 120.336 97.9503C125.642 92.6791 128.62 85.5319 128.616 78.0808C128.612 70.6298 125.627 63.4854 120.317 58.2193C115.007 52.9532 107.806 49.9968 100.3 50.0005Z" fill="black"/>
<path d="M58.8434 91.7076C61.511 91.7056 64.1183 90.9186 66.3354 89.4463C68.5525 87.9737 70.2804 85.8816 71.2998 83.4347C72.3195 80.9877 72.5852 78.2955 72.0636 75.6986C71.542 73.1016 70.2566 70.7164 68.3696 68.8446C66.4828 66.9728 64.079 65.6984 61.4625 65.1824C58.8459 64.6665 56.1341 64.9322 53.6696 65.946C51.2052 66.9598 49.0989 68.6761 47.617 70.878C46.1352 73.0799 45.3442 75.6685 45.3442 78.3166C45.3467 81.8689 46.77 85.2749 49.3013 87.7861C51.8326 90.2969 55.2648 91.7076 58.8434 91.7076Z" fill="#0D9031"/>
<path d="M58.843 69.9081C60.5203 69.9081 62.1599 70.402 63.5544 71.3272C64.9489 72.2524 66.0356 73.5674 66.6771 75.1058C67.3186 76.6442 67.4858 78.3369 67.1578 79.9697C66.8302 81.6026 66.0215 83.1022 64.835 84.2788C63.6483 85.4556 62.1367 86.2563 60.4914 86.5802C58.8461 86.9038 57.141 86.736 55.592 86.0975C54.0429 85.459 52.7193 84.3789 51.7888 82.9936C50.8583 81.6083 50.3626 79.9802 50.3644 78.3152C50.3668 76.0847 51.2612 73.9463 52.851 72.37C54.4408 70.7936 56.5959 69.9081 58.843 69.9081ZM58.843 64.9336C56.1749 64.9354 53.5673 65.7226 51.3499 67.1954C49.1326 68.6684 47.405 70.7609 46.3856 73.2085C45.3663 75.656 45.101 78.3486 45.6233 80.9458C46.1456 83.5431 47.4321 85.9283 49.32 87.7996C51.2079 89.6709 53.6124 90.9449 56.2295 91.4598C58.8467 91.9747 61.5589 91.7077 64.0231 90.6924C66.4875 89.6773 68.593 87.9594 70.074 85.7565C71.5547 83.5532 72.3439 80.9637 72.3423 78.3152C72.3409 76.5567 71.9909 74.8157 71.3118 73.1915C70.6328 71.5673 69.6382 70.0918 68.3846 68.8492C67.131 67.6066 65.6433 66.6212 64.0061 65.9494C62.3689 65.2776 60.6145 64.9324 58.843 64.9336Z" fill="#8BD1AA"/>
<path d="M101.91 91.7229C104.579 91.7249 107.189 90.9407 109.409 89.47C111.628 87.9994 113.359 85.9083 114.381 83.4609C115.403 81.0137 115.671 78.3205 115.151 75.7221C114.631 73.1237 113.346 70.7368 111.459 68.8635C109.572 66.9902 107.167 65.7147 104.549 65.1983C101.932 64.6819 99.2184 64.9478 96.7531 65.9625C94.2878 66.9772 92.181 68.6949 90.6993 70.8984C89.2179 73.1019 88.428 75.6922 88.4297 78.3414C88.4324 81.8897 89.8534 85.2919 92.381 87.8011C94.9086 90.3099 98.336 91.7206 101.91 91.7229Z" fill="#0D9031"/>
<path d="M101.91 69.9257C103.587 69.9257 105.226 70.4193 106.621 71.3441C108.015 72.2689 109.102 73.5834 109.744 75.1212C110.385 76.6591 110.553 78.3513 110.226 79.9839C109.899 81.6166 109.091 83.1162 107.906 84.2934C106.72 85.4702 105.209 86.2719 103.564 86.5965C101.92 86.9214 100.215 86.7546 98.6657 86.1178C97.1164 85.4806 95.7921 84.4019 94.8605 83.0179C93.9288 81.6338 93.4317 80.0066 93.4317 78.342C93.434 76.1106 94.3281 73.9713 95.9177 72.3935C97.5073 70.8156 99.6624 69.9281 101.91 69.9257ZM101.91 64.9512C99.2426 64.953 96.6353 65.7399 94.4183 67.2124C92.2009 68.6849 90.4733 70.7769 89.4539 73.2239C88.4342 75.6709 88.1685 78.3631 88.6901 80.9601C89.2114 83.557 90.4971 85.9422 92.3838 87.8139C94.2709 89.6859 96.6745 90.9602 99.2912 91.4761C101.908 91.992 104.62 91.7263 107.084 90.7126C109.549 89.6989 111.655 87.9824 113.137 85.7804C114.618 83.5788 115.409 80.9901 115.409 78.342C115.407 74.7897 113.984 71.3837 111.452 68.8727C108.921 66.3617 105.489 64.9512 101.91 64.9512Z" fill="#8BD1AA"/>
</g>
<defs>
<clipPath id="clip0_1120_4534">
<rect width="160" height="160" rx="80" fill="white"/>
</clipPath>
</defs>
</svg>
