<svg width="160" height="160" viewBox="0 0 160 160" fill="none" xmlns="http://www.w3.org/2000/svg">
<path d="M83.3918 33.5918H46V56.5493H83.3918C89.7771 56.5493 94.9813 58.7168 99.0044 63.0518C103.028 67.2099 105.04 72.8718 105.04 80.0377C105.04 87.1152 103.028 92.8214 99.0044 97.1564C94.8938 101.403 89.6896 103.526 83.3918 103.526H46V126.484H83.3918C96.0749 126.484 106.658 122.06 115.142 113.213C123.713 104.278 128 93.2195 128 80.0377C128 66.9443 123.713 55.93 115.142 46.9947C106.571 38.0594 95.9874 33.5918 83.3918 33.5918Z" fill="#192121"/>
<path d="M57.9073 91.7136C64.4233 91.7136 69.7057 86.284 69.7057 79.5863C69.7057 72.8886 64.4233 67.459 57.9073 67.459C51.3912 67.459 46.1089 72.8886 46.1089 79.5863C46.1089 86.284 51.3912 91.7136 57.9073 91.7136Z" fill="#38ACFF"/>
</svg>
