<svg width="160" height="160" viewBox="0 0 160 160" fill="none" xmlns="http://www.w3.org/2000/svg">
<path d="M80.0018 132.679C109.15 132.679 132.678 109.15 132.678 80.0008C132.678 50.852 109.15 27.3223 80.0018 27.3223C50.854 27.3223 27.3251 50.852 27.3251 80.0008C26.9739 109.15 50.854 132.679 80.0018 132.679Z" fill="#FED42B"/>
<mask id="mask0_1120_4535" style="mask-type:alpha" maskUnits="userSpaceOnUse" x="26" y="26" width="107" height="107">
<path d="M79.74 132.674C109.033 132.674 132.679 109.028 132.679 79.7356C132.679 50.4429 109.033 26.7969 79.74 26.7969C50.4472 26.7969 26.8012 50.4429 26.8012 79.7356C26.4483 109.028 50.4472 132.674 79.74 132.674Z" fill="#FED42B"/>
</mask>
<g mask="url(#mask0_1120_4535)">
<path d="M53.6237 55.7375L7.0376 116.794L19.39 130.911L53.9766 85.0303L50.4474 110.088L69.8583 116.794L93.5042 79.0306C92.4455 86.0891 90.6808 102.324 106.21 107.265C130.561 114.676 151.737 70.9133 161.619 48.679L147.502 41.2676C136.561 64.2077 119.621 89.6183 112.915 87.8537C106.21 86.0891 112.209 64.5606 116.091 50.7966V50.4436L94.563 43.0322L68.7995 85.0303L72.3287 62.0902L53.6237 55.7375Z" fill="black"/>
</g>
</svg>
