<svg width="160" height="160" viewBox="0 0 160 160" fill="none" xmlns="http://www.w3.org/2000/svg">
<path fill-rule="evenodd" clip-rule="evenodd" d="M95.2151 41.2635C87.2983 46.6356 84.7878 57.1421 89.693 65.4493L120.88 118.301C121.302 119.019 122.269 119.216 122.964 118.741C130.884 113.366 133.395 102.862 128.486 94.5494L97.3029 41.704C97.1985 41.5336 97.0606 41.3863 96.8975 41.2711C96.7344 41.1558 96.5495 41.0749 96.3542 41.0335C96.1588 40.992 95.9571 40.9907 95.7613 41.0298C95.5655 41.0689 95.3796 41.1474 95.2151 41.2607M64.0315 41.2635C56.1147 46.6356 53.6071 57.1421 58.5124 65.4493L89.6988 118.301C90.1216 119.019 91.0888 119.216 91.7837 118.741C99.7034 113.366 102.211 102.862 97.3029 94.5494L66.1222 41.704C66.0178 41.5332 65.8798 41.3856 65.7164 41.27C65.5531 41.1545 65.3679 41.0735 65.1722 41.032C64.9766 40.9905 64.7745 40.9894 64.5783 41.0287C64.3822 41.068 64.1961 41.1469 64.0315 41.2607" fill="#EE7203"/>
<path fill-rule="evenodd" clip-rule="evenodd" d="M67 100.999C67 91.0575 58.7172 83 48.5 83C38.2828 83 30 91.0603 30 100.999C30 110.937 38.2828 119 48.5 119C58.7172 119 67 110.94 67 100.999Z" fill="#FB471F"/>
</svg>
