<svg width="160" height="160" viewBox="0 0 160 160" fill="none" xmlns="http://www.w3.org/2000/svg">
<path d="M29 77.96C29 60.8225 29 52.2537 32.3352 45.7079C35.2689 39.9501 39.9503 35.2689 45.708 32.3352C52.2537 29 60.8225 29 77.96 29H82.04C99.1777 29 107.746 29 114.292 32.3352C120.05 35.2689 124.731 39.9501 127.665 45.7079C131 52.2537 131 60.8225 131 77.96V82.04C131 99.1777 131 107.747 127.665 114.292C124.731 120.05 120.05 124.731 114.292 127.665C107.746 131 99.1777 131 82.04 131H77.96C60.8225 131 52.2537 131 45.708 127.665C39.9503 124.731 35.2689 120.05 32.3352 114.292C29 107.747 29 99.1777 29 82.04V77.96Z" fill="white"/>
<path fill-rule="evenodd" clip-rule="evenodd" d="M33 78.1201C33 62.3264 33 54.4297 36.0736 48.3975C38.7773 43.0913 43.0913 38.7772 48.3975 36.0736C54.4298 33 62.3266 33 78.12 33H81.88C97.6734 33 105.57 33 111.602 36.0736C113.93 37.2596 116.067 38.7554 117.96 40.5089C119.426 41.8658 120.158 42.5443 120.8 44.3536C121.248 45.6147 121.294 48.0091 120.895 49.2864C120.323 51.119 119.234 52.2082 117.055 54.3864L86.8294 84.6124C85.0919 86.3498 82.2761 86.3498 80.5388 84.6124C77.7356 81.8093 72.9442 83.7955 72.9442 87.7606V107.993C72.9442 111.222 75.5611 113.84 78.789 113.84H99.0294C102.991 113.84 104.974 109.048 102.172 106.246C100.435 104.509 100.435 101.692 102.172 99.9543L124.884 77.2432C125.665 76.4617 127 77.0147 127 78.1201V81.8801C127 97.6735 127 105.57 123.926 111.603C121.223 116.909 116.909 121.223 111.602 123.926C105.57 127 97.6734 127 81.88 127H78.12C62.3266 127 54.4298 127 48.3975 123.926C46.4874 122.953 44.7059 121.771 43.0818 120.41C41.5128 119.094 40.7285 118.436 40.0019 116.593C39.4971 115.313 39.3888 112.839 39.7795 111.519C40.3417 109.62 41.4624 108.499 43.7035 106.258L73.6302 76.3278C75.3675 74.5905 78.1835 74.5903 79.921 76.3278C82.724 79.1307 87.5152 77.1447 87.5152 73.1797V52.9475C87.5152 49.7181 84.8985 47.1 81.6704 47.1H61.4302C57.4687 47.1 55.4854 51.8923 58.2872 54.694C60.0243 56.4311 60.0245 59.2485 58.2874 60.9858L36.1081 83.1671C34.96 84.3154 33 83.5041 33 81.8801V78.1201Z" fill="url(#paint0_linear_1133_72)"/>
<defs>
<linearGradient id="paint0_linear_1133_72" x1="127" y1="33.0001" x2="30.9336" y2="35.1616" gradientUnits="userSpaceOnUse">
<stop stop-color="#FF8C00"/>
<stop offset="1" stop-color="#FF6B00"/>
</linearGradient>
</defs>
</svg>
