<svg width="160" height="160" viewBox="0 0 160 160" fill="none" xmlns="http://www.w3.org/2000/svg">
<mask id="mask0_1133_75" style="mask-type:luminance" maskUnits="userSpaceOnUse" x="29" y="29" width="102" height="102">
<path d="M29.1074 29.1914H130.999V130.809H29.1074V29.1914Z" fill="white"/>
</mask>
<g mask="url(#mask0_1133_75)">
<path d="M35.0871 40.4713C36.4621 38.409 38.2318 36.6395 40.2942 35.2647C42.3566 33.8899 44.6708 32.9371 47.1034 32.4613C68.8055 28.1238 91.1493 28.1013 112.86 32.3952C115.293 32.8793 117.608 33.8346 119.674 35.2075C121.738 36.5714 123.512 38.3319 124.89 40.3869C126.269 42.4419 127.225 44.7503 127.704 47.1781C132.058 68.8148 132.085 91.0994 127.785 112.747L127.765 112.742C127.046 116.405 125.251 119.77 122.61 122.408C119.968 125.046 116.6 126.836 112.936 127.55C91.2353 131.883 68.894 131.904 47.1847 127.614C44.7515 127.133 42.4364 126.18 40.3712 124.806C38.306 123.44 36.5327 121.677 35.1542 119.62C33.7757 117.563 32.8194 115.253 32.3409 112.823C27.9925 91.188 27.9683 68.9063 32.2697 47.2619C32.7515 44.835 33.71 42.5278 35.0896 40.4738L35.0871 40.4713Z" fill="#1CA8E3"/>
</g>
<path d="M107.421 104.258C107.465 104.215 107.499 104.165 107.523 104.11C107.547 104.054 107.56 103.994 107.561 103.934C107.561 103.873 107.55 103.813 107.528 103.757C107.505 103.701 107.471 103.65 107.429 103.607L103.557 99.7432C103.478 99.6647 103.371 99.6199 103.259 99.618C103.148 99.6162 103.04 99.6573 102.958 99.733C101.796 100.749 100.285 101.274 98.7439 101.197C97.2026 101.119 95.7517 100.446 94.6977 99.3189C93.6437 98.1917 93.0691 96.6989 93.0953 95.1559C93.1216 93.6129 93.7466 92.1405 94.8384 91.0498C95.9254 90.0206 97.3516 89.4248 98.8477 89.3747C100.344 89.3246 101.807 89.8237 102.96 90.7779C103.042 90.8527 103.149 90.8933 103.259 90.8914C103.37 90.8896 103.476 90.8453 103.555 90.7678L107.436 86.8987C107.479 86.8557 107.513 86.8046 107.535 86.7483C107.558 86.6921 107.569 86.632 107.568 86.5714C107.567 86.5108 107.554 86.451 107.53 86.3955C107.505 86.3401 107.47 86.29 107.426 86.2483C105.675 84.6249 103.488 83.5474 101.134 83.1481C98.7795 82.7487 96.3598 83.0447 94.1711 83.9998C91.9824 84.9549 90.1199 86.5277 88.8116 88.5254C87.5033 90.5232 86.8061 92.8591 86.8054 95.2471C86.8048 97.6351 87.5006 99.9715 88.8078 101.97C90.1149 103.968 91.9766 105.542 94.1647 106.499C96.3529 107.455 98.7724 107.752 101.127 107.354C103.482 106.956 105.669 105.88 107.421 104.258ZM73.1684 73.7595C73.2119 73.7175 73.2466 73.6673 73.2706 73.6117C73.2946 73.5562 73.3073 73.4964 73.308 73.4359C73.3087 73.3755 73.2974 73.3154 73.2747 73.2593C73.2521 73.2032 73.2185 73.1522 73.176 73.1092L69.2968 69.2477C69.2175 69.1705 69.1116 69.1267 69.001 69.1253C68.8904 69.1239 68.7835 69.165 68.7023 69.2401C67.5479 70.1933 66.0846 70.6911 64.5884 70.6396C63.0923 70.5881 61.6666 69.9909 60.5805 68.9606C59.4666 67.8459 58.841 66.3346 58.841 64.7587C58.841 63.1829 59.4666 61.6716 60.5805 60.5569C61.6494 59.4955 63.0795 58.8769 64.5849 58.8246C66.0902 58.7723 67.5598 59.2903 68.6997 60.2749C68.7814 60.3504 68.8891 60.3915 69.0003 60.3896C69.1115 60.3877 69.2177 60.343 69.2968 60.2647L73.1735 56.3956C73.2166 56.3529 73.2507 56.302 73.2738 56.2459C73.2968 56.1897 73.3083 56.1295 73.3076 56.0688C73.3069 56.0081 73.294 55.9482 73.2696 55.8926C73.2453 55.837 73.21 55.7869 73.1658 55.7453C70.8246 53.5883 67.7412 52.4182 64.5583 52.4788C61.3755 52.5394 58.3389 53.826 56.0814 56.0704C53.8287 58.3568 52.559 61.4331 52.5431 64.6428C52.5273 67.8524 53.7666 70.9411 55.9965 73.2497C58.2265 75.5582 61.2704 76.9037 64.4787 76.9989C67.687 77.0942 70.8054 75.9317 73.1684 73.7595ZM57.2855 107.225L107.449 57.206C107.49 57.1651 107.523 57.1165 107.546 57.0628C107.568 57.0092 107.58 56.9517 107.58 56.8935C107.58 56.8354 107.568 56.7779 107.546 56.7242C107.523 56.6706 107.49 56.6219 107.449 56.5811L103.577 52.7196C103.536 52.6782 103.488 52.6453 103.434 52.6229C103.38 52.6005 103.322 52.5889 103.264 52.5889C103.205 52.5889 103.148 52.6005 103.094 52.6229C103.04 52.6453 102.991 52.6782 102.95 52.7196L52.7839 102.736C52.7426 102.777 52.7098 102.825 52.6874 102.879C52.665 102.933 52.6534 102.99 52.6534 103.048C52.6534 103.106 52.665 103.164 52.6874 103.218C52.7098 103.271 52.7426 103.32 52.7839 103.361L56.6581 107.222C56.7416 107.304 56.8537 107.35 56.9705 107.35C57.0873 107.35 57.1995 107.304 57.283 107.222L57.2855 107.225Z" fill="white"/>
</svg>
