<svg width="160" height="160" viewBox="0 0 160 160" fill="none" xmlns="http://www.w3.org/2000/svg">
<path fill-rule="evenodd" clip-rule="evenodd" d="M82.762 49.252H67.4102V109.837H82.3317V71.6659L101.196 94.004L120.079 71.571V109.843H135V49.252H119.636L101.196 71.147L82.762 49.252ZM121.363 52.9602L101.196 76.9119L81.0345 52.9602H71.1184V106.135H78.6235V61.5221L101.189 88.2455L123.781 61.4145V106.135H131.292V52.9602H121.363Z" fill="#2DBE64"/>
<path d="M60.2979 84.563C59.1142 82.1289 57.2559 80.0861 54.9444 78.6779C59.1525 75.6784 61.2724 71.4449 61.2724 65.9585C61.2724 60.5923 59.5196 56.4981 56.0075 53.6757C52.4891 50.7332 48.0152 49.2461 42.573 49.2461H25V109.844H42.5604C48.1734 109.844 52.8561 108.306 56.6023 105.249C60.2853 102.199 62.1394 97.9026 62.1394 92.3529C62.1394 89.6508 61.5129 86.974 60.2979 84.563ZM39.9216 63.9652H42.5604C43.0545 63.9513 43.5458 64.0449 44.0003 64.2393C44.4548 64.4338 44.8616 64.7246 45.1928 65.0916C45.5609 65.4144 45.8536 65.8141 46.0504 66.2624C46.2472 66.7106 46.3433 67.1966 46.3319 67.6861C46.3319 68.6732 45.9522 69.5275 45.1928 70.2806C44.8467 70.6221 44.435 70.89 43.9826 71.0684C43.5302 71.2467 43.0465 71.3318 42.5604 71.3184H39.9279L39.9216 63.9652ZM45.813 93.821C45.3882 94.2447 44.8823 94.5785 44.3257 94.8025C43.769 95.0264 43.1729 95.136 42.573 95.1245H39.9406V86.0438H42.573C43.1817 86.0324 43.7859 86.1494 44.3463 86.3871C44.9067 86.6248 45.4107 86.9778 45.8257 87.4233C46.2666 87.8324 46.6181 88.3283 46.8581 88.8798C47.098 89.4314 47.2213 90.0266 47.2201 90.6281C47.2189 91.2295 47.0933 91.8243 46.8511 92.3748C46.609 92.9254 46.2555 93.4199 45.813 93.8273V93.821Z" fill="#2DBE64"/>
</svg>
