<svg width="160" height="160" viewBox="0 0 160 160" fill="none" xmlns="http://www.w3.org/2000/svg">
<g clip-path="url(#clip0_1335_33)">
<path fill-rule="evenodd" clip-rule="evenodd" d="M77.5931 35.0216C66.2385 35.2281 53.9943 37.0364 41.8849 40.2953C40.8685 40.5688 40.7086 40.6262 40.5689 40.7672L40.4099 40.9277L40.3968 56.4788L40.3836 72.03H38.2422H36.1007V73.5406V75.0512L31.0541 75.0645L26.0076 75.0779L28.9108 80.34C30.5076 83.2341 31.8634 85.696 31.9238 85.8105L32.0335 86.019L29.0167 91.4893L26 96.9599L33.2921 96.9735L40.5843 96.9865L40.612 97.2078C41.2003 101.911 42.2483 105.527 44.1487 109.412C46.5701 114.362 49.9467 118.597 54.2407 122.072C62.5516 128.796 73.3968 131.905 84.5859 130.771C88.3872 130.386 92.2119 129.446 95.7073 128.037C102.451 125.321 108.196 120.895 112.416 115.167C116.155 110.09 118.583 103.969 119.325 97.7498L119.416 96.9859H126.708C130.719 96.9859 134 96.9776 134 96.9672C134 96.9511 128.548 87.0484 128.115 86.2782L127.968 86.0162L130.981 80.547L133.996 75.0779L128.953 75.0517L123.911 75.0257L123.897 73.5277L123.883 72.03H121.743H119.601V56.5169C119.601 41.4316 119.598 40.9994 119.504 40.8434C119.451 40.7551 119.341 40.6559 119.259 40.6229C118.862 40.4615 114.467 39.3368 112.196 38.8154C100.213 36.0635 88.8434 34.817 77.5931 35.0216ZM85.231 36.3913C94.5177 36.8179 103.275 38.0518 112.609 40.2486C114.231 40.6303 117.621 41.4915 118.274 41.6876C118.362 41.714 118.366 42.379 118.352 56.8595L118.337 72.0039H117.228H116.118L116.092 58.247C116.068 45.5021 116.06 44.4802 115.98 44.357C115.866 44.181 115.822 44.1652 114.234 43.7386C95.65 38.7425 82.2284 37.5042 67.1167 39.3917C60.9812 40.158 54.1857 41.5183 46.9638 43.4257L46.8962 43.4436C44.4634 44.0861 44.2505 44.1423 44.1098 44.276C44.0962 44.2888 44.0835 44.3024 44.0694 44.3172L44.0655 44.3213L43.9193 44.4754L43.9061 58.2527L43.8928 72.03H42.7835H41.6743V56.8725V41.7153L41.842 41.661C42.1601 41.5583 44.2325 41.0193 45.6738 40.6646C53.1208 38.8318 60.5456 37.5578 67.6587 36.8923C70.9372 36.5856 73.1382 36.4529 77.1545 36.3198C78.1638 36.2864 84.0888 36.3388 85.231 36.3913ZM81.1281 55.9308V72.0039H80.0187H78.909L78.8961 55.9828C78.8889 47.1713 78.894 39.9321 78.9074 39.8957C78.927 39.8444 79.18 39.8327 80.0304 39.8436L81.1281 39.8576V55.9308ZM77.6188 55.9568V72.0039L61.4013 72.0169L45.1836 72.0301V58.6438V45.2575L45.4546 45.1795C46.0401 45.0109 47.7695 44.5583 49.4412 44.1361C57.2814 42.1564 64.3956 40.8821 70.9874 40.277C73.2948 40.0652 76.1501 39.8916 77.1287 39.9037L77.6188 39.9097V55.9568ZM85.8502 40.0164C92.7062 40.4321 99.6563 41.5195 107.809 43.4524C110.253 44.0319 114.567 45.1508 114.761 45.2558C114.85 45.3039 114.854 45.8508 114.841 58.6549L114.828 72.0039H98.6231H82.4184L82.4055 55.936L82.3925 39.868L83.4892 39.9038C84.0925 39.9236 85.155 39.9742 85.8502 40.0164ZM73.1631 46.8686C73.0967 46.8955 72.9108 47.0365 72.7503 47.1821C72.0388 47.8268 70.5263 48.6839 69.272 49.153C68.1311 49.5797 66.8242 49.9006 65.3956 50.1049C64.6522 50.2112 64.3812 50.2177 59.8645 50.2376C59.478 50.2393 59.1215 50.2411 58.7921 50.2427C55.9216 50.2573 55.1052 50.2614 54.323 50.0983C54.0123 50.0335 53.7067 49.9423 53.28 49.8148C53.1566 49.7779 53.0232 49.7381 52.8766 49.695C50.7773 49.0777 50.757 49.0731 50.4239 49.1437C49.8364 49.2681 49.4262 49.5678 49.1699 50.0597C49.0426 50.3039 49.029 50.3824 49.0287 50.877C49.0284 51.5398 49.122 51.8295 49.4517 52.1855C49.7289 52.4845 50.1027 52.6551 50.5531 52.6882L50.5566 52.6884C50.6251 52.6935 50.6806 52.6975 50.7361 52.6969C50.9722 52.6943 51.2075 52.6064 52.4445 52.1441L52.4603 52.1383C52.8434 51.9951 53.2324 51.8618 53.3247 51.8423L53.4924 51.8065L53.4953 59.0918C53.4976 64.594 53.5133 66.4211 53.5598 66.5575C53.6356 66.7794 53.9106 66.9761 54.1453 66.9761C54.2503 66.9761 55.4017 66.5386 57.0726 65.8637L59.8269 64.7512L62.5812 65.8637C64.096 66.4755 65.4007 66.9761 65.4804 66.9761C65.6893 66.9761 65.9189 66.8403 66.0351 66.6479C66.1338 66.4846 66.1359 66.3292 66.1361 59.1422L66.1362 51.8031L66.3298 51.8382C67.8515 52.1131 69.7137 52.7496 70.9357 53.4125C71.5506 53.746 72.2881 54.2402 72.7337 54.6174C73.1754 54.9911 73.3693 55.0521 73.6743 54.9133C73.8311 54.8419 73.9378 54.7259 74.1412 54.4058C75.5214 52.2335 75.5103 49.5478 74.1119 47.3524C73.8024 46.8667 73.5216 46.7235 73.1631 46.8686ZM73.4649 48.9495C74.0214 50.3111 74.0037 51.6576 73.4117 52.9896L73.2603 53.3306L72.9882 53.1282C71.9911 52.3864 70.5693 51.684 69.0136 51.1644L68.2012 50.8931L68.8847 50.6706C70.3387 50.1971 71.6418 49.5845 72.6388 48.9051C72.9653 48.6828 73.2487 48.5139 73.2687 48.53C73.2888 48.546 73.377 48.7348 73.4649 48.9495ZM89.5917 48.6564C89.5066 48.695 89.3904 48.7791 89.3337 48.8433C89.2373 48.9528 89.2289 49.0538 89.2047 50.4785L89.1789 51.997L88.2731 52.0232C87.5114 52.045 87.3448 52.0644 87.2241 52.1445C87.2101 52.1537 87.1967 52.1619 87.1838 52.1695C87.1656 52.1806 87.1486 52.1908 87.1332 52.2025C86.9334 52.3537 86.9334 52.7735 86.9339 58.5493C86.9339 58.8672 86.9339 59.2014 86.9339 59.5527C86.9339 59.9107 86.9339 60.2506 86.9339 60.5736C86.9334 66.2864 86.9334 66.6535 87.1151 66.8305C87.126 66.8408 87.1368 66.8505 87.1486 66.8606C87.1625 66.872 87.1771 66.884 87.1925 66.898C87.3051 67.0009 87.4 67.0025 94.9775 67.0282L102.648 67.0542L102.674 68.0233C102.694 68.756 102.718 69.0143 102.774 69.0818C102.911 69.2486 103.143 69.3337 103.386 69.3062C103.589 69.2831 103.661 69.2342 104.011 68.8831L104.406 68.4863L104.663 68.7531C105.073 69.1794 105.29 69.321 105.533 69.3189C105.791 69.3166 105.951 69.2325 106.083 69.0307C106.172 68.894 106.183 68.7793 106.184 67.9531V67.0282H108.201H108.225C109.997 67.0282 110.329 67.0282 110.489 66.8609C110.525 66.8225 110.553 66.7752 110.587 66.7169L110.589 66.7135C110.666 66.5819 110.673 65.9548 110.673 59.5438C110.672 54.0283 110.658 52.4905 110.607 52.3895C110.572 52.3187 110.464 52.2073 110.368 52.142C110.204 52.0301 110.144 52.0232 109.327 52.0232H108.46L108.444 50.5513C108.427 48.9043 108.413 48.8314 108.07 48.6674C107.904 48.5876 107.566 48.5814 104.21 48.596C100.568 48.6119 100.529 48.6132 100.194 48.7278C99.7992 48.8624 99.3094 49.1681 99.019 49.4613L98.8151 49.6672L98.5323 49.3972C98.2247 49.1038 97.8046 48.8569 97.3587 48.7081C97.0971 48.6207 96.793 48.6123 93.4107 48.5998C90.4267 48.5887 89.7182 48.5992 89.5917 48.6564ZM97.1136 50.0098C97.4299 50.133 97.8365 50.5041 97.9779 50.7985C98.0394 50.9261 98.1199 51.2236 98.1571 51.4598C98.2163 51.8311 98.2469 51.9085 98.3862 52.0341C98.5177 52.1528 98.5956 52.1794 98.8098 52.1794C99.0379 52.1794 99.0942 52.157 99.2435 52.0065C99.4117 51.8366 99.4328 51.7733 99.5004 51.2358C99.5608 50.7528 100.046 50.1755 100.55 49.9876C100.7 49.9315 101.401 49.9134 103.926 49.9001L107.112 49.8833V56.6558V63.4282L103.823 63.4448C100.584 63.4611 100.527 63.4632 100.194 63.5768C99.793 63.7131 99.3017 64.0218 99.0221 64.3132L98.8213 64.5218L98.5249 64.2432C98.2019 63.9398 97.8025 63.7048 97.3587 63.5571C97.0992 63.4707 96.7956 63.4612 93.7849 63.4454L90.4948 63.4282V56.6558V49.8833L93.6816 49.8989C96.6228 49.9134 96.8874 49.9219 97.1136 50.0098ZM50.9007 50.6093C51.063 50.6913 51.2846 50.7874 51.3929 50.8229C51.5013 50.8584 51.5778 50.8995 51.5631 50.9143C51.5247 50.9531 50.7004 51.2972 50.57 51.3289C50.3173 51.3903 50.1941 50.8613 50.3998 50.5974C50.4586 50.5219 50.5289 50.4601 50.5561 50.4601C50.5831 50.4601 50.7382 50.5273 50.9007 50.6093ZM64.33 51.6427C64.383 51.6991 63.4929 52.4762 63.0627 52.7491C60.9876 54.0653 58.1843 53.968 56.2241 52.5114C55.8384 52.2248 55.3649 51.7832 55.2883 51.6388C55.2359 51.5401 55.3048 51.5392 59.7696 51.5769C62.2636 51.5979 64.3158 51.6275 64.33 51.6427ZM55.5567 53.6629C56.3277 54.2273 57.3596 54.6647 58.3951 54.8663C59.0653 54.9966 60.5413 54.9991 61.2335 54.8709C62.4397 54.6476 63.6197 54.0941 64.5436 53.3183C64.6753 53.2078 64.7977 53.1173 64.8159 53.1173C64.8339 53.1173 64.8422 53.5081 64.8343 53.986L64.8203 54.8548L60.0262 56.875C57.3894 57.9861 55.1425 58.9313 55.0332 58.9756L54.8342 59.056V56.08V53.104L55.0019 53.2418C55.0942 53.3176 55.3439 53.507 55.5567 53.6629ZM92.888 53.3214C92.6614 53.4608 92.5592 53.6286 92.5592 53.8609C92.5592 54.1208 92.6784 54.3463 92.8672 54.445C93.0929 54.5627 96.6708 54.5627 96.8963 54.445C97.1982 54.2872 97.3065 53.7839 97.0961 53.514C96.8704 53.2245 96.8478 53.2215 94.8713 53.2218C93.1691 53.2219 93.0392 53.2284 92.888 53.3214ZM89.2047 58.8918L89.2306 64.4316L89.3993 64.5838L89.5675 64.7358H93.0912C96.9432 64.7358 97.0093 64.7403 97.4345 65.0379C97.6353 65.1782 97.9779 65.5822 97.9779 65.6779C97.9779 65.7073 96.0778 65.7211 93.114 65.713L88.2499 65.6997L88.2371 59.5778C88.2293 56.2108 88.235 53.4257 88.2489 53.3887C88.2676 53.3394 88.3939 53.3256 88.7269 53.3366L89.1789 53.3518L89.2047 58.8918ZM109.383 59.5257V65.7257H107.781H106.18L106.194 65.2437L106.209 64.7618L107.148 64.7358C108.052 64.7107 108.09 64.7053 108.218 64.5833C108.291 64.5138 108.374 64.3732 108.403 64.2707C108.435 64.1531 108.454 62.105 108.454 58.7052V53.3257H108.919H109.383V59.5257ZM92.8921 55.5948C92.4627 55.8087 92.4472 56.5182 92.8672 56.7375C93.0929 56.8551 96.6708 56.8551 96.8963 56.7375C97.3199 56.516 97.2993 55.8021 96.8627 55.593C96.6191 55.4761 93.1269 55.4778 92.8921 55.5948ZM64.8352 56.7931L64.8203 57.2388L60.1241 59.2161C57.5411 60.3036 55.2942 61.2513 55.131 61.3219L54.8342 61.4504V60.9901V60.5297L59.7757 58.4427C62.4935 57.2949 64.747 56.354 64.7836 56.3517C64.8342 56.3486 64.8465 56.4549 64.8352 56.7931ZM92.8564 57.8879C92.5758 58.042 92.4709 58.4987 92.6475 58.8005C92.8229 59.1001 92.8869 59.1089 94.9073 59.1089C96.5201 59.1089 96.7673 59.0983 96.8922 59.0236C97.3041 58.7781 97.306 58.0996 96.8963 57.8854C96.6734 57.7692 93.0691 57.7715 92.8564 57.8879ZM64.8461 62.0266C64.8461 64.1863 64.8285 65.3088 64.7943 65.3088C64.7659 65.3088 63.6688 64.8752 62.3564 64.3451C61.044 63.815 59.9063 63.3812 59.8281 63.3812C59.7498 63.3812 58.6348 63.8062 57.3503 64.3257C56.0659 64.8453 54.9738 65.2818 54.9235 65.296C54.838 65.3201 54.8332 65.2475 54.8461 64.1121L54.8601 62.9026L59.7886 60.8246C62.4993 59.6819 64.7461 58.7462 64.7815 58.7455C64.8325 58.7444 64.8461 59.4346 64.8461 62.0266ZM102.648 65.2307V65.6997L101.139 65.7135C100.238 65.7216 99.6295 65.7078 99.6295 65.679C99.6295 65.5573 100.051 65.1123 100.29 64.9808C100.661 64.7772 100.88 64.7449 101.823 64.754L102.648 64.7618V65.2307ZM104.882 65.8951C104.889 66.5183 104.886 67.0282 104.875 67.0282C104.863 67.0282 104.787 66.9932 104.706 66.9504C104.517 66.8507 104.309 66.851 104.117 66.9514L103.964 67.0308V65.8812V64.7317L104.416 64.7468L104.868 64.7618L104.882 65.8951ZM122.621 82.9971V92.6355H80.0187H37.4167L37.4037 82.9841L37.3906 73.3323L80.0057 73.3453L122.621 73.3585V82.9971ZM36.1007 85.1333V93.9119H38.244C39.9137 93.9119 40.3918 93.9266 40.4072 93.9772C40.4181 94.0131 40.4402 94.4116 40.4563 94.8628L40.4856 95.6834H34.3452C30.9679 95.6834 28.2048 95.6735 28.2048 95.6616C28.2048 95.6495 29.3926 93.4863 30.8444 90.8552C32.2962 88.2242 33.4845 86.0458 33.485 86.015C33.4855 85.9841 32.3241 83.8507 30.904 81.2738C29.4839 78.6971 28.2948 76.5359 28.2616 76.4715L28.2012 76.3544H32.1509H36.1007V85.1333ZM131.767 76.4207C131.753 76.4574 130.598 78.5617 129.2 81.0969C127.802 83.6321 126.624 85.7799 126.581 85.8697L126.503 86.0333L129.113 90.7672C130.549 93.3713 131.739 95.5423 131.758 95.5928C131.791 95.6798 131.487 95.6834 125.661 95.6709L119.53 95.6574L119.545 95.1364C119.554 94.8498 119.576 94.4632 119.594 94.2767L119.627 93.938L121.756 93.9245L123.885 93.911V85.1675C123.885 80.3584 123.9 76.4081 123.92 76.389C123.939 76.37 125.718 76.3544 127.873 76.3544C131.031 76.3544 131.787 76.3672 131.767 76.4207ZM43.9149 94.0293C43.928 94.0939 43.9514 94.5029 43.9671 94.9378C44.065 97.6486 44.659 100.886 45.5791 103.725C48.904 113.984 56.9895 121.954 67.6477 125.479C76.2853 128.336 86.1228 128.084 94.417 124.794C107.107 119.761 115.293 108.505 116.042 95.0583C116.073 94.4997 116.108 94.0125 116.12 93.9761C116.137 93.925 116.383 93.9131 117.214 93.924L118.286 93.938L118.273 94.6414C118.235 96.6009 117.823 99.5462 117.279 101.731C115.889 107.312 113.331 112.255 109.569 116.628C108.892 117.415 107.305 119.04 106.493 119.777C100.588 125.14 93.0356 128.508 84.8181 129.442C83.0613 129.641 82.3017 129.679 80.0702 129.678C77.8552 129.677 77.21 129.644 75.3999 129.442C64.8478 128.26 55.4555 123.098 49.1748 115.027C45.0566 109.736 42.5176 103.341 41.8566 96.5952C41.7648 95.659 41.6725 94.011 41.7085 93.9512C41.7214 93.9297 42.2179 93.9119 42.8117 93.9119C43.89 93.9119 43.8915 93.9126 43.9149 94.0293ZM77.6317 109.974C77.6436 124.149 77.6358 126.013 77.5679 126.04C77.4532 126.084 75.8075 125.92 74.5745 125.742C70.55 125.161 66.8914 124.019 63.3237 122.231C61.8192 121.478 60.9526 120.976 59.6337 120.094C51.5446 114.688 46.4581 106.349 45.3948 96.7514C45.2765 95.6834 45.1684 94.0314 45.2121 93.9599C45.2299 93.9308 51.6371 93.9171 61.4302 93.925L77.6188 93.938L77.6317 109.974ZM81.1281 110.037V126.136L80.1735 126.152C79.6485 126.16 79.1434 126.154 79.0509 126.136L78.8832 126.106V110.044C78.8832 101.21 78.8992 93.9656 78.9188 93.9459C78.9385 93.9261 79.4431 93.9167 80.0412 93.9245L81.1281 93.938V110.037ZM114.766 94.6414C114.761 95.0285 114.731 95.6382 114.699 95.9961C113.849 105.617 109.091 113.961 101.257 119.572C97.1797 122.49 92.2686 124.547 87.0748 125.509C85.6371 125.775 83.3534 126.058 82.6413 126.058H82.3925V110.02C82.3925 101.199 82.4081 93.9661 82.4271 93.9469C82.4462 93.9276 89.7326 93.9178 98.6189 93.925L114.776 93.938L114.766 94.6414ZM97.8686 98.4093C97.243 98.6459 96.9459 99.0772 96.9459 99.7499C96.9459 100.122 97.1352 100.517 97.4309 100.762L97.6487 100.942L97.3391 103.276L97.0295 105.61L96.6758 105.698C96.2088 105.814 95.8451 105.987 95.5142 106.253C95.2645 106.454 94.8651 106.909 94.8201 107.045C94.8021 107.101 94.4573 107.014 93.2559 106.648L92.843 106.522L92.8379 106.22C92.8157 104.985 91.3119 104.388 90.4397 105.269C90.0216 105.691 89.9092 106.391 90.1749 106.916C90.3029 107.17 90.6436 107.491 90.9005 107.601C91.1834 107.721 91.7097 107.706 92.0183 107.568L92.2753 107.452L93.3591 107.772L94.4429 108.093V108.58C94.4429 109.025 94.4335 109.071 94.3396 109.095C93.4319 109.321 88.9105 110.234 88.7253 110.228C88.2959 110.214 88.0694 110.399 88.0694 110.765C88.0694 111.017 88.1875 111.183 88.4389 111.285C88.6464 111.369 88.6629 111.366 91.7484 110.714C94.5636 110.12 94.8536 110.067 94.8981 110.147C94.9243 110.195 95.0249 110.322 95.121 110.429L95.2949 110.624L94.1781 112.649C93.5635 113.763 93.0246 114.704 92.9808 114.739C92.9369 114.775 92.8296 114.805 92.7429 114.805C92.5241 114.806 92.1009 115.015 91.8924 115.225C91.4707 115.651 91.3413 116.419 91.5987 116.967C91.861 117.524 92.341 117.824 92.9721 117.824C93.4288 117.824 93.7204 117.712 94.0233 117.42C94.3314 117.123 94.4681 116.784 94.4671 116.315C94.4666 115.895 94.3784 115.629 94.1333 115.304L93.9991 115.127L94.9884 113.338C95.5329 112.354 96.0215 111.476 96.0742 111.387L96.1707 111.225L96.4422 111.318C96.5913 111.369 96.8452 111.426 97.0057 111.445C97.0345 111.449 97.0609 111.451 97.0846 111.453C97.1507 111.458 97.1982 111.463 97.2339 111.485C97.3225 111.541 97.3422 111.71 97.4088 112.298C97.4186 112.384 97.4294 112.478 97.4412 112.582C97.5125 113.195 97.5187 113.39 97.4706 113.523C97.3674 113.812 97.3954 113.967 97.5858 114.158C97.7158 114.29 97.8061 114.336 97.9341 114.336C98.1504 114.336 98.4214 114.173 98.4713 114.014C98.4921 113.947 98.5384 113.87 98.5735 113.841C98.6246 113.799 98.6066 113.53 98.4847 112.54C98.4006 111.852 98.3517 111.284 98.3769 111.275C98.5793 111.207 99.1314 110.815 99.3786 110.564L99.6805 110.257L100.287 110.63L100.292 110.633C102.431 111.947 102.662 112.089 102.754 112.294C102.765 112.319 102.774 112.345 102.785 112.373C102.907 112.719 103.005 112.855 103.252 113.021C103.442 113.147 103.515 113.163 103.887 113.163C104.261 113.163 104.332 113.147 104.525 113.018C105.249 112.535 105.188 111.419 104.416 111.031C104.065 110.854 103.71 110.852 103.372 111.025L103.123 111.152L101.614 110.215L100.106 109.278L100.156 109.059C100.205 108.847 100.183 108.064 100.122 107.849C100.097 107.76 100.277 107.622 101.329 106.918C102.336 106.245 102.581 106.058 102.651 105.909C102.831 105.527 102.591 105.082 102.175 105.026C101.897 104.989 101.671 105.113 101.538 105.376C101.451 105.548 101.275 105.69 100.537 106.187L99.6403 106.79L99.4158 106.543C99.1484 106.248 98.6974 105.942 98.3392 105.812C98.1973 105.761 98.0812 105.688 98.0812 105.652C98.0812 105.558 98.6442 101.317 98.6799 101.14C98.7 101.041 98.7691 100.965 98.8992 100.898C99.8488 100.409 99.8435 98.9793 98.8899 98.4885C98.6256 98.352 98.1235 98.3135 97.8686 98.4093ZM54.386 98.5959C54.2955 98.6532 54.197 98.7464 54.1671 98.8027C54.1371 98.859 53.4389 100.724 52.6155 102.946C51.679 105.474 51.1185 107.056 51.1185 107.173C51.1185 107.416 51.2398 107.647 51.4162 107.739C51.5924 107.831 53.333 108.472 53.8537 108.637C54.2921 108.776 54.4225 108.786 54.655 108.701C54.7989 108.649 54.8453 108.658 55.0379 108.774L55.2574 108.906L55.2662 109.393C55.2762 109.947 55.3654 110.179 55.6938 110.511C55.9062 110.725 56.3395 110.948 56.5465 110.949C56.6625 110.949 56.7046 110.993 56.8103 111.223C57.0739 111.796 57.5391 112.097 58.222 112.136C58.5954 112.157 58.6495 112.173 58.706 112.28C58.887 112.621 59.5765 112.929 60.1614 112.929C60.5341 112.929 60.5384 112.931 60.7433 113.146C60.8568 113.264 61.0761 113.421 61.2307 113.493C61.5772 113.654 62.142 113.701 62.4464 113.596L62.6527 113.524L62.9812 113.824C63.3798 114.189 63.7309 114.336 64.2024 114.336C64.7689 114.336 65.3637 114.019 65.5879 113.599L65.6813 113.424L66.1186 113.443C66.5232 113.46 66.5803 113.449 66.8836 113.298C67.1874 113.147 67.3899 112.968 67.5813 112.68C67.6523 112.573 67.6756 112.568 67.8651 112.622C67.9786 112.654 68.2224 112.67 68.407 112.656C68.9248 112.619 69.3669 112.349 69.6518 111.895L69.7955 111.666L70.1484 111.655C70.7958 111.635 71.3299 111.28 71.5983 110.693C71.836 110.173 71.7711 109.474 71.442 109.008C71.3639 108.897 71.3512 108.842 71.3935 108.799C71.4359 108.756 71.4891 108.777 71.5948 108.88C71.8437 109.121 72.0101 109.148 72.4513 109.023C72.8092 108.922 74.3856 108.355 74.8088 108.176C75.0662 108.066 75.2707 107.805 75.2707 107.585C75.2707 107.404 72.3968 99.5795 72.2391 99.3306C72.1116 99.13 72.0121 99.0737 71.7825 99.072C71.6012 99.0706 71.3886 99.1804 70.2735 99.8516L68.9753 100.633H68.1727H67.3701L66.508 100.222C65.3295 99.6609 64.9769 99.5388 64.5318 99.5388C64.1189 99.5388 63.7406 99.6524 63.1441 99.9552C62.2219 100.424 60.1147 100.598 58.3177 100.355C57.8796 100.296 57.8224 100.273 57.3113 99.95C57.0133 99.7614 56.3657 99.3654 55.872 99.071C54.8754 98.4755 54.676 98.4119 54.386 98.5959ZM55.7929 100.636C56.1768 100.896 56.5031 101.139 56.518 101.178C56.5885 101.364 55.8469 103.767 55.3767 104.876C54.9705 105.835 54.2569 107.186 54.1073 107.279C54.0555 107.311 52.7413 106.862 52.6511 106.781C52.6138 106.748 55.0247 100.164 55.0743 100.164C55.0857 100.164 55.4091 100.377 55.7929 100.636ZM71.5043 101.037C72.2433 103.023 73.7193 107.032 73.7321 107.086C73.7432 107.135 73.5257 107.237 73.0414 107.41L72.3345 107.662L72.1491 107.365C71.61 106.501 70.8601 104.801 70.4541 103.523C70.2294 102.816 69.9401 101.695 69.9639 101.624C69.9801 101.574 71.2811 100.751 71.3579 100.742C71.377 100.739 71.443 100.872 71.5043 101.037ZM65.2331 101.096C65.5453 101.235 66.0678 101.475 66.3943 101.63L66.9878 101.91L67.8255 101.926L68.6629 101.943L68.7127 102.135C68.74 102.24 68.8114 102.526 68.8713 102.769C69.1863 104.05 69.7842 105.663 70.3859 106.858L70.6074 107.298C70.7001 107.482 70.7627 107.606 70.767 107.615C70.7742 107.629 70.6842 107.696 70.567 107.764L70.354 107.886L67.8057 105.315L65.2573 102.743L64.5025 102.751C64.0873 102.755 63.574 102.775 63.3616 102.795C63.0265 102.827 62.9525 102.853 62.7979 102.996C62.6426 103.14 62.6146 103.205 62.577 103.511C62.4965 104.167 62.2034 104.554 61.5511 104.867C61.2322 105.02 60.7284 105.09 60.6338 104.995C60.6133 104.974 60.7573 104.723 60.9537 104.438C61.5327 103.596 61.5533 103.55 61.5832 103.021L61.6096 102.553L61.8989 102.337C62.9285 101.566 64.1913 100.841 64.5025 100.842C64.592 100.842 64.9209 100.957 65.2331 101.096ZM59.3758 101.73C59.9575 101.763 60.4422 101.797 60.4525 101.807C60.463 101.818 60.4443 101.904 60.4111 101.998C60.378 102.093 60.3371 102.37 60.3201 102.613L60.2895 103.056L59.9135 103.629C59.1748 104.755 59.1005 105.006 59.3545 105.521C59.5147 105.845 59.7662 106.066 60.1498 106.219C60.5456 106.378 61.3325 106.376 61.7703 106.216C62.7434 105.859 63.484 105.162 63.7313 104.368L63.8213 104.079L64.2567 104.063L64.6921 104.046L67.5509 106.937C69.1233 108.528 70.4245 109.879 70.4423 109.941C70.4888 110.1 70.2774 110.337 70.0889 110.337C69.9683 110.337 69.6788 110.07 68.3352 108.715L66.726 107.094H66.4609C66.1454 107.094 65.9197 107.252 65.826 107.538C65.7049 107.909 65.7429 107.961 67.2256 109.467C68.2116 110.469 68.6134 110.911 68.6134 110.994C68.6134 111.144 68.3933 111.366 68.2435 111.366C68.1598 111.366 67.6849 110.922 66.5511 109.783C65.6843 108.912 64.9243 108.174 64.8623 108.142C64.6031 108.008 64.1755 108.144 64.0438 108.401C64.0026 108.481 63.9687 108.656 63.9687 108.788V109.03L64.996 110.106C65.5611 110.699 66.13 111.288 66.2604 111.416C66.5268 111.677 66.5677 111.868 66.3943 112.043C66.1791 112.26 66.0649 112.197 65.2976 111.431C64.7224 110.857 64.5513 110.653 64.4374 110.402C64.3593 110.23 64.2323 110.014 64.1554 109.923C63.9916 109.728 63.5683 109.507 63.2654 109.461C63.071 109.43 63.0415 109.404 62.9314 109.167C62.7812 108.843 62.3937 108.485 62.0756 108.375C61.9429 108.329 61.7109 108.292 61.5598 108.292C61.3003 108.292 61.2852 108.285 61.2852 108.16C61.2852 107.766 60.9205 107.418 60.3537 107.271C59.9693 107.172 59.5433 107.228 59.1972 107.423L58.9767 107.547L58.8484 107.385C58.7778 107.296 58.5947 107.153 58.4416 107.067C58.1899 106.926 58.1181 106.912 57.6985 106.912C57.1287 106.912 56.9319 107.003 56.4213 107.5L56.0733 107.84L55.9021 107.747L55.8677 107.728C55.6925 107.633 55.6051 107.586 55.5859 107.519C55.5668 107.452 55.6149 107.365 55.7111 107.192L55.7301 107.158C56.4879 105.795 57.2369 103.865 57.6533 102.204L57.8016 101.612L58.0596 101.642C58.2017 101.658 58.7939 101.698 59.3758 101.73ZM98.0704 106.957C98.431 107.143 98.7315 107.454 98.8992 107.816C99.0147 108.064 99.036 108.179 99.0339 108.552C99.0317 108.934 99.0106 109.037 98.8827 109.297C98.3548 110.366 97.0015 110.627 96.1273 109.829C96.0097 109.722 95.8398 109.481 95.7464 109.29C95.5988 108.987 95.5782 108.895 95.5787 108.527C95.5793 108.177 95.6031 108.062 95.7222 107.815C95.9519 107.342 96.3497 106.99 96.8426 106.827C96.9138 106.803 97.1574 106.791 97.3846 106.8C97.7117 106.812 97.8542 106.845 98.0704 106.957ZM57.9336 108.322C58.0842 108.435 58.1559 108.452 58.4034 108.439C58.668 108.424 58.7058 108.436 58.8042 108.562C58.9343 108.729 59.2244 108.836 59.4332 108.794C59.5163 108.777 59.668 108.706 59.7701 108.636C59.9622 108.504 60.0298 108.508 60.2458 108.664C60.3592 108.747 60.3609 108.757 60.2828 108.909C60.181 109.108 60.1794 109.296 60.2777 109.489C60.4716 109.867 60.8968 109.97 61.2545 109.725C61.4934 109.561 61.6217 109.56 61.7261 109.721C61.7891 109.818 61.7969 109.888 61.7604 110.022C61.6107 110.569 62.1023 111.053 62.5981 110.847C63.007 110.676 63.2463 110.738 63.2463 111.014C63.2463 111.154 63.1607 111.265 62.6632 111.767C62.1658 112.27 62.0561 112.356 61.9167 112.356C61.7023 112.356 61.629 112.215 61.6405 111.825C61.6564 111.292 61.3986 111.015 60.9357 111.068C60.7469 111.089 60.6598 111.14 60.441 111.356C60.2951 111.501 60.1408 111.623 60.0982 111.629C59.9184 111.652 59.8348 111.62 59.7829 111.504C59.739 111.408 59.7497 111.342 59.8356 111.18C59.9647 110.936 59.9707 110.789 59.8616 110.556C59.7117 110.238 59.3637 110.106 59.0364 110.244C58.929 110.289 58.7191 110.443 58.5697 110.586C58.2733 110.869 58.218 110.888 58.0767 110.759C57.9637 110.656 57.9575 110.491 58.0613 110.353C58.1032 110.297 58.137 110.141 58.137 110.005C58.137 109.797 58.1102 109.73 57.9633 109.572C57.8091 109.407 57.7603 109.386 57.5317 109.386C57.3421 109.386 57.2241 109.42 57.084 109.516C56.9795 109.588 56.8522 109.647 56.8011 109.647C56.6592 109.647 56.52 109.463 56.555 109.322C56.5908 109.178 57.574 108.188 57.6811 108.188C57.7222 108.188 57.8358 108.248 57.9336 108.322ZM64.5364 112.679C64.5364 112.86 64.3724 113.033 64.2011 113.033C64.1253 113.033 63.9862 112.955 63.863 112.842L63.6539 112.652L63.8995 112.399L64.1453 112.148L64.3408 112.341C64.475 112.473 64.5364 112.579 64.5364 112.679ZM43.7014 79.9666V80.4101H43.8915C43.9971 80.4101 44.1663 80.3808 44.271 80.3445C44.3752 80.3083 44.4727 80.2788 44.488 80.2788C44.503 80.2788 44.5119 81.6638 44.5073 83.3567L44.4989 86.4347L44.3233 86.4949C44.2266 86.5281 44.0473 86.602 43.9246 86.6591L43.7014 86.7629V87.0702V87.3776H46.2405H48.7798V86.3247V85.2719L48.4144 85.2814L48.0492 85.2907L47.9916 85.4475C47.9333 85.606 47.8582 85.9807 47.8121 86.3423L47.7869 86.5395H46.6313H45.4755V83.4894V80.4396L45.7139 80.3584C45.845 80.3139 46.0245 80.2404 46.1127 80.1953L46.2731 80.1133V79.818V79.5228H44.9872H43.7014V79.9666ZM56.3395 79.9583L56.3485 80.3938L56.5321 80.4034C56.6537 80.41 56.7829 80.3904 56.9137 80.346C57.0225 80.3091 57.1192 80.2788 57.1287 80.2788C57.1382 80.2788 57.1461 81.6654 57.1461 83.3602V86.4418L56.8736 86.5351C56.7237 86.5865 56.5444 86.6607 56.4748 86.7001L56.3485 86.7715L56.3392 87.0745L56.3298 87.3776H57.682H59.0341V86.9345V86.4915L58.9503 86.4702C58.8356 86.4412 58.5607 86.4771 58.3208 86.5525L58.122 86.615L58.1305 85.2298L58.1388 83.8446L58.6761 83.8365C58.9716 83.8319 59.2287 83.8394 59.2475 83.8528C59.2665 83.8664 59.6913 84.5489 60.1917 85.3694C61.1349 86.9165 61.327 87.1832 61.5889 87.3114C61.9087 87.4676 62.5012 87.465 62.782 87.3057L62.908 87.2342V86.8795V86.525L62.4984 86.5159L62.0889 86.5066L61.0944 84.9353L60.1 83.364L61.0727 81.8993L62.0453 80.4345L62.2837 80.3559C62.4148 80.3128 62.5943 80.2404 62.6825 80.1953L62.8429 80.1133V79.818V79.5228H61.5562H60.2694L60.2784 79.9583L60.2875 80.3938L60.4721 80.4036C60.5737 80.409 60.7474 80.3896 60.8583 80.3606C60.9691 80.3317 61.0648 80.313 61.0709 80.3192C61.0771 80.3253 60.6971 80.929 60.2265 81.6602L59.3709 82.9901L58.7463 82.999L58.122 83.008L58.1303 81.7203L58.1388 80.4327L58.3506 80.3605C58.4669 80.3209 58.6391 80.249 58.733 80.2009L58.904 80.1133V79.818V79.5228H57.6172H56.3303L56.3395 79.9583ZM64.5683 79.8126V80.1023L64.7015 80.1779C64.7748 80.2194 64.9543 80.2944 65.1003 80.3445L65.3658 80.4353L65.3735 83.4382L65.3814 86.4409L65.1457 86.5164C65.0161 86.5579 64.8368 86.6317 64.7473 86.6807L64.5846 86.7695L64.5751 87.0735L64.5658 87.3776H67.2689H69.9722V86.3751V85.3728H69.6345H69.2965L69.2244 85.5424C69.1557 85.7036 69.0979 85.9574 69.0385 86.3587L69.0118 86.5395H67.6934H66.375L66.3665 85.1509L66.358 83.7625H67.5304H68.7025V83.3681V82.9736H67.5307H66.3588V81.6591V80.3445H67.5915H68.8241L68.86 80.6242C68.8796 80.778 68.9369 81.0258 68.9871 81.1747L69.0784 81.4454L69.444 81.4547L69.8094 81.464V80.4934V79.5228H67.1889H64.5683V79.8126ZM51.0585 79.9988V80.4418L51.1403 80.4625C51.2491 80.4902 51.4924 80.4511 51.6932 80.3742C51.7827 80.3397 51.8598 80.3117 51.8642 80.3117C51.8688 80.3117 51.8724 81.6999 51.8724 83.3967V86.4817L51.6201 86.5718C51.4813 86.6216 51.2982 86.6976 51.2131 86.7411L51.0585 86.82V87.1155V87.4103H52.3932H53.7279V86.9668V86.523L53.5245 86.5235C53.3449 86.5238 53.1633 86.5575 52.9223 86.6353L52.849 86.6589V83.5701V80.4812L53.0198 80.4259C53.1139 80.3955 53.2896 80.3255 53.4106 80.2705L53.6302 80.1704V79.8631V79.5557H52.3443H51.0585V79.9988ZM75.9382 80.4589V79.9968V79.5347H77.3075H78.6768V79.8554V80.1763L78.4797 80.269C78.3707 80.32 78.1845 80.3938 78.0647 80.4332L77.8475 80.5047V82.5612C77.8475 84.4158 77.8521 84.6463 77.895 84.9099C78.0203 85.6838 78.2995 86.1542 78.7598 86.367C79.1319 86.5391 79.2213 86.5478 80.6518 86.5478H81.9291L81.9353 83.4575L81.942 80.3672L81.7645 80.4264C81.5941 80.4832 81.3371 80.5055 81.2463 80.4715C81.2107 80.458 81.2045 80.3914 81.2045 79.9952V79.5347H82.4953H83.7854V79.8558V80.1768L83.5681 80.279C83.4485 80.3351 83.2709 80.4067 83.1727 80.4378L82.9954 80.4944L83.0021 83.521L83.0088 86.5478L83.7126 86.5546L84.417 86.5614V87.5655V88.5696L84.0305 88.5623L83.6445 88.555L83.5717 88.3622C83.4799 88.1184 83.4159 87.848 83.3941 87.6088L83.3771 87.4228L81.1916 87.4077C79.0943 87.3937 78.9967 87.3911 78.7821 87.3395C77.9698 87.1451 77.46 86.7593 77.1385 86.0959C77.0043 85.8187 76.9073 85.49 76.8428 85.093C76.8052 84.8611 76.7975 84.51 76.7881 82.5818L76.7772 80.3403L76.6047 80.4015C76.4085 80.4711 76.1729 80.502 76.0333 80.4763L75.9382 80.4589ZM85.9184 80.1517V79.8432V79.5347H88.6965H91.4743V80.5391V81.5436L91.0859 81.5364L90.6977 81.5292L90.6364 81.3786C90.5424 81.1469 90.4727 80.8561 90.4552 80.6221L90.4397 80.4098H89.1397H87.8401V81.6451V82.8804H89.2227H90.6053V83.2922V83.7039H89.2227H87.8397L87.8469 85.1258L87.8536 86.5478L89.2414 86.5544L90.629 86.5611L90.6424 86.4771C90.6498 86.4311 90.6683 86.2985 90.6843 86.1828C90.7169 85.9431 90.7938 85.6555 90.8731 85.4744L90.9278 85.351H91.3061H91.6849V86.3805V87.4098H88.8017H85.9184V87.0994V86.7889L86.1355 86.6898C86.2548 86.6351 86.4504 86.5577 86.5702 86.5177L86.7875 86.4448L86.7808 83.4767L86.7741 80.5086L86.55 80.4366C86.2771 80.3488 86.1537 80.2972 86.02 80.2149L85.9184 80.1517ZM93.2383 80.4589V79.9968V79.5347H94.6219H96.0049L95.9977 79.8501L95.9901 80.1652L95.8084 80.2586C95.7088 80.3099 95.5225 80.3851 95.3946 80.4259L95.1622 80.4998L95.1612 81.6775L95.1607 82.855L97.1817 82.8484L99.2026 82.8418V81.5937C99.2026 80.7752 99.1939 80.3473 99.1764 80.3507C99.1618 80.3535 99.0787 80.3808 98.9921 80.4113C98.812 80.4745 98.5807 80.5019 98.4415 80.4763L98.3469 80.4589V79.9968V79.5347H99.716H101.085V79.8551V80.1753L100.894 80.2673C100.79 80.3177 100.603 80.3922 100.48 80.4329L100.256 80.5068L100.249 83.5594C100.246 85.2384 100.253 86.612 100.265 86.612C100.277 86.612 100.356 86.5889 100.44 86.5606C100.665 86.485 100.91 86.4496 101.073 86.4695L101.217 86.4871V86.9485V87.4098H99.7822H98.3469V87.1V86.79L98.5245 86.71C98.6226 86.6661 98.8151 86.5876 98.9524 86.5357L99.2026 86.4415L99.2093 85.0856L99.2166 83.7296H97.1884H95.1607V85.1709C95.1607 85.9636 95.1639 86.6119 95.1675 86.6117C95.1711 86.6115 95.2463 86.5893 95.3352 86.5619C95.5854 86.4853 95.8182 86.4516 95.9699 86.4702L96.1087 86.4871V86.9485V87.4098H94.6736H93.2383V87.1051V86.8005L93.3699 86.7303C93.4427 86.6918 93.6352 86.6111 93.7983 86.5509L94.094 86.4414L94.1007 83.3999C94.1064 80.975 94.1007 80.3584 94.0744 80.3584C94.0564 80.3584 93.9778 80.3821 93.8994 80.4111C93.7369 80.4716 93.4732 80.502 93.3337 80.4763L93.2383 80.4589ZM102.56 81.5421V80.5385V79.5347H105.746H108.932V80.5385V81.5421H108.562H108.192L108.127 81.4027C108.043 81.2238 107.943 80.8358 107.919 80.5964L107.9 80.4098H107.087H106.273V83.5109C106.273 85.2166 106.282 86.6117 106.292 86.6114C106.303 86.6111 106.383 86.5878 106.469 86.5596C106.687 86.4884 106.948 86.4516 107.095 86.4715L107.221 86.4882V86.949V87.4098H105.798H104.375L104.382 87.0946L104.39 86.7793L104.577 86.688C104.68 86.6377 104.867 86.5626 104.992 86.5211L105.219 86.4454V83.4276V80.4098H104.408H103.597L103.565 80.639C103.532 80.8844 103.44 81.2209 103.353 81.4199L103.299 81.5421H102.93H102.56ZM110.709 80.1631L110.702 79.8473L110.695 79.5315L112.44 79.5419C114.233 79.5526 114.345 79.5583 114.767 79.6641C115.634 79.8806 116.121 80.3825 116.268 81.2118C116.334 81.5787 116.308 82.1988 116.216 82.5018C115.91 83.502 115.081 84.1164 113.898 84.2187C113.737 84.2325 113.378 84.2441 113.1 84.2441L112.593 84.2444V85.4281C112.593 86.0793 112.601 86.612 112.613 86.612C112.624 86.612 112.745 86.5842 112.883 86.5504C113.207 86.4702 113.401 86.4475 113.58 86.4693L113.725 86.4871V86.9485V87.4098H112.211H110.697V87.1013V86.7928L110.9 86.6932C111.013 86.6384 111.202 86.5601 111.322 86.5191L111.539 86.4448L111.533 83.4759L111.526 80.5071L111.239 80.4085C111.082 80.3543 110.898 80.2769 110.831 80.2365L110.709 80.1631ZM115.209 81.8124C115.211 80.9619 114.835 80.5675 113.896 80.4365C113.795 80.4223 113.46 80.4106 113.152 80.4103L112.593 80.4098V81.9054V83.4011L113.218 83.3886C113.746 83.3781 113.876 83.3676 114.054 83.3214C114.837 83.1173 115.207 82.6342 115.209 81.8124Z" fill="black"/>
</g>
<defs>
<clipPath id="clip0_1335_33">
<rect width="108" height="96" fill="white" transform="translate(26 35)"/>
</clipPath>
</defs>
</svg>
