<svg width="160" height="160" viewBox="0 0 160 160" fill="none" xmlns="http://www.w3.org/2000/svg">
<path d="M46.0751 102.248H46.3199C49.1349 102.248 51.5828 103.945 52.6843 106.611C55.7441 114.004 63.2101 119.215 71.8998 118.852C81.936 118.367 90.1362 110.247 90.6259 100.309C91.1155 89.1594 82.1809 79.9487 70.9207 79.9487C62.5981 79.9487 55.6217 85.0388 52.6843 92.1893C51.5828 94.8554 49.0125 96.5521 46.1975 96.5521H46.0751C41.3018 96.5521 37.8748 91.9469 39.3435 87.4627C44.2392 72.6772 58.0696 61.7698 74.4701 61.0427L60.8845 37.4102C58.4367 33.1684 59.9054 27.836 64.0668 25.4121C68.3506 22.9883 73.7358 24.4426 76.1835 28.6843L92.217 56.195L85.6078 31.8353C84.5064 27.7148 86.9541 23.3518 91.1155 22.2611C95.2767 21.1704 99.6831 23.5942 100.784 27.7148L108.25 55.3467V39.3493C108.25 36.0771 110.943 33.532 114.125 33.532C117.43 33.532 120 36.1983 120 39.3493V96.6733C120 96.7946 120 96.9158 120 97.037C120 119.579 101.519 138 78.6315 138C77.7748 138 77.0405 138 76.1835 138C59.0487 138 44.3616 126.971 39.3435 111.58C37.9972 106.975 41.3018 102.248 46.0751 102.248Z" fill="#F97C13"/>
</svg>
