<svg width="160" height="160" viewBox="0 0 160 160" fill="none" xmlns="http://www.w3.org/2000/svg">
<mask id="mask0_1133_4" style="mask-type:luminance" maskUnits="userSpaceOnUse" x="21" y="67" width="70" height="61">
<path d="M90.4814 67.6934H21.7998V127.589H90.4814V67.6934Z" fill="white"/>
</mask>
<g mask="url(#mask0_1133_4)">
<path fill-rule="evenodd" clip-rule="evenodd" d="M28.3905 102.004C31.1222 104.173 35.3975 106.958 41.2163 110.358C52.4613 116.93 64.0588 121.351 76.009 123.621C80.3593 124.97 84.981 125.697 89.7709 125.697L90.0443 125.694L87.4322 127.25C78.1486 126.273 58.8499 122.479 48.2893 118.651C38.1145 114.963 30.7051 111.034 23.0018 105.909C22.7835 105.764 22.5545 105.617 22.3803 105.468C21.3811 104.61 21.7066 103.898 23.0893 103.834L23.2535 103.83L28.3905 102.004ZM34.2073 68.7695L34.3967 68.7786L43.9893 69.5337C43.4041 72.5046 43.0971 75.5763 43.0971 78.7202C43.0971 98.4268 55.1534 115.299 72.2472 122.273L71.8794 122.565C60.7785 120.025 50.67 115.349 41.5538 108.535L40.7964 107.963C32.6989 101.767 26.5042 94.8919 22.2123 87.3371C22.0953 87.1328 22.0024 86.9157 21.9349 86.6902C21.4598 85.1032 22.3087 83.4339 23.8419 82.8704L24.0218 82.8105L28.4127 81.4987C31.0878 88.1911 34.3813 94.0741 38.2935 99.1477C42.695 104.856 47.9343 109.256 54.0113 112.348L53.5216 112.003C48.494 108.43 44.2637 103.859 40.8308 98.2891C36.3442 91.0101 33.1015 82.4145 31.1028 72.5026C31.0462 72.2192 31.0286 71.9291 31.0512 71.641C31.1757 70.0526 32.4691 68.8363 34.02 68.7717L34.2073 68.7695Z" fill="#00AAB5"/>
</g>
<path fill-rule="evenodd" clip-rule="evenodd" d="M91.3262 127.261C117.103 127.261 138 106.229 138 80.285C138 54.3407 117.103 33.3086 91.3262 33.3086C65.549 33.3086 44.6523 54.3407 44.6523 80.285C44.6523 106.229 65.549 127.261 91.3262 127.261ZM110.968 91.7304C111.943 92.16 112.431 92.9579 112.431 94.1241C112.431 94.8607 112.218 95.7815 111.791 96.8864C110.632 99.7713 108.543 102.012 105.524 103.608C102.506 105.204 98.8921 106.002 94.6839 106.002C87.6705 106.002 82.1359 103.823 78.0803 99.4645C74.0246 95.1064 71.9969 88.9681 71.9969 81.0498C71.9969 73.2543 73.9789 67.1467 77.943 62.727C81.9071 58.3076 87.579 56.0978 94.9584 56.0978C100.264 56.0978 104.61 57.2948 107.995 59.6887C111.379 62.0825 113.072 65.4893 113.072 69.9088C113.072 74.3897 111.257 77.8426 107.628 80.2671C104 82.6918 99.1362 83.9041 93.0374 83.9041C89.5611 83.9041 86.4811 83.7505 83.7979 83.4437C84.2247 89.0294 85.6273 93.0347 88.0058 95.4592C90.3843 97.884 93.6166 99.0962 97.7029 99.0962C100.935 99.0962 103.71 98.4209 106.028 97.0706C108.345 95.7202 109.992 93.94 110.968 91.7304ZM94.5016 60.0564C91.0863 60.0564 88.4182 61.7751 86.497 65.2125C84.5759 68.6501 83.6153 73.4378 83.6153 79.5761C85.3232 79.6988 86.6647 79.7603 87.6405 79.7603C91.6657 79.7603 94.959 78.9622 97.5204 77.3663C100.082 75.7703 101.363 72.7012 101.363 68.1589C101.363 62.7572 99.0756 60.0564 94.5016 60.0564Z" fill="#00AAB5"/>
</svg>
