<svg width="160" height="160" viewBox="0 0 160 160" fill="none" xmlns="http://www.w3.org/2000/svg">
<path fill-rule="evenodd" clip-rule="evenodd" d="M82.2453 23L84.396 29.7823H91.5086L85.8838 33.9178L88.0345 40.7001L82.2453 36.5646L76.4547 40.7001L78.7712 33.9178L72.9819 29.7823H79.9288L82.2453 23Z" fill="#4D4C7F"/>
<path fill-rule="evenodd" clip-rule="evenodd" d="M82.2453 118.447L84.396 125.064H91.5086L85.8838 129.365L88.0345 136.147L82.2453 132.012L76.4547 136.147L78.7712 129.365L72.9819 125.064H79.9288L82.2453 118.447Z" fill="#CD5A44"/>
<path fill-rule="evenodd" clip-rule="evenodd" d="M59.4186 112.824L61.5694 119.441H68.682L62.8927 123.742L65.2079 130.524L59.4186 126.389L53.6294 130.524L55.7788 123.742L50.1553 119.441H57.2679L59.4186 112.824Z" fill="#C54B43"/>
<path fill-rule="evenodd" clip-rule="evenodd" d="M58.2634 30.2793L60.4141 37.0616H67.5267L61.7374 41.1971L64.0526 47.9794L58.2634 43.8439L52.4741 47.9794L54.7893 41.1971L49 37.0616H56.1126L58.2634 30.2793Z" fill="#3D4773"/>
<path fill-rule="evenodd" clip-rule="evenodd" d="M105.072 30.2793L107.221 37.0616H114.501L108.71 41.1971L110.861 47.9794L105.072 43.8439L99.2812 47.9794L101.598 41.1971L95.8071 37.0616H102.921L105.072 30.2793Z" fill="#695181"/>
<path fill-rule="evenodd" clip-rule="evenodd" d="M122.941 46.9863L125.258 53.7686H132.37L126.581 57.9041L128.732 64.6864L122.941 60.5509L117.152 64.6864L119.467 57.9041L113.678 53.7686H120.79L122.941 46.9863Z" fill="#7B465E"/>
<path fill-rule="evenodd" clip-rule="evenodd" d="M129.06 70.4766L131.375 77.0934H138.487L132.698 81.3944L134.849 88.1767L129.06 84.0412L123.269 88.1767L125.586 81.3944L119.795 77.0934H126.909L129.06 70.4766Z" fill="#9B5170"/>
<path fill-rule="evenodd" clip-rule="evenodd" d="M122.941 94.4629L125.258 101.245H132.37L126.581 105.381L128.732 112.163L122.941 108.027L117.152 112.163L119.467 105.381L113.678 101.245H120.79L122.941 94.4629Z" fill="#BB697D"/>
<path fill-rule="evenodd" clip-rule="evenodd" d="M105.569 111.666L107.884 118.448H114.998L109.208 122.584L111.358 129.366L105.569 125.231L99.9442 129.366L102.095 122.584L96.3057 118.448H103.418L105.569 111.666Z" fill="#CC6145"/>
</svg>
