<svg width="160" height="160" viewBox="0 0 160 160" fill="none" xmlns="http://www.w3.org/2000/svg">
<g clip-path="url(#clip0_1335_43)">
<path d="M93.1485 54.766H96.5215C96.6801 54.741 96.8246 54.6591 96.9291 54.5351C97.0335 54.4109 97.0909 54.2526 97.0909 54.0891C97.0909 53.9254 97.0335 53.7672 96.9291 53.6431C96.8246 53.5189 96.6801 53.437 96.5215 53.4121H93.1485C92.9901 53.437 92.8454 53.5189 92.7409 53.6431C92.6365 53.7672 92.5791 53.9254 92.5791 54.0891C92.5791 54.2526 92.6365 54.4109 92.7409 54.5351C92.8454 54.6591 92.9901 54.741 93.1485 54.766Z" fill="black"/>
<path d="M93.1485 57.0605H96.5214C96.6956 57.0605 96.8624 56.9901 96.9853 56.8646C97.1084 56.7391 97.1775 56.569 97.1775 56.3916C97.1775 56.2141 97.1084 56.0439 96.9853 55.9186C96.8624 55.793 96.6956 55.7227 96.5214 55.7227H93.1485C92.9746 55.7227 92.8077 55.793 92.6847 55.9186C92.5618 56.0439 92.4927 56.2141 92.4927 56.3916C92.4927 56.569 92.5618 56.7391 92.6847 56.8646C92.8077 56.9901 92.9746 57.0605 93.1485 57.0605Z" fill="black"/>
<path d="M93.1485 59.3691H96.5214C96.6956 59.3691 96.8624 59.2987 96.9853 59.1732C97.1084 59.0477 97.1775 58.8776 97.1775 58.7002C97.1775 58.5227 97.1084 58.3525 96.9853 58.2272C96.8624 58.1016 96.6956 58.0312 96.5214 58.0312H93.1485C92.9746 58.0312 92.8077 58.1016 92.6847 58.2272C92.5618 58.3525 92.4927 58.5227 92.4927 58.7002C92.4927 58.8776 92.5618 59.0477 92.6847 59.1732C92.8077 59.2987 92.9746 59.3691 93.1485 59.3691Z" fill="black"/>
<path d="M87.5896 67.3817H102.628V68.9746C102.629 69.107 102.668 69.2363 102.74 69.3464C102.813 69.4567 102.914 69.5433 103.034 69.5958H103.283C103.37 69.5969 103.456 69.5808 103.537 69.5479C103.617 69.5151 103.69 69.4664 103.752 69.4046L104.408 68.7355L105.064 69.4046C105.156 69.5001 105.273 69.5654 105.402 69.592C105.53 69.6186 105.664 69.6055 105.785 69.5539C105.906 69.5026 106.009 69.4153 106.081 69.3034C106.153 69.1916 106.19 69.0604 106.188 68.9267V67.334H110.014C110.1 67.334 110.185 67.3167 110.265 67.283C110.345 67.2495 110.417 67.2001 110.478 67.1381C110.539 67.0759 110.587 67.0021 110.62 66.9211C110.653 66.8398 110.67 66.7529 110.67 66.6651V52.8716C110.67 52.6942 110.601 52.524 110.478 52.3985C110.355 52.2731 110.188 52.2026 110.014 52.2026H108.452V49.4153C108.452 49.2378 108.383 49.0677 108.26 48.9422C108.137 48.8168 107.97 48.7463 107.797 48.7463H101.05C100.617 48.7461 100.19 48.8465 99.8003 49.0396C99.4107 49.2328 99.0692 49.5137 98.8018 49.8612C98.5374 49.5141 98.1989 49.2331 97.8118 49.0399C97.4248 48.8466 96.9996 48.7462 96.5687 48.7463H89.8382C89.7507 48.7442 89.6637 48.7599 89.5824 48.7926C89.501 48.8252 89.4269 48.8742 89.3643 48.9365C89.3018 48.9988 89.252 49.0733 89.2182 49.1555C89.1841 49.2377 89.1668 49.3261 89.1668 49.4153V52.2026H87.605C87.4311 52.2026 87.2643 52.2731 87.1414 52.3985C87.0183 52.524 86.9492 52.6942 86.9492 52.8716V66.7128C86.9492 66.8874 87.0163 67.0553 87.1358 67.1803C87.2555 67.3053 87.4183 67.3775 87.5896 67.3817ZM99.6137 66.0439C99.7357 65.759 99.9368 65.5166 100.192 65.3468C100.447 65.177 100.746 65.087 101.05 65.0881H102.612V66.0439H99.6137ZM104.876 67.3977C104.814 67.3359 104.741 67.2872 104.661 67.2543C104.58 67.2216 104.495 67.2052 104.408 67.2065C104.323 67.2037 104.239 67.2193 104.161 67.2522C104.083 67.2851 104.013 67.3347 103.955 67.3977V65.0881H104.876V67.3977ZM109.358 53.5405V66.0439H106.235V65.0881H107.797C107.97 65.0881 108.137 65.0178 108.26 64.8922C108.383 64.7667 108.452 64.5967 108.452 64.4192V53.5405H109.358ZM90.494 50.0842H96.5687C96.9828 50.0842 97.38 50.252 97.6729 50.5507C97.9658 50.8494 98.1302 51.2546 98.1302 51.677C98.1302 51.8544 98.1995 52.0246 98.3224 52.15C98.4454 52.2755 98.6123 52.346 98.7862 52.346C98.9601 52.346 99.127 52.2755 99.2499 52.15C99.3729 52.0246 99.442 51.8544 99.442 51.677C99.442 51.2546 99.6066 50.8494 99.8994 50.5507C100.192 50.252 100.589 50.0842 101.004 50.0842H107.203V63.6706H101.05C100.618 63.6738 100.192 63.7758 99.8025 63.9686C99.4134 64.1615 99.0715 64.4407 98.8018 64.7855C98.5352 64.4409 98.1961 64.1619 97.8096 63.969C97.423 63.776 96.999 63.674 96.5687 63.6706H90.494V50.0842ZM88.2454 53.5405H89.1668V64.4192C89.1668 64.5084 89.1841 64.5967 89.2182 64.6788C89.252 64.7612 89.3018 64.8356 89.3643 64.8979C89.4269 64.9603 89.501 65.0092 89.5824 65.0419C89.6637 65.0746 89.7507 65.0902 89.8382 65.0881H96.5687C96.8735 65.087 97.172 65.177 97.4273 65.3468C97.6824 65.5166 97.8835 65.759 98.0054 66.0439H88.2454V53.5405Z" fill="black"/>
<path d="M72.3484 100.176C72.1609 99.7137 71.8799 99.5863 71.3801 99.8251L69.0222 101.275C68.3038 101.275 67.4607 101.275 67.3668 101.275L66.6017 100.956C65.9472 100.561 65.2275 100.291 64.478 100.16C63.8874 100.226 63.3204 100.434 62.8226 100.765C61.1555 101.179 59.4225 101.239 57.7319 100.94C57.5288 100.733 54.9991 99.2359 54.9991 99.2359C54.9142 99.1924 54.8207 99.1699 54.7258 99.1699C54.6308 99.1699 54.5373 99.1924 54.4524 99.2359C54.359 99.2652 54.2735 99.3166 54.2029 99.3856C54.1325 99.4548 54.0789 99.5399 54.0465 99.634L51.0795 107.725C51.045 107.806 51.0273 107.893 51.0273 107.98C51.0273 108.068 51.045 108.155 51.0795 108.235C51.1545 108.397 51.2891 108.523 51.4541 108.585C51.4541 108.585 54.0152 109.589 54.2964 109.589C54.4502 109.584 54.5982 109.528 54.718 109.43L55.2177 109.732C55.1691 109.876 55.1427 110.026 55.1395 110.178C55.1384 110.392 55.1792 110.603 55.2596 110.8C55.3401 110.997 55.4587 111.176 55.608 111.325C55.881 111.61 56.2486 111.781 56.6387 111.803C56.6897 112.006 56.7795 112.197 56.9029 112.364C57.0262 112.532 57.1809 112.673 57.3578 112.78C57.5349 112.886 57.7308 112.956 57.9343 112.985C58.1378 113.014 58.3449 113.002 58.544 112.95C58.7425 113.27 59.0344 113.52 59.3789 113.662C59.7234 113.805 60.1031 113.835 60.4647 113.746C60.6904 114.088 61.0272 114.337 61.4156 114.451C61.8041 114.565 62.2193 114.535 62.5884 114.367L62.9476 114.718C63.2608 115.036 63.6846 115.214 64.1266 115.214C64.5685 115.214 64.9925 115.036 65.3055 114.718C65.4405 114.588 65.547 114.43 65.618 114.256C65.7692 114.306 65.9271 114.333 66.0865 114.335C66.3038 114.336 66.5192 114.292 66.7201 114.207C66.921 114.123 67.1037 113.998 67.2575 113.842C67.38 113.713 67.4851 113.569 67.57 113.412C67.7657 113.482 67.9714 113.52 68.1789 113.523C68.5114 113.523 68.8365 113.423 69.114 113.236C69.3916 113.049 69.6093 112.783 69.7406 112.472H70.0372C70.3683 112.485 70.6956 112.397 70.977 112.218C71.2584 112.04 71.4807 111.779 71.6151 111.47C71.7498 111.162 71.7903 110.819 71.7317 110.486C71.6732 110.154 71.5181 109.847 71.2865 109.605L71.4583 109.509C71.523 109.609 71.608 109.694 71.7077 109.757C71.8075 109.82 71.9196 109.861 72.0361 109.876C72.9821 109.613 73.9105 109.288 74.8156 108.904C74.8994 108.878 74.9769 108.834 75.0428 108.775C75.1089 108.716 75.162 108.644 75.1989 108.563C75.2357 108.482 75.2555 108.393 75.2566 108.304C75.2579 108.215 75.2406 108.126 75.2061 108.044L72.3484 100.176ZM55.0772 100.813L56.5607 101.832C56.0883 104.032 55.2596 106.137 54.1089 108.06L52.5473 107.518L55.0772 100.813ZM61.7452 113.045C61.697 112.996 61.6627 112.935 61.6463 112.867C61.6298 112.8 61.6316 112.729 61.6514 112.663C61.6989 112.517 61.697 112.36 61.646 112.215C61.595 112.071 61.4979 111.948 61.3704 111.867C61.2443 111.786 61.0956 111.752 60.9479 111.77C60.8004 111.787 60.6632 111.855 60.5583 111.962L60.2148 112.297C60.1651 112.347 60.0977 112.376 60.0275 112.376C59.9571 112.376 59.8897 112.347 59.84 112.297C59.7971 112.252 59.7731 112.192 59.7731 112.129C59.7731 112.067 59.7971 112.007 59.84 111.962C59.9347 111.824 59.9759 111.654 59.9558 111.487C59.9355 111.319 59.8554 111.165 59.7307 111.054C59.6053 110.942 59.4445 110.88 59.2778 110.88C59.1111 110.88 58.9503 110.942 58.8249 111.054L58.4501 111.437C58.4004 111.487 58.333 111.516 58.2628 111.516C58.1926 111.516 58.1252 111.487 58.0755 111.437C58.0347 111.388 58.0123 111.326 58.0123 111.261C58.0123 111.197 58.0347 111.135 58.0755 111.086C58.1766 110.953 58.2218 110.784 58.2013 110.617C58.1809 110.45 58.0961 110.298 57.9662 110.194C57.8414 110.074 57.6766 110.008 57.5055 110.008C57.3342 110.008 57.1694 110.074 57.0448 110.194C56.9893 110.239 56.9204 110.264 56.8495 110.264C56.7785 110.264 56.7098 110.239 56.6543 110.194C56.6124 110.137 56.5899 110.067 56.5899 109.995C56.5899 109.923 56.6124 109.854 56.6543 109.796L57.5444 108.888C57.5679 108.861 57.5967 108.839 57.6291 108.824C57.6613 108.809 57.6963 108.802 57.7319 108.802C57.7673 108.802 57.8023 108.809 57.8347 108.824C57.8669 108.839 57.8958 108.861 57.9192 108.888C58.0254 108.993 58.1626 109.059 58.3093 109.076C58.4563 109.094 58.6045 109.061 58.7313 108.984C58.7626 109.076 58.8164 109.158 58.8875 109.223C58.9484 109.286 59.0214 109.337 59.1018 109.371C59.1823 109.406 59.2687 109.423 59.3558 109.423C59.4432 109.423 59.5296 109.406 59.61 109.371C59.6904 109.337 59.7632 109.286 59.8243 109.223C59.8478 109.196 59.8766 109.174 59.909 109.159C59.9413 109.144 59.9763 109.136 60.0118 109.136C60.0472 109.136 60.0822 109.144 60.1146 109.159C60.1468 109.174 60.1757 109.196 60.1992 109.223C60.2619 109.285 60.3362 109.333 60.4178 109.366C60.3198 109.496 60.2723 109.659 60.2842 109.822C60.2962 109.986 60.3667 110.14 60.4826 110.254C60.5982 110.368 60.7511 110.435 60.912 110.441C61.0728 110.448 61.2304 110.394 61.3548 110.29C61.4101 110.244 61.4789 110.22 61.5499 110.22C61.6208 110.22 61.6897 110.244 61.7452 110.29C61.7769 110.333 61.794 110.387 61.794 110.441C61.794 110.496 61.7769 110.549 61.7452 110.592C61.6706 110.734 61.6467 110.897 61.6782 111.054C61.7097 111.211 61.794 111.352 61.9169 111.452C62.0288 111.54 62.1661 111.588 62.3074 111.588C62.4485 111.588 62.5858 111.54 62.6977 111.452C62.7712 111.409 62.8548 111.386 62.9397 111.386C63.0247 111.386 63.1083 111.409 63.1818 111.452C63.2356 111.514 63.2652 111.593 63.2652 111.676C63.2652 111.758 63.2356 111.837 63.1818 111.898L62.2135 112.87C62.2135 112.87 61.9169 113.22 61.7452 113.045ZM64.4467 113.666C64.416 113.701 64.3786 113.728 64.3369 113.747C64.2953 113.766 64.2503 113.775 64.2046 113.775C64.159 113.775 64.1142 113.766 64.0724 113.747C64.0307 113.728 63.9933 113.701 63.9626 113.666L63.666 113.38L64.1501 112.87L64.478 113.236C64.5093 113.268 64.5337 113.307 64.5493 113.349C64.5648 113.392 64.5713 113.437 64.5685 113.483C64.5655 113.528 64.553 113.572 64.532 113.612C64.5111 113.652 64.4819 113.687 64.4467 113.714V113.666ZM70.3495 110.959C70.3188 110.993 70.2815 111.02 70.2398 111.039C70.1981 111.058 70.153 111.067 70.1074 111.067C70.062 111.067 70.0169 111.058 69.9752 111.039C69.9335 111.02 69.8962 110.993 69.8655 110.959L66.914 107.996C66.7898 107.869 66.6212 107.798 66.4455 107.798C66.2699 107.798 66.1014 107.869 65.9772 107.996C65.8528 108.123 65.7829 108.295 65.7829 108.474C65.7829 108.653 65.8528 108.825 65.9772 108.952L68.4913 111.532C68.5552 111.598 68.5909 111.687 68.5909 111.779C68.5909 111.871 68.5552 111.96 68.4913 112.026C68.4226 112.089 68.3336 112.123 68.2414 112.123C68.1493 112.123 68.0602 112.089 67.9915 112.026L65.0402 109.016C64.9147 108.891 64.7467 108.821 64.5717 108.821C64.3966 108.821 64.2285 108.891 64.1032 109.016C64.0408 109.078 63.9913 109.152 63.9576 109.234C63.9237 109.316 63.9063 109.404 63.9063 109.493C63.9063 109.582 63.9237 109.67 63.9576 109.752C63.9913 109.835 64.0408 109.909 64.1032 109.971L66.3674 112.344C66.4313 112.41 66.4672 112.499 66.4672 112.591C66.4672 112.684 66.4313 112.773 66.3674 112.838C66.3013 112.9 66.2149 112.934 66.1254 112.934C66.0358 112.934 65.9496 112.9 65.8833 112.838L64.5091 111.405C64.4298 111.062 64.2411 110.755 63.9726 110.533C63.7041 110.311 63.3712 110.186 63.0256 110.178C62.9425 109.917 62.804 109.678 62.6197 109.477C62.4426 109.296 62.2253 109.161 61.986 109.083C61.7469 109.005 61.4927 108.988 61.2454 109.031C61.2704 108.921 61.2678 108.807 61.2378 108.698C61.2078 108.59 61.1514 108.491 61.0736 108.41C60.8045 108.126 60.4412 107.954 60.0545 107.927C59.6677 107.9 59.2851 108.022 58.9812 108.267C58.9497 108.175 58.8961 108.093 58.8249 108.028C58.6793 107.874 58.5047 107.751 58.3114 107.668C58.1183 107.584 57.9105 107.541 57.7006 107.541C57.4908 107.541 57.283 107.584 57.0897 107.668C56.8966 107.751 56.7219 107.874 56.5763 108.028L56.0765 108.538L55.53 108.219C56.57 106.357 57.3381 104.35 57.8099 102.262C58.3564 102.342 60.3554 102.422 60.4958 102.422C60.3435 102.845 60.2694 103.293 60.2772 103.743C59.8941 104.277 59.5545 104.842 59.2622 105.432C59.2076 105.655 59.2201 105.89 59.2981 106.106C59.3761 106.321 59.516 106.508 59.6994 106.642C60.0457 106.921 60.4766 107.068 60.9175 107.056C61.4177 107.042 61.9061 106.899 62.3385 106.642C62.7055 106.459 63.0286 106.195 63.2848 105.871C63.5412 105.546 63.7246 105.168 63.822 104.763H64.7122L70.3495 110.513C70.4098 110.58 70.4433 110.668 70.4433 110.76C70.4433 110.851 70.4098 110.939 70.3495 111.007V110.959ZM70.3495 108.57L65.4148 103.536C65.3495 103.471 65.2711 103.419 65.185 103.387C65.0988 103.354 65.007 103.34 64.9152 103.345C64.4624 103.345 63.1662 103.441 63.1662 103.441C62.9869 103.465 62.8228 103.557 62.7072 103.698C62.5913 103.84 62.5321 104.021 62.5416 104.205C62.5377 104.478 62.4539 104.744 62.3009 104.969C62.1478 105.193 61.9326 105.365 61.6827 105.464C61.527 105.579 61.3467 105.655 61.1568 105.685C60.9667 105.716 60.7723 105.7 60.5896 105.639C60.7613 105.352 61.386 104.46 61.4328 104.397C61.5715 104.009 61.6352 103.598 61.6203 103.186C63.7283 101.593 64.3687 101.466 64.5091 101.466C65.0502 101.629 65.5735 101.847 66.0708 102.119C66.3987 102.314 66.7505 102.464 67.1171 102.565C67.6372 102.592 68.1584 102.592 68.6786 102.565C69.1114 104.573 69.8212 106.509 70.7869 108.315L70.3495 108.57ZM72.3171 108.347C71.1971 106.455 70.3899 104.389 69.9279 102.23L71.3645 101.354L73.7539 107.837C73.3478 108.044 72.848 108.267 72.3328 108.394L72.3171 108.347Z" fill="black"/>
<path d="M50.7199 52.9026C51.2353 52.9026 52.5001 52.2018 53.5153 51.9947V66.6483C53.5164 66.7571 53.5424 66.8641 53.5912 66.961C53.64 67.0576 53.7102 67.1415 53.7962 67.2057C53.8918 67.2601 53.9992 67.2887 54.1085 67.2887C54.218 67.2887 54.3254 67.2601 54.421 67.2057L59.8239 65.0076L65.2428 67.2057C65.3368 67.256 65.4413 67.2822 65.5472 67.2822C65.6533 67.2822 65.7578 67.256 65.8518 67.2057C65.9427 67.1451 66.0172 67.0625 66.0691 66.9651C66.1209 66.8679 66.1481 66.759 66.1485 66.6483V51.9947C68.6438 52.3426 70.9954 53.3903 72.9415 55.021C73.0802 55.1439 73.2575 55.2116 73.4411 55.2122C73.6286 55.1937 73.8019 55.1024 73.9252 54.9573C74.7293 53.8256 75.1709 52.4684 75.1901 51.0709C75.1687 49.6788 74.727 48.3273 73.9252 47.2005C73.8686 47.1235 73.7958 47.0605 73.7118 47.0164C73.628 46.9723 73.5355 46.9481 73.4411 46.9457C73.2564 46.9399 73.0769 47.0085 72.9415 47.1368C70.1847 49.3749 66.7337 50.5331 63.2127 50.402H55.2954C53.7726 50.1332 52.2658 49.777 50.7823 49.3348C50.5456 49.326 50.3095 49.3668 50.0887 49.4548C49.868 49.5427 49.6673 49.6759 49.499 49.846C49.3306 50.0162 49.1984 50.2198 49.1102 50.4442C49.0221 50.6685 48.98 50.909 48.9865 51.1506C48.98 51.3838 49.0204 51.616 49.1055 51.8327C49.1904 52.0493 49.3182 52.2459 49.4807 52.4101C49.6431 52.5744 49.8369 52.7028 50.0501 52.7876C50.2633 52.8723 50.4913 52.9115 50.7199 52.9026ZM54.8269 60.8665L64.8212 56.6137V57.5377L54.8269 61.7903V60.8665ZM64.8212 55.1325L54.8269 59.3853V53.3327C56.2028 54.5832 57.9812 55.2742 59.8239 55.2742C61.6668 55.2742 63.4453 54.5832 64.8212 53.3327V55.1325ZM60.1364 63.7813C59.9757 63.7174 59.7973 63.7174 59.6366 63.7813L54.9518 65.7085V63.2238L64.9461 58.9712V65.6448L60.1364 63.7813ZM73.3163 48.6977C73.7127 49.4473 73.9269 50.2831 73.9409 51.1347C73.9293 51.9866 73.715 52.8229 73.3163 53.5716C71.7701 52.4112 70.021 51.5625 68.163 51.0709C69.9946 50.5913 71.7216 49.7646 73.2537 48.634L73.3163 48.6977ZM64.4463 51.8833C63.8708 52.5401 63.1656 53.0656 62.3772 53.4254C61.5886 53.7852 60.7347 53.9711 59.8709 53.9711C59.0071 53.9711 58.1531 53.7852 57.3647 53.4254C56.5761 53.0656 55.8711 52.5401 55.2954 51.8833H64.4463ZM50.6575 50.7205C50.9882 50.9138 51.3392 51.0688 51.7037 51.1824C51.3309 51.2864 50.9735 51.4418 50.6419 51.6443C50.392 51.6443 50.3764 51.3895 50.3764 51.1665C50.335 51.0651 50.3347 50.9511 50.3758 50.8496C50.4168 50.748 50.4955 50.6672 50.595 50.625L50.6575 50.7205Z" fill="black"/>
<path d="M45.1921 73.0836V45.3692C55.7459 42.2424 66.6306 40.4241 77.6109 39.9538V73.0836H78.9225V39.9219H81.1244V73.0836H82.4206V39.9538C93.3936 40.3953 104.271 42.2142 114.808 45.3692V73.0836H116.104V44.8595C116.103 44.7161 116.057 44.5768 115.973 44.4621C115.889 44.3474 115.77 44.2634 115.636 44.2224C101.66 40.3201 90.6502 38.584 80.125 38.584C69.5999 38.584 58.1534 40.3838 44.3801 44.2224C44.2437 44.2627 44.1234 44.3462 44.0364 44.4606C43.9495 44.5751 43.9003 44.7147 43.896 44.8595V73.0836H45.1921Z" fill="black"/>
<path d="M114.808 93.9336C114.683 112.235 100.754 125.917 82.4206 127.047V93.9336H81.1244V127.047H78.9225V93.9336H77.6109V126.984C59.3559 125.789 45.3639 112.139 45.2077 93.9336H43.896C44.0678 113.748 59.9181 128.465 80.125 128.465C100.332 128.465 116.042 113.748 116.042 93.9336H114.808Z" fill="black"/>
<path d="M127.957 86.5422L134 75.3927H123.896V72.4142H119.696V41.2755C119.694 41.1301 119.646 40.9892 119.558 40.8743C119.471 40.7593 119.349 40.6765 119.212 40.6384C106.488 36.9897 93.3421 35.0934 80.1249 35C66.851 35.0888 53.6482 36.9851 40.8664 40.6384C40.7288 40.6765 40.6071 40.7593 40.5197 40.8743C40.4324 40.9892 40.3841 41.1301 40.3823 41.2755V72.4142H36.1035V75.4564H26L32.0434 86.6059L26 97.612H40.5853C42.5998 117.187 59.2309 132 80.1249 132C101.019 132 117.431 117.187 119.415 97.612H134L127.957 86.5422ZM41.694 41.7852C54.2141 38.2549 67.1355 36.4234 80.1249 36.3379C93.0363 36.4358 105.879 38.2673 118.322 41.7852V72.4142H41.694V41.7852ZM37.3997 73.7363H122.6V93.2318H37.3997V73.7363ZM28.2175 96.2899L33.5269 86.5422L28.2175 76.7944H36.1035V94.5538H40.4135C40.4135 95.1273 40.4135 95.7167 40.4135 96.2899H28.2175ZM80.1249 130.662C58.8873 130.662 42.2094 114.878 41.7097 94.5538H118.228C117.806 114.878 101.222 130.662 80.1249 130.662ZM119.586 94.5538H123.896V76.7944H131.798L126.473 86.5422L131.798 96.2899H119.508C119.555 95.7167 119.571 95.1273 119.586 94.5538Z" fill="black"/>
<path d="M119.618 70.1055H118.322V71.0612H119.618V70.1055Z" fill="black"/>
<path d="M91.4307 108.442C92.2156 108.442 92.8518 107.793 92.8518 106.992C92.8518 106.192 92.2156 105.543 91.4307 105.543C90.6458 105.543 90.0098 106.192 90.0098 106.992C90.0098 107.793 90.6458 108.442 91.4307 108.442Z" fill="black"/>
<path d="M98.2707 101.754C99.0211 101.754 99.6294 101.133 99.6294 100.368C99.6294 99.6028 99.0211 98.9824 98.2707 98.9824C97.5204 98.9824 96.9121 99.6028 96.9121 100.368C96.9121 101.133 97.5204 101.754 98.2707 101.754Z" fill="black"/>
<path d="M102.096 106.993C102.441 106.993 102.721 106.708 102.721 106.356C102.721 106.004 102.441 105.719 102.096 105.719C101.751 105.719 101.472 106.004 101.472 106.356C101.472 106.708 101.751 106.993 102.096 106.993Z" fill="black"/>
<path d="M88.589 112.09C88.8908 112.09 89.1355 111.84 89.1355 111.532C89.1355 111.224 88.8908 110.975 88.589 110.975C88.2872 110.975 88.0425 111.224 88.0425 111.532C88.0425 111.84 88.2872 112.09 88.589 112.09Z" fill="black"/>
<path d="M97.9582 115.164C98.2686 115.164 98.5203 114.908 98.5203 114.591C98.5203 114.274 98.2686 114.018 97.9582 114.018C97.6477 114.018 97.396 114.274 97.396 114.591C97.396 114.908 97.6477 115.164 97.9582 115.164Z" fill="black"/>
<path d="M92.9611 118.7C93.8063 118.7 94.4913 118.001 94.4913 117.139C94.4913 116.277 93.8063 115.578 92.9611 115.578C92.1159 115.578 91.4307 116.277 91.4307 117.139C91.4307 118.001 92.1159 118.7 92.9611 118.7Z" fill="black"/>
<path d="M103.877 114.017C104.515 114.017 105.032 113.49 105.032 112.839C105.032 112.188 104.515 111.66 103.877 111.66C103.238 111.66 102.721 112.188 102.721 112.839C102.721 113.49 103.238 114.017 103.877 114.017Z" fill="black"/>
<path d="M97.3026 112.249C96.7274 112.252 96.1643 112.081 95.6846 111.758C95.205 111.434 94.8301 110.973 94.608 110.431C94.3857 109.891 94.3259 109.294 94.4363 108.719C94.5466 108.143 94.822 107.614 95.2275 107.198C95.6331 106.782 96.1507 106.498 96.7146 106.382C97.2784 106.267 97.8631 106.324 98.3949 106.548C98.9265 106.772 99.381 107.152 99.7009 107.639C100.021 108.127 100.191 108.7 100.191 109.287C100.191 110.07 99.8877 110.821 99.3462 111.376C98.8049 111.931 98.0701 112.245 97.3026 112.249ZM97.3026 107.471C96.9566 107.471 96.6185 107.576 96.3308 107.772C96.0433 107.968 95.8191 108.246 95.6867 108.572C95.5543 108.898 95.5197 109.257 95.5871 109.603C95.6547 109.949 95.8211 110.267 96.0658 110.516C96.3105 110.766 96.622 110.936 96.9613 111.005C97.3006 111.073 97.6523 111.038 97.9718 110.903C98.2914 110.768 98.5645 110.539 98.7567 110.246C98.949 109.953 99.0515 109.608 99.0515 109.255C99.0433 108.787 98.8554 108.342 98.5284 108.014C98.2012 107.686 97.761 107.503 97.3026 107.503V107.471Z" fill="black"/>
<path d="M95.4867 111.021L92.3945 116.667L93.3079 117.187L96.4 111.542L95.4867 111.021Z" fill="black"/>
<path d="M104.111 113.81L98.708 110.418L99.2547 109.51L104.658 112.902L104.111 113.81Z" fill="black"/>
<path d="M91.371 106.807L91.0771 107.831L94.8389 108.954L95.1327 107.929L91.371 106.807Z" fill="black"/>
<path d="M97.974 107.04L96.9434 106.897L97.8647 99.8887L98.911 100.032L97.974 107.04Z" fill="black"/>
<path d="M102.157 105.627L99.0981 107.732L99.6841 108.618L102.743 106.513L102.157 105.627Z" fill="black"/>
<path d="M97.599 114.766L97.2241 111.581L98.2548 111.438L98.6296 114.639L97.599 114.766Z" fill="black"/>
<path d="M94.5939 109.793L88.3892 111.122L88.6042 112.166L94.8088 110.837L94.5939 109.793Z" fill="black"/>
<path d="M100.957 77.002V80.1874H99.8009C99.5439 79.6173 99.4058 78.999 99.3948 78.3716H95.3817V82.6563H99.1762V83.9464H95.3817V88.4858H99.676C99.6871 87.8224 99.8419 87.1698 100.129 86.5745H101.237V89.8556H92.477V88.8839C92.8865 88.6362 93.328 88.4487 93.7887 88.3264V78.5469C93.3244 78.4282 92.8815 78.2346 92.477 77.9735V77.002H100.957ZM83.373 77.002V78.0052C82.9736 78.262 82.5358 78.4503 82.0768 78.5627V82.7837H84.0601L86.9022 78.2921C86.478 78.4931 86.0013 78.5488 85.5436 78.4512V77.002H89.713V78.0052C89.2994 78.2595 88.8525 78.4526 88.3857 78.5787L85.2624 83.357L88.4637 88.4539H89.8066V89.5688C89.6269 89.719 89.4199 89.8314 89.1975 89.8997C88.9752 89.968 88.7417 89.991 88.5106 89.967C88.1159 89.9663 87.7304 89.8463 87.4025 89.6224C87.0746 89.3986 86.8189 89.0805 86.6679 88.7087L83.8726 84.1056H82.0768V88.6132C82.5276 88.3905 83.0356 88.3182 83.529 88.4061V89.8556H79.1878V88.8839C79.5935 88.6402 80.0295 88.4527 80.484 88.3264V78.2601C80.0876 78.4781 79.6284 78.5458 79.1878 78.4512V77.002H83.373ZM73.5504 88.677C74.0051 88.4675 74.5092 88.3958 75.0028 88.4698V89.9193H70.6616V88.9476C71.0705 88.7104 71.5056 88.5235 71.9576 88.3901V78.3398C71.5613 78.5578 71.1021 78.6255 70.6616 78.5309V77.0974H74.8309V78.0052C74.4347 78.2533 74.0025 78.4358 73.5504 78.5469V88.677ZM60.0582 88.2627V78.2601C59.6836 78.4195 59.1214 78.6424 58.7622 78.4512V77.002H62.9472V78.0052C62.5452 78.2567 62.1082 78.4446 61.651 78.5627V88.5176H65.3834C65.4051 87.8009 65.5532 87.0941 65.8206 86.4311H66.9762V89.8874H58.7933V88.9158C59.2005 88.6749 59.6361 88.4875 60.0895 88.3584" fill="black"/>
</g>
<defs>
<clipPath id="clip0_1335_43">
<rect width="108" height="97" fill="white" transform="translate(26 35)"/>
</clipPath>
</defs>
</svg>
