<svg width="160" height="160" viewBox="0 0 160 160" fill="none" xmlns="http://www.w3.org/2000/svg">
<g clip-path="url(#clip0_1335_37)">
<path fill-rule="evenodd" clip-rule="evenodd" d="M128.26 82.7995C127.423 84.0186 126.155 84.6283 124.454 84.6283C122.808 84.6283 121.566 84.0186 120.729 82.7995C119.892 81.6067 119.488 80.0694 119.488 78.1875C119.488 76.3056 119.892 74.7948 120.729 73.6021C121.539 72.4359 122.781 71.8263 124.454 71.8263C126.182 71.8263 127.45 72.4094 128.26 73.6021C129.07 74.7684 129.475 76.2791 129.475 78.1875C129.448 80.0959 129.07 81.6332 128.26 82.7995ZM119.757 85.7681C120.972 87.5969 122.889 88.4981 125.534 88.4981C128.152 88.4981 130.23 87.5704 131.742 85.6885C133.226 83.8067 133.982 81.3152 133.982 78.1875C133.982 75.1395 133.253 72.6744 131.769 70.766C130.257 68.8842 128.179 67.93 125.534 67.93C122.889 67.93 120.972 68.8312 119.757 70.66H119.596L119.434 63H114.98L115.142 88.1535H119.083L119.596 85.7681H119.757Z" fill="black"/>
<path d="M26.0127 82.3754C26.0127 86.2186 28.0101 88.1535 32.0049 88.1535H35.4599V84.2838H33.1116C32.2208 84.2838 31.573 84.0717 31.1142 83.6211C30.6823 83.197 30.4933 82.5344 30.4933 81.5802V72.0118H35.4059V68.2745H30.4664V63H26.0127V82.3754Z" fill="black"/>
<path fill-rule="evenodd" clip-rule="evenodd" d="M102.996 84.6554C101.295 84.6554 100.027 84.0458 99.1899 82.8265C98.3801 81.6602 97.9753 80.1229 97.9753 78.2145C97.9753 76.3062 98.3801 74.7689 99.1899 73.6292C99.9996 72.4364 101.268 71.8533 102.996 71.8533C104.669 71.8533 105.911 72.4364 106.721 73.6292C107.557 74.8218 107.962 76.3592 107.962 78.2145C107.962 80.0965 107.557 81.6338 106.721 82.8265C105.884 84.0458 104.642 84.6554 102.996 84.6554ZM101.889 88.5251C104.534 88.5251 106.451 87.624 107.665 85.7951H107.827L108.34 88.1806H112.281V67.9835H107.827V70.6871H107.665C106.451 68.8582 104.534 67.957 101.889 67.957C99.2439 67.957 97.1384 68.9112 95.6269 70.7931C94.1693 72.7015 93.4136 75.1665 93.4136 78.2145C93.4136 81.3422 94.1693 83.8602 95.6539 85.742C97.2195 87.5974 99.2708 88.5251 101.889 88.5251Z" fill="black"/>
<path fill-rule="evenodd" clip-rule="evenodd" d="M42.7745 82.8257C43.6113 84.0449 44.8799 84.6545 46.5804 84.6545C48.2269 84.6545 49.4685 84.0449 50.3052 82.8257C51.142 81.6329 51.5469 80.0956 51.5469 78.2137C51.5469 76.3318 51.142 74.8211 50.3052 73.6283C49.4955 72.4356 48.2539 71.8525 46.5804 71.8525C44.8529 71.8525 43.5843 72.4356 42.7745 73.6283C41.9648 74.7946 41.5599 76.3054 41.5599 78.2137C41.5869 80.1221 41.9648 81.6595 42.7745 82.8257ZM51.277 85.7943C50.0623 87.6231 48.1459 88.5243 45.5007 88.5243C42.8825 88.5243 40.8041 87.5966 39.2926 85.7147C37.808 83.8329 37.0522 81.3148 37.0522 78.1873C37.0522 75.1391 37.781 72.6476 39.2656 70.7658C40.7772 68.8574 42.8555 67.9297 45.5277 67.9297C48.1729 67.9297 50.0894 68.8309 51.304 70.6597H51.466V67.9827H55.9195V88.2063H51.9517L51.4389 85.8207H51.277V85.7943Z" fill="black"/>
<path d="M57.8916 68.2754H62.5612L67.8246 83.2243H67.9866L73.25 68.2754H77.9735L83.21 83.2774H83.345L88.5814 68.2754H93.3049L82.5622 96.9806H77.8386L81.0777 88.0749H80.1059L75.5983 74.9018L67.2309 96.9806H62.5072L65.7192 88.0749H64.5855L57.8916 68.2754Z" fill="black"/>
</g>
<defs>
<clipPath id="clip0_1335_37">
<rect width="108" height="34" fill="white" transform="translate(26 63)"/>
</clipPath>
</defs>
</svg>
