<svg width="160" height="160" viewBox="0 0 160 160" fill="none" xmlns="http://www.w3.org/2000/svg">
<g clip-path="url(#clip0_1335_45)">
<path fill-rule="evenodd" clip-rule="evenodd" d="M79.2025 26C52.7962 26 30.8764 45.2059 26.6327 70.4161H35.1105C39.2499 49.8428 57.4182 34.3433 79.2025 34.3433C100.988 34.3433 119.151 49.8428 123.291 70.4161H131.772C127.53 45.2059 105.608 26 79.2025 26ZM132.122 72.8184H123.707C123.853 73.8276 123.966 74.8489 124.047 75.8788H132.406C132.341 74.8489 132.245 73.8299 132.122 72.8184ZM123.486 87.2372C119.754 108.321 101.348 124.336 79.2025 124.336C57.0566 124.336 38.6486 108.321 34.9185 87.2372H26.4699C30.2838 112.951 52.4383 132.676 79.2025 132.676C105.964 132.676 128.122 112.951 131.937 87.2372H123.486ZM26.2839 72.8184C26.1591 73.8299 26.065 74.8489 26 75.8788H34.3567C34.4363 74.8489 34.5494 73.8276 34.6965 72.8184H26.2839ZM118.881 87.2372C115.207 105.806 98.8401 119.808 79.2025 119.808C59.5636 119.808 43.1961 105.806 39.5232 87.2372C39.0181 84.6831 38.7544 82.0439 38.7544 79.3413C38.7544 78.1737 38.8026 77.0185 38.9011 75.8788C38.9884 74.8462 39.1133 73.826 39.278 72.8184C39.4056 72.0093 39.563 71.2084 39.7421 70.4161C43.8037 52.3609 59.927 38.8747 79.2025 38.8747C98.4766 38.8747 114.598 52.3609 118.66 70.4161C118.838 71.2084 118.995 72.0093 119.126 72.8184C119.291 73.826 119.414 74.8462 119.502 75.8788C119.601 77.0185 119.649 78.1737 119.649 79.3413C119.649 82.0439 119.383 84.6831 118.881 87.2372ZM121.296 75.8788C121.214 74.8489 121.092 73.8276 120.936 72.8184C120.812 72.0093 120.665 71.2102 120.491 70.4161C116.399 51.3654 99.4655 37.0849 79.2025 37.0849C58.938 37.0849 42.0056 51.3654 37.9132 70.4161C37.7418 71.2102 37.5946 72.0093 37.4698 72.8184C37.3129 73.8276 37.193 74.8489 37.1086 75.8788C37.0172 77.0212 36.9702 78.1755 36.9702 79.3413C36.9702 82.0398 37.2228 84.677 37.7066 87.2372C41.4014 106.8 58.5758 121.593 79.2025 121.593C99.8273 121.593 117.003 106.8 120.699 87.2372C121.184 84.677 121.437 82.0398 121.437 79.3413C121.437 78.1755 121.388 77.0212 121.296 75.8788ZM107.772 62.9291C107.621 61.2811 107.147 59.5816 106.349 57.8286C105.554 56.0766 104.221 54.3987 102.362 52.7978C100.321 51.0451 97.6069 49.6488 94.2184 48.6051C90.8329 47.5563 86.5606 47.2706 81.4007 47.7456C77.4513 48.1051 73.528 48.9098 69.6323 50.1529C65.7341 51.395 62.148 53.1602 58.8715 55.4555C57.4719 56.4686 56.3313 57.458 55.4505 58.4246C54.5724 59.3917 53.8976 60.337 53.4293 61.2661C52.9594 62.1954 52.6532 63.068 52.506 63.8846C52.3577 64.6992 52.3222 65.4625 52.3857 66.1787C52.5005 67.4409 52.8964 68.4556 53.5762 69.2228C53.9805 69.682 54.4026 70.0813 54.8367 70.4161C55.1279 70.6459 55.4252 70.8469 55.7321 71.0204C56.8986 71.6863 58.2234 72.091 59.703 72.2333C61.1802 72.3722 62.4963 72.3918 63.6499 72.2859C64.8005 72.1807 65.5381 71.9185 65.858 71.5003C66.1473 71.1274 66.2912 70.7661 66.2935 70.4161C66.2935 70.3793 66.2907 70.3387 66.2894 70.3003C66.2172 69.5342 65.8762 69.095 65.2558 68.983C64.6359 68.874 64.0522 68.8178 63.4967 68.8134C63.0593 68.8526 62.4916 68.8483 61.7956 68.8025C61.1001 68.7565 60.3825 68.6274 59.6424 68.4207C58.9048 68.2106 58.2641 67.8668 57.7216 67.3924C57.183 66.9136 56.8743 66.2668 56.7971 65.4409C56.7277 64.6725 56.9483 63.7667 57.4623 62.7244C57.9752 61.6822 59.1361 60.4677 60.9467 59.0851C64.2557 56.5669 67.699 54.7557 71.2797 53.6536C74.8573 52.5506 78.2083 51.8567 81.3347 51.5689C84.0803 51.3169 86.9178 51.361 89.8544 51.7044C92.7928 52.0424 95.5063 53.1222 97.9926 54.9401C99.8894 56.3181 101.201 57.8015 101.929 59.3958C102.657 60.9895 103.078 62.4185 103.194 63.682C103.3 64.8333 103.222 66.1122 102.961 67.5228C102.785 68.484 102.506 69.4493 102.12 70.4164C101.945 70.8667 101.748 71.3136 101.526 71.7621C101.351 72.1172 101.16 72.4676 100.954 72.8189C100.345 73.8559 99.5955 74.8767 98.7106 75.8791C98.6983 75.8936 98.686 75.9109 98.6696 75.9244C97.4658 77.2819 95.9728 78.4853 94.187 79.5314C92.3541 80.6435 90.3129 81.4786 88.0702 82.048C85.8239 82.6112 83.7415 82.9816 81.823 83.1567C80.7271 83.2598 79.6384 83.3176 78.5611 83.3326C77.4836 83.3484 76.4444 83.3436 75.4486 83.3258C75.7375 81.6398 76.0405 80.2729 76.3581 79.2172C76.675 78.1746 77.0228 77.0636 77.4058 75.8795C77.4085 75.8675 77.414 75.8518 77.4194 75.8404C77.7229 74.9026 78.0509 73.8973 78.4045 72.8193C78.6517 72.0544 78.9151 71.2526 79.1922 70.4171C79.3513 69.9276 79.5187 69.4206 79.6878 68.9068C80.5536 66.2819 81.7302 63.7118 83.2124 61.1946C83.9769 59.8523 84.43 58.7575 84.5732 57.9163C84.7182 57.073 84.684 56.4114 84.4776 55.9329C84.2654 55.4523 83.9466 55.1366 83.5177 54.9786C83.087 54.8278 82.7114 54.7648 82.3808 54.7948C81.1159 54.9114 80.1925 55.3829 79.605 56.2118C79.0165 57.0389 78.5921 57.8559 78.3339 58.6555C77.4486 61.0596 76.6841 63.2742 76.0389 65.2963C75.4565 67.1365 74.9259 68.8423 74.4542 70.4171C74.4048 70.5782 74.3556 70.7374 74.3114 70.8936C74.117 71.5538 73.9273 72.1933 73.7486 72.8193C73.4663 73.8106 73.2032 74.7613 72.9618 75.6673C72.9423 75.7386 72.9231 75.8096 72.9058 75.8795C72.5364 77.2796 72.1744 78.6258 71.8167 79.9223L70.9521 83.1573C69.0762 83.2177 67.2633 83.2061 65.5117 83.1148C63.763 83.0287 62.0768 82.9183 60.4617 82.7915C59.5445 82.432 58.7554 82.2838 58.0986 82.346C57.4389 82.4036 56.8902 82.5789 56.4449 82.8678C56.0003 83.1573 55.6891 83.5325 55.5099 83.9933C55.3296 84.4525 55.2584 84.8703 55.2948 85.2561C55.3496 85.8604 55.5561 86.3095 55.9152 86.613C56.24 86.8789 56.6111 87.0895 57.0384 87.2379C57.0837 87.2534 57.1327 87.2705 57.183 87.2844C57.6647 87.4351 58.1713 87.5095 58.6972 87.5198C59.2219 87.5264 59.6777 87.5102 60.0602 87.477C61.0004 87.4465 61.8807 87.4194 62.7106 87.4027C63.5361 87.3829 64.3968 87.3848 65.2831 87.4137C66.1177 87.4467 66.9314 87.4444 67.7282 87.3966C68.5284 87.354 69.3409 87.3176 70.1687 87.2976L68.6404 93.252C66.7695 93.3656 64.963 93.435 63.2237 93.4542C61.4821 93.4788 59.8061 93.4528 58.1954 93.3786C57.2777 93.0198 56.4875 92.8677 55.8277 92.9271C55.1721 92.99 54.6193 93.1662 54.177 93.4542C53.7335 93.7435 53.4227 94.1194 53.2424 94.577C53.0637 95.0384 52.9925 95.4605 53.0273 95.8425C53.0828 96.4486 53.29 96.8998 53.6495 97.1982C54.009 97.4978 54.4297 97.7062 54.9112 97.83C55.3911 97.9509 55.881 98.0035 56.3773 97.9866C56.8734 97.9687 57.3153 97.9418 57.6966 97.9054C59.2303 97.7644 60.9478 97.6344 62.8481 97.5174C64.7461 97.3993 66.3552 97.3062 67.6756 97.2408L66.4526 102.001C66.3747 102.342 66.2771 102.78 66.1585 103.317C66.0433 103.853 65.9417 104.416 65.8573 105.004C65.7728 105.593 65.7179 106.195 65.6893 106.804C65.6624 107.414 65.6658 107.912 65.7016 108.298C65.8008 109.394 66.1815 110.205 66.8367 110.727C67.493 111.249 68.1241 111.479 68.7244 111.423C69.3828 111.365 70 111.127 70.5685 110.717C71.1392 110.304 71.3744 109.521 71.2674 108.367C71.2275 107.931 71.1392 107.592 71.0108 107.355C70.8781 107.119 70.7515 106.824 70.6406 106.475C70.5225 106.126 70.4672 105.677 70.4722 105.12C70.4776 104.566 70.5981 103.756 70.8282 102.68L72.0849 97.2224C72.9334 97.1753 73.7452 97.1327 74.5259 97.089C76.1202 96.9988 77.3841 96.9098 78.3169 96.8253C79.5248 96.7122 80.7776 96.6389 82.0739 96.6052C82.5841 96.5913 83.0763 96.5654 83.5412 96.5296C83.548 96.5296 83.5562 96.5296 83.563 96.5283C84.2708 96.4738 84.9281 96.3921 85.5307 96.2881C86.5383 96.1116 87.3547 95.8159 87.9812 95.3993C88.6064 94.9824 88.8819 94.3639 88.804 93.5395C88.7161 92.5494 88.3421 91.9728 87.6946 91.8164C87.0412 91.6529 86.4962 91.5946 86.0589 91.6333C85.566 91.6775 85.0995 91.7353 84.6633 91.7991C84.2267 91.8685 83.7909 91.9496 83.3582 92.0461C82.5461 92.2314 81.711 92.3623 80.8605 92.4397C80.0109 92.5208 79.1474 92.5982 78.2695 92.6792C76.9978 92.7949 75.7277 92.9262 74.456 93.0653C73.9872 93.0803 73.5107 93.0881 73.0233 93.0961L74.4196 87.4893C76.0815 87.477 77.8702 87.3948 79.7928 87.2386C80.1711 87.2076 80.5529 87.1769 80.9434 87.14C83.6862 86.8896 86.3573 86.4516 88.954 85.8262C91.5546 85.2013 94.0372 84.2251 96.4035 82.9019C98.6195 81.6996 100.482 80.3155 101.999 78.7362C102.882 77.8155 103.66 76.8642 104.34 75.8802C104.828 75.1747 105.263 74.4519 105.646 73.712C105.801 73.414 105.945 73.1166 106.08 72.8198C106.445 72.0268 106.749 71.2266 106.994 70.4175C107.212 69.7074 107.386 68.9896 107.513 68.2682C107.841 66.4084 107.927 64.627 107.772 62.9291Z" fill="#E30016"/>
</g>
<defs>
<clipPath id="clip0_1335_45">
<rect width="107" height="107" fill="white" transform="translate(26 26)"/>
</clipPath>
</defs>
</svg>
