<svg width="160" height="160" viewBox="0 0 160 160" fill="none" xmlns="http://www.w3.org/2000/svg">
<path d="M73.334 118.86C71.6853 117.657 70.3311 115.422 69.229 112.153L55.5231 71.5941L49.0819 109.995C48.4842 113.504 47.6272 116.038 46.4952 117.537C44.7672 119.846 42.1963 121 38.7809 121C36.4692 121 34.378 120.303 32.5336 118.923C30.1796 117.105 29 114.697 29 111.624C29 110.665 29.1922 109.131 29.5695 107.017L39.7965 47.6902C40.389 44.2991 41.6762 41.7921 43.6528 40.1692C46.2236 38.0575 49.3658 37 53.0634 37C56.1756 37 58.8751 37.799 61.1497 39.3852C63.1757 40.7747 64.5793 42.6545 65.3816 44.9997L79.9057 87.013L93.2325 46.7961C94.2834 43.6019 96.0766 41.1316 98.6087 39.3869C100.832 37.8357 103.392 37.0617 106.302 37.0617C109.627 37.0617 112.577 38.0575 115.148 40.0357C117.462 41.9172 118.862 44.1657 119.318 46.7944L130.374 106.85C130.803 109.067 131 110.675 131 111.681C131 114.633 129.843 117.015 127.53 118.858C125.633 120.284 123.503 120.997 121.15 120.997C117.786 120.997 115.187 119.842 113.381 117.534C112.202 116.061 111.329 113.552 110.733 109.991L104.094 71.5908L91.91 109.953C90.9755 112.777 90.2596 114.713 89.7641 115.759C89.2581 116.827 88.6233 117.716 87.8686 118.43C85.9731 120.149 83.441 120.998 80.2848 120.998C77.5041 120.998 75.1907 120.286 73.334 118.86Z" fill="#99CC33"/>
</svg>
