<svg width="160" height="160" viewBox="0 0 160 160" fill="none" xmlns="http://www.w3.org/2000/svg">
<g clip-path="url(#clip0_1133_24)">
<path d="M120.474 32H39.5264C35.3697 32 32 35.3697 32 39.5264V120.474C32 124.63 35.3697 128 39.5264 128H120.474C124.63 128 128 124.63 128 120.474V39.5264C128 35.3697 124.63 32 120.474 32Z" fill="url(#paint0_linear_1133_24)"/>
<path fill-rule="evenodd" clip-rule="evenodd" d="M55.0404 71.2642H47.3604C46.8512 71.2642 46.3628 71.4664 46.0027 71.8266C45.6426 72.1866 45.4404 72.6751 45.4404 73.1842V80.8642C45.4404 81.3734 45.6426 81.8619 46.0027 82.2219C46.3628 82.5819 46.8512 82.7842 47.3604 82.7842H55.0404C55.5496 82.7842 56.0381 82.5819 56.3983 82.2219C56.7583 81.8619 56.9604 81.3734 56.9604 80.8642V73.1842C56.9604 72.6751 56.7583 72.1866 56.3983 71.8266C56.0381 71.4664 55.5496 71.2642 55.0404 71.2642ZM98.8546 72.7234C98.0475 74.4593 96.9577 76.0489 95.6292 77.4274C98.0511 78.9256 100.094 80.9625 101.6 83.3794C103.299 86.126 104.235 89.2756 104.312 92.5039C104.39 95.7321 103.607 98.923 102.042 101.748C100.478 104.573 98.1901 106.931 95.4128 108.579C92.6358 110.226 89.4697 111.105 86.2404 111.123H60.858C60.345 111.129 59.8358 111.031 59.3608 110.837C58.886 110.642 58.455 110.355 58.0932 109.991C57.7292 109.629 57.4414 109.198 57.2469 108.723C57.0522 108.248 56.9549 107.739 56.9604 107.226V94.0738H66.5604C67.0696 94.0738 67.5581 93.8715 67.9183 93.5115C68.2783 93.1515 68.4804 92.663 68.4804 92.1538V82.5538H78.0804C78.5896 82.5538 79.0781 82.3515 79.4383 81.9915C79.7983 81.6315 80.0004 81.143 80.0004 80.6338V72.9538C80.0004 72.4447 79.7983 71.9562 79.4383 71.5962C79.0781 71.236 78.5896 71.0338 78.0804 71.0338H68.4804V61.4338C68.4804 60.9247 68.2783 60.4362 67.9183 60.0762C67.5581 59.716 67.0696 59.5138 66.5604 59.5138H56.9604V52.6978C56.9604 51.6795 57.365 50.7027 58.0852 49.9825C58.8054 49.2624 59.7821 48.8578 60.8004 48.8578H83.5524C86.3898 48.8384 89.1859 49.5372 91.6806 50.889C94.1752 52.2409 96.2874 54.202 97.8203 56.5895C99.3535 58.9772 100.258 61.714 100.448 64.5448C100.639 67.3759 100.111 70.2092 98.9124 72.781L98.8546 72.7234Z" fill="#F2F4F9"/>
</g>
<defs>
<linearGradient id="paint0_linear_1133_24" x1="53.0624" y1="117.114" x2="106.938" y2="42.8864" gradientUnits="userSpaceOnUse">
<stop stop-color="#1E1347"/>
<stop offset="1" stop-color="#996C95"/>
</linearGradient>
<clipPath id="clip0_1133_24">
<rect width="96" height="96" fill="white" transform="translate(32 32)"/>
</clipPath>
</defs>
</svg>
