<svg width="160" height="160" viewBox="0 0 160 160" fill="none" xmlns="http://www.w3.org/2000/svg">
<path d="M85.4018 62.7793C76.5884 62.7793 69.4221 68.1884 67.644 70.4341V63.927H52V130.422H67.5473V106.78C69.3735 109.074 76.4921 114.387 85.3537 114.387C100.077 114.387 108.17 106.442 108.17 88.5591C108.17 70.7239 100.077 62.7793 85.4018 62.7793ZM79.8333 101.494C70.5496 101.494 67.6562 98.1404 67.6562 88.4857C67.6562 78.7841 70.5496 75.4781 79.8333 75.4781C89.1656 75.4781 91.9622 78.7841 91.9622 88.4857C91.9622 98.1404 89.1656 101.494 79.8333 101.494Z" fill="#143254"/>
<path d="M105.997 29L52 36.0212V51.9294L105.997 47.1334V29Z" fill="#E41B41"/>
</svg>
