<svg width="160" height="160" viewBox="0 0 160 160" fill="none" xmlns="http://www.w3.org/2000/svg">
<g clip-path="url(#clip0_1335_38)">
<path fill-rule="evenodd" clip-rule="evenodd" d="M130.719 79.6408C130.719 107.961 107.679 131.001 79.3591 131.001C78.322 131.001 77.2944 130.961 76.272 130.899C75.9917 130.883 75.7137 130.857 75.4339 130.836C74.6521 130.776 73.8755 130.7 73.1036 130.606C72.8308 130.573 72.5593 130.54 72.2878 130.502C71.3877 130.378 70.4958 130.232 69.6115 130.061C69.4945 130.038 69.3768 130.021 69.2592 129.998C68.2415 129.794 67.2355 129.559 66.2394 129.296C66.0165 129.237 65.7976 129.169 65.5752 129.107C64.8425 128.902 64.1151 128.684 63.3964 128.448C63.0388 128.331 62.6836 128.21 62.3289 128.086C61.7519 127.883 61.1819 127.666 60.6142 127.443C60.2169 127.287 59.8183 127.138 59.425 126.973C58.6444 126.643 57.8724 126.295 57.1122 125.928C56.5405 125.653 55.9804 125.356 55.4192 125.06C55.1582 124.922 54.896 124.785 54.6379 124.643C54.3336 124.476 54.0199 124.326 53.7191 124.153C53.7191 124.153 47.8814 120.332 45.2865 118.025C45.3743 118.017 46.1538 117.919 46.1538 117.919C49.0139 117.562 53.4042 117.01 57.3961 114.92C58.0521 115.33 58.7169 115.726 59.3964 116.099C59.5573 116.188 59.7206 116.273 59.8827 116.359C61.2995 117.114 62.7661 117.784 64.2737 118.373C64.6909 118.535 65.1076 118.695 65.529 118.844C65.8432 118.955 66.1598 119.062 66.477 119.165C67.0254 119.343 67.5773 119.51 68.1332 119.666C68.3422 119.724 68.5493 119.788 68.7594 119.844C69.5571 120.053 70.3612 120.242 71.1717 120.404C71.2835 120.426 71.3959 120.443 71.5071 120.464C72.2099 120.599 72.9151 120.714 73.6244 120.813C73.8503 120.844 74.0768 120.871 74.3039 120.899C74.9254 120.975 75.5504 121.036 76.1766 121.084C76.4048 121.101 76.6325 121.122 76.8619 121.136C77.6923 121.186 78.5245 121.218 79.3591 121.218C102.284 121.218 120.936 102.566 120.936 79.6408C120.936 56.7157 102.284 38.0639 79.3591 38.0639C56.4339 38.0639 37.7822 56.7157 37.7822 79.6408C37.7822 80.7539 37.8384 81.8623 37.9267 82.9661C37.939 83.1118 37.9478 83.2581 37.9607 83.4032C38.0602 84.4964 38.2018 85.5844 38.3879 86.6624C38.4037 86.7595 38.4218 86.8555 38.4394 86.9526C39.0422 90.3183 40.0616 93.5926 41.4592 96.7031C41.5382 96.8769 41.6148 97.0519 41.6962 97.2251C42.1047 98.1012 42.5488 98.9609 43.0182 99.8071C43.1762 100.093 43.3401 100.374 43.5057 100.655C43.7064 100.998 43.9288 101.33 44.1401 101.668C44.5808 102.373 45.0285 103.072 45.5119 103.751C45.6242 103.747 45.726 103.749 45.8413 103.742C46.8848 103.687 48.057 103.531 49.0952 103.148C50.481 102.638 51.6292 101.727 51.9213 100.124L52.273 98.6478L56.0553 79.1644H51.4607L53.4306 69.3227H58.0211L59.5374 62.3304C61.7232 50.0096 72.8753 48.4066 78.5614 48.4066C81.2605 48.4066 83.156 48.6243 83.156 48.6243L80.9667 59.2679C80.9667 59.2679 80.2398 59.1227 79.0711 59.1227C76.595 59.1227 72.5845 59.5599 72.0004 62.7663L70.5613 69.3227H82.8066C82.6668 69.3946 82.5357 69.4789 82.3976 69.5538C82.3033 69.6041 82.2056 69.6463 82.1125 69.6984C82.0318 69.744 81.9569 69.8008 81.8761 69.8476C81.4272 70.1063 80.9901 70.3819 80.5635 70.6728C80.4897 70.7231 80.4084 70.7647 80.3358 70.8156C80.3024 70.839 80.2743 70.8682 80.2404 70.8922C79.5697 71.3692 78.9266 71.8819 78.3168 72.4349C78.2477 72.4975 78.1839 72.5648 78.1149 72.628C77.5864 73.1208 77.0843 73.6416 76.6073 74.1888C76.5113 74.2988 76.4113 74.4048 76.3176 74.5165C75.8325 75.0977 75.3778 75.7057 74.9535 76.3407C74.837 76.5145 74.7305 76.6942 74.6193 76.8715C74.2968 77.3853 73.9943 77.915 73.7122 78.4604C73.6186 78.6424 73.5173 78.8191 73.4284 79.0041C73.402 79.0591 73.3704 79.1094 73.3447 79.1644H68.667L65.6963 94.9427L64.18 101.936C63.9067 103.476 63.493 104.837 62.9668 106.042C60.8606 110.859 56.9571 113.17 53.0771 114.383C52.1074 114.687 51.1394 114.921 50.2001 115.11C49.7308 115.204 49.269 115.286 48.819 115.36C47.4665 115.581 46.2135 115.724 45.156 115.859C45.0571 115.872 44.5322 115.913 44.0318 115.949C43.6122 115.981 43.1019 116.017 43.1019 116.017C43.1019 116.017 42.5167 115.425 42.3393 115.242C41.4369 114.303 40.562 113.322 39.731 112.315C37.5873 109.718 35.728 106.919 34.1467 103.979L34.1444 103.98C34.1268 103.946 34.111 103.913 34.0935 103.879C33.8143 103.358 33.544 102.831 33.2835 102.3C33.1577 102.046 33.0336 101.791 32.9119 101.534C32.7264 101.139 32.5473 100.741 32.3712 100.34C32.2102 99.9757 32.0481 99.6111 31.8954 99.2418C31.79 98.9861 31.6917 98.728 31.5905 98.4699C30.626 96.0318 29.8436 93.5048 29.2589 90.9017C29.2332 90.7888 29.2051 90.677 29.1799 90.5635C29.0594 90.0093 28.9517 89.4504 28.8498 88.8891C28.8065 88.6568 28.7638 88.4233 28.7246 88.1904C28.6409 87.6959 28.5654 87.199 28.4964 86.7004C28.4507 86.3727 28.4109 86.0449 28.3711 85.716C28.3202 85.2859 28.2699 84.8552 28.2301 84.4215C28.188 83.9726 28.1569 83.5226 28.1265 83.072C28.1043 82.7361 28.0768 82.4025 28.061 82.0654C28.0229 81.259 27.9995 80.4507 27.9995 79.6408C27.9995 51.3211 51.0393 28.2812 79.3591 28.2812C107.679 28.2812 130.719 51.3211 130.719 79.6408ZM86.9541 80.5783C87.1502 80.291 87.3626 80.0177 87.5926 79.7614C88.7408 78.4838 90.3145 77.6463 92.3447 77.6463C92.9123 77.6463 93.4203 77.7435 93.8616 77.9226C94.3028 78.1011 94.6786 78.3609 94.9835 78.6857C95.2878 79.0105 95.5213 79.4003 95.6787 79.8386C95.8367 80.2769 95.9175 80.7644 95.9175 81.2841C95.9175 81.479 95.9005 81.7716 95.8847 82.0151C95.8677 82.2585 95.8513 82.4534 95.8513 82.4534H85.978C86.2372 81.7874 86.562 81.1542 86.9541 80.5783ZM73.5126 92.483C73.6004 92.9506 73.7116 93.4124 73.8445 93.8653C73.9773 94.3183 74.1324 94.7631 74.3091 95.1973C74.4865 95.6321 74.6854 96.057 74.9072 96.4708C76.0701 98.642 77.8457 100.504 80.2387 101.858C80.6378 102.084 81.0539 102.295 81.4869 102.491C81.92 102.688 82.3706 102.869 82.8382 103.035C83.3725 103.223 83.9291 103.392 84.5085 103.537C85.0873 103.683 85.69 103.807 86.3139 103.907C87.5628 104.107 88.9018 104.213 90.3303 104.213C94.1308 104.213 97.5081 103.124 99.9356 102.036C100.543 101.764 101.09 101.492 101.57 101.237C101.93 101.046 102.251 100.865 102.532 100.7C103.092 100.37 103.487 100.106 103.688 99.9681C103.788 99.8984 103.84 99.8598 103.84 99.8598L100.983 91.4811C100.983 91.4811 100.014 92.1272 98.5147 92.8546C96.5881 93.7898 93.7855 94.8585 91.0443 94.8585C90.6545 94.8585 90.28 94.8391 89.9218 94.8011C89.2049 94.7244 88.5518 94.5723 87.9672 94.3493C87.6751 94.2375 87.4001 94.1082 87.1414 93.9613C86.9699 93.8636 86.8301 93.7354 86.6732 93.6225C86.2056 93.2836 85.7849 92.8997 85.4641 92.4298C84.8222 91.4893 84.4845 90.296 84.4845 88.8833H105.595C105.595 88.8833 105.672 88.6638 105.788 88.2875C105.904 87.9112 106.058 87.3775 106.212 86.7484C106.289 86.4335 106.367 86.0953 106.439 85.74C106.511 85.386 106.579 85.0149 106.637 84.6357C106.694 84.2571 106.742 83.8696 106.776 83.4816C106.81 83.0931 106.829 82.7045 106.829 82.3223C106.829 81.5978 106.787 80.8944 106.703 80.2132C106.449 78.1707 105.817 76.3349 104.809 74.7752C103.463 72.6953 101.449 71.1047 98.7728 70.166C97.435 69.696 95.9315 69.3894 94.263 69.2653C93.7071 69.2238 93.1324 69.2021 92.5401 69.2021C91.159 69.2021 89.8223 69.3396 88.5401 69.6024C87.578 69.799 86.6469 70.0665 85.7503 70.3995C84.8543 70.7331 83.9929 71.1316 83.1712 71.591C82.8973 71.7443 82.6422 71.924 82.3765 72.0908C82.112 72.257 81.8381 72.4109 81.5823 72.59C80.3048 73.4883 79.1443 74.5452 78.1231 75.7403C77.1024 76.9359 76.2199 78.2684 75.4977 79.7157C74.0534 82.6108 73.2475 85.9648 73.2475 89.5984C73.2475 90.581 73.3359 91.5455 73.5126 92.483Z" fill="#022BB8"/>
</g>
<defs>
<clipPath id="clip0_1335_38">
<rect width="103" height="103" fill="white" transform="translate(28 28)"/>
</clipPath>
</defs>
</svg>
