<svg width="160" height="160" viewBox="0 0 160 160" fill="none" xmlns="http://www.w3.org/2000/svg">
<circle cx="80" cy="80" r="59" fill="#F8E11A"/>
<path d="M87.745 102.393V86.7631C87.7447 86.4205 87.6766 86.0813 87.5446 85.7652C87.4127 85.4491 87.2195 85.1622 86.9761 84.921C86.4822 84.4319 85.8151 84.1576 85.1199 84.158H74.621C73.926 84.1576 73.259 84.4318 72.7653 84.921C72.5218 85.1621 72.3286 85.449 72.1966 85.7652C72.0646 86.0813 71.9966 86.4205 71.9964 86.7631V102.393C71.9963 102.735 71.9283 103.074 71.7963 103.391C71.6643 103.707 71.471 103.994 71.2276 104.235C70.7339 104.724 70.0668 104.998 69.3718 104.998L53.6255 105C52.9302 105.001 52.2627 104.727 51.7693 104.237C51.526 103.996 51.3328 103.709 51.2008 103.393C51.0688 103.077 51.0005 102.737 51 102.395V72.2887C51 71.9251 51.0765 71.5655 51.2245 71.2334C51.3726 70.9013 51.5889 70.6041 51.8593 70.361L78.105 46.6774C78.5895 46.241 79.2186 45.9997 79.8707 46C80.5228 45.9996 81.1519 46.2409 81.6364 46.6774L107.886 70.361C108.156 70.6042 108.372 70.9014 108.52 71.2335C108.668 71.5656 108.745 71.9251 108.745 72.2887V102.395C108.744 102.737 108.676 103.077 108.544 103.393C108.412 103.709 108.219 103.996 107.976 104.237C107.482 104.727 106.815 105.001 106.12 105L90.3691 104.998C89.6741 104.998 89.0071 104.724 88.5134 104.235C88.2701 103.994 88.0769 103.707 87.945 103.391C87.8131 103.074 87.7451 102.735 87.745 102.393Z" stroke="#0C0B02" stroke-width="3.29762" stroke-linecap="round" stroke-linejoin="round"/>
</svg>
