<svg width="160" height="160" viewBox="0 0 160 160" fill="none" xmlns="http://www.w3.org/2000/svg">
<path d="M33.7344 54.25V77H29.0469V54.25H33.7344ZM47.1406 54.25L38.4219 67.6094H32.6875L32.0938 63.4375H35.9219L41.4531 54.25H47.1406ZM42.3125 77L35.9375 66.8281L39.1875 63.4844L47.875 77H42.3125ZM53.8125 63.3438V83.5H49.3125V60.0938H53.4844L53.8125 63.3438ZM64.5156 68.3594V68.6875C64.5156 69.9167 64.3698 71.0573 64.0781 72.1094C63.7969 73.1615 63.3802 74.0781 62.8281 74.8594C62.276 75.6302 61.5885 76.2344 60.7656 76.6719C59.9531 77.099 59.0156 77.3125 57.9531 77.3125C56.9219 77.3125 56.026 77.1042 55.2656 76.6875C54.5052 76.2708 53.8646 75.6875 53.3438 74.9375C52.8333 74.1771 52.4219 73.2969 52.1094 72.2969C51.7969 71.2969 51.5573 70.224 51.3906 69.0781V68.2188C51.5573 66.9896 51.7969 65.8646 52.1094 64.8438C52.4219 63.8125 52.8333 62.9219 53.3438 62.1719C53.8646 61.4115 54.5 60.8229 55.25 60.4062C56.0104 59.9896 56.901 59.7812 57.9219 59.7812C58.9948 59.7812 59.9375 59.9844 60.75 60.3906C61.5729 60.7969 62.2604 61.3802 62.8125 62.1406C63.375 62.901 63.7969 63.8073 64.0781 64.8594C64.3698 65.9115 64.5156 67.0781 64.5156 68.3594ZM60 68.6875V68.3594C60 67.6406 59.9375 66.9792 59.8125 66.375C59.6979 65.7604 59.5104 65.224 59.25 64.7656C59 64.3073 58.6667 63.9531 58.25 63.7031C57.8438 63.4427 57.349 63.3125 56.7656 63.3125C56.151 63.3125 55.625 63.4115 55.1875 63.6094C54.7604 63.8073 54.4115 64.0938 54.1406 64.4688C53.8698 64.8438 53.6667 65.2917 53.5312 65.8125C53.3958 66.3333 53.3125 66.9219 53.2812 67.5781V69.75C53.3333 70.5208 53.4792 71.2135 53.7188 71.8281C53.9583 72.4323 54.3281 72.9115 54.8281 73.2656C55.3281 73.6198 55.9844 73.7969 56.7969 73.7969C57.3906 73.7969 57.8906 73.6667 58.2969 73.4062C58.7031 73.1354 59.0312 72.7656 59.2812 72.2969C59.5417 71.8281 59.724 71.2865 59.8281 70.6719C59.9427 70.0573 60 69.3958 60 68.6875ZM75.0938 77.3125C73.7812 77.3125 72.6042 77.1042 71.5625 76.6875C70.5208 76.2604 69.6354 75.6719 68.9062 74.9219C68.1875 74.1719 67.6354 73.3021 67.25 72.3125C66.8646 71.3125 66.6719 70.25 66.6719 69.125V68.5C66.6719 67.2188 66.8542 66.0469 67.2188 64.9844C67.5833 63.9219 68.1042 63 68.7812 62.2188C69.4688 61.4375 70.3021 60.8385 71.2812 60.4219C72.2604 59.9948 73.3646 59.7812 74.5938 59.7812C75.7917 59.7812 76.8542 59.9792 77.7812 60.375C78.7083 60.7708 79.4844 61.3333 80.1094 62.0625C80.7448 62.7917 81.224 63.6667 81.5469 64.6875C81.8698 65.6979 82.0312 66.8229 82.0312 68.0625V69.9375H68.5938V66.9375H77.6094V66.5938C77.6094 65.9688 77.4948 65.4115 77.2656 64.9219C77.0469 64.4219 76.7135 64.026 76.2656 63.7344C75.8177 63.4427 75.2448 63.2969 74.5469 63.2969C73.9531 63.2969 73.4427 63.4271 73.0156 63.6875C72.5885 63.9479 72.2396 64.3125 71.9688 64.7812C71.7083 65.25 71.5104 65.8021 71.375 66.4375C71.25 67.0625 71.1875 67.75 71.1875 68.5V69.125C71.1875 69.8021 71.2812 70.4271 71.4688 71C71.6667 71.5729 71.9427 72.0677 72.2969 72.4844C72.6615 72.901 73.099 73.224 73.6094 73.4531C74.1302 73.6823 74.7188 73.7969 75.375 73.7969C76.1875 73.7969 76.9427 73.6406 77.6406 73.3281C78.349 73.0052 78.9583 72.5208 79.4688 71.875L81.6562 74.25C81.3021 74.7604 80.8177 75.25 80.2031 75.7188C79.599 76.1875 78.8698 76.5729 78.0156 76.875C77.1615 77.1667 76.1875 77.3125 75.0938 77.3125ZM87.6406 60.0938H92.1406L92 65.75C91.9583 67.5625 91.75 69.1198 91.375 70.4219C91 71.724 90.5 72.8177 89.875 73.7031C89.25 74.5885 88.5365 75.2969 87.7344 75.8281C86.9427 76.349 86.1094 76.7396 85.2344 77H84.3906L84.3438 73.5312L84.8125 73.4844C85.3438 72.9323 85.7812 72.3958 86.125 71.875C86.4688 71.3438 86.7344 70.7865 86.9219 70.2031C87.1094 69.6198 87.2448 68.9688 87.3281 68.25C87.4219 67.5312 87.4792 66.6979 87.5 65.75L87.6406 60.0938ZM88.8594 60.0938H100.062V77H95.5781V63.7031H88.8594V60.0938ZM83.3594 73.4844H102.484V82.0781H97.9844V77H87.9688V82.0781H83.3594V73.4844ZM109.078 70.7188L114.75 60.0938H119.25V77H114.75V66.3594L109.078 77H104.578V60.0938H109.078V70.7188ZM131.328 60.0938V77H126.812V60.0938H131.328ZM136.766 60.0938V63.5781H121.453V60.0938H136.766Z" fill="#383D42"/>
<path d="M35.7344 101.797C36.2865 101.797 36.776 101.693 37.2031 101.484C37.6302 101.266 37.9635 100.964 38.2031 100.578C38.4531 100.182 38.5833 99.7188 38.5938 99.1875H42.8281C42.8177 100.375 42.5 101.432 41.875 102.359C41.25 103.276 40.4115 104 39.3594 104.531C38.3073 105.052 37.1302 105.312 35.8281 105.312C34.5156 105.312 33.3698 105.094 32.3906 104.656C31.4219 104.219 30.6146 103.615 29.9688 102.844C29.3229 102.062 28.8385 101.156 28.5156 100.125C28.1927 99.0833 28.0312 97.9688 28.0312 96.7812V96.3281C28.0312 95.1302 28.1927 94.0156 28.5156 92.9844C28.8385 91.9427 29.3229 91.0365 29.9688 90.2656C30.6146 89.4844 31.4219 88.875 32.3906 88.4375C33.3594 88 34.4948 87.7812 35.7969 87.7812C37.1823 87.7812 38.3958 88.0469 39.4375 88.5781C40.4896 89.1094 41.3125 89.8698 41.9062 90.8594C42.5104 91.8385 42.8177 93 42.8281 94.3438H38.5938C38.5833 93.7812 38.4635 93.2708 38.2344 92.8125C38.0156 92.3542 37.6927 91.9896 37.2656 91.7188C36.849 91.4375 36.3333 91.2969 35.7188 91.2969C35.0625 91.2969 34.526 91.4375 34.1094 91.7188C33.6927 91.9896 33.3698 92.3646 33.1406 92.8438C32.9115 93.3125 32.75 93.849 32.6562 94.4531C32.5729 95.0469 32.5312 95.6719 32.5312 96.3281V96.7812C32.5312 97.4375 32.5729 98.0677 32.6562 98.6719C32.7396 99.276 32.8958 99.8125 33.125 100.281C33.3646 100.75 33.6927 101.12 34.1094 101.391C34.526 101.661 35.0677 101.797 35.7344 101.797ZM53.2188 105.312C51.9062 105.312 50.7292 105.104 49.6875 104.688C48.6458 104.26 47.7604 103.672 47.0312 102.922C46.3125 102.172 45.7604 101.302 45.375 100.312C44.9896 99.3125 44.7969 98.25 44.7969 97.125V96.5C44.7969 95.2188 44.9792 94.0469 45.3438 92.9844C45.7083 91.9219 46.2292 91 46.9062 90.2188C47.5938 89.4375 48.4271 88.8385 49.4062 88.4219C50.3854 87.9948 51.4896 87.7812 52.7188 87.7812C53.9167 87.7812 54.9792 87.9792 55.9062 88.375C56.8333 88.7708 57.6094 89.3333 58.2344 90.0625C58.8698 90.7917 59.349 91.6667 59.6719 92.6875C59.9948 93.6979 60.1562 94.8229 60.1562 96.0625V97.9375H46.7188V94.9375H55.7344V94.5938C55.7344 93.9688 55.6198 93.4115 55.3906 92.9219C55.1719 92.4219 54.8385 92.026 54.3906 91.7344C53.9427 91.4427 53.3698 91.2969 52.6719 91.2969C52.0781 91.2969 51.5677 91.4271 51.1406 91.6875C50.7135 91.9479 50.3646 92.3125 50.0938 92.7812C49.8333 93.25 49.6354 93.8021 49.5 94.4375C49.375 95.0625 49.3125 95.75 49.3125 96.5V97.125C49.3125 97.8021 49.4062 98.4271 49.5938 99C49.7917 99.5729 50.0677 100.068 50.4219 100.484C50.7865 100.901 51.224 101.224 51.7344 101.453C52.2552 101.682 52.8438 101.797 53.5 101.797C54.3125 101.797 55.0677 101.641 55.7656 101.328C56.474 101.005 57.0833 100.521 57.5938 99.875L59.7812 102.25C59.4271 102.76 58.9427 103.25 58.3281 103.719C57.724 104.188 56.9948 104.573 56.1406 104.875C55.2865 105.167 54.3125 105.312 53.2188 105.312ZM67.2031 98.7188L72.875 88.0938H77.375V105H72.875V94.3594L67.2031 105H62.7031V88.0938H67.2031V98.7188ZM72.3594 81.2969H75.5625C75.5625 82.1927 75.3385 82.9896 74.8906 83.6875C74.4531 84.375 73.8281 84.9167 73.0156 85.3125C72.2031 85.6979 71.2448 85.8906 70.1406 85.8906C68.4635 85.8906 67.1354 85.4635 66.1562 84.6094C65.1875 83.7552 64.7031 82.651 64.7031 81.2969H67.8906C67.8906 81.8385 68.0573 82.3229 68.3906 82.75C68.7344 83.1771 69.3177 83.3906 70.1406 83.3906C70.9531 83.3906 71.526 83.1771 71.8594 82.75C72.1927 82.3229 72.3594 81.8385 72.3594 81.2969ZM95.0938 88.0938V105H90.5781V88.0938H95.0938ZM92.9688 95.3281V98.8438C92.625 99.0208 92.1823 99.1875 91.6406 99.3438C91.099 99.5 90.526 99.625 89.9219 99.7188C89.3281 99.8021 88.776 99.8438 88.2656 99.8438C86.6406 99.8438 85.2448 99.6198 84.0781 99.1719C82.9219 98.724 82.0312 98.0208 81.4062 97.0625C80.7812 96.1042 80.4688 94.875 80.4688 93.375V88.0781H84.9688V93.375C84.9688 94.1354 85.0833 94.7344 85.3125 95.1719C85.5417 95.599 85.8958 95.901 86.375 96.0781C86.8646 96.2448 87.4948 96.3281 88.2656 96.3281C88.8073 96.3281 89.3333 96.2865 89.8438 96.2031C90.3542 96.1198 90.8646 96.0052 91.375 95.8594C91.8854 95.7135 92.4167 95.5365 92.9688 95.3281ZM107.688 101.188V93.6562C107.688 93.1146 107.599 92.651 107.422 92.2656C107.245 91.8698 106.969 91.5625 106.594 91.3438C106.229 91.125 105.755 91.0156 105.172 91.0156C104.672 91.0156 104.24 91.1042 103.875 91.2812C103.51 91.4479 103.229 91.6927 103.031 92.0156C102.833 92.3281 102.734 92.6979 102.734 93.125H98.2344C98.2344 92.4062 98.401 91.724 98.7344 91.0781C99.0677 90.4323 99.5521 89.8646 100.188 89.375C100.823 88.875 101.578 88.4844 102.453 88.2031C103.339 87.9219 104.328 87.7812 105.422 87.7812C106.734 87.7812 107.901 88 108.922 88.4375C109.943 88.875 110.745 89.5312 111.328 90.4062C111.922 91.2812 112.219 92.375 112.219 93.6875V100.922C112.219 101.849 112.276 102.609 112.391 103.203C112.505 103.786 112.672 104.297 112.891 104.734V105H108.344C108.125 104.542 107.958 103.969 107.844 103.281C107.74 102.583 107.688 101.885 107.688 101.188ZM108.281 94.7031L108.312 97.25H105.797C105.203 97.25 104.688 97.3177 104.25 97.4531C103.812 97.5885 103.453 97.7812 103.172 98.0312C102.891 98.2708 102.682 98.5521 102.547 98.875C102.422 99.1979 102.359 99.5521 102.359 99.9375C102.359 100.323 102.448 100.672 102.625 100.984C102.802 101.286 103.057 101.526 103.391 101.703C103.724 101.87 104.115 101.953 104.562 101.953C105.24 101.953 105.828 101.818 106.328 101.547C106.828 101.276 107.214 100.943 107.484 100.547C107.766 100.151 107.911 99.776 107.922 99.4219L109.109 101.328C108.943 101.755 108.714 102.198 108.422 102.656C108.141 103.115 107.781 103.547 107.344 103.953C106.906 104.349 106.38 104.677 105.766 104.938C105.151 105.188 104.422 105.312 103.578 105.312C102.505 105.312 101.531 105.099 100.656 104.672C99.7917 104.234 99.1042 103.635 98.5938 102.875C98.0938 102.104 97.8438 101.229 97.8438 100.25C97.8438 99.3646 98.0104 98.5781 98.3438 97.8906C98.6771 97.2031 99.1667 96.625 99.8125 96.1562C100.469 95.6771 101.286 95.3177 102.266 95.0781C103.245 94.8281 104.38 94.7031 105.672 94.7031H108.281ZM122.672 101.797C123.224 101.797 123.714 101.693 124.141 101.484C124.568 101.266 124.901 100.964 125.141 100.578C125.391 100.182 125.521 99.7188 125.531 99.1875H129.766C129.755 100.375 129.438 101.432 128.812 102.359C128.188 103.276 127.349 104 126.297 104.531C125.245 105.052 124.068 105.312 122.766 105.312C121.453 105.312 120.307 105.094 119.328 104.656C118.359 104.219 117.552 103.615 116.906 102.844C116.26 102.062 115.776 101.156 115.453 100.125C115.13 99.0833 114.969 97.9688 114.969 96.7812V96.3281C114.969 95.1302 115.13 94.0156 115.453 92.9844C115.776 91.9427 116.26 91.0365 116.906 90.2656C117.552 89.4844 118.359 88.875 119.328 88.4375C120.297 88 121.432 87.7812 122.734 87.7812C124.12 87.7812 125.333 88.0469 126.375 88.5781C127.427 89.1094 128.25 89.8698 128.844 90.8594C129.448 91.8385 129.755 93 129.766 94.3438H125.531C125.521 93.7812 125.401 93.2708 125.172 92.8125C124.953 92.3542 124.63 91.9896 124.203 91.7188C123.786 91.4375 123.271 91.2969 122.656 91.2969C122 91.2969 121.464 91.4375 121.047 91.7188C120.63 91.9896 120.307 92.3646 120.078 92.8438C119.849 93.3125 119.688 93.849 119.594 94.4531C119.51 95.0469 119.469 95.6719 119.469 96.3281V96.7812C119.469 97.4375 119.51 98.0677 119.594 98.6719C119.677 99.276 119.833 99.8125 120.062 100.281C120.302 100.75 120.63 101.12 121.047 101.391C121.464 101.661 122.005 101.797 122.672 101.797Z" fill="#10AD22"/>
</svg>
