<svg width="160" height="160" viewBox="0 0 160 160" fill="none" xmlns="http://www.w3.org/2000/svg">
<path d="M101.055 30.002H58.9536C42.9678 30.002 30.0088 42.961 30.0088 58.9468V101.048C30.0088 117.034 42.9678 129.993 58.9536 129.993H101.055C117.041 129.993 130 117.034 130 101.048V58.9468C130 42.961 117.041 30.002 101.055 30.002Z" fill="#FF7F50"/>
<path d="M68.8916 73.2513L129.999 69.4727V101.049C129.999 108.726 126.95 116.088 121.522 121.516C116.093 126.944 108.731 129.994 101.055 129.994H69.4784L68.8916 73.2513Z" fill="url(#paint0_linear_1133_37)"/>
<path d="M58.9478 129.993C51.2711 129.993 43.9089 126.943 38.4807 121.515C33.0525 116.087 30.0029 108.724 30.0029 101.048V94.9299C32.0306 95.0835 34.0685 95.035 36.0866 94.7852C37.5957 94.4786 39.071 94.0247 40.4915 93.43C42.2718 92.5033 43.9531 91.3977 45.5095 90.1303C47.1692 88.4417 48.5861 86.5306 49.7196 84.4519C49.7196 84.3361 49.767 84.2387 49.8538 84.2387C50.4414 83.2696 50.939 82.2488 51.3406 81.189C51.5116 80.8338 51.751 80.2785 51.8958 79.9233C52.0142 79.6861 52.1026 79.4351 52.1589 79.176C52.2103 78.9558 52.2908 78.7434 52.3984 78.5445C52.5256 78.3151 52.6103 78.0646 52.6483 77.8051C52.6605 77.6608 52.7036 77.5208 52.7746 77.3946C52.9961 76.9956 53.1667 76.5704 53.2825 76.1289C53.4538 75.5972 53.6523 75.0746 53.8772 74.5633C54.0038 74.3079 54.0823 74.0314 54.1087 73.7475C54.1087 73.5476 54.1745 73.3818 54.2535 73.3818C54.3324 73.3818 54.4534 73.1528 54.5166 72.8739C54.5976 72.5494 54.7132 72.2345 54.8613 71.9345C54.9736 71.7348 55.0518 71.5179 55.0929 71.2925C55.1331 71.0654 55.2067 70.8455 55.3113 70.6399C55.6429 70.0262 55.8949 69.3728 56.0612 68.6953C56.0612 68.5585 56.127 68.4454 56.1849 68.4454C56.4164 68.4454 56.7111 67.3112 56.5112 67.1955C56.4528 67.1743 56.3894 67.1713 56.3293 67.1868C56.2692 67.2023 56.2152 67.2356 56.1743 67.2823C56.0307 67.3972 55.853 67.4611 55.6691 67.4639C55.3877 67.4948 55.1141 67.5759 54.8613 67.7033C54.6363 67.8319 54.389 67.9167 54.1324 67.9533C53.891 67.9794 53.6583 68.0585 53.4509 68.1849C53.1135 68.333 52.7604 68.4424 52.3984 68.5111C52.099 68.5657 51.8068 68.654 51.5274 68.7743C51.2106 68.9191 50.8788 69.0285 50.538 69.1006C50.1354 69.1953 49.4039 69.3979 48.9171 69.5216C47.6377 69.9521 46.3135 70.2355 44.9701 70.3662C44.2438 70.4162 43.8675 70.3847 43.8675 70.2715C43.8659 70.2457 43.8591 70.2204 43.8475 70.1973C43.836 70.1741 43.82 70.1535 43.8004 70.1365C43.7808 70.1196 43.758 70.1068 43.7334 70.0988C43.7088 70.0908 43.6828 70.0878 43.657 70.09C42.8599 69.5755 42.2536 68.8138 41.9308 67.9217C41.8923 67.689 41.814 67.4647 41.6993 67.2586C41.4677 66.5206 41.3264 65.7572 41.2783 64.9851C41.0095 63.2923 41.1641 61.5593 41.7282 59.9408C41.9914 59.5751 42.0756 59.5567 43.307 59.6224C44.0254 59.6724 45.149 59.8251 45.8305 59.9487C48.3434 60.475 49.6775 60.7381 50.6932 60.8881C51.28 60.9934 51.98 61.1302 52.2484 61.2144C54.2281 61.5762 56.2453 61.6894 58.2531 61.5512C59.2925 61.3881 60.4319 60.7618 60.4319 60.3724C60.4575 60.2245 60.5315 60.0894 60.6424 59.9882C60.7371 59.8645 60.9476 59.5961 61.0844 59.3935C61.2335 59.1472 61.4101 58.9185 61.6107 58.712C61.7253 58.6017 61.8189 58.4715 61.887 58.3278C62.7513 57.3667 63.675 56.4606 64.6526 55.6149C64.8363 55.5363 65.0046 55.4258 65.1499 55.2886C65.8985 54.6546 66.7386 54.1374 67.6418 53.7545C70.4966 52.2938 73.6161 51.4222 76.8147 51.1916C79.5965 51.0091 82.3874 51.0091 85.1692 51.1916C86.4043 51.3178 87.6273 51.5422 88.8268 51.8626C88.9505 51.9126 89.5951 52.1257 90.2056 52.3231C90.756 52.4855 91.2971 52.6779 91.8265 52.8993C93.0985 53.4777 94.338 54.1251 95.5394 54.8386C95.6446 54.9044 95.9525 55.1334 96.2209 55.336C97.3282 56.1271 98.3566 57.0233 99.2917 58.0121C100.037 58.7175 100.717 59.4881 101.326 60.3145C101.556 60.7444 101.826 61.1522 102.131 61.5328C102.677 62.3621 103.112 63.259 103.426 64.201V64.2405C106.12 64.5773 119.387 66.8718 119.869 78.9181C115.025 77.5393 114.606 76.8473 102.226 76.6473C101.754 77.2692 101.207 77.8297 100.597 78.3156C100.32 78.4533 100.056 78.6144 99.8074 78.7971C99.4153 79.0602 98.8207 79.4391 98.4628 79.6391C98.1049 79.8391 97.5997 80.1312 97.3208 80.3128C97.0369 80.4963 96.7386 80.6564 96.4288 80.7917C96.2536 80.8651 96.089 80.9615 95.9393 81.0785C95.7158 81.2586 95.471 81.4106 95.2104 81.5311C94.6794 81.8101 94.1638 82.1176 93.6658 82.452C93.1843 82.7599 92.2949 83.3546 91.6897 83.7467C91.2834 83.9791 90.9115 84.2669 90.5845 84.6019C90.5845 84.6676 90.4898 84.7361 90.3556 84.7361C90.2214 84.7361 90.0925 84.7861 90.0688 84.8518C89.8639 85.0898 89.6275 85.2987 89.3662 85.4728C87.3828 87.0169 85.6571 88.8661 84.2535 90.9513C84.2569 90.9991 84.2471 91.0469 84.2253 91.0896C84.2035 91.1322 84.1705 91.1681 84.1298 91.1934C83.4996 92.0468 82.9773 92.9748 82.5747 93.9563C82.4116 94.3589 82.1826 94.9352 82.0484 95.2299C81.9327 95.4914 81.8582 95.7692 81.8274 96.0535C81.7803 96.3733 81.7027 96.6878 81.5958 96.9929C81.1157 99.676 81.058 102.418 81.4248 105.118C81.6506 107.139 81.6788 109.176 81.509 111.202C81.3912 113.39 80.995 115.554 80.3302 117.641C79.6848 119.629 78.8096 121.535 77.7225 123.32C77.6567 123.396 77.2304 123.991 76.762 124.635C75.5045 126.293 74.03 127.775 72.3782 129.04C72.0837 129.325 71.8272 129.647 71.6151 129.998L58.9478 129.993ZM87.2111 62.8643C87.2112 62.8853 87.2069 62.9062 87.1986 62.9256C87.1903 62.9449 87.1782 62.9624 87.1629 62.9769C87.1476 62.9915 87.1296 63.0027 87.1098 63.01C87.0901 63.0174 87.069 63.0206 87.048 63.0195C86.398 63.0195 85.4087 65.3325 85.4271 66.8481C85.4467 68.3051 86.0196 69.7001 87.0296 70.7504C87.3354 70.8664 87.6628 70.9145 87.989 70.8913C88.3152 70.8681 88.6325 70.7743 88.9189 70.6162C89.5224 69.9735 89.962 69.1947 90.2007 68.3459C90.4393 67.4972 90.4699 66.6034 90.2898 65.7403C90.0793 64.5615 89.282 63.0169 88.882 63.0169C88.831 63.0173 88.7809 63.0028 88.7379 62.9753C88.6949 62.9477 88.6609 62.9082 88.64 62.8616C88.5847 62.6906 88.2295 62.5985 87.8821 62.5985C87.5348 62.5985 87.2138 62.6906 87.2138 62.8643H87.2111Z" fill="white"/>
<path d="M58.9468 129.995C51.2702 129.995 43.9101 126.946 38.4819 121.517C33.0537 116.089 30.002 108.726 30.002 101.05V94.934C32.0296 95.0876 34.0689 95.0374 36.087 94.7875C37.596 94.4809 39.0709 94.028 40.4914 93.4333C42.2717 92.5066 43.9536 91.4012 45.51 90.1338C47.1697 88.4452 48.5856 86.5336 49.7191 84.4548C49.7191 84.3391 49.7659 84.2416 49.8527 84.2416C50.4403 83.2725 50.9391 82.2512 51.3406 81.1914C51.5116 80.8361 51.7509 80.2823 51.8956 79.9271C52.0141 79.6899 52.1014 79.4384 52.1577 79.1793C52.2091 78.9591 52.2917 78.7461 52.3993 78.5472C52.5265 78.3178 52.6104 78.0666 52.6485 77.8071C52.6607 77.6628 52.7034 77.5247 52.7744 77.3985C52.9959 76.9995 53.1675 76.5731 53.2832 76.1317C53.4545 75.5999 53.6519 75.0781 53.8768 74.5667C54.0035 74.3113 54.0817 74.0334 54.1081 73.7496C54.1081 73.5496 54.1756 73.3847 54.2546 73.3847C54.3335 73.3847 54.4535 73.1548 54.5167 72.8759C54.5977 72.5513 54.7129 72.2379 54.861 71.9379C54.9733 71.7383 55.0512 71.5209 55.0923 71.2955C55.1326 71.0684 55.2062 70.8484 55.3107 70.6428C55.6423 70.0292 55.8948 69.375 56.0611 68.6976C56.0611 68.5608 56.1265 68.4483 56.1844 68.4483C56.416 68.4483 56.7107 67.3152 56.5108 67.1995C56.4524 67.1783 56.3884 67.1737 56.3283 67.1892C56.2682 67.2047 56.215 67.2375 56.1741 67.2843C56.0305 67.3992 55.8518 67.4639 55.6679 67.4667C55.3865 67.4976 55.1138 67.5782 54.861 67.7057C54.636 67.8342 54.3878 67.9209 54.1312 67.9575C53.8898 67.9836 53.6576 68.0624 53.4503 68.1888C53.1129 68.3369 52.7613 68.4464 52.3993 68.5151C52.0999 68.5697 51.8076 68.6569 51.5282 68.7772C51.2114 68.9221 50.8796 69.0315 50.5388 69.1036C50.1362 69.1983 49.4042 69.4013 48.9174 69.525C47.638 69.9555 46.3138 70.2397 44.9703 70.3704C44.2441 70.4204 43.8679 70.3885 43.8679 70.2754C43.8663 70.2495 43.8589 70.224 43.8474 70.2008C43.8359 70.1777 43.8207 70.1561 43.8011 70.1392C43.7815 70.1223 43.7589 70.1086 43.7343 70.1006C43.7097 70.0926 43.683 70.0908 43.6572 70.0929C42.8602 69.5784 42.2531 68.8162 41.9304 67.9241C41.8918 67.6914 41.8138 67.4672 41.6991 67.2611C41.4676 66.5231 41.3258 65.759 41.2777 64.987C41.0089 63.2942 41.1633 61.5612 41.7274 59.9427C41.9905 59.5769 42.0763 59.5608 43.3077 59.6266C44.0261 59.6766 45.1497 59.8293 45.8312 59.953C48.3441 60.4792 49.6773 60.7409 50.693 60.8909C51.2798 60.9962 51.9793 61.133 52.2477 61.2172C54.2274 61.5791 56.2452 61.692 58.253 61.5539C59.2924 61.3907 60.4321 60.7638 60.4321 60.3744C60.4577 60.2265 60.5319 60.0927 60.6428 59.9915C60.7375 59.8678 60.948 59.598 61.0848 59.3953C61.2339 59.149 61.4109 58.9209 61.6116 58.7144C61.7261 58.6041 61.8184 58.4752 61.8865 58.3315C62.7509 57.3704 63.6739 56.4636 64.6515 55.6179C64.8352 55.5393 65.0048 55.4288 65.15 55.2916C65.8986 54.6576 66.7394 54.1404 67.6426 53.7575C70.4975 52.2968 73.6152 51.4261 76.8138 51.1955C79.5956 51.013 82.3885 51.013 85.1704 51.1955C86.4055 51.3217 87.6276 51.5458 88.827 51.8662C88.9507 51.9162 89.5939 52.1288 90.2044 52.3262C90.7548 52.4886 91.2965 52.6803 91.8259 52.9018C93.0978 53.4802 94.3376 54.1284 95.539 54.8419C95.6443 54.9077 95.9516 55.1352 96.22 55.3378C97.3273 56.129 98.3557 57.0267 99.2908 58.0154C100.036 58.7209 100.718 59.4914 101.326 60.3179C101.556 60.7478 101.825 61.1553 102.13 61.5359C102.676 62.3651 103.112 63.2613 103.425 64.2032V64.2443C106.12 64.5811 119.387 66.876 119.869 78.9223C115.024 77.5435 114.606 76.8507 102.225 76.6507C101.754 77.2727 101.207 77.8326 100.596 78.3185C100.32 78.4562 100.056 78.6163 99.8073 78.799C99.4152 79.0621 98.8212 79.4419 98.4633 79.6418C98.1055 79.8418 97.5987 80.1335 97.3198 80.3151C97.0359 80.4986 96.738 80.6604 96.4281 80.7956C96.253 80.869 96.0896 80.9639 95.9399 81.0809C95.7164 81.261 95.4707 81.4127 95.2101 81.5331C94.6791 81.8122 94.1637 82.1212 93.6657 82.4556C93.1842 82.7635 92.2949 83.3587 91.6897 83.7508C91.2834 83.9832 90.9117 84.269 90.5847 84.6039C90.5847 84.6697 90.4902 84.7401 90.356 84.7401C90.2218 84.7401 90.0919 84.7899 90.0682 84.8557C89.8633 85.0937 89.628 85.3009 89.3667 85.475C87.3832 87.0191 85.6566 88.8683 84.253 90.9536C84.2564 91.0014 84.2465 91.0497 84.2247 91.0923C84.2029 91.135 84.1704 91.1724 84.1297 91.1977C83.4995 92.0511 82.9776 92.9786 82.575 93.9601C82.4119 94.3627 82.1824 94.9374 82.0482 95.2321C81.9325 95.4936 81.858 95.7727 81.8272 96.0569C81.7801 96.3767 81.7029 96.6898 81.596 96.9949C81.1159 99.678 81.057 102.422 81.4238 105.123C81.6496 107.143 81.6784 109.179 81.5086 111.205C81.3908 113.393 80.994 115.557 80.3291 117.645C79.6837 119.633 78.8106 121.539 77.7235 123.324C77.6577 123.4 77.2308 123.995 76.7624 124.639C75.5048 126.297 74.0303 127.778 72.3785 129.044C72.084 129.329 71.8274 129.649 71.6153 130L58.9468 129.995ZM87.2107 62.867C87.2107 62.888 87.2062 62.9093 87.1979 62.9287C87.1896 62.948 87.1772 62.9655 87.1619 62.98C87.1466 62.9946 87.1302 63.0061 87.1105 63.0135C87.0907 63.0208 87.0699 63.0248 87.0488 63.0237C86.3989 63.0237 85.4089 65.3343 85.4274 66.85C85.447 68.307 86.0209 69.703 87.0308 70.7533C87.3366 70.8693 87.6631 70.9178 87.9893 70.8947C88.3156 70.8715 88.6332 70.7777 88.9195 70.6197C89.523 69.9769 89.9632 69.1969 90.2018 68.3481C90.4405 67.4993 90.4693 66.6055 90.2892 65.7425C90.0787 64.5636 89.281 63.0212 88.881 63.0212C88.8299 63.0216 88.7801 63.005 88.7371 62.9775C88.6941 62.9499 88.6604 62.911 88.6395 62.8644C88.5842 62.6934 88.2287 62.6023 87.8814 62.6023C87.5341 62.6023 87.2107 62.6933 87.2107 62.867Z" fill="url(#paint1_linear_1133_37)"/>
<defs>
<linearGradient id="paint0_linear_1133_37" x1="63.2697" y1="96.8282" x2="113.155" y2="107.247" gradientUnits="userSpaceOnUse">
<stop stop-color="#D85424"/>
<stop offset="1" stop-color="#FF7F50"/>
</linearGradient>
<linearGradient id="paint1_linear_1133_37" x1="74.9354" y1="51.0586" x2="74.9354" y2="130" gradientUnits="userSpaceOnUse">
<stop stop-color="#FFE7DE" stop-opacity="0"/>
<stop offset="1" stop-color="#CC5123" stop-opacity="0.549"/>
</linearGradient>
</defs>
</svg>
