<svg width="160" height="160" viewBox="0 0 160 160" fill="none" xmlns="http://www.w3.org/2000/svg">
<g clip-path="url(#clip0_1304_2)">
<path d="M64.6802 72.0396C64.6802 69.065 65.6078 66.1573 67.3461 63.684C69.0844 61.2108 71.5549 59.2831 74.4456 58.1448C77.3362 57.0065 80.5169 56.7087 83.5855 57.289C86.6541 57.8693 89.4729 59.3017 91.6852 61.405C93.8975 63.5083 95.4044 66.1881 96.0146 69.1055C96.6251 72.0229 96.3116 75.0469 95.1145 77.795C93.9171 80.5431 91.8895 82.8921 89.288 84.5445C86.6867 86.1971 83.628 87.0793 80.4993 87.0793C76.3039 87.0793 72.2802 85.4946 69.3135 82.6741C66.3468 79.8537 64.6802 76.0283 64.6802 72.0396Z" fill="#F6A458"/>
<path d="M124 92.7227H37V103.999H124V92.7227Z" fill="#F6A458"/>
<path d="M42.8895 57C40.869 57.0112 38.8696 57.3914 37 58.1198V86.0042C39.1636 86.8267 41.4917 87.1846 43.8177 87.0523C46.1438 86.9202 48.4104 86.301 50.4555 85.2391C52.5006 84.1774 54.2738 82.6991 55.6482 80.9101C57.0225 79.1211 57.9642 77.0655 58.4059 74.8903C58.8476 72.7151 58.7784 70.474 58.2032 68.3272C57.628 66.1804 56.5611 64.1809 55.0786 62.4717C53.5962 60.7624 51.7349 59.3857 49.6278 58.4398C47.5206 57.4939 45.2197 57.0022 42.8895 57Z" fill="#F6A458"/>
<path d="M118.075 57C120.096 57.0098 122.096 57.39 123.965 58.1198V86.0042C121.8 86.8366 119.468 87.2032 117.137 87.0773C114.805 86.9516 112.532 86.3364 110.48 85.2764C108.428 84.2162 106.648 82.7372 105.269 80.9458C103.889 79.1544 102.944 77.0947 102.501 74.9148C102.058 72.7349 102.128 70.4888 102.707 68.3377C103.285 66.1866 104.357 64.1839 105.846 62.4734C107.335 60.7629 109.203 59.3871 111.318 58.4446C113.432 57.5021 115.74 57.0164 118.075 57.0224V57Z" fill="#F6A458"/>
</g>
<defs>
<clipPath id="clip0_1304_2">
<rect width="87" height="47" fill="white" transform="translate(37 57)"/>
</clipPath>
</defs>
</svg>
