<svg width="160" height="160" viewBox="0 0 160 160" fill="none" xmlns="http://www.w3.org/2000/svg">
<path d="M30 47.8571C30 37.9949 37.9949 30 47.8571 30H112.143C122.005 30 130 37.9949 130 47.8571V112.143C130 122.005 122.005 130 112.143 130H47.8571C37.9949 130 30 122.005 30 112.143V47.8571Z" fill="#E1000F"/>
<path d="M109 80C109 102 96.7308 113 80.4604 113C64.1899 113 51 98.2254 51 80C51 61.7746 64.1899 47 80.4604 47C96.7308 47 109 59.8335 109 80ZM63.8888 80C63.8888 91.5394 70.1586 100.894 80.4604 100.894C90.7619 100.894 99.1132 91.5394 99.1132 80C99.1132 68.4606 90.7619 59.1061 80.4604 59.1061C70.1586 59.1061 63.8888 68.4606 63.8888 80Z" fill="#FEFCFC"/>
<mask id="mask0_1133_40" style="mask-type:luminance" maskUnits="userSpaceOnUse" x="50" y="47" width="56" height="66">
<path d="M105 80.0003C105 97.7522 93.0078 112.143 78.2144 112.143C63.4211 112.143 51.4287 97.7522 51.4287 80.0003C51.4287 62.2484 63.4211 47.8574 78.2144 47.8574C93.0078 47.8574 105 62.2484 105 80.0003ZM61.2551 80.0003C61.2551 91.24 68.848 100.351 78.2144 100.351C87.5809 100.351 95.1737 91.24 95.1737 80.0003C95.1737 68.7605 87.5809 59.6491 78.2144 59.6491C68.848 59.6491 61.2551 68.7605 61.2551 80.0003Z" stroke="#171616" stroke-width="1.6"/>
</mask>
<g mask="url(#mask0_1133_40)">
<path d="M105 80.0003C105 97.7522 93.0078 112.143 78.2144 112.143C63.4211 112.143 51.4287 97.7522 51.4287 80.0003C51.4287 62.2484 63.4211 47.8574 78.2144 47.8574C93.0078 47.8574 105 62.2484 105 80.0003ZM61.2551 80.0003C61.2551 91.24 68.848 100.351 78.2144 100.351C87.5809 100.351 95.1737 91.24 95.1737 80.0003C95.1737 68.7605 87.5809 59.6491 78.2144 59.6491C68.848 59.6491 61.2551 68.7605 61.2551 80.0003Z" stroke="#171616" stroke-width="1.6"/>
</g>
</svg>
