<svg width="160" height="160" viewBox="0 0 160 160" fill="none" xmlns="http://www.w3.org/2000/svg">
<g clip-path="url(#clip0_2408_3283)">
<path d="M125.131 59.414C120.501 50.092 112.992 42.4642 103.688 37.6311C94.3848 32.798 83.7678 31.0096 73.3687 32.5238C62.9695 34.0381 53.3262 38.7767 45.8301 46.056C38.3339 53.3353 33.3725 62.7789 31.6615 73.0243C29.9506 83.2698 31.5787 93.7875 36.3108 103.059C41.043 112.332 48.6345 119.879 57.9902 124.613C67.346 129.346 77.9819 131.021 88.3641 129.396C98.7459 127.771 108.337 122.93 115.753 115.571L105.208 105.2C100.016 110.351 93.3028 113.74 86.0353 114.877C78.7678 116.015 71.3226 114.842 64.7737 111.529C58.2247 108.215 52.9106 102.932 49.5981 96.4418C46.2856 89.9512 45.1459 82.5887 46.3436 75.417C47.5413 68.2453 51.0143 61.6347 56.2616 56.5392C61.5089 51.4437 68.2592 48.1267 75.5385 47.0667C82.818 46.0068 90.2497 47.2586 96.7621 50.6418C103.275 54.0249 108.531 59.3644 111.772 65.8898L125.131 59.414Z" fill="url(#paint0_linear_2408_3283)" fill-opacity="0.9"/>
<path d="M125.131 59.414C120.501 50.092 112.992 42.4642 103.688 37.6311C94.3848 32.798 83.7678 31.0096 73.3687 32.5238C62.9695 34.0381 53.3262 38.7767 45.8301 46.056C38.3339 53.3353 33.3725 62.7789 31.6615 73.0243C29.9506 83.2698 31.5787 93.7875 36.3108 103.059C41.043 112.332 48.6345 119.879 57.9902 124.613C67.346 129.346 77.9819 131.021 88.3641 129.396C98.7459 127.771 108.337 122.93 115.753 115.571L105.208 105.2C100.016 110.351 93.3028 113.74 86.0353 114.877C78.7678 116.015 71.3226 114.842 64.7737 111.529C58.2247 108.215 52.9106 102.932 49.5981 96.4418C46.2856 89.9512 45.1459 82.5887 46.3436 75.417C47.5413 68.2453 51.0143 61.6347 56.2616 56.5392C61.5089 51.4437 68.2592 48.1267 75.5385 47.0667C82.818 46.0068 90.2497 47.2586 96.7621 50.6418C103.275 54.0249 108.531 59.3644 111.772 65.8898L125.131 59.414Z" fill="url(#paint1_linear_2408_3283)"/>
<path fill-rule="evenodd" clip-rule="evenodd" d="M123.015 56.4803C126.289 59.3738 126.568 64.341 123.639 67.5749L89.8359 104.896C88.3291 106.56 86.177 107.512 83.9174 107.515C81.6578 107.517 79.5034 106.57 77.9928 104.91L60.3457 85.5121C57.4095 82.2845 57.6776 77.3166 60.9448 74.4162C64.2119 71.5154 69.2407 71.7804 72.1769 75.008L83.8952 87.8886L111.784 57.0967C114.713 53.8627 119.741 53.5868 123.015 56.4803Z" fill="#FF3E00"/>
</g>
<defs>
<linearGradient id="paint0_linear_2408_3283" x1="97.1357" y1="121.833" x2="-30.7309" y2="82.1671" gradientUnits="userSpaceOnUse">
<stop offset="0.0656249" stop-color="#FF9400" stop-opacity="0"/>
<stop offset="1" stop-color="#FF3E00"/>
</linearGradient>
<linearGradient id="paint1_linear_2408_3283" x1="90.9353" y1="95.2918" x2="109.184" y2="60.3991" gradientUnits="userSpaceOnUse">
<stop offset="0.0656249" stop-color="#FF9400" stop-opacity="0"/>
<stop offset="1" stop-color="#FF3E00"/>
</linearGradient>
<clipPath id="clip0_2408_3283">
<rect width="108" height="98" fill="white" transform="translate(31 32)"/>
</clipPath>
</defs>
</svg>
