<svg width="160" height="160" viewBox="0 0 160 160" fill="none" xmlns="http://www.w3.org/2000/svg">
<path d="M121.071 32H75.3358L78.5824 49.0802C77.8767 49.0802 77.1003 49.0802 76.3239 49.1508C75.1241 49.292 73.9242 49.5037 72.8655 49.786L69.4777 32H57.1968C57.2675 32.4235 57.2675 32.9175 57.4086 33.4116L62.4904 60.02C63.3373 64.6077 65.8075 66.9369 69.8306 66.1605C73.289 65.5252 74.7712 63.2667 74.63 59.8789C75.4064 58.8908 76.5356 58.8202 77.1709 58.7496C78.3001 58.679 79.4294 58.7496 80.2764 59.8083C80.3469 65.6664 77.312 69.9717 70.7481 71.2422C63.055 72.7244 58.2556 68.419 56.7734 60.7964L51.9034 34.7526C51.6916 33.8351 51.5505 32.9175 51.5505 32H37.9287C34.682 32 32 34.6114 32 37.9287V121.071C32 124.318 34.6114 127 37.9287 127H47.5981C47.8098 126.224 48.0921 125.447 48.445 124.601L59.1731 100.321C60.5847 97.0743 62.5609 94.604 64.9606 93.263L64.7488 96.8625C64.6783 98.4859 64.7488 99.968 64.9606 101.309C64.8195 101.662 64.6077 101.944 64.4665 102.297L53.5973 126.929H66.8662L75.5476 107.167C77.1003 103.709 76.9591 100.886 74.7712 99.0505C74.7712 98.627 74.7712 98.133 74.7712 97.6389L74.9829 93.1218H75.0535C82.3232 96.2979 83.8053 102.509 80.6292 109.708L73.0772 126.859H121.071C124.318 126.859 127 124.248 127 120.93V37.9287C127 34.682 124.318 32 121.071 32ZM73.5713 106.32L72.3715 109.002C68.419 106.885 66.6545 102.509 66.9369 96.9332L67.5015 81.6879L66.7957 73.7125C67.6426 73.7831 68.4896 73.7831 69.4071 73.7125C70.0424 73.6419 70.607 73.5713 71.2422 73.4302C71.6657 73.3596 72.0186 73.289 72.3715 73.1479L73.0772 80.6998L72.5832 97.4978C72.4421 100.25 73.0067 102.368 74.3477 103.638C74.2066 104.485 73.9242 105.403 73.5713 106.32ZM77.0297 56.5617C73.3596 56.9145 71.6657 59.2437 71.5951 62.9844C71.0304 63.549 70.254 63.7608 69.4777 63.9725C69.266 64.0431 69.0542 64.0431 68.8425 64.0431C68.2073 64.1137 67.0074 64.1842 65.9487 62.9138C66.0899 56.4205 69.5483 51.974 76.5356 51.3388C84.4406 50.633 88.7459 55.2912 89.4517 63.1255L90.2281 71.5951C88.393 72.0891 86.4874 72.6538 84.6523 73.289L83.7348 63.3373C83.3112 58.8202 81.1939 56.2088 77.0297 56.5617ZM90.4398 98.2741C90.0869 104.132 87.6872 108.367 83.0289 109.92C84.2994 106.673 84.7229 103.709 84.2994 101.027C84.5111 100.18 84.6523 99.2623 84.7229 98.2741L85.2169 89.4517C87.1226 89.5929 89.0282 89.8752 90.9339 90.2281L90.4398 98.2741ZM93.8276 70.1129L109.214 62.9138L110.626 65.8782L95.2392 73.0772L93.8276 70.1129ZM110.061 98.3447L95.2392 90.0869L96.8625 87.1931L111.684 95.451L110.061 98.3447ZM96.2273 81.6174L96.1568 78.3001L113.095 77.8061L113.166 81.1233L96.2273 81.6174Z" fill="#F7931E"/>
</svg>
