<svg width="160" height="160" viewBox="0 0 160 160" fill="none" xmlns="http://www.w3.org/2000/svg">
<path d="M80.0001 139C112.585 139 139 112.585 139 80C139 47.4152 112.585 21 80.0001 21C47.4152 21 21 47.4152 21 80C21 112.585 47.4152 139 80.0001 139Z" fill="#F1A614"/>
<path d="M80.6306 112.45C74.2846 112.45 68.8571 111.057 64.3568 108.272C59.8474 105.486 56.7065 101.795 54.9248 97.2093L67.3784 92.2164C68.8018 94.7037 70.5374 96.513 72.5857 97.6707C74.6335 98.8285 77.1685 99.3984 80.1901 99.3984C83.0096 99.3984 85.2043 98.8736 86.7931 97.8243C88.3819 96.775 89.1717 95.2826 89.1717 93.3562C89.1717 91.4295 88.4462 89.9643 86.9952 88.8695C85.5442 87.7751 83.0096 87.2235 79.3908 87.2235H69.4263V74.1711H79.3908C82.0268 74.1711 83.9921 73.6105 85.2872 72.4885C86.5728 71.367 87.2249 69.8838 87.2249 68.0384C87.2249 66.1933 86.5638 64.6736 85.241 63.6333C83.9187 62.5933 82.0358 62.0778 79.5747 62.0778C77.1132 62.0778 75.1021 62.5572 73.3664 63.5248C71.6304 64.4928 70.2895 65.7863 69.3438 67.4233L56.7983 62.6023C58.8188 58.6043 61.7851 55.339 65.7158 52.8153C69.6469 50.2917 74.3213 49.0254 79.7492 49.0254C84.1942 49.0254 88.0606 49.7581 91.3392 51.2143C94.6182 52.6706 97.1527 54.6968 98.9436 57.2837C100.734 59.8706 101.634 62.8375 101.634 66.1933C101.634 69.3773 100.753 72.1904 98.9894 74.6233C97.2261 77.0565 95.0496 78.7208 92.478 79.5983C96.0325 80.5663 98.7782 82.2485 100.707 84.6545C102.635 87.0606 103.6 90.2263 103.6 94.1338C103.6 97.7248 102.635 100.9 100.707 103.658C98.7782 106.418 96.0873 108.57 92.6343 110.117C89.1812 111.664 85.1862 112.441 80.6492 112.441L80.6306 112.45Z" fill="white"/>
</svg>
