<svg width="160" height="160" viewBox="0 0 160 160" fill="none" xmlns="http://www.w3.org/2000/svg">
<g clip-path="url(#clip0_1227_145)">
<path d="M22.4442 90.9919C21.8128 90.9919 21.2292 90.8396 20.6934 90.5349C20.1768 90.2303 19.7654 89.8209 19.4592 89.3068C19.1531 88.7737 19 88.1929 19 87.5646V73.8554C19 73.227 19.1531 72.6558 19.4592 72.1417C19.7654 71.6086 20.1768 71.1897 20.6934 70.885C21.2292 70.5804 21.8128 70.428 22.4442 70.428H39.608V72.7415H22.4442C22.1381 72.7415 21.8702 72.8557 21.6406 73.0842C21.4301 73.2937 21.3249 73.5507 21.3249 73.8554V87.5646C21.3249 87.8692 21.4301 88.1358 21.6406 88.3643C21.8702 88.5737 22.1381 88.6785 22.4442 88.6785H39.608V90.9919H22.4442ZM45.9587 90.9919C45.3273 90.9919 44.7437 90.8396 44.2079 90.5349C43.6913 90.2112 43.2703 89.7923 42.945 89.2782C42.6389 88.7451 42.4858 88.1644 42.4858 87.536V81.5382H57.0663V77.8824C57.0663 77.5778 56.9516 77.3208 56.7218 77.1113C56.5115 76.8828 56.2531 76.7686 55.9471 76.7686H42.4858V74.4266H55.9471C56.5975 74.4266 57.1813 74.5884 57.6979 74.9121C58.2336 75.2167 58.6545 75.6356 58.9608 76.1688C59.2861 76.6829 59.4486 77.2541 59.4486 77.8824V90.9919H45.9587ZM45.9587 88.6499H57.0663V83.8802H44.8393V87.536C44.8393 87.8407 44.9446 88.1072 45.1551 88.3357C45.3847 88.5452 45.6526 88.6499 45.9587 88.6499ZM62.2744 90.9919V77.8824C62.2744 77.2541 62.4276 76.6829 62.7336 76.1688C63.0589 75.6356 63.4799 75.2167 63.9965 74.9121C64.5324 74.5884 65.1159 74.4266 65.7475 74.4266H75.1043V76.7686H65.7475C65.4413 76.7686 65.1733 76.8828 64.9438 77.1113C64.7332 77.3208 64.628 77.5778 64.628 77.8824V90.9919H62.2744ZM79.6311 90.9919C78.9804 90.9919 78.3874 90.8396 77.8514 90.5349C77.3348 90.2112 76.9139 89.7923 76.5885 89.2782C76.2826 88.7451 76.1293 88.1644 76.1293 87.536V77.8824C76.1293 77.2541 76.2826 76.6829 76.5885 76.1688C76.9139 75.6356 77.3348 75.2167 77.8514 74.9121C78.3874 74.5884 78.9804 74.4266 79.6311 74.4266H90.7386V69H93.0923V90.9919H79.6311ZM79.6311 88.6499H89.6192C89.9254 88.6499 90.1838 88.5452 90.3942 88.3357C90.6239 88.1072 90.7386 87.8407 90.7386 87.536V77.8824C90.7386 77.5778 90.6239 77.3208 90.3942 77.1113C90.1838 76.8828 89.9254 76.7686 89.6192 76.7686H79.6311C79.3249 76.7686 79.0569 76.8828 78.8275 77.1113C78.6168 77.3208 78.5117 77.5778 78.5117 77.8824V87.536C78.5117 87.8407 78.6168 88.1072 78.8275 88.3357C79.0569 88.5452 79.3249 88.6499 79.6311 88.6499ZM99.5785 90.9919C98.9472 90.9919 98.3637 90.8396 97.8278 90.5349C97.3112 90.2112 96.8902 89.7923 96.5649 89.2782C96.2589 88.7451 96.1057 88.1644 96.1057 87.536V69H98.4594V87.536C98.4594 87.8407 98.5645 88.1072 98.7751 88.3357C99.0046 88.5452 99.2726 88.6499 99.5785 88.6499H102.391V90.9919H99.5785ZM104.767 90.9919V74.4266H107.12V90.9919H104.767ZM104.767 71.342V69H107.12V71.342H104.767ZM114.095 90.9919C113.464 90.9919 112.88 90.8396 112.344 90.5349C111.828 90.2112 111.407 89.7923 111.081 89.2782C110.775 88.7451 110.622 88.1644 110.622 87.536V87.3075H112.976V87.536C112.976 87.8407 113.081 88.1072 113.292 88.3357C113.521 88.5452 113.789 88.6499 114.095 88.6499H124.083C124.389 88.6499 124.648 88.5452 124.858 88.3357C125.088 88.1072 125.203 87.8407 125.203 87.536V84.9941C125.203 84.6894 125.088 84.4324 124.858 84.223C124.648 83.9945 124.389 83.8802 124.083 83.8802H114.095C113.464 83.8802 112.88 83.7279 112.344 83.4233C111.828 83.0996 111.407 82.6807 111.081 82.1666C110.775 81.6334 110.622 81.0527 110.622 80.4244V77.8824C110.622 77.2541 110.775 76.6829 111.081 76.1688C111.407 75.6356 111.828 75.2167 112.344 74.9121C112.88 74.5884 113.464 74.4266 114.095 74.4266H124.083C124.734 74.4266 125.317 74.5884 125.834 74.9121C126.37 75.2167 126.791 75.6356 127.097 76.1688C127.422 76.6829 127.585 77.2541 127.585 77.8824V78.1109H125.203V77.8824C125.203 77.5778 125.088 77.3208 124.858 77.1113C124.648 76.8828 124.389 76.7686 124.083 76.7686H114.095C113.789 76.7686 113.521 76.8828 113.292 77.1113C113.081 77.3208 112.976 77.5778 112.976 77.8824V80.4244C112.976 80.729 113.081 80.9956 113.292 81.2241C113.521 81.4335 113.789 81.5382 114.095 81.5382H124.083C124.734 81.5382 125.317 81.7001 125.834 82.0238C126.37 82.3284 126.791 82.7473 127.097 83.2804C127.422 83.7945 127.585 84.3657 127.585 84.9941V87.536C127.585 88.1644 127.422 88.7451 127.097 89.2782C126.791 89.7923 126.37 90.2112 125.834 90.5349C125.317 90.8396 124.734 90.9919 124.083 90.9919H114.095ZM133.915 90.9919C133.265 90.9919 132.671 90.8396 132.136 90.5349C131.619 90.2112 131.208 89.7923 130.901 89.2782C130.595 88.7451 130.442 88.1644 130.442 87.536V69H132.796V74.4266H140V76.7686H132.796V87.536C132.796 87.8407 132.901 88.1072 133.111 88.3357C133.341 88.5452 133.609 88.6499 133.915 88.6499H140V90.9919H133.915Z" fill="#231F20"/>
</g>
<defs>
<clipPath id="clip0_1227_145">
<rect width="121" height="22" fill="white" transform="translate(19 69)"/>
</clipPath>
</defs>
</svg>
