<svg width="160" height="160" viewBox="0 0 160 160" fill="none" xmlns="http://www.w3.org/2000/svg">
<path fill-rule="evenodd" clip-rule="evenodd" d="M86.754 126.641H53.1254C48.1076 126.641 44 122.535 44 117.515V83.8867C66.3767 86.5143 84.1265 104.264 86.754 126.641Z" fill="#1A1A1A"/>
<path fill-rule="evenodd" clip-rule="evenodd" d="M52.1179 34H90.3207C106.142 34 120.174 42.041 128.54 54.2362L128.483 54.2937L127.985 54.7851L127.869 54.9246C127.793 55.0215 127.711 55.1257 127.622 55.2184C127.393 55.4569 127.207 55.6135 127.026 55.7651C126.829 55.9282 126.638 56.0891 126.434 56.3341C125.907 56.9671 125.327 57.5168 124.767 58.047C123.384 59.356 122.126 60.5494 122.784 62.2162C122.984 62.7271 123.197 63.0583 123.443 63.2874C123.687 63.5188 123.998 63.6754 124.383 63.8284C124.785 63.9879 125.175 64.0425 125.556 64.0037C125.943 63.9649 126.339 63.8234 126.745 63.595C126.98 63.4627 127.329 63.1582 127.68 62.824C128.054 62.4677 128.428 62.0768 128.688 61.8031C129.512 60.9252 130.468 59.9761 131.425 59.0384C134.743 65.3983 136.627 72.6117 136.64 80.2432L113.31 71.7725L122.609 102.063L130.338 95.2475L133.642 96.6693C128.207 110.96 115.876 121.925 100.77 125.444C97.7733 95.7346 73.8715 72.1985 44 69.7637V42.1186C44 37.6534 47.6534 34 52.1179 34ZM94.8406 53.7908C94.472 53.8971 94.1573 54.0358 93.9037 54.2111C93.6731 54.3706 93.4862 54.5667 93.3497 54.8024C92.132 56.9047 93.4202 58.1346 94.962 59.6039L95.5878 60.2074C97.0556 61.6745 98.5155 63.1523 99.9876 64.6144L100.139 64.7294L100.35 64.8608C101.293 65.4227 102.241 65.4105 102.989 65.052C103.374 64.8645 103.713 64.5864 103.971 64.2481C104.228 63.9118 104.408 63.5159 104.479 63.0942C104.621 62.2601 104.347 61.3016 103.446 60.4358C101.706 58.6957 99.9309 56.9628 98.2195 55.1968C97.5276 54.4633 96.4499 53.3252 94.8406 53.7908ZM88.156 71.6288C87.5935 71.766 87.0934 72.0829 86.727 72.5097C86.3692 72.9263 86.1393 73.4479 86.1034 74.0061C86.0638 74.6241 86.2183 75.1953 86.5079 75.663C86.8089 76.1487 87.2579 76.5294 87.786 76.7407C88.526 77.0367 90.7245 76.9964 92.1363 76.9713L92.8347 76.9605C93.4777 76.9554 94.107 76.9799 94.7249 77.0036C96.7876 77.0819 98.7411 77.1559 99.6277 76.094C99.8289 75.8527 99.9869 75.5939 100.1 75.3296C100.34 74.7706 100.385 74.1729 100.253 73.6225C100.123 73.0729 99.8188 72.5672 99.3647 72.1885C99.152 72.0132 98.9092 71.8623 98.6405 71.7473C97.9271 71.4413 95.809 71.4865 94.3807 71.5167L93.5646 71.5303L92.2153 71.5139C90.7633 71.4873 88.8845 71.4513 88.156 71.6288ZM106.834 85.5332C106.938 84.8456 106.759 84.1602 106.384 83.612C106.013 83.0689 105.448 82.66 104.782 82.5192C104.015 82.3576 103.346 82.543 102.776 82.8806C102.153 83.2492 101.628 83.8017 101.212 84.3053C101.034 84.5223 100.76 84.7888 100.521 85.0195L100.338 85.1984C100.175 85.3579 100.067 85.4384 99.9625 85.516L99.8454 85.605C99.7879 85.6532 99.7663 85.6841 99.7369 85.7265L99.5595 85.9599C99.2397 86.3486 98.8906 86.6511 98.6125 86.8926C98.4731 87.0139 98.3539 87.1174 98.3 87.1821L98.2569 87.2345C98.1225 87.3948 98.0248 87.5132 97.8667 87.6713L97.2323 88.2727C96.3888 89.0551 95.3887 89.9841 95.2587 90.9504C95.1754 91.569 95.2501 92.0798 95.4527 92.5094C95.6618 92.9513 96.0146 93.335 96.478 93.6828L96.5577 93.7409C96.9572 93.9837 97.4522 94.0915 97.9465 94.0836C98.4681 94.0765 98.9796 93.9435 99.3812 93.7143L106.305 86.8645C106.416 86.7144 106.528 86.5117 106.623 86.2797C106.718 86.0505 106.794 85.7926 106.834 85.5332ZM113.483 45.9244C112.956 46.0551 112.455 46.3719 112.086 46.8109C111.742 47.2212 111.51 47.7334 111.475 48.2967C111.385 49.7531 111.412 51.4989 111.437 53.0594L111.45 53.9259C111.457 54.4805 111.446 54.9928 111.435 55.4691C111.39 57.4485 111.36 58.8035 112.992 59.7935C113.244 59.9458 113.541 60.0371 113.857 60.0651C114.334 60.1082 114.848 60.0149 115.313 59.7921C115.776 59.5708 116.19 59.2216 116.472 58.7561C116.675 58.4228 116.813 58.0233 116.855 57.5641C116.956 56.4549 116.921 54.9618 116.889 53.5925L116.86 51.9645C116.858 51.5398 116.872 51.1225 116.887 50.7057C116.951 48.8399 117.015 46.9395 115.423 46.132C115.144 45.9904 114.825 45.8892 114.485 45.8525C114.172 45.8187 113.834 45.8382 113.483 45.9244Z" fill="#09C36A"/>
</svg>
