<svg width="160" height="160" viewBox="0 0 160 160" fill="none" xmlns="http://www.w3.org/2000/svg">
<g clip-path="url(#clip0_1227_140)">
<path fill-rule="evenodd" clip-rule="evenodd" d="M80.0295 89.5781C92.783 89.5781 103.122 99.9012 103.122 112.635C103.122 125.37 92.783 135.692 80.0295 135.692C67.2761 135.692 56.9375 125.37 56.9375 112.635C56.9368 106.52 59.3695 100.655 63.7003 96.3307C68.031 92.0065 73.905 89.5774 80.0295 89.5781Z" fill="#00284D"/>
<path fill-rule="evenodd" clip-rule="evenodd" d="M79.0204 114.217L79.0784 115.967C79.5244 116.133 82.1661 115.967 82.913 116.049V117.967L79.0177 117.991V122.982C78.7089 123.074 76.0936 122.995 75.6054 122.961L75.5895 117.994H72.2405L72.2247 116.036L75.5605 116.051C75.6238 115.538 75.5842 114.755 75.5869 114.207H72.2379C72.1873 113.586 72.1952 112.963 72.2616 112.344L75.608 112.304L75.6713 102.834C77.1704 102.57 78.6913 102.451 80.2132 102.478C81.2108 102.478 82.3904 102.478 83.3063 102.702C85.1723 103.145 86.296 103.806 87.1907 105.49C87.601 106.365 87.8002 107.325 87.7713 108.291C87.7713 110.647 86.605 112.265 85.2694 113.108C83.1744 114.426 81.6489 114.03 79.0177 114.228L79.0204 114.217ZM95.1059 113.93C95.4039 109.727 94.121 105.701 91.3841 102.636L90.9176 102.133C90.4469 101.659 89.9531 101.21 89.4364 100.786C88.7196 100.232 87.9577 99.7386 87.1592 99.3105C83.3455 97.3078 78.7565 96.9152 74.7318 98.4568C73.4146 98.953 72.1715 99.6268 71.0371 100.459C69.5865 101.521 68.3355 102.831 67.3424 104.328C66.0756 106.291 65.0068 108.807 64.9671 111.337C64.9064 114.236 64.8563 115.316 65.846 118.004C66.6799 120.268 68.0998 122.12 69.6331 123.664L70.6623 124.536C72.7736 126.273 75.8244 127.435 78.7881 127.712C81.0086 127.893 83.2416 127.586 85.3307 126.811C86.2151 126.468 87.0707 126.053 87.8879 125.569L90.0442 123.97C90.2077 123.804 90.3839 123.688 90.572 123.517L91.8915 122.023C93.6545 119.651 94.8812 117.113 95.1059 113.93Z" fill="#00284D"/>
<path fill-rule="evenodd" clip-rule="evenodd" d="M79.8418 130.756C75.5978 130.728 71.4997 129.206 68.2694 126.458L67.1452 125.362C66.7506 124.999 66.3787 124.613 66.0314 124.205C65.018 122.887 64.1445 121.722 63.4425 120.031C62.4027 117.527 61.8828 115.398 61.8907 112.587C61.8691 107.792 63.781 103.191 67.1953 99.8194C73.1756 93.8521 82.49 92.7976 89.6567 97.2765L90.9949 98.2067C91.6172 98.6916 92.2131 99.2088 92.7809 99.7561L93.8714 100.937C96.5708 104.233 98.0725 107.893 98.1304 112.444C98.1934 115.034 97.6724 117.604 96.6049 119.965C96.152 120.984 95.608 121.96 94.9798 122.882L93.7522 124.481C93.6552 124.6 93.576 124.653 93.4883 124.766C92.769 125.562 91.9816 126.294 91.1345 126.953C90.9311 127.106 90.7012 127.29 90.4935 127.425C90.0313 127.728 89.6354 128.013 89.1179 128.318C86.3069 129.955 83.1013 130.796 79.8471 130.75L79.8418 130.756ZM59.1619 111.714V113.785C59.2094 113.899 59.3361 115.63 59.3889 115.973C59.9747 119.849 61.6004 123.103 64.0363 126.055C64.8044 126.922 65.6249 127.741 66.4933 128.508C66.9181 128.893 67.388 129.23 67.8709 129.588C73.0092 133.427 78.385 133.322 78.7492 133.467H81.1244C81.2352 133.422 82.9718 133.304 83.3547 133.235C84.1064 133.101 84.698 132.972 85.4046 132.782C88.1057 132.065 90.634 130.81 92.8363 129.093L94.8266 127.33C96.5606 125.593 97.7822 123.722 98.9119 121.498C100.759 117.859 100.796 113.78 100.883 113.556V111.712C100.606 111.032 101.174 104.51 94.8317 97.9326C94.6103 97.7034 94.4018 97.5532 94.177 97.3345L92.8286 96.1829C92.2293 95.7507 92.0846 95.6085 91.3874 95.1658C89.552 93.954 87.5319 93.0481 85.4046 92.4833C84.7108 92.3145 84.0851 92.1512 83.3487 92.0431C79.7069 91.445 75.9707 91.8317 72.5288 93.1631C71.9166 93.3871 71.4126 93.6348 70.8187 93.9062C69.4666 94.5425 68.1961 95.3388 67.0343 96.2778C66.8073 96.4544 66.6067 96.6467 66.3771 96.8233C65.6165 97.4977 64.8949 98.2147 64.2157 98.9709L63.3845 99.9933C63.2156 100.231 63.0439 100.449 62.8751 100.689C62.2012 101.682 61.6014 102.723 61.0805 103.804C60.2106 105.582 59.6298 107.487 59.3598 109.448C59.3097 109.825 59.2094 111.556 59.1514 111.701L59.1619 111.714Z" fill="#00284D"/>
<path fill-rule="evenodd" clip-rule="evenodd" d="M79.0216 112.259C80.6894 112.159 81.6131 112.543 82.8244 111.592C83.7136 110.894 84.0652 109.974 84.1231 108.462C84.1733 107.228 83.7689 106.04 82.7717 105.392C81.5498 104.601 80.539 104.704 79.0137 104.633V112.259H79.0216Z" fill="#00284D"/>
<path fill-rule="evenodd" clip-rule="evenodd" d="M80.6048 59.0385C80.9109 59.0122 83.0037 58.891 86.5081 60.2901C90.3117 61.808 91.9981 64.0874 91.9981 64.0874L93.8002 62.0214C94.3561 62.9608 94.6822 64.0182 94.7503 65.1072C94.8354 66.1531 94.6643 67.2041 94.2514 68.1691C95.0116 69.2443 95.1989 70.5592 95.6288 71.7766C96.0595 72.9941 99.4323 69.405 100.908 66.4379C102.383 63.4708 102.261 60.717 102.57 60.5273C102.878 60.3376 110.129 58.4614 116.712 57.1571C123.297 55.8526 129.599 53.3835 133.188 51.4256C135.08 50.4173 136.898 49.2788 138.63 48.0184C138.63 48.0184 138.773 52.6246 136.73 56.825C134.687 61.0254 132.093 62.0451 132.093 62.0451C132.093 62.0451 129.884 67.9083 129.077 69.521C128.269 71.1337 125.464 71.1021 125.464 71.1021C125.464 71.1021 124.06 74.8518 122.587 76.6358C121.114 78.4197 117.88 78.1562 117.88 78.1562C117.88 78.1562 117.642 82.0483 115.409 83.7558C113.176 85.4634 111.187 85.4186 111.187 85.4186C111.187 85.4186 109.569 89.0735 107.228 89.5953C104.887 90.117 103.472 89.5953 103.472 89.5953C103.472 89.5953 101.834 92.2173 99.514 92.739C97.1943 93.2607 94.9273 92.4544 94.9273 92.4544C94.9273 92.4544 96.1515 93.5585 96.2468 95.0078C96.3413 96.4571 95.2729 97.7114 95.2729 97.7114L81.2619 98.4651V98.5204L80.7341 98.4914L79.8553 98.5389V98.4467L65.8444 97.693C65.8444 97.693 64.7755 96.4361 64.8705 94.9867C64.9655 93.5374 66.1901 92.436 66.1901 92.436C66.1901 92.436 63.9073 93.2423 61.6033 92.7205C59.2994 92.1988 57.6447 89.5768 57.6447 89.5768C57.6447 89.5768 56.217 90.1038 53.8866 89.5768C51.5563 89.0498 49.928 85.3975 49.928 85.3975C49.928 85.3975 47.9328 85.4476 45.7054 83.7374C43.478 82.0272 43.2326 78.1351 43.2326 78.1351C43.2326 78.1351 40.0023 78.3986 38.5272 76.6174C37.0519 74.836 35.6505 71.0836 35.6505 71.0836C35.6505 71.0836 32.8478 71.1311 32.0376 69.5183C31.2274 67.9056 29.0185 62.0425 29.0185 62.0425C29.0185 62.0425 26.4295 61.0228 24.3842 56.8197C22.3389 52.6167 22.5448 48 22.5448 48C24.2786 49.2547 26.0968 50.3887 27.9866 51.394C31.5758 53.3625 37.8752 55.8316 44.4598 57.1386C51.0443 58.4456 58.2939 60.3165 58.6027 60.5062C58.9114 60.6959 58.7927 63.4497 60.2653 66.4168C61.7379 69.384 65.1133 72.9756 65.5434 71.7582C65.9737 70.5407 66.161 69.2259 66.9211 68.1507C66.5089 67.1854 66.3377 66.1347 66.4223 65.0887C66.4901 63.9996 66.8157 62.9421 67.3723 62.003L69.1696 64.0742C69.1696 64.0742 70.856 61.7948 74.6589 60.2743C78.4618 58.7539 80.6048 59.0253 80.6048 59.0253V59.0385Z" fill="#00284D"/>
<path fill-rule="evenodd" clip-rule="evenodd" d="M80.9629 73.8818C80.9629 73.8818 81.3429 72.3007 83.3959 71.4891C85.4491 70.6775 88.5657 68.6906 90.3185 67.5206C92.0704 66.3506 93.4563 63.5469 93.4563 63.5469C93.7543 64.4222 93.9211 65.3369 93.95 66.261C94.0267 67.9132 91.8968 69.2229 91.8968 69.2229L92.5616 69.4706C92.5616 69.4706 92.353 69.8896 90.1652 70.7039C87.9775 71.5181 83.3959 71.4944 80.9629 73.8949V73.8818Z" fill="white"/>
<path fill-rule="evenodd" clip-rule="evenodd" d="M80.1341 73.8818C80.1341 73.8818 79.7541 72.3007 77.7009 71.4891C75.6477 70.6775 72.5309 68.6906 70.7785 67.5206C69.0263 66.3506 67.6407 63.5469 67.6407 63.5469C67.3429 64.4179 67.1757 65.328 67.1446 66.2478C67.0681 67.9001 69.1978 69.2097 69.1978 69.2097L68.5327 69.4574C68.5327 69.4574 68.7412 69.8764 70.929 70.6907C73.1168 71.5049 77.6983 71.4812 80.1315 73.8818H80.1341Z" fill="white"/>
<path fill-rule="evenodd" clip-rule="evenodd" d="M79.003 74.6521C79.003 74.6521 78.1954 73.5401 76.3506 72.9156C74.8797 72.4695 73.3598 72.2041 71.8246 72.125H71.5977C71.5977 72.125 71.6161 75.6007 74.4689 76.5494C77.3218 77.498 79.003 74.6416 79.003 74.6416V74.6521Z" fill="#FFED00"/>
<path fill-rule="evenodd" clip-rule="evenodd" d="M81.9424 74.6521C81.9424 74.6521 82.75 73.5401 84.5949 72.9156C86.4396 72.291 88.8939 72.125 89.1203 72.125H89.3502C89.3502 72.125 89.3289 75.6007 86.4788 76.5494C83.6287 77.498 81.9424 74.6416 81.9424 74.6416V74.6521Z" fill="#FFED00"/>
<path fill-rule="evenodd" clip-rule="evenodd" d="M78.7704 74.4765C78.1567 73.7578 77.3499 73.2293 76.4453 72.9534C75.1583 72.5675 73.829 72.3391 72.4867 72.2734H72.2861C72.2861 72.2734 72.3046 75.317 74.8039 76.1497C77.3031 76.9824 78.7783 74.4765 78.7783 74.4765H78.7704Z" fill="#F5B700"/>
<path fill-rule="evenodd" clip-rule="evenodd" d="M82.1875 74.4765C82.802 73.7586 83.6088 73.2303 84.5129 72.9534C85.8 72.5678 87.1289 72.3395 88.4713 72.2734H88.6714C88.6714 72.2734 88.6561 75.317 86.1541 76.1497C83.6522 76.9824 82.1875 74.4765 82.1875 74.4765Z" fill="#F5B700"/>
<path fill-rule="evenodd" clip-rule="evenodd" d="M79.6913 86.4556C79.2876 86.1472 78.7412 85.7019 78.0393 85.0801C76.3106 83.5411 73.3998 79.9705 73.3998 79.9705C73.3378 80.2838 73.3254 80.6047 73.3628 80.9219C73.3998 81.6438 73.9513 83.2197 73.9513 83.2197C73.9513 83.2197 73.3998 83.0089 71.9562 81.2828C70.5126 79.5568 68.2007 76.031 68.2007 76.031L67.9368 77.8545C67.9368 77.8545 66.1871 75.6121 66.7202 72.0046C66.9041 70.8738 67.2424 69.7735 67.7257 68.7345L68.3749 69.2246L67.9368 69.4881C68.128 69.6773 68.3316 69.8533 68.5464 70.0151C68.763 70.1557 68.9877 70.2833 69.2194 70.3972C69.1505 70.8932 69.1892 71.3983 69.3329 71.8781C69.5731 72.7794 70.4835 73.6068 70.4835 73.6068C70.0598 73.6519 69.6312 73.6188 69.2194 73.5093C68.8055 73.3756 68.4262 73.1524 68.1084 72.8558C68.1084 72.8558 68.2034 74.0811 69.9557 75.4276C71.7081 76.7742 73.2837 76.7953 73.2837 76.7953C73.1939 77.0563 73.0192 77.2799 72.7874 77.4303C72.4897 77.6488 72.1502 77.8039 71.7899 77.8862C71.7899 77.8862 72.7215 78.4553 74.7377 78.2103C75.7998 78.1075 76.8425 77.8584 77.8361 77.4698C77.8361 77.4698 77.9706 80.9245 78.8916 82.35C79.3435 83.0999 79.9098 83.7747 80.5701 84.3501C81.2297 83.7739 81.7959 83.0993 82.2486 82.35C83.1614 80.9245 83.3044 77.4698 83.3044 77.4698C84.2979 77.8579 85.3407 78.1071 86.4023 78.2103C88.4189 78.4553 89.3502 77.8862 89.3502 77.8862C88.9901 77.8039 88.6505 77.6488 88.3525 77.4303C88.121 77.2805 87.9473 77.0566 87.8596 76.7953C87.8596 76.7953 89.443 76.7768 91.1873 75.4276C92.9316 74.0784 93.0346 72.8558 93.0346 72.8558C92.7171 73.1524 92.3374 73.3756 91.9237 73.5093C91.5116 73.6188 91.0835 73.6519 90.6595 73.6068C90.6595 73.6068 91.5721 72.7794 91.8096 71.8781C91.9535 71.3983 91.9926 70.8932 91.9237 70.3972C92.1586 70.2811 92.3876 70.1508 92.6072 70.0072C92.8218 69.8454 93.0252 69.6694 93.2168 69.4802L92.7784 69.2167L93.4279 68.7266C93.9029 69.7694 94.2323 70.8724 94.4069 72.0046C94.9347 75.6121 93.1904 77.8545 93.1904 77.8545L92.9265 76.031C92.9265 76.031 90.6067 79.5437 89.163 81.2723C87.7192 83.001 87.165 83.2091 87.165 83.2091C87.165 83.2091 87.7166 81.628 87.7541 80.9113C87.7915 80.5942 87.7788 80.2732 87.7166 79.96C87.7166 79.96 84.8138 83.5306 83.0773 85.0695C82.3753 85.6914 81.829 86.1235 81.4252 86.4451C81.1517 86.6599 80.8671 86.8605 80.5728 87.0458C80.2773 86.8609 79.9918 86.6604 79.7177 86.4451L79.6913 86.4556Z" fill="#1CA6ED"/>
<path fill-rule="evenodd" clip-rule="evenodd" d="M90.4031 64.2505C90.1444 64.732 89.8464 65.1912 89.511 65.6235C88.8359 66.414 87.6271 66.8752 87.6271 66.8752L87.1146 64.7196C87.1146 64.7196 86.7903 66.8277 86.0412 68.024C85.2912 69.2204 84.5284 69.4865 84.5284 69.4865L84.5106 68.3666C84.0534 69.0345 83.5333 69.6574 82.9584 70.227C82.5428 70.6298 82.0653 70.9634 81.5439 71.2152C81.4682 70.8699 81.3694 70.5301 81.2483 70.198C81.0772 69.8457 80.8438 69.527 80.5594 69.2573C80.2743 69.5269 80.0402 69.8456 79.868 70.198C79.7468 70.5298 79.649 70.8697 79.5751 71.2152C79.0526 70.9639 78.5741 70.6302 78.1579 70.227C77.5832 69.6577 77.0644 69.0348 76.6087 68.3666L76.5876 69.4865C76.5876 69.4865 75.8276 69.223 75.0781 68.024C74.3286 66.8251 74.0066 64.7196 74.0066 64.7196L73.4788 66.8752C73.4788 66.8752 72.2701 66.4113 71.5971 65.6235C71.2605 65.1925 70.9621 64.7332 70.7051 64.2505C71.7648 63.0951 73.0267 62.1422 74.4288 61.4389C76.0029 60.6574 77.6984 60.1486 79.4432 59.9342H79.4009C79.6029 59.9047 79.8065 59.8862 80.0105 59.8789C80.1197 59.8789 80.2411 59.8789 80.3747 59.8789H80.7415C80.8753 59.8789 80.9966 59.8789 81.1058 59.8789C81.3098 59.8862 81.5134 59.9047 81.7154 59.9342H81.6732C83.4175 60.1486 85.1133 60.6574 86.6873 61.4389C88.0851 62.1408 89.3442 63.0899 90.4031 64.24V64.2505Z" fill="#1CA6ED"/>
<path fill-rule="evenodd" clip-rule="evenodd" d="M80.4562 90.1818C80.6515 89.8971 81.8761 88.1633 83.3593 87.4491C84.9742 86.6718 87.2173 85.4938 88.5871 84.374C89.9568 83.254 92.6936 80.026 92.6936 80.026L91.9156 82.7402C92.8571 81.956 93.6607 81.0189 94.2906 79.968C95.0142 78.7779 95.5701 77.494 95.9421 76.1523C95.9421 76.1523 96.9662 79.2671 96.4384 82.0576C95.9106 84.8483 94.3851 86.3688 94.3851 86.3688L93.9842 83.6914C93.9842 83.6914 92.4638 87.0697 90.8174 88.5901C89.1702 90.1106 87.6243 90.4347 87.6243 90.4347L89.2204 90.6455C89.2204 90.6455 86.956 93.112 84.4864 94.4981C82.359 95.6917 80.8811 96.0264 80.509 96.0976V96.1134H80.4615H80.4166V96.0976C80.0419 96.0264 78.5693 95.6917 76.4395 94.4981C73.9667 93.112 71.705 90.6455 71.705 90.6455L73.3017 90.4347C73.3017 90.4347 71.7604 90.1133 70.1057 88.5901C68.451 87.067 66.9388 83.6914 66.9388 83.6914L66.5403 86.3688C66.5403 86.3688 64.9991 84.8483 64.4871 82.0576C63.9751 79.2671 64.9806 76.1523 64.9806 76.1523C65.3477 77.4933 65.8983 78.7773 66.6168 79.968C67.2459 81.0195 68.049 81.9568 68.992 82.7402L68.2003 80.026C68.2003 80.026 70.9396 83.254 72.3094 84.374C73.6791 85.4938 75.9223 86.6718 77.5374 87.4491C79.018 88.1633 80.2425 89.8971 80.4404 90.1818H80.4562Z" fill="#1CA6ED"/>
<path fill-rule="evenodd" clip-rule="evenodd" d="M78.4932 77.3767C78.4932 77.3767 78.7783 80.3569 79.1688 81.3293C79.526 82.0829 79.99 82.7814 80.5464 83.4032L80.5622 83.4216L80.5754 83.4032C81.1326 82.7821 81.5967 82.0835 81.953 81.3293C82.3436 80.3517 82.6286 77.3767 82.6286 77.3767C81.9319 77.0288 80.9476 76.6758 80.5754 75.9669V75.9062L80.5622 75.9379L80.5464 75.9062V75.9669C80.1743 76.6758 79.1899 77.0209 78.4932 77.3767Z" fill="#FFED00"/>
<path fill-rule="evenodd" clip-rule="evenodd" d="M79.0498 78.6855C79.0498 78.6855 79.2557 81.0202 79.5407 81.7869C79.799 82.3727 80.1374 82.9198 80.5461 83.4128L80.5593 83.426V83.4128C80.968 82.9198 81.3064 82.3727 81.5648 81.7869C81.8498 81.0202 82.0583 78.6855 82.0583 78.6855C81.549 78.422 80.8285 78.1347 80.5593 77.5787V77.5312C80.5584 77.5392 80.5584 77.5471 80.5593 77.555L80.5461 77.5312V77.5787C80.2822 78.1347 79.5565 78.4114 79.0498 78.6855Z" fill="#F5B700"/>
<path fill-rule="evenodd" clip-rule="evenodd" d="M96.0454 73.1974C99.7927 70.9391 102.644 66.686 103.208 61.703C103.3 60.815 114.121 58.9072 122.565 56.6725C131.011 54.438 137.582 49.9609 137.582 49.9609C137.582 49.9609 136.817 55.3445 135.094 57.9638C133.37 60.583 131.069 61.284 131.069 61.284C131.069 61.284 129.142 66.0035 128.235 67.9245C127.327 69.8455 124.872 69.7085 124.872 69.7085C124.872 69.7085 122.668 74.0406 121.653 75.6138C120.636 77.1869 116.789 76.6679 116.789 76.6679C116.789 76.6679 116.577 79.7087 114.968 82.0487C113.358 84.3887 109.954 83.8327 109.954 83.8327C109.954 83.8327 108.721 86.7366 107.523 87.8986C106.325 89.0608 104.477 88.5443 103.796 88.265C103.451 88.1352 103.121 87.9655 102.815 87.759C102.815 87.759 101.231 90.9027 99.0887 91.6379C96.9452 92.3731 92.5781 89.016 92.5781 89.016C93.1451 88.9408 93.6933 88.7622 94.1956 88.489C95.1243 88.0067 96.1407 86.5574 96.4727 85.5086L96.8056 84.4546L97.8612 84.8578C98.761 80.8629 97.7267 76.5835 96.0539 73.1974H96.0454Z" fill="#1CA6ED"/>
<path fill-rule="evenodd" clip-rule="evenodd" d="M65.0633 73.1974C61.3131 70.9391 58.4656 66.686 57.9087 61.703C57.8085 60.815 46.9908 58.9072 38.5537 56.6725C30.1164 54.438 23.5293 49.9609 23.5293 49.9609C23.5293 49.9609 24.2972 55.3445 26.0127 57.9638C27.7281 60.583 30.0399 61.284 30.0399 61.284C30.0399 61.284 31.9638 66.0035 32.8743 67.9245C33.7848 69.8455 36.2339 69.7085 36.2339 69.7085C36.2339 69.7085 38.4402 74.0406 39.4535 75.6138C40.467 77.187 44.3201 76.6679 44.3201 76.6679C44.3201 76.6679 44.5286 79.7087 46.1384 82.0487C47.7482 84.3887 51.1526 83.8327 51.1526 83.8327C51.1526 83.8327 52.3957 86.7498 53.6017 87.9039C54.8078 89.0581 56.6472 88.5496 57.3307 88.2703C57.6757 88.1401 58.0043 87.9703 58.3099 87.7643C58.3099 87.7643 59.8933 90.908 62.0363 91.6432C64.1792 92.3784 68.5469 89.0212 68.5469 89.0212C67.9798 88.9461 67.4314 88.7674 66.9291 88.4942C66.0002 88.012 64.9867 86.5627 64.6542 85.5139L64.3217 84.4599L63.266 84.863C62.3635 80.8682 63.4006 76.5888 65.0738 73.2027L65.0633 73.1974Z" fill="#1CA6ED"/>
<path fill-rule="evenodd" clip-rule="evenodd" d="M80.029 91.1133C91.9329 91.1133 101.582 100.749 101.582 112.634C101.582 124.52 91.9329 134.155 80.029 134.155C68.1254 134.155 58.4756 124.52 58.4756 112.634C58.4749 106.926 60.7454 101.452 64.7877 97.4159C68.8299 93.3797 74.3125 91.1126 80.029 91.1133Z" fill="#F5B700"/>
<path fill-rule="evenodd" clip-rule="evenodd" d="M79.0874 114.112L79.1401 115.745C79.5572 115.901 82.0221 115.745 82.7214 115.822V117.611L79.0874 117.635V122.291C78.7997 122.378 76.3586 122.304 75.9047 122.273L75.8704 117.635H72.7589V115.806L75.873 115.819C75.9311 115.34 75.8941 114.612 75.8968 114.091H72.7589C72.7114 113.512 72.7185 112.929 72.78 112.351L75.9047 112.317L75.9627 103.476C77.3616 103.23 78.7809 103.119 80.2011 103.144C81.1682 103.11 82.1362 103.18 83.0882 103.352C84.8304 103.766 85.8774 104.383 86.7143 105.956C87.0973 106.773 87.2829 107.668 87.2557 108.57C87.2557 110.77 86.1677 112.28 84.9198 113.066C82.9668 114.301 81.5418 113.927 79.0874 114.12V114.112ZM94.1008 113.848C94.3784 109.924 93.1797 106.169 90.6285 103.308L90.19 102.836C89.7508 102.394 89.2894 101.976 88.8076 101.582C88.1385 101.064 87.4276 100.603 86.6828 100.204C83.1225 98.3353 78.8393 97.9663 75.0839 99.413C73.8551 99.8773 72.6956 100.507 71.6373 101.284C70.2899 102.276 69.1285 103.499 68.2065 104.894C67.0241 106.725 66.0266 109.084 65.9764 111.437C65.921 114.133 65.8735 115.15 66.7972 117.659C67.5757 119.767 68.9084 121.5 70.3335 122.942L71.2941 123.756C73.2708 125.377 76.1105 126.47 78.8789 126.721C80.9507 126.888 83.0342 126.601 84.9828 125.88C85.8093 125.558 86.6079 125.17 87.3715 124.721L89.3822 123.229C89.5354 123.074 89.6989 122.966 89.8683 122.805L91.1086 121.408C92.755 119.205 93.9008 116.826 94.1119 113.856L94.1008 113.848Z" fill="#00284D"/>
<path fill-rule="evenodd" clip-rule="evenodd" d="M79.8545 129.547C75.8929 129.523 72.0673 128.102 69.0526 125.536L67.997 124.513C67.6291 124.175 67.2819 123.815 66.9572 123.436C66.0125 122.208 65.1969 121.117 64.5398 119.538C63.5713 117.201 63.0857 115.214 63.0936 112.59C63.0751 108.115 64.8592 103.821 68.0445 100.674C73.627 95.1046 82.3207 94.1211 89.0092 98.3019L90.2606 99.1715C90.842 99.6237 91.3988 100.107 91.9283 100.618L92.9447 101.717C95.4671 104.795 96.8657 108.213 96.9211 112.458C96.9789 114.874 96.4929 117.273 95.4986 119.478C95.0746 120.428 94.5664 121.339 93.9816 122.2L92.8358 123.694C92.7438 123.805 92.6698 123.855 92.5719 123.957C91.901 124.7 91.1664 125.384 90.3764 126C90.1866 126.142 89.9729 126.313 89.7771 126.44C89.3446 126.722 88.9854 126.988 88.4925 127.272C85.8689 128.801 82.878 129.585 79.8413 129.541L79.8545 129.547ZM60.5469 111.77V113.701C60.5891 113.81 60.7105 115.417 60.7606 115.746C61.3069 119.364 62.8244 122.4 65.0966 125.154C65.8187 125.966 66.5908 126.733 67.4086 127.449C67.8196 127.807 68.2486 128.144 68.6937 128.458C73.489 132.042 78.5085 131.944 78.8463 132.079H81.0737C81.1793 132.037 82.8023 131.926 83.1558 131.863C83.8556 131.736 84.4098 131.599 85.0695 131.439C87.591 130.769 89.9508 129.598 92.0075 127.994L93.8547 126.35C95.4756 124.729 96.6129 122.98 97.6685 120.906C99.394 117.509 99.4255 113.701 99.5158 113.491V111.77C99.2519 111.135 99.7797 105.048 93.8684 98.908C93.6623 98.6946 93.4666 98.5549 93.258 98.3494L91.9836 97.2768C91.4269 96.8763 91.2898 96.7498 90.6403 96.3309C88.9275 95.1992 87.0411 94.3528 85.0559 93.8248C84.4098 93.6667 83.8266 93.5165 83.1371 93.4138C80.9754 93.0795 78.7736 93.0946 76.6163 93.4586C75.3958 93.6846 74.1981 94.0197 73.0377 94.4599C72.465 94.6707 71.9953 94.9 71.4411 95.153C70.1802 95.7525 68.9949 96.499 67.91 97.377C67.6962 97.5403 67.5115 97.7222 67.295 97.8855C66.5866 98.5166 65.9135 99.186 65.2787 99.8908L64.5055 100.847C64.3472 101.069 64.1862 101.274 64.0305 101.498C63.4007 102.422 62.8406 103.391 62.3547 104.397C61.5428 106.058 61.0003 107.836 60.7474 109.667C60.7026 110.018 60.6076 111.636 60.5548 111.775L60.5469 111.77Z" fill="#C78F17"/>
<path fill-rule="evenodd" clip-rule="evenodd" d="M79.0971 112.296C80.6542 112.201 81.5171 112.559 82.6467 111.674C83.4776 111.02 83.8053 110.161 83.8607 108.752C83.9058 107.597 83.5304 106.488 82.5965 105.885C81.4564 105.149 80.5142 105.242 79.0918 105.176V112.291L79.0971 112.296Z" fill="#00284D"/>
<path fill-rule="evenodd" clip-rule="evenodd" d="M88.8281 94.1457C88.8281 94.1457 89.1269 93.4341 90.185 93.2339C91.2431 93.0336 91.6339 93.5896 91.6339 93.5896C91.6339 93.5896 92.0136 92.8518 91.1214 92.1166C90.2301 91.3814 89.2452 91.2865 88.8996 91.8794C88.5539 92.4724 87.5801 92.4249 87.5801 92.7332C87.5801 93.0415 88.8391 94.1457 88.8391 94.1457H88.8281Z" fill="#1CA6ED"/>
<path fill-rule="evenodd" clip-rule="evenodd" d="M91.8652 92.0499C92.0031 92.1996 92.1198 92.3681 92.2109 92.5506C92.3641 92.851 92.3215 93.7416 92.3215 93.7416C92.5088 93.7573 92.6918 93.8055 92.8621 93.8839C93.0817 93.9894 93.2784 94.1372 93.4401 94.3188C93.5474 94.0053 93.5721 93.6695 93.5116 93.3438C93.3984 92.8589 92.5488 91.955 91.8652 92.0499Z" fill="#1CA6ED"/>
<path fill-rule="evenodd" clip-rule="evenodd" d="M93.8135 94.6422C94.068 94.676 94.3123 94.7661 94.5286 94.9057C94.7993 95.0678 95.0257 95.2941 95.1883 95.5645C95.2666 95.1805 95.2309 94.782 95.0853 94.4182C94.8478 93.6645 93.9684 93.0664 93.9684 93.0664C93.9684 93.0664 94.1531 94.3049 93.8135 94.6475V94.6422Z" fill="#1CA6ED"/>
<path fill-rule="evenodd" clip-rule="evenodd" d="M94.3517 95.3184C94.3857 95.3184 94.5602 95.3184 94.8505 95.5977C95.1408 95.877 95.2012 96.101 95.1144 96.2328C94.8905 96.5016 94.6139 96.7215 94.3014 96.8784C94.0605 96.9968 93.8017 97.0768 93.5361 97.1155C94.0324 96.646 94.3227 96.0004 94.3466 95.3184H94.3517Z" fill="white"/>
<path fill-rule="evenodd" clip-rule="evenodd" d="M92.6201 94.4688C92.7954 94.518 92.9614 94.5963 93.1112 94.7006C93.3479 94.8322 93.4586 95.1125 93.3752 95.3699C93.1768 95.7576 92.8891 96.0927 92.5358 96.3476C92.1212 96.6322 91.9893 96.6322 91.9893 96.6322C91.9893 96.6322 92.7495 95.4753 92.6226 94.4688H92.6201Z" fill="white"/>
<path fill-rule="evenodd" clip-rule="evenodd" d="M89.8887 94.5474C89.8887 94.5474 90.1526 93.8886 90.757 93.8543C91.3605 93.8201 91.5487 94.1178 91.5487 94.1178C91.4499 94.5192 91.3129 94.9102 91.1392 95.2852C90.9289 95.6716 90.6369 96.0078 90.2845 96.2708C90.2845 96.2708 90.3611 94.8293 89.8963 94.5553L89.8887 94.5474Z" fill="white"/>
<path fill-rule="evenodd" clip-rule="evenodd" d="M71.6787 94.1457C71.6787 94.1457 71.3805 93.4341 70.3222 93.2339C69.264 93.0336 68.8734 93.5896 68.8734 93.5896C68.8734 93.5896 68.4933 92.8518 69.3854 92.1166C70.2774 91.3814 71.2618 91.2865 71.6075 91.8794C71.9532 92.4724 72.9271 92.4249 72.9271 92.7332C72.9271 93.0415 71.6682 94.1457 71.6682 94.1457H71.6787Z" fill="#1CA6ED"/>
<path fill-rule="evenodd" clip-rule="evenodd" d="M68.6421 92.0499C68.5037 92.1996 68.3872 92.3681 68.2964 92.5506C68.1433 92.851 68.1855 93.7416 68.1855 93.7416C67.9983 93.7573 67.8152 93.8055 67.6446 93.8839C67.4251 93.9894 67.2286 94.1372 67.0666 94.3188C66.9593 94.0053 66.9347 93.6695 66.9954 93.3438C67.1088 92.8589 67.9586 91.955 68.6421 92.0499Z" fill="#1CA6ED"/>
<path fill-rule="evenodd" clip-rule="evenodd" d="M66.6939 94.6422C66.439 94.676 66.1947 94.7661 65.9788 94.9057C65.708 95.0678 65.4814 95.2941 65.319 95.5645C65.2404 95.1805 65.2762 94.782 65.422 94.4182C65.6595 93.6645 66.5382 93.0664 66.5382 93.0664C66.5382 93.0664 66.3535 94.3049 66.6939 94.6475V94.6422Z" fill="#1CA6ED"/>
<path fill-rule="evenodd" clip-rule="evenodd" d="M66.1548 95.3184C66.1204 95.3184 65.9463 95.3184 65.656 95.5977C65.3657 95.877 65.305 96.101 65.3921 96.2328C65.6155 96.5016 65.8923 96.7215 66.2049 96.8784C66.4461 96.9968 66.7043 97.0768 66.9703 97.1155C66.4743 96.646 66.1833 96.0004 66.16 95.3184H66.1548Z" fill="white"/>
<path fill-rule="evenodd" clip-rule="evenodd" d="M67.8868 94.4688C67.7113 94.518 67.5454 94.5963 67.396 94.7006C67.1592 94.8322 67.0487 95.1125 67.1321 95.3699C67.3303 95.7576 67.6179 96.0927 67.9713 96.3476C68.3856 96.6322 68.5175 96.6322 68.5175 96.6322C68.5175 96.6322 67.7575 95.4753 67.8842 94.4688H67.8868Z" fill="white"/>
<path fill-rule="evenodd" clip-rule="evenodd" d="M70.618 94.5474C70.618 94.5474 70.3541 93.8886 69.7498 93.8543C69.1454 93.8201 68.958 94.1178 68.958 94.1178C69.0564 94.5192 69.1934 94.9102 69.3671 95.2852C69.5774 95.6716 69.8691 96.0078 70.2222 96.2708C70.2222 96.2708 70.1456 94.8293 70.6101 94.5553L70.618 94.5474Z" fill="white"/>
<path d="M78.1019 73.7756C77.9805 74.0316 77.8163 74.2651 77.6163 74.4659C76.9182 75.1629 75.8683 75.3714 74.9563 74.9942C74.0441 74.617 73.4494 73.7284 73.4492 72.7426C73.4489 72.5824 73.4648 72.4226 73.4967 72.2656C73.8847 72.3183 74.3122 72.3842 74.7502 72.4712C74.6029 73.0766 74.9565 73.6912 75.5546 73.869C76.1526 74.0467 76.7853 73.7252 76.9935 73.1379C77.3832 73.3132 77.7545 73.5269 78.1019 73.7756Z" fill="#00284D"/>
<path d="M82.8457 73.7756C83.3323 74.8075 84.4696 75.3649 85.5848 75.1173C86.7 74.8696 87.4934 73.8831 87.4959 72.7426C87.4959 72.5824 87.4797 72.4226 87.4482 72.2656C87.0601 72.3183 86.6327 72.3842 86.1977 72.4712C86.2863 72.8638 86.1679 73.2746 85.8836 73.5595C85.4248 74.0169 84.6816 74.0169 84.2236 73.5595C84.1044 73.4366 84.0142 73.289 83.9597 73.1274C83.5698 73.3022 83.1995 73.5158 82.8536 73.765L82.8457 73.7756Z" fill="#00284D"/>
<path fill-rule="evenodd" clip-rule="evenodd" d="M23.5996 50.3711C23.5996 50.3711 25.7796 55.7731 28.2022 58.0261C30.6249 60.2791 32.979 60.5637 32.979 60.5637C32.979 60.5637 33.0977 63.6969 34.5044 65.8339C35.911 67.971 38.5369 68.0263 38.5369 68.0263C38.5369 68.0263 38.6715 71.4046 40.6006 73.0147C42.5298 74.6247 45.3827 74.1978 45.3827 74.1978C45.3827 74.1978 45.6202 78.3744 47.7104 79.7052C49.8005 81.0359 51.5133 79.2783 51.5133 79.2783C51.5133 79.2783 51.6796 82.8384 54.9441 84.5696C58.2086 86.3008 59.581 83.4549 59.581 83.4549C59.581 83.4549 59.7948 86.09 61.3861 86.1849C62.1514 86.2297 62.7954 85.5525 63.2573 84.8384V84.8568L64.3129 84.4537L64.6454 85.5077C64.978 86.5618 65.9913 88.0058 66.9203 88.488C67.4227 88.7612 67.971 88.9398 68.538 89.0151C68.538 89.0151 64.1624 92.3696 62.0274 91.637C59.8924 90.9044 58.301 87.7581 58.301 87.7581C57.9954 87.9641 57.6669 88.1339 57.322 88.264C56.6384 88.5434 54.8016 89.0546 53.5929 87.8977C52.3842 86.741 51.1439 83.837 51.1439 83.837C51.1439 83.837 47.7473 84.3956 46.1296 82.053C44.5118 79.7104 44.3112 76.6722 44.3112 76.6722C44.3112 76.6722 40.4608 77.1992 39.4448 75.6181C38.4287 74.037 36.2251 69.7128 36.2251 69.7128C36.2251 69.7128 33.776 69.8525 32.8655 67.9288C31.955 66.0052 30.0311 61.2884 30.0311 61.2884C30.0311 61.2884 27.7193 60.59 26.0039 57.9681C24.5867 55.7862 23.8135 51.6886 23.5996 50.3711Z" fill="#17398D"/>
<path fill-rule="evenodd" clip-rule="evenodd" d="M137.485 50.3711C137.485 50.3711 135.305 55.7731 132.882 58.0261C130.459 60.2791 128.108 60.5742 128.108 60.5742C128.108 60.5742 127.989 63.7074 126.583 65.8445C125.176 67.9815 122.543 68.0263 122.543 68.0263C122.543 68.0263 122.407 71.4046 120.478 73.0147C118.549 74.6247 115.704 74.1978 115.704 74.1978C115.704 74.1978 115.467 78.3744 113.377 79.7052C111.287 81.0359 109.571 79.2783 109.571 79.2783C109.571 79.2783 109.405 82.8384 106.14 84.5696C102.875 86.3008 101.503 83.4549 101.503 83.4549C101.503 83.4549 101.289 86.09 99.6984 86.1849C98.9331 86.2297 98.2886 85.5525 97.8272 84.8384V84.8568L96.7717 84.4537L96.4388 85.5077C96.1068 86.5618 95.0904 88.0058 94.1642 88.488C93.6619 88.7608 93.1129 88.9395 92.5459 89.0151C92.5459 89.0151 96.9189 92.3696 99.0539 91.637C101.189 90.9044 102.772 87.7581 102.772 87.7581C103.078 87.9641 103.407 88.1339 103.752 88.264C104.436 88.5434 106.272 89.0546 107.481 87.8977C108.69 86.741 109.935 83.837 109.935 83.837C109.935 83.837 113.329 84.3956 114.95 82.053C116.57 79.7104 116.76 76.6617 116.76 76.6617C116.76 76.6617 120.61 77.1887 121.627 75.6076C122.642 74.0265 124.846 69.7023 124.846 69.7023C124.846 69.7023 127.295 69.8419 128.205 67.9183C129.116 65.9947 131.04 61.2779 131.04 61.2779C131.04 61.2779 133.352 60.5795 135.065 57.9576C136.492 55.7862 137.263 51.6886 137.485 50.3711Z" fill="#17398D"/>
<path fill-rule="evenodd" clip-rule="evenodd" d="M26.4268 55.3164C26.4268 55.3164 27.5194 58.8765 30.1215 59.7566C32.7236 60.6367 52.8678 62.9187 52.8678 62.9187C52.8678 62.9187 28.8996 59.4009 26.4268 55.3164Z" fill="#00284D"/>
<path fill-rule="evenodd" clip-rule="evenodd" d="M34.3652 65.192C34.3652 65.192 34.6502 68.2908 37.7407 68.6572C40.831 69.0234 54.7601 64.8652 54.7601 64.8652C54.7601 64.8652 35.2467 69.6268 34.3652 65.1972V65.192Z" fill="#00284D"/>
<path fill-rule="evenodd" clip-rule="evenodd" d="M40.0234 72.4545C40.1184 72.6443 40.1422 75.8959 44.0401 75.5165C47.9381 75.1371 54.3088 66.9023 54.3088 66.9023C54.3088 66.9023 43.8739 77.1556 40.0234 72.4545Z" fill="#00284D"/>
<path fill-rule="evenodd" clip-rule="evenodd" d="M46.7031 79.5033C46.7031 79.5033 47.4632 81.8749 49.9334 81.7589C52.4036 81.643 55.354 68.0273 55.354 68.0273C55.354 68.0273 50.7436 82.647 46.7031 79.5138V79.5033Z" fill="#00284D"/>
<path fill-rule="evenodd" clip-rule="evenodd" d="M53.2607 83.7264C53.2607 83.7264 55.2585 86.148 57.2563 85.6263C59.2541 85.1045 57.5413 71.1016 57.5413 71.1016C57.5413 71.1016 57.2563 85.6263 53.2607 83.7264Z" fill="#00284D"/>
<path fill-rule="evenodd" clip-rule="evenodd" d="M134.571 55.3164C134.571 55.3164 133.476 58.8765 130.877 59.7566C128.277 60.6367 108.128 62.9187 108.128 62.9187C108.128 62.9187 132.088 59.4088 134.561 55.3243L134.571 55.3164Z" fill="#00284D"/>
<path fill-rule="evenodd" clip-rule="evenodd" d="M126.631 65.192C126.631 65.192 126.346 68.2908 123.255 68.6572C120.164 69.0234 106.238 64.8652 106.238 64.8652C106.238 64.8652 125.749 69.6268 126.631 65.1972V65.192Z" fill="#00284D"/>
<path fill-rule="evenodd" clip-rule="evenodd" d="M120.983 72.4545C120.888 72.6443 120.864 75.8959 116.966 75.5165C113.068 75.1371 106.697 66.9023 106.697 66.9023C106.697 66.9023 117.125 77.1556 120.983 72.4545Z" fill="#00284D"/>
<path fill-rule="evenodd" clip-rule="evenodd" d="M114.295 79.5033C114.295 79.5033 113.535 81.8749 111.062 81.7589C108.589 81.643 105.644 68.0273 105.644 68.0273C105.644 68.0273 110.254 82.647 114.295 79.5138V79.5033Z" fill="#00284D"/>
<path fill-rule="evenodd" clip-rule="evenodd" d="M107.734 83.7264C107.734 83.7264 105.739 86.148 103.741 85.6263C101.743 85.1045 103.456 71.1016 103.456 71.1016C103.456 71.1016 103.741 85.6263 107.734 83.7264Z" fill="#00284D"/>
<path fill-rule="evenodd" clip-rule="evenodd" d="M70.8159 64.1444C70.9796 64.234 71.1907 64.3341 71.4625 64.4501C72.8058 65.0193 73.2571 64.8533 73.2571 64.8533L74.289 62.4922C74.289 62.4922 75.2338 65.6201 75.7748 66.4923C76.3158 67.3646 76.6457 67.47 76.6457 67.47L76.804 66.5213C77.0928 67.1411 77.5124 67.6912 78.0339 68.134C78.9259 68.9061 79.1634 68.8455 79.1634 68.8455C79.1634 68.8455 79.1159 68.5371 79.5672 68.0391C79.8397 67.7407 80.1839 67.5166 80.5673 67.3883L80.5911 69.304L80.5489 69.2566C80.2638 69.5262 80.0296 69.8449 79.8575 70.1973C79.7362 70.5291 79.6384 70.869 79.5645 71.2145C79.042 70.9632 78.5635 70.6295 78.1473 70.2263C77.5726 69.657 77.0539 69.034 76.5982 68.3659L76.577 69.4858C76.577 69.4858 75.817 69.2223 75.0676 68.0233C74.318 66.8244 74.0066 64.7188 74.0066 64.7188L73.4788 66.8744C73.4788 66.8744 72.2701 66.4106 71.5971 65.6227C71.2605 65.1918 70.9621 64.7324 70.7051 64.2498C70.7367 64.2129 70.7711 64.1787 70.8054 64.1444H70.8159Z" fill="#17398D"/>
<path fill-rule="evenodd" clip-rule="evenodd" d="M90.2951 64.1444C90.1317 64.234 89.9206 64.3341 89.649 64.4501C88.3057 65.0193 87.8537 64.8533 87.8537 64.8533L86.8193 62.4922C86.8193 62.4922 85.8829 65.6306 85.3339 66.5028C84.7848 67.3751 84.4545 67.47 84.4545 67.47L84.2936 66.5213C84.0067 67.142 83.587 67.6924 83.0641 68.134C82.1747 68.9061 81.9345 68.8455 81.9345 68.8455C81.9345 68.8455 81.982 68.5371 81.5308 68.0391C81.2596 67.7403 80.9161 67.5162 80.5332 67.3883L80.5068 69.304L80.5517 69.2566C80.8368 69.5255 81.0703 69.8443 81.2405 70.1973C81.3631 70.5289 81.4619 70.8688 81.536 71.2145C82.058 70.9624 82.5365 70.6288 82.9533 70.2263C83.5274 69.6562 84.0459 69.0333 84.5022 68.3659L84.5209 69.4858C84.5209 69.4858 85.2836 69.2223 86.0328 68.0233C86.7827 66.8244 87.1071 64.7188 87.1071 64.7188L87.6221 66.8744C87.6221 66.8744 88.8275 66.4106 89.5034 65.6227C89.8397 65.1918 90.1385 64.7324 90.3956 64.2498C90.3641 64.2129 90.3292 64.1787 90.2951 64.1444Z" fill="#17398D"/>
<path fill-rule="evenodd" clip-rule="evenodd" d="M64.3291 80.3711C64.3291 80.3922 64.7672 82.1682 65.2502 82.8877C65.4731 83.2717 65.8045 83.5815 66.2029 83.7783L66.7834 81.8679C66.7834 81.8679 67.4142 83.7546 69.2933 85.889C71.1723 88.0235 76.0414 89.5202 76.0414 89.5202L74.6585 90.2053C74.6585 90.2053 75.2339 90.0657 77.1947 90.0183C78.3263 89.9786 79.4553 90.152 80.5225 90.5295V91.1198H80.029C77.7421 91.1175 75.4694 91.4795 73.2968 92.1922C72.3335 91.3358 71.7001 90.6455 71.7001 90.6455L73.2968 90.4347C73.2968 90.4347 71.7555 90.1131 70.1008 88.5901C68.4461 87.067 66.9339 83.6914 66.9339 83.6914L66.5354 86.3687C66.5354 86.3687 64.9941 84.8482 64.4822 82.0576C64.3828 81.501 64.3342 80.9365 64.337 80.3711H64.3291Z" fill="#17398D"/>
<path fill-rule="evenodd" clip-rule="evenodd" d="M96.5897 80.3686C96.5897 80.3896 96.1487 82.1656 95.6661 82.8851C95.443 83.2691 95.1119 83.5789 94.7135 83.7757L94.1329 81.8652C94.1329 81.8652 93.5021 83.752 91.6259 85.8864C89.7488 88.0208 84.8744 89.5176 84.8744 89.5176L86.2603 90.2028C86.2603 90.2028 85.6822 90.0631 83.7217 90.0156C82.5898 89.9759 81.4608 90.1493 80.3936 90.5269V91.1171C82.7772 91.1531 85.1383 91.5859 87.3788 92.3978C88.0258 91.8439 88.6421 91.2563 89.227 90.6376L87.63 90.4268C87.63 90.4268 89.1708 90.1052 90.8257 88.5822C92.4806 87.0591 93.9924 83.6835 93.9924 83.6835L94.3908 86.3608C94.3908 86.3608 95.9325 84.8403 96.4441 82.0497C96.5437 81.493 96.5931 80.9286 96.5923 80.3633L96.5897 80.3686Z" fill="#17398D"/>
</g>
<defs>
<clipPath id="clip0_1227_140">
<rect width="117" height="88" fill="white" transform="translate(22 48)"/>
</clipPath>
</defs>
</svg>
