<svg width="160" height="160" viewBox="0 0 160 160" fill="none" xmlns="http://www.w3.org/2000/svg">
<g clip-path="url(#clip0_1133_43)">
<path fill-rule="evenodd" clip-rule="evenodd" d="M126.78 75.7012H123.364C121.689 75.7012 120.854 75.0672 120.854 73.7987C120.854 72.4696 122.293 71.805 125.172 71.805C127.652 71.805 129.96 72.1692 132.112 72.8596V68.9033C129.97 68.3104 127.707 68 125.313 68C119.059 68 115.932 69.9931 115.932 73.9805C115.932 77.7866 118.074 79.6885 122.361 79.6885H126.176C127.717 79.6885 128.487 80.3236 128.487 81.5921C128.487 82.9217 127.342 83.5858 125.052 83.5858C122.319 83.5858 119.89 83.2306 117.731 82.5586V86.5133C119.875 87.0872 122.241 87.3913 124.85 87.3913C130.823 87.3913 133.811 85.3971 133.811 81.4108C133.811 77.6053 131.467 75.7012 126.78 75.7012ZM138.934 83.2422C138.336 83.1331 137.707 83.0762 137.041 83.0762H137.031H136.607H136.597C135.931 83.0762 135.301 83.1331 134.704 83.2422V87.043C135.301 87.1542 135.931 87.209 136.597 87.209H136.603V87.2121H137.049V87.209C137.712 87.209 138.34 87.1542 138.934 87.043V83.2422ZM115.32 83.2422C114.724 83.1331 114.093 83.0762 113.427 83.0762H113.417H112.993H112.983C112.317 83.0762 111.688 83.1331 111.091 83.2422V87.043C111.688 87.1542 112.317 87.209 112.983 87.209H112.992V87.2121H113.435V87.209C114.098 87.209 114.725 87.1542 115.32 87.043V83.2422ZM96.3226 82.2435C97.6486 82.897 99.0751 83.2232 100.601 83.2232C103.776 83.2232 105.363 81.2111 105.363 77.1874C105.363 73.7686 103.608 72.0596 100.1 72.0596C98.585 72.0596 97.3261 72.1433 96.3226 72.312V82.2435ZM90.9997 68.9592C93.7984 68.4406 96.7578 68.1808 99.8789 68.1808C107.043 68.1808 110.627 71.1958 110.627 77.2237C110.627 83.882 107.291 87.21 100.622 87.21C99.2019 87.21 97.7683 86.9086 96.3226 86.3051V91.8461H90.9997V68.9592ZM71.011 87.1304L71.0227 91.8461H76.3531V87.1304L84.4396 68.1186H78.8942L73.6923 81.8203L68.3677 68.1186H62.7235L71.011 87.1304ZM52.1181 78.751C49.5595 78.751 48.2796 79.5352 48.2796 81.1072C48.2796 82.7995 49.351 83.6443 51.4948 83.6443C53.2631 83.6443 54.9028 83.1484 56.4158 82.1571V79.1136C55.0775 78.8706 53.6445 78.751 52.1181 78.751ZM56.7587 85.3829C54.9232 86.5202 52.9009 87.0872 50.6916 87.0872C45.5352 87.0872 42.9573 85.1109 42.9573 81.1605C42.9573 77.3792 46.0107 75.4872 52.1181 75.4872C53.5499 75.4872 54.9823 75.6084 56.4158 75.8503V74.4184C56.4158 72.7152 55.0564 71.863 52.3389 71.863C50.0344 71.863 47.4776 72.165 44.6643 72.7705V68.9634C47.4776 68.3599 50.0344 68.0585 52.3389 68.0585C58.6064 68.0585 61.7398 70.1481 61.7398 74.3289V88.342L56.7587 85.3829ZM26.324 82.1212C27.6495 82.7747 29.0748 83.1009 30.6024 83.1009C33.7761 83.1009 35.3633 81.0888 35.3633 77.0651C35.3633 73.6453 33.6085 71.9368 30.0994 71.9368C28.587 71.9368 27.3282 72.0206 26.324 72.1892V82.1212ZM21 68.8364C23.7987 68.3178 26.7575 68.0585 29.8786 68.0585C37.0451 68.0585 40.6271 71.073 40.6271 77.1009C40.6271 83.7597 37.2933 87.0872 30.6217 87.0872C29.2033 87.0872 27.7704 86.7858 26.324 86.1808V91.7233H21V68.8364Z" fill="#273659"/>
</g>
<defs>
<clipPath id="clip0_1133_43">
<rect width="118" height="24" fill="white" transform="translate(21 68)"/>
</clipPath>
</defs>
</svg>
