<svg width="160" height="160" viewBox="0 0 160 160" fill="none" xmlns="http://www.w3.org/2000/svg">
<path d="M114.973 65.2645L122.934 53.7793C123.713 52.6577 124.515 51.5594 125.271 50.4144C125.531 49.9634 125.916 49.5973 126.38 49.3602C126.844 49.1232 127.366 49.0254 127.884 49.0786C129.052 49.137 130.221 49.0552 131.389 49.1058C132.557 49.1565 132.861 49.4953 132.974 50.6364C132.994 51.0256 132.994 51.4156 132.974 51.8048V74.9776C132.974 75.4332 132.974 75.8889 132.947 76.3407C132.877 77.1508 132.472 77.7038 131.611 77.7155C129.987 77.7388 128.367 77.7388 126.747 77.7155C125.894 77.7155 125.469 77.1585 125.43 76.3251C125.407 75.8071 125.43 75.2891 125.43 74.7673V61.401C123.927 63.4691 122.595 65.2956 121.279 67.1144C119.125 70.1171 116.944 73.1004 114.86 76.1537C114.081 77.3221 113.135 77.8206 111.776 77.7505C110.74 77.696 109.7 77.7272 108.66 77.7505C108.449 77.773 108.236 77.7523 108.034 77.6895C107.831 77.6267 107.643 77.5233 107.482 77.3854C107.321 77.2476 107.19 77.0783 107.096 76.888C107.003 76.6976 106.949 76.4902 106.939 76.2784C106.863 75.7013 106.828 75.1195 106.834 74.5375C106.834 67.1378 106.834 59.7381 106.834 52.3383C106.834 52.0813 106.834 51.8204 106.834 51.5594C106.927 49.4641 107.282 49.1253 109.412 49.1097C110.58 49.1097 111.749 49.0786 112.917 49.1097C114.085 49.1409 114.397 49.4992 114.545 50.6208C114.591 51.1387 114.604 51.6591 114.584 52.1787V65.1866L114.973 65.2645Z" fill="#1B1818"/>
<path d="M35.2583 55.5081V59.9479C36.0373 59.9674 36.8162 59.9752 37.5639 60.0141C39.6281 60.1232 41.7 60.1466 43.7524 60.4036C47.2147 60.7931 50.9535 63.4764 51.1288 68.6134C51.2651 72.5859 48.496 76.1416 44.3678 77.2594C43.4338 77.522 42.4712 77.6698 41.5014 77.6995C37.5445 77.754 33.5876 77.754 29.6307 77.7384C27.917 77.7384 27.6133 77.4191 27.6094 75.6626C27.6094 67.4892 27.6094 59.3105 27.6094 51.1267C27.6094 49.3586 27.8781 49.1015 29.6501 49.0976C35.4868 49.0794 41.3287 49.0794 47.1758 49.0976C48.9089 49.0976 49.1854 49.4209 49.2243 51.1579C49.2243 51.8706 49.2477 52.5872 49.2243 53.2999C49.1659 55.0213 48.7258 55.4847 47.0005 55.5003C43.8849 55.5276 40.7692 55.5003 37.6535 55.5003L35.2583 55.5081ZM35.1493 65.5756V72.0289C36.0217 72.0679 36.6526 72.1263 37.2835 72.1224C38.4444 72.1696 39.6072 72.1266 40.7614 71.9939C42.5295 71.6823 43.3863 70.3075 43.2072 68.3953C43.0553 66.7518 42.0116 65.6691 40.3252 65.6029C38.7206 65.5328 37.1083 65.5756 35.1493 65.5756Z" fill="#1B1818"/>
<path d="M35.2429 89.508V93.8699C36.197 93.905 37.1434 93.9556 38.0859 93.9634C40.4811 93.9829 42.8879 93.8271 45.1974 94.6839C48.1262 95.7705 50.1474 97.6477 50.8446 100.806C51.7403 104.872 49.7969 108.961 45.9647 110.543C44.5363 111.143 43.014 111.49 41.4664 111.567C37.5134 111.715 33.5565 111.645 29.6035 111.621C27.9249 111.621 27.6562 111.353 27.6562 109.721C27.6354 101.485 27.6354 93.2468 27.6562 85.0058C27.6562 83.3701 27.9678 83.0585 29.6035 83.0585C35.4999 83.0378 41.3989 83.0378 47.3005 83.0585C48.7415 83.0585 49.1232 83.448 49.205 84.9124C49.2517 85.7556 49.2517 86.6007 49.205 87.4439C49.1271 89.0017 48.7649 89.3911 47.2031 89.3911C43.8966 89.4184 40.5823 89.3911 37.2836 89.3911C36.6176 89.4067 35.9867 89.469 35.2429 89.508ZM35.2429 99.4976V106.048C37.0344 106.048 38.709 106.122 40.372 106.048C42.1791 105.951 43.2346 104.67 43.2384 102.777C43.2423 100.884 42.1908 99.6612 40.3487 99.5365C38.7441 99.4236 37.1201 99.4976 35.2506 99.4976H35.2429Z" fill="#BD2B3D"/>
<path d="M61.3522 55.144V60.2303C61.8474 60.3099 62.3467 60.3619 62.8477 60.3861C65.8972 60.3861 68.9505 60.3861 72 60.3861C73.8966 60.3861 74.1537 60.6587 74.1887 62.497C74.1887 63.529 74.1887 64.5611 74.1887 65.3751C73.4254 66.3799 72.5686 66.3565 71.7118 66.3565H61.3911C61.2334 68.1094 61.2334 69.873 61.3911 71.6259C65.94 71.77 70.4538 71.5675 75.0728 71.7466C75.5285 73.6939 75.361 75.4776 75.2364 77.4327C74.5242 77.5773 73.8035 77.6761 73.0788 77.7287C67.4965 77.7521 61.9143 77.7521 56.332 77.7287C54.3185 77.7287 54.0693 77.4872 54.0654 75.5049C54.0498 67.4561 54.0498 59.4073 54.0654 51.3585C54.0654 49.3333 54.2991 49.0996 56.2853 49.0957C61.8676 49.0957 67.4498 49.0957 73.032 49.0957C74.8469 49.0957 75.1663 49.4423 75.2403 51.2455C75.396 54.9921 75.2403 55.1401 71.443 55.1401L61.3522 55.144Z" fill="#1B1818"/>
<path d="M61.3639 89.0483V94.3411H63.9227C66.6489 94.3411 69.3751 94.3216 72.1013 94.3411C73.8461 94.3605 74.1031 94.6487 74.1499 96.3974C74.1655 96.9816 74.1655 97.5658 74.1499 98.15C74.107 99.8402 73.7799 100.218 72.0896 100.245C69.2972 100.288 66.5048 100.245 63.7163 100.245H61.5041C60.9979 101.998 61.3678 103.661 61.2471 105.468C61.9403 105.522 62.4973 105.6 63.0581 105.6C66.4308 105.6 69.8074 105.6 73.184 105.6C75.0963 105.6 75.291 105.822 75.3183 107.731C75.3183 108.899 75.3183 110.04 75.3183 111.353C74.6924 111.467 74.0604 111.545 73.4255 111.586C67.7134 111.602 62.0014 111.602 56.2893 111.586C54.307 111.586 54.0889 111.357 54.085 109.312C54.085 101.323 54.085 93.3337 54.085 85.3446C54.085 83.2025 54.2914 83.0078 56.4217 83.0078C61.8118 83.0078 67.1993 83.0078 72.5843 83.0078C74.7068 83.0078 75.1002 83.3973 75.1936 85.4536C75.3416 88.7368 75.0846 89.0133 71.8443 89.0133L61.3639 89.0483Z" fill="#BD2B3D"/>
<path d="M87.4108 101.842C87.4108 104.385 87.4108 106.586 87.4108 108.786C87.4108 109.304 87.4108 109.826 87.3797 110.344C87.329 111.092 86.9357 111.586 86.1646 111.602C84.4782 111.633 82.7919 111.625 81.1016 111.602C80.9371 111.614 80.7719 111.59 80.617 111.534C80.4621 111.477 80.321 111.388 80.2029 111.273C80.0848 111.158 79.9924 111.019 79.9319 110.866C79.8713 110.712 79.8439 110.548 79.8514 110.383C79.8125 109.927 79.8086 109.472 79.8086 109.02C79.8086 101.231 79.8086 93.4416 79.8086 85.6524C79.8086 85.2629 79.8086 84.8735 79.8086 84.484C79.8553 83.5376 80.385 83.0898 81.308 83.0586C81.5027 83.0586 81.6975 83.0586 81.8922 83.0586C85.5921 83.0586 89.2919 83.0586 92.9879 83.0898C95.0735 83.1187 97.1209 83.6533 98.9544 84.6476C104.407 87.5296 104.683 96.0237 100.613 99.1549C99.5379 99.9761 98.3373 100.619 97.0577 101.059C94.886 101.741 92.6073 102.017 90.3357 101.873C89.4594 101.815 88.5636 101.842 87.4108 101.842ZM87.4887 95.8874C89.2724 95.8874 90.8225 95.9769 92.357 95.864C94.4717 95.7121 95.4726 94.5282 95.4726 92.4446C95.4726 90.3609 94.5146 89.1848 92.357 89.0368C90.7719 88.9277 89.1712 89.0134 87.4693 89.0134L87.4887 95.8874Z" fill="#BD2B3D"/>
<path d="M87.4348 67.94C87.4348 70.7052 87.4348 73.1043 87.4348 75.4994C87.4348 77.4467 87.1466 77.7077 85.1525 77.7349C83.918 77.7349 82.6834 77.7739 81.4527 77.7349C80.222 77.696 79.8948 77.3455 79.7936 76.0836C79.7702 75.7604 79.7936 75.4371 79.7936 75.11V51.7424C79.7936 51.353 79.7936 50.9635 79.7936 50.5741C79.8325 49.6549 80.2726 49.1058 81.2385 49.1097C85.7134 49.1331 90.196 48.9344 94.6592 49.2694C96.0935 49.3465 97.4916 49.748 98.7483 50.4435C100.005 51.139 101.088 52.1104 101.915 53.2847C105.182 57.8764 103.083 64.9957 97.7905 66.8846C95.6342 67.5892 93.3797 67.9467 91.1113 67.9439C89.9585 67.9673 88.8096 67.94 87.4348 67.94ZM87.4971 61.7827C90.1649 62.1215 92.3926 62.0319 93.5882 61.5724C95.076 60.996 95.6251 59.9133 95.4265 57.9426C95.2746 56.3848 94.3866 55.2748 92.9456 55.1775C91.1658 55.0567 89.3743 55.1463 87.4932 55.1463L87.4971 61.7827Z" fill="#1B1818"/>
<path d="M118.151 95.0189C119.397 92.1602 120.487 89.6755 121.562 87.1868C121.975 86.2366 122.38 85.2824 122.785 84.3282C122.922 83.9281 123.187 83.5843 123.539 83.3504C123.891 83.1165 124.311 83.0057 124.732 83.0352C126.096 83.0625 127.459 83.008 128.818 83.0352C130.438 83.0819 130.82 83.6116 130.208 85.1071C129.066 87.9242 127.871 90.7322 126.625 93.5311C124.686 97.9138 122.711 102.284 120.702 106.64C120.288 107.521 119.753 108.339 119.113 109.071C117.726 110.675 115.833 111.357 113.789 111.571C112.56 111.67 111.327 111.686 110.097 111.618C108.866 111.579 108.496 111.228 108.387 109.982C108.33 109.139 108.323 108.294 108.363 107.45C108.418 105.503 108.846 104.989 110.778 104.985C112.336 104.985 113.582 104.596 114.439 103.011C111.152 96.8182 107.818 90.5479 104.516 84.3165C104.574 83.9418 104.772 83.603 105.069 83.3677C105.367 83.1324 105.742 83.0178 106.12 83.0469C107.678 83.0235 109.236 83.0469 110.794 83.0469C111.873 83.0469 112.371 83.7752 112.796 84.6281C114.217 87.4711 115.658 90.3064 117.08 93.1378C117.368 93.648 117.668 94.1426 118.151 95.0189Z" fill="#BD2B3D"/>
<path d="M132.981 107.668C132.981 108.381 133.024 109.094 132.981 109.802C132.899 110.92 132.416 111.493 131.314 111.555C129.895 111.641 128.473 111.641 127.054 111.555C125.986 111.489 125.461 110.885 125.418 109.767C125.359 108.346 125.359 106.92 125.418 105.503C125.468 104.389 125.994 103.813 127.089 103.75C128.508 103.667 129.93 103.667 131.349 103.75C132.432 103.817 132.907 104.405 132.981 105.538C133.02 106.243 132.981 106.959 132.981 107.668Z" fill="#BD2B3D"/>
</svg>
