<svg width="160" height="160" viewBox="0 0 160 160" fill="none" xmlns="http://www.w3.org/2000/svg">
<path d="M45.2093 87.5454C45.2093 89.2034 44.7861 90.6463 43.9423 91.882C43.0958 93.1176 41.9576 94.083 40.525 94.773C39.0897 95.4656 37.5151 95.8119 35.7933 95.8119H20.5337V63.7324H36.5162C38.0251 63.7324 39.3315 64.1338 40.433 64.9287C41.5344 65.7262 42.3808 66.752 42.967 68.0008C43.5559 69.2521 43.8503 70.5534 43.8503 71.9097C43.8503 73.4759 43.4481 74.945 42.6516 76.3145C41.8525 77.6865 40.7116 78.7018 39.2343 79.3629C41.0744 79.9059 42.5307 80.9081 43.6032 82.3667C44.673 83.8332 45.2093 85.5568 45.2093 87.5454ZM24.6082 67.2583V77.9672H34.8391C35.8038 77.9672 36.6581 77.7259 37.3968 77.2432C38.1355 76.7631 38.7243 76.1151 39.1633 75.2992C39.5997 74.4859 39.8205 73.5992 39.8205 72.6338C39.8205 71.6106 39.6181 70.6977 39.208 69.9001C38.8005 69.1026 38.2406 68.4625 37.5335 67.9798C36.8237 67.4971 36.0167 67.2583 35.1125 67.2583H24.6082ZM41.0901 86.824C41.0901 85.8297 40.8719 84.9115 40.433 84.0667C39.994 83.2246 39.4051 82.5451 38.6665 82.0336C37.9278 81.522 37.0735 81.2649 36.1087 81.2649H24.6082V92.2886H35.7907C36.7869 92.2886 37.6833 92.0341 38.4851 91.5225C39.2842 91.011 39.9177 90.3394 40.3856 89.5104C40.8562 88.684 41.0901 87.7894 41.0901 86.824Z" fill="#2B663D"/>
<path d="M62.5037 75.7092C60.5111 75.7407 58.7525 76.2444 57.2279 77.2229C55.7032 78.2015 54.6228 79.5499 53.9919 81.2657V95.8153H50.0068V72.3643H53.7186V77.6951C54.5335 76.0686 55.6139 74.7516 56.9545 73.7416C58.2978 72.7342 59.7094 72.1676 61.1867 72.0469C61.489 72.0469 61.744 72.0469 61.9569 72.0469C62.1672 72.0469 62.3486 72.0626 62.5011 72.0915V75.7092H62.5037Z" fill="#2B663D"/>
<path d="M76.4935 96.2662C74.7112 96.2662 73.0972 95.9435 71.6488 95.3007C70.2004 94.658 68.9465 93.7765 67.8897 92.6563C66.833 91.5361 66.0181 90.2427 65.445 88.7762C64.872 87.3124 64.5854 85.7724 64.5854 84.1564C64.5854 82.5141 64.872 80.9584 65.445 79.4919C66.0181 78.028 66.833 76.7346 67.8897 75.6118C68.9465 74.4916 70.2056 73.6101 71.6698 72.9674C73.134 72.3246 74.7401 72.002 76.4908 72.002C78.2705 72.002 79.8871 72.3246 81.3355 72.9674C82.7839 73.6101 84.0457 74.4942 85.1156 75.6118C86.1855 76.732 87.0109 78.028 87.584 79.4919C88.157 80.9584 88.4435 82.5141 88.4435 84.1564C88.4435 85.7724 88.157 87.3124 87.584 88.7762C87.0109 90.2401 86.196 91.5335 85.1393 92.6563C84.0825 93.7765 82.8234 94.6606 81.3592 95.3007C79.8976 95.9461 78.2757 96.2662 76.4935 96.2662ZM68.6626 84.2036C68.6626 85.8144 69.0174 87.273 69.7272 88.5874C70.4369 89.8991 71.3806 90.9353 72.5583 91.6935C73.736 92.4543 75.0477 92.8347 76.4961 92.8347C77.9445 92.8347 79.2641 92.4464 80.4575 91.6725C81.651 90.896 82.5999 89.8466 83.3097 88.5191C84.0194 87.1943 84.3743 85.7252 84.3743 84.1144C84.3743 82.5036 84.0194 81.045 83.3097 79.7306C82.5999 78.4189 81.6483 77.3748 80.4575 76.6008C79.2641 75.8243 77.9445 75.436 76.4961 75.436C75.0477 75.436 73.7333 75.8322 72.5583 76.6218C71.3806 77.4115 70.4369 78.4609 69.7272 79.7752C69.0148 81.0869 68.6626 82.5639 68.6626 84.2036Z" fill="#2B663D"/>
<path d="M92.292 95.8136C92.292 94.3497 92.4024 92.9803 92.6258 91.7C92.8493 90.4198 93.262 89.1973 93.8613 88.0246C94.4607 86.8519 95.3124 85.7291 96.4112 84.6509C97.51 83.5726 98.9347 82.5232 100.685 81.4975C101.716 80.8757 102.754 80.2907 103.803 79.7424C104.849 79.1941 105.83 78.6091 106.739 77.9873C107.649 77.3656 108.38 76.6782 108.929 75.9305C109.478 75.1802 109.752 74.3119 109.752 73.3228C109.752 72.4755 109.52 71.6517 109.058 70.8568C108.593 70.0619 107.906 69.4165 106.997 68.9181C106.087 68.4196 104.962 68.1704 103.624 68.1704C102.594 68.1704 101.658 68.3147 100.817 68.6033C99.9757 68.8945 99.2212 69.2644 98.5509 69.7156C97.8806 70.1668 97.297 70.6391 96.8002 71.1244C96.3008 71.6124 95.8802 72.0557 95.5384 72.4519L92.7047 69.0912C92.9781 68.7659 93.4434 68.3226 94.0953 67.7638C94.7472 67.205 95.57 66.6357 96.5689 66.0559C97.5652 65.4787 98.7218 64.9803 100.047 64.5658C101.369 64.1513 102.82 63.9414 104.4 63.9414C106.529 63.9414 108.359 64.3349 109.886 65.122C111.413 65.909 112.591 66.9689 113.416 68.3016C114.239 69.6369 114.652 71.127 114.652 72.7719C114.652 74.2017 114.368 75.4504 113.8 76.5129C113.235 77.5781 112.512 78.512 111.637 79.3174C110.761 80.1254 109.852 80.8128 108.905 81.3794C107.959 81.9487 107.11 82.434 106.356 82.8381C104.81 83.6461 103.488 84.3806 102.389 85.0391C101.29 85.7002 100.388 86.3508 99.6839 86.9936C98.9794 87.6363 98.4142 88.3053 97.9831 89.0005C97.552 89.6984 97.2366 90.5221 97.0315 91.4771H115.217V95.8136H92.292Z" fill="#2B663D"/>
<path d="M119.541 95.8136C119.541 94.3497 119.651 92.9803 119.875 91.7C120.098 90.4198 120.511 89.1973 121.11 88.0246C121.71 86.8519 122.561 85.7291 123.66 84.6509C124.759 83.5726 126.184 82.5232 127.934 81.4975C128.965 80.8757 130.003 80.2907 131.052 79.7424C132.098 79.1941 133.079 78.6091 133.988 77.9873C134.898 77.3656 135.629 76.6782 136.178 75.9305C136.727 75.1802 137.001 74.3119 137.001 73.3228C137.001 72.4755 136.77 71.6517 136.307 70.8568C135.842 70.0619 135.156 69.4165 134.246 68.9181C133.336 68.4196 132.211 68.1704 130.873 68.1704C129.843 68.1704 128.907 68.3147 128.066 68.6033C127.225 68.8945 126.47 69.2644 125.8 69.7156C125.13 70.1668 124.546 70.6391 124.049 71.1244C123.55 71.6124 123.129 72.0557 122.787 72.4519L119.954 69.0912C120.227 68.7659 120.692 68.3226 121.344 67.7638C121.996 67.205 122.819 66.6357 123.818 66.0559C124.814 65.4787 125.971 64.9803 127.296 64.5658C128.618 64.1513 130.069 63.9414 131.649 63.9414C133.778 63.9414 135.608 64.3349 137.135 65.122C138.662 65.909 139.84 66.9689 140.665 68.3016C141.488 69.6369 141.901 71.127 141.901 72.7719C141.901 74.2017 141.617 75.4504 141.049 76.5129C140.484 77.5781 139.761 78.512 138.886 79.3174C138.01 80.1254 137.101 80.8128 136.154 81.3794C135.208 81.9487 134.359 82.434 133.605 82.8381C132.059 83.6461 130.737 84.3806 129.638 85.0391C128.539 85.7002 127.637 86.3508 126.933 86.9936C126.228 87.6363 125.663 88.3053 125.232 89.0005C124.801 89.6984 124.486 90.5221 124.281 91.4771H142.466V95.8136H119.541Z" fill="#2B663D"/>
</svg>
