<svg width="160" height="160" viewBox="0 0 160 160" fill="none" xmlns="http://www.w3.org/2000/svg">
<path d="M80.0001 139C112.585 139 139 112.585 139 80C139 47.4152 112.585 21 80.0001 21C47.4152 21 21 47.4152 21 80C21 112.585 47.4152 139 80.0001 139Z" fill="#7141D9"/>
<path d="M112.125 53.3566C112.125 50.3982 109.727 48 106.769 48C103.81 48 101.412 50.3982 101.412 53.3566V106.066C101.412 109.024 103.81 111.422 106.769 111.422C109.727 111.422 112.125 109.024 112.125 106.066V53.3566Z" fill="#F2B705"/>
<path d="M53.7883 65.1403C50.8299 65.1403 48.4316 67.5385 48.4316 70.4969C48.4316 73.4553 50.8299 75.8535 53.7883 75.8535H73.5007C76.459 75.8535 78.8573 73.4553 78.8573 70.4969C78.8573 67.5385 76.459 65.1403 73.5007 65.1403H53.7883Z" fill="white"/>
<path d="M94.9382 70.3998C94.9382 67.4542 92.5504 65.0664 89.6048 65.0664C86.6593 65.0664 84.2715 67.4542 84.2715 70.3998V106.667C84.2715 109.612 86.6593 112 89.6048 112C92.5504 112 94.9382 109.612 94.9382 106.667V70.3998Z" fill="#F2B705"/>
<path d="M89.6002 58.6667C92.5458 58.6667 94.9336 56.2789 94.9336 53.3334C94.9336 50.3878 92.5458 48 89.6002 48H53.3333C50.3878 48 48 50.3878 48 53.3334C48 56.2789 50.3878 58.6667 53.3333 58.6667H89.6002Z" fill="white"/>
<path d="M59.1449 86.7824C59.1449 83.824 56.7466 81.4258 53.7882 81.4258C50.8299 81.4258 48.4316 83.824 48.4316 86.7824V106.495C48.4316 109.453 50.8299 111.851 53.7882 111.851C56.7466 111.851 59.1449 109.453 59.1449 106.495V86.7824Z" fill="white"/>
<path d="M77.9163 86.7824C77.9163 83.824 75.5181 81.4258 72.5597 81.4258C69.6014 81.4258 67.2031 83.824 67.2031 86.7824V106.495C67.2031 109.453 69.6014 111.851 72.5597 111.851C75.5181 111.851 77.9163 109.453 77.9163 106.495V86.7824Z" fill="#F2B705"/>
</svg>
