<svg width="160" height="160" viewBox="0 0 160 160" fill="none" xmlns="http://www.w3.org/2000/svg">
<circle cx="80" cy="80" r="56" fill="#FFBC11"/>
<path d="M87.8161 84.6318C87.8161 69.3299 100.287 56.9076 115.591 56.8848C130.753 56.8645 143.32 69.3172 143.285 84.6699C143.252 99.5583 131.54 112.361 115.556 112.359C99.3325 112.356 87.7171 99.094 87.8161 84.6318ZM115.601 101.913C117.867 101.909 120.109 101.459 122.201 100.588C124.292 99.7167 126.191 98.4418 127.789 96.836C129.387 95.2303 130.653 93.3252 131.515 91.2298C132.376 89.1344 132.816 86.8897 132.809 84.6242C132.788 74.3916 124.329 67.2646 115.411 67.3838C110.836 67.4354 106.468 69.2989 103.265 72.5659C100.061 75.8329 98.2841 80.2368 98.3227 84.812C98.4394 94.253 106.188 101.979 115.601 101.913Z" fill="black"/>
<path d="M16.0053 84.6301C15.6983 69.4448 28.6483 56.8374 43.694 56.8653C58.004 56.8932 71.4284 68.3741 71.3904 84.6758C71.3548 100.239 59.1356 112.359 43.6458 112.362C27.6131 112.364 15.7288 99.2724 16.0053 84.6301ZM43.59 101.909C53.5258 101.992 60.5057 93.8123 60.9421 85.6247C61.1446 82.1702 60.3062 78.7345 58.5355 75.7615C56.7647 72.7886 54.1429 70.4151 51.0089 68.9479C47.875 67.4808 44.373 66.9874 40.9557 67.5315C37.5384 68.0756 34.3628 69.6323 31.8396 72.0002C29.3163 74.3682 27.5613 77.4386 26.8014 80.8145C26.0415 84.1904 26.3118 87.7166 27.5771 90.9373C28.8425 94.158 31.0448 96.9252 33.8994 98.881C36.754 100.837 40.1297 101.891 43.59 101.909Z" fill="black"/>
<path d="M103.613 55.822C95.3721 59.3437 89.4553 65.0626 86.3167 73.4253C83.1782 81.7879 84.0561 89.9832 88.1943 97.8435C87.0906 98.2748 72.4889 98.3332 71.0579 97.9145C75.1707 89.9882 76.041 81.7651 72.8999 73.3441C69.7766 64.9712 63.7811 59.3234 55.2637 55.8372C55.6961 55.6527 56.1392 55.4942 56.5906 55.3628C58.6931 54.9196 60.7999 54.4883 62.9109 54.0688C63.2557 53.9761 63.619 53.9771 63.9633 54.0716C64.3076 54.1662 64.6205 54.3509 64.8696 54.6067C66.1382 55.8372 67.7874 56.4462 69.4366 57.0069C72.532 58.0675 75.7264 58.7601 78.9918 58.7982C83.702 58.885 88.3667 57.8629 92.609 55.8144C93.3195 55.4719 93.9132 54.8959 94.583 54.4595C94.8824 54.2667 95.2528 53.9952 95.5598 54.0282C98.3063 54.3019 101.01 54.9042 103.613 55.822Z" fill="black"/>
<path d="M126.443 91.754C127.56 86.8369 126.725 82.3181 123.706 78.3067C120.661 74.2472 116.398 72.4939 111.291 72.329C113.539 70.1572 121.128 69.7588 125.753 74.4375C131.16 79.8874 130.272 88.042 126.443 91.754Z" fill="black"/>
<path d="M47.8882 72.1365C42.9406 72.5197 38.6375 74.1663 35.575 78.2132C32.5126 82.2601 31.7388 86.7509 32.9363 91.7239C31.1603 90.8815 29.4882 86.9032 29.5872 83.6682C29.7572 78.1802 32.3578 74.1536 37.3409 71.8575C40.8169 70.2565 44.3843 70.2945 47.8882 72.1365Z" fill="black"/>
</svg>
