<svg width="160" height="160" viewBox="0 0 160 160" fill="none" xmlns="http://www.w3.org/2000/svg">
<path d="M85.3365 74.5163C82.2275 72.1721 77.7583 71 72.3175 71H55.0237V92.6837H49.5829V98.3488H55.0237V102.451H49V106.749H55.0237V113H62.7962V106.749H76.0095V102.451H62.7962V98.9349H72.3175C77.7583 98.9349 82.2275 97.7628 85.3365 95.4186C88.4455 93.0744 90 89.5581 90 84.8698C90 80.1814 88.4455 76.8605 85.3365 74.5163ZM79.8957 90.5349C78.1469 91.9023 75.6209 92.4884 72.5118 92.4884H63.1848V77.2512H72.5118C75.6209 77.2512 78.1469 77.8372 79.8957 79.2046C81.6446 80.5721 82.4218 82.3302 82.4218 84.8698C82.4218 87.4093 81.6446 89.1674 79.8957 90.5349Z" fill="url(#paint0_linear_1714_31)"/>
<path fill-rule="evenodd" clip-rule="evenodd" d="M83.8431 28.0253C85.5216 28.1798 87.1122 29.0279 88.6198 30.3373C89.9765 31.5157 91.0257 32.6116 91.8774 33.5136C91.9251 33.5641 91.9719 33.6136 92.0177 33.6621C92.8341 34.5271 93.3624 35.0867 93.8764 35.5073C94.3537 35.8978 94.6699 36.0378 94.9708 36.0996C95.3032 36.168 95.8867 36.1942 96.9645 35.9297L97.0009 35.9207L97.0376 35.9127C98.1339 35.6735 98.9293 35.3897 99.5803 35.1221C99.7271 35.0618 99.9224 34.9764 100.141 34.881C100.624 34.6696 101.221 34.4087 101.656 34.2602C102.542 33.9578 103.555 33.7754 104.772 33.9802C105.88 34.1667 106.96 34.6431 108.085 35.274C109.599 36.1235 110.345 37.5143 110.763 38.5939C111.132 39.5471 111.382 40.6407 111.586 41.532C111.611 41.6377 111.634 41.7405 111.657 41.8398C112.175 44.0762 112.608 45.2396 113.406 45.8489L113.434 45.8701L113.461 45.892C114.656 46.8521 115.613 46.9391 117.179 47.0816C117.348 47.097 117.525 47.1131 117.709 47.1309C118.609 47.218 119.923 47.3775 121.191 48.0929C122.543 48.8555 123.526 50.0534 124.237 51.6388L124.248 51.6641L124.259 51.6896C124.832 53.0407 125.226 54.5679 124.856 56.1232C124.462 57.7782 123.355 58.8664 122.241 59.6069C121.18 60.3119 119.846 60.8779 118.507 61.4052C117.903 61.6428 117.311 61.8677 116.694 62.1023C115.791 62.4452 114.834 62.8089 113.705 63.2638C109.656 64.928 107.268 66.1056 105.925 66.8405C105.583 67.0275 105.312 67.1844 105.101 67.3118C110.391 74.0826 113.55 82.5457 113.55 91.7353C113.55 113.793 95.2166 132 72.54 132C63.2694 132 54.7909 128.964 48.1581 123.876L51.6733 119.458C57.3113 123.783 64.5548 126.394 72.54 126.394C92.0445 126.394 107.84 110.716 107.84 91.7353C107.84 72.5851 91.8714 57.0767 72.54 57.0767C64.7463 57.0767 57.2951 59.6887 51.4479 64.0379L48 59.5694C54.8071 54.5062 63.4614 51.4707 72.54 51.4707C74.1015 51.4707 75.644 51.5576 77.1627 51.7269V33.3431L77.2831 32.9491L80.0176 33.7545C77.2831 32.9491 77.2835 32.9477 77.2839 32.9464L77.2848 32.9435L77.2867 32.9374L77.291 32.9235L77.302 32.8892C77.3103 32.8635 77.3207 32.8322 77.3332 32.7958C77.3582 32.723 77.3921 32.629 77.4353 32.5181C77.5211 32.298 77.6478 32.0017 77.8214 31.6671C78.1516 31.031 78.7329 30.0971 79.6661 29.3267C80.6573 28.5082 82.0751 27.8625 83.8431 28.0253ZM82.8725 34.2845V52.7735C89.9044 54.5818 96.2268 58.189 101.279 63.0685C101.327 63.0351 101.379 63 101.434 62.9629C101.807 62.7143 102.354 62.3769 103.145 61.9437C104.725 61.0791 107.319 59.8108 111.51 58.0885L111.528 58.0808C112.661 57.6247 113.789 57.1951 114.769 56.8218C115.374 56.5913 115.923 56.3823 116.382 56.2017C117.733 55.6701 118.543 55.2949 119.04 54.9645C119.158 54.8864 119.235 54.826 119.283 54.7837C119.266 54.6504 119.207 54.3668 118.999 53.8719C118.664 53.1323 118.407 52.9877 118.348 52.9548C118.209 52.876 117.951 52.7875 117.149 52.7099C117.002 52.6957 116.842 52.6827 116.669 52.6688C115.079 52.5405 112.475 52.3305 109.872 50.2519C107.286 48.2578 106.553 45.0876 106.111 43.1777C106.104 43.1455 106.097 43.1137 106.089 43.0823C106.069 42.994 106.049 42.908 106.03 42.8242C105.801 41.8322 105.642 41.144 105.426 40.5866C105.311 40.2908 105.225 40.1554 105.188 40.1061C104.344 39.6376 103.954 39.5304 103.807 39.5057C103.803 39.505 103.799 39.5041 103.795 39.5033C103.76 39.4961 103.726 39.4889 103.532 39.5551C103.283 39.64 103.11 39.7179 102.844 39.8373C102.606 39.9443 102.293 40.0847 101.785 40.2934C100.897 40.6582 99.7864 41.0533 98.3124 41.3774C96.7198 41.7645 95.2302 41.8807 93.8002 41.5866C92.3275 41.2838 91.1818 40.6001 90.2211 39.814C89.4082 39.1489 88.6282 38.3206 87.9072 37.5551C87.8343 37.4777 87.7621 37.401 87.6904 37.3251C86.8645 36.4504 85.9724 35.5227 84.8366 34.5362C83.9705 33.784 83.4837 33.6394 83.3468 33.6125C83.3449 33.6141 83.3429 33.6157 83.3409 33.6173C83.2196 33.7175 83.058 33.9249 82.9088 34.2124C82.896 34.2371 82.8839 34.2612 82.8725 34.2845ZM119.357 54.7087C119.357 54.7087 119.354 54.7137 119.345 54.7236C119.352 54.7137 119.356 54.7087 119.357 54.7087Z" fill="url(#paint1_linear_1714_31)"/>
<defs>
<linearGradient id="paint0_linear_1714_31" x1="49.3556" y1="91.9375" x2="90.1963" y2="91.9375" gradientUnits="userSpaceOnUse">
<stop stop-color="#F4991D"/>
<stop offset="1" stop-color="#FDC904"/>
</linearGradient>
<linearGradient id="paint1_linear_1714_31" x1="48.0789" y1="79.9999" x2="125.121" y2="79.9999" gradientUnits="userSpaceOnUse">
<stop stop-color="#987BF3"/>
<stop offset="1" stop-color="#5959E2"/>
</linearGradient>
</defs>
</svg>
