<svg width="160" height="160" viewBox="0 0 160 160" fill="none" xmlns="http://www.w3.org/2000/svg">
<path fill-rule="evenodd" clip-rule="evenodd" d="M82.9865 65.9566C82.9865 69.7951 81.8894 73.3767 80.0002 76.3826C78.1158 73.3767 77.0187 69.7951 77.0187 65.9566V65.0861C77.0187 61.2525 78.1158 57.6757 80.0002 54.6649C81.8939 57.6757 82.9865 61.2525 82.9865 65.0861V65.9566ZM82.9865 98.8187C82.9865 102.652 81.8894 106.229 80.0002 109.245C78.1158 106.229 77.0187 102.652 77.0187 98.8187V97.9483C77.0187 94.1193 78.1158 90.5328 80.0002 87.5175C81.8939 90.5328 82.9865 94.1193 82.9865 97.9483V98.8187ZM120.769 45.7609V39.4824H95.7526C89.7893 39.511 84.3079 41.6942 80.0002 45.2947C75.6925 41.6942 70.2013 39.511 64.243 39.4824H39.231V45.7609H64.2193C68.551 45.7609 72.5439 47.2877 75.7304 49.8466C72.5631 54.1607 70.6832 59.5117 70.6832 65.2812V66.4513C70.6832 68.8962 71.022 71.2791 71.6613 73.543C69.2807 72.7676 66.7476 72.3493 64.1333 72.3493H39.231V78.618H64.2193C68.1119 78.618 71.7326 79.85 74.7336 81.9476C71.7326 84.0595 68.1074 85.2866 64.2193 85.2866H39.231V92.2308H64.1333C66.7476 92.2308 69.2807 91.817 71.6519 91.0514C71.022 93.3059 70.6832 95.6938 70.6832 98.1383V99.3039C70.6832 104.888 72.4387 110.063 75.4157 114.301C72.2862 116.712 68.4128 118.144 64.2193 118.144H39.231V125.098H64.1333C70.1393 125.098 75.6636 122.919 80.0002 119.295C84.3368 122.919 89.8655 125.098 95.8716 125.098H120.769V118.144H95.7811C91.5925 118.144 87.7092 116.712 84.5847 114.301C87.5617 110.063 89.3172 104.888 89.3172 99.3039V98.1383C89.3172 95.6938 88.9784 93.3059 88.3342 91.0514C90.7196 91.817 93.2526 92.2308 95.8716 92.2308H120.769V85.2866H95.7811C91.8885 85.2866 88.2772 84.0595 85.2716 81.9476C88.2772 79.85 91.8885 78.618 95.7811 78.618H120.769V72.3493H95.8716C93.2526 72.3493 90.7196 72.7676 88.3342 73.543C88.9784 71.2791 89.3172 68.8962 89.3172 66.4513V65.2812C89.3172 59.5117 87.4373 54.1607 84.2744 49.8466C87.4565 47.2877 91.4494 45.7609 95.7811 45.7609H120.769Z" fill="black"/>
</svg>
