<svg width="160" height="160" viewBox="0 0 160 160" fill="none" xmlns="http://www.w3.org/2000/svg">
<g clip-path="url(#clip0_2416_4)">
<path fill-rule="evenodd" clip-rule="evenodd" d="M62.0179 110.298V116.073C62.0179 118.878 61.2885 121.168 59.8264 122.956C58.3675 124.738 56.2417 125.633 53.4521 125.633C50.6625 125.633 48.5399 124.742 47.0778 122.956C45.6189 121.168 44.8862 118.874 44.8862 116.076V102.523C44.8862 99.6518 45.6025 97.3418 47.0285 95.5928C48.4578 93.8405 50.5968 92.9627 53.4521 92.9627H53.9515C57.2701 85.6796 59.2645 70.658 59.9282 47.8979C60.1254 41.3144 62.9511 37.955 68.3922 37.8131H97.4774C100.333 37.8131 102.537 38.7041 104.101 40.4927C105.662 42.278 106.441 44.5715 106.441 47.3732V92.9627H107.039C109.628 92.9627 111.606 93.857 112.966 95.6423C114.327 97.4276 115.007 99.7211 115.007 102.523V116.076C115.007 118.874 114.277 121.168 112.815 122.956C111.356 124.738 109.23 125.633 106.441 125.633C103.651 125.633 101.529 124.742 100.067 122.956C98.6044 121.168 97.8749 118.874 97.8749 116.076V110.298H62.0179ZM71.2837 92.9627H88.7111V55.1447H75.8639C75.7325 68.3117 74.2047 80.9177 71.2804 92.9627H71.2837ZM120.385 74.0537C120.385 63.1307 123.323 54.1844 129.201 47.2148C135.076 40.2485 143.362 36.7637 154.051 36.7637C164.743 36.7637 173.026 40.2485 178.901 47.2148C184.779 54.1844 187.716 63.1307 187.716 74.057C187.716 84.98 184.779 93.9263 178.901 100.896C173.026 107.862 164.739 111.347 154.051 111.347C143.359 111.347 135.076 107.862 129.201 100.896C123.323 93.9263 120.385 84.98 120.385 74.057V74.0537ZM139.311 74.0537C139.311 80.1488 140.537 85.0856 142.994 88.8674C145.452 92.6492 149.139 94.5401 154.051 94.5401C158.963 94.5401 162.65 92.6492 165.107 88.8674C167.565 85.0856 168.791 80.1488 168.791 74.057C168.791 67.9619 167.565 63.0251 165.107 59.2433C162.65 55.4615 158.963 53.5706 154.051 53.5706C149.139 53.5706 145.452 55.4615 142.994 59.2466C140.537 63.0251 139.311 67.9619 139.311 74.057V74.0537ZM197.876 100.737V47.3765C197.876 44.5715 198.654 42.278 200.215 40.4927C201.776 38.7074 203.984 37.8131 206.839 37.8131H245.486C248.341 37.8131 250.533 38.7041 252.057 40.4927C253.585 42.278 254.351 44.5715 254.351 47.3732V100.737C254.351 103.608 253.585 105.918 252.06 107.671C250.533 109.42 248.341 110.298 245.486 110.298C242.561 110.298 240.324 109.407 238.763 107.618C237.202 105.833 236.42 103.539 236.42 100.737V54.62H215.803V100.737C215.803 103.539 215.024 105.833 213.463 107.618C211.902 109.403 209.694 110.298 206.839 110.298C203.984 110.298 201.779 109.407 200.215 107.618C198.654 105.833 197.876 103.539 197.876 100.737ZM263.712 74.057C263.712 63.1307 266.652 54.1844 272.527 47.2148C278.402 40.2485 286.689 36.7637 297.377 36.7637C308.069 36.7637 316.352 40.2485 322.23 47.2148C328.105 54.1844 331.042 63.1307 331.042 74.057C331.042 84.98 328.105 93.9263 322.227 100.896C316.352 107.862 308.065 111.347 297.377 111.347C286.689 111.347 278.405 107.862 272.527 100.896C266.652 93.9263 263.712 84.98 263.712 74.057ZM282.637 74.057C282.637 80.1488 283.866 85.0856 286.32 88.8674C288.778 92.6492 292.465 94.5401 297.377 94.5401C302.292 94.5401 305.976 92.6492 308.433 88.8674C310.891 85.0856 312.12 80.1488 312.12 74.057C312.12 67.9619 310.891 63.0251 308.433 59.2433C305.976 55.4615 302.289 53.5706 297.377 53.5706C292.465 53.5706 288.778 55.4615 286.324 59.2466C283.866 63.0251 282.637 67.9619 282.637 74.057ZM356.842 37.8131H385.227C388.082 37.8131 390.274 38.7041 391.802 40.4927C393.326 42.278 394.092 44.5715 394.092 47.3732V100.737C394.092 103.608 393.326 105.918 391.802 107.671C390.274 109.42 388.082 110.298 385.227 110.298C382.306 110.298 380.065 109.407 378.505 107.618C376.944 105.833 376.162 103.539 376.162 100.737V55.148H364.212C363.679 75.3869 361.754 89.8145 358.435 98.4275C355.245 106.691 349.968 110.822 342.598 110.822C339.079 110.822 336.323 109.875 334.331 107.984C332.337 106.097 331.539 103.331 331.939 99.6881C332.472 94.5071 335.028 92.0882 339.608 92.438C342.467 92.438 344.389 89.8112 345.385 84.5609C346.781 77.2052 347.711 64.9853 348.177 47.8979C348.309 44.6771 349.104 42.1889 350.566 40.4399C352.025 38.6909 354.115 37.8131 356.842 37.8131ZM424.071 89.2865L402.957 54.3065C401.163 51.2936 400.417 48.3533 400.716 45.4823C401.015 42.6113 402.424 40.4762 404.948 39.0737C410.261 36.0641 414.644 38.0243 418.094 44.9576L432.239 71.9516L442.497 45.4856C445.021 38.8295 448.904 36.5195 454.151 38.549C456.675 39.5291 458.17 41.3342 458.633 43.961C459.096 46.5845 458.765 49.1255 457.638 51.5741L442.001 89.1842C439.011 96.6059 435.873 102.153 432.587 105.833C429.302 109.509 425.3 111.347 420.585 111.347C416.271 111.347 412.682 110.578 409.827 109.037C407.57 107.776 405.993 106.133 405.096 104.1C404.202 102.067 404.084 99.896 404.747 97.586C405.411 95.4146 406.525 93.9626 408.086 93.2267C409.647 92.4908 411.322 92.3687 413.116 92.8604C416.569 93.7712 418.626 94.2233 419.29 94.2233C421.281 94.2233 422.875 92.5799 424.071 89.2865ZM496.78 68.0675V47.3765C496.78 44.5715 497.579 42.278 499.172 40.4927C500.766 38.7074 502.99 37.8131 505.846 37.8131C508.701 37.8131 510.893 38.7041 512.417 40.4927C513.945 42.278 514.711 44.5715 514.711 47.3732V100.737C514.711 103.608 513.945 105.918 512.417 107.671C510.893 109.42 508.701 110.298 505.846 110.298C502.921 110.298 500.681 109.407 499.123 107.618C497.562 105.833 496.78 103.539 496.78 100.737V84.0362C493.13 86.2769 488.579 87.3956 483.135 87.3956C476.031 87.3956 470.537 85.5245 466.65 81.7757C462.767 78.0302 460.825 71.3939 460.825 61.8701V47.3732C460.825 44.7134 461.636 42.4562 463.266 40.5983C464.892 38.7404 467.101 37.8131 469.887 37.8131C472.676 37.8131 474.852 38.7404 476.412 40.5983C477.973 42.4529 478.752 44.7134 478.752 47.3732V61.451C478.752 67.8926 481.209 71.1134 486.125 71.1134C490.173 71.1134 493.728 70.097 496.78 68.0675ZM527.459 100.737V47.3765C527.459 44.5715 528.238 42.278 529.798 40.4927C531.359 38.7074 533.567 37.8131 536.423 37.8131C539.278 37.8131 541.486 38.7041 543.047 40.4927C544.607 42.278 545.386 44.5715 545.386 47.3732V69.8528L564.111 43.1723C566.037 40.3673 568.195 38.6909 570.587 38.1299C572.976 37.5689 575.299 38.1992 577.556 40.0208C579.485 41.7698 580.412 43.9247 580.346 46.4789C580.28 49.0364 579.318 51.5411 577.458 53.993L562.915 72.7964L579.85 93.4874C581.841 95.87 582.853 98.3714 582.886 101.001C582.919 103.628 581.907 105.918 579.85 107.882C577.458 109.911 575.102 110.684 572.776 110.192C570.453 109.7 568.294 108.162 566.303 105.572L545.386 78.1523V100.737C545.386 103.539 544.607 105.833 543.047 107.618C541.486 109.403 539.278 110.298 536.423 110.298C533.567 110.298 531.359 109.407 529.798 107.618C528.238 105.833 527.459 103.539 527.459 100.737ZM606.74 47.3765V78.5714L612.717 69.7472L624.67 51.8909L630.746 42.9611C633.003 39.5291 635.76 37.8131 639.012 37.8131C641.999 37.8131 644.191 38.6909 645.587 40.4399C646.98 42.1889 647.677 44.5022 647.677 47.3732V100.737C647.677 103.539 646.931 105.833 645.436 107.618C643.944 109.403 641.736 110.298 638.812 110.298C635.825 110.298 633.568 109.387 632.04 107.565C630.512 105.744 629.75 103.47 629.75 100.737V69.9617L605.646 104.942C602.991 108.516 600.267 110.301 597.478 110.301C594.688 110.301 592.549 109.476 591.054 107.832C589.559 106.186 588.813 103.823 588.813 100.741V47.3765C588.813 44.6408 589.559 42.3671 591.054 40.5455C592.549 38.7239 594.79 37.8131 597.777 37.8131C600.698 37.8131 602.922 38.7239 604.45 40.5455C605.978 42.3671 606.74 44.6408 606.74 47.3765ZM701.264 64.8104V47.3732C701.264 44.5715 702.062 42.278 703.656 40.4927C705.249 38.7074 707.474 37.8131 710.329 37.8131C713.184 37.8131 715.372 38.7041 716.9 40.4927C718.428 42.278 719.19 44.5715 719.19 47.3732V100.737C719.19 103.608 718.428 105.918 716.9 107.671C715.372 109.42 713.184 110.298 710.329 110.298C707.404 110.298 705.164 109.407 703.603 107.618C702.042 105.833 701.264 103.539 701.264 100.737V81.6173H678.356V100.737C678.356 103.539 677.573 105.833 676.013 107.618C674.455 109.403 672.247 110.298 669.392 110.298C666.537 110.298 664.329 109.407 662.768 107.618C661.207 105.833 660.425 103.539 660.425 100.737V47.3765C660.425 44.5715 661.207 42.278 662.768 40.4927C664.329 38.7074 666.537 37.8131 669.392 37.8131C672.247 37.8131 674.455 38.7041 676.013 40.4927C677.573 42.278 678.356 44.5715 678.356 47.3732V64.8104H701.264ZM728.555 74.057C728.555 63.1307 731.492 54.1844 737.37 47.2148C743.245 40.2485 751.528 36.7637 762.22 36.7637C772.912 36.7637 781.195 40.2485 787.07 47.2148C792.948 54.1844 795.885 63.1307 795.885 74.057C795.885 84.98 792.948 93.9263 787.07 100.896C781.195 107.862 772.912 111.347 762.22 111.347C751.528 111.347 743.245 107.862 737.37 100.896C731.492 93.9263 728.555 84.98 728.555 74.057ZM747.48 74.057C747.48 80.1488 748.706 85.0856 751.164 88.8674C753.621 92.6492 757.305 94.5401 762.22 94.5401C767.132 94.5401 770.819 92.6492 773.276 88.8674C775.731 85.0856 776.96 80.1488 776.96 74.057C776.96 67.9619 775.731 63.0251 773.276 59.2433C770.819 55.4615 767.132 53.5706 762.22 53.5706C757.305 53.5706 753.621 55.4615 751.164 59.2466C748.706 63.0251 747.48 67.9619 747.48 74.057Z" fill="#BC4F21"/>
<path fill-rule="evenodd" clip-rule="evenodd" d="M62.0179 106.212V111.987C62.0179 114.792 61.2885 117.082 59.8264 118.867C58.3675 120.656 56.2417 121.547 53.4521 121.547C50.6625 121.547 48.5399 120.656 47.0778 118.867C45.6189 117.085 44.8862 114.788 44.8862 111.987V98.4401C44.8862 95.5691 45.6025 93.2591 47.0285 91.5068C48.4578 89.7578 50.5968 88.88 53.4521 88.88H53.9515C57.2701 81.5969 59.2645 66.5753 59.9282 43.8152C60.1254 37.2317 62.9511 33.8723 68.3922 33.7304H97.4774C100.333 33.7304 102.537 34.6214 104.101 36.41C105.662 38.192 106.441 40.4888 106.441 43.2905V88.88H107.039C109.628 88.88 111.606 89.771 112.966 91.5596C114.327 93.3449 115.007 95.6384 115.007 98.4401V111.99C115.007 114.795 114.277 117.085 112.815 118.87C111.356 120.659 109.23 121.55 106.441 121.55C103.651 121.55 101.529 120.659 100.067 118.87C98.6044 117.088 97.8749 114.792 97.8749 111.99V106.215L79.9464 106.213L62.0179 106.212ZM71.2837 88.8767H88.7111V51.0587H75.8639C75.7325 64.2257 74.2047 76.8317 71.2804 88.8767H71.2837ZM120.385 69.9677C120.385 59.0447 123.323 50.0984 129.201 43.1288C135.076 36.1625 143.362 32.6777 154.051 32.6777C164.743 32.6777 173.026 36.1625 178.901 43.1288C184.779 50.0984 187.716 59.0447 187.716 69.9677C187.716 80.8907 184.779 89.8403 178.901 96.8099C173.026 103.776 164.739 107.261 154.051 107.261C143.359 107.261 135.076 103.776 129.201 96.8099C123.323 89.8403 120.385 80.894 120.385 69.9677ZM139.311 69.9677C139.311 76.0628 140.537 80.9996 142.994 84.7814C145.452 88.5632 149.139 90.4541 154.051 90.4541C158.963 90.4541 162.65 88.5632 165.107 84.7781C167.565 80.9996 168.791 76.0628 168.791 69.9677C168.791 63.8759 167.565 58.9391 165.107 55.1573C162.65 51.3755 158.963 49.4846 154.051 49.4846C149.139 49.4846 145.452 51.3755 142.994 55.1573C140.537 58.9391 139.311 63.8759 139.311 69.9677ZM197.876 96.6515V43.2872C197.876 40.4855 198.654 38.192 200.215 36.4067C201.776 34.6214 203.984 33.7271 206.839 33.7271H245.486C248.341 33.7271 250.533 34.6181 252.057 36.4067C253.585 38.1887 254.351 40.4855 254.351 43.2872V96.6482C254.351 99.5192 253.585 101.833 252.06 103.585C250.533 105.334 248.341 106.212 245.486 106.212C242.561 106.212 240.324 105.317 238.763 103.532C237.202 101.747 236.42 99.4532 236.42 96.6515V50.534H215.803V96.6515C215.803 99.4532 215.024 101.747 213.463 103.532C211.902 105.317 209.694 106.212 206.839 106.212C203.984 106.212 201.779 105.317 200.215 103.532C198.654 101.747 197.876 99.4532 197.876 96.6515ZM263.712 69.9677C263.712 59.0447 266.652 50.0984 272.527 43.1288C278.402 36.1625 286.689 32.6777 297.377 32.6777C308.069 32.6777 316.352 36.1625 322.23 43.1288C328.105 50.0984 331.042 59.0447 331.042 69.9677C331.042 80.8907 328.105 89.8403 322.227 96.8099C316.352 103.776 308.065 107.261 297.377 107.261C286.689 107.261 278.405 103.776 272.527 96.8099C266.652 89.8403 263.712 80.894 263.712 69.9677ZM282.637 69.9677C282.637 76.0628 283.866 80.9996 286.32 84.7814C288.778 88.5632 292.465 90.4541 297.377 90.4541C302.292 90.4541 305.976 88.5632 308.433 84.7781C310.891 80.9996 312.12 76.0628 312.12 69.9677C312.12 63.8759 310.891 58.9391 308.433 55.1573C305.976 51.3755 302.289 49.4846 297.377 49.4846C292.465 49.4846 288.778 51.3755 286.324 55.1573C283.866 58.9391 282.637 63.8759 282.637 69.9677ZM356.842 33.7271H385.227C388.082 33.7271 390.274 34.6181 391.802 36.4067C393.326 38.1887 394.092 40.4855 394.092 43.2872V96.6482C394.092 99.5192 393.326 101.833 391.802 103.585C390.274 105.334 388.082 106.212 385.227 106.212C382.306 106.212 380.065 105.317 378.505 103.532C376.944 101.747 376.162 99.4532 376.162 96.6515V51.0587H364.212C363.679 71.2976 361.754 85.7252 358.435 94.3382C355.245 102.605 349.968 106.736 342.598 106.736C339.079 106.736 336.323 105.789 334.331 103.898C332.337 102.007 331.539 99.242 331.939 95.6021C332.472 90.4211 335.028 88.0022 339.608 88.352C342.467 88.352 344.389 85.7252 345.385 80.4749C346.781 73.1192 347.711 60.8993 348.177 43.8119C348.309 40.5911 349.104 38.1029 350.566 36.3539C352.025 34.6049 354.115 33.7271 356.842 33.7271ZM424.071 85.2005L402.957 50.2205C401.163 47.2076 400.417 44.2673 400.716 41.3963C401.015 38.5253 402.424 36.3869 404.948 34.9877C410.261 31.9781 414.644 33.9383 418.094 40.8716L432.239 67.8656L442.497 41.3963C445.021 34.7435 448.904 32.4302 454.151 34.463C456.675 35.4431 458.17 37.2449 458.633 39.875C459.096 42.4985 458.765 45.0362 457.638 47.4881L442.001 85.0949C439.011 92.5199 435.873 98.0705 432.587 101.747C429.302 105.423 425.3 107.258 420.585 107.258C416.271 107.258 412.682 106.489 409.827 104.948C407.57 103.69 405.993 102.044 405.096 100.014C404.202 97.9814 404.084 95.81 404.747 93.5C405.411 91.3286 406.525 89.8766 408.086 89.1407C409.647 88.4048 411.322 88.2827 413.116 88.7711C416.569 89.6819 418.626 90.1373 419.29 90.1373C421.281 90.1373 422.875 88.4939 424.071 85.2005ZM496.78 63.9815V43.2872C496.78 40.4855 497.579 38.192 499.172 36.4067C500.766 34.6214 502.99 33.7271 505.846 33.7271C508.701 33.7271 510.893 34.6181 512.417 36.4067C513.945 38.1887 514.711 40.4855 514.711 43.2872V96.6482C514.711 99.5192 513.945 101.833 512.417 103.585C510.893 105.334 508.701 106.212 505.846 106.212C502.921 106.212 500.681 105.317 499.123 103.532C497.562 101.747 496.78 99.4532 496.78 96.6515V79.9469C493.13 82.1909 488.579 83.3129 483.135 83.3129C476.031 83.3129 470.537 81.4352 466.65 77.6897C462.767 73.9442 460.825 67.3079 460.825 57.7841V43.2872C460.825 40.6241 461.636 38.3669 463.266 36.5123C464.892 34.6544 467.101 33.7271 469.887 33.7271C472.676 33.7271 474.852 34.6544 476.412 36.5123C477.973 38.3669 478.752 40.6241 478.752 43.2872V57.3617C478.752 63.8066 481.209 67.0274 486.125 67.0274C490.173 67.0274 493.728 66.011 496.78 63.9815ZM527.459 96.6515V43.2872C527.459 40.4855 528.238 38.192 529.798 36.4067C531.359 34.6214 533.567 33.7271 536.423 33.7271C539.278 33.7271 541.486 34.6181 543.047 36.4067C544.607 38.1887 545.386 40.4855 545.386 43.2872V65.7668L564.111 39.0863C566.037 36.2813 568.195 34.6016 570.587 34.0439C572.976 33.4829 575.299 34.1099 577.556 35.9348C579.485 37.6838 580.412 39.8387 580.346 42.3929C580.28 44.9504 579.318 47.4551 577.458 49.9037L562.915 68.7071L579.85 89.4014C581.841 91.784 582.853 94.2854 582.886 96.9122C582.919 99.539 581.907 101.833 579.85 103.793C577.458 105.826 575.102 106.598 572.776 106.103C570.453 105.614 568.294 104.073 566.303 101.483L545.386 74.0663V96.6515C545.386 99.4532 544.607 101.747 543.047 103.532C541.486 105.317 539.278 106.212 536.423 106.212C533.567 106.212 531.359 105.317 529.798 103.532C528.238 101.747 527.459 99.4532 527.459 96.6515ZM606.74 43.2872V74.4854L612.717 65.6612L624.67 47.8049L630.746 38.8751C633.003 35.4431 635.76 33.7271 639.012 33.7271C641.999 33.7271 644.191 34.6016 645.587 36.3539C646.98 38.1029 647.677 40.4129 647.677 43.2839V96.6515C647.677 99.4532 646.931 101.747 645.436 103.532C643.944 105.317 641.736 106.212 638.812 106.212C635.825 106.212 633.568 105.301 632.04 103.479C630.512 101.658 629.75 99.3806 629.75 96.6482V65.8724L605.646 100.852C602.991 104.423 600.267 106.212 597.478 106.212C594.688 106.212 592.549 105.387 591.054 103.743C589.559 102.093 588.813 99.7337 588.813 96.6482V43.2905C588.813 40.5581 589.559 38.2811 591.054 36.4595C592.549 34.6412 594.79 33.7304 597.777 33.7304C600.698 33.7304 602.922 34.6412 604.45 36.4628C605.978 38.2811 606.74 40.5548 606.74 43.2872ZM701.264 60.7244V43.2872C701.264 40.4855 702.062 38.192 703.656 36.4067C705.249 34.6214 707.474 33.7271 710.329 33.7271C713.184 33.7271 715.372 34.6181 716.9 36.4067C718.428 38.1887 719.19 40.4855 719.19 43.2872V96.6482C719.19 99.5192 718.428 101.833 716.9 103.585C715.372 105.334 713.184 106.212 710.329 106.212C707.404 106.212 705.164 105.317 703.603 103.532C702.042 101.747 701.264 99.4532 701.264 96.6515V77.5313H678.356V96.6515C678.356 99.4532 677.573 101.747 676.013 103.532C674.455 105.317 672.247 106.212 669.392 106.212C666.537 106.212 664.329 105.317 662.768 103.532C661.207 101.747 660.425 99.4532 660.425 96.6515V43.2872C660.425 40.4855 661.207 38.192 662.768 36.4067C664.329 34.6214 666.537 33.7271 669.392 33.7271C672.247 33.7271 674.455 34.6181 676.013 36.4067C677.573 38.1887 678.356 40.4855 678.356 43.2872V60.7244H701.264ZM728.555 69.9677C728.555 59.0447 731.492 50.0984 737.37 43.1288C743.245 36.1625 751.528 32.6777 762.22 32.6777C772.912 32.6777 781.195 36.1625 787.07 43.1288C792.948 50.0984 795.885 59.0447 795.885 69.9677C795.885 80.8907 792.948 89.8403 787.07 96.8099C781.195 103.776 772.912 107.261 762.22 107.261C751.528 107.261 743.245 103.776 737.37 96.8099C731.492 89.8403 728.555 80.894 728.555 69.9677ZM747.48 69.9677C747.48 76.0628 748.706 80.9996 751.164 84.7814C753.621 88.5632 757.305 90.4541 762.22 90.4541C767.132 90.4541 770.819 88.5632 773.276 84.7781C775.731 80.9996 776.96 76.0628 776.96 69.9677C776.96 63.8759 775.731 58.9391 773.276 55.1573C770.819 51.3755 767.132 49.4846 762.22 49.4846C757.305 49.4846 753.621 51.3755 751.164 55.1573C748.706 58.9391 747.48 63.8759 747.48 69.9677Z" fill="url(#paint0_linear_2416_4)"/>
<path d="M46.4699 118.032C45.4152 116.382 44.8862 114.369 44.8862 111.987V98.4402C44.8862 95.5692 45.6025 93.2592 47.0285 91.5069C48.4578 89.7579 50.5968 88.8801 53.4521 88.8801H53.9515C57.2701 81.597 59.2645 66.5754 59.9282 43.8153C60.1254 37.2318 62.9511 33.8724 68.3922 33.7305H97.4774C100.333 33.7305 102.537 34.6215 104.101 36.4101C104.89 37.311 105.478 38.3406 105.866 39.5022C105.629 39.1335 105.365 38.7827 105.077 38.4528C103.517 36.6675 101.309 35.7732 98.4532 35.7732H69.3714C63.9237 35.9151 61.1012 39.2745 60.9041 45.858C60.2404 68.6181 58.2492 83.643 54.9274 90.9228H54.4312C51.5727 90.9228 49.4337 91.8006 48.0044 93.5496C46.5784 95.2986 45.8654 97.6119 45.8654 100.483V114.033C45.8654 115.508 46.0658 116.838 46.4699 118.032ZM107.417 88.8834V90.9195H108.015C110.604 90.9195 112.582 91.8105 113.942 93.5991C114.09 93.7971 114.231 93.9951 114.366 94.2063C114.045 93.2526 113.573 92.3576 112.966 91.5564C111.672 89.8569 109.822 88.9692 107.417 88.8834ZM99.4587 118.032C98.4039 116.382 97.8749 114.369 97.8749 111.987V108.254H98.8508V114.029C98.8508 115.504 99.0545 116.838 99.4587 118.032Z" fill="#FEB60A"/>
<path d="M72.7361 88.8767H88.7079V53.1047H89.6838V90.9227H72.2563C72.4206 90.2396 72.5816 89.5598 72.7361 88.8767ZM129.198 43.1321C123.32 50.0951 120.382 59.0447 120.382 69.9677C120.382 77.7656 121.877 84.5537 124.87 90.3353C122.531 85.0157 121.358 78.9074 121.358 72.0104C121.358 61.0874 124.299 52.1411 130.174 45.1715C136.048 38.2052 144.335 34.7204 155.023 34.7204C165.715 34.7204 173.998 38.2052 179.873 45.1715C181.552 47.1605 183.004 49.3323 184.201 51.6461C182.85 48.5669 181.063 45.6994 178.897 43.1321C173.023 36.1625 164.736 32.6777 154.048 32.6777C143.356 32.6777 135.073 36.1625 129.198 43.1288V43.1321Z" fill="#FEB60A"/>
<path d="M103.295 35.6094C104.734 37.365 105.453 39.5859 105.453 42.2754V87.8682H106.048C106.18 87.8682 106.311 87.8682 106.442 87.8748V43.2885C106.442 40.4835 105.664 38.1933 104.103 36.408C103.854 36.1218 103.584 35.8549 103.295 35.6094ZM111.887 90.4323L111.976 90.5445C113.336 92.3298 114.019 94.6233 114.019 97.425V110.978C114.019 113.78 113.287 116.073 111.828 117.859C110.366 119.641 108.24 120.535 105.453 120.535C103.216 120.535 101.405 119.961 100.022 118.812L100.068 118.868C101.53 120.654 103.653 121.548 106.442 121.548C109.232 121.548 111.355 120.657 112.817 118.868C114.279 117.086 115.008 114.79 115.008 111.988V98.4414C115.008 95.6364 114.328 93.3462 112.968 91.5609C112.652 91.1451 112.289 90.7642 111.887 90.4323ZM71.5251 87.8682H70.293C73.2173 75.8232 74.7418 63.2172 74.8733 50.0502H87.7204V51.06H75.8655C75.7341 63.8574 74.2884 76.1301 71.5251 87.8682ZM130.188 97.9233C135.994 104.15 143.949 107.262 154.052 107.262C164.744 107.262 173.027 103.777 178.902 96.8079C184.78 89.8416 187.718 80.8953 187.718 69.969C187.718 59.046 184.78 50.0964 178.902 43.1301C178.278 42.3883 177.618 41.678 176.924 41.0016C177.259 41.3646 177.591 41.7375 177.91 42.117C183.791 49.0866 186.729 58.0329 186.729 68.9592C186.729 79.8822 183.788 88.8285 177.913 95.7981C172.035 102.764 163.752 106.249 153.063 106.249C143.522 106.249 135.892 103.477 130.188 97.9233Z" fill="#FFBB10" fill-opacity="0.5"/>
</g>
<defs>
<linearGradient id="paint0_linear_2416_4" x1="44.8862" y1="32.6777" x2="44.8862" y2="121.547" gradientUnits="userSpaceOnUse">
<stop stop-color="#FE8907"/>
<stop offset="0.612" stop-color="#FE710A"/>
<stop offset="1" stop-color="#F59033"/>
</linearGradient>
<clipPath id="clip0_2416_4">
<rect width="92" height="132" fill="white" transform="translate(26 20)"/>
</clipPath>
</defs>
</svg>
