<svg width="160" height="160" viewBox="0 0 160 160" fill="none" xmlns="http://www.w3.org/2000/svg">
<path d="M40.8968 69.052C40.9878 57.3163 46.2335 48.5772 55.6325 42.3276C56.2498 41.9089 58.5398 41.0031 59.1969 40.6185C59.8541 40.2311 60.9607 39.1088 61.7856 38.673C67.5278 35.6604 73.922 34.1089 80.4044 34.1553C87.704 34.1553 92.1531 35.6394 98.0389 38.6645C98.5765 38.9379 100.448 40.5359 100.966 40.8407C101.484 41.1455 103.145 41.6952 103.526 41.9288C113.719 48.2695 118.649 55.4876 118.589 67.7503C118.388 72.67 117.11 77.4854 114.846 81.8559C114.527 82.4968 113.659 83.6676 113.292 84.2999C112.715 85.3168 111.381 89.3275 110.692 90.3131C103.913 100.075 95.0206 105.581 80.2252 105.581C65.1709 105.438 53.9313 98.1407 47.3401 86.724C46.9618 86.0802 46.4525 84.5734 46.1254 83.8926C45.7954 83.209 44.7912 81.5511 44.4726 80.7479C42.8284 76.7686 40.8683 73.5925 40.8968 69.052Z" fill="#FF962B"/>
<path d="M108.191 62.7531C108.261 65.6171 108.051 68.4811 107.565 71.3042C107.386 72.3211 111.667 72.7285 110.979 77.2974C110.501 81.7553 106 80.351 105.545 81.6243C102.368 91.0186 98.1775 96.6557 91.1766 100.481C89.9021 101.185 91.9816 105.927 90.6076 107.913C88.6163 110.79 82.2271 115.943 80.1646 115.931C77.7637 115.931 72.5294 111.137 70.319 108.044C68.982 106.164 71.5422 100.797 70.2678 100.065C63.5884 96.2284 58.6101 90.4375 55.6829 81.5018C55.2448 80.1886 51.8795 82.1626 49.4586 77.4285C48.2752 72.962 53.3132 72.2186 53.1027 70.1848C52.9294 68.4394 52.8468 66.6862 52.8552 64.9322C53.2136 63.6219 59.5972 62.1036 68.9137 61.4001C70.228 61.2975 71.7414 53.3901 73.1552 53.3303C74.1509 53.2791 75.1465 61.0639 76.2133 61.0355C77.7153 61.0355 86.7559 62.4198 88.3375 62.4312C103.71 62.5195 109.187 61.6764 108.191 62.7531Z" fill="#FFE8D4"/>
<path d="M53.4754 112.684L69.6335 105.164C69.6335 105.164 73.9717 115.959 80.1647 115.931C86.3576 115.902 91.5663 104.736 91.5663 104.736C91.5663 104.736 94.4623 106.343 97.6597 108.183C97.9584 108.36 97.1022 109.305 97.4009 109.479C100.945 111.513 105.366 111.86 105.992 113.458C107.167 116.461 98.883 126.069 79.8176 125.955C68.268 125.428 51.5125 119.403 53.4754 112.684Z" fill="#796C6C"/>
<path d="M83.2735 103.169C83.2735 103.169 85.794 102.587 89.7766 101.408V108.188C89.7766 108.188 86.9603 112.346 80.3662 116.329C81.7882 114.489 82.785 112.356 83.2849 110.085C83.7884 107.806 83.7856 105.442 83.2735 103.169Z" fill="#F9D6BB"/>
<path d="M102.721 63.08C102.721 63.08 103.924 95.0172 81.1348 103.352C81.1348 103.352 99.91 100.053 105.736 82.0708C105.736 82.0708 109.929 82.5807 111.164 77.744C112.159 73.7761 107.759 71.7508 107.759 71.7508L108.057 62.4277L102.721 63.08Z" fill="#F9D6BB"/>
<path d="M109.956 58.3765C106.361 53.4316 97.5505 50.002 97.5505 50.002C95.3183 47.658 92.6374 45.7882 89.6677 44.5044C86.7135 43.2301 83.5309 42.572 80.3142 42.5703C68.4261 42.5703 62.4721 48.9822 62.4721 48.9822C59.1106 49.8627 56.0199 51.5648 53.4771 53.9357C50.9111 56.3281 48.9653 59.3099 47.8075 62.6236C40.9261 81.2356 55.4029 96.8908 58.9588 99.933C62.5148 102.975 70.0704 104.613 70.0704 104.613V100.981C60.899 97.6713 53.9976 81.3979 53.9976 81.3979C52.837 81.2982 51.7304 80.8282 50.84 80.0591C49.9426 79.282 49.3068 78.2464 49.0194 77.0939C48.2058 73.5105 52.5184 70.9867 52.5184 70.9867L52.8541 65.1844C52.8541 65.1844 55.7528 62.6008 63.5275 61.4102C65.3603 61.1507 67.2051 60.9843 69.0548 60.9117C69.1942 58.6414 72.4287 52.7707 72.4287 52.7707L75.4156 61.1566C75.4156 61.1566 88.3591 63.6804 107.348 61.9912C107.917 63.8428 107.518 71.3115 107.518 71.3115C108.759 71.7957 109.794 72.7072 110.454 73.8893C111.108 75.0686 111.347 76.4473 111.12 77.7861C110.594 81.4293 106.44 81.2156 105.803 81.227C105.803 81.227 99.5503 97.714 90.3419 101.021V104.656C90.3419 104.656 97.8975 103.015 101.453 99.9729C105.009 96.9307 121.554 74.3565 109.956 58.3765Z" fill="#ED801D"/>
<path d="M77.2022 81.3266C77.7086 81.5317 78.1979 81.7738 78.6929 81.939C79.1196 82.1156 79.5747 82.2068 80.0384 82.2125C80.5078 82.2125 80.9715 82.1298 81.4124 81.9675C81.8875 81.7966 82.3512 81.5943 82.795 81.3579L82.9372 81.2867C83.0234 81.2476 83.1202 81.2386 83.2121 81.2614C83.304 81.2841 83.3855 81.3372 83.4436 81.412C83.503 81.4882 83.5359 81.5817 83.5375 81.6784C83.539 81.775 83.509 81.8695 83.4521 81.9475C83.0453 82.4631 82.5276 82.8761 81.9387 83.1581C81.3476 83.4585 80.7004 83.6322 80.0384 83.668C79.3729 83.6241 78.726 83.4293 78.1467 83.0983C77.5904 82.8146 77.0878 82.4358 76.6617 81.9789C76.6141 81.9263 76.5802 81.8627 76.563 81.7938C76.5459 81.7249 76.5461 81.6528 76.5635 81.5839C76.581 81.5151 76.6152 81.4517 76.6631 81.3993C76.711 81.347 76.7711 81.3073 76.8381 81.2838C76.9265 81.2528 77.0228 81.2528 77.1112 81.2838L77.2022 81.3266ZM67.3225 77.1649C68.7306 77.1649 69.8714 75.9971 69.8714 74.5586C69.8747 74.2201 69.8115 73.8842 69.6852 73.5701C69.5589 73.256 69.3721 72.97 69.1354 72.7282C68.8988 72.4864 68.6168 72.2937 68.3058 72.1611C67.9947 72.0284 67.6606 71.9584 67.3225 71.9551C66.9841 71.9584 66.6498 72.0285 66.3385 72.1614C66.0273 72.2942 65.7452 72.4872 65.5085 72.7292C65.2718 72.9713 65.085 73.2577 64.9589 73.5721C64.8328 73.8865 64.7698 74.2227 64.7736 74.5614C64.7736 75.9999 65.9143 77.1649 67.3225 77.1649Z" fill="#383129"/>
<path d="M62.335 75.8823C62.2362 75.8811 62.1382 75.8638 62.0449 75.831C61.832 75.7493 61.6602 75.5864 61.567 75.3781C61.4717 75.168 61.4615 74.9291 61.5385 74.7116C62.0064 73.6319 62.7685 72.7059 63.7375 72.0397C64.7047 71.3789 65.8312 71.0114 66.9947 70.9772C70.3998 70.7009 73.2076 74.0308 73.3271 74.1305C73.475 74.306 73.5483 74.5325 73.5313 74.7615C73.5143 74.9905 73.4083 75.2037 73.236 75.3553C73.1521 75.4291 73.0542 75.4853 72.9482 75.5206C72.8422 75.5559 72.7302 75.5696 72.6188 75.5608C72.5075 75.552 72.399 75.521 72.2998 75.4696C72.2006 75.4182 72.1127 75.3473 72.0412 75.2613C72.0412 75.2613 69.6631 72.5239 67.1227 72.6977C66.2892 72.7119 65.4728 72.9626 64.7701 73.4212C64.0675 73.8827 63.5014 74.5321 63.1401 75.3012C63.0816 75.4706 62.9723 75.6178 62.8272 75.7228C62.6839 75.8263 62.5117 75.8822 62.335 75.8823ZM92.125 77.0644C93.5303 77.0644 94.6739 75.8965 94.6739 74.4581C94.68 73.7746 94.415 73.1166 93.9372 72.6285C93.4593 72.1404 92.8076 71.8621 92.125 71.8546C91.787 71.8579 91.4528 71.9279 91.1418 72.0606C90.8307 72.1932 90.5488 72.3859 90.3121 72.6277C90.0754 72.8694 89.8886 73.1555 89.7623 73.4696C89.636 73.7836 89.5728 74.1195 89.5762 74.4581C89.5762 75.8965 90.7141 77.0644 92.125 77.0644Z" fill="#383129"/>
<path d="M97.1159 75.7549C96.9427 75.7545 96.7739 75.7008 96.6323 75.6011C96.4894 75.4999 96.3804 75.358 96.3193 75.1938C95.9581 74.4247 95.3948 73.7695 94.6893 73.3052C93.9887 72.8446 93.1719 72.5927 92.3339 72.5789C89.7964 72.3852 87.4352 75.114 87.4153 75.1425C87.3058 75.2729 87.1596 75.3671 86.9957 75.4129C86.8319 75.4586 86.6581 75.4538 86.497 75.399C86.3359 75.3442 86.1951 75.242 86.093 75.1058C85.9909 74.9696 85.9322 74.8056 85.9247 74.6355C85.9089 74.4056 85.9834 74.1787 86.1324 74.0031C86.2518 73.8721 89.0482 70.5849 92.4647 70.8584C93.6254 70.8869 94.7576 71.2543 95.7219 71.9123C96.6892 72.576 97.4515 73.5075 97.9209 74.5928C97.9973 74.8084 97.9871 75.0453 97.8925 75.2536C97.8014 75.4597 97.6327 75.6215 97.4231 75.7037C97.3232 75.7373 97.2213 75.7546 97.1159 75.7549ZM61.1898 68.0384C61.9294 67.8134 62.6804 67.6311 63.4399 67.4886C64.1796 67.3576 64.9135 67.2437 65.6418 67.1411C67.1153 66.9588 68.6287 66.8563 70.0625 66.8079C70.1662 66.8022 70.27 66.8175 70.3677 66.8527C70.4654 66.8879 70.5551 66.9424 70.6314 67.013C70.746 67.1205 70.8269 67.259 70.8643 67.4117C70.9017 67.5644 70.8941 67.7247 70.8423 67.8731C70.7904 68.0215 70.6967 68.1517 70.5724 68.2478C70.4481 68.3439 70.2986 68.4018 70.1421 68.4144C68.7084 68.517 67.2832 68.6708 65.8807 68.8929C65.1838 69.0069 64.4868 69.1265 63.7984 69.2917C63.127 69.4342 62.4613 69.6136 61.8071 69.8301C61.6879 69.8851 61.5585 69.9142 61.4273 69.9152C61.2961 69.9163 61.1662 69.8894 61.0462 69.8363C60.9262 69.7833 60.8188 69.7052 60.7312 69.6074C60.6437 69.5096 60.5779 69.3942 60.5383 69.2689C60.4746 69.0798 60.4705 68.8757 60.5264 68.6841C60.5824 68.4926 60.6958 68.3228 60.8512 68.1979C60.9544 68.1167 61.0737 68.0585 61.2011 68.027L61.1898 68.0384ZM96.9224 69.3743C96.2681 69.2319 95.5399 69.1094 94.8315 68.9955C92.6838 68.6782 90.5251 68.4407 88.3598 68.2834C88.1748 68.2538 88.0075 68.1563 87.8904 68.0099C87.7711 67.8615 87.7099 67.6746 87.7183 67.4843C87.7267 67.294 87.8041 67.1133 87.9359 66.9759C88.0666 66.8406 88.2432 66.7593 88.4309 66.748C89.9045 66.748 91.4179 66.8591 92.8516 66.9702C93.5884 67.0215 94.3252 67.0927 95.062 67.1753C95.7987 67.2551 96.5242 67.3377 97.3008 67.4687C97.5449 67.5241 97.7592 67.6695 97.901 67.876C98.0432 68.084 98.1087 68.3375 98.0774 68.5882C98.0387 68.8396 97.9028 69.0657 97.699 69.2177C97.5984 69.2911 97.4842 69.3435 97.363 69.3719C97.2418 69.4003 97.1162 69.404 96.9935 69.3829H96.9224V69.3743ZM80.4941 91.977C77.766 91.977 72.6882 91.977 68.3073 88.7298C68.1576 88.6119 68.0571 88.4424 68.0255 88.2544C67.994 88.0663 68.0336 87.8732 68.1366 87.7129C68.2464 87.5585 68.4127 87.454 68.5992 87.422C68.7858 87.3899 68.9774 87.4331 69.1322 87.5419C73.1149 90.4816 77.9054 90.5015 80.4657 90.5015C84.4133 90.4243 88.2861 89.4089 91.7649 87.5391C91.8501 87.4845 91.9457 87.4483 92.0455 87.4326C92.1454 87.4169 92.2475 87.4221 92.3452 87.4479C92.4441 87.4738 92.5364 87.5201 92.6163 87.5839C92.6961 87.6477 92.7618 87.7275 92.8089 87.8182C92.8569 87.9093 92.8859 88.0091 92.8943 88.1116C92.9028 88.2142 92.8904 88.3174 92.858 88.415C92.8255 88.5127 92.7738 88.6027 92.7057 88.6798C92.6376 88.7569 92.5547 88.8194 92.4619 88.8636C88.7743 90.8337 84.673 91.9006 80.4941 91.977ZM80.625 95.7427C78.8747 95.7663 77.1304 95.5331 75.4475 95.0505C75.3411 95.0384 75.2386 95.0028 75.1476 94.9461C75.0565 94.8894 74.9792 94.8132 74.9213 94.723C74.8622 94.6327 74.8229 94.5309 74.8059 94.4243C74.789 94.3177 74.7948 94.2087 74.8231 94.1045C74.8513 94.0004 74.9013 93.9034 74.9697 93.8199C75.0381 93.7365 75.1234 93.6686 75.22 93.6206C75.3157 93.5745 75.4204 93.5501 75.5266 93.5491C75.6328 93.5481 75.7379 93.5706 75.8344 93.6149C77.3819 94.0553 78.985 94.2683 80.5937 94.2473C82.0318 94.2621 83.4589 93.996 84.7953 93.4639C84.9299 93.4061 85.0789 93.391 85.2223 93.4205C85.3657 93.4501 85.4967 93.5229 85.5975 93.6291C85.7016 93.7357 85.7719 93.8707 85.7998 94.0171C85.8276 94.1635 85.8117 94.3149 85.754 94.4523C85.6792 94.6341 85.5362 94.7793 85.3557 94.8568C83.848 95.455 82.2408 95.7541 80.625 95.7427Z" fill="#383129"/>
<path d="M118.393 59.3819C117.224 55.0988 115.092 51.1401 112.161 47.8085C110.696 46.1788 109.061 44.7119 107.282 43.4333C105.49 42.2084 103.572 41.183 101.564 40.3797C101.459 40.3323 101.344 40.308 101.228 40.3085C101.228 40.3085 101.228 40.2287 101.149 40.1946L100.969 40.0037C99.5256 38.7282 97.9413 37.6216 96.2472 36.7052C94.5472 35.8214 92.7681 35.0995 90.9333 34.5489C87.2616 33.4831 83.4538 32.962 79.6312 33.0022C75.8336 33.0248 72.0589 33.5937 68.4229 34.6913C64.7561 35.8171 61.3507 37.6649 58.4066 40.1262C58.3639 40.1712 58.324 40.2187 58.2872 40.2686C58.1612 40.2645 58.0356 40.2848 57.9173 40.3284C55.909 41.1317 53.9916 42.1543 52.2023 43.382C50.4215 44.6496 48.7858 46.1165 47.3236 47.7601C44.3811 51.1039 42.2456 55.0802 41.0822 59.3819C39.8954 63.6736 39.6816 68.1767 40.4564 72.5618C41.2245 76.8801 42.9427 80.962 45.483 84.4998C46.5721 88.5962 48.5763 92.3913 51.3444 95.5987C54.1124 98.8062 57.572 101.342 61.4619 103.015C63.2193 103.761 65.0527 104.313 66.9294 104.661C65.2281 104.994 63.6484 105.781 62.358 106.94C62.176 107.145 62.0766 107.41 62.0792 107.684C62.0792 107.948 62.0792 108.213 62.1304 108.478C59.7863 109.091 57.4793 109.834 55.2177 110.709C54.5236 110.979 53.9091 111.435 53.4426 112.028C52.9757 112.627 52.6732 113.338 52.5649 114.09C52.4566 114.843 52.5464 115.61 52.8253 116.317C53.1041 117.024 53.5649 117.642 54.1538 118.106C61.5313 123.862 70.6141 126.992 79.9669 127.002C89.289 127.002 98.358 123.877 105.777 118.106C106.369 117.642 106.83 117.024 107.106 116.317C107.384 115.61 107.474 114.843 107.366 114.09C107.258 113.338 106.955 112.627 106.488 112.028C106.025 111.437 105.412 110.982 104.713 110.709C102.628 109.921 100.504 109.241 98.3495 108.672C98.3495 108.359 98.4092 108.051 98.4206 107.735C98.4235 107.598 98.3993 107.463 98.3495 107.335C98.2997 107.208 98.2253 107.092 98.1305 106.994C97.9598 106.798 96.489 105.322 92.8649 104.55C97.5695 103.545 101.931 101.328 105.518 98.1184C109.546 94.5542 112.449 89.8921 113.873 84.702C116.462 81.1386 118.211 77.0112 118.991 72.6416C119.787 68.235 119.583 63.6974 118.393 59.3819ZM53.0785 77.9369C53.2577 78.7202 53.4767 79.5036 53.6958 80.2869C52.8467 80.2106 52.0452 79.8608 51.4114 79.2899C50.7699 78.7136 50.3268 77.9489 50.1455 77.1052C49.9633 76.2574 50.0509 75.3739 50.3959 74.5785C50.7401 73.7838 51.3261 73.1258 52.0629 72.6929C52.3226 74.4543 52.6614 76.2032 53.0785 77.9341V77.9369ZM54.9816 77.447C54.4343 75.2282 54.0023 72.9824 53.6872 70.7189C53.4672 69.1028 53.2974 67.4803 53.178 65.8537C55.5533 64.509 58.1179 63.5314 60.7848 62.9539C63.521 62.3386 66.3156 62.0215 69.1199 62.0082C69.3691 62.0082 69.609 61.9135 69.7912 61.7433C69.9773 61.5708 70.0929 61.3353 70.1155 61.0825V61.0312C70.4057 59.023 70.9946 57.0718 71.8565 55.2402C71.9561 55.0067 72.0642 54.7702 72.1837 54.548L72.525 55.6988L73.441 58.8122C73.6003 59.3306 73.7682 59.8291 73.9588 60.3903C74.0498 60.6751 74.1579 60.9514 74.2859 61.2249C74.4086 61.5184 74.5841 61.7868 74.8037 62.0168C74.8823 62.096 74.9736 62.1615 75.0739 62.2105C75.1637 62.262 75.2605 62.3004 75.3612 62.3244H75.8391L82.0919 62.8514C86.3021 63.2074 90.5748 63.4011 94.8163 63.4211C98.9071 63.4837 102.989 63.2701 107.063 63.0451V63.4837C107.063 64.6345 107.063 65.7824 106.983 66.9247C106.883 69.2076 106.657 71.4831 106.306 73.7411C105.64 78.247 104.297 82.6261 102.324 86.7302C100.393 90.781 97.5626 94.3355 94.0483 97.1214C90.5656 99.7683 86.3986 101.361 82.0403 101.711C77.682 102.061 73.3149 101.153 69.4556 99.0954C65.6063 96.8955 62.3871 93.7408 60.1078 89.9347C57.7555 86.0671 56.0256 81.853 54.9816 77.447ZM108.266 72.8153C108.943 73.2654 109.472 73.9149 109.78 74.6754C110.087 75.438 110.161 76.275 109.993 77.0799C109.824 77.8849 109.42 78.6214 108.832 79.1959C108.248 79.7594 107.506 80.1294 106.704 80.2556C107.273 78.2246 107.72 76.1623 108.047 74.0772C108.147 73.7126 108.206 73.2426 108.266 72.8153ZM82.1914 103.961C84.7282 103.747 87.2151 103.132 89.5593 102.138V107.003C88.7827 108.598 86.3931 112.386 80.2485 114.808C74.1664 112.438 71.7456 108.703 70.9604 107.043V102.209C74.5118 103.678 78.3619 104.279 82.1914 103.961ZM68.6391 106.422V106.584C68.642 106.692 68.659 106.798 68.6903 106.9C68.6872 106.931 68.6872 106.961 68.6903 106.991C69.0089 107.877 70.9405 112.54 77.3326 115.765C74.9816 117.176 72.907 119.004 71.2108 121.16C69.319 119.186 64.4972 113.64 64.0904 108.071C65.4635 107.184 67.0197 106.62 68.642 106.422H68.6391ZM103.999 112.651C104.358 112.794 104.672 113.03 104.909 113.335C105.273 113.798 105.438 114.386 105.37 114.971C105.302 115.556 105.005 116.09 104.545 116.457C97.5176 121.931 88.8704 124.907 79.9669 124.917C71.0913 124.917 62.4604 121.943 55.3912 116.457C54.939 116.085 54.6483 115.553 54.5804 114.971C54.5125 114.389 54.6726 113.804 55.0271 113.338C55.2619 113.033 55.573 112.796 55.9289 112.651C58.0681 111.825 60.2472 111.119 62.4604 110.535C64.1046 117.363 70.346 123.236 70.6447 123.51C70.8294 123.688 71.0764 123.787 71.3331 123.786H71.4014C71.5406 123.778 71.6766 123.74 71.8002 123.675C71.9238 123.61 72.0322 123.52 72.1182 123.41C77.1563 117.086 80.203 116.975 80.203 116.975H80.2599C80.2599 116.975 83.3293 117.089 88.3759 123.41C88.4628 123.519 88.5714 123.609 88.6948 123.674C88.8182 123.738 88.9537 123.777 89.0927 123.786H89.1639C89.4199 123.786 89.6645 123.689 89.8494 123.51C90.1481 123.236 96.3013 117.405 97.9939 110.677C100.045 111.247 102.07 111.896 103.999 112.651ZM89.2521 121.211C87.5557 119.055 85.4812 117.227 83.1302 115.816C89.3914 112.663 91.3742 108.122 91.7497 107.105V107.034C91.7529 106.99 91.7529 106.945 91.7497 106.9C91.781 106.799 91.7983 106.693 91.8009 106.587V106.422C93.4054 106.641 94.9444 107.222 96.3013 108.122C95.9628 113.688 91.1438 119.237 89.2521 121.211ZM116.96 72.1944C116.311 76.2691 114.787 80.1544 112.493 83.5826C112.404 83.7265 112.355 83.8918 112.351 84.0611C110.732 88.8388 107.926 93.1261 104.198 96.5204C100.67 99.6897 96.3937 101.906 91.7725 102.961V101.069C93.0071 100.414 94.182 99.6452 95.2857 98.7792C98.9967 95.7589 101.97 91.9301 103.979 87.5847C104.79 85.8927 105.493 84.1494 106.079 82.3634H106.17C107.544 82.3549 108.872 81.8663 109.925 80.9819C110.986 80.0932 111.717 78.8598 111.993 77.4897C112.269 76.1167 112.078 74.6896 111.444 73.4449C110.82 72.2086 109.79 71.225 108.528 70.659C108.647 69.4684 108.727 68.2777 108.787 67.0871C108.847 65.8964 108.847 64.7342 108.878 63.5549C109.034 62.3842 108.938 61.1907 108.599 60.0627C108.567 59.9628 108.513 59.8716 108.441 59.796C108.368 59.7204 108.279 59.6626 108.181 59.6269C108.057 59.5858 107.924 59.5837 107.8 59.6209C107.675 59.6581 107.565 59.7328 107.484 59.8348C107.43 59.9023 107.389 59.9797 107.364 60.0627C107.279 60.3419 107.208 60.6238 107.154 60.9087C103.043 61.3758 98.9099 61.5923 94.7879 61.6493C90.6025 61.6373 86.4233 61.3251 82.2825 60.715L79.1277 60.3475C78.1793 60.2659 77.23 60.1946 76.2801 60.1339L76.0809 59.6155C75.9103 59.1483 75.751 58.5986 75.5945 58.14L74.6785 55.0864L74.2091 53.5311L73.9616 52.7336C73.858 52.407 73.7316 52.0881 73.5833 51.7793C73.5833 51.7793 73.5833 51.7195 73.4922 51.6369L73.4126 51.5457C73.3509 51.4701 73.2813 51.4013 73.2049 51.3407C73.0105 51.2099 72.7819 51.1396 72.5478 51.1384H72.3771L72.0699 51.2182C71.9618 51.2715 71.8581 51.3335 71.7598 51.4033L71.5806 51.5457C71.4355 51.6882 71.3018 51.8448 71.1823 52.0129C71.0031 52.2693 70.8381 52.5342 70.6845 52.8076C69.4962 55.0521 68.6568 57.465 68.1954 59.963C65.5554 60.1054 62.9354 60.5042 60.3695 61.1537C57.8149 61.786 55.3514 62.7574 53.0415 64.042V63.8711C53.0106 63.6492 52.8992 63.4463 52.7286 63.3014C52.5592 63.1573 52.3413 63.0832 52.1193 63.0943C51.8973 63.1054 51.6879 63.2009 51.5338 63.3612C51.378 63.5224 51.2869 63.7353 51.2777 63.9594C51.3517 66.167 51.5195 68.3746 51.7784 70.5764C50.4442 71.0778 49.3291 72.0462 48.6321 73.311C47.9335 74.5795 47.6991 76.0524 47.9693 77.4755C48.2396 78.8997 48.9991 80.1815 50.1086 81.0845C51.218 81.9903 52.6091 82.4603 54.0286 82.4147H54.3557C55.3408 85.4633 56.6773 88.3866 58.3384 91.1254C60.8022 95.2507 64.2824 98.6737 68.4457 101.067L68.7415 101.232V103.103C66.5333 102.678 64.3823 101.995 62.3324 101.069C57.58 98.8499 53.5263 95.3682 50.6121 91.0029C49.1404 88.7943 47.9686 86.3996 47.1273 83.8817L47.059 83.7677C47.0381 83.7062 47.0074 83.6485 46.968 83.5968C44.6786 80.1597 43.1536 76.2702 42.4961 72.1915C42.178 70.1734 42.0807 68.1265 42.2059 66.0872C42.3074 64.0373 42.6414 62.0056 43.2015 60.0314C44.3127 56.071 46.2771 52.4025 48.9564 49.2841C50.2821 47.7345 51.7642 46.333 53.3771 45.0996C55.0017 43.8822 56.7426 42.8288 58.5745 41.9549C58.7814 41.8567 58.9425 41.6822 59.0239 41.4678C59.1206 41.4461 59.2117 41.4044 59.2913 41.3453C62.2268 39.2479 65.5059 37.6804 68.9805 36.7137C72.4511 35.7652 76.0354 35.2895 79.634 35.298C83.2303 35.2079 86.8215 35.6192 90.3046 36.52C93.7928 37.418 97.0731 38.9873 99.9625 41.1403L100.113 41.2741C100.199 41.351 100.301 41.4052 100.412 41.4365C100.446 41.5544 100.504 41.664 100.583 41.7585C100.661 41.8531 100.758 41.9306 100.867 41.9863C102.701 42.8586 104.445 43.908 106.076 45.1196C110.998 48.8241 114.57 54.0452 116.24 59.9801C116.803 61.9512 117.136 63.9851 117.236 66.036C117.369 68.0917 117.277 70.156 116.96 72.1915V72.1944Z" fill="#383129"/>
</svg>
