<svg width="160" height="160" viewBox="0 0 160 160" fill="none" xmlns="http://www.w3.org/2000/svg">
<path d="M85.7836 80.9525C85.7836 87.8098 83.4403 93.2118 78.7536 97.1585C74.1163 101.056 67.4316 103.226 58.6996 103.67V109.294H47.6736V103.596C38.8923 103.103 32.1583 100.908 27.4716 97.0105C22.8343 93.0638 20.5156 87.7111 20.5156 80.9525C20.5156 74.1445 22.8343 68.8165 27.4716 64.9685C32.1583 61.0711 38.8923 58.8511 47.6736 58.3085V52.9805H58.6996V58.2345C67.4316 58.7278 74.1163 60.9478 78.7536 64.8945C83.4403 68.8411 85.7836 74.1938 85.7836 80.9525ZM58.6996 94.2725C63.929 93.7791 67.8263 92.4471 70.3916 90.2765C72.957 88.0565 74.2396 84.9238 74.2396 80.8785C74.2396 72.9851 69.0596 68.5945 58.6996 67.7065V94.2725ZM32.1336 80.9525C32.1336 88.7471 37.3136 93.1871 47.6736 94.2725V67.7065C42.395 68.1998 38.473 69.5318 35.9076 71.7025C33.3916 73.8238 32.1336 76.9071 32.1336 80.9525Z" fill="#0A0E20"/>
<path d="M117.174 55.2005C121.762 55.2005 125.733 55.9651 129.088 57.4945C132.492 59.0238 135.107 61.1945 136.932 64.0065C138.757 66.8185 139.67 70.1485 139.67 73.9965C139.67 77.7951 138.757 81.1251 136.932 83.9865C135.107 86.7985 132.492 88.9691 129.088 90.4985C125.733 91.9785 121.762 92.7185 117.174 92.7185H106.74V107H94.7521V55.2005H117.174ZM116.508 82.9505C120.109 82.9505 122.847 82.1858 124.722 80.6565C126.597 79.0778 127.534 76.8578 127.534 73.9965C127.534 71.0858 126.597 68.8658 124.722 67.3365C122.847 65.7578 120.109 64.9685 116.508 64.9685H106.74V82.9505H116.508Z" fill="#0A0E20"/>
</svg>
