<svg width="160" height="160" viewBox="0 0 160 160" fill="none" xmlns="http://www.w3.org/2000/svg">
<path fill-rule="evenodd" clip-rule="evenodd" d="M64.5908 43.7919C64.5908 35.0288 71.7063 28 80.5777 28C89.3566 28 96.5645 35.0288 96.5645 43.7919C96.5645 52.4638 89.449 59.584 80.5777 59.584C71.7063 59.584 64.5908 52.4638 64.5908 43.7919Z" fill="#E61F48"/>
<path fill-rule="evenodd" clip-rule="evenodd" d="M100.167 65.6074C100.075 76.2875 91.3885 84.8681 80.5765 84.8681C69.7643 84.8681 60.9854 76.2875 60.9854 65.6074H35.9424C36.1272 108.693 80.5765 138.999 80.5765 138.999V109.697C80.5765 109.697 93.5138 109.971 105.435 102.212C117.356 94.4527 123.27 81.947 124.286 74.9182C124.379 74.1879 124.563 73.4577 124.748 72.7274C125.026 70.4453 125.21 68.072 125.21 65.6074H100.167Z" fill="#42BFE8"/>
</svg>
