<svg width="160" height="160" viewBox="0 0 160 160" fill="none" xmlns="http://www.w3.org/2000/svg">
<g clip-path="url(#clip0_1528_18)">
<path d="M38.1327 101.892L44.3258 95.656L42.2465 93.5624L38.3645 97.4719L31.3112 90.3658L29 92.6995L38.1327 101.892ZM40.6832 84.6855L42.2465 86.2537L45.4552 83.0121L47.3177 84.8881L44.1014 88.1297L46.091 90.1257L50.0627 86.1262L51.9251 88.0021L45.6422 94.3353L36.5021 85.1432L42.7925 78.8025L44.6549 80.6785L40.6832 84.6855ZM61.0204 78.8625L54.8048 77.0691C55.151 76.3232 55.2542 75.4868 55.0998 74.6786C54.9454 73.8704 54.5412 73.1316 53.9446 72.5669C53.5877 72.2327 53.1678 71.9733 52.7096 71.8042C52.2514 71.635 51.7641 71.5593 51.2764 71.5817C50.7887 71.6041 50.3103 71.724 49.8694 71.9344C49.4285 72.1448 49.0339 72.4415 48.7089 72.807L44.079 77.4668L53.2565 86.6665L55.5752 84.3328L48.1853 76.8891L49.6812 75.3883C49.8332 75.2292 50.015 75.1018 50.2163 75.0134C50.4175 74.925 50.6341 74.8774 50.8537 74.8732C51.0733 74.869 51.2916 74.9084 51.496 74.9891C51.7004 75.0697 51.8869 75.1901 52.0448 75.3433C52.3551 75.6648 52.5254 76.0967 52.5184 76.5441C52.5114 76.9916 52.3276 77.4179 52.0074 77.7295L50.6461 79.1027L58.5446 81.3538L61.0204 78.8625ZM56.8393 64.2602C59.6965 61.3863 63.4737 61.6639 66.1439 64.3578C68.8142 67.0516 69.0984 70.856 66.2412 73.73C63.384 76.6039 59.6142 76.3263 56.9365 73.6099C54.2588 70.8936 53.982 67.1117 56.8393 64.2377M58.6493 66.1062C57.1983 67.5619 57.6845 69.3403 59.4497 71.1187C61.2149 72.8971 62.9726 73.3698 64.4236 71.9216C65.8747 70.4733 65.3885 68.6874 63.6233 66.9091C61.8581 65.1307 60.1004 64.6054 58.6493 66.1062ZM68.8965 59.4278L67.1911 54.2352L69.8987 51.5113L72.1651 60.4183L75.7403 64.0201L73.4291 66.3538L69.8688 62.767L61.3944 60.0731L63.9449 57.5068L68.8441 59.4203L68.8965 59.4278ZM111.149 91.1237L120.289 81.9316L117.851 79.4779L108.718 88.67L111.149 91.1237ZM76.2041 55.9311L83.3097 52.5168L78.059 57.7995L80.1758 59.9306L89.3009 50.731L86.4063 47.812L79.5325 51.1887L82.9732 44.3528L79.9813 41.3438L70.8486 50.5359L72.9579 52.6669L78.2086 47.3843L74.8203 54.5354L76.2041 55.9311ZM92.0385 57.2367L90.4753 58.805L93.9832 62.3318L92.1208 64.2077L88.6203 60.6809L86.6307 62.6769L90.8941 66.9691L89.0317 68.845L82.4496 62.2192L91.5822 53.0196L98.1643 59.6454L96.3019 61.5214L92.0385 57.2367ZM100.85 80.761L107.043 87.0041L109.13 84.9031L105.248 81.0011L112.301 73.8951L109.982 71.5689L100.85 80.761ZM125.458 87.1317L122.526 96.8791H122.518L128.831 90.5309L131 92.7145L121.867 101.907L119.003 99.0252L121.501 88.9776H121.508L115.27 95.2583L113.161 93.1347L122.286 83.9426L125.458 87.1317ZM99.1217 79.0201L100.879 72.762C101.623 73.1142 102.458 73.2197 103.265 73.0632C104.072 72.9067 104.808 72.4963 105.367 71.8916C105.697 71.5321 105.953 71.1107 106.12 70.6517C106.287 70.1926 106.362 69.705 106.34 69.2169C106.319 68.7287 106.201 68.2496 105.994 67.8072C105.788 67.3648 105.496 66.9677 105.135 66.6389L100.221 61.6864L91.0811 70.9086L93.3998 73.2422L100.805 65.7985L102.562 67.6069C102.716 67.7601 102.837 67.9421 102.92 68.1425C103.003 68.3429 103.046 68.5578 103.047 68.7748C103.047 68.9919 103.005 69.2069 102.922 69.4075C102.84 69.6082 102.719 69.7906 102.566 69.9443C102.413 70.0981 102.232 70.2201 102.032 70.3035C101.832 70.3869 101.618 70.43 101.402 70.4303C101.186 70.4306 100.971 70.3882 100.771 70.3055C100.571 70.2228 100.389 70.1013 100.236 69.9481L98.5608 68.2747L96.616 76.5289L99.1217 79.0201Z" fill="#251B00"/>
<path d="M39.8682 103.655H120.147L80.004 63.2324L39.8682 103.655Z" fill="#66C05D"/>
</g>
<defs>
<clipPath id="clip0_1528_18">
<rect width="102" height="83" fill="white" transform="translate(29 31)"/>
</clipPath>
</defs>
</svg>
