<svg width="160" height="160" viewBox="0 0 160 160" fill="none" xmlns="http://www.w3.org/2000/svg">
<mask id="mask0_2416_125" style="mask-type:alpha" maskUnits="userSpaceOnUse" x="21" y="21" width="118" height="118">
<path d="M80.0001 139C112.585 139 139 112.585 139 80C139 47.4152 112.585 21 80.0001 21C47.4152 21 21 47.4152 21 80C21 112.585 47.4152 139 80.0001 139Z" fill="#7141D9"/>
</mask>
<g mask="url(#mask0_2416_125)">
<path d="M108 21H53C35.3269 21 21 35.3269 21 53V108C21 125.673 35.3269 140 53 140H108C125.673 140 140 125.673 140 108V53C140 35.3269 125.673 21 108 21Z" fill="#171C8F"/>
</g>
<path fill-rule="evenodd" clip-rule="evenodd" d="M44 95.5625C49.9722 109.594 63.8869 119.421 80.1782 119.421C74.135 105.389 60.2254 95.5625 44 95.5625Z" fill="#22993C"/>
<path fill-rule="evenodd" clip-rule="evenodd" d="M80.1772 41C63.8858 41 50.7227 54.1479 50.7227 70.4139C50.7227 86.6799 63.8909 99.8277 80.1772 99.8277C96.4635 99.8277 109.632 86.6799 109.632 70.4139C109.632 54.1479 96.3974 41 80.1772 41ZM80.1772 85.1208C72.0315 85.1208 65.4499 78.5443 65.4499 70.4139C65.4499 62.2834 72.0315 55.7069 80.1772 55.7069C88.3228 55.7069 94.9044 62.2834 94.9044 70.4139C94.9044 78.5443 88.3228 85.1208 80.1772 85.1208Z" fill="#FFAE00"/>
<path fill-rule="evenodd" clip-rule="evenodd" d="M80.1738 119.42C92.1181 119.42 102.366 112.372 106.983 102.139C95.0382 102.205 84.7901 109.253 80.1738 119.42Z" fill="#22993C"/>
</svg>
