<svg width="160" height="160" viewBox="0 0 160 160" fill="none" xmlns="http://www.w3.org/2000/svg">
<path d="M80 23C48.3333 23 23 48.3333 23 80C23 111.667 48.3333 137 80 137C111.667 137 137 111.667 137 80C137 48.3333 111.667 23 80 23ZM80 128.857C52.8571 128.857 31.1429 107.143 31.1429 80C31.1429 52.8571 52.8571 31.1429 80 31.1429C107.143 31.1429 128.857 52.8571 128.857 80C128.857 107.143 107.143 128.857 80 128.857Z" fill="black"/>
<path d="M80.0004 36.5703C55.5718 36.5703 36.5718 56.4751 36.5718 79.9989C36.5718 104.427 56.4765 123.427 80.0004 123.427C104.429 123.427 123.429 103.523 123.429 79.9989C123.429 55.5703 104.429 36.5703 80.0004 36.5703ZM102.619 70.0465H82.7146V111.666H77.2861V70.0465H57.3813V66.4275H102.619V70.0465ZM102.619 59.1894H57.3813V55.5703H102.619V59.1894Z" fill="#FEBA31"/>
<path d="M102.619 70.0504H82.7146V111.669H77.2861V70.0504H57.3813V66.4314H102.619V70.0504ZM102.619 59.1933H57.3813V55.5742H102.619V59.1933Z" fill="#151515"/>
</svg>
