<svg width="160" height="160" viewBox="0 0 160 160" fill="none" xmlns="http://www.w3.org/2000/svg">
<path fill-rule="evenodd" clip-rule="evenodd" d="M79.3933 112.933H79.1327H78.4376L77.3333 112.885L75.781 112.771L74.0045 112.676L71.8121 112.556L69.5921 112.253L67.107 111.994L64.0755 111.553L61.1376 111.105L57.9346 110.45L54.6538 109.725L51.4394 108.861L48.1495 107.851L45.2345 106.682L42.0932 105.348L39.112 103.8L36.1215 102.069L33.3987 100.126L30.8976 98.0182L28.6845 95.6049L26.7275 93.0077L25.118 90.3142L24.0892 87.4117L23.3438 83.9924L23.0238 80.3596V80.2935L23 79.8915V79.3312L23.0238 78.5137L23.0914 77.5287L23.3268 76.4746L23.4878 75.1635L23.7417 73.8293L24.3748 72.2356L24.9098 70.9016L25.7947 69.1218L26.8372 67.3652L28.1998 65.6338L29.7362 64.2055L31.5491 62.3569L33.7393 60.5544L36.1215 58.8665L38.9451 57.2269L41.995 55.6103L45.5158 54.1131L49.0595 52.7308L53.4238 51.4197L58.0786 50.2945L63.3049 49.4057L68.8285 48.6825L74.823 48.1635L77.6671 48.0239L83.5177 48L87.1482 48.2596L87.2451 48.3055L88.9026 48.4914L90.1853 48.6347L91.9045 48.846L96.0128 49.4292L99.2044 50.1089L102.654 50.8553L106.084 51.8427L109.506 52.8256L112.915 53.9967L116.292 55.402L119.509 56.9957L122.423 58.6123L125.368 60.6468L128.02 62.7318L130.448 64.9569L132.433 67.4163L134.081 70.2476L135.407 73.196L136.251 76.5441L136.532 80.1976V80.2949V80.5981L136.508 81.1813V81.9781L136.435 82.9633L136.204 84.0172L135.854 85.3055L135.438 86.736L134.876 88.2791L134.174 89.5904L133.266 91.3011L132.288 92.9177L130.914 94.7204L129.375 96.5459L127.605 98.3026L125.481 100.032L123.083 101.811L120.45 103.405L117.644 105.045L114.261 106.565L110.584 107.949L106.433 109.192L101.842 110.315L96.8556 111.272L91.6795 111.995L85.7375 112.558L79.3933 112.937V112.933ZM81.4143 107.989H79.2034L72.7449 107.711L67.1299 107.385L61.5811 106.655L56.5194 105.906L52.0429 104.898L47.9209 103.798L44.5373 102.535L41.2061 101.293L38.2935 99.8417L35.6826 98.4386L33.3987 96.822L31.4554 95.2766L29.7521 93.683L28.337 92.1858L27.2899 90.5922L26.2565 89.2809L25.582 87.7607L24.9808 86.4037L24.4892 84.9249L24.3758 83.7767L24.2166 82.5848L24.1179 81.5561V80.6859V79.9624L24.1417 79.4664L24.2166 79.0968V78.9793L24.4681 75.9114L25.3963 73.0777L26.679 70.5242L28.3846 68.1131L30.4855 65.9132L32.9296 64.2485L35.449 62.4229L38.2953 60.9027L41.2744 59.5181L44.4681 58.1839L47.4311 57.201L50.6022 56.2641L53.8853 55.4215L57.2689 54.8612L60.5313 54.3193L63.6338 53.8279L66.4779 53.4788L69.251 53.1963L71.6539 53.008L73.6567 52.918L75.6845 52.8041L77.2461 52.7287H78.3709L79.1345 52.6828H79.3951L85.8994 53.0089L91.8414 53.4797L97.0699 54.18L102.143 54.9999L106.739 56.0103L110.767 57.156L114.455 58.3272L117.806 59.6844L120.543 61.0667L123.039 62.541L125.369 64.1346L127.349 65.2552L129.093 66.8718L130.538 68.4655L131.706 69.9878L132.616 71.368L133.364 72.725L133.993 74.0868L134.436 75.352L134.855 76.5415L135.113 77.5267L135.25 78.5117L135.279 78.6513L135.32 79.1198L135.347 79.8454L135.29 80.5227L134.739 83.8961L133.704 86.964L132.433 89.5634L130.681 92.0894L128.491 94.3144L126.111 96.3994L123.432 98.2481L120.56 99.9381L117.668 101.316L114.479 102.581L111.283 103.752L107.997 104.593L104.687 105.463L101.379 106.046L98.1527 106.632L95.2241 107.006L92.2794 107.406L89.6228 107.52L87.1354 107.779L84.8651 107.876L82.9836 107.988L81.4143 107.989Z" fill="#E40A1A"/>
<path fill-rule="evenodd" clip-rule="evenodd" d="M124.475 82.9346L122.82 84.5259L120.957 86.0025L118.833 87.5227L118.878 87.9681L119.507 88.6479L120.349 88.8613L121.236 88.6019L122.358 87.9681L123.193 87.3366L124.242 88.1335L124.176 88.2051L122.708 89.3992L121.163 89.9595L119.604 90.3361L118.088 90.2387L116.906 89.6784L115.9 89.07L115.296 89.2789L114.341 89.4925L113.049 89.8897L111.707 90.2617L110.166 90.45L109.05 90.2387L108.296 89.7038L107.509 89.2789L106.808 87.8047L106.76 87.7587L104.687 89.233L102.334 90.1493L101.28 90.3352L100.162 90.2617L99.1401 89.6579L98.5341 89.1159L98.1844 88.4844L97.9717 87.7587L97.8345 87.7348L97.622 87.7587L96.0125 88.9528L94.172 89.7473L92.0207 90.3582L90.3677 90.2608L89.2291 89.7258L88.2484 89.0691L87.2218 89.4203L86.2433 89.7258L85.1529 90.029L83.5181 90.4032L81.879 90.029L80.6695 89.3009L79.9927 88.0403L79.8355 86.612L79.9781 85.0873L80.1372 83.6107L80.4641 82.1594L81.1843 80.1478L82.005 78.0398L83.0018 75.7229L84.1632 73.6608L84.0754 73.569L82.2534 75.84L80.5317 78.1341L77.7837 81.9735L74.9831 85.6728L72.0933 88.7177L68.9246 91.1725L66.8944 92.5341L67.3081 92.0635L67.7379 91.4089L68.3668 90.4974L71.7434 85L74.4482 78.9056L75.477 76.4232L76.5424 73.6379L76.5003 73.6618L75.4532 74.904L74.5204 76.1693L73.7888 77.0809L73.3956 77.6436L72.0924 79.4231L71.2944 80.7803L70.3229 82.1603L69.2483 83.5221L67.801 85.1134L66.4064 86.5876L65.3069 87.7128L64.2826 88.6956L63.096 89.4925L61.6236 90.7325L59.2163 92.5121L57.3529 93.6351L55.3959 94.7373L51.6922 96.2575L47.9817 97.1944L44.2094 97.4515L41.2944 97.2654L38.5258 96.6822L35.8189 95.8395L33.2538 94.5007L30.7572 92.6752L29.2871 91.2699L28.2149 89.5614L27.465 87.8781L27.2432 85.816L27.3566 83.708L28.0082 81.5771L28.8496 79.9605L29.9172 78.5092L31.2935 77.1016L33.2825 75.4872L35.722 74.0338L39.1536 72.5871L42.3909 71.6478L45.7495 71.2712L48.6826 71.3447L52.1623 71.8131L55.3081 72.773L58.0769 74.0843L60.411 75.4643L62.8619 77.3381L65.0932 79.4461L64.2817 80.243L62.9487 79.0695L61.6937 78.112L60.5482 77.267L59.5766 76.7067L57.0502 75.4643L54.3022 74.4585L51.4605 73.8982L47.7522 73.5424L44.6954 73.5699L41.6205 74.0108L38.3808 74.881L36.7484 75.5585L34.9103 76.5389L32.9899 77.8984L31.1106 79.515L29.7068 81.3177L28.9364 82.9572L28.5935 84.7368L28.6118 86.5165L29.0325 88.2731L29.7503 89.5614L30.6648 90.7325L32.4092 92.3697L34.4393 93.4949L37.4458 94.7603L40.642 95.4146L44.0232 95.512L47.5441 95.0435L51.1541 94.0607L54.5606 92.6761L57.3063 91.3649L59.7824 89.7482L61.9702 88.274L64.1376 86.4026L66.7783 83.8262L68.9639 81.1784L71.2935 78.1359L72.9328 75.6788L77.2652 69.9151L77.8733 69.1182L78.8747 68.0665L80.1345 66.7576L81.5359 65.2099L83.0493 64.1582L84.6817 62.7276L86.1519 61.6276L89.0667 59.7287L92.1623 58.1855L88.9868 61.3704L86.1519 64.6933L83.5798 68.2089L82.6539 69.706L81.8766 71.2721L81.1609 72.7028L80.6969 73.8256L79.5514 76.7076L79.599 76.6855L84.304 70.9218L89.1348 65.2567L90.8083 63.8997L92.443 62.4231L94.1691 61.1349L96.0782 59.9431L96.309 59.7777L96.6635 59.5918L96.7732 59.4742L97.6877 59.0288L98.4626 58.7945L98.2227 59.0288L97.7608 59.5914L96.572 60.9255L95.4265 62.3792L94.3291 63.8764L93.4238 64.8821L89.4389 71.0868L86.1513 78.0192L85.4768 79.916L84.8458 82.1388L84.448 84.5064L84.3748 85.3031L84.4736 86.3319L84.7754 87.2458L85.4086 87.9463L85.9847 88.1346L86.6386 87.9279L87.4366 87.6432L87.4805 87.4999L87.6633 85.6053L88.2715 83.7545L89.1768 82.0461L90.3017 80.6178L91.8152 79.4237L93.4247 78.4868L94.6799 77.9494L95.8892 77.736L97.0667 77.8095L98.2944 78.3238L98.7882 79.2332L98.6894 80.2435L98.063 81.4376L97.0113 82.7487L95.9847 83.8258L94.8462 84.8545L93.0058 86.331L91.09 87.6193L91.1357 88.1337L91.6935 88.5792L92.6034 88.671L93.7488 88.3701L94.8462 87.7134L95.9619 86.8453L97.1004 85.8625L98.0859 84.9234L98.2468 84.7599L98.3639 84.1996L98.5102 83.4488L98.9949 81.9976L99.5298 80.6863L100.015 79.3522L101.119 77.2442L102.401 74.973L104.034 72.5873L105.778 70.2886L107.509 68.1806L108.533 67.1748L109.809 65.9142L111.331 64.8809L113.08 63.898L113.846 63.6868H114.571L115.319 64.038L115.758 64.6742V65.2091L115.433 66.4056L113.963 69.2828L112.143 71.9535L110.229 74.6677L108.135 77.1983L102.653 83.2835L101.958 85.0884L101.773 86.2617L101.84 87.4995L102.277 87.945H103.189L104.051 87.6878L104.886 87.0816L105.683 86.5167L106.504 85.8622L107.06 85.2284L108.742 80.3121L110.86 75.5587L113.519 71.3219L114.634 69.9373L115.917 68.4631L117.222 67.0348L118.621 65.7465L119.673 64.9268L120.581 64.4605L121.678 63.898L122.675 63.6868L123.521 63.944L123.987 64.4354L124.077 64.9519L123.821 66.4515L123.169 67.9258L122.938 68.5366L122.662 69.1175L122.284 69.7742L121.679 70.8994L120.908 71.9305L120.213 73.1476L119.459 74.4127L118.672 75.4874L115.405 79.3109L111.839 82.8426L111.05 83.8254L110.677 85.0195L110.584 86.3306L110.608 87.3364L111.188 88.2044L111.799 88.4845H112.588L113.34 88.3927L114.428 87.9266L115.336 87.3364L115.669 84.9001L116.531 82.9345L117.908 81.1088L119.444 79.6116L121.047 78.5094L122.96 77.7861L124.453 77.6208L125.413 77.9215L126.108 78.6955L126.346 79.5381L126.108 80.381L125.759 81.1777L125.368 81.8827L124.475 82.9346ZM58.0598 89.4216L56.6356 89.4933L55.3096 89.2796L54.6786 88.6023L54.631 87.7365L55.4266 85.5344L56.2383 83.284L56.0119 82.8661L55.5638 82.8422L54.91 83.0511L54.535 83.3336L54.3741 83.5219L54.2351 83.9169L53.5148 85.7929L52.7923 87.5726L52.1637 89.2787L52.1399 89.3981H49.0581L49.3346 88.7184V88.6247L49.1495 88.7184L47.5949 89.3981L46.0082 89.4202L45.4435 89.1859L44.8856 88.6005L44.0238 89.0689L42.7366 89.4202H41.2688L40.1326 88.9517L39.4947 88.0631L39.177 86.915L39.2885 85.769L39.6156 84.7862L39.3824 84.6429L39.2379 84.7568L38.3554 86.2586L37.425 87.7558L36.1972 89.0441L34.6928 89.7238L33.6207 89.8634L32.697 89.4892L32.178 88.8577L32.0847 87.8013L32.2017 86.7496L32.5059 85.7898L33.3244 83.5853L33.4433 82.9539L33.2823 82.5795L32.9257 82.5097L32.178 82.953L31.547 83.798L30.7354 83.3526L30.7556 83.1891L31.11 82.7206L31.8736 81.6643L32.9253 81.0076L33.9541 80.5437L35.2092 80.5162L36.0712 81.0351L36.5215 81.9009L36.4209 83.258L35.9843 84.7092L35.5133 85.9975L35.2823 86.8402L35.114 87.6371L35.3771 87.846L35.7679 87.6825L36.0081 87.4023L37.1945 85.8568L37.9398 84.6168L38.3102 83.5835L38.1493 83.0232L37.9389 82.5547L37.6807 81.5719L38.0532 80.6809L38.3803 80.3756H38.9198L39.3816 80.7981L39.6148 81.4319L39.7063 82.1322L39.8526 82.8373L40.1474 83.2344L40.8242 83.1885L41.2929 82.9062L41.8096 82.4147L42.1365 82.0404L43.0213 81.363L43.9495 80.7981L44.9372 80.5891L45.934 80.6809L46.8896 81.3125L47.0085 81.1729L47.0488 80.6815H48.377H50.0346L49.945 80.9846L47.9172 86.7713L47.8623 86.8632L47.7507 87.0539L48.0503 87.4947L48.871 87.2168L49.4517 86.7254L50.1467 86.1146L50.3845 85.692L50.5509 85.6002L52.3409 80.6815H55.6057L55.3063 81.4095V81.4536L56.4242 81.1505L57.5902 80.9852L58.6647 81.1735L59.2134 81.8785L59.3579 82.7212L59.1269 83.4446L58.7062 84.5698L58.3084 85.7661L57.8215 86.935V87.3322L58.0752 87.6836L58.6331 87.5183L59.1269 87.1003L59.575 86.6754L59.9935 86.3264L60.0355 86.067L61.222 87.0039L60.3395 88.0372L59.2948 88.9488L58.0578 89.4172L58.0598 89.4216ZM46.1897 82.3743L45.6525 81.9518L44.6808 82.2549L43.8577 83.0517L43.2039 83.9175L42.8359 84.7142L42.4792 85.6052L42.2756 86.5169L42.5798 87.5227L43.4669 87.805L44.2098 87.4078L44.8637 86.7303L45.3553 86.0255L45.6318 85.4881L45.7928 85.1826L45.9373 84.7601L46.1452 83.9175L46.2367 83.0976L46.1897 82.3743ZM121.466 67.035L121.777 66.4058V65.7467L121.236 65.5813L120.278 66.3782L119.443 67.2944L118.673 68.4174L118.067 69.283L115.246 74.0341L113.035 78.978L116.951 74.2476L120.349 69.3543L121.466 67.035ZM96.0571 79.5383L95.9218 79.2835L95.549 79.12L94.5934 79.492L93.7018 80.3119L92.8879 81.3177L92.2775 82.2362L91.6328 83.9171L91.1115 85.6048L91.1646 85.6287L93.4258 83.8721L94.9347 82.2555L95.2387 81.9524L95.776 81.2038L96.08 80.3817L96.0571 79.5383ZM112.937 67.035L113.122 66.4058V65.7467L112.637 65.5813L111.562 66.3782L110.607 67.2944L109.88 68.4174L109.347 69.283L106.59 74.0341L104.338 78.978H104.362L108.324 74.2476L111.657 69.3543L112.937 67.035ZM123.522 79.6118L123.263 79.3754L122.939 79.3111L121.846 79.5888L120.934 80.3811L120.278 81.3685L119.674 82.3238L119.116 84.0139L118.673 85.674L118.74 85.6979L120.748 83.9184L122.284 82.3753L122.661 82.0238L123.128 81.3189L123.521 80.4991L123.522 79.6118Z" fill="#E40A1A"/>
</svg>
