<svg width="160" height="160" viewBox="0 0 160 160" fill="none" xmlns="http://www.w3.org/2000/svg">
<path d="M132.213 79.3097C130.623 78.6571 120.883 75.896 120.883 75.896C124.146 75.7203 125.444 73.2771 125.444 73.2771C122.364 74.1222 117.711 74.4987 113.795 73.9465C113.795 73.9465 122.841 77.8539 131.82 86.3799L131.837 86.3129C132.088 84.2463 132.222 82.1294 132.222 79.9958L132.213 79.3097ZM96.3975 129.47C98.1716 125.362 100.096 115.589 98.046 108.05C98.046 108.05 98.4393 125.822 86.2385 131.704C89.6611 131.277 93.1757 130.516 96.3724 129.47H96.3975ZM128.749 98.6961C123.343 94.3285 113.895 86.5137 102.339 83.8195C102.339 83.8195 118.808 90.3876 124.674 106.979C126.297 104.344 127.619 101.616 128.749 98.6961ZM116.49 117.279C114.28 109.941 108.238 105.256 104.9 101.215C103.51 99.5579 101.502 97.2319 101.502 97.2319C103.46 98.3614 107.184 98.9136 107.184 98.9136C106.163 98.0686 103.828 95.2824 102.9 94.1612C100.305 91.0319 95.8117 87.568 92.4728 86.0452C85.887 83.0749 79.0335 82.6984 78.113 82.5227C77.1841 82.3302 75.2259 82.6984 76.4393 80.8409C77.6444 78.975 84.7322 73.4696 84.7322 73.4696C83.2343 73.4696 76.7155 74.0301 74.7573 74.3146C72.7992 74.5907 72.3389 73.9465 72.2385 72.6329C72.2385 72.6329 68.3054 76.3394 70.1967 78.2304C70.4644 78.5065 71.3013 78.5985 72.3389 78.13C73.3515 77.6698 75.4017 77.0255 76.1632 76.9251C76.1632 76.9251 74.4728 79.5356 74.113 80.6484C73.728 81.7696 73.636 82.3302 75.4017 82.8908C77.1841 83.443 86.1213 86.246 91.6276 89.9609C97.1255 93.6926 102.808 98.4451 107 107.205C111.192 115.974 108.883 122.626 108.23 123.839C111.243 121.906 113.971 119.722 116.531 117.237L116.49 117.279ZM110.28 42.1769L110.556 42.1853C110.749 43.9675 110.791 45.9588 110.632 46.921C110.439 48.0422 109.895 48.1342 109.05 47.674C108.213 47.1971 107.929 47.013 107.46 46.921L106.908 47.674C107.276 48.3183 107.929 50.1842 107.661 51.4894C107.661 51.4894 105.552 47.4983 103.084 45.5154C101.552 44.3105 104.423 44.6285 105.042 44.687C107 44.8795 107.184 45.1556 107.828 45.3396C108.456 45.5154 109.778 45.85 110.28 42.1769ZM88.6402 37.9767C82.3054 45.2476 78.205 55.3131 78.205 55.3131C78.8577 54.9366 80.1548 54.6438 81.0921 54.284C82.0377 53.9158 82.3054 54.7525 82.1046 55.3131C81.2176 57.9906 79.9791 61.9314 80.4393 63.6969C80.8996 65.4623 85.2845 66.4915 85.2845 66.4915C84.4561 66.5835 79.7029 66.801 78.5816 67.052C77.4352 67.3198 75.5858 67.4955 75.9623 65.2782C76.4226 62.6008 77.8285 57.7312 77.8285 57.7312C76.5314 58.1161 73.8285 59.413 72.8912 59.9652C71.954 60.5174 71.6862 60.4421 71.954 59.7811C75.728 50.9874 83.6862 41.6163 88.5398 37.7006L88.6402 37.9767ZM92.1799 31.7349C91.9875 32.4879 92.0962 32.6636 92.5481 32.8561L92.3724 33.5924C91.7197 33.6844 90.2218 33.9438 88.7741 34.4542C87.6025 34.8641 87.4268 34.1613 87.7029 33.6844C89.9289 29.9862 93.2092 28.0116 93.954 27.5514L94.6904 27.6434C93.6695 28.8566 92.3724 30.9902 92.1799 31.7349ZM51.2427 90.8227C51.3431 88.6473 52.2636 82.782 55 80.2803C57.8368 77.6698 65.2678 75.8039 68.205 75.2434C68.205 75.2434 67.4686 73.5449 68.3222 72.4488C69.5858 70.8758 73.728 67.8804 98.3306 67.8804C98.3306 67.8804 96.9749 68.9597 96.4226 69.7881C96.4226 69.7881 106.004 70.3319 111.368 73.0094C112.213 73.4277 113.895 73.5616 114.456 69.7881L112.916 68.8175L113.192 67.5541L112.632 67.0018L111.937 67.5541C111.937 67.5541 110.548 68.1147 110.389 67.2863C110.255 66.4329 108.724 64.3411 105.644 63.9312C105.644 63.9312 107.184 61.8394 110.724 62.2996L111.753 63.0359C112.49 62.7598 113.527 62.1071 113.619 62.9522C113.711 63.7805 114.071 65.1778 116.029 63.0359C116.029 63.0359 117.987 64.065 119.762 63.4124C121.536 62.7598 122.799 61.6219 123.218 58.752L123.77 57.363C124.239 56.8025 124.598 56.016 123.77 55.3299C122.657 54.376 119.201 52.4265 117.803 51.6735C116.406 50.9288 113.987 50.0921 113.795 44.595C113.619 39.0979 111.753 36.2112 104.95 30.1535L105.042 31.919C105.042 31.919 102.9 29.5093 97.9707 28.2877C97.9707 28.2877 98.5146 26.1206 98.6569 24.7903C98.7741 23.7862 97.9707 22.7236 96.2887 23.1085C94.4561 23.5352 88.0293 25.9114 85.795 26.4804C83.5607 27.0326 68.841 32.1114 59.9372 40.5872C59.9372 40.5872 61.8452 35.3076 66.1715 29.8607C62.8828 30.7727 59.954 31.8855 56.9498 33.3916C52.205 39.8258 46.2385 52.4683 46.2385 63.0777C46.2385 63.0777 43.3849 54.3593 45.7531 40.947L45.7029 40.9804C42.6569 43.683 39.9791 46.6449 37.6276 49.9917C37.0586 57.5388 37.0251 67.5541 43.1674 81.5353C43.1674 81.5353 36.9498 77.0674 31.2929 62.0318L31.2678 62.1155C29.4937 66.9349 28.431 71.9719 28.1799 77.3435C33.2092 86.5723 40.7908 95.7927 56.0293 104.034C56.0293 104.034 43.5272 102.227 29.4017 91.5925C30.7322 97.3741 32.9414 102.721 36.0293 107.607C43.7029 110.954 55.6025 115.28 72.6569 114.292C72.6569 114.292 63.4352 119.522 44.5649 117.974C44.5649 117.974 47.8536 122.023 56.5314 126.182C64.3724 129.939 74.5732 127.596 77.9874 125.328C82.0962 122.617 86.5565 115.982 84.3891 107.674C84.3891 107.674 82.7239 110.878 78.6653 112.15C78.6653 112.15 81.887 109.632 81.887 105.013C81.887 100.411 78.0962 97.3072 73.3515 96.9056C69.5774 96.5876 63.2929 97.0394 61.3347 97.0394C59.3766 97.0394 56.7238 97.0394 54.8996 94.8138C54.8996 94.8138 57.5607 94.7301 60.3557 94.1193C62.6151 93.6173 67.3431 91.8686 70.1464 92.0192C70.1464 92.0192 69.159 90.7223 66.9247 90.7642C65.5272 90.7809 65.2343 91.2244 64.272 91.467C62.9582 91.7933 60.6151 91.877 59.2343 89.2748C59.2343 89.2748 61.2008 90.8144 62.8745 90.3374C64.2803 89.9442 64.4142 89.3669 64.9665 88.9485C65.5272 88.5218 66.5481 88.1537 67.5356 88.1537C68.5146 88.1537 69.4435 88.3879 70.2803 89.0824C71.1172 89.7852 72.7992 89.6346 71.8285 88.664C70.841 87.6851 69.4435 86.7313 67.3431 86.6978C63.8117 86.6727 57.4184 87.4006 55.1841 88.5218C53.6192 89.3083 52.4226 90.2956 51.8619 90.9984L51.2427 90.8227ZM100.423 25.8529L100.188 24.5392C122.841 32.7724 139 54.4932 139 79.9874C139 112.585 112.582 139 79.9958 139C47.41 139 21 112.585 21 79.9874C21 47.4063 47.41 21 79.9958 21C84.1548 21 88.1967 21.4267 92.1046 22.2383L90.0879 23.0248C86.8243 22.4559 83.4435 22.1546 79.9958 22.1546C48.0544 22.1546 22.1548 48.0422 22.1548 79.9874C22.1548 111.941 48.0544 137.837 79.9958 137.837C111.946 137.837 137.845 111.941 137.845 79.9874C137.845 55.2295 122.289 34.1111 100.423 25.8529Z" fill="#00011A"/>
</svg>
