<svg width="160" height="160" viewBox="0 0 160 160" fill="none" xmlns="http://www.w3.org/2000/svg">
<path d="M80.0002 17C67.4002 17 55.4302 20.78 45.0352 27.71C34.6402 34.64 26.4502 44.405 21.7252 56.06C17.0002 67.4 15.7402 80 18.2602 92.285C20.7802 104.57 26.7652 115.595 35.5852 124.415C44.4052 133.235 55.7452 139.22 67.7152 141.74C79.6852 144.26 92.6002 143 104.255 138.275C115.91 133.55 125.675 125.36 132.605 114.965C139.22 104.57 143 92.6 143 80C143 63.305 136.385 47.24 124.415 35.585C112.76 23.615 96.6952 17 80.0002 17ZM80.0002 136.385C68.9752 136.385 57.9502 132.92 48.8152 126.935C39.6802 120.635 32.4352 111.815 28.0252 101.735C23.6152 91.655 22.6702 80 24.8752 69.29C27.0802 57.95 32.4352 48.185 40.3102 40.31C48.1852 32.435 58.2652 27.08 69.2902 24.875C80.3152 22.67 91.6552 23.93 101.735 28.025C111.815 32.12 120.95 39.68 126.935 48.815C133.235 57.95 136.385 68.975 136.385 80.315C136.385 95.12 130.4 109.61 119.69 120.005C109.295 130.715 94.8052 136.385 80.0002 136.385Z" fill="#414042"/>
<path d="M93.8596 102.364C99.2146 108.034 98.2696 118.429 96.6946 123.154C96.6946 123.469 96.6946 123.469 96.3796 123.784C96.3796 124.099 96.0646 124.099 95.7496 124.099C92.9146 125.044 89.1346 125.989 87.5596 126.304C95.7496 119.059 97.0096 108.664 93.8596 102.364ZM123.47 95.7492C116.855 90.0792 108.665 85.9842 100.16 84.0942C108.98 88.5042 115.91 95.4342 120.32 104.254C121.895 101.734 123.155 99.2142 124.1 96.6942V96.0642C123.785 96.0642 123.785 95.7492 123.47 95.7492ZM126.935 80.3142C126.935 79.9992 126.935 79.6842 126.62 79.6842C124.1 78.7392 121.265 77.7942 118.745 76.8492C119.375 76.5342 120.005 76.2192 120.32 75.5892C120.635 74.9592 120.95 74.6442 121.265 73.6992C118.43 74.9592 115.28 75.5892 112.445 75.5892C117.8 77.7942 122.84 80.6292 127.25 84.0942C126.935 82.8342 126.935 81.5742 126.935 80.3142Z" fill="#414042"/>
<path d="M101.42 97.0098C103.31 97.6398 105.2 97.6398 107.09 97.0098C99.5296 95.1198 95.1196 84.0948 77.4796 82.5198C76.8496 82.5198 74.9596 82.8348 75.9046 80.9448C78.4246 78.4248 80.9446 76.2198 83.7796 74.3298C82.5196 74.3298 76.5346 74.9598 74.9596 74.9598C73.3846 74.9598 72.7546 74.6448 72.7546 73.3848C72.7546 73.3848 69.2896 76.5348 70.8646 78.4248C71.1796 78.7398 71.8096 78.7398 72.7546 78.4248C73.6996 78.1098 74.9596 77.7948 75.9046 77.4798H76.2196V77.7948L74.3296 80.6298C74.0146 81.5748 73.6996 82.2048 75.5896 82.5198C80.6296 84.0948 85.6696 86.2998 90.3946 89.1348C95.4346 92.2848 99.5296 96.3798 102.365 101.735C105.2 106.775 106.46 112.76 106.46 118.43C108.665 116.855 111.185 114.965 113.075 113.075C113.39 112.76 113.39 112.13 113.39 112.13C110.87 106.145 106.775 100.79 101.42 97.0098Z" fill="#414042"/>
<path d="M120.95 58.8959C120.005 58.2659 114.965 55.1159 113.705 54.4859C112.76 53.8559 111.815 53.2259 111.185 52.2809C110.555 51.3359 110.24 50.0759 110.24 49.1309C110.555 45.9809 108.35 41.5709 102.365 36.2159V37.7909C100.475 36.2159 98.2696 34.9559 95.7496 34.6409C95.7496 34.6409 96.3796 32.7509 96.3796 31.4909C96.3796 30.2309 95.7496 28.9709 94.1746 29.9159C86.6146 33.0659 74.3296 33.0659 61.4146 45.6659C62.9896 41.5709 65.8246 37.7909 69.2896 34.9559C66.1396 35.5859 62.9896 36.8459 59.8396 38.1059C58.8946 38.4209 58.2646 39.3659 57.6346 39.9959C52.9096 47.2409 49.7596 55.4309 48.4996 63.9359C47.2396 57.9509 47.5546 51.6509 48.4996 45.3509C45.9796 47.5559 43.4596 50.3909 41.5696 53.2259C40.9396 54.1709 40.3096 55.1159 40.3096 56.3759C40.3096 65.5109 42.1996 74.3309 45.6646 82.5209C40.6246 78.4259 36.8446 69.9209 34.9546 65.1959C33.6946 68.9759 32.7496 73.0709 32.4346 77.1659C32.4346 78.7409 33.0646 80.6309 34.0096 81.8909C39.0496 90.7109 46.6096 97.9559 55.4296 102.996C50.0746 102.366 39.3646 96.3809 34.0096 91.9709C34.9546 96.0659 36.5296 99.8459 38.4196 103.311C39.3646 104.886 40.6246 106.146 42.5146 106.776C51.3346 111.501 61.0996 114.021 71.1796 113.391C63.6196 116.226 55.4296 116.541 47.5546 114.651C48.8146 115.911 50.3896 117.171 51.9646 118.431C55.4296 120.951 59.5246 122.841 63.6196 123.786C73.6996 125.676 86.2996 118.431 83.1496 105.201C82.5196 106.461 81.8896 107.406 80.9446 108.351C79.9996 109.296 78.7396 109.926 77.4796 110.241C82.5196 105.201 81.8896 97.3259 73.3846 96.3809C69.6046 96.0659 66.1396 96.0659 62.3596 96.3809C61.4146 96.3809 60.1546 96.3809 59.2096 96.0659C58.2646 95.7509 57.3196 95.1209 56.6896 94.4909L61.7296 93.8609C64.5646 92.6009 67.3996 91.9709 70.5496 91.9709C70.2346 91.3409 69.2896 90.0809 65.1946 91.3409C64.5646 91.6559 63.6196 91.6559 62.9896 91.3409C62.3596 91.0259 61.7296 90.7109 61.0996 90.0809C65.1946 91.0259 66.4546 86.6159 70.2346 89.1359C70.8646 89.7659 72.1246 89.7659 71.8096 88.5059C71.4946 87.8759 70.8646 87.2459 70.5496 86.9309C69.9196 86.6159 69.2896 86.3009 68.3446 86.6159C64.5646 85.9859 60.7846 86.3009 57.3196 87.5609C55.7446 88.1909 54.4846 89.4509 53.2246 90.3959C53.2246 88.5059 53.5396 83.1509 56.0596 80.6309C59.8396 78.4259 63.9346 76.8509 68.3446 76.5359C68.0296 76.2209 68.0296 75.5909 68.0296 75.2759C68.0296 74.9609 68.0296 74.3309 68.3446 74.0159C69.6046 72.4409 73.3846 69.9209 95.4346 69.9209L93.5446 71.8109C98.2696 72.1259 102.995 73.0709 107.405 74.6459C108.035 74.9609 109.295 75.2759 110.555 72.7559C111.185 72.1259 110.555 72.1259 109.295 71.1809C109.61 70.8659 109.61 70.2359 109.61 69.9209C109.61 69.2909 108.98 69.2909 108.98 69.6059C108.35 70.2359 106.775 70.2359 106.46 69.2909C106.145 68.3459 105.515 67.7159 104.885 67.4009C104.255 66.7709 103.31 66.4559 102.365 66.4559C102.995 65.8259 103.94 65.1959 104.885 65.1959C105.83 64.8809 106.775 64.8809 107.72 65.1959C107.72 65.1959 108.035 66.1409 108.665 65.8259C109.295 65.5109 109.925 64.8809 110.555 65.5109C110.87 65.8259 110.87 66.4559 110.87 66.7709C110.555 67.4009 110.87 67.4009 111.5 67.0859L112.76 65.8259C113.705 66.1409 114.65 66.1409 115.595 65.8259C116.54 65.5109 117.17 64.8809 117.8 64.2509C118.43 63.6209 118.745 62.6759 119.06 61.7309C120.635 60.7859 121.58 59.2109 120.95 58.8959ZM78.7396 57.9509L81.5746 57.0059C82.5196 56.6909 83.4646 56.6909 82.5196 57.6359C80.3146 60.7859 80.3146 67.0859 83.4646 68.3459C81.5746 68.3459 79.3696 68.6609 77.4796 68.9759C77.1646 66.1409 77.4796 62.9909 78.1096 60.1559C76.8496 60.7859 75.2746 61.4159 74.6446 61.7309C74.3296 55.7459 79.6846 45.6659 86.2996 43.1459C82.2046 46.9259 79.3696 52.2809 78.7396 57.9509ZM92.9146 33.3809C92.2846 34.6409 90.3946 36.5309 91.0246 38.1059C90.0796 38.4209 88.8196 38.7359 87.8746 39.3659C87.2446 39.9959 86.9296 39.3659 87.2446 38.7359C88.1896 36.5309 90.0796 34.6409 92.2846 33.0659C93.2296 32.4359 93.5446 33.0659 92.9146 33.3809ZM107.09 50.7059C106.775 51.6509 106.775 51.9659 105.83 51.6509C105.515 51.3359 104.885 51.3359 104.255 51.0209C103.625 50.7059 103.625 50.7059 103.625 51.3359C104.255 52.2809 104.57 53.5409 104.255 54.8009C102.995 52.5959 101.735 50.3909 99.8446 48.8159C101.42 48.5009 103.31 48.8159 104.885 49.4459C105.515 49.7609 106.46 49.7609 106.775 46.6109C107.72 47.8709 107.72 49.4459 107.09 50.7059Z" fill="#414042"/>
</svg>
