<svg width="160" height="160" viewBox="0 0 160 160" fill="none" xmlns="http://www.w3.org/2000/svg">
<path d="M129 79.5C129 70.0863 126.316 60.8678 121.262 52.9258C116.208 44.9837 108.994 38.6473 100.467 34.6599C91.9395 30.6725 82.4518 29.1994 73.1167 30.4133C63.7817 31.6273 54.9863 35.4779 47.7622 41.5137C40.5381 47.5494 35.1849 55.52 32.3305 64.4905C29.476 73.4609 29.2387 83.0594 31.6463 92.16C34.0539 101.261 39.0066 109.486 45.9236 115.871C52.8405 122.257 61.4348 126.537 70.6985 128.211L70.6985 114C64.0944 112.807 60.4944 109.981 55.5633 105.429C50.6322 100.877 47.1014 95.0132 45.385 88.5253C43.6686 82.0375 43.8378 75.1947 45.8727 68.7997C47.9077 62.4046 51.724 56.7224 56.8741 52.4195C62.0241 48.1166 68.2944 45.3714 74.9494 44.506C81.6044 43.6406 88.3681 44.6908 94.4474 47.5334C100.527 50.376 105.669 54.8932 109.272 60.5552C112.875 66.2171 114 72.789 114 79.5H129Z" fill="#F00000"/>
<path d="M75 61.5H90V129H75V61.5Z" fill="#0ABE0A"/>
<path d="M94.5 73.5H109.5V129H94.5V73.5Z" fill="#0032F0"/>
<path d="M114 82.5H129V129H114V82.5Z" fill="#F00000"/>
</svg>
