<svg width="160" height="160" viewBox="0 0 160 160" fill="none" xmlns="http://www.w3.org/2000/svg">
<path d="M78.1536 124C100.972 124 119.471 105.508 119.471 82.6979C119.471 59.8878 100.972 41.3965 78.1536 41.3965C55.3347 41.3965 36.8364 59.8878 36.8364 82.6979C36.8364 105.508 55.3347 124 78.1536 124Z" fill="#0056B1"/>
<path d="M47.0386 82.6679C47.0386 76.4533 51.7254 72.2215 57.773 72.2215C59.5045 72.1664 61.2168 72.599 62.7139 73.4702C64.211 74.3414 65.4327 75.616 66.2397 77.1485L62.5507 78.962C62.0978 78.0906 61.4174 77.3577 60.5814 76.8416C59.7457 76.3255 58.7856 76.0451 57.8033 76.03C54.1747 76.03 51.4835 78.8412 51.4835 82.6799C51.4835 86.5188 54.1445 89.3297 57.8033 89.3297C58.7865 89.3189 59.7482 89.0399 60.5846 88.5233C61.4212 88.0067 62.1008 87.2719 62.5507 86.3977L66.2397 88.2115C64.7883 90.7202 62.2483 93.1686 57.773 93.1686C51.7254 93.0959 47.0386 88.8644 47.0386 82.6679Z" fill="white"/>
<path d="M83.2643 92.7333L82.0548 89.3176H73.3765L72.1065 92.7333H67.208L75.0094 72.5723H80.3795L88.1507 92.7333H83.2643ZM77.7006 76.8643L74.5558 85.5212H80.8453L77.7006 76.8643Z" fill="white"/>
<path d="M90.606 92.7333V72.5723H94.8938V88.9549H103.427V92.7333H90.606Z" fill="white"/>
<path d="M106.989 92.7333V72.5723H111.282V88.9549H119.816V92.7333H106.989Z" fill="white"/>
<path d="M90.2786 34.8411C97.5819 36.7163 104.347 40.2694 110.035 45.2176C115.723 50.166 120.178 56.3728 123.044 63.3446L128.257 63.3808C125.202 55.0719 120.124 47.6548 113.481 41.8001C106.839 35.9454 98.8413 31.8375 90.2119 29.8477L90.2786 34.8411Z" fill="#0056B1"/>
<path d="M90.5938 23.9496C100.799 25.6888 110.357 30.1134 118.285 36.7688C126.213 43.424 132.225 52.07 135.703 61.8174L144 61.8657C140.323 49.9802 133.368 39.372 123.933 31.2591C114.499 23.1462 102.966 17.8574 90.6602 16L90.5938 23.9496Z" fill="#0056B1"/>
</svg>
