<svg width="160" height="160" viewBox="0 0 160 160" fill="none" xmlns="http://www.w3.org/2000/svg">
<path opacity="0.99" fill-rule="evenodd" clip-rule="evenodd" d="M44.7993 28H45.1825C46.1578 28.6388 47.1477 29.2615 48.1522 29.8681C62.1968 37.9422 76.2152 46.0052 90.2073 54.0569C90.2156 54.1523 90.1836 54.2321 90.1115 54.2964C89.4223 54.6444 88.7677 55.0434 88.1477 55.4939L88.0519 55.3981C87.7922 55.5465 87.5847 55.7381 87.4292 55.9729C73.3515 64.1618 59.2373 72.3046 45.0867 80.4012C45.0103 80.445 44.9784 80.5089 44.9909 80.5928C44.9582 80.6731 44.8943 80.7051 44.7993 80.6886V28ZM53.0379 42.5612C59.8243 46.4254 66.594 50.3212 73.347 54.2485C66.6004 58.1529 59.8467 62.0487 53.0858 65.9358C53.0379 58.1443 53.0219 50.3528 53.0379 42.5612ZM90.4941 54.3457C105.499 62.8739 120.476 71.4798 135.423 80.1631C135.547 80.2101 135.675 80.2261 135.806 80.211C135.85 80.5875 135.69 80.827 135.327 80.9295C120.777 89.3199 106.216 97.7022 91.6437 106.076C91.5717 105.974 91.4759 105.958 91.3563 106.028C91.0515 106.229 90.7322 106.404 90.3983 106.555C90.3328 105.927 90.2689 105.305 90.2067 104.687C90.2738 90.0549 90.2738 75.4139 90.2067 60.7641C90.2856 58.6607 90.3335 56.5532 90.3504 54.4415C90.3871 54.3882 90.435 54.3563 90.4941 54.3457ZM99.8823 69.4817C106.215 73.1959 112.57 76.8841 118.946 80.5463C112.222 84.3679 105.516 88.2157 98.8285 92.0899C98.7694 92.1006 98.7215 92.1325 98.6848 92.1857C98.6209 84.3942 98.6209 76.6026 98.6848 68.8111C99.0663 69.0736 99.4655 69.2971 99.8823 69.4817ZM48.1522 82.2695C47.0931 81.7081 46.0393 81.1494 44.9909 80.5931C44.9582 80.6733 44.8943 80.7053 44.7993 80.6889V132.994C44.9309 133.01 45.0586 132.993 45.1825 132.946C59.8306 124.489 74.4557 116.011 89.0578 107.512C89.3038 107.196 89.6231 106.973 90.0157 106.842C90.0872 106.723 90.1191 106.595 90.1115 106.458C76.0965 98.4666 62.11 90.4036 48.1522 82.2695ZM53.4211 95.298C53.2748 95.1991 53.1471 95.0873 53.0379 94.9627C53.006 102.786 53.0379 110.61 53.1337 118.433C59.8441 114.503 66.5819 110.623 73.347 106.794C66.7578 102.891 60.1158 99.0587 53.4211 95.298Z" fill="#E10F2D"/>
</svg>
