<svg width="160" height="160" viewBox="0 0 160 160" fill="none" xmlns="http://www.w3.org/2000/svg">
<path d="M121.229 40.1381C115.025 33.2289 107.123 34.9326 105.403 41.5479C97.591 37.204 88.9687 34.9692 80.2372 35.0244C71.5047 35.0795 62.9072 37.423 55.1403 41.8653C53.662 34.9209 45.5596 32.9233 39.1864 40.0205C33.2678 46.6123 34.4386 54.5909 39.3555 57.188C23.0765 83.509 39.7565 116.891 71.4606 122.566C71.2175 123.449 71.1686 124.386 71.3181 125.295C71.469 126.203 71.8141 127.06 72.3241 127.788C72.8354 128.517 73.4963 129.098 74.2508 129.481C75.0067 129.865 75.8339 130.04 76.6624 129.993C112.535 127.901 141.283 88.4785 121.597 57.0118C126.228 54.0156 126.734 46.2722 121.228 40.1388L121.229 40.1381ZM76.3991 124.434C76.3601 124.45 76.3167 124.449 76.279 124.43C76.2399 124.411 76.2105 124.376 76.195 124.333C76.1797 124.29 76.1797 124.24 76.196 124.199C76.2128 124.155 76.2435 124.122 76.2827 124.104C78.113 123.183 79.8413 122.027 81.4314 120.661C81.6759 120.458 81.8576 120.175 81.9484 119.851C82.0406 119.526 82.0378 119.178 81.94 118.856C81.8421 118.534 81.6563 118.254 81.4076 118.056C81.1589 117.859 80.8613 117.756 80.5553 117.759C45.5798 117.759 25.9778 81.6162 46.2457 56.4233C46.7501 55.7887 47.0212 54.9648 47.003 54.1171C46.9862 53.2694 46.6817 52.4604 46.1507 51.8524L45.7609 51.4177C40.3579 54.9427 38.0273 49.1734 42.722 43.9444C47.4166 38.7157 52.5332 41.3478 49.4314 47.3284L50.4877 48.5035C50.9628 49.0391 51.5887 49.3768 52.2608 49.4602C52.9329 49.5436 53.6106 49.3677 54.1793 48.9618C69.4884 37.858 91.1704 37.858 106.595 48.7268C109.021 50.4423 110.815 47.5518 110.985 47.4578C107.818 41.4416 112.999 38.845 117.694 44.0736C122.389 49.3025 120.026 55.0012 114.655 51.5469C114.12 52.1578 113.814 52.9735 113.8 53.8277C113.786 54.6817 114.065 55.5094 114.582 56.1412C137.213 83.6843 110.372 122.459 76.3991 124.434Z" fill="#E45F5F"/>
<path d="M79.9891 46.6309C75.2939 46.6309 70.7041 48.0231 66.8001 50.6317C62.8944 53.2401 59.8523 56.9479 58.0538 61.2859C56.2567 65.624 55.7863 70.3975 56.7019 75.0036C57.6161 79.6091 59.876 83.8396 63.1957 87.1616C66.5153 90.482 70.746 92.7444 75.3505 93.6625C79.9566 94.5792 84.7306 94.1116 89.0682 92.3155C93.4073 90.5207 97.1172 87.4788 99.7277 83.5762C102.338 79.6722 103.733 75.0828 103.734 70.3872C103.735 67.2681 103.123 64.1793 101.93 61.2973C100.738 58.4153 98.9887 55.7964 96.7836 53.5903C94.5784 51.3843 91.9608 49.6343 89.0789 48.4404C86.1986 47.2464 83.1089 46.6319 79.9897 46.6319L79.9891 46.6309ZM79.9891 89.0546C76.2956 89.0546 72.6837 87.9593 69.6103 85.9062C66.5386 83.8529 64.145 80.9349 62.7308 77.5212C61.3181 74.1073 60.9485 70.351 61.6698 66.7267C62.391 63.103 64.1718 59.7746 66.785 57.1627C69.3982 54.5508 72.7282 52.7727 76.3521 52.0533C79.9774 51.3338 83.7332 51.7052 87.1467 53.1208C90.5598 54.5363 93.4757 56.9322 95.5265 60.0054C97.5788 63.0787 98.6724 66.6913 98.6695 70.3862C98.6642 75.3386 96.6944 80.0857 93.1922 83.5889C89.6901 87.0905 84.9429 89.0599 79.9895 89.0665L79.9891 89.0546Z" fill="#E45F5F"/>
<path d="M66.0296 100.816C64.194 100.152 61.9066 99.1187 59.742 98.3418L59.4131 98.6346C59.5878 98.7576 66.7911 110.892 80.5178 111.005C94.2451 111.117 101.418 98.8256 101.625 98.6346L101.294 98.3418C91.2987 102.064 82.6304 107.17 66.0296 100.816Z" fill="#E45F5F"/>
<path d="M81.7797 57.3169C69.2819 55.6025 61.7956 70.833 70.6738 79.7144C79.5504 88.5959 94.9624 80.9862 93.008 68.3774L79.3293 70.866L81.7797 57.3169Z" fill="#E45F5F"/>
</svg>
