<svg width="160" height="160" viewBox="0 0 160 160" fill="none" xmlns="http://www.w3.org/2000/svg">
<path d="M80.9955 80.2142V82.22H88.5579V84.1589H80.9955V88.1322H77.5545V84.1589H74.0752V82.22H77.5545V64.3496H86.9285C93.0628 64.3496 96.8488 67.1386 96.8488 72.2676C96.8488 77.4348 93.0628 80.2142 86.9285 80.2142H80.9955ZM86.9285 67.3105H80.9955V77.3966H86.9285C91.0883 77.3966 93.4079 75.5246 93.4079 72.3058C93.3983 69.0775 91.0883 67.3105 86.9285 67.3105Z" fill="#95E9B4"/>
<path d="M80.2089 138C48.1188 138 22 111.982 22 79.9952C22 48.0081 48.1092 22 80.2089 22C112.309 22 138.418 48.0176 138.418 80.0048C138.418 111.992 112.299 138 80.2089 138ZM80.2089 30.3765C52.7483 30.3765 30.4155 52.6404 30.4155 79.9952C30.4155 107.35 52.7578 129.614 80.2089 129.614C107.66 129.614 130.002 107.35 130.002 79.9952C130.002 52.6404 107.67 30.3765 80.2089 30.3765Z" fill="#95E9B4"/>
<path d="M81.5321 42.7843C101.612 42.7843 117.945 59.0596 117.945 79.0695C117.945 89.146 113.795 98.2579 107.114 104.848L111.456 109.175C119.249 101.486 124.089 90.8366 124.089 79.0695C124.089 55.688 104.996 36.6523 81.5225 36.6523C69.714 36.6523 59.0364 41.4757 51.311 49.2409L55.653 53.5676C62.2761 46.9295 71.4201 42.7843 81.5321 42.7843Z" fill="#1A1B1D"/>
<path d="M79.8828 111.371C64.4224 111.657 51.6266 99.3649 51.339 83.9682C51.1857 76.2126 54.2528 69.1351 59.3041 63.9775L55.8919 60.7109C50.0067 66.7378 46.4316 74.9996 46.6041 84.0542C46.9396 102.049 61.9016 116.423 79.9691 116.089C89.0555 115.917 97.2027 112.058 103.04 105.974L99.6276 102.698C94.6435 107.913 87.6657 111.228 79.8828 111.371Z" fill="#1A1B1D"/>
<path d="M78.5221 99.1842C69.6848 99.3466 62.3716 92.3264 62.2086 83.5202C62.1223 79.0884 63.8764 75.0482 66.7614 72.0969L64.8157 70.2344C61.4514 73.6728 59.4098 78.4007 59.5057 83.5679C59.6974 93.8546 68.2471 102.069 78.57 101.878C83.765 101.782 88.4232 99.5758 91.7492 96.0992L89.8034 94.2271C86.9567 97.2071 82.9694 99.0983 78.5221 99.1842Z" fill="#95E9B4"/>
</svg>
