<svg width="160" height="160" viewBox="0 0 160 160" fill="none" xmlns="http://www.w3.org/2000/svg">
<path d="M106.593 71.7195L57.8101 120.199C57.5005 120.507 57.1334 120.75 56.7296 120.916C56.3259 121.082 55.8935 121.166 55.4571 121.165C55.0208 121.163 54.589 121.076 54.1864 120.907C53.7838 120.739 53.4183 120.492 53.1108 120.183L24.5843 91.4461C24.2768 91.1363 24.0333 90.7687 23.8677 90.3651C23.7021 89.9609 23.6176 89.5281 23.6192 89.0919C23.6207 88.6552 23.7081 88.2229 23.8765 87.8202C24.0449 87.4175 24.2909 87.0518 24.6006 86.744L73.383 38.2647C74.0082 37.6433 74.8548 37.2959 75.736 37.2988C76.6172 37.3018 77.4614 37.655 78.0827 38.2806L106.609 67.0175C106.916 67.3273 107.16 67.6946 107.325 68.0986C107.491 68.5025 107.575 68.9351 107.574 69.3718C107.572 69.8084 107.485 70.2405 107.317 70.6433C107.148 71.0461 106.902 71.4118 106.593 71.7195Z" fill="#C6D5F4"/>
<path d="M97.7105 58.0508L44.2129 111.216L50.8548 117.907L104.352 64.7417L97.7105 58.0508Z" fill="#444444"/>
<path d="M86.1521 119.76L135.017 71.3627C135.327 71.0556 135.574 70.6905 135.742 70.2884C135.911 69.8862 135.999 69.4549 136 69.019C136.002 68.5831 135.917 68.1512 135.751 67.7479C135.585 67.3446 135.341 66.9779 135.033 66.6686L106.459 37.9803C106.15 37.671 105.784 37.4253 105.381 37.2571C104.978 37.0889 104.545 37.0015 104.108 37C103.671 36.9985 103.238 37.0829 102.833 37.2483C102.429 37.4137 102.061 37.6569 101.751 37.9641L52.8863 86.3616C52.5761 86.669 52.3297 87.0337 52.161 87.4359C51.9924 87.8381 51.9048 88.2694 51.9033 88.7051C51.9019 89.1414 51.9865 89.5732 52.1524 89.9764C52.3183 90.3795 52.5623 90.7462 52.8703 91.0555L81.4446 119.744C82.0668 120.368 82.912 120.721 83.7952 120.724C84.6779 120.727 85.526 120.38 86.1521 119.76Z" fill="#366CD9"/>
<path d="M79.1866 117.474L132.775 64.3985L126.121 57.7188L72.5332 110.795L79.1866 117.474Z" fill="#444444"/>
<path d="M74.3212 89.9721L76.8894 92.5506C77.4307 93.0943 77.7336 93.83 77.7307 94.596C77.7282 95.3624 77.4205 96.0958 76.8757 96.6361L74.29 99.197C74.0198 99.4644 73.6999 99.676 73.3479 99.8199C72.9959 99.9639 72.6191 100.037 72.2384 100.036C71.8582 100.035 71.4817 99.959 71.1307 99.8126C70.7797 99.6663 70.4611 99.4523 70.1929 99.1834L67.6249 96.6049C67.0834 96.0612 66.7806 95.3254 66.7832 94.5595C66.7858 93.7931 67.0935 93.0592 67.6386 92.5194L70.224 89.9585C70.7691 89.4187 71.507 89.1167 72.2754 89.1192C73.0437 89.1221 73.7798 89.4289 74.3212 89.9721Z" fill="#444444"/>
<path d="M46.0291 90.3623L48.5929 92.9456C49.1334 93.4897 49.4356 94.227 49.433 94.9944C49.4303 95.7618 49.1231 96.4971 48.5789 97.0379L45.9972 99.6031C45.7278 99.8706 45.4083 100.083 45.057 100.227C44.7056 100.371 44.3294 100.445 43.9497 100.443C43.5699 100.442 43.1942 100.366 42.8439 100.219C42.4936 100.073 42.1756 99.8585 41.908 99.589L39.344 97.0058C38.8034 96.4616 38.5013 95.7243 38.5039 94.9569C38.5066 94.1895 38.8138 93.4542 39.358 92.9135L41.9394 90.3487C42.4835 89.8079 43.2201 89.5054 43.9871 89.5078C44.7541 89.5107 45.4886 89.8181 46.0291 90.3623Z" fill="#444444"/>
</svg>
