<svg width="160" height="160" viewBox="0 0 160 160" fill="none" xmlns="http://www.w3.org/2000/svg">
<path d="M80 138C112.033 138 138 112.033 138 80C138 47.9675 112.033 22 80 22C47.9675 22 22 47.9675 22 80C22 112.033 47.9675 138 80 138Z" fill="url(#paint0_linear_1721_262)"/>
<path d="M67.7103 103.762C65.7531 103.762 66.0857 103.023 65.4107 101.16L59.6553 82.218L103.958 55.9355" fill="#C8DAEA"/>
<path d="M67.7061 103.763C69.2164 103.763 69.8837 103.072 70.7267 102.253L78.7817 94.4202L68.7341 88.3613" fill="#A9C9DD"/>
<path d="M68.7364 88.3633L93.0827 106.351C95.861 107.884 97.8661 107.09 98.5581 103.771L108.468 57.0708C109.483 53.0029 106.918 51.1579 104.26 52.3645L46.0674 74.8033C42.0952 76.3965 42.1183 78.6126 45.3433 79.6001L60.2768 84.261L94.8495 62.4496C96.4816 61.4598 97.9795 61.9919 96.7501 63.0831" fill="url(#paint1_linear_1721_262)"/>
<defs>
<linearGradient id="paint0_linear_1721_262" x1="65.5058" y1="26.8372" x2="36.5058" y2="94.5" gradientUnits="userSpaceOnUse">
<stop stop-color="#37AEE2"/>
<stop offset="1" stop-color="#1E96C8"/>
</linearGradient>
<linearGradient id="paint1_linear_1721_262" x1="71.2224" y1="79.7853" x2="77.6774" y2="100.665" gradientUnits="userSpaceOnUse">
<stop stop-color="#EFF7FC"/>
<stop offset="1" stop-color="white"/>
</linearGradient>
</defs>
</svg>
