<svg width="160" height="160" viewBox="0 0 160 160" fill="none" xmlns="http://www.w3.org/2000/svg">
<mask id="mask0_1133_114" style="mask-type:luminance" maskUnits="userSpaceOnUse" x="25" y="53" width="111" height="55">
<path d="M135.184 53H25V107.784H135.184V53Z" fill="white"/>
</mask>
<g mask="url(#mask0_1133_114)">
<path d="M126.021 79.0531C129.175 76.2893 131.095 72.5044 131.095 68.3289C131.095 59.862 124.114 53 112.483 53H78.9326V107.784H115.925C127.897 107.784 135.196 100.922 135.196 92.455C135.187 86.6917 131.535 81.6708 126.021 79.0531ZM92.6842 64.3077H111.305C114.786 64.3077 117.295 66.6723 117.295 69.5906C117.295 72.5085 114.786 74.8731 111.305 74.8731H92.6842V64.3077ZM115.402 96.4761H92.6842V85.9107H115.402C118.883 85.9107 121.392 88.2753 121.392 91.1932C121.392 94.1115 118.883 96.4761 115.402 96.4761Z" fill="#2DBE64"/>
<path d="M62.8915 79.0531C66.0455 76.2893 67.9655 72.5044 67.9655 68.3289C67.9655 59.862 60.9805 53 49.3489 53H25V107.784H52.7915C64.7629 107.784 72.0619 100.922 72.0619 92.455C72.0578 86.6917 68.4059 81.6708 62.8915 79.0531ZM38.7561 64.3077H48.6031C52.0846 64.3077 54.5933 66.6723 54.5933 69.5906C54.5933 72.5085 52.0846 74.8731 48.6031 74.8731H38.7561V64.3077ZM52.6999 96.4761H38.7561V85.9107H52.6954C56.1768 85.9107 58.6856 88.2753 58.6856 91.1932C58.6856 94.1115 56.1813 96.4761 52.6999 96.4761Z" fill="#2DBE64"/>
</g>
</svg>
