<svg width="160" height="160" viewBox="0 0 160 160" fill="none" xmlns="http://www.w3.org/2000/svg">
<path d="M23 41H137V119L130.659 115.248L125.068 119L114.568 113.668L96.0227 115.248L80.8864 117.42L65.8864 112.089L52.1818 115.248L50.0682 113.668L43.7955 117.42L35.2045 110.608L23 119V41Z" fill="#F04600"/>
<path d="M39.8111 57C41.2048 57 42.4112 57.2344 43.4303 57.7032C44.4643 58.172 45.2586 58.8374 45.813 59.6993C46.3675 60.5613 46.6448 61.5821 46.6448 62.7616C46.6448 63.926 46.3675 64.9468 45.813 65.8239C45.2586 66.6859 44.4643 67.3512 43.4303 67.82C42.4112 68.2737 41.2048 68.5005 39.8111 68.5005H36.6416V72.8785H33V57H39.8111ZM39.6088 65.5063C40.7028 65.5063 41.5345 65.2719 42.104 64.8031C42.6735 64.3192 42.9582 63.6387 42.9582 62.7616C42.9582 61.8694 42.6735 61.1889 42.104 60.7201C41.5345 60.2362 40.7028 59.9942 39.6088 59.9942H36.6416V65.5063H39.6088Z" fill="white"/>
<path d="M58.8171 69.4759H51.5115L50.1178 72.8785H46.3863L53.3997 57H56.9963L64.0323 72.8785H60.2108L58.8171 69.4759ZM57.6707 66.6859L55.1755 60.6067L52.6804 66.6859H57.6707Z" fill="white"/>
<path d="M72.2519 67.253V72.8785H68.6103V67.2076L62.5185 57H66.3848L70.5884 64.0546L74.792 57H78.3662L72.2519 67.253Z" fill="white"/>
<path d="M79.7362 57H86.8845C88.5929 57 90.099 57.3327 91.4028 57.9981C92.7215 58.6483 93.7406 59.5708 94.4599 60.7655C95.1942 61.9601 95.5614 63.3514 95.5614 64.9392C95.5614 66.5271 95.1942 67.9183 94.4599 69.113C93.7406 70.3077 92.7215 71.2377 91.4028 71.9031C90.099 72.5533 88.5929 72.8785 86.8845 72.8785H79.7362V57ZM86.7046 69.8616C88.2782 69.8616 89.5295 69.423 90.4586 68.5459C91.4028 67.6537 91.8748 66.4515 91.8748 64.9392C91.8748 63.427 91.4028 62.2323 90.4586 61.3552C89.5295 60.463 88.2782 60.0169 86.7046 60.0169H83.3778V69.8616H86.7046Z" fill="white"/>
<path d="M108.451 69.4759H101.145L99.7516 72.8785H96.0201L103.034 57H106.63L113.666 72.8785H109.845L108.451 69.4759ZM107.305 66.6859L104.809 60.6067L102.314 66.6859H107.305Z" fill="white"/>
<path d="M121.886 67.253V72.8785H118.244V67.2076L112.152 57H116.019L120.222 64.0546L124.426 57H128L121.886 67.253Z" fill="white"/>
<path d="M40.3869 86.8493H44.0285V99.7336H51.9186V102.728H40.3869V86.8493Z" fill="white"/>
<path d="M61.3103 103C59.6768 103 58.2007 102.645 56.8819 101.934C55.5781 101.223 54.5516 100.248 53.8023 99.0077C53.068 97.7525 52.7008 96.3462 52.7008 94.7886C52.7008 93.231 53.068 91.8321 53.8023 90.5921C54.5516 89.337 55.5781 88.354 56.8819 87.6433C58.2007 86.9325 59.6768 86.5771 61.3103 86.5771C62.9438 86.5771 64.4124 86.9325 65.7162 87.6433C67.02 88.354 68.0465 89.337 68.7958 90.5921C69.5451 91.8321 69.9198 93.231 69.9198 94.7886C69.9198 96.3462 69.5451 97.7525 68.7958 99.0077C68.0465 100.248 67.02 101.223 65.7162 101.934C64.4124 102.645 62.9438 103 61.3103 103ZM61.3103 99.8697C62.2394 99.8697 63.0786 99.658 63.8279 99.2345C64.5772 98.796 65.1617 98.1911 65.5813 97.4199C66.0159 96.6486 66.2332 95.7715 66.2332 94.7886C66.2332 93.8056 66.0159 92.9285 65.5813 92.1573C65.1617 91.386 64.5772 90.7887 63.8279 90.3653C63.0786 89.9267 62.2394 89.7075 61.3103 89.7075C60.3812 89.7075 59.542 89.9267 58.7927 90.3653C58.0434 90.7887 57.4514 91.386 57.0168 92.1573C56.5972 92.9285 56.3874 93.8056 56.3874 94.7886C56.3874 95.7715 56.5972 96.6486 57.0168 97.4199C57.4514 98.1911 58.0434 98.796 58.7927 99.2345C59.542 99.658 60.3812 99.8697 61.3103 99.8697Z" fill="white"/>
<path d="M82.7999 99.3253H75.4942L74.1005 102.728H70.369L77.3824 86.8493H80.9791L88.015 102.728H84.1936L82.7999 99.3253ZM81.6535 96.5352L79.1583 90.456L76.6631 96.5352H81.6535Z" fill="white"/>
<path d="M104.079 86.8493V102.728H101.089L93.2442 93.0873V102.728H89.6476V86.8493H92.6597L100.482 96.4898V86.8493H104.079Z" fill="white"/>
<path d="M112.972 103C111.728 103 110.522 102.834 109.353 102.501C108.199 102.153 107.27 101.707 106.566 101.163L107.802 98.3952C108.476 98.8943 109.278 99.295 110.207 99.5975C111.136 99.8999 112.066 100.051 112.995 100.051C114.029 100.051 114.793 99.8999 115.288 99.5975C115.782 99.2799 116.029 98.864 116.029 98.3499C116.029 97.9718 115.879 97.6618 115.58 97.4199C115.295 97.1628 114.92 96.9586 114.456 96.8074C114.006 96.6562 113.392 96.4898 112.613 96.3084C111.414 96.021 110.432 95.7337 109.668 95.4464C108.903 95.1591 108.244 94.6978 107.69 94.0627C107.15 93.4276 106.88 92.5807 106.88 91.5221C106.88 90.5997 107.128 89.7679 107.622 89.027C108.117 88.2708 108.859 87.6735 109.848 87.235C110.852 86.7964 112.073 86.5771 113.512 86.5771C114.516 86.5771 115.497 86.6981 116.456 86.9401C117.416 87.182 118.255 87.5298 118.974 87.9835L117.85 90.7736C116.396 89.9419 114.943 89.526 113.489 89.526C112.47 89.526 111.713 89.6923 111.219 90.025C110.739 90.3577 110.499 90.7963 110.499 91.3407C110.499 91.8851 110.777 92.2934 111.331 92.5656C111.901 92.8227 112.762 93.0797 113.916 93.3368C115.115 93.6241 116.097 93.9115 116.861 94.1988C117.625 94.4861 118.277 94.9398 118.817 95.5598C119.371 96.1798 119.648 97.0191 119.648 98.0777C119.648 98.985 119.394 99.8167 118.884 100.573C118.39 101.314 117.64 101.904 116.636 102.342C115.632 102.781 114.411 103 112.972 103Z" fill="white"/>
</svg>
