<svg width="160" height="160" viewBox="0 0 160 160" fill="none" xmlns="http://www.w3.org/2000/svg">
<path d="M131.585 100.252H28.0908V104.999H131.585V100.252Z" fill="url(#paint0_linear_1950_161)"/>
<path d="M97.9867 76.1174H66.46C67.9754 83.8823 72.5565 87.7646 80.2032 87.7646C82.9925 87.7646 85.3309 87.3294 87.2188 86.4589C89.1063 85.5878 90.9281 84.1001 92.684 81.9957L96.2913 84.1359C94.7582 86.7171 92.5329 88.8111 89.8706 90.1778C87.0188 91.6624 83.847 92.4165 80.6362 92.373C75.1535 92.373 70.6084 90.6071 67.0008 87.0755C63.3944 83.5438 61.591 79.0929 61.5903 73.7228C61.5903 68.4489 63.3698 64.01 66.9287 60.406C70.4872 56.8017 74.888 54.9997 80.1311 55C85.445 55 89.7615 56.8443 93.0804 60.5328C96.3991 64.2219 98.0586 68.9935 98.0589 74.8476L97.9867 76.1174ZM80.2032 59.7526C72.9887 59.7526 68.4557 63.6231 66.6044 71.3639H92.9006C92.2745 67.4693 90.8797 64.5604 88.7159 62.6371C86.5519 60.7147 83.7144 59.7532 80.2032 59.7526Z" fill="#0099B5"/>
<path d="M105.362 55H131.586L112.144 87.4743H131.586V91.9374H103.739L123.686 59.6075H105.362V55Z" fill="#0099B5"/>
<path d="M55.9371 59.3905V55H28.0908V59.4632H39.6514V91.9387H44.5519L44.4489 59.3905H55.9371Z" fill="#0099B5"/>
<defs>
<linearGradient id="paint0_linear_1950_161" x1="28.0908" y1="102.058" x2="131.992" y2="102.058" gradientUnits="userSpaceOnUse">
<stop stop-color="white" stop-opacity="0"/>
<stop offset="1" stop-color="#22CB41"/>
</linearGradient>
</defs>
</svg>
