<svg width="160" height="160" viewBox="0 0 160 160" fill="none" xmlns="http://www.w3.org/2000/svg">
<path fill-rule="evenodd" clip-rule="evenodd" d="M94.6983 47L134 64.297L132.421 67.9542L128.271 66.1279V114H31.4631V89.7628L27.0477 90.9888L26 87.1421L64.0618 76.574V64.353L57.9136 66.9667L56.3802 63.2898L94.6983 47ZM68.0131 62.6732V110.01H98.6362V89.0654H116.417V110.01H124.32V64.3888L94.6713 51.3402L68.0131 62.6732ZM112.466 110.01V93.055H102.588V110.01H112.466ZM64.0618 110.01V80.7116L35.4144 88.6657V110.01H41.3415V96.0471H58.1347V110.01H64.0618ZM54.1834 110.01V100.037H45.2928V110.01H54.1834ZM98.6362 67.123H116.417V83.0811H98.6362V67.123ZM102.588 71.1125V79.0916H112.466V71.1125H102.588ZM73.9402 71.1125H91.7213V94.0523H73.9402V71.1125ZM77.8915 75.1021V90.0628H87.7699V75.1021H77.8915Z" fill="black"/>
</svg>
