<svg width="160" height="160" viewBox="0 0 160 160" fill="none" xmlns="http://www.w3.org/2000/svg">
<path fill-rule="evenodd" clip-rule="evenodd" d="M109.969 120.554L49.2278 115.913L54.1001 47.8562L43.2729 46.7271C40.0556 50.9807 36.2661 106.772 37.519 117.971C38.1377 123.415 39.9473 125.333 44.6031 126.694C59.9469 131.211 86.9686 129.788 103.565 129.788C120.796 129.788 118.894 131.66 119.033 114.119C119.265 94.6147 119.667 73.9034 114.393 56.317C110.943 48.4131 109.86 43.2314 99.8685 43.2933L53.93 42.9375C54.4714 43.5408 54.1464 43.3552 54.9662 43.9275C59.823 47.3458 94.0219 48.4594 95.3056 48.7533C109.489 49.2483 109.227 60.9573 110.418 73.3931C112.088 88.969 110.68 104.947 109.969 120.554Z" fill="#313130"/>
<path fill-rule="evenodd" clip-rule="evenodd" d="M116.28 39.0684C102.468 53.7936 92.6609 69.1528 82.6844 87.0178C81.3543 83.3212 79.9004 76.8713 77.735 73.9789C74.4095 69.5087 66.7375 72.2309 66.49 77.3508C66.2889 81.4496 74.4249 101.929 76.4047 104.249C80.0861 108.564 85.3447 107.079 87.8506 102.918C88.4694 101.882 96.0177 83.1046 99.1575 76.8401C105.299 64.7911 112.504 53.315 120.688 42.5487C122.498 40.1512 124.029 38.0012 125.329 36.1451C131.361 27.1894 130.819 24.8383 122.235 33.0515C120.58 34.521 118.6 36.5936 116.28 39.0684Z" fill="#52BD09"/>
</svg>
