<svg width="160" height="160" viewBox="0 0 160 160" fill="none" xmlns="http://www.w3.org/2000/svg">
<g clip-path="url(#clip0_1730_4839)">
<path d="M103.391 58.6227V60.517H119.345C120.406 60.517 122.005 60.517 123.07 61.5983C124.135 62.6837 124.135 64.3097 124.135 65.3951V81.6554C124.135 82.7408 124.135 84.3669 123.07 85.4481C122.005 86.5335 120.406 86.5335 119.345 86.5335H111.651C110.323 86.5335 108.59 86.5335 107.926 85.0437C107.266 83.5497 108.191 82.1961 108.995 81.1148L119.361 67.0418H103.407L97.0089 75.7085C95.9398 77.1612 95.0166 78.4199 95.0166 80.0418C95.0166 81.6678 95.8751 82.8399 97.0089 84.3751L98.6043 86.5418C100.2 88.7085 101.795 90.8751 103.909 91.9481C106.039 93.0253 108.566 93.0253 112.007 93.0253H118.932C122.924 93.0253 128.893 93.0253 132.902 88.9643C136.886 84.8992 136.886 78.9358 136.886 76.7897V70.2691C136.886 68.0983 136.886 62.1389 132.902 58.0945C128.909 54.0253 122.941 54.0377 118.932 54.0335L107.918 54.0273C106.861 54.0273 105.525 54.0273 104.46 55.1127C103.403 56.1981 103.403 57.5518 103.403 58.6372" fill="#DA4216"/>
<path d="M84.359 67H100.151L81.1195 93H64.9224L84.359 67Z" fill="#DA4216"/>
<path d="M21.9999 71.6233C21.9999 70.542 21.9999 69.1842 23.0649 68.0988C24.1258 67.0176 25.4621 67.0176 26.523 67.0176H53.2483C56.7024 67.0176 59.2413 67.0176 61.3469 68.0988C63.4687 69.1884 65.0642 71.355 66.6515 73.5052L68.251 75.6719C69.3888 77.2112 70.2513 78.3833 70.2513 80.0052C70.2513 81.6312 69.32 82.89 68.251 84.3385L61.8531 93.0052H45.8989L56.265 78.9322C57.0628 77.8468 57.9981 76.4973 57.33 75.0033C56.67 73.5176 54.9409 73.5176 53.6128 73.5176H41.1004V106.038H28.3452V73.5176H21.9473V71.6192" fill="#DA4216"/>
</g>
<defs>
<clipPath id="clip0_1730_4839">
<rect width="115" height="52" fill="white" transform="translate(22 54)"/>
</clipPath>
</defs>
</svg>
