<svg width="160" height="160" viewBox="0 0 160 160" fill="none" xmlns="http://www.w3.org/2000/svg">
<path d="M42.8034 51C38.4906 52.5425 34.5746 55.0244 31.3387 58.2662C28.1028 61.508 25.6281 65.4286 24.0935 69.7443C22.559 74.06 22.003 78.663 22.4658 83.2199C22.9286 87.7768 24.3986 92.174 26.7695 96.0929C29.1403 100.012 32.3528 103.355 36.1743 105.88C39.996 108.405 44.331 110.049 48.8659 110.693C53.4008 111.337 58.0222 110.965 62.3955 109.603C66.7688 108.242 70.7849 105.925 74.1531 102.821L67.9852 96.1286C65.6092 98.3188 62.7758 99.9531 59.6904 100.914C56.6049 101.874 53.3446 102.137 50.1452 101.682C46.9458 101.228 43.8875 100.068 41.1914 98.287C38.4954 96.5056 36.229 94.1472 34.5564 91.3822C32.8837 88.6173 31.8467 85.5152 31.5201 82.3002C31.1936 79.0853 31.5859 75.838 32.6685 72.7934C33.7511 69.7487 35.497 66.9827 37.7799 64.6957C40.0628 62.4086 42.8257 60.6576 45.8682 59.5694L42.8034 51Z" fill="#FAD634"/>
<path d="M52.5518 94.2099C48.3028 94.2099 45.0001 93.1284 42.6439 90.9651C40.2875 88.8019 39.1094 85.9049 39.1094 82.2739C39.1094 78.6043 39.882 75.3016 41.427 72.3658C43.0108 69.3914 45.1932 67.0738 47.9745 65.4127C50.7943 63.7131 53.9813 62.8633 57.5349 62.8633C61.784 62.8633 65.0867 63.9449 67.4431 66.1081C69.7995 68.2712 70.9775 71.1683 70.9775 74.7993C70.9775 78.4691 70.1858 81.791 68.602 84.7654C67.0568 87.701 64.8744 90.0188 62.0545 91.7183C59.2733 93.3795 56.1057 94.2099 52.5518 94.2099ZM53.3053 87.3727C55.1979 87.3727 56.8203 86.7741 58.1724 85.5766C59.5244 84.3405 60.5287 82.7953 61.1854 80.9412C61.842 79.0483 62.1703 77.1557 62.1703 75.263C62.1703 73.5632 61.6874 72.2113 60.7219 71.2069C59.7947 70.2026 58.5007 69.7005 56.8397 69.7005C54.9082 69.7005 53.2664 70.3185 51.9146 71.5546C50.5626 72.7521 49.5583 74.2972 48.9016 76.1899C48.245 78.044 47.9165 79.9175 47.9165 81.8104C47.9165 83.5485 48.3802 84.92 49.3071 85.9243C50.2729 86.8898 51.6055 87.3727 53.3053 87.3727Z" fill="#130E21"/>
<path d="M95.9555 62.8633C98.7367 62.8633 100.919 63.5972 102.503 65.0651C104.087 66.533 104.879 68.5416 104.879 71.0911C104.879 72.2499 104.782 73.3701 104.589 74.4518L100.475 93.5147H91.8995L95.55 76.3639C95.7046 75.5913 95.7817 74.8187 95.7817 74.0461C95.7817 72.6941 95.4148 71.6898 94.6808 71.0331C93.9856 70.3378 92.9813 69.9902 91.6678 69.9902C89.8909 69.9902 88.3265 70.6082 86.9745 71.8443C85.6613 73.0804 84.7726 74.7607 84.3092 76.8853L80.7747 93.5147H72.1992L77.0663 70.6855C77.6846 67.6338 78.0515 65.2582 78.1672 63.5586H85.9316C85.8544 65.181 85.6613 66.7647 85.3521 68.3098C87.9402 64.6788 91.4747 62.8633 95.9555 62.8633Z" fill="#130E21"/>
<path d="M116.362 80.8253V81.6364C116.362 83.6451 116.845 85.2097 117.811 86.3298C118.815 87.4115 120.264 87.9522 122.156 87.9522C124.822 87.9522 126.676 86.8898 127.719 84.7654H136.41C135.367 87.6624 133.59 89.9608 131.079 91.6606C128.569 93.3601 125.362 94.2099 121.461 94.2099C118.68 94.2099 116.265 93.6498 114.218 92.5295C112.171 91.4094 110.607 89.9028 109.525 88.0101C108.482 86.1175 107.96 84.0122 107.96 81.6944C107.96 79.8018 108.173 78.0634 108.598 76.4796C109.641 72.3079 111.669 69.0052 114.682 66.5716C117.695 64.0994 121.326 62.8633 125.575 62.8633C129.476 62.8633 132.624 63.9835 135.019 66.2239C137.414 68.4644 138.612 71.4966 138.612 75.3207C138.612 76.9431 138.341 78.778 137.801 80.8253H116.362ZM124.822 69.179C123.006 69.179 121.461 69.7198 120.186 70.8014C118.912 71.883 117.965 73.4666 117.347 75.5527H129.921C129.998 75.089 130.036 74.6061 130.036 74.1041C130.036 72.6362 129.592 71.458 128.704 70.5696C127.815 69.6425 126.521 69.179 124.822 69.179Z" fill="#130E21"/>
</svg>
