<svg width="160" height="160" viewBox="0 0 160 160" fill="none" xmlns="http://www.w3.org/2000/svg">
<path d="M29 62.6946L50.072 103.302L64.3357 107.755C71.2469 109.774 88.8009 99.2151 68.5496 79.468C51.3776 62.6946 38.9507 60.5365 29 62.6946Z" fill="url(#paint0_linear_1763_8)"/>
<path d="M131 40.0915L95.6005 103.592L82.7597 120.507C78.1869 128.999 63.2219 123.366 59.1185 120.507C51.9775 106.847 49.141 101.401 48.2976 99.7437C48.089 99.3269 48 99.1478 48 99.1389C48 99.1389 48.0598 99.2278 48.1386 99.3866C48.159 99.426 48.1882 99.4756 48.2073 99.515C51.4318 101.182 59.5052 101.013 65.9732 87.0259C66.9438 84.9319 68.0059 82.6409 69.1952 80.2203C77.944 62.4924 93.6759 38.3257 131 40.0915Z" fill="url(#paint1_linear_1763_8)"/>
<path fill-rule="evenodd" clip-rule="evenodd" d="M95 103.565L85.7065 120.604C78.7693 132.014 68.5484 136.718 59.0531 120.604C52.0169 106.843 49.222 101.357 48.391 99.6877C48.3409 99.5674 48.2945 99.4471 48.2344 99.328C48.1567 99.1476 48.079 98.9684 48 98.7776C51.9668 99.4983 54.6264 98.6586 56.0339 98.048C60.7828 95.9604 63.2856 91.113 66.6183 84.6669L66.6471 84.617C66.8815 84.1677 67.097 83.7581 67.2913 83.3677C68.0345 81.9494 68.5822 80.8998 68.9532 80C68.9633 80.0102 68.9745 80.0205 68.9745 80.0205C74.1433 85.047 77.8381 89.3543 80.8386 92.8615C85.9008 98.7776 89.0178 102.415 93.9835 103.355C94.3244 103.436 94.6679 103.505 95 103.565Z" fill="url(#paint2_linear_1763_8)"/>
<defs>
<linearGradient id="paint0_linear_1763_8" x1="48.3458" y1="60.6078" x2="58.5335" y2="96.8298" gradientUnits="userSpaceOnUse">
<stop stop-color="#27B993"/>
<stop offset="1" stop-color="#0A8645"/>
</linearGradient>
<linearGradient id="paint1_linear_1763_8" x1="70.616" y1="117.406" x2="97.9211" y2="48.3468" gradientUnits="userSpaceOnUse">
<stop stop-color="#0FDEA8"/>
<stop offset="1" stop-color="#0CC68B"/>
</linearGradient>
<linearGradient id="paint2_linear_1763_8" x1="80.3034" y1="113.719" x2="61.5646" y2="98.4539" gradientUnits="userSpaceOnUse">
<stop stop-color="#0ED39B"/>
<stop offset="1" stop-color="#29BA93"/>
</linearGradient>
</defs>
</svg>
