<svg width="160" height="160" viewBox="0 0 160 160" fill="none" xmlns="http://www.w3.org/2000/svg">
<path fill-rule="evenodd" clip-rule="evenodd" d="M80.0125 136C51.107 136 27.5952 112.488 27.5952 83.6073C27.5952 67.0093 35.22 51.7352 48.4837 41.7324L49.0475 41.2911V18H79.1297V31.2146C79.424 31.2146 79.7183 31.2146 80.0125 31.2146C108.918 31.2146 132.405 54.7263 132.405 83.6318C132.405 112.488 108.893 136 80.0125 136Z" fill="#245E2E"/>
<path fill-rule="evenodd" clip-rule="evenodd" d="M64.834 84.4428L75.7438 73.7288V66.4473L64.834 77.112V84.4428Z" fill="#FFCC00"/>
<path fill-rule="evenodd" clip-rule="evenodd" d="M64.834 57.2985L75.7438 46.56V39.6953L64.834 50.3601V57.2985Z" fill="#FFCC00"/>
<path fill-rule="evenodd" clip-rule="evenodd" d="M64.834 66.2741L75.7438 55.5602V48.6953L64.834 59.3603V66.2741Z" fill="#FFCC00"/>
<path fill-rule="evenodd" clip-rule="evenodd" d="M61.7232 39.7744L60.2521 38.3769V21.3867H58.6094V36.7588L57.1875 35.3369V21.3867H55.5203V33.7433L54.0738 32.3213V21.3867H52.4312V37.5924L63.3658 48.3063V21.3867H61.7232V39.7744Z" fill="#FFCC00"/>
<path fill-rule="evenodd" clip-rule="evenodd" d="M64.834 75.2468L75.7438 64.5329V57.668L64.834 68.333V75.2468Z" fill="#FFCC00"/>
<path fill-rule="evenodd" clip-rule="evenodd" d="M52.4312 73.7288L63.3658 84.4428V77.112L52.4312 66.4473V73.7288Z" fill="#FFCC00"/>
<path fill-rule="evenodd" clip-rule="evenodd" d="M74.1014 32.3213L72.6547 33.7433V21.3867H71.0123V35.3614L69.5655 36.7588V21.3867H67.9231V38.3524L66.4766 39.7744V21.3867H64.834V48.3063L75.7438 37.5924V21.3867H74.1014V32.3213Z" fill="#FFCC00"/>
<path fill-rule="evenodd" clip-rule="evenodd" d="M52.4312 46.56L63.3658 57.2985V50.3601L52.4312 39.6953V46.56Z" fill="#FFCC00"/>
<path fill-rule="evenodd" clip-rule="evenodd" d="M52.4312 55.5602L63.3658 66.2741V59.3603L52.4312 48.6953V55.5602Z" fill="#FFCC00"/>
<path fill-rule="evenodd" clip-rule="evenodd" d="M52.4312 64.5329L63.3658 75.2468V68.333L52.4312 57.668V64.5329Z" fill="#FFCC00"/>
<path fill-rule="evenodd" clip-rule="evenodd" d="M117.475 70.2007H92.0756H90.9231C91.487 69.3179 91.8059 68.2884 91.8059 67.1851C91.8059 64.0224 89.2315 61.4727 86.0689 61.4727C82.9062 61.4727 80.3564 64.0468 80.3564 67.1851C80.3564 68.4354 80.7485 69.5633 81.4352 70.4947C80.9447 70.8136 80.6015 71.3775 80.6015 72.015C80.6015 72.6524 80.9447 73.2161 81.4352 73.535C80.7731 74.4667 80.3564 75.6189 80.3564 76.8446C80.3564 80.0075 82.9062 82.557 86.0689 82.557C89.2315 82.557 91.8059 80.0075 91.8059 76.8446C91.8059 75.7416 91.487 74.6872 90.9231 73.8292H95.7284H110.684V75.0304H108.722V76.7222H110.684V78.4629H108.722V81.6745H110.684V80.228H113.577V81.6745H115.514V78.4629H113.577V76.7222H115.514V75.0304H113.577V73.8292H117.475C118.235 73.8292 118.848 73.1918 118.848 72.4317V71.5735C118.848 70.8382 118.211 70.2007 117.475 70.2007ZM89.0353 76.8692C89.0353 78.4873 87.7115 79.8113 86.0689 79.8113C84.4508 79.8113 83.1267 78.4873 83.1267 76.8692C83.1267 76.2809 83.2983 75.717 83.6172 75.2511L84.4262 73.8536C83.9114 73.4123 83.5926 72.7503 83.5926 72.015C83.5926 71.2794 83.9114 70.6174 84.4262 70.1761L83.6172 68.7786C83.2983 68.3127 83.1267 67.7734 83.1267 67.1605C83.1267 65.5424 84.4508 64.2184 86.0689 64.2184C87.6869 64.2184 89.0353 65.5424 89.0353 67.1605C89.0353 68.3619 87.6624 71.2303 87.6624 71.2303V72.7748C87.6378 72.7994 89.0353 75.6678 89.0353 76.8692Z" fill="#FFCC00"/>
<path fill-rule="evenodd" clip-rule="evenodd" d="M42.5049 66.7188V73.8533C42.5049 80.6691 45.4714 85.0574 47.1876 86.7493C48.1928 87.7299 58.3428 97.7083 58.4898 97.8553C61.6527 100.944 62.1921 101.974 62.903 103.715V95.8205C62.903 88.784 59.348 86.0626 57.5092 84.273C53.2433 80.1051 50.3748 77.3592 48.0702 75.0547C43.6817 70.6661 42.5049 66.7188 42.5049 66.7188Z" fill="white"/>
<path fill-rule="evenodd" clip-rule="evenodd" d="M57.5071 101.9C53.2412 97.7073 50.3727 94.9859 48.0682 92.6813C43.6796 88.2929 42.5273 85.3262 42.5273 85.3262V91.4799C42.5273 98.2956 45.6165 102.635 47.1855 104.425C48.1908 105.406 58.3651 115.359 58.4878 115.482C61.6504 118.571 62.1898 120.042 62.9007 121.783V113.447C62.9007 106.411 59.3214 103.689 57.5071 101.9Z" fill="white"/>
<path fill-rule="evenodd" clip-rule="evenodd" d="M80.0125 34.5742C79.2278 34.5742 78.4434 34.5987 77.6589 34.6233V37.9575C78.4188 37.9085 79.2035 37.884 80.0125 37.884C105.24 37.884 125.687 58.3311 125.687 83.5836C125.687 108.811 105.24 129.259 80.0125 129.259C54.7846 129.259 34.3128 108.811 34.3128 83.5836C34.3128 69.5844 40.6137 57.0562 50.543 48.6716V44.4056C38.6523 53.3542 30.9785 67.5739 30.9785 83.5836C30.9785 110.65 52.9212 132.593 80.0125 132.593C107.079 132.593 129.022 110.65 129.022 83.5836C129.022 56.5168 107.079 34.5742 80.0125 34.5742Z" fill="white"/>
<path fill-rule="evenodd" clip-rule="evenodd" d="M114.675 109.206C115.435 108.176 116.146 107.098 116.833 105.994V99.4238H114.675V109.206Z" fill="white"/>
<path fill-rule="evenodd" clip-rule="evenodd" d="M120.952 97.019C121.246 96.0627 121.54 95.1067 121.785 94.1504H114.675V95.8911H115.754C117.642 95.8422 119.775 95.8176 120.952 97.019Z" fill="white"/>
<path d="M73.6134 93.9023H71.6768V113.442H73.6134V93.9023Z" fill="white"/>
<path fill-rule="evenodd" clip-rule="evenodd" d="M67.2401 90.1518H73.6146C75.2573 90.1518 76.4095 90.4949 77.0715 91.1324C77.7335 91.7698 78.0521 92.9221 78.0521 94.5647V112.83C78.0521 114.473 77.7579 115.625 77.0715 116.262C76.0663 117.267 74.2029 117.267 72.6583 117.267C72.3151 117.243 71.9719 117.243 71.6777 117.243V125.897C72.3151 126.02 72.9526 126.143 73.6146 126.241V119.131C76.5565 119.131 78.4688 118.126 79.376 116.115V126.706C79.5721 126.706 79.7929 126.706 80.0134 126.706C80.4303 126.706 80.8224 126.706 81.2394 126.682V94.8836C81.2394 93.192 81.5826 92.0149 82.22 91.3532C82.8574 90.6665 84.0097 90.3479 85.628 90.3479C87.2704 90.3479 89.6978 90.1028 90.9481 91.3532C91.5855 92.0149 91.8798 93.2163 91.8798 94.8836V104.249H87.5157V94.2461H85.628V126.339C86.2654 126.265 86.8783 126.167 87.5157 126.045V106.137H91.8798V125.039C92.7869 124.794 93.6694 124.5 94.552 124.181V106.872C94.552 104.911 95.0178 103.44 97.0283 102.753L94.8217 90.7157H99.2349L99.9704 103.857H100.51L101.245 90.7157H105.903L103.403 102.753C105.487 103.489 105.903 104.764 105.903 106.872V118.052C107.203 117.071 108.429 116.042 109.605 114.914V90.6176H122.55C122.649 90.0291 122.722 89.4654 122.796 88.8523H92.4926L92.9093 91.0343C91.9533 89.2692 90.139 88.3864 87.4666 88.3864H85.5788C82.367 88.3864 80.4057 89.6613 79.6702 92.2111C78.9838 89.5389 76.9488 88.2148 73.59 88.2148H65.3032V124.083C65.9407 124.304 66.5781 124.524 67.2156 124.721V90.1518H67.2401ZM107.423 103.955L105.339 101.969L107.423 91.1816V103.955Z" fill="white"/>
<path fill-rule="evenodd" clip-rule="evenodd" d="M99.2119 122.192C99.8739 121.848 100.56 121.505 101.198 121.137V106.354H99.2119V122.192Z" fill="white"/>
</svg>
