<svg width="160" height="160" viewBox="0 0 160 160" fill="none" xmlns="http://www.w3.org/2000/svg">
<path d="M79.673 131.207C93.1124 131.207 106.001 125.867 115.504 116.362C125.007 106.857 130.346 93.9654 130.346 80.5233C130.346 67.0812 125.007 54.1897 115.504 44.6847C106.001 35.1797 93.1124 29.8398 79.673 29.8398C66.2337 29.8398 53.3448 35.1797 43.8418 44.6847C34.3388 54.1897 29 67.0812 29 80.5233C29 93.9654 34.3388 106.857 43.8418 116.362C53.3448 125.867 66.2337 131.207 79.673 131.207Z" fill="#008A52"/>
<path d="M79.6734 29.1289C66.4036 29.6794 53.8603 35.3392 44.6658 44.925C35.4713 54.5107 30.3374 67.2804 30.3374 80.5642C30.3374 93.8481 35.4713 106.618 44.6658 116.204C53.8603 125.789 66.4036 131.449 79.6734 132C92.9431 131.449 105.486 125.789 114.681 116.204C123.875 106.618 129.009 93.8481 129.009 80.5642C129.009 67.2804 123.875 54.5107 114.681 44.925C105.486 35.3392 92.9431 29.6794 79.6734 29.1289ZM70.8299 114.751V129.611C69.0972 129.263 67.3849 128.82 65.7007 128.285V83.5274H73.0408C74.4624 83.4193 75.8753 83.8276 77.0203 84.6773C77.458 85.234 77.7778 85.874 77.9602 86.5583C78.1426 87.2426 78.1839 87.9569 78.0815 88.6577V109.709C78.2262 111.094 77.8476 112.482 77.0203 113.601C75.5304 114.652 73.6961 115.095 71.8911 114.84L70.8299 114.751ZM79.6734 130.496C77.3344 130.498 74.9988 130.321 72.687 129.965V117.139C74.0235 117.316 75.3818 117.07 76.5713 116.436C77.7608 115.801 78.7218 114.81 79.3196 113.601V126.604C79.2915 127.964 79.5319 129.317 80.0271 130.584L79.6734 130.496ZM93.7345 99.4489H88.6937V88.3039H86.4828V127.223H88.6937V102.014H93.7345V126.427C93.7858 127.104 93.7858 127.784 93.7345 128.461C89.9577 129.541 86.0718 130.194 82.1495 130.407C81.3895 129.227 81.047 127.825 81.1767 126.427V89.0115C81.0107 87.5568 81.4236 86.0952 82.3264 84.9427C82.8627 84.4964 83.4844 84.1642 84.1534 83.9665C84.8225 83.7688 85.5248 83.7097 86.2175 83.7928C88.1631 83.7928 90.9046 83.7928 92.3195 84.9427C93.2223 86.0952 93.6352 87.5568 93.4692 89.0115V99.4489H93.7345ZM109.83 119.528C108.161 120.945 106.354 122.19 104.435 123.243V102.191H102.136V124.923C100.386 125.825 98.585 126.623 96.7412 127.312V102.81C96.5976 101.786 96.8329 100.744 97.4028 99.8809C97.9727 99.0177 98.8381 98.3923 99.8364 98.1221L97.095 84.235H102.136L103.02 99.4489H103.639L104.523 84.3235H109.83L107 98.1221C109.387 99.0067 109.83 100.422 109.83 102.81V119.882V119.528ZM95.8569 98.0337V89.1884L97.3603 96.8838C96.8194 97.1051 96.3131 97.403 95.8569 97.7683V98.0337ZM111.598 99.4489C111.394 98.9134 111.074 98.4296 110.661 98.032C110.249 97.6344 109.753 97.333 109.211 97.1491L111.598 84.6773V99.4489ZM128.312 87.5078C128.355 87.7119 128.355 87.9228 128.312 88.127H120.088V90.6036H121.326C123.714 90.6036 126.367 90.6036 127.605 92.2842C126.576 96.8998 124.878 101.34 122.564 105.464V94.2302H120.088V109.002C118.427 111.426 116.563 113.704 114.517 115.813V84.1466H128.666V87.5078H128.312ZM94.4419 81.7584L94.9725 84.235C94.2497 83.2906 93.2832 82.561 92.177 82.1246C91.0707 81.6882 89.8665 81.5616 88.6937 81.7584H86.4828C85.0055 81.5512 83.5031 81.8845 82.2519 82.6971C81.0008 83.5097 80.0851 84.7469 79.6734 86.181C79.2402 84.7052 78.2806 83.4397 76.9765 82.6245C75.6725 81.8093 74.1147 81.5011 72.5986 81.7584H63.0476V127.931C56.3697 125.379 50.3323 121.393 45.3607 116.255C36.0714 106.823 30.8644 94.1138 30.8644 80.8738C30.8644 67.6338 36.0714 54.9251 45.3607 45.4927C49.8746 40.871 55.2666 37.1986 61.2199 34.6913C67.1732 32.1839 73.5676 30.8923 80.0271 30.8923C86.4866 30.8923 92.881 32.1839 98.8343 34.6913C104.788 37.1986 110.18 40.871 114.693 45.4927C123.993 54.9186 129.204 67.6309 129.197 80.8738C129.197 81.4045 129.197 81.9353 129.197 82.466L94.4419 81.7584ZM70.4762 110.063H72.687V87.8616H70.4762V110.417V110.063Z" fill="white"/>
<path d="M37.4019 53.4551L37.4903 55.0472L37.7556 56.6394L38.1093 58.1431L38.5515 59.5583L39.1705 60.8851L39.7896 62.2119L40.4971 63.4502L41.293 64.6886L42.1773 65.8385L43.1501 66.9884L45.1841 69.2881L47.3065 71.411L49.5174 73.5339L51.7283 75.5683L53.8507 77.7796L55.7963 79.9909L56.769 81.1408L57.6534 82.2907L58.5377 83.529L59.2452 84.7674L59.9527 86.0942L60.4833 87.5094L60.9255 88.9247L61.2792 90.4284L61.4561 91.9321L61.5445 93.5242V107.234L61.4561 105.554L61.1908 104.05L60.837 102.546L60.3949 101.131L59.8642 99.7159L59.1568 98.3891L58.4493 97.1508L57.6534 95.9124L56.769 94.7626L55.7963 93.5242L53.7623 91.3129L51.6398 89.19L49.429 87.1556L47.2181 85.0327L45.0957 82.8214L43.0617 80.6101L42.1773 79.4602L41.2045 78.2219L40.4971 77.072L39.7896 75.7452L39.0821 74.4184L38.4631 73.0916L38.0209 71.6764L37.6672 70.1727L37.4903 68.669L37.4019 66.9884V53.4551Z" fill="white"/>
<path d="M35.1905 70.707L35.2789 72.3876L35.5442 74.0682L35.9864 75.6604L36.4286 77.1641L37.0476 78.5793L37.7551 79.9946L38.551 81.3214L39.4353 82.6482L40.4081 83.8865L41.4693 85.1248L43.6802 87.4246L45.9795 89.7244L48.4557 91.9357L50.755 94.2355L53.1427 96.4468L55.3536 98.835L56.4148 100.073L57.2991 101.312L58.1835 102.55L58.9794 103.965L59.7753 105.292L60.3059 106.796L60.8365 108.299L61.1903 109.892L61.4556 111.484L61.544 113.253V127.671L61.3671 125.902L61.1903 124.309L60.7481 122.717L60.2175 121.214L59.6869 119.71L58.891 118.383L58.1835 116.968L57.2991 115.73L56.3264 114.491L55.2651 113.253L53.0543 110.865L50.6665 108.565L48.3672 106.354L45.9795 104.142L43.5918 101.842L41.3809 99.4542L40.3197 98.3043L39.3469 97.066L38.4626 95.7392L37.6667 94.4124L36.9592 92.9972L36.3401 91.4935L35.898 89.9898L35.4558 88.3976L35.2789 86.8054L35.1021 85.0364L35.1905 70.707Z" fill="white"/>
<path d="M128.224 62.8315H96.2988C96.2988 62.0354 95.5029 61.5047 94.8839 61.5047C94.2648 61.5047 93.8226 62.0354 93.5573 62.8315H92.4077C92.4077 62.0354 91.6118 61.5047 90.9927 61.5047C90.3737 61.5047 89.9315 62.0354 89.6662 62.8315H88.7819C89.4333 61.8606 89.8008 60.7272 89.8431 59.5587C89.8676 58.7854 89.7335 58.0153 89.4488 57.2959C89.1642 56.5765 88.7352 55.9231 88.1882 55.376C87.6413 54.8289 86.988 54.3998 86.2687 54.1151C85.5495 53.8304 84.7795 53.6962 84.0064 53.7208C83.2093 53.6853 82.4132 53.8088 81.6643 54.084C80.9154 54.3593 80.2287 54.7809 79.6444 55.3242C79.06 55.8676 78.5895 56.5218 78.2605 57.2488C77.9314 57.9758 77.7502 58.761 77.7275 59.5587C77.9562 60.918 78.4684 62.214 79.2309 63.3622C78.9414 63.4209 78.6799 63.5747 78.4876 63.799C78.2954 64.0233 78.1835 64.3054 78.1697 64.6005C78.1668 64.9238 78.2821 65.237 78.4937 65.4813C78.7054 65.7256 78.999 65.8842 79.3194 65.9273C79.3194 67.1656 77.7275 68.0502 77.7275 70.0846C77.7616 70.8863 77.9535 71.6735 78.2921 72.401C78.6306 73.1285 79.1093 73.782 79.7008 74.3243C80.2922 74.8665 80.9847 75.2868 81.7387 75.561C82.4927 75.8353 83.2933 75.9581 84.0948 75.9225C84.8606 75.9348 85.6209 75.7916 86.3298 75.5014C87.0386 75.2113 87.6812 74.7803 88.2186 74.2345C88.756 73.6887 89.1771 73.0395 89.4563 72.3262C89.7355 71.6128 89.8671 70.8503 89.8431 70.0846C89.8694 68.905 89.4953 67.7514 88.7819 66.8118H89.6662C89.6662 67.6079 90.4621 68.1386 90.9927 68.1386C91.5233 68.1386 92.0539 67.6079 92.4077 66.8118H93.5573C93.5573 67.6079 94.3532 68.1386 94.8839 68.1386C95.4145 68.1386 95.9451 67.6079 96.2988 66.8118H119.734V68.1386H118.584V70.7038H119.734L120.707 72.2075H118.584V75.7456H120.707V73.7996H123.89V75.3918H126.367V71.8536H124.244L125.305 70.3499H126.367V68.1386H125.305V66.8118H128.577C128.961 66.7892 129.321 66.6209 129.584 66.3413C129.847 66.0617 129.993 65.6921 129.992 65.3081V64.0698C130.004 63.8766 129.977 63.683 129.911 63.501C129.845 63.3189 129.743 63.1523 129.611 63.0114C129.478 62.8704 129.318 62.7582 129.14 62.6816C128.962 62.605 128.771 62.5657 128.577 62.5661L128.224 62.8315ZM85.0676 62.3892C85.3472 62.4219 85.6175 62.51 85.8628 62.6482C86.108 62.7864 86.3233 62.9721 86.4962 63.1943C86.669 63.4166 86.7959 63.671 86.8695 63.9428C86.943 64.2146 86.9618 64.4983 86.9247 64.7774C86.9748 65.327 86.8089 65.8745 86.4622 66.3038C86.1155 66.7331 85.6153 67.0105 85.0676 67.0772L84.537 68.404C85.952 68.404 87.5438 68.404 87.5438 70.173C87.5693 70.6444 87.4953 71.1158 87.3266 71.5567C87.1578 71.9975 86.8981 72.3978 86.5644 72.7316C86.2307 73.0654 85.8305 73.3251 85.3897 73.4939C84.949 73.6627 84.4776 73.7367 84.0064 73.7112C83.0121 73.7598 82.0383 73.4165 81.2942 72.755C80.5501 72.0934 80.0951 71.1664 80.0268 70.173C80.0268 68.6693 80.5574 68.404 82.1493 67.9617V66.9887L83.1221 66.1042C82.8306 65.9996 82.5786 65.8074 82.4004 65.5541C82.2223 65.3008 82.1267 64.9987 82.1267 64.689C82.1267 64.3793 82.2223 64.0771 82.4004 63.8238C82.5786 63.5705 82.8306 63.3784 83.1221 63.2737L82.1493 62.5661V61.6816C80.5574 61.1508 80.0268 60.9739 80.0268 59.3818C80.0951 58.3884 80.5501 57.4614 81.2942 56.7999C82.0383 56.1383 83.0121 55.795 84.0064 55.8437C84.4776 55.8181 84.949 55.8922 85.3897 56.0609C85.8305 56.2297 86.2307 56.4895 86.5644 56.8232C86.8981 57.157 87.1578 57.5573 87.3266 57.9982C87.4953 58.439 87.5693 58.9104 87.5438 59.3818C87.5438 61.0624 86.2173 61.2393 84.537 61.2393L85.0676 62.3892Z" fill="#FFCA38"/>
<path d="M77.4619 69.9985C77.6082 68.5905 78.1271 67.2471 78.9653 66.1065C78.6469 66.0089 78.3699 65.8082 78.1778 65.5361C77.9857 65.2639 77.8895 64.9356 77.9041 64.6028C77.924 64.3012 78.0249 64.0106 78.1961 63.7615C78.3673 63.5125 78.6025 63.3142 78.8769 63.1876C78.1418 62.0988 77.6585 60.86 77.4619 59.561C77.5535 57.8795 78.2982 56.3003 79.5372 55.1602C80.7762 54.02 82.4116 53.4091 84.0945 53.4578C85.1159 53.4966 86.1112 53.7914 86.989 54.3151C87.8668 54.8389 88.599 55.5748 89.1183 56.4553C89.6377 57.3358 89.9277 58.3327 89.9615 59.3544C89.9954 60.3762 89.7721 61.3901 89.3122 62.3031C89.3122 61.507 90.1965 60.9763 90.8155 60.9763C91.4346 60.9763 92.0536 61.507 92.4074 62.3031H93.2033C93.2033 61.507 94.0876 60.9763 94.7067 60.9763C95.3257 60.9763 95.9447 61.507 96.2985 62.3031H128.047V62.8338H96.1216C96.1216 62.0377 95.4141 61.6839 94.972 61.6839C94.5298 61.6839 94.1761 61.6839 93.9108 62.8338H92.2305C92.2305 62.0377 91.523 61.6839 91.0808 61.6839C90.6387 61.6839 90.2849 61.6839 90.0196 62.8338H88.2509C88.9515 61.9554 89.3265 60.8615 89.3122 59.7379C89.3362 59.0071 89.2115 58.279 88.9457 57.5979C88.6798 56.9167 88.2782 56.2968 87.7655 55.7756C87.2527 55.2544 86.6393 54.843 85.9627 54.5662C85.286 54.2894 84.5602 54.153 83.8292 54.1654C83.0625 54.1297 82.2964 54.2457 81.5745 54.5066C80.8527 54.7675 80.1894 55.1682 79.6227 55.6858C79.0559 56.2034 78.5967 56.8277 78.2715 57.5231C77.9462 58.2184 77.7613 58.971 77.7272 59.7379C77.9879 61.0605 78.4982 62.3213 79.2306 63.4529C79.0116 63.5092 78.8163 63.6339 78.6731 63.8089C78.53 63.9839 78.4464 64.2001 78.4347 64.4259C78.4472 64.6748 78.5402 64.9129 78.6997 65.1043C78.8592 65.2957 79.0766 65.4302 79.319 65.4874C79.319 66.9026 77.7272 67.6987 77.7272 69.5562C77.7613 70.3231 77.9462 71.0757 78.2715 71.7711C78.5967 72.4664 79.0559 73.0907 79.6227 73.6083C80.1894 74.1259 80.8527 74.5267 81.5745 74.7875C82.2964 75.0484 83.0625 75.1644 83.8292 75.1287C84.5602 75.1411 85.286 75.0048 85.9627 74.728C86.6393 74.4512 87.2527 74.0397 87.7655 73.5185C88.2782 72.9973 88.6798 72.3774 88.9457 71.6962C89.2115 71.0151 89.3362 70.287 89.3122 69.5562C89.3265 68.4326 88.9515 67.3387 88.2509 66.4603H89.9312C89.9312 67.2564 90.6387 67.6102 90.9924 67.6102C91.3461 67.6102 91.8768 67.6102 92.1421 66.4603H93.8223C93.8223 67.2564 94.5298 67.6102 94.8835 67.6102C95.2373 67.6102 95.7679 67.6102 96.0332 66.4603H119.999V68.2294H118.849V70.3523H119.822L121.325 72.3867H118.849V75.3056H120.441V73.4481H124.155V75.0403H125.747V72.1213H123.359L124.774 70.0869H125.747V68.3179H124.686V66.5488H128.223C128.552 66.5078 128.857 66.3525 129.083 66.11C129.309 65.8675 129.443 65.5532 129.461 65.222V64.0721C129.462 63.735 129.335 63.4103 129.105 63.1639C128.875 62.9174 128.56 62.7678 128.223 62.7453V62.48C128.7 62.5027 129.15 62.7084 129.48 63.0543C129.809 63.4002 129.993 63.8598 129.992 64.3375V65.222C129.992 65.6912 129.806 66.1412 129.474 66.4729C129.142 66.8047 128.692 66.9911 128.223 66.9911H125.217V67.7871H126.366V70.9714H125.217L124.598 71.7675H126.366V75.9248H123.713V73.9788H121.06V75.6594H118.319V71.5022H120.176L119.557 70.7061H118.319V67.7871H119.468V66.9911H96.4754C96.4754 67.7871 95.591 68.3179 94.972 68.3179C94.3529 68.3179 93.7339 67.7871 93.3801 66.9911H92.5842C92.5842 67.7871 91.6999 68.3179 91.0808 68.3179C90.4618 68.3179 89.8428 67.7871 89.489 66.9911C90.0096 67.9079 90.2838 68.9441 90.2849 69.9985C90.3219 70.8023 90.1923 71.605 89.9044 72.3563C89.6164 73.1077 89.1763 73.7913 88.6116 74.3645C88.0469 74.9376 87.3699 75.3877 86.623 75.6867C85.8761 75.9856 85.0755 76.1269 84.2714 76.1017C83.435 76.1373 82.5999 76.0076 81.8137 75.72C81.0276 75.4324 80.3058 74.9926 79.6898 74.4257C79.0737 73.8588 78.5755 73.176 78.2236 72.4163C77.8716 71.6567 77.6729 70.835 77.6388 69.9985H77.4619ZM84.0945 73.9788C83.56 74.0148 83.0237 73.9449 82.5164 73.7731C82.009 73.6012 81.5406 73.3308 81.1379 72.9774C80.7353 72.624 80.4064 72.1946 80.1702 71.7137C79.9339 71.2329 79.7949 70.7101 79.7612 70.1754C79.7297 69.8738 79.7606 69.569 79.8519 69.2799C79.9432 68.9908 80.0929 68.7235 80.2918 68.4948C80.8254 68.077 81.4727 67.8303 82.149 67.7871V66.9911V66.195C81.9115 66.0227 81.7182 65.7967 81.5849 65.5353C81.4516 65.2739 81.3821 64.9847 81.3821 64.6913C81.3821 64.3979 81.4516 64.1086 81.5849 63.8473C81.7182 63.5859 81.9115 63.3598 82.149 63.1876L81.4415 62.6569V61.8608C80.9052 61.668 80.399 61.4 79.9381 61.0647C79.7392 60.8359 79.5894 60.5687 79.4982 60.2796C79.4069 59.9905 79.376 59.6857 79.4075 59.3841C79.3875 58.7861 79.4995 58.191 79.7358 57.6413C79.972 57.0915 80.3265 56.6007 80.7741 56.2037C81.2217 55.8067 81.7514 55.5133 82.3253 55.3444C82.8992 55.1756 83.5033 55.1354 84.0945 55.2268C84.6008 55.1968 85.1077 55.2761 85.5807 55.4592C86.0537 55.6424 86.4818 55.9251 86.836 56.2883C87.4799 57.0552 87.8253 58.0289 87.8088 59.0303C87.8265 59.3971 87.7352 59.7609 87.5463 60.0757C87.3574 60.3906 87.0794 60.6424 86.7476 60.7994C86.1666 60.9418 85.5598 60.9418 84.9789 60.7994V61.507C85.5556 61.6325 86.0685 61.9599 86.4252 62.4302C86.782 62.9005 86.959 63.4828 86.9244 64.0721C86.9626 64.6724 86.7887 65.267 86.4331 65.7521C86.0775 66.2371 85.5627 66.5817 84.9789 66.7257V67.5218C85.5316 67.3934 86.1064 67.3934 86.6591 67.5218C87.0075 67.6652 87.3041 67.9112 87.5094 68.2272C87.7148 68.5432 87.8192 68.9141 87.8088 69.2908C87.9424 69.9293 87.924 70.5902 87.755 71.2202C87.586 71.8502 87.2712 72.4316 86.836 72.9174C86.4818 73.2806 86.0537 73.5633 85.5807 73.7464C85.1077 73.9296 84.6008 74.0088 84.0945 73.9788ZM80.2918 59.3841C80.1964 59.5923 80.1471 59.8185 80.1471 60.0475C80.1471 60.2765 80.1964 60.5028 80.2918 60.7109C80.8392 61.1036 81.4791 61.3474 82.149 61.4185V62.3915L83.2102 63.1876C82.9803 63.2795 82.7833 63.4381 82.6446 63.6431C82.5058 63.8481 82.4316 64.0899 82.4316 64.3375C82.4316 64.585 82.5058 64.8269 82.6446 65.0319C82.7833 65.2368 82.9803 65.3955 83.2102 65.4874L82.149 67.0795V68.0525C81.584 68.202 81.0466 68.4409 80.5571 68.7601C80.4213 69.192 80.4213 69.6551 80.5571 70.0869C80.6252 71.0099 81.0523 71.8695 81.7466 72.4813C82.4409 73.0931 83.3473 73.4085 84.2714 73.3597C84.7078 73.3854 85.1447 73.3184 85.5534 73.163C85.962 73.0077 86.3331 72.7675 86.6423 72.4583C86.9514 72.1491 87.1915 71.7779 87.3469 71.3692C87.5022 70.9604 87.5692 70.5234 87.5435 70.0869C87.5607 69.8225 87.4927 69.5595 87.3495 69.3366C87.2062 69.1137 86.9952 68.9426 86.7476 68.8486C86.1068 68.707 85.4428 68.707 84.802 68.8486L85.5095 66.9911C85.9869 66.9248 86.4198 66.6756 86.7169 66.296C87.0139 65.9163 87.1518 65.4361 87.1013 64.9566C87.1537 64.467 87.0187 63.9757 86.7232 63.5817C86.4278 63.1878 85.9941 62.9205 85.5095 62.8338L84.802 61.1532C85.476 61.2578 86.162 61.2578 86.836 61.1532C87.0831 61.0403 87.2863 60.8492 87.4141 60.6095C87.542 60.3697 87.5874 60.0945 87.5435 59.8264C87.5692 59.3899 87.5022 58.9529 87.3469 58.5441C87.1915 58.1354 86.9514 57.7642 86.6423 57.455C86.3331 57.1458 85.962 56.9056 85.5534 56.7503C85.1447 56.5949 84.7078 56.5279 84.2714 56.5536C83.3473 56.5048 82.4409 56.8202 81.7466 57.432C81.0523 58.0438 80.6252 58.9034 80.5571 59.8264L80.2918 59.3841Z" fill="white"/>
<path d="M62.4292 72.1225V80.0832L74.2794 68.4075V60.5352L62.4292 72.1225Z" fill="#FFCA38"/>
<path d="M62.1641 72.1206L74.5449 59.9141V68.7593L62.1641 80.7005V71.8552V72.1206ZM62.6947 79.4621L74.0143 68.3171V61.1524L62.6947 72.209V79.4621Z" fill="white"/>
<path d="M62.4292 42.9291V50.8899L74.2794 39.2141V31.3418L62.4292 42.9291Z" fill="#FFCA38"/>
<path d="M62.1641 42.9344L74.5449 30.8164V39.6617L62.1641 51.6028V42.7575V42.9344ZM62.6947 50.276L74.0143 39.131V31.9663L62.6947 43.0229V50.276Z" fill="white"/>
<path d="M52.8774 27.806V11H54.1155V11.4423V11H54.6461V27.806H52.8774Z" fill="white"/>
<path d="M62.4292 52.6596V60.6203L74.2794 48.9446V41.0723L62.4292 52.6596Z" fill="#FFCA38"/>
<path d="M62.1641 52.6591L74.5449 40.541V49.3863L62.1641 61.3274V52.4822V52.6591ZM62.6947 60.0006L74.0143 48.8556V41.6909L62.6947 52.7475V60.0006Z" fill="white"/>
<path d="M56.8574 30.9903V11H58.1839V11.4423V11H58.7145V30.9903H56.8574Z" fill="white"/>
<path d="M54.1147 11.4434H53.4072V27.3649H54.1147V11.4434Z" fill="#FFCA38"/>
<path d="M58.1836 11.4434H57.3877V30.5492H58.1836V11.4434Z" fill="#FFCA38"/>
<path d="M60.9253 33.0248V11H62.1634V11.4423V11H62.694V33.0248H60.9253Z" fill="white"/>
<path d="M62.4292 62.3881V70.3489L74.2794 58.6731V50.8008L62.4292 62.3881Z" fill="#FFCA38"/>
<path d="M62.1641 62.3901L74.5449 50.1836V59.0289L62.1641 71.0585V62.2132V62.3901ZM62.6947 69.7317L74.0143 58.5866V51.4219L62.6947 62.4785V69.7317Z" fill="white"/>
<path d="M62.164 11.4434H61.4565V32.5836H62.164V11.4434Z" fill="#FFCA38"/>
<path d="M64.9048 31.3442V11H66.2313V11.4423V11H66.7619V31.3442H64.9048Z" fill="white"/>
<path d="M61.1906 72.1225V80.0832L49.3403 68.4075V60.5352L61.1906 72.1225Z" fill="#FFCA38"/>
<path d="M49.0752 68.5836V59.7383L61.456 71.7679V80.6132L49.0752 68.5836ZM49.6058 68.5836L60.9254 79.4633V72.2101L49.6058 61.1535V68.3182V68.5836Z" fill="white"/>
<path d="M68.9727 28.2483V11H70.2992V11.4423V11H70.8298V28.2483H68.9727Z" fill="white"/>
<path d="M66.231 11.4434H65.4351V30.903H66.231V11.4434Z" fill="#FFCA38"/>
<path d="M72.6865 25.3294V11H74.013V11.4423V11H74.5437V25.3294H72.6865Z" fill="white"/>
<path d="M70.3003 11.4434H69.5044V27.8071H70.3003V11.4434Z" fill="#FFCA38"/>
<path d="M74.0141 11.4434H73.3066V24.8882H74.0141V11.4434Z" fill="#FFCA38"/>
<path d="M61.1906 42.9291V50.8899L49.3403 39.2141V31.3418L61.1906 42.9291Z" fill="#FFCA38"/>
<path d="M49.0752 39.3941V30.5488L61.456 42.5784V51.4237L49.0752 39.3941ZM49.6058 39.3941L60.9254 50.2738V43.0207L49.6058 31.9641V39.1288V39.3941Z" fill="white"/>
<path d="M61.1906 52.6596V60.6203L49.3403 48.9446V41.0723L61.1906 52.6596Z" fill="#FFCA38"/>
<path d="M49.0752 49.1207V40.2754L61.456 52.305V61.1503L49.0752 49.1207ZM49.6058 49.1207L60.9254 60.0004V52.8357L49.6058 41.6906V48.8553V49.1207Z" fill="white"/>
<path d="M61.1906 62.3881V70.3489L49.3403 58.6731V50.8008L61.1906 62.3881Z" fill="#FFCA38"/>
<path d="M49.0752 58.8531V50.0078L61.456 62.0374V70.8827L49.0752 58.8531ZM49.6058 58.8531L60.9254 69.7328V62.4797L49.6058 51.4231V58.5877V58.8531Z" fill="white"/>
<path d="M49.0752 25.2409V11H50.4017V11.4423V11H50.9323V25.2409H49.0752Z" fill="white"/>
<path d="M50.4014 11.4434H49.6055V24.7997H50.4014V11.4434Z" fill="#FFCA38"/>
<path d="M62.4292 33.2026V41.1633L74.2794 29.4875V21.6152L62.4292 33.2026Z" fill="#FFCA38"/>
<path d="M62.1641 33.202L74.5449 21.084V29.9293L62.1641 41.8704V33.0251V33.202ZM62.6947 40.5436L74.0143 29.3986V22.2339L62.6947 33.2905V40.5436Z" fill="white"/>
<path d="M61.1906 33.2026V41.1633L49.3403 29.4875V21.6152L61.1906 33.2026Z" fill="#FFCA38"/>
<path d="M49.0752 29.6636V20.8184L61.456 32.8479V41.6932L49.0752 29.6636ZM49.6058 29.6636L60.9254 40.5433V33.3787L49.6058 22.2336V29.3983V29.6636Z" fill="white"/>
</svg>
