<svg width="160" height="160" viewBox="0 0 160 160" fill="none" xmlns="http://www.w3.org/2000/svg">
<path fill-rule="evenodd" clip-rule="evenodd" d="M80 24C110.931 24 136 49.0694 136 80C136 110.931 110.931 136 80 136C49.0696 136 24 110.931 24 80C24 49.0694 49.0696 24 80 24ZM80 31.5476C106.756 31.5476 128.453 53.2443 128.453 80C128.453 106.756 106.756 128.453 80 128.453C53.2443 128.453 31.5476 106.756 31.5476 80C31.5476 53.2443 53.2443 31.5476 80 31.5476Z" fill="#97C11F"/>
<path fill-rule="evenodd" clip-rule="evenodd" d="M50.7969 50.7957C58.8587 42.734 69.4293 38.7031 80.0001 38.7031V79.9988L50.7969 50.7957Z" fill="#5C7812"/>
<path fill-rule="evenodd" clip-rule="evenodd" d="M38.7061 80C38.7061 68.6067 43.3333 58.2827 50.7985 50.7969L80.0018 80H38.7061Z" fill="#638014"/>
<path fill-rule="evenodd" clip-rule="evenodd" d="M50.7985 109.182C42.7369 101.12 38.7061 90.5493 38.7061 79.9785H80.0018L50.7985 109.182Z" fill="#678815"/>
<path fill-rule="evenodd" clip-rule="evenodd" d="M80.0001 121.274C68.6066 121.274 58.2828 116.647 50.7969 109.182L80.0001 79.9785V121.274Z" fill="#749717"/>
<path fill-rule="evenodd" clip-rule="evenodd" d="M121.276 80C121.276 68.6067 116.649 58.2827 109.184 50.7969L79.9805 80H121.276Z" fill="#97C11F"/>
<path fill-rule="evenodd" clip-rule="evenodd" d="M109.184 109.182C117.245 101.12 121.276 90.5493 121.276 79.9785H79.9805L109.184 109.182Z" fill="#8BB31E"/>
<path fill-rule="evenodd" clip-rule="evenodd" d="M80 121.274C91.3935 121.274 101.717 116.647 109.203 109.182L80 79.9785V121.274Z" fill="#80A51A"/>
</svg>
