<svg width="160" height="160" viewBox="0 0 160 160" fill="none" xmlns="http://www.w3.org/2000/svg">
<path d="M34.0909 56.1345L46.1542 59.279C46.9346 59.4819 47.715 59.6963 48.4926 59.9107C51.2683 60.6682 53.801 60.2995 56.2108 58.61C60.2129 55.7972 64.3064 53.0644 69.0174 51.5264C72.5792 50.3658 75.8437 51.0004 78.911 53.5989C77.3674 54.5737 75.9295 55.4399 74.5373 56.3718C72.0103 58.0641 69.3918 59.6449 67.0192 61.5401C61.968 65.585 62.8714 73.6863 68.5629 76.3077C70.3695 77.1367 72.2533 77.3939 74.0857 76.5249C76.9443 75.1642 79.7743 73.6806 82.6129 72.237C83.2932 71.894 83.9622 71.5309 84.6511 71.2079C86.8093 70.196 88.8618 70.4818 90.5627 72.1513C95.8987 77.3768 101.216 82.6223 106.514 87.8879C108.249 89.603 108.215 91.9242 106.514 93.5736C104.927 95.1144 102.86 95.0029 101.082 93.2706C99.4129 91.6441 97.7521 90.009 96.0426 88.4282C95.7568 88.168 95.2479 88.1652 94.842 88.0422C94.9421 88.4567 94.9163 88.9913 95.1679 89.2657C96.803 91.0581 98.5096 92.7818 100.168 94.5513C101.291 95.7519 101.717 97.1612 101.16 98.7563C100.956 99.4225 100.569 100.018 100.042 100.473C99.5147 100.928 98.8695 101.225 98.1809 101.329C96.8459 101.572 95.7682 101.043 94.8391 100.126C93.084 98.3847 91.3402 96.6266 89.5593 94.9086C88.9876 94.354 88.3044 93.9024 87.6698 93.405L87.2981 93.7595C87.584 94.2569 87.7812 94.8286 88.1557 95.2402C89.6956 96.923 91.2659 98.5791 92.8667 100.208C94.5161 101.892 94.5619 104.313 92.9753 105.926C91.546 107.381 88.8447 107.249 87.5183 105.657C85.9432 103.765 84.0879 102.109 82.3042 100.383C81.8637 100.012 81.3944 99.6761 80.9006 99.3795L80.4689 99.7225C80.7234 100.2 80.892 100.757 81.2493 101.152C82.6358 102.655 84.1079 104.082 85.4944 105.577C86.7236 106.895 86.8979 108.473 86.0804 110.048C85.7335 110.759 85.1666 111.34 84.4637 111.703C83.7607 112.067 82.9593 112.194 82.1784 112.066C80.346 111.823 78.4222 109.653 78.4393 107.864C78.4822 104.005 76.8414 101.226 73.2395 99.6396C72.7716 99.3785 72.4111 98.9603 72.2219 98.459C71.8213 97.3869 71.2081 96.4067 70.4192 95.5775C69.6302 94.7483 68.6818 94.0871 67.6309 93.6337C67.1936 93.4138 66.8439 93.052 66.639 92.6074C65.7157 90.5178 64.3092 88.9456 62.1767 88.0337C61.7554 87.8703 61.4085 87.558 61.2019 87.1561C58.8693 80.4784 49.9305 80.0953 45.6454 85.7268C44.9908 86.5844 44.502 87.5792 43.8273 88.7026C42.7411 88.4167 41.5233 88.1023 40.2998 87.7993C33.0561 86.0184 25.821 84.2117 18.5744 82.4965C17.3824 82.2107 16.9679 81.7619 17.0022 80.527C17.6425 55.9315 28.5338 37.202 49.8504 25.0014C65.184 16.2255 81.6896 14.8734 98.6611 19.9417C99.7976 20.2832 100.894 20.7461 101.931 21.3224C104.576 22.8003 105.776 25.373 105.021 27.7C104.267 30.0269 101.711 31.5705 98.784 31.0903C95.9797 30.6386 93.244 29.7839 90.4626 29.1807C68.5657 24.4326 45.1652 35.2467 34.5912 54.9882C34.414 55.3255 34.291 55.6743 34.0909 56.1345Z" fill="#023B6F"/>
<path d="M131.855 79.0173C129.44 79.8549 127.264 80.6382 125.069 81.3643C122.273 82.2876 119.483 83.2481 116.65 84.037C114.078 84.7574 111.791 84.3229 109.741 82.2704C104.373 76.8734 98.8612 71.6221 93.4155 66.3023C91.1001 64.0411 89.0447 63.6809 86.2033 65.2817C82.3499 67.4514 78.5479 69.7126 74.7203 71.968C72.1189 73.4945 69.6462 73.0829 68.2255 70.8446C67.5501 69.7306 67.3359 68.3971 67.6284 67.1276C67.921 65.8581 68.6972 64.7529 69.792 64.0468C76.6527 59.6636 83.5295 55.3214 90.4226 51.0202C93.5356 49.082 95.3165 49.2364 98.2209 51.5633C100.894 53.7044 103.569 55.8512 106.113 58.1381C107.997 59.8332 110.05 60.1391 112.322 59.413C119.1 57.209 125.861 54.9593 132.618 52.7125C136.02 51.569 136.032 51.569 137.524 54.8536C140.151 60.6594 141.586 66.7711 142.289 73.0886C143.856 87.1243 141.014 100.245 133.673 112.251C123.888 128.283 109.624 138.222 91.1058 141.586C72.5877 144.951 55.7334 140.575 40.8286 129.08C38.5943 127.392 36.6248 125.379 34.9857 123.108C32.9503 120.207 34.2453 116.625 37.2725 115.765C38.0295 115.538 38.8257 115.474 39.6092 115.575C40.3928 115.677 41.1462 115.942 41.8206 116.354C43.0728 117.125 44.2593 117.998 45.3681 118.963C53.5837 126.047 63.0086 130.341 73.8312 131.636C100.373 134.809 125.458 116.82 130.749 90.6376C131.404 87.4016 131.561 84.0628 131.924 80.7697C131.939 80.1847 131.916 79.5993 131.855 79.0173Z" fill="#1C73C3"/>
<path d="M58.8378 101.651C56.9311 101.854 55.1216 103.312 53.4064 101.505C51.6913 99.6983 53.0091 97.9574 53.4064 95.925C52.4231 96.2108 51.677 96.4138 50.928 96.6196C50.174 96.8605 49.3553 96.7923 48.6515 96.43C47.9478 96.0676 47.4166 95.4408 47.1747 94.6872C45.9655 91.174 49.5444 86.1914 53.2663 86.2057C53.85 86.1954 54.429 86.3115 54.9636 86.546C55.4982 86.7804 55.9757 87.1278 56.3635 87.5641C56.7513 88.0005 57.04 88.5156 57.2101 89.074C57.3801 89.6325 57.4273 90.2211 57.3484 90.7995C57.3113 91.1197 57.2627 91.4398 57.2627 91.4284C58.8263 91.9858 60.5958 92.1373 61.5649 93.0949C62.5339 94.0526 62.7226 95.8221 63.3887 97.6001C64.4492 97.6516 66.4274 97.2171 67.3278 98.9179C68.0425 100.267 68.214 101.902 68.6828 103.612C68.9001 103.612 69.5404 103.612 70.1836 103.612C70.7917 103.609 71.3926 103.744 71.941 104.007C72.4893 104.27 72.9707 104.654 73.349 105.13C73.7272 105.606 73.9924 106.162 74.1244 106.756C74.2565 107.35 74.252 107.965 74.1113 108.557C73.7459 110.22 72.7836 111.691 71.4065 112.692C70.0294 113.693 68.3332 114.154 66.6389 113.988C64.5979 113.82 63.3315 112.07 63.8603 110.089C64.1033 109.183 64.4321 108.303 64.8008 107.214C62.7998 107.388 60.8531 108.906 59.0464 107.236C57.2398 105.567 58.6205 103.629 58.8378 101.651Z" fill="#1C73C3"/>
<path d="M116.501 42.1726C115.55 42.1802 114.607 41.9984 113.727 41.6377C112.846 41.277 112.047 40.7447 111.374 40.0718C110.702 39.3989 110.17 38.5988 109.81 37.7183C109.45 36.8378 109.269 35.8944 109.278 34.9432C109.278 30.9812 112.648 27.6652 116.579 27.7395C118.474 27.782 120.28 28.5562 121.618 29.9C122.956 31.2437 123.722 33.053 123.757 34.9489C123.758 35.9005 123.571 36.8429 123.206 37.7219C122.841 38.6009 122.307 39.3991 121.632 40.0705C120.958 40.7419 120.157 41.2733 119.277 41.6341C118.396 41.9949 117.453 42.1779 116.501 42.1726Z" fill="#023B6F"/>
<path d="M27.7705 98.4279C31.7725 98.405 34.8427 101.418 34.8541 105.386C34.8783 106.32 34.7159 107.25 34.3765 108.121C34.0372 108.992 33.5276 109.786 32.8776 110.458C32.2276 111.13 31.4502 111.665 30.5909 112.033C29.7316 112.4 28.8076 112.593 27.8729 112.599C26.9382 112.606 26.0117 112.426 25.1473 112.07C24.283 111.714 23.4983 111.19 22.8391 110.527C22.1799 109.865 21.6593 109.077 21.308 108.211C20.9566 107.345 20.7814 106.418 20.7926 105.483C20.7812 101.481 23.777 98.4536 27.7705 98.4279Z" fill="#1C73C3"/>
</svg>
