<svg width="160" height="160" viewBox="0 0 160 160" fill="none" xmlns="http://www.w3.org/2000/svg">
<path d="M45.4218 61.1699C51.4315 61.4233 57.3955 61.665 63.15 63.5401C65.1375 64.1879 67.0615 65.0245 68.8969 66.0389C71.3191 67.3838 73.6917 68.027 76.5138 67.6177C79.1111 67.2279 81.8151 67.6918 84.4696 67.6177C86.1415 67.5748 88.0952 67.7581 89.4205 66.9628C97.5629 62.1133 106.463 61.3882 115.55 61.4779C124.249 61.5654 132.919 62.4934 141.447 64.2496C143.268 64.6394 144.037 65.4425 144.007 67.3682C143.972 69.3642 143.839 71.0755 142.719 72.9779C141.432 75.1648 141.196 77.995 140.484 80.5445C139.699 83.4137 139.139 86.392 138.085 89.1208C134.322 98.9796 127.01 104.09 116.834 104.663C112.644 104.897 108.268 104.8 104.182 103.884C96.9917 102.289 91.816 97.775 89.2796 90.5125C88.2323 87.5225 87.3754 84.4662 86.4233 81.4372C86.0424 80.2677 85.7949 79.0437 85.3265 77.9287C84.3553 75.5898 82.8586 73.7731 80.1813 73.6406C78.0828 73.5314 75.8778 75.4455 74.9942 78.1314C73.9012 81.4489 72.8691 84.7937 71.9475 88.1657C68.7218 100.071 58.9989 104.808 50.1747 104.761C46.2026 104.741 42.1428 104.609 38.2887 103.751C28.4934 101.572 23.5082 94.3718 20.9603 85.0392C20.1073 81.9206 19.5474 78.7162 18.7819 75.5703C18.5382 74.5762 18.3059 73.3833 17.6394 72.7362C15.6286 70.787 16.356 68.3818 16.554 66.1753C16.6187 65.4853 17.9212 64.5692 18.7934 64.3626C21.6934 63.6603 24.6326 63.1396 27.5946 62.8033C33.5434 62.1445 39.4883 61.6962 45.4218 61.1699ZM115.074 63.4504C109.925 64.0313 105.416 64.2964 101.006 65.1033C95.8491 66.0428 91.5532 68.6118 90.3726 74.3033C89.7633 77.227 89.9918 80.3496 89.9689 83.3864C89.9689 84.3259 90.1632 85.2264 91.4161 85.5499C92.3911 85.7994 92.5206 86.5947 91.8351 87.5264C91.5075 87.9708 91.2562 88.7777 91.4199 89.2572C93.5984 95.5257 97.6353 100.052 104.026 101.638C107.713 102.555 111.507 102.948 115.299 102.808C120.25 102.613 125.201 101.521 129.161 98.1298C136.058 92.2394 138.005 84.3999 136.504 75.6599C135.598 70.405 132.322 66.725 127.2 65.4581C123.037 64.4289 118.734 64.0352 115.074 63.4504ZM46.7015 63.5908C43.4148 63.8442 40.7489 63.9338 38.1325 64.2886C33.3948 64.924 28.9428 66.1831 25.9989 70.5804C22.9293 75.2038 22.994 80.2716 23.9919 85.3706C25.3781 92.4382 28.8742 98.0518 35.7561 100.714C41.2961 102.891 47.3057 103.505 53.1567 102.492C60.7736 101.194 66.1777 97.0343 68.9046 89.5457C68.9966 89.2191 69.0191 88.876 68.9705 88.5398C68.9219 88.2035 68.8033 87.8818 68.6227 87.5965C67.8115 86.5167 68.2419 86.0762 69.1483 85.472C69.7238 85.077 70.154 84.4966 70.3708 83.823C70.6258 82.8164 70.7463 81.7791 70.7288 80.7394C70.7745 72.9428 69.0797 66.9433 58.9417 65.0137C54.7258 64.2067 50.3994 64.0001 46.7015 63.5908Z" fill="black"/>
<path d="M125.574 77.5032H120.345V90.5704H115.127V77.5422H109.814V73.3438H125.574V77.5032Z" fill="black"/>
<path d="M92.4287 73.3008H108.291V77.394H102.959V90.5898H97.8176V77.5421H92.4287V73.3008Z" fill="black"/>
<path d="M133.526 90.6035H128.575V73.334H133.526V90.6035Z" fill="black"/>
<path d="M38.2347 80.8011H46.2933C46.2933 83.0816 46.3466 85.3348 46.2438 87.5763C46.2247 88.0129 45.6459 88.5236 45.2079 88.8199C41.8907 91.0653 38.2385 91.5058 34.4643 90.4923C30.6902 89.4787 28.8202 86.2509 28.9421 81.3975C29.0335 77.1561 31.2272 73.9907 34.948 73.289C37.0641 72.9408 39.219 72.9158 41.3423 73.215C43.8711 73.5346 45.0746 74.9458 45.8591 77.7331C44.5757 77.9982 43.3075 78.3295 42.0202 78.4816C41.7671 78.49 41.5152 78.4429 41.2813 78.3434C41.0475 78.2438 40.8371 78.0942 40.6644 77.9046C39.6171 76.5987 38.1395 76.2829 36.8979 76.8911C35.7551 77.4873 34.8699 78.4976 34.4148 79.7251C33.9883 81.07 34.0949 82.7112 34.3691 84.1419C35.0204 87.4906 38.6307 88.0402 41.1976 86.2275C41.5785 85.9702 41.548 85.1594 41.7613 84.4382L38.2461 84.1419L38.2347 80.8011Z" fill="black"/>
<path d="M66.3684 90.6408H60.9338C60.8843 87.5222 58.843 87.6157 56.615 87.6625C54.9774 87.6976 53.6102 87.6625 53.3207 89.8066C53.275 90.1535 52.5591 90.6252 52.1478 90.6603C50.8338 90.7734 49.5047 90.7032 47.8252 90.7032C48.4193 89.101 48.9296 87.7366 49.4285 86.3683C50.8719 82.4232 52.3458 78.4937 53.7321 74.5291C54.09 73.5039 54.6042 73.1725 55.6591 73.1608C59.9702 73.0984 59.9741 73.0595 61.4784 77.1644C63.0741 81.5734 64.6775 85.9901 66.3684 90.6408ZM58.9534 84.0137C58.3288 81.8969 57.7804 80.0335 57.2358 78.1662L56.8321 78.2208C56.2875 80.0998 55.7391 81.9788 55.1488 84.0098L58.9534 84.0137Z" fill="black"/>
<path d="M58.9534 83.9979H55.145C55.7353 81.9668 56.2875 80.0996 56.8283 78.2089L57.232 78.1543C57.7804 80.0177 58.3289 81.8811 58.9534 83.9979Z" fill="white"/>
</svg>
