<svg width="160" height="160" viewBox="0 0 160 160" fill="none" xmlns="http://www.w3.org/2000/svg">
<path d="M59.4701 50.0334C59.4701 50.0334 59.5878 43.9512 64.1658 38.6821L64.6469 32.4844L56.4974 34.6384L58.07 40.9961C58.07 40.9961 57.2949 43.6595 52.1211 48.3051L59.4688 50.0293L59.4701 50.0334Z" fill="#9ABC00"/>
<path d="M58.0628 40.9993L56.4902 34.6416L59.6009 33.8203C59.9665 36.2774 60.5198 38.6948 61.1803 41.0859C58.9818 43.704 56.8861 46.4047 54.5288 48.878L52.1152 48.3124C57.2878 43.6628 58.0641 41.0034 58.0641 41.0034L58.0628 40.9993Z" fill="#718D00"/>
<path d="M124.007 95.5597C124.007 91.7007 113.344 88.5723 100.191 88.5723C87.0377 88.5723 76.375 91.7007 76.375 95.5597C76.375 104.092 76.375 98.877 76.375 107.409C76.375 111.268 87.0377 114.397 100.191 114.397C113.344 114.397 124.007 111.268 124.007 107.409C124.007 98.877 124.007 104.092 124.007 95.5597Z" fill="#8AC342"/>
<path d="M118.107 90.9551C121.78 92.1844 124.006 93.7952 124.006 95.5586V107.408C124.006 109.499 120.877 111.375 115.917 112.656V90.9551H118.107Z" fill="#73A83E"/>
<path d="M76.542 94.7253C77.1233 93.2898 79.188 91.9878 82.2736 90.9551H87.792V113.375C81.7088 112.285 77.4229 110.417 76.542 108.242V94.7253Z" fill="#73A83E"/>
<path d="M107.479 114.063C105.182 114.279 102.733 114.396 100.19 114.396C98.8409 114.396 97.5176 114.363 96.2295 114.3V90.9551H107.479V114.063Z" fill="#73A83E"/>
<path d="M100.191 102.547C113.344 102.547 124.007 99.4187 124.007 95.5597C124.007 91.7006 113.344 88.5723 100.191 88.5723C87.0377 88.5723 76.375 91.7006 76.375 95.5597C76.375 99.4187 87.0377 102.547 100.191 102.547Z" fill="#D0F07C"/>
<path d="M100.738 95.182C102.87 95.182 104.599 94.5825 104.599 93.843C104.599 93.1034 102.87 92.5039 100.738 92.5039C98.6063 92.5039 96.8779 93.1034 96.8779 93.843C96.8779 94.5825 98.6063 95.182 100.738 95.182Z" fill="#8AC342"/>
<path d="M108.459 98.6117C110.591 98.6117 112.32 98.0122 112.32 97.2727C112.32 96.5331 110.591 95.9336 108.459 95.9336C106.327 95.9336 104.599 96.5331 104.599 97.2727C104.599 98.0122 106.327 98.6117 108.459 98.6117Z" fill="#8AC342"/>
<path d="M93.0177 98.6117C95.1498 98.6117 96.8782 98.0122 96.8782 97.2727C96.8782 96.5331 95.1498 95.9336 93.0177 95.9336C90.8856 95.9336 89.1572 96.5331 89.1572 97.2727C89.1572 98.0122 90.8856 98.6117 93.0177 98.6117Z" fill="#8AC342"/>
<path d="M104.319 81.4152C104.319 77.5561 93.6564 74.4277 80.5035 74.4277C67.3503 74.4277 56.6875 77.5561 56.6875 81.4152C56.6875 89.9475 56.6875 84.7325 56.6875 93.2649C56.6875 97.1239 67.3503 100.252 80.5035 100.252C93.6564 100.252 104.319 97.1239 104.319 93.2649C104.319 84.7325 104.319 89.9475 104.319 81.4152Z" fill="#8AC342"/>
<path d="M98.4196 76.8125C102.092 78.0418 104.319 79.6527 104.319 81.416V93.2657C104.319 95.3563 101.189 97.2325 96.2295 98.513V76.8125H98.4196Z" fill="#73A83E"/>
<path d="M56.8545 80.5827C57.4358 79.1472 59.5004 77.8452 62.5861 76.8125H68.1045V99.2329C62.0213 98.1425 57.7353 96.2739 56.8545 94.099V80.5827Z" fill="#73A83E"/>
<path d="M87.792 99.92C85.4947 100.136 83.0453 100.253 80.5028 100.253C79.1534 100.253 77.8301 100.22 76.542 100.157V76.8125H87.792V99.92Z" fill="#73A83E"/>
<path d="M80.5034 88.4025C93.6565 88.4025 104.319 85.2742 104.319 81.4151C104.319 77.5561 93.6565 74.4277 80.5034 74.4277C67.3502 74.4277 56.6875 77.5561 56.6875 81.4151C56.6875 85.2742 67.3502 88.4025 80.5034 88.4025Z" fill="#D0F07C"/>
<path d="M81.0509 81.0395C83.183 81.0395 84.9114 80.4399 84.9114 79.7004C84.9114 78.9609 83.183 78.3613 81.0509 78.3613C78.9188 78.3613 77.1904 78.9609 77.1904 79.7004C77.1904 80.4399 78.9188 81.0395 81.0509 81.0395Z" fill="#8AC342"/>
<path d="M88.7716 84.4672C90.9037 84.4672 92.6321 83.8677 92.6321 83.1281C92.6321 82.3886 90.9037 81.7891 88.7716 81.7891C86.6395 81.7891 84.9111 82.3886 84.9111 83.1281C84.9111 83.8677 86.6395 84.4672 88.7716 84.4672Z" fill="#8AC342"/>
<path d="M73.3302 84.4672C75.4623 84.4672 77.1907 83.8677 77.1907 83.1281C77.1907 82.3886 75.4623 81.7891 73.3302 81.7891C71.1981 81.7891 69.4697 82.3886 69.4697 83.1281C69.4697 83.8677 71.1981 84.4672 73.3302 84.4672Z" fill="#8AC342"/>
<mask id="mask0_1795_50" style="mask-type:alpha" maskUnits="userSpaceOnUse" x="39" y="44" width="83" height="87">
<path d="M114.413 108.93C119.343 108.93 121.769 113.296 121.442 115.699C119.416 130.564 74.7955 139.869 52.9629 114.495C25.5079 82.5868 48.28 46.8404 56.45 44.9101C61.1015 43.8111 62.3758 47.598 62.4371 50.1318C63.8603 108.948 108.126 108.932 114.308 108.93H114.413Z" fill="black"/>
</mask>
<g mask="url(#mask0_1795_50)">
<path d="M124.865 133.538V98.4754V40.1465H85.5014H38.9209V133.538H124.865Z" fill="#D0F07C"/>
<path d="M61.7288 103.309C86.4365 131.457 116.557 122.201 128.53 114.055L121.763 145.254L79.9472 143.347L15.749 126.188L24.251 42.9904L74.5686 23.4043C59.9938 38.3105 37.0212 75.1602 61.7288 103.309Z" fill="#8AC342"/>
<path d="M54.8537 109.076C79.5614 137.225 109.682 127.969 121.654 119.823L114.888 151.022L73.0722 149.115L8.87402 131.956L17.3758 48.758L67.6932 29.1719C53.1186 44.0781 30.1461 80.9277 54.8537 109.076Z" fill="#73A83E"/>
</g>
</svg>
