<svg width="160" height="160" viewBox="0 0 160 160" fill="none" xmlns="http://www.w3.org/2000/svg">
<path d="M77.0611 92.5237V102.198H33.6493V92.5237H77.0611ZM37.3324 92.5237V116.959H25.6621L25 92.5237H37.3324ZM86 92.5237L84.924 117H73.5434V92.5237H86ZM70.2327 42V51.7161H41.2225V42H70.2327ZM79.0889 42V102.198H66.7151V42H79.0889ZM39.6913 42H52.1065L50.4925 66.5176C50.2442 70.5695 49.8028 74.1527 49.1683 77.2674C48.5613 80.3545 47.8164 83.0695 46.9335 85.4123C46.0782 87.7552 45.1264 89.8087 44.078 91.5728C43.0296 93.3093 41.9261 94.8252 40.7673 96.1207C39.6085 97.3886 38.436 98.5187 37.2497 99.511C36.0633 100.476 34.9046 101.372 33.7734 102.198H26.6554V92.5237H29.4281C30.2282 91.8622 31.0697 90.9526 31.9525 89.7949C32.863 88.6373 33.7182 87.0799 34.5183 85.1229C35.346 83.1384 36.0633 80.6301 36.6703 77.5981C37.3048 74.5662 37.7739 70.8727 38.0773 66.5176L39.6913 42Z" fill="#E30613"/>
<path d="M125.061 92.5237V102.198H81.6493V92.5237H125.061ZM85.7639 92.5237L85.3324 116.959H73.6621L73 92.5237H85.7639ZM134 92.5237L132.924 117H121.543V92.5237H134ZM118.233 42V51.7161H89.2225V42H118.233ZM127.089 42V102.198H114.715V42H127.089ZM87.6913 42H100.107L98.4925 66.5176C98.2442 70.5695 97.8028 74.1527 97.1683 77.2674C96.5613 80.3545 95.8164 83.0695 94.9335 85.4123C94.0782 87.7552 93.1264 89.8087 92.078 91.5728C91.0296 93.3093 89.9261 94.8252 88.7673 96.1207C87.6085 97.3886 86.436 98.5187 85.2497 99.511C84.0633 100.476 82.9046 101.372 81.7734 102.198H74.6554V92.5237H77.4281C78.2282 91.8622 79.0697 90.9526 79.9525 89.7949C80.863 88.6373 81.7182 87.0799 82.5183 85.1229C83.346 83.1384 84.0633 80.6301 84.6703 77.5981C85.3048 74.5662 85.7739 70.8727 86.0773 66.5176L87.6913 42Z" fill="#383838"/>
</svg>
