<svg width="160" height="160" viewBox="0 0 160 160" fill="none" xmlns="http://www.w3.org/2000/svg">
<g clip-path="url(#clip0_1115_881)">
<mask id="mask0_1115_881" style="mask-type:luminance" maskUnits="userSpaceOnUse" x="22" y="22" width="116" height="116">
<path d="M22.0898 22H137.728V138H22.0898V22Z" fill="white"/>
</mask>
<g mask="url(#mask0_1115_881)">
<path d="M136.03 75.8663L84.0276 23.7033C82.933 22.6111 81.4518 21.998 79.908 21.998C78.3638 21.998 76.8829 22.6111 75.7884 23.7033L23.7878 75.8663C22.6991 76.9643 22.0879 78.4499 22.0879 79.9988C22.0879 81.5474 22.6991 83.0333 23.7878 84.1313L75.7909 136.294C76.8855 137.386 78.3664 137.999 79.9105 137.999C81.4543 137.999 82.9355 137.386 84.0301 136.294L136.03 84.1313C137.119 83.0333 137.73 81.5474 137.73 79.9988C137.73 78.4499 137.119 76.9643 136.03 75.8663ZM119.177 88.7938V94.9588L117.958 95.1622C116.269 95.4468 114.545 95.4468 112.856 95.1622L111.637 94.9588V88.7938L110.709 87.177L108.271 89.6453C108.677 90.7437 108.92 91.8957 108.991 93.0648L109.059 94.1149L108.089 94.514C106.284 95.1843 104.375 95.5287 102.45 95.5309L79.9065 118.346L53.1815 91.3005C52.8825 91.3259 52.5834 91.3436 52.2844 91.3436C51.5664 91.3433 50.8504 91.2682 50.1479 91.12L49.3546 90.9521L48.7489 90.8122L48.6374 94.9639L47.4538 95.1647C45.8249 95.4424 44.161 95.4424 42.5321 95.1647L41.2649 94.9512L42.1874 72.1797L43.3735 71.9966C45.1604 71.7175 46.9797 71.7175 48.7667 71.9966L49.603 72.1264L49.7677 72.1543L59.3124 62.4937C59.1646 61.5903 59.0919 60.6761 59.0941 59.7608C59.0941 54.2032 62.0317 47.7153 70.3064 47.7153C71.4082 47.7149 72.5067 47.8274 73.5858 48.0509L79.9217 41.6519L91.9095 53.7838C93.0474 53.6694 94.829 53.5016 95.5842 53.5016H95.6753C95.8733 53.5016 96.2051 53.4761 96.6362 53.4761C101.74 53.4761 104.787 55.8507 104.787 59.8319C104.807 61.3529 104.286 62.8315 103.316 64.0013L104.774 66.7977L116.698 78.866L117.339 77.7473L118.016 77.6331C119.764 77.3504 121.545 77.3504 123.293 77.6331L125.381 77.9688L119.177 88.7938Z" fill="#FFCC00"/>
<path d="M70.2378 70.228C65.5949 70.228 60.5541 67.5205 60.5541 59.7615C60.5541 55.414 62.6526 49.1777 70.3065 49.1777C73.4211 49.1777 75.4741 50.1489 75.4741 50.1489C75.3259 51.5619 74.9342 52.9383 74.3159 54.2166C74.3159 54.2166 65.7319 50.5074 65.7319 59.7691C65.7319 68.8526 74.5439 65.1791 74.5439 65.1791C75.1875 66.4583 75.5976 67.8427 75.7552 69.267C75.7552 69.267 73.6162 70.228 70.2378 70.228ZM84.7902 60.4934C84.7902 59.4893 84.3544 58.6073 82.038 58.6073C80.8137 58.628 79.6013 58.8513 78.4492 59.2681C77.9162 58.2021 77.6188 57.0331 77.5776 55.8411C77.5776 55.8411 89.0533 51.8319 89.0533 60.9893V69.3076C89.0533 69.3076 76.6095 73.1059 76.6095 65.1613C76.6095 60.6384 81.4298 60.4909 84.7927 60.4909L84.7902 60.4934ZM80.6467 65.0696C80.6467 67.589 84.7851 66.6432 84.7851 66.6432V63.3713C83.3382 63.3713 80.6492 63.1654 80.6492 65.0747L80.6467 65.0696ZM56.8817 73.4339L52.6392 84.2056L48.5411 73.4339C46.9028 73.1776 45.2348 73.1776 43.5965 73.4339L42.7754 93.7161C44.2441 93.9666 45.7444 93.9666 47.2131 93.7161L47.5248 82.0574L47.6693 82.0346L50.4571 89.6841C51.6685 89.9422 52.9205 89.9422 54.132 89.6841L57.2543 81.9175L57.3988 81.9429L57.7967 93.7161C59.3511 93.9681 60.9357 93.9681 62.4904 93.7161L61.5273 73.4365C59.99 73.1805 58.421 73.1823 56.8843 73.4415L56.8817 73.4339ZM95.6779 58.6428C95.6779 58.6428 96.1849 58.5968 96.5929 58.5968C98.2097 58.5968 98.4988 59.5861 98.4988 60.4909C98.4988 62.3392 96.3927 63.219 96.3927 63.219L99.515 69.9024C101.245 70.1605 103.003 70.1605 104.734 69.9024L101.502 63.6867C101.502 63.6867 103.317 62.5756 103.317 59.8173C103.317 54.2242 96.0556 54.9615 95.5742 54.9615C94.5349 54.9615 91.0704 55.3377 91.0704 55.3377V69.8999C92.5965 70.158 94.1548 70.158 95.6805 69.8999L95.6779 58.6428ZM78.4062 86.4937C78.4062 91.9392 75.0126 94.0797 71.13 94.0797C67.2474 94.0797 63.8816 91.9316 63.8816 86.4937C63.8816 81.0555 67.2095 78.7648 71.13 78.7648C75.0509 78.7648 78.4062 81.0479 78.4062 86.4937ZM73.7684 86.4299C73.7684 85.1133 73.5147 82.413 71.13 82.413C68.7453 82.413 68.522 85.1234 68.522 86.4299C68.522 87.7367 68.6438 90.4417 71.13 90.4417C73.6162 90.4417 73.7684 87.7469 73.7684 86.4299ZM123.067 79.0904C121.472 78.8323 119.846 78.8323 118.252 79.0904L115.411 84.053L112.57 79.0904C110.975 78.8323 109.349 78.8323 107.754 79.0904L113.102 88.403V93.7187C114.632 93.9768 116.194 93.9768 117.724 93.7187V88.403L123.067 79.0904ZM108.35 85.5733C108.322 86.344 108.254 87.1129 108.147 87.8766H99.4517C99.4517 87.8766 99.5659 90.1647 102.422 90.1647C103.845 90.1644 105.255 89.8954 106.578 89.3716C107.139 90.5577 107.465 91.8413 107.539 93.1517C105.906 93.7546 104.18 94.0645 102.44 94.0671C98.3087 94.0671 94.7835 92.1578 94.7835 86.5165C94.7835 82.8785 96.598 78.7598 102.004 78.7598C106.462 78.7648 108.35 82.1868 108.35 85.5733ZM104.13 84.7523C104.13 84.7523 104.097 82.2583 101.829 82.2583C99.4568 82.2583 99.4112 84.7523 99.4112 84.7523H104.13ZM80.1777 79.7233V93.7187C81.7225 93.9771 83.2988 93.9771 84.8437 93.7187V82.9369C85.2405 82.8676 85.6419 82.827 86.0449 82.8151C87.5099 82.8151 88.4118 83.3537 88.4118 85.7513V93.7212C89.9567 93.9797 91.533 93.9797 93.0779 93.7212V84.8741C93.0779 75.6912 80.1777 79.7233 80.1777 79.7233Z" fill="black"/>
</g>
</g>
<defs>
<clipPath id="clip0_1115_881">
<rect width="116" height="116" fill="white" transform="translate(22 22)"/>
</clipPath>
</defs>
</svg>
