<svg width="160" height="160" viewBox="0 0 160 160" fill="none" xmlns="http://www.w3.org/2000/svg">
<g clip-path="url(#clip0_1115_601)">
<path fill-rule="evenodd" clip-rule="evenodd" d="M113.841 25.6104C124.643 30.9832 130.966 43.3764 131.494 52.0569C126.894 38.21 118.618 31.8101 109.957 28.0622C106.95 30.1899 106.138 30.734 106.138 30.734L99.8138 29.3553C99.8138 29.3553 99.4757 28.3419 98.3118 24.9975C74.137 23.7533 55.8768 38.2436 45.3051 55.3417C47.3661 58.5485 48.0854 59.8248 48.0854 59.8248L44.5017 67.7455C44.5017 67.7455 43.2219 67.9443 39.2046 68.3342C26.4305 109.335 53.5206 125.285 53.5206 125.285L58.9542 122.837L65.3134 125.62C65.3134 125.62 65.5564 126.583 66.4454 130.716C80.8583 134.23 100.803 129.029 117.188 113.409C104.901 133.065 73.6082 142.09 53.3221 131.572C28.5741 118.745 22.6769 83.8762 39.708 54.4612C56.7392 25.0479 90.1582 13.8286 113.841 25.6104Z" fill="#C51617"/>
<path fill-rule="evenodd" clip-rule="evenodd" d="M78.9131 29.8457C79.6548 29.8457 80.2548 30.425 80.2548 31.1403C80.2548 31.8542 79.6548 32.4335 78.9131 32.4335C78.1716 32.4335 77.5698 31.8542 77.5698 31.1403C77.5714 30.425 78.1716 29.8457 78.9131 29.8457Z" fill="#C51617"/>
<path fill-rule="evenodd" clip-rule="evenodd" d="M86.1011 125.105C86.8428 125.105 87.4428 125.685 87.4428 126.399C87.4428 127.114 86.8428 127.692 86.1011 127.692C85.3596 127.692 84.7578 127.112 84.7578 126.399C84.7578 125.685 85.3581 125.105 86.1011 125.105Z" fill="#C51617"/>
<path fill-rule="evenodd" clip-rule="evenodd" d="M60.0583 42.4551C60.9237 42.4551 61.6239 43.1307 61.6239 43.9653C61.6239 44.7998 60.9222 45.4754 60.0583 45.4754C59.1947 45.4754 58.4927 44.7998 58.4927 43.9653C58.4927 43.1322 59.1929 42.4551 60.0583 42.4551Z" fill="#C51617"/>
<path fill-rule="evenodd" clip-rule="evenodd" d="M39.9871 83.7891C40.8525 83.7891 41.5527 84.4647 41.5527 85.2993C41.5527 86.1323 40.8525 86.8079 39.9871 86.8079C39.1217 86.8079 38.4199 86.1323 38.4199 85.2993C38.4199 84.4647 39.1217 83.7891 39.9871 83.7891Z" fill="#C51617"/>
<path fill-rule="evenodd" clip-rule="evenodd" d="M43.9061 106.68C44.7714 106.68 45.4717 107.355 45.4717 108.188C45.4717 109.023 44.7698 109.699 43.9061 109.699C43.0407 109.699 42.3389 109.023 42.3389 108.188C42.3389 107.355 43.0407 106.68 43.9061 106.68Z" fill="#C51617"/>
<path fill-rule="evenodd" clip-rule="evenodd" d="M123.215 41.1855C123.832 41.1855 124.334 41.6686 124.334 42.2632C124.334 42.8593 123.832 43.3423 123.215 43.3423C122.597 43.3423 122.097 42.8593 122.097 42.2632C122.097 41.6686 122.597 41.1855 123.215 41.1855Z" fill="#C51617"/>
<path fill-rule="evenodd" clip-rule="evenodd" d="M110.456 113.977C111.074 113.977 111.576 114.458 111.576 115.056C111.576 115.65 111.074 116.133 110.456 116.133C109.839 116.133 109.337 115.65 109.337 115.056C109.338 114.458 109.839 113.977 110.456 113.977Z" fill="#C51617"/>
<path fill-rule="evenodd" clip-rule="evenodd" d="M66.1646 114.137V47.1895H92.9053C98.65 47.1895 103.714 48.0699 108.088 49.8307C112.463 51.5902 116.121 53.9776 119.058 56.9964C121.996 60.0138 124.217 63.5493 125.718 67.6045C127.22 71.658 127.973 75.9791 127.973 80.5693C127.973 85.6609 127.139 90.2662 125.473 94.3842C123.809 98.5004 121.442 102.022 118.372 104.945C115.302 107.866 111.613 110.129 107.305 111.733C102.994 113.335 98.1943 114.137 92.9053 114.137H66.1646ZM108.577 80.5693C108.577 77.9923 108.218 75.6353 107.499 73.4984C106.781 71.36 105.754 69.538 104.414 68.0294C103.077 66.5206 101.427 65.3407 99.4678 64.4923C97.5083 63.6441 95.3203 63.2192 92.9053 63.2192H85.2646V98.1061H92.9053C95.3869 98.1061 97.6067 97.6675 99.5647 96.787C101.524 95.9065 103.172 94.6807 104.512 93.1109C105.849 91.5396 106.864 89.684 107.548 87.5456C108.234 85.4102 108.577 83.0838 108.577 80.5693Z" fill="#005C32"/>
<path fill-rule="evenodd" clip-rule="evenodd" d="M87.1838 108.155H50.0283C50.8143 110.208 51.7289 112.205 52.7721 114.136H87.1838V108.155ZM87.1838 47.1973H62.299C61.0145 48.6968 59.7825 50.2634 58.612 51.8989C58.3072 52.3239 58.0102 52.7505 57.7181 53.1784H87.1838V47.1973ZM87.1838 56.9447H55.3285C54.1694 58.9088 53.1277 60.9065 52.2004 62.9258H87.1838V56.9447ZM87.1838 98.4075H47.3306C47.6894 100.436 48.1642 102.432 48.7485 104.388H87.1838V98.4075Z" fill="#005C32"/>
</g>
<defs>
<clipPath id="clip0_1115_601">
<rect width="101" height="118" fill="white" transform="translate(30 21)"/>
</clipPath>
</defs>
</svg>
