<svg width="160" height="160" viewBox="0 0 160 160" fill="none" xmlns="http://www.w3.org/2000/svg">
<mask id="mask0_2421_7" style="mask-type:alpha" maskUnits="userSpaceOnUse" x="21" y="21" width="118" height="118">
<path d="M80.0001 139C112.585 139 139 112.585 139 80C139 47.4152 112.585 21 80.0001 21C47.4152 21 21 47.4152 21 80C21 112.585 47.4152 139 80.0001 139Z" fill="#7141D9"/>
</mask>
<g mask="url(#mask0_2421_7)">
<path d="M108 21H53C35.3269 21 21 35.3269 21 53V108C21 125.673 35.3269 140 53 140H108C125.673 140 140 125.673 140 108V53C140 35.3269 125.673 21 108 21Z" fill="#8131B0"/>
</g>
<path d="M61.5351 82.1119V86.8786H66.6245V88.7479C65.7485 89.7893 64.5711 90.537 63.2541 90.8892C61.9371 91.2416 60.5422 91.1813 59.2612 90.7171C57.9787 90.2527 56.8717 89.4066 56.0888 88.2937C55.3073 87.1808 54.8873 85.8548 54.8873 84.496C54.8873 83.1372 55.3073 81.8113 56.0888 80.6984C56.8717 79.5855 57.9787 78.7393 59.2612 78.275C60.5422 77.8106 61.9371 77.7505 63.2541 78.1027C64.5711 78.4551 65.7485 79.2026 66.6245 80.2441L73.2513 74.7034C71.7199 73.1703 69.8914 71.9631 67.877 71.1553C65.864 70.3475 63.7056 69.9557 61.5351 70.004C52.9568 70.004 46 75.7882 46 84.4983C46 93.2083 52.9568 98.9926 61.5351 98.9926C64.0911 99.0713 66.626 98.5225 68.918 97.3948C71.2099 96.2669 73.1883 94.5947 74.6793 92.5254V82.1075L61.5351 82.1119ZM94.2598 70.0144V77.934C95.8828 78.1321 97.3753 78.9204 98.4507 80.1474C99.5262 81.3744 100.11 82.954 100.089 84.5829C100.066 86.2117 99.4422 87.7753 98.3337 88.9737C97.2268 90.172 95.7133 90.9206 94.0858 91.076C92.4584 91.2313 90.8294 90.7824 89.5139 89.8153C88.197 88.8484 87.2865 87.4314 86.955 85.8361C86.6235 84.241 86.895 82.5799 87.717 81.1718C88.539 79.7636 89.8545 78.7074 91.4099 78.206L88.917 70.5688C85.761 71.2856 82.9471 73.0591 80.9447 75.5934C78.9437 78.1277 77.8742 81.2693 77.9177 84.4938C77.9177 93.2053 84.8746 98.9881 93.4589 98.9881C102.043 98.9881 109 93.2023 109 84.4938C109 76.0542 102.471 70.3626 94.2598 70.0144Z" fill="white"/>
<path d="M108 36L92 84V36H108Z" fill="#FF5867"/>
</svg>
