<svg width="160" height="160" viewBox="0 0 160 160" fill="none" xmlns="http://www.w3.org/2000/svg">
<path d="M90.5435 83.365C90.5435 88.9249 86.0361 92.2043 80.4765 92.2043C74.9167 92.2043 70.1641 88.9249 70.1641 83.365C72.1283 77.4722 70.9006 72.0703 80.4765 72.0703C89.8068 72.0703 89.0701 77.2269 90.5435 83.365Z" fill="#2D1F3F"/>
<path d="M80.478 84.8397C86.0378 84.8397 90.5449 80.9922 90.5449 76.246C90.5449 71.4999 86.0378 67.6523 80.478 67.6523C74.9182 67.6523 70.4111 71.4999 70.4111 76.246C70.4111 80.9922 74.9182 84.8397 80.478 84.8397Z" fill="#3E2D54"/>
<path d="M57.8895 21C63.2912 21 66.4831 31.3124 66.4831 31.3124L48.8047 35.4865C53.7854 29.8861 52.4877 21 57.8895 21Z" fill="#7FD088"/>
<path d="M57.5081 22.2266C58.3459 22.2266 59.7543 26.0543 60.5286 28.3664C60.8185 29.2325 60.188 30.1169 59.2753 30.1509C58.3743 30.1845 57.6837 29.3634 57.7625 28.4652C58.1382 24.1814 56.4433 22.2266 57.5081 22.2266Z" fill="white" fill-opacity="0.3"/>
<path d="M102.575 21C97.1732 21 93.9814 31.3124 93.9814 31.3124L111.66 35.732C106.679 30.1316 107.977 21 102.575 21Z" fill="url(#paint0_linear_2531_432)"/>
<path d="M43.042 48.3268C43.042 38.8729 50.7058 31.209 60.1597 31.209H100.101C109.555 31.209 117.219 38.8729 117.219 48.3268V63.0306C117.219 72.4844 109.555 80.1481 100.101 80.1481H60.1597C50.7058 80.1481 43.042 72.4844 43.042 63.0306V48.3268Z" fill="url(#paint1_linear_2531_432)"/>
<path d="M47.3311 49.4243C47.3311 41.4558 54.1297 34.9961 62.5164 34.9961H97.9486C106.336 34.9961 113.134 41.4558 113.134 49.4243V61.8176C113.134 69.786 106.336 76.2459 97.9486 76.2459H62.5164C54.1297 76.2459 47.3311 69.786 47.3311 61.8176V49.4243Z" fill="url(#paint2_linear_2531_432)"/>
<path d="M72.8662 66.18C76.3037 67.571 84.1606 68.8318 88.0895 62.7422" stroke="#56EBFF"/>
<path d="M100.436 112.63C95.4019 137.541 65.1966 136.662 60.1624 112.63L54.6665 90.4623C53.6514 86.8249 56.386 83.2227 60.1624 83.2227H65.1966H70.2308C75.7594 88.3923 84.3063 88.5317 90 83.5444L90.3676 83.2227H95.4019H100.436C104.212 83.2227 106.947 86.8249 105.932 90.4623L100.436 112.63Z" fill="url(#paint3_linear_2531_432)"/>
<path d="M42.66 92.8197C41.9855 90.3026 43.4793 87.7153 45.9964 87.0407C48.5135 86.3666 51.1007 87.8603 51.7752 90.3774L57.5496 111.928C58.224 114.445 56.7303 117.032 54.2132 117.706C51.6961 118.381 49.1089 116.887 48.4344 114.37L42.66 92.8197Z" fill="url(#paint4_linear_2531_432)"/>
<path d="M118.318 92.8461C119.061 90.3485 117.639 87.7215 115.141 86.9784C112.643 86.2353 110.016 87.6577 109.273 90.1554L102.912 111.539C102.169 114.037 103.591 116.664 106.089 117.408C108.587 118.15 111.214 116.728 111.957 114.23L118.318 92.8461Z" fill="url(#paint5_linear_2531_432)"/>
<path d="M79.5805 138.742C91.5191 138.742 101.197 137.661 101.197 136.328C101.197 134.995 91.5191 133.914 79.5805 133.914C67.642 133.914 57.9639 134.995 57.9639 136.328C57.9639 137.661 67.642 138.742 79.5805 138.742Z" fill="#277276"/>
<path d="M102.465 22.2266C101.627 22.2266 100.218 26.0543 99.4443 28.3664C99.1544 29.2325 99.7847 30.1169 100.697 30.1509C101.598 30.1845 102.289 29.3634 102.21 28.4652C101.834 24.1814 103.53 22.2266 102.465 22.2266Z" fill="white" fill-opacity="0.3"/>
<path fill-rule="evenodd" clip-rule="evenodd" d="M61.0696 44.2858C60.9143 44.4642 60.7749 44.6558 60.6533 44.8587H73.7829C73.6614 44.6558 73.522 44.4642 73.3668 44.2858H61.0696ZM60.1933 46.0045C60.2378 45.8077 60.2972 45.6164 60.3704 45.4316H74.0659C74.1391 45.6164 74.1986 45.8077 74.243 46.0045H60.1933ZM60.1081 46.5774C60.1012 46.672 60.0977 46.7676 60.0977 46.8639V47.1503H74.3386V46.8639C74.3386 46.7676 74.3351 46.672 74.3282 46.5774H60.1081ZM60.0977 48.2962V47.7233H74.3386V48.2962H60.0977ZM60.0977 48.8691V49.442H74.3386V48.8691H60.0977ZM60.0977 50.5878V50.0149H74.3386V50.5878H60.0977ZM60.0977 51.1607V51.7336H74.3386V51.1607H60.0977ZM60.0977 52.593V52.3066H74.3386V52.593C74.3386 52.6893 74.3351 52.7849 74.3282 52.8795H60.1081C60.1012 52.7849 60.0977 52.6893 60.0977 52.593ZM60.1933 53.4524C60.2378 53.6491 60.2972 53.8405 60.3704 54.0253H74.0659C74.1391 53.8405 74.1986 53.6491 74.243 53.4524H60.1933ZM61.0696 55.1711C60.9143 54.9927 60.7749 54.8011 60.6533 54.5982H73.7829C73.6614 54.8011 73.522 54.9927 73.3668 55.1711H61.0696ZM61.6816 55.744C62.3886 56.2822 63.2811 56.6034 64.2513 56.6034H70.185C71.1552 56.6034 72.0477 56.2822 72.7547 55.744H61.6816ZM61.6816 43.7129H72.7547C72.0477 43.1747 71.1552 42.8535 70.185 42.8535H64.2513C63.2811 42.8535 62.3886 43.1747 61.6816 43.7129Z" fill="#56EBFF"/>
<path fill-rule="evenodd" clip-rule="evenodd" d="M87.5869 44.2858C87.4316 44.4642 87.2922 44.6558 87.1708 44.8587H100.3C100.179 44.6558 100.039 44.4642 99.8843 44.2858H87.5869ZM86.7108 46.0045C86.755 45.8077 86.8147 45.6164 86.8876 45.4316H100.583C100.656 45.6164 100.716 45.8077 100.76 46.0045H86.7108ZM86.6256 46.5774C86.6184 46.672 86.6152 46.7676 86.6152 46.8639V47.1503H100.856V46.8639C100.856 46.7676 100.852 46.672 100.846 46.5774H86.6256ZM86.6152 48.2962V47.7233H100.856V48.2962H86.6152ZM86.6152 48.8691V49.442H100.856V48.8691H86.6152ZM86.6152 50.5878V50.0149H100.856V50.5878H86.6152ZM86.6152 51.1607V51.7336H100.856V51.1607H86.6152ZM86.6152 52.593V52.3066H100.856V52.593C100.856 52.6893 100.852 52.7849 100.846 52.8795H86.6256C86.6184 52.7849 86.6152 52.6893 86.6152 52.593ZM86.7108 53.4524C86.755 53.6491 86.8147 53.8405 86.8876 54.0253H100.583C100.656 53.8405 100.716 53.6491 100.76 53.4524H86.7108ZM87.5869 55.1711C87.4316 54.9927 87.2922 54.8011 87.1708 54.5982H100.3C100.179 54.8011 100.039 54.9927 99.8843 55.1711H87.5869ZM88.199 55.744C88.9058 56.2822 89.7986 56.6034 90.7687 56.6034H96.7025C97.6726 56.6034 98.565 56.2822 99.2722 55.744H88.199ZM88.199 43.7129H99.2722C98.565 43.1747 97.6726 42.8535 96.7025 42.8535H90.7687C89.7986 42.8535 88.9058 43.1747 88.199 43.7129Z" fill="#56EBFF"/>
<path fill-rule="evenodd" clip-rule="evenodd" d="M80.196 87.1914C80.2159 87.1914 80.2358 87.1918 80.2557 87.1918L80.7228 109.146L80.2585 130.98C80.2362 130.98 80.2143 130.98 80.192 130.98L79.4951 109.146L80.196 87.1914Z" fill="#2E1F40"/>
<path d="M69.3584 118.23H69.5689L69.7793 120.931L69.5689 123.632H69.3584H69.148L68.9375 120.932L69.148 118.23H69.3584Z" fill="#332345"/>
<path d="M71.043 118.23H71.2534L71.4639 120.931L71.2534 123.632H71.043H70.8325L70.6221 120.932L70.8325 118.23H71.043Z" fill="#332345"/>
<path d="M72.7246 118.23H72.9351L73.1455 120.931L72.9351 123.632H72.7246H72.5142L72.3037 120.932L72.5142 118.23H72.7246Z" fill="#332345"/>
<path d="M64.0264 90.4851C64.0264 89.8074 64.576 89.2578 65.254 89.2578H70.1646H75.0754C75.7534 89.2578 76.303 89.8074 76.303 90.4851V91.0757C76.303 91.4357 76.0266 91.7351 75.668 91.7638C72.005 92.0569 68.3244 92.0569 64.6614 91.7638C64.3028 91.7351 64.0264 91.4357 64.0264 91.0757V90.4851Z" fill="#332345"/>
<path d="M74.4092 118.23H74.6197L74.8301 120.931L74.6197 123.632H74.4092H74.1987L73.9883 120.932L74.1987 118.23H74.4092Z" fill="#332345"/>
<path d="M78.4332 116.141C77.0789 116.141 75.863 115.311 75.3685 114.051L69.17 98.2498C68.3229 96.0906 69.915 93.7559 72.2345 93.7559H88.3767C90.7226 93.7559 92.3155 96.14 91.4179 98.3075L84.8732 114.108C84.3635 115.339 83.1632 116.141 81.832 116.141H78.4332Z" fill="#332345"/>
<path fill-rule="evenodd" clip-rule="evenodd" d="M75.5481 96.252C75.8675 96.2568 76.1371 96.4902 76.1879 96.8056L78.1902 109.244L79.7158 103.14C79.7847 102.866 80.0216 102.665 80.3039 102.644C80.5867 102.622 80.8515 102.784 80.9614 103.045L82.6431 107.039L83.8318 97.6486C83.8708 97.3404 84.1205 97.101 84.4303 97.0752C84.7397 97.0493 85.0256 97.2436 85.1152 97.5411L87.0617 103.994H88.0871H88.5996H89.0369L88.4897 105.311H86.5727C86.2824 105.311 86.0264 105.121 85.9423 104.843L84.7493 100.887L83.641 109.637C83.6036 109.933 83.3726 110.167 83.0775 110.207C82.7825 110.247 82.4969 110.085 82.3811 109.81L80.5142 105.376L78.6888 112.677C78.6131 112.98 78.3344 113.189 78.0221 113.175C77.7097 113.162 77.4499 112.931 77.4002 112.622L75.4791 100.687L74.3949 106.302C74.3351 106.612 74.0639 106.836 73.7485 106.836H72.8157H72.554L72.0371 105.519H73.205L74.8915 96.7853C74.952 96.4719 75.2288 96.2469 75.5481 96.252Z" fill="#4CBCD5"/>
<path d="M38 50.4618C38 48.2921 39.7589 46.5332 41.9285 46.5332V65.1938C39.7589 65.1938 38 63.4349 38 61.2654V50.4618Z" fill="#D25674"/>
<path d="M122.464 50.4618C122.464 48.2921 120.705 46.5332 118.535 46.5332V65.1938C120.705 65.1938 122.464 63.4349 122.464 61.2654V50.4618Z" fill="#D25674"/>
<defs>
<linearGradient id="paint0_linear_2531_432" x1="102.821" y1="21" x2="102.821" y2="35.732" gradientUnits="userSpaceOnUse">
<stop stop-color="#7FD088"/>
<stop offset="1" stop-color="#57A57F"/>
</linearGradient>
<linearGradient id="paint1_linear_2531_432" x1="117.224" y1="89.2446" x2="39.9212" y2="31.5636" gradientUnits="userSpaceOnUse">
<stop stop-color="#226C74"/>
<stop offset="1" stop-color="#97E98E"/>
</linearGradient>
<linearGradient id="paint2_linear_2531_432" x1="52.7328" y1="38.4336" x2="109.205" y2="71.3351" gradientUnits="userSpaceOnUse">
<stop stop-color="#412F57"/>
<stop offset="1" stop-color="#241733"/>
</linearGradient>
<linearGradient id="paint3_linear_2531_432" x1="106.251" y1="131.053" x2="54.4583" y2="83.2115" gradientUnits="userSpaceOnUse">
<stop stop-color="#226C74"/>
<stop offset="1" stop-color="#8CDD8C"/>
</linearGradient>
<linearGradient id="paint4_linear_2531_432" x1="48.1592" y1="119.662" x2="40.1205" y2="88.4867" gradientUnits="userSpaceOnUse">
<stop stop-color="#226C74"/>
<stop offset="1" stop-color="#8CDD8C"/>
</linearGradient>
<linearGradient id="paint5_linear_2531_432" x1="110.64" y1="121.503" x2="120.845" y2="85.6216" gradientUnits="userSpaceOnUse">
<stop stop-color="#226C74"/>
<stop offset="1" stop-color="#8CDD8C"/>
</linearGradient>
</defs>
</svg>
