<svg width="160" height="160" viewBox="0 0 160 160" fill="none" xmlns="http://www.w3.org/2000/svg">
<path d="M100.534 56V66.2153C105.493 70.4168 109.062 76.0754 110.754 82.4202C112.446 88.7652 112.179 95.4878 109.989 101.672C107.798 107.857 103.792 113.202 98.5151 116.98C93.2383 120.758 86.9474 122.785 80.5001 122.785C74.0526 122.785 67.7617 120.758 62.4849 116.98C57.208 113.202 53.2015 107.857 51.0114 101.672C48.8213 95.4878 48.5539 88.7652 50.2458 82.4202C51.9377 76.0754 55.5066 70.4168 60.4662 66.2153V56C52.9965 60.4828 47.18 67.347 43.9132 75.534C40.6464 83.7212 40.1108 92.7766 42.3888 101.305C44.6668 109.833 49.632 117.36 56.5192 122.727C63.4063 128.093 71.8329 131 80.5001 131C89.1672 131 97.5937 128.093 104.481 122.727C111.368 117.36 116.333 109.833 118.611 101.305C120.889 92.7766 120.354 83.7212 117.087 75.534C113.82 67.347 108.004 60.4828 100.534 56Z" fill="#006D68"/>
<path d="M64.3291 106L64 46.2995C63.9998 45.198 64.2336 44.1077 64.6875 43.0918C65.1416 42.0761 65.807 41.155 66.6447 40.3827C67.4824 39.6102 68.4758 39.0019 69.5669 38.593C70.658 38.1841 71.825 37.9829 73 38.0011V97.7014C73.0004 99.873 72.0928 101.958 70.4717 103.51C68.8508 105.061 66.6456 105.955 64.3291 106Z" fill="#006D68"/>
<path d="M88.1814 97.9999L88 38.2986C88 37.2059 88.2283 36.124 88.672 35.1149C89.1156 34.1059 89.7656 33.1895 90.585 32.4185C91.4044 31.6474 92.3768 31.0369 93.4465 30.6219C94.5162 30.2069 95.6621 29.9956 96.8184 30.0001L97 89.7014C97 90.7941 96.7715 91.876 96.328 92.8849C95.8844 93.8941 95.2342 94.8104 94.4148 95.5814C93.5954 96.3525 92.623 96.963 91.5533 97.3781C90.4836 97.7932 89.3377 98.0043 88.1814 97.9999Z" fill="#006D68"/>
<path d="M77.1422 89.9999L77 30.2985C77.0074 28.1063 77.7314 26.0059 79.015 24.4526C80.2987 22.8992 82.0387 22.018 83.8578 22L84 81.7012C84 82.7941 83.821 83.876 83.4731 84.8849C83.1253 85.8941 82.6156 86.8104 81.9731 87.5814C81.3306 88.3525 80.5681 88.963 79.7293 89.3779C78.8906 89.793 77.992 90.0043 77.0853 89.9999" fill="#006D68"/>
</svg>
