<svg width="160" height="160" viewBox="0 0 160 160" fill="none" xmlns="http://www.w3.org/2000/svg">
<g clip-path="url(#clip0_2421_128)">
<path fill-rule="evenodd" clip-rule="evenodd" d="M49.8317 28.2539C21.0658 44.9735 11.4771 81.7989 28.3105 110.37C45.1439 138.942 82.22 148.466 110.986 131.746C139.752 115.026 149.341 78.201 132.507 49.6296C115.674 21.0582 78.5977 11.5344 49.8317 28.2539Z" fill="#E4003A"/>
<path fill-rule="evenodd" clip-rule="evenodd" d="M42.7996 52.3809L86.055 52.8041C94.3652 52.8041 105.872 53.8623 106.511 61.9047L86.055 66.3491C81.7934 67.4073 79.8757 67.1957 75.6141 66.1375L61.9769 62.5396C51.9621 59.9999 44.0781 56.402 42.7996 52.3809ZM131.654 69.3121C126.967 62.5396 110.559 64.656 97.9876 67.8306L32.1455 82.6454C43.865 92.3809 67.3039 91.7459 89.8905 86.4549C91.169 86.2433 91.5952 87.3015 90.7428 87.9364L72.4179 103.386C64.5338 109.947 59.8461 117.354 60.2722 121.376L99.4792 102.54C108.642 98.0952 118.23 88.3597 111.625 79.6825C119.509 76.5078 127.18 72.6983 131.654 69.3121Z" fill="white"/>
</g>
<defs>
<clipPath id="clip0_2421_128">
<rect width="121" height="120" fill="white" transform="translate(20 20)"/>
</clipPath>
</defs>
</svg>
