<svg width="160" height="160" viewBox="0 0 160 160" fill="none" xmlns="http://www.w3.org/2000/svg">
<mask id="mask0_2421_137" style="mask-type:luminance" maskUnits="userSpaceOnUse" x="24" y="38" width="112" height="78">
<path d="M136 38.3164H24V115.834H136V38.3164Z" fill="white"/>
</mask>
<g mask="url(#mask0_2421_137)">
<path d="M59.7837 72.3299C59.7837 61.4739 68.9194 52.6719 80.1864 52.6719C91.4536 52.6719 100.589 61.4739 100.589 72.3299C100.589 83.1858 91.4536 91.9879 80.1864 91.9879C68.9194 91.9879 59.7837 83.1858 59.7837 72.3299Z" fill="#FF8F32"/>
<path d="M136.519 99.3223H24V114.139H136.519V99.3223Z" fill="#FF8F32"/>
<path d="M31.6129 52.5273C29.0245 52.5273 26.4361 52.9674 24 53.9943V90.5232C34.5058 94.6307 46.382 89.6429 50.6453 79.5204C54.9085 69.3981 49.7318 57.9553 39.2258 53.9943C36.7897 53.1141 34.2013 52.5273 31.6129 52.5273Z" fill="#FF8F32"/>
<path d="M128.745 52.5273C131.334 52.5273 133.922 52.9674 136.358 53.9943V90.5232C125.852 94.6307 113.976 89.7895 109.713 79.6672C105.45 69.5446 110.474 58.102 120.98 53.9943C123.569 53.1141 126.157 52.5273 128.745 52.5273Z" fill="#FF8F32"/>
</g>
</svg>
