<svg width="160" height="160" viewBox="0 0 160 160" fill="none" xmlns="http://www.w3.org/2000/svg">
<path d="M83.5001 101.927C102.004 101.927 117 86.942 117 68.4636C117 49.985 102.004 35 83.5001 35C64.9963 35 50 49.985 50 68.4636V124H74.239V100.631V68.5186C74.239 68.5003 74.239 68.4819 74.239 68.4636C74.239 63.3521 78.3909 59.2059 83.5092 59.2059C88.6276 59.2059 92.7795 63.3521 92.7795 68.4636C92.7795 73.5749 88.6276 77.7211 83.5092 77.7211C82.7727 77.7211 82.0548 77.6385 81.3735 77.4729V101.863C82.0639 101.899 82.782 101.927 83.5001 101.927Z" fill="#FF2400"/>
</svg>
