<svg width="160" height="160" viewBox="0 0 160 160" fill="none" xmlns="http://www.w3.org/2000/svg">
<path d="M113.42 49.3781C109.749 46.581 104.776 44.7552 99.8232 49.3781C96.8707 51.3205 88.8097 59.0902 79.9718 70.7447C77.6603 73.8137 75.4654 76.7273 73.4647 79.4661C66.2001 73.9497 60.47 70.0454 58.1003 69.7541C54.0795 68.2001 49.7284 72.5705 46.9313 76.2417C44.1343 79.9129 40.9293 85.0991 43.4933 88.5371C44.4062 90.7515 49.573 95.3939 56.8377 100.93C65.5591 107.553 71.8525 112.584 75.5431 113.05C81.1955 115.245 85.2551 108.563 101.513 87.0998C110.351 75.4453 115.984 65.7333 117.052 62.4506C120.082 56.468 116.994 52.1752 113.42 49.3781Z" fill="url(#paint0_linear_2421_185)"/>
<path fill-rule="evenodd" clip-rule="evenodd" d="M107.253 45.0484C109.977 45.3162 112.41 46.6551 114.361 48.1414L114.377 48.1536C116.273 49.6379 118.179 51.6205 119.161 54.1582C120.16 56.7392 120.139 59.7308 118.49 63.0469C117.858 64.9087 116.108 68.247 113.518 72.4501C110.844 76.7908 107.197 82.1736 102.75 88.0379C100.882 90.5049 99.1692 92.7835 97.5935 94.8802C92.3575 101.847 88.6302 106.807 85.6934 109.998C83.7815 112.076 82.0646 113.566 80.344 114.353C78.5771 115.16 76.882 115.191 75.1552 114.564C74.0256 114.388 72.8192 113.911 71.5779 113.272C70.2498 112.589 68.7839 111.668 67.1968 110.58C64.6042 108.801 61.586 106.5 58.1968 103.917C57.4481 103.347 56.6812 102.762 55.8968 102.166L55.8948 102.165C52.2427 99.3818 49.0933 96.805 46.7304 94.6305C45.5498 93.5441 44.5467 92.5409 43.7696 91.6495C43.0749 90.8526 42.4821 90.0574 42.1368 89.3135C40.5086 86.994 40.8631 84.2537 41.7484 81.9241C42.6612 79.522 44.2748 77.1624 45.6943 75.2992C47.1302 73.4146 49.0317 71.257 51.1651 69.7644C53.2311 68.319 55.8236 67.295 58.4872 68.24C59.3077 68.3787 60.2331 68.757 61.1744 69.2288C62.2283 69.757 63.4459 70.4776 64.7886 71.3443C67.1622 72.8764 70.0029 74.9149 73.1434 77.2756C74.876 74.9255 76.7354 72.4566 78.6711 69.8866L78.7295 69.809L78.7326 69.805C83.1873 63.9306 87.4507 59.0292 90.9814 55.3437C94.4037 51.7713 97.2087 49.2664 98.8572 48.1532C101.604 45.6309 104.484 44.7761 107.253 45.0484ZM106.949 48.1414C105.108 47.9604 103.06 48.481 100.882 50.5134L100.786 50.6032L100.676 50.6756C99.3556 51.5444 96.7034 53.8633 93.2256 57.4936C89.7787 61.0917 85.5932 65.9015 81.2105 71.6807L81.2089 71.6828L81.1619 71.7453C78.8673 74.792 76.6968 77.6738 74.7185 80.3819L73.7847 81.6602L72.5239 80.7029C68.9011 77.9518 65.6897 75.625 63.1032 73.9555C61.809 73.1201 60.6958 72.4653 59.7818 72.0071C58.8318 71.531 58.2262 71.3345 57.9096 71.2956L57.7186 71.2721L57.5391 71.2027C56.2422 70.7015 54.7162 71.073 52.9467 72.3109C51.2002 73.5329 49.5276 75.3961 48.1664 77.1827C46.7889 78.9906 45.4015 81.0597 44.6535 83.028C43.8974 85.0178 43.9273 86.5204 44.738 87.6074L44.8546 87.7637L44.9289 87.9441C45.0571 88.255 45.4123 88.8044 46.1123 89.6073C46.7877 90.3821 47.7015 91.3007 48.8349 92.3436C51.0996 94.4277 54.1656 96.9398 57.7777 99.6923C58.5767 100.299 59.3531 100.891 60.1073 101.466C63.4937 104.046 66.4328 106.286 68.9551 108.017C70.4929 109.072 71.8374 109.911 72.9998 110.509C74.1784 111.115 75.0761 111.424 75.7368 111.508L75.9264 111.532L76.1046 111.601C77.1432 112.004 78.0202 111.997 79.0524 111.526C80.1909 111.006 81.5648 109.895 83.4066 107.894C86.2291 104.827 89.8214 100.047 95.0212 93.129C96.6132 91.0108 98.3559 88.6921 100.273 86.1607C104.664 80.3706 108.254 75.0695 110.872 70.8198C113.521 66.5216 115.103 63.4144 115.574 61.9689L115.611 61.8548L115.665 61.7477C116.994 59.123 116.933 57.0129 116.263 55.2799C115.566 53.4791 114.143 51.9188 112.469 50.6073C110.751 49.2996 108.865 48.3297 106.949 48.1414Z" fill="url(#paint1_linear_2421_185)"/>
<path d="M97.0254 61.5186C100.211 57.9446 103.163 54.5648 105.863 54.2734" stroke="white" stroke-width="2" stroke-miterlimit="10" stroke-linecap="round"/>
<defs>
<linearGradient id="paint0_linear_2421_185" x1="80.4187" y1="46.5547" x2="80.4187" y2="113.447" gradientUnits="userSpaceOnUse">
<stop stop-color="#05ED92"/>
<stop offset="1" stop-color="#4EB4FF"/>
</linearGradient>
<linearGradient id="paint1_linear_2421_185" x1="80.4178" y1="45" x2="80.4178" y2="115" gradientUnits="userSpaceOnUse">
<stop stop-color="#2BAD76"/>
<stop offset="1" stop-color="#264CD4"/>
</linearGradient>
</defs>
</svg>
