<svg width="160" height="160" viewBox="0 0 160 160" fill="none" xmlns="http://www.w3.org/2000/svg">
<path d="M79.9729 99C65.4802 99 57 90.2974 57 79.4726C57 68.7026 65.4802 60 79.9729 60C94.5198 60 103 68.7026 103 79.4726C103 90.2974 94.5198 99 79.9729 99ZM79.9729 65.6098C70.7946 65.6098 65.1609 71.5377 65.1609 79.4781C65.1609 87.4184 70.7946 93.4012 79.9729 93.4012C89.2054 93.4012 94.8932 87.4184 94.8932 79.4781C94.8932 71.5377 89.2054 65.6098 79.9729 65.6098Z" fill="#4A69E3"/>
<path d="M116.303 112.806C107.202 122.615 94.0839 128.699 79.5672 128.453C53.7981 128.023 32.621 107.479 31.6224 81.9087C30.5471 54.3229 52.8434 31.5352 80.4066 31.5352C94.5887 31.5352 107.377 37.5698 116.303 47.1881C116.918 47.8526 117.79 48.2175 118.695 48.2175C121.576 48.2175 123.052 44.8135 121.098 42.7166C110.57 31.3991 95.3238 24.4658 78.4919 25.0323C49.1073 26.018 25.4339 50.0039 25.006 79.1856C24.5561 109.887 49.5791 135 80.4011 135C96.4979 135 111.009 128.154 121.137 117.239C123.068 115.159 121.543 111.782 118.695 111.782C117.79 111.782 116.918 112.147 116.303 112.806Z" fill="#4B6AE3"/>
</svg>
