<svg width="160" height="160" viewBox="0 0 160 160" fill="none" xmlns="http://www.w3.org/2000/svg">
<path d="M115.234 104.206C113.05 104.775 111.426 104.019 109.929 102.756C107.933 101.118 105.999 99.4152 104.063 97.7144C101.318 95.4452 98.3853 93.552 94.6416 93.6795C93.7046 93.6795 92.9558 93.8048 92.3334 92.6725C91.7087 91.4103 92.4574 90.9695 93.0179 90.2757C96.2632 86.3662 98.5094 82.018 98.3853 76.8485C98.1971 70.672 93.7046 67.9597 88.2773 70.5444C87.5906 70.8577 86.8418 72.0572 86.1551 71.1106C85.5924 70.3542 86.2792 69.3471 86.9039 68.5907C87.1542 68.2752 87.4023 67.9597 87.5906 67.6441C90.8359 63.3586 90.9599 58.8828 88.151 54.2795C86.2792 51.2539 84.0329 48.5439 81.7247 45.8965C81.224 45.328 80.8497 44.9499 81.4123 43.9428C83.2842 40.6643 82.9098 38.2049 80.6016 36.3788C78.043 34.3602 74.8597 34.5482 72.3632 37.0076C71.6144 37.764 70.8657 37.8894 69.9309 37.8267C66.2492 37.5761 62.5675 37.8894 59.1361 39.2768C56.3892 40.4114 54.081 40.727 51.8347 38.5204C51.4604 38.1422 50.8977 38.0169 50.3372 37.8267C46.9036 36.4392 43.5365 37.4485 41.226 40.4741C38.9178 43.4997 38.9798 46.5902 41.3501 49.7411C41.7887 50.3096 42.2251 50.6251 41.6004 51.4419C30.4313 64.7438 28.3711 85.5471 31.056 97.7771C34.7377 114.608 46.8416 121.228 51.5844 123.685C55.5164 125.703 59.6965 127.216 63.8146 128.854C73.2382 132.574 83.1601 133.583 93.2062 132.701C101.194 132.008 103.565 129.423 105 120.975C105.062 120.471 105.062 120.156 105.687 120.03C112.425 118.39 114.922 112.592 117.667 107.232C118.666 105.278 117.292 103.64 115.234 104.206ZM52.6455 119.021C46.0929 115.743 41.102 111.33 37.7947 104.838C42.8476 109.313 48.7157 111.204 55.5164 110.951C53.7686 113.411 52.3952 115.743 52.6455 119.021ZM45.4682 82.0806C42.1011 80.315 39.1681 78.1084 36.4212 75.461C35.6725 74.7673 35.2981 74.1384 35.5484 73.0016C37.17 66.0687 39.6665 59.5117 43.9729 53.776C44.5334 53.0196 45.096 52.2632 46.2191 52.5788C47.7166 52.957 48.7777 52.3259 49.4644 50.9384C53.6446 42.8082 60.9459 41.1052 69.1201 41.1052C71.3043 41.1052 73.3002 41.7989 74.8597 43.3117C77.8547 46.212 80.7256 49.175 84.157 52.5161C82.5354 52.1357 81.4744 51.3166 80.6016 52.2006C79.6645 53.0823 80.1009 54.2818 80.4753 55.2888C81.4744 57.9989 82.8478 60.4583 85.5924 61.7182C86.6535 62.224 86.4054 62.6649 86.2171 63.5466C86.0311 64.4932 85.5925 64.5536 84.7817 64.4305C83.2842 64.115 81.8487 64.4932 80.4753 65.1869C79.5405 65.6905 78.7297 66.3842 78.7917 67.5188C78.8538 68.7787 80.0389 69.0316 80.9759 69.3471C81.6006 69.5351 82.3494 69.5351 83.4725 69.5978C79.9769 73.9482 75.6705 71.3008 71.7407 71.4261C72.2391 73.382 74.111 73.1918 75.3603 74.1384C65.7507 77.4773 56.5155 79.6212 49.9008 68.3379C49.0258 74.2011 55.8288 78.6768 66.6856 79.9994C61.008 85.4218 53.268 86.1155 45.4682 82.0806ZM95.4524 112.592C88.5254 113.286 81.8487 112.339 75.4224 109.504C73.5784 108.708 71.7272 107.93 69.8688 107.169C73.5505 105.216 76.8578 102.884 79.6645 99.9836C82.6028 96.9047 84.97 93.318 86.6535 89.394C89.0261 96.0114 92.8938 100.993 97.4483 105.469C97.8869 105.91 98.1971 106.476 98.4474 107.044C100.071 110.446 99.1341 112.214 95.4524 112.592Z" fill="#047EEF"/>
<path d="M101 45.3124L106.691 49.6876L108.159 57.6859L111.954 54.3734L118.929 60C124.19 52.1237 130.433 43.249 136 35C124.327 38.4166 112.661 41.8541 101 45.3124ZM117.461 57.0625L109.995 51.6866L108.344 56.5611L108.099 50.3133L132.942 36.9369L117.461 57.0603V57.0625Z" fill="#047EEF"/>
<path d="M73 57.6246C72.8075 60.6781 72.033 63.5888 70.0326 66.0168C68.2889 68.1665 65.8371 68.5827 63.7702 67.1963C61.8982 65.9478 61.5109 63.867 62.6085 61.0229C63.6419 58.3166 65.3834 56.1669 67.5785 54.5022C68.7403 53.601 69.9662 52.4214 71.5152 53.3227C72.9359 54.224 72.9358 55.9576 73 57.6246Z" fill="#047EEF"/>
</svg>
