<svg width="160" height="160" viewBox="0 0 160 160" fill="none" xmlns="http://www.w3.org/2000/svg">
<path fill-rule="evenodd" clip-rule="evenodd" d="M45.2436 82.493C45.2436 82.5626 45.2436 82.6321 45.2436 82.6321L88.2535 60.7776L39.4045 100.658C29.1505 80.6832 37.4107 56.3232 57.8475 46.3008C71.8754 39.4104 88.7519 40.872 101.284 50.1288L93.1667 56.7408C78.6402 47.6928 59.3428 51.8688 50.0858 66.0671C46.9526 71.0089 45.2436 76.7161 45.2436 82.493ZM117.805 82.493C117.805 104.835 99.2907 123 76.4327 123C69.9529 123 63.6154 121.538 57.8475 118.685L62.4759 113.326L64.6834 110.75L98.7211 70.9393L76.3616 113.047C76.4327 113.047 76.5039 113.047 76.5039 113.047C93.7365 113.047 107.693 99.336 107.693 82.493C107.693 76.7161 105.984 71.0089 102.851 66.1367L109.616 58.2024C114.885 65.1625 117.805 73.7234 117.805 82.493ZM105.699 53.8872L99.0769 61.6128L59.414 108.106L52.7917 115.831C48.7328 113.047 45.1724 109.567 42.3241 105.6L50.2282 99.1273L97.7954 60.2904L105.699 53.8872ZM101.783 45.1872C103.634 46.44 105.415 47.7624 107.052 49.2936L115.953 43.7952L110.328 52.4952C111.823 54.096 113.248 55.836 114.529 57.6456L124 36L101.783 45.1872Z" fill="#1D1D1F"/>
</svg>
