<svg width="160" height="160" viewBox="0 0 160 160" fill="none" xmlns="http://www.w3.org/2000/svg">
<path d="M45 58.9332C45 55.4299 47.8471 52.5898 51.3591 52.5898H108.593C112.105 52.5898 114.95 55.4299 114.95 58.9332V116.657C114.95 120.161 112.105 123.001 108.593 123.001H51.3591C47.8471 123.001 45 120.161 45 116.657V58.9332Z" fill="#E6B63A"/>
<path d="M52.6289 42.7575C52.6289 40.13 54.7644 38 57.3983 38H102.548C105.182 38 107.318 40.13 107.318 42.7575C107.318 45.385 105.182 47.515 102.548 47.515H57.3983C54.7644 47.515 52.6289 45.385 52.6289 42.7575Z" fill="#E6B63A"/>
<path d="M63.2882 81.235C64.2038 72.3545 69.9527 67.9141 80.5341 67.9141C85.4689 67.9141 89.3859 68.8783 92.2851 70.8066C95.2378 72.7351 96.7121 75.7292 96.7121 79.7889V99.7323C96.7121 100.849 96.8385 101.61 97.0935 102.016C97.3999 102.422 97.9591 102.625 98.7734 102.625C99.3819 102.625 100.044 102.574 100.755 102.472V108.562C98.5184 109.12 96.6349 109.399 95.1093 109.399C91.3958 109.399 89.2595 107.826 88.7002 104.68C85.3918 107.826 80.7891 109.399 74.8873 109.399C70.8175 109.399 67.5871 108.359 65.1959 106.278C62.8048 104.147 61.6094 101.28 61.6094 97.677C61.6094 96.5606 61.7367 95.5203 61.991 94.556C62.2454 93.592 62.5252 92.7546 62.8303 92.044C63.1865 91.3337 63.7206 90.674 64.4329 90.065C65.1959 89.456 65.8064 88.9486 66.2643 88.5425C66.773 88.1367 67.5616 87.7561 68.63 87.4009C69.7491 87.0456 70.5632 86.7919 71.0719 86.6395C71.6316 86.4366 72.5726 86.2337 73.8954 86.0306C75.2181 85.8276 76.0829 85.7008 76.4899 85.65C76.9478 85.5487 77.8634 85.4218 79.2371 85.2694C82.3405 84.8634 84.4511 84.5336 85.5718 84.2799C86.6903 83.9754 87.4531 83.5441 87.8603 82.9859C88.216 82.5798 88.3938 81.6411 88.3938 80.1694C88.3938 76.2113 85.6982 74.232 80.3049 74.232C77.4565 74.232 75.3707 74.7649 74.048 75.8305C72.7252 76.8963 71.8859 78.6978 71.5298 81.235H63.2882ZM88.3188 88.6949C87.6567 89.0502 86.8939 89.3799 86.0282 89.6844C85.1647 89.9381 84.4511 90.1158 83.8918 90.2173C83.384 90.2679 82.5441 90.3695 81.3741 90.5218C80.2545 90.674 79.517 90.7755 79.1608 90.8263C78.0924 90.9784 77.2529 91.1308 76.6424 91.2829C76.032 91.3845 75.2689 91.5874 74.3533 91.8919C73.4883 92.1964 72.8015 92.5769 72.2928 93.0336C71.8349 93.4396 71.428 94.0233 71.0719 94.7844C70.7157 95.495 70.5377 96.3577 70.5377 97.3725C70.5377 99.2502 71.1481 100.696 72.3691 101.711C73.641 102.726 75.3962 103.234 77.6345 103.234C81.5005 103.234 84.4768 102.193 86.5639 100.113C87.7338 98.9457 88.3188 96.6874 88.3188 93.3381V88.6949Z" fill="white"/>
</svg>
