<svg width="160" height="160" viewBox="0 0 160 160" fill="none" xmlns="http://www.w3.org/2000/svg">
<path d="M45.8325 102.065L45.9809 102.041C58.0718 99.9463 67.1914 89.0385 67.1914 76.6508C67.1914 64.5418 58.8947 54.2058 47.0096 51.4957L46.445 51.3756L46.1722 51.2122L45.1579 51.2314L45.0191 51.3179C43.8565 51.6158 43 52.6586 43 53.8935V66.0554C43 66.7185 43.2536 67.3384 43.7225 67.8285L43.8995 68.1601L44.4162 68.4051C47.689 69.9139 50.0622 73.3881 50.0622 76.6556C50.0622 79.9327 47.689 83.3973 44.4258 84.9013L43.8995 85.18L43.7608 85.4298C43.2679 85.9344 43 86.5543 43 87.2318V99.4033C43 100.864 44.2153 102.075 45.6938 102.075H45.8325V102.065ZM115.579 101.33L116.12 101.042L116.254 100.792C116.742 100.297 117 99.6676 117 98.9948V86.8281C117 85.3626 115.813 84.1805 114.077 84.1805H114.019C101.928 86.2707 92.8038 97.1833 92.8038 109.561C92.8038 121.68 101.1 132.026 113 134.721L113.56 134.841L113.828 135H114.311L114.852 134.99L114.99 134.899C116.158 134.596 117 133.558 117 132.328V120.157C117 119.503 116.761 118.898 116.311 118.417L116.144 118.076L115.589 117.817C112.316 116.308 109.943 112.834 109.943 109.557C109.943 106.304 112.311 102.834 115.579 101.33ZM79.9856 49.0643C92.1627 49.0643 102.555 40.7994 105.263 28.9787L105.392 28.4213L105.55 28.1474L105.541 27.1383L105.45 26.999C105.148 25.8361 104.11 25 102.871 25H90.6412C89.9809 25 89.3636 25.2451 88.8708 25.7064L88.5311 25.8745L88.2919 26.3983C86.7608 29.6562 83.2775 32.0156 79.9904 32.0156C76.6938 32.0156 73.2105 29.6562 71.6986 26.4031L71.4067 25.8842L71.1722 25.7448C70.6699 25.2547 70.0383 25 69.3588 25H57.1196C55.6507 25 54.4402 26.2013 54.4641 27.9552C56.5694 39.9921 67.5311 49.0643 79.9856 49.0643ZM114.789 53.461C114.191 53.043 113.349 52.8267 112.258 52.8267H97.0143C95.311 52.8267 93.7033 53.3361 92.3828 55.0612C91.8947 55.6906 44.9378 129.863 44.9378 129.863C44.2105 132.035 45.177 133.116 47.8277 133.116H62.3445C64.1627 133.116 65.4163 132.953 67.1387 131.233C67.7751 130.603 114.962 56.0799 114.962 56.0799C115.45 54.7584 115.392 53.8887 114.789 53.461Z" fill="#00AEEF"/>
</svg>
