<svg width="160" height="160" viewBox="0 0 160 160" fill="none" xmlns="http://www.w3.org/2000/svg">
<path d="M67.1094 76.1289L88.4455 91.707L109.782 76.1289H88.4455H67.1094Z" fill="#00B0B9"/>
<path d="M86.9726 124.349C105.366 118.414 118.609 107.287 126.702 94.6764L114.93 76.131L92.8584 91.7091C86.9726 110.255 69.315 121.382 50.9218 120.64C45.7717 120.64 40.6216 119.156 35.4715 116.931L34 122.124C48.7146 129.542 68.5793 130.284 86.9726 124.349ZM128.173 91.7091C131.116 85.0328 137.002 70.9383 131.852 56.8438C123.759 31.622 95.0656 21.2366 59.7505 30.1384L55.3362 47.942L53.129 55.3601H81.0867C97.2728 42.7493 125.966 49.4256 128.173 72.4219C128.909 76.8728 127.438 83.5491 125.966 88L128.173 91.7091Z" fill="#C6007E"/>
</svg>
