<svg width="160" height="160" viewBox="0 0 160 160" fill="none" xmlns="http://www.w3.org/2000/svg">
<path d="M52 126L104 125.945L103.973 77C93.1515 96.5219 72.8545 109.225 52.0267 114.08C52.0852 117.778 52 126 52 126Z" fill="#00CAD6"/>
<path d="M69 101C88.5659 91.6257 98 74.4812 98 74.4812C98 74.4812 97.9326 68.852 97.9326 68.7328C87.1512 65.1398 77.378 59.878 69.0194 52C69.0635 65.3614 69 101 69 101Z" fill="#00CAD6"/>
<path d="M71.0263 27C71.0263 27 71.0208 42.1543 71 45.934C76.4885 50.545 79.248 52.7027 84.9552 56L85 35.6842C78.4772 32.4432 75.9615 30.7204 71.0263 27Z" fill="#00CAD6"/>
</svg>
