<svg width="160" height="160" viewBox="0 0 160 160" fill="none" xmlns="http://www.w3.org/2000/svg">
<circle cx="80" cy="80" r="59" fill="#B71923"/>
<path d="M112.837 67.2719C108.931 58.6188 102.089 54.2544 92.708 54.0889C82.996 53.914 79.899 54.0511 70.1816 54.0511H42L55.2775 72.1375C66.5407 72.1375 76.7495 72.1375 87.866 72.1375V63.7255L101.342 77.197L87.866 90.6684V82.2753H74.9385C70.2336 88.7533 65.8551 94.7727 61.363 100.939C65.0465 105.965 68.886 111.199 72.6168 116.278C75.1418 112.821 77.1656 109.946 80.83 104.929C82.788 102.239 83.62 101.099 84.14 100.409C87.842 100.409 90.76 100.409 91.606 100.385C94.927 100.342 98.203 99.6107 101.227 98.2377C104.252 96.8648 106.959 94.8799 109.177 92.4084C112.029 89.2638 113.938 85.3803 114.686 81.202C115.527 76.4792 114.881 71.6119 112.837 67.2719Z" fill="white"/>
</svg>
