<svg width="160" height="160" viewBox="0 0 160 160" fill="none" xmlns="http://www.w3.org/2000/svg">
<path fill-rule="evenodd" clip-rule="evenodd" d="M113.872 112.213L80.7768 79.1175L47.3262 112.951V81.5649L81.0757 47.8155L114.582 81.3221C114.641 81.2935 114.694 81.2556 114.741 81.21L135.871 59.8282C130.88 46.2351 121.084 34.9401 108.332 28.0772C95.5815 21.2143 80.7587 19.2584 66.664 22.579C52.5694 25.8995 40.1786 34.2666 31.8323 46.0999C23.486 57.9331 19.762 72.4131 21.3637 86.8048C22.9655 101.197 29.782 114.504 40.5259 124.212C51.2697 133.92 65.1968 139.359 79.6767 139.499C94.1566 139.64 108.187 134.472 119.116 124.974C130.047 115.475 137.12 102.303 139 87.945L114.816 112.129L114.302 112.634L113.872 112.213Z" fill="#101737"/>
</svg>
