<svg width="160" height="160" viewBox="0 0 160 160" fill="none" xmlns="http://www.w3.org/2000/svg">
<path d="M33.6139 97.8718H20V65.1484H33.0638C39.4133 65.1484 43.1142 68.7336 43.1142 74.3398C43.1142 77.973 40.7406 80.313 39.0965 81.0951C41.0635 82.0154 43.5746 84.0847 43.5746 88.4517C43.5746 94.5634 39.4133 97.8718 33.6139 97.8718ZM32.5616 70.8449H26.3496V78.3882H32.5616C35.258 78.3882 36.7647 76.8723 36.7647 74.6165C36.7647 72.3668 35.258 70.8449 32.5616 70.8449ZM32.9741 84.1329H26.3496V92.1753H32.9741C35.8499 92.1753 37.2251 90.3345 37.2251 88.1329C37.2251 85.9252 35.8499 84.1329 32.9741 84.1329Z" fill="#121214"/>
<path d="M62.9395 84.4515V97.8718H56.6377V84.4515L46.8623 65.1484H53.7619L59.8366 78.34L65.8213 65.1484H72.7149L62.9395 84.4515Z" fill="#121214"/>
<path d="M90.7203 97.8718H77.1064V65.1484H90.1702C96.5196 65.1484 100.221 68.7336 100.221 74.3398C100.221 77.973 97.8469 80.313 96.2028 81.0951C98.1699 82.0154 100.681 84.0847 100.681 88.4517C100.681 94.5634 96.5196 97.8718 90.7203 97.8718ZM89.6679 70.8449H83.4559V78.3882H89.6679C92.3645 78.3882 93.8711 76.8723 93.8711 74.6165C93.8711 72.3668 92.3645 70.8449 89.6679 70.8449ZM90.0805 84.1329H83.4559V92.1753H90.0805C92.9562 92.1753 94.3314 90.3345 94.3314 88.1329C94.3256 85.9252 92.9562 84.1329 90.0805 84.1329Z" fill="#121214"/>
<path d="M113.97 55.125H107.62V87.8483H113.97V55.125Z" fill="#F7A600"/>
<path d="M134.434 70.8449V97.8718H128.084V70.8449H119.588V65.1484H142.929V70.8449H134.434Z" fill="#121214"/>
</svg>
