<svg width="160" height="160" viewBox="0 0 160 160" fill="none" xmlns="http://www.w3.org/2000/svg">
<path fill-rule="evenodd" clip-rule="evenodd" d="M103.599 104C108.067 104 113.454 100.37 115.632 95.8891L131.088 64.1114C133.267 59.6361 131.408 56 126.939 56H90.5399C86.0715 56 80.6794 59.6361 78.5014 64.1114L63.0453 95.8891C61.2075 99.6669 59.2221 103.104 55.2979 104H103.599ZM32.3026 82.1818C29.3278 82.1818 28.1439 84.6514 29.6606 87.6884L35.0185 98.442C36.5366 101.481 40.1733 103.946 43.1477 103.946C44.63 103.946 46.3117 104.068 47.9483 103.946C51.8886 103.658 54.6644 99.6169 56.4656 95.8427L61.8723 84.5069C60.2018 83.1024 58.1417 82.1818 56.3262 82.1818H32.3026Z" fill="#00BDA0"/>
</svg>
