<svg width="160" height="160" viewBox="0 0 160 160" fill="none" xmlns="http://www.w3.org/2000/svg">
<path d="M116.02 109.856H28L35.98 83.7676H124L116.02 109.856Z" fill="#00B2C3"/>
<path d="M65.548 73.988V57.668H72.724V63.068H76.024V57.668H83.188V73.988H76.024V68.576H72.724V73.988H65.548ZM101.044 64.904L103.768 57.668H96.7719L94.588 63.068H93.316V57.668H86.1399V73.988H93.316V68.576H95.02L97.204 73.988H104.368L101.044 64.904ZM117.088 59.468C116.216 59.439 115.347 59.5964 114.539 59.9295C113.733 60.2627 113.006 60.764 112.408 61.4C112.458 60.6637 112.708 59.955 113.13 59.3503C113.554 58.7455 114.134 58.2676 114.808 57.968C117.208 56.948 119.992 57.656 122.008 55.94V50C120.458 50.5486 118.845 50.9032 117.208 51.056C114.785 51.3103 112.448 52.0883 110.356 53.336C107.44 55.172 105.364 58.136 105.364 64.292C105.364 72.26 109.972 74.504 114.724 74.504C119.476 74.504 123.58 72.104 123.58 66.908C123.58 61.892 120.592 59.48 117.064 59.48L117.088 59.468ZM114.484 69.008C112.756 69.008 112.348 67.652 112.348 66.608C112.348 65.564 112.756 64.208 114.484 64.208C116.212 64.208 116.584 65.528 116.584 66.608C116.584 67.688 116.176 69.008 114.484 69.008ZM63.064 65.828C63.064 61.82 61.264 58.028 57.136 57.26L56.8 57.2C56.56 57.2 56.308 57.14 56.056 57.128H55.084C53.8918 57.1829 52.7376 57.5649 51.748 58.232C51.1901 58.6113 50.6924 59.0725 50.272 59.6L49.6 57.668H43.96V80.468H51.16V72.992C51.7147 73.4791 52.3585 73.854 53.056 74.096C53.8724 74.401 54.7408 74.5437 55.612 74.516C60.82 74.516 63.088 70.304 63.088 65.816L63.064 65.828ZM53.2 68.78C52.773 68.786 52.3522 68.6779 51.9809 68.4669C51.6096 68.256 51.3014 67.9498 51.088 67.58V63.98C51.3086 63.6166 51.6185 63.3158 51.9881 63.1058C52.3577 62.8958 52.7748 62.7836 53.2 62.78C54.928 62.78 55.684 64.28 55.684 65.732C55.6956 65.9118 55.6956 66.0922 55.684 66.272C55.6658 66.9028 55.4071 67.5027 54.961 67.949C54.5147 68.3952 53.9147 68.6539 53.284 68.672" fill="#2C384A"/>
</svg>
