<svg width="160" height="160" viewBox="0 0 160 160" fill="none" xmlns="http://www.w3.org/2000/svg">
<path d="M40.2686 70.1813V102.491H45.6345V88.9051H45.7487C47.1187 91.0744 49.8588 92.4444 52.8272 92.4444C59.3349 92.4444 63.445 87.1926 63.445 81.0274C63.445 74.6339 59.1066 69.7246 53.0556 69.7246C49.0596 69.7246 46.6621 71.6655 45.6345 73.378H45.4062V70.4096H40.2686V70.1813ZM51.7997 73.9489C56.024 73.9489 57.9649 77.4882 57.9649 80.7991C57.9649 84.11 55.9098 87.7634 51.7997 87.7634C47.8038 87.7634 45.5204 84.2242 45.5204 80.9133C45.5204 77.6023 47.8038 73.9489 51.7997 73.9489Z" fill="#F29022"/>
<path d="M74.0628 57.8516H68.6968V91.76H74.0628V57.8516Z" fill="#F29022"/>
<path d="M100.322 91.7608V70.2969H94.9562V82.0564C94.9562 84.9106 93.3578 87.879 89.9327 87.879C86.5076 87.879 85.9368 84.6823 85.9368 82.1705V70.2969H80.5708V83.7689C80.5708 88.1074 82.8542 92.4458 88.4485 92.4458C91.6453 92.4458 94.157 90.5049 95.0704 88.3357H95.1845V91.7608H100.322Z" fill="#F29022"/>
<path d="M113.794 73.6062C115.735 73.6062 117.562 74.6337 118.475 75.8896L122.015 72.807C120.302 70.6378 116.991 69.4961 113.909 69.4961C109.684 69.4961 105.346 71.5512 105.346 76.3463C105.346 80.3422 108.543 81.7123 111.739 82.3973C115.05 83.1965 116.649 83.6532 116.649 85.4799C116.649 87.4208 114.822 87.9916 113.224 87.9916C110.94 87.9916 108.885 86.8499 107.743 85.2515L104.204 88.5625C106.259 90.8459 109.684 92.1017 112.995 92.1017C117.676 92.1017 121.9 90.1608 121.9 84.909C121.9 80.6847 118.133 79.3147 114.936 78.5155C111.968 77.8305 110.255 77.3738 110.255 75.6613C110.369 74.2912 112.082 73.6062 113.794 73.6062Z" fill="#F29022"/>
<path d="M123.27 41.4108C122.699 40.7258 121.9 40.3833 120.873 40.3833C119.16 40.3833 117.676 41.7533 117.676 43.5801C117.676 44.3792 118.018 45.1784 118.475 45.6351C127.038 55.1112 131.719 67.3274 131.719 80.1144C131.719 108.657 108.542 131.833 79.9998 131.833C51.4573 131.833 28.2808 108.657 28.2808 80.1144C28.2808 51.5719 51.4573 28.3955 79.9998 28.3955C84.5665 28.3955 89.0192 28.9663 93.3576 30.108C93.586 30.2222 93.9285 30.2222 94.1568 30.2222C95.8694 30.2222 97.3536 28.8521 97.3536 27.0254C97.3536 25.5412 96.326 24.3995 95.0702 23.9428C90.1609 22.687 85.1374 22.002 79.9998 22.002C48.0322 22.002 22.0015 48.0327 22.0015 80.0002C22.0015 111.968 48.0322 137.999 79.9998 137.999C111.967 137.999 137.998 111.968 137.998 80.0002C138.112 65.8432 132.86 52.0286 123.27 41.4108Z" fill="#F29022"/>
<path d="M100.893 38.5551H104.661V42.3227C104.661 44.0353 106.031 45.5195 107.857 45.5195C109.57 45.5195 111.054 44.1495 111.054 42.3227V38.5551H114.822C116.534 38.5551 118.019 37.1851 118.019 35.3584C118.019 33.6458 116.648 32.1616 114.822 32.1616H111.054V28.394C111.054 26.6815 109.684 25.1973 107.857 25.1973C106.145 25.1973 104.661 26.5673 104.661 28.394V32.1616H100.893C99.1805 32.1616 97.6963 33.5317 97.6963 35.3584C97.8105 37.0709 99.1805 38.5551 100.893 38.5551Z" fill="#F29022"/>
</svg>
