<svg width="160" height="160" viewBox="0 0 160 160" fill="none" xmlns="http://www.w3.org/2000/svg">
<path fill-rule="evenodd" clip-rule="evenodd" d="M77.6754 40.1065C50.71 43.3494 32.5212 65.5276 32.008 91.8843C31.6115 112.321 45.9931 126 68.0569 126C99.1391 126 120.046 102.658 120.608 73.8143C120.739 67.1439 119.191 60.9361 116.111 55.6949L93.1215 66.341C94.004 68.6978 94.3598 71.3483 94.3082 73.9832C94.0366 88.0021 85.7162 107.423 71.9483 107.423C62.1398 107.423 58.1262 99.8721 58.3163 91.3775C58.6584 76.1503 67.0359 59.8343 81.0101 58.2752L79.6985 65.1586L128 39.6959L74.0366 34L77.6754 40.1065Z" fill="#004FA5"/>
</svg>
