<svg width="160" height="160" viewBox="0 0 160 160" fill="none" xmlns="http://www.w3.org/2000/svg">
<g clip-path="url(#clip0_1116_139)">
<path d="M73.5555 60.4063C72.3132 59.6322 71.315 59.6443 70.8781 59.8099C70.4896 59.9573 70.6963 60.8383 71.9462 62.3354C75.6981 66.8304 80.4645 72.9275 84.382 78.9464C88.5519 85.3526 91.7607 91.6698 91.7607 95.8681C91.7607 100.067 88.5519 106.383 84.382 112.79C80.4645 118.809 75.6981 124.906 71.9462 129.401C70.6963 130.899 70.4896 131.78 70.8781 131.927C71.315 132.092 72.3132 132.104 73.5555 131.331C77.7088 128.744 84.0154 123.491 89.7217 117.489C96.608 110.247 102.619 101.915 102.916 95.8681C102.619 89.8216 96.608 81.49 89.7217 74.2477C84.0154 68.2462 77.7088 62.9922 73.5555 60.4063Z" fill="#BEC41C"/>
<path fill-rule="evenodd" clip-rule="evenodd" d="M86.3601 27.6872C87.6028 26.9136 88.6006 26.9257 89.0375 27.0908C89.4261 27.2382 89.2197 28.1192 87.9694 29.6163C84.2175 34.1113 79.4515 40.2088 75.5337 46.2269C71.3637 52.634 68.1553 58.9507 68.1553 63.1494C68.1553 67.3477 71.3637 73.6648 75.5337 80.0715C79.4515 86.09 84.2175 92.1871 87.9694 96.6825C89.2197 98.1796 89.4261 99.0606 89.0375 99.2076C88.6006 99.3731 87.6028 99.3852 86.3601 98.6116C82.2068 96.0252 75.9002 90.7717 70.1939 84.7702C63.3076 77.5279 57.2963 69.1959 57 63.1494C57.2963 57.1029 63.3076 48.7709 70.1939 41.5286C75.9003 35.5271 82.2068 30.2731 86.3601 27.6872V27.6872Z" fill="#29323D"/>
</g>
<defs>
<clipPath id="clip0_1116_139">
<rect width="46" height="106" fill="white" transform="translate(57 27)"/>
</clipPath>
</defs>
</svg>
