<svg width="160" height="160" viewBox="0 0 160 160" fill="none" xmlns="http://www.w3.org/2000/svg">
<path d="M21.1377 80.4001C21.1377 113.501 47.5076 140.375 80.1485 140.375C80.9524 140.375 81.7564 140.375 82.5604 140.375V117.597H80.1485C59.8886 117.597 43.6486 100.883 43.6486 80.4001C43.6486 59.917 60.0494 43.2028 80.1485 43.2028H82.5604V20.2617C81.7564 20.2617 80.9524 20.2617 80.1485 20.2617C47.5076 20.2617 21.1377 47.1355 21.1377 80.4001Z" fill="#DA5155"/>
<path d="M91.8878 21.4102V52.7083H80.15C65.0355 52.7083 52.9761 64.9982 52.9761 80.4014C52.9761 95.6408 65.1963 108.095 80.15 108.095H91.8878V139.393C118.74 133.821 139 109.569 139 80.5653C139 51.2335 118.74 26.9816 91.8878 21.4102Z" fill="#213A8B"/>
</svg>
