<svg width="160" height="160" viewBox="0 0 160 160" fill="none" xmlns="http://www.w3.org/2000/svg">
<path fill-rule="evenodd" clip-rule="evenodd" d="M105.996 101.502C101.581 101.654 97.574 100.722 95.6422 97.296C91.6201 90.1729 76.4287 88.7015 69.655 96.6891C64.9069 102.29 66.1607 109.284 72.8051 113.542C79.2513 117.675 89.1104 116.823 94.5094 111.647C95.346 110.851 96.0052 109.932 96.8417 109.132C99.7456 106.362 106.386 104.919 110.64 106.087C112.776 106.674 113.343 107.53 112.815 109.352C109.88 119.455 98.9821 126.987 86.2983 127.863C74.547 128.679 64.5335 125.897 57.1589 118.196C50.9631 111.737 49.5653 104.361 53.0701 96.6264C61.6713 77.5117 70.4644 58.4173 79.2179 39.323C80.4133 36.7192 81.6399 36.4768 84.4479 38.2059C92.0415 42.8998 94.7556 52.7368 90.3162 60.2769C87.4582 65.1115 84.2622 69.8309 81.2269 74.6028C81.085 74.8232 80.9265 75.03 80.7721 75.247C78.6672 78.3322 79.3097 79.3832 83.6301 79.4849C88.7162 79.612 93.5331 80.4901 97.9912 82.4853C105.407 85.8078 110.099 90.951 112.573 97.496C113.521 99.9947 112.934 100.785 109.849 101.215C108.572 101.427 107.279 101.427 105.996 101.502ZM67.4875 33C68.8518 33.1407 70.1869 33.2458 71.5242 33.4357C75.2146 33.9476 76.3098 35.3851 75.1958 38.2703C71.8225 46.9665 68.4429 55.6695 65.0529 64.3792C64.1434 66.7932 63.3298 69.2478 62.2784 71.6244C62.0572 72.1228 60.9891 72.3686 60.3111 72.7398C60.0399 72.2007 59.4975 71.643 59.5392 71.1226C60.0754 64.6471 60.7033 58.1766 61.2853 51.7028C61.7652 46.2765 62.1928 40.8469 62.6935 35.4207C62.8562 33.6289 64.0578 33.0814 67.4875 33ZM55.344 77.1981C54.9309 75.2826 54.4866 73.3755 54.1132 71.4566C52.1317 61.3266 50.1624 51.1952 48.2052 41.0622C48.1056 40.5115 48.0402 39.957 48.0091 39.401C47.8881 37.7566 48.9875 37.1684 50.8191 37.2956C51.9498 37.3651 53.0722 37.4888 54.1862 37.6685C57.0442 38.1618 57.9496 39.1552 57.8536 41.5877C57.549 49.4363 57.2945 57.2917 56.9441 65.1387C56.7626 69.1257 56.3996 73.1043 56.1138 77.0879L55.344 77.1981Z" fill="#B50001"/>
</svg>
