<svg width="160" height="160" viewBox="0 0 160 160" fill="none" xmlns="http://www.w3.org/2000/svg">
<path d="M109.421 65.82C109.432 70.1852 108.578 74.5094 106.906 78.542C105.235 82.5745 102.78 86.2352 99.6831 89.3119L65.7319 123.263L62.9181 126.096C57.4237 119.74 54.533 111.543 54.8248 103.147C55.1166 94.7502 58.5693 86.774 64.4916 80.8149L101.275 44.0312C105.914 49.3393 108.724 55.9979 109.291 63.0247C109.383 63.9503 109.421 64.8759 109.421 65.82Z" fill="url(#paint0_linear_1120_54)"/>
<path d="M59.8641 76.2052C56.1658 79.8889 53.2343 84.269 51.2388 89.0924C49.2434 93.9158 48.2236 99.0868 48.2384 104.307C48.2345 105.971 48.3334 107.634 48.5346 109.286C43.5756 101.934 41.3274 93.0854 42.1751 84.2573C43.0228 75.4291 46.9136 67.1704 53.1812 60.8957L80.2274 33.7754L91.3347 44.8827L59.8641 76.2052Z" fill="url(#paint1_linear_1120_54)"/>
<path d="M107.347 114.897C102.909 119.336 97.4463 122.614 91.4411 124.442C85.4359 126.269 79.073 126.59 72.9146 125.375L104.385 93.9044C110.203 88.1596 114.086 80.7439 115.492 72.6895C118.528 79.7295 119.375 87.5203 117.922 95.0481C116.469 102.576 112.785 109.492 107.347 114.897Z" fill="url(#paint2_linear_1120_54)"/>
<defs>
<linearGradient id="paint0_linear_1120_54" x1="54.7542" y1="85.0541" x2="109.421" y2="85.0541" gradientUnits="userSpaceOnUse">
<stop stop-color="#EF1414"/>
<stop offset="1" stop-color="#F48F2A"/>
</linearGradient>
<linearGradient id="paint1_linear_1120_54" x1="41.9813" y1="71.5401" x2="91.2606" y2="71.5401" gradientUnits="userSpaceOnUse">
<stop stop-color="#EF1414"/>
<stop offset="1" stop-color="#F48F2A"/>
</linearGradient>
<linearGradient id="paint2_linear_1120_54" x1="72.822" y1="99.4025" x2="118.454" y2="99.4025" gradientUnits="userSpaceOnUse">
<stop stop-color="#EF1414"/>
<stop offset="1" stop-color="#F48F2A"/>
</linearGradient>
</defs>
</svg>
