<svg width="160" height="160" viewBox="0 0 160 160" fill="none" xmlns="http://www.w3.org/2000/svg">
<g clip-path="url(#clip0_2408_3033)">
<mask id="mask0_2408_3033" style="mask-type:luminance" maskUnits="userSpaceOnUse" x="23" y="23" width="115" height="114">
<path d="M23.0898 23H137.732V137H23.0898V23Z" fill="white"/>
</mask>
<g mask="url(#mask0_2408_3033)">
<path d="M136.048 75.9376L84.4936 24.6739C83.4085 23.6006 81.94 22.998 80.4095 22.998C78.8787 22.998 77.4106 23.6006 76.3254 24.6739L24.7732 75.9376C23.6938 77.0166 23.0879 78.4765 23.0879 79.9988C23.0879 81.5207 23.6938 82.981 24.7732 84.0601L76.3279 135.323C77.4131 136.397 78.8812 136.999 80.412 136.999C81.9425 136.999 83.411 136.397 84.4962 135.323L136.048 84.0601C137.127 82.981 137.733 81.5207 137.733 79.9988C137.733 78.4765 137.127 77.0166 136.048 75.9376ZM119.34 88.6421V94.7009L118.131 94.9007C116.457 95.1804 114.748 95.1804 113.073 94.9007L111.865 94.7009V88.6421L110.945 87.0533L108.528 89.479C108.931 90.5584 109.171 91.6906 109.242 92.8395L109.31 93.8715L108.347 94.2638C106.558 94.9225 104.665 95.2609 102.757 95.263L80.4081 117.684L53.9135 91.1056C53.617 91.1305 53.3205 91.148 53.0241 91.148C52.3123 91.1476 51.6025 91.0739 50.906 90.9282L50.1196 90.7633L49.5191 90.6257L49.4085 94.7059L48.2352 94.9032C46.6203 95.1761 44.9707 95.1761 43.3558 94.9032L42.0996 94.6934L43.0141 72.3145L44.19 72.1346C45.9615 71.8603 47.7651 71.8603 49.5367 72.1346L50.3658 72.2621L50.5291 72.2896L59.9915 62.7955C59.8449 61.9077 59.7729 61.0093 59.7751 60.1097C59.7751 54.648 62.6873 48.2719 70.8907 48.2719C71.983 48.2715 73.0721 48.382 74.1418 48.6017L80.4231 42.3131L92.3075 54.2357C93.4357 54.1233 95.2019 53.9584 95.9507 53.9584H96.0409C96.2373 53.9584 96.5661 53.9334 96.9935 53.9334C102.054 53.9334 105.074 56.267 105.074 60.1795C105.094 61.6744 104.577 63.1275 103.616 64.2771L105.061 67.0252L116.882 78.8855L117.518 77.7861L118.189 77.6739C119.922 77.396 121.688 77.396 123.42 77.6739L125.491 78.0038L119.34 88.6421Z" fill="#FFCC00"/>
<path d="M70.8223 70.3963C66.2195 70.3963 61.2222 67.7354 61.2222 60.1103C61.2222 55.8377 63.3026 49.709 70.8904 49.709C73.9782 49.709 76.0135 50.6634 76.0135 50.6634C75.8666 52.052 75.4782 53.4047 74.8653 54.661C74.8653 54.661 66.3553 51.0157 66.3553 60.1178C66.3553 69.0447 75.0913 65.4344 75.0913 65.4344C75.7294 66.6916 76.136 68.0522 76.2922 69.4519C76.2922 69.4519 74.1717 70.3963 70.8223 70.3963ZM85.2493 60.8295C85.2493 59.8427 84.8172 58.976 82.5208 58.976C81.307 58.9963 80.1051 59.2157 78.963 59.6254C78.4346 58.5777 78.1397 57.4289 78.0989 56.2575C78.0989 56.2575 89.4756 52.3174 89.4756 61.3169V69.4918C89.4756 69.4918 77.1391 73.2246 77.1391 65.417C77.1391 60.972 81.9179 60.827 85.2518 60.827L85.2493 60.8295ZM81.1415 65.3268C81.1415 67.8028 85.2443 66.8733 85.2443 66.8733V63.6578C83.8098 63.6578 81.144 63.4555 81.144 65.3318L81.1415 65.3268ZM57.5814 73.547L53.3755 84.1329L49.3127 73.547C47.6885 73.2951 46.0349 73.2951 44.4107 73.547L43.5967 93.4795C45.0527 93.7257 46.5401 93.7257 47.9961 93.4795L48.3052 82.0218L48.4484 81.9993L51.2122 89.5169C52.4132 89.7706 53.6543 89.7706 54.8554 89.5169L57.9508 81.8843L58.094 81.9092L58.4885 93.4795C60.0295 93.7271 61.6005 93.7271 63.1417 93.4795L62.187 73.5494C60.6629 73.2979 59.1074 73.2997 57.5839 73.5544L57.5814 73.547ZM96.0432 59.0109C96.0432 59.0109 96.5458 58.9656 96.9503 58.9656C98.5531 58.9656 98.8397 59.9378 98.8397 60.827C98.8397 62.6436 96.7518 63.5082 96.7518 63.5082L99.8471 70.0764C101.562 70.33 103.305 70.33 105.021 70.0764L101.817 63.9677C101.817 63.9677 103.616 62.8758 103.616 60.1651C103.616 54.6684 96.4175 55.393 95.9403 55.393C94.91 55.393 91.4754 55.7628 91.4754 55.7628V70.0739C92.9883 70.3275 94.5331 70.3275 96.0457 70.0739L96.0432 59.0109ZM78.9203 86.3816C78.9203 91.7332 75.556 93.8368 71.7069 93.8368C67.8578 93.8368 64.521 91.7257 64.521 86.3816C64.521 81.0371 67.8202 78.786 71.7069 78.786C75.5939 78.786 78.9203 81.0296 78.9203 86.3816ZM74.3225 86.3189C74.3225 85.025 74.071 82.3713 71.7069 82.3713C69.3427 82.3713 69.1213 85.0349 69.1213 86.3189C69.1213 87.6032 69.2421 90.2615 71.7069 90.2615C74.1717 90.2615 74.3225 87.6131 74.3225 86.3189ZM123.196 79.1059C121.615 78.8522 120.003 78.8522 118.422 79.1059L115.606 83.9829L112.789 79.1059C111.208 78.8522 109.597 78.8522 108.015 79.1059L113.317 88.2579V93.482C114.834 93.7356 116.383 93.7356 117.9 93.482V88.2579L123.196 79.1059ZM108.606 85.4771C108.578 86.2344 108.511 86.9901 108.405 87.7407H99.7844C99.7844 87.7407 99.8976 89.9893 102.729 89.9893C104.14 89.989 105.538 89.7246 106.85 89.2098C107.405 90.3755 107.729 91.637 107.802 92.9248C106.183 93.5173 104.472 93.8219 102.747 93.8243C98.6513 93.8243 95.1565 91.948 95.1565 86.404C95.1565 82.8287 96.9553 78.781 102.314 78.781C106.734 78.786 108.606 82.149 108.606 85.4771ZM104.422 84.6701C104.422 84.6701 104.39 82.2191 102.141 82.2191C99.7894 82.2191 99.7443 84.6701 99.7443 84.6701H104.422ZM80.6765 79.7279V93.482C82.2081 93.736 83.7708 93.736 85.3023 93.482V82.8861C85.6957 82.818 86.0937 82.7781 86.4932 82.7663C87.9455 82.7663 88.8397 83.2957 88.8397 85.652V93.4845C90.3713 93.7385 91.934 93.7385 93.4655 93.4845V84.7898C93.4655 75.7653 80.6765 79.7279 80.6765 79.7279Z" fill="black"/>
</g>
</g>
<defs>
<clipPath id="clip0_2408_3033">
<rect width="115" height="114" fill="white" transform="translate(23 23)"/>
</clipPath>
</defs>
</svg>
