<svg width="160" height="160" viewBox="0 0 160 160" fill="none" xmlns="http://www.w3.org/2000/svg">
<path d="M55.6444 93H35.8715L32.0994 102H22L40.982 60H50.7164L69.7592 102H59.4165L55.6444 93ZM52.5416 85.62L45.7884 69.54L39.0351 85.62H52.5416Z" fill="#0A0E20"/>
<path d="M92.6122 60C96.3842 60 99.6493 60.62 102.407 61.86C105.206 63.1 107.356 64.86 108.856 67.14C110.357 69.42 111.107 72.12 111.107 75.24C111.107 78.32 110.357 81.02 108.856 83.34C107.356 85.62 105.206 87.38 102.407 88.62C99.6493 89.82 96.3842 90.42 92.6122 90.42H84.0338V102H74.1777V60H92.6122ZM92.0646 82.5C95.0255 82.5 97.2766 81.88 98.8178 80.64C100.359 79.36 101.13 77.56 101.13 75.24C101.13 72.88 100.359 71.08 98.8178 69.84C97.2766 68.56 95.0255 67.92 92.0646 67.92H84.0338V82.5H92.0646Z" fill="#0A0E20"/>
<path d="M118.144 60H128V102H118.144V60Z" fill="#0A0E20"/>
</svg>
