<svg width="160" height="160" viewBox="0 0 160 160" fill="none" xmlns="http://www.w3.org/2000/svg">
<path d="M48.6384 99.563H48.8681C51.5093 99.563 53.8061 101.055 54.8396 103.399C57.7105 109.9 64.7157 114.482 72.8689 114.163C82.2856 113.736 89.9797 106.596 90.4391 97.8581C90.8985 88.0539 82.5154 79.9549 71.9503 79.9549C64.1414 79.9549 57.5957 84.4307 54.8396 90.7182C53.8061 93.0625 51.3945 94.5544 48.7532 94.5544H48.6384C44.1597 94.5544 40.9443 90.505 42.3223 86.562C46.9158 73.561 59.8924 63.97 75.2806 63.3306L62.5336 42.5503C60.2369 38.8205 61.615 34.1316 65.5195 32.0003C69.5388 29.869 74.5916 31.1478 76.8883 34.8776L91.932 59.068L85.7308 37.6483C84.6973 34.0251 86.994 30.1887 90.8985 29.2296C94.8028 28.2705 98.9372 30.4018 99.9706 34.0251L106.976 58.3221V44.2554C106.976 41.3781 109.502 39.1402 112.488 39.1402C115.589 39.1402 118 41.4847 118 44.2554V94.661C118 94.7676 118 94.8742 118 94.9808C118 114.802 100.66 131 79.1851 131C78.3813 131 77.6923 131 76.8883 131C60.8111 131 47.0307 121.302 42.3223 107.769C41.0591 103.719 44.1597 99.563 48.6384 99.563Z" fill="#F97C13"/>
</svg>
