<svg width="160" height="160" viewBox="0 0 160 160" fill="none" xmlns="http://www.w3.org/2000/svg">
<path opacity="0.3" d="M135.285 98.5602L85.3531 126.501C83.9943 127.258 82.4484 127.656 80.8742 127.656C79.3 127.656 77.7542 127.258 76.3954 126.501L25.6251 98.5877C25.2831 98.4293 24.9774 98.2082 24.7254 97.9371C24.4733 97.666 24.28 97.3502 24.1566 97.0078C24.0331 96.6655 23.9818 96.3033 24.0057 95.942C24.0296 95.5807 24.1283 95.2275 24.2959 94.9026C24.5785 94.3517 25.0463 93.9065 25.6251 93.6376L76.5109 67.2091C77.8361 66.5059 79.3281 66.1367 80.8453 66.1367C82.3626 66.1367 83.8546 66.5059 85.1797 67.2091L135.256 93.6376C135.611 93.7833 135.931 93.9953 136.198 94.2609C136.465 94.5265 136.674 94.8404 136.811 95.1839C136.948 95.5275 137.012 95.8937 136.998 96.2611C136.984 96.6285 136.893 96.9894 136.73 97.3227C136.399 97.8711 135.893 98.3046 135.285 98.5602Z" fill="#6ECD29"/>
<path opacity="0.6" d="M135.285 81.6186L85.3523 109.477C83.9935 110.234 82.4476 110.632 80.8734 110.632C79.2992 110.632 77.7534 110.234 76.3946 109.477L25.6243 81.6186C24.9387 81.2937 24.4166 80.7231 24.1728 80.0321C23.929 79.3411 23.9834 78.5863 24.324 77.9334C24.6043 77.3972 25.0609 76.9626 25.6243 76.6959L76.5102 50.2674C77.828 49.5433 79.3229 49.1621 80.8446 49.1621C82.3662 49.1621 83.8611 49.5433 85.1789 50.2674L135.256 76.6684C135.744 76.8936 136.156 77.2452 136.445 77.6829C136.733 78.1207 136.886 78.6269 136.886 79.1435C136.886 79.6601 136.733 80.1663 136.445 80.604C136.156 81.0418 135.744 81.3934 135.256 81.6186H135.285Z" fill="#6ECD29"/>
<path d="M135.285 65.7225L85.3523 93.4985C83.9935 94.2549 82.4476 94.6536 80.8734 94.6536C79.2992 94.6536 77.7534 94.2549 76.3946 93.4985L25.6243 65.7225C24.9387 65.3977 24.4166 64.8271 24.1728 64.1361C23.929 63.4451 23.9834 62.6902 24.324 62.0374C24.6043 61.5011 25.0609 61.0666 25.6243 60.7998L76.5102 34.3439C77.8353 33.6406 79.3273 33.2715 80.8446 33.2715C82.3618 33.2715 83.8538 33.6406 85.1789 34.3439L135.256 60.7723C135.744 60.9975 136.156 61.3491 136.445 61.7869C136.733 62.2246 136.886 62.7308 136.886 63.2474C136.886 63.764 136.733 64.2702 136.445 64.708C136.156 65.1457 135.744 65.4973 135.256 65.7225H135.285Z" fill="#6ECD29"/>
</svg>
