<svg width="160" height="160" viewBox="0 0 160 160" fill="none" xmlns="http://www.w3.org/2000/svg">
<path d="M87.4286 34C63.8571 34 44.8571 51.8029 44.8571 73.5914V85.15H30V94.7157H44.8571V113.183H64.7143V127H75V113.183H87.4286C110.857 113.183 130 95.5129 130 73.5914C130 51.67 110.857 34 87.4286 34ZM55 103.75V94.7157H64.7143V103.75H55ZM87.4286 103.75H75V94.7157H86.8571C99 94.7157 109 85.4157 109 74.1229C109 62.83 99 53.53 86.8571 53.53C74.7143 53.53 64.7143 62.83 64.7143 74.1229V85.15H55V73.5914C55 56.9843 69.5714 43.4329 87.4286 43.4329C105.286 43.4329 119.857 56.9843 119.857 73.5914C119.857 90.1986 105.286 103.75 87.4286 103.75ZM75 85.15V74.1229C75 68.0114 80.2857 63.0957 86.8571 63.0957C93.4286 63.0957 98.7143 68.0114 98.7143 74.1229C98.7143 80.2343 93.4286 85.15 86.8571 85.15H75Z" fill="url(#paint0_linear_1120_5119)"/>
<defs>
<linearGradient id="paint0_linear_1120_5119" x1="111.265" y1="107.418" x2="55.4174" y2="47.3667" gradientUnits="userSpaceOnUse">
<stop stop-color="#0056D6"/>
<stop offset="1" stop-color="#0088F1"/>
</linearGradient>
</defs>
</svg>
