<svg width="160" height="160" viewBox="0 0 160 160" fill="none" xmlns="http://www.w3.org/2000/svg">
<path d="M76.1485 66.3468C81.2193 67.7835 84.645 72.2808 84.5033 77.3144V123.744C84.7392 127.319 82.2187 130.531 78.5493 131.33C78.1677 131.382 77.7814 131.394 77.3971 131.366C76.6639 131.356 75.9373 131.233 75.2458 131.001C66.9294 128.167 58.4977 125.517 50.2773 122.464C45.6678 120.289 42.8252 117.035 42.8252 112.063V58.8522C42.8252 54.0082 45.3989 51.2481 49.6627 49.1094C48.3857 50.6586 47.8999 52.6686 48.3375 54.5932C48.8591 56.1463 50.1075 57.3816 51.7178 57.9383C59.7461 60.7351 68.0433 63.7328 76.1485 66.3468ZM74.2278 103.106C76.2829 103.271 78.0692 101.279 78.0692 98.4818C78.0692 95.6852 76.4942 93.4001 74.4391 93.2357C72.384 93.0713 70.5978 95.0635 70.5978 97.8602C70.5978 100.657 72.1151 102.924 74.151 103.106H74.2278Z" fill="#ED1C24"/>
<path fill-rule="evenodd" clip-rule="evenodd" d="M117.039 50.1529C98.1395 56.5324 82.851 61.6506 72.5563 65.1236L76.1479 66.3483C81.2558 67.7349 84.7065 72.2644 84.5027 77.3159V102.395L108.741 93.6209C113.505 92.0195 116.782 87.8395 117.039 83.0374V50.1529ZM48.3369 54.5948C48.8586 56.1479 50.107 57.3832 51.7172 57.9399L59.1502 60.5174L117.039 40.41V33.7016C115.809 29.6618 110.95 28.0167 106.379 29.5887C92.2237 34.4876 63.9518 44.2304 49.7966 49.111L49.6237 49.2024C48.3787 50.7306 47.9076 52.7046 48.3369 54.5948Z" fill="#F99D1C"/>
</svg>
