<svg width="160" height="160" viewBox="0 0 160 160" fill="none" xmlns="http://www.w3.org/2000/svg">
<path fill-rule="evenodd" clip-rule="evenodd" d="M119.861 75.7911L107.038 89.4153V113.143H53.4726V71.811C53.4726 58.0337 65.6466 46.7057 80.4177 46.7057C84.638 46.7057 88.5337 47.6242 92.267 49.155H92.4294C95.8381 50.8389 99.0845 53.2882 101.519 56.0437L102.818 55.1252L110.772 46.7057C107.038 43.1849 102.98 40.1232 98.1106 37.827H97.9482C92.754 35.3777 86.7482 34 80.4177 34C58.3422 34 40 50.8389 40 71.811V125.849H120.511V75.7911H119.861Z" fill="#78B943"/>
<path d="M82.5277 90.6402L119.05 51.2984C119.212 51.1453 119.212 51.1453 119.374 51.2984C120.998 52.9823 120.511 54.6662 119.05 56.197L82.8524 94.4672C82.5277 94.7734 82.2031 94.7734 81.8785 94.6203L61.7508 83.7516C60.2899 82.8331 59.1537 81.4554 60.6145 79.3122C60.7769 79.1591 60.7769 79.1591 60.9392 79.3122L82.2031 90.9464C82.3654 90.9464 82.5277 90.7933 82.5277 90.6402Z" fill="#015293"/>
<path d="M82.5277 83.9039L119.212 44.5621C119.374 44.409 119.374 44.409 119.537 44.5621C121.16 46.246 120.673 47.9299 119.212 49.4607L82.8524 87.7309C82.5277 88.0371 82.2031 88.0371 81.8785 87.884L61.7508 76.8622C60.2899 75.9437 59.1537 74.566 60.6145 72.4228C60.7769 72.2697 60.7768 72.2697 60.9392 72.4228L82.2031 84.057C82.3654 84.2101 82.5277 84.057 82.5277 83.9039Z" fill="#015293"/>
<path d="M82.5277 97.5289L119.05 58.1871C119.212 58.034 119.212 58.034 119.374 58.1871C120.998 59.871 120.511 61.5549 119.05 63.0857L82.8524 101.203C82.5277 101.509 82.2031 101.509 81.8785 101.356L61.7508 90.4872C60.2899 89.5687 59.1537 88.191 60.6145 86.0478C60.7769 85.8947 60.7769 85.8947 60.9392 86.0478L82.2031 97.682C82.3654 97.682 82.5277 97.5289 82.5277 97.5289Z" fill="#015293"/>
<path d="M82.5277 104.263L119.05 64.9215C119.212 64.7684 119.212 64.7684 119.374 64.9215C120.998 66.6053 120.511 68.2892 119.05 69.82L82.8524 107.937C82.5277 108.243 82.2031 108.243 81.8785 108.09L61.7508 97.2215C60.2899 96.3031 59.1537 94.9253 60.6145 92.7822C60.7769 92.6291 60.7769 92.6291 60.9392 92.7822L82.2031 104.416C82.3654 104.416 82.5277 104.416 82.5277 104.263Z" fill="#015293"/>
</svg>
