<svg width="160" height="160" viewBox="0 0 160 160" fill="none" xmlns="http://www.w3.org/2000/svg">
<path d="M85.4246 61.5195C75.9115 61.5195 68.1764 67.358 66.2571 69.782V62.7583H49.3711V134.532H66.1526V109.014C68.1239 111.49 75.8075 117.224 85.3726 117.224C101.265 117.224 110 108.649 110 89.346C110 70.0948 101.265 61.5195 85.4246 61.5195ZM79.414 103.308C69.3933 103.308 66.2702 99.6879 66.2702 89.2667C66.2702 78.7949 69.3933 75.2264 79.414 75.2264C89.4872 75.2264 92.5058 78.7949 92.5058 89.2667C92.5058 99.6879 89.4872 103.308 79.414 103.308Z" fill="#143254"/>
<path d="M107.655 25.0586L49.3711 32.6372V49.8083L107.655 44.6316V25.0586Z" fill="#E41B41"/>
</svg>
