<svg width="160" height="160" viewBox="0 0 160 160" fill="none" xmlns="http://www.w3.org/2000/svg">
<path d="M62.3831 23.0704C56.4288 22.9967 50.6799 25.2457 46.3563 29.3403C45.9408 29.749 45.5526 30.1843 45.1939 30.6436C44.8342 31.0661 44.5047 31.5134 44.2076 31.9821C42.8038 34.0132 41.8619 36.3272 41.4481 38.7613C41.0343 41.1955 41.1586 43.6907 41.8124 46.0716C43.7215 51.7742 43.8077 57.9298 42.059 63.6836C41.5658 65.6913 41.0727 68.0161 40.6148 70.7283C38.8183 81.2955 40.967 94.1522 46.9551 108.805C47.6243 110.426 48.2936 112.011 49.0333 113.596C56.9234 130.926 68.653 134.554 77.2123 134.554C80.0214 134.554 82.8175 134.175 85.5252 133.427L99.967 129.552L101.27 129.2L112.753 126.135C114.428 125.686 116.038 125.023 117.544 124.163L118.671 123.423C119.842 122.661 120.918 121.763 121.876 120.746L122.405 120.183C124.894 117.242 126.5 113.657 127.036 109.842C127.572 106.027 127.017 102.138 125.434 98.6256C126.1 95.0396 125.846 91.3432 124.694 87.8824C126.25 83.1254 126.012 77.9637 124.025 73.3701C122.836 70.6894 121.096 68.289 118.917 66.3254C118.555 64.5468 117.976 62.8196 117.191 61.1827C115.667 57.858 113.228 55.0359 110.159 53.0462C107.09 51.0564 103.519 49.9812 99.8613 49.9463C98.1831 49.9434 96.5123 50.1685 94.8947 50.6155L89.5055 52.0597C89.0662 43.2337 85.1535 34.9397 78.6213 28.9881C74.0952 25.1443 68.3564 23.0235 62.4183 23L62.3831 23.0704Z" fill="white"/>
<path d="M103.876 75.5873L101.727 76.1156C108.596 74.284 105.25 62.2374 98.4866 64.0691L78.8317 69.3174H78.5499C77.4227 69.7049 73.4424 70.4094 75.3445 60.3353C76.9296 51.8816 74.2525 43.287 69.7791 39.518C62.7343 33.53 53.1535 38.6727 55.3374 42.6177C62.84 56.2494 55.8657 62.7658 54.1045 73.0864C52.3433 83.407 56.3589 96.6511 61.5015 107.923C64.6717 114.968 70.237 123.21 81.72 120.11L96.3027 116.2L97.5707 115.883L109.195 112.748C116.627 110.917 113.457 99.0464 106.06 100.808L107.962 100.279C115.007 98.4476 111.696 86.1897 104.756 88.2326L106.94 87.6338C107.788 87.4883 108.597 87.1689 109.315 86.6957C110.034 86.2225 110.646 85.6057 111.115 84.8842C111.583 84.1626 111.897 83.352 112.037 82.5031C112.177 81.6543 112.14 80.7857 111.928 79.952C111.716 79.1183 111.333 78.3375 110.805 77.6587C110.276 76.9799 109.613 76.4179 108.857 76.0079C108.101 75.598 107.268 75.3489 106.41 75.2765C105.553 75.2042 104.69 75.3099 103.876 75.5873Z" fill="#FFE1BD"/>
<path d="M82.8825 117.752C71.3996 120.816 66.4683 112.433 63.2629 105.388C58.1554 94.1167 55.3023 84.8176 56.5351 74.2856C57.8736 62.8379 62.1005 61.3585 56.5351 40.8582C56.4286 40.4398 56.4209 40.0025 56.5126 39.5806C56.6043 39.1588 56.7929 38.7641 57.0634 38.4277C56.2834 38.7972 55.6506 39.4187 55.2671 40.192C54.8837 40.9653 54.772 41.8452 54.95 42.6898C59.0712 58.0122 55.7954 62.9083 54.0342 73.2289C52.273 83.5495 56.2885 96.7937 61.4312 108.065C64.6014 115.11 70.1668 123.352 81.6497 120.253L97.5005 116.026L96.9721 113.948L82.8825 117.752Z" fill="#E6B796"/>
<path d="M102.715 73.6865L83.0598 78.9701C78.4103 80.2029 75.4515 75.1307 76.0151 71.1504C73.1267 74.9898 76.2969 82.9152 81.9679 81.4005L101.623 76.117C102.556 75.8403 103.388 75.2956 104.014 74.5503C104.64 73.8051 105.033 72.8923 105.145 71.9253C104.543 72.7558 103.692 73.3727 102.715 73.6865Z" fill="#E6B796"/>
<path d="M108.385 85.1698L84.9255 91.4749C83.8595 91.7973 82.7267 91.8282 81.6447 91.5646C80.5627 91.301 79.5711 90.7523 78.7729 89.9757C77.9748 89.1991 77.3991 88.2229 77.106 87.1485C76.8128 86.0742 76.8127 84.9409 77.1058 83.8665C76.2222 84.8916 75.694 86.1751 75.6001 87.5252C75.5062 88.8754 75.8517 90.2196 76.5849 91.3571C77.3182 92.4947 78.3998 93.3644 79.6682 93.8364C80.9366 94.3084 82.3237 94.3573 83.6222 93.9758L107.222 87.6707C108.33 87.4253 109.348 86.8771 110.163 86.0873C110.977 85.2975 111.557 84.297 111.837 83.1973C110.917 84.1946 109.711 84.8835 108.385 85.1698Z" fill="#E6B796"/>
<path d="M109.124 97.8857L89.1878 103.24C84.4678 104.473 81.509 99.4003 82.143 95.3848C79.1842 99.2594 82.3896 107.185 88.1311 105.635L108.068 100.316C109.046 100.055 109.925 99.5119 110.595 98.7537C111.266 97.9956 111.698 97.0565 111.837 96.054C111.172 96.9597 110.213 97.607 109.124 97.8857Z" fill="#E6B796"/>
<path d="M110.322 110.461L97.4304 113.984C96.3841 114.199 95.3 114.144 94.281 113.824C93.262 113.503 92.3418 112.927 91.6079 112.151C90.8739 111.374 90.3505 110.423 90.0873 109.388C89.824 108.352 89.8298 107.267 90.1039 106.234C86.8985 110.179 90.1038 118.07 96.3032 116.414L109.195 112.892C110.22 112.649 111.152 112.114 111.877 111.351C112.603 110.588 113.091 109.63 113.281 108.594C112.516 109.513 111.481 110.166 110.322 110.461Z" fill="#E6B796"/>
</svg>
