<svg width="160" height="160" viewBox="0 0 160 160" fill="none" xmlns="http://www.w3.org/2000/svg">
<path d="M68.4331 33.169L36.072 123.451C35.7951 124.155 36.3493 125 37.1807 125H44.734C46.1891 125 47.5057 124.085 47.991 122.676L75.2239 46.4085C75.6397 45.3521 77.095 45.3521 77.4413 46.4085L91.0927 84.5776H68.7102C67.2549 84.5776 65.9383 85.4931 65.4534 86.9014L62.6124 94.8591C62.3351 95.5635 62.8895 96.4087 63.7211 96.4087H95.3888L97.1212 101.127H62.8201C61.3649 101.127 60.0482 102.043 59.5634 103.451L56.7221 111.408C56.445 112.113 56.9994 112.958 57.8308 112.958H101.418L104.861 122.672C105.347 124.08 106.64 124.996 108.095 124.996L122.534 125C123.365 125 123.92 124.226 123.642 123.451L119.92 113.028H127.819C128.651 113.028 129.205 112.254 128.928 111.479L126.087 103.521C125.602 102.113 124.285 101.197 122.83 101.197H115.693L113.96 96.479H121.86C122.691 96.479 123.246 95.7045 122.969 94.9296L120.127 86.9719C119.642 85.5636 118.326 84.6481 116.87 84.6481H109.733L91.3004 33.169C90.6075 31.2676 88.8058 30 86.7961 30H72.9372C70.9278 30 69.1261 31.2676 68.4331 33.169Z" fill="url(#paint0_linear_2407_45)"/>
<defs>
<linearGradient id="paint0_linear_2407_45" x1="82.4701" y1="36.7969" x2="82.4701" y2="200.085" gradientUnits="userSpaceOnUse">
<stop stop-color="#F39200"/>
<stop offset="1" stop-color="#F07E00"/>
</linearGradient>
</defs>
</svg>
