<svg width="160" height="160" viewBox="0 0 160 160" fill="none" xmlns="http://www.w3.org/2000/svg">
<path fill-rule="evenodd" clip-rule="evenodd" d="M62.0741 44C41.0457 44 24 60.1181 24 80.0009C24 99.8829 41.0464 116 62.0747 116C67.7809 116 73.1932 114.813 78.0522 112.684C76.9874 112.073 75.9507 111.415 74.9454 110.711C71.1677 112.003 67.1428 112.712 63.0274 112.712C44.2114 112.712 31.0733 97.7912 31.0726 79.8337C31.0718 66.0554 43.0179 51.807 57.7668 51.807C63.0749 51.807 68.7766 53.5278 73.3871 56.5393C64.0965 68.2238 50.2516 79.7841 35.2498 89.2928C35.5904 90.4218 35.9912 91.5257 36.4512 92.5984C55.1753 82.2468 75.0037 70.2442 91.3992 57.044L91.3999 57.0434C84.4164 49.0754 73.8734 44 62.0741 44ZM125.388 70.2904C110.337 79.8303 96.4501 91.436 87.1588 103.157C91.8461 106.357 97.749 108.194 103.233 108.194C117.982 108.194 129.928 93.9453 129.927 80.1665C129.927 62.209 116.789 47.2881 97.9726 47.2881C93.8571 47.2881 89.8322 47.9972 86.0545 49.2894C85.0493 48.5856 84.0126 47.9274 82.9478 47.3159C87.8068 45.1882 93.2191 44 98.9253 44C119.953 44 137 60.1181 137 79.9995C137 99.8829 119.954 116 98.9259 116C86.9217 116 76.2171 110.746 69.2386 102.54C85.6349 89.3396 105.463 77.3358 124.187 66.9855C124.647 68.0581 125.048 69.1606 125.388 70.2904ZM122.366 63.4039C101.041 75.1802 73.3145 92.1139 55.829 108.9C50.8169 107.758 46.4953 105.374 43.0251 102.134L120.069 60.0765C120.908 61.1288 121.675 62.2415 122.366 63.4039ZM38.2717 96.1798C59.5967 84.4021 87.3232 67.4683 104.81 50.682C109.821 51.824 114.143 54.2099 117.613 57.4483L40.5694 99.5058C39.7303 98.4535 38.9636 97.3421 38.2717 96.1798Z" fill="#F90C00"/>
</svg>
