<svg width="160" height="160" viewBox="0 0 160 160" fill="none" xmlns="http://www.w3.org/2000/svg">
<path d="M83.6267 37.4262V41.2716C106.644 43.1943 124.772 62.4761 124.772 85.9329C124.772 99.0621 119.114 110.873 110.105 119.058V92.1953L114.445 87.8555V74.8911H110.105V79.2309H105.765V74.8911H101.425V79.2309H97.0854V74.8911H92.7457V87.8555L97.0854 92.1953V102.028H92.7457V97.6887H87.8016V77.528H88.5707L89.8891 75.2208V68.9583H86.7579V58.7955H91.7019C90.5483 57.0926 81.2645 41.3815 80.825 39.0743C81.4293 38.7447 81.8138 38.1953 81.8138 37.5361C81.8138 36.7121 81.2096 36.0529 80.3306 35.8332V32.2075C81.5392 32.2625 84.4507 32.4822 87.6918 33.0315C91.9766 33.8006 95.2177 29.6806 95.2177 29.6806C95.2177 29.6806 89.8891 31.3286 86.9227 28.527C84.6155 26.3845 81.649 26.3296 80.2757 26.4944V26H78.9573V35.8881C78.0783 36.0529 77.4741 36.7121 77.4741 37.591C77.4741 38.2503 77.9135 38.7447 78.4629 39.1292C78.0234 41.4364 68.8494 57.1475 67.6409 58.8505H72.4751V69.0132H69.4537V75.2757L70.7172 77.5829H71.4863V97.7986H66.707V102.138H62.3672V93.0193L66.707 88.6796V75.7701H62.3672V80.1099H58.0275V75.7701H53.6877V80.1099H49.3479V75.7701H45.0081V88.7345L49.3479 93.0743V119.003C40.4486 110.818 34.8454 99.062 34.8454 85.9878C34.8454 62.8606 52.4242 43.7436 74.9471 41.3815V37.5361C50.2818 39.8983 31 60.7182 31 85.9878C31 109.884 48.2492 129.77 70.9919 133.89V123.727C70.9919 119.003 74.7823 115.158 79.5066 115.103H79.6714C84.4507 115.103 88.296 118.948 88.296 123.727V134C111.094 129.935 128.398 109.994 128.398 86.0427C128.618 60.3337 108.786 39.294 83.6267 37.4262ZM53.9074 95.6012C53.9074 94.3927 54.8962 93.4588 56.0498 93.4588C57.2584 93.4588 58.1923 94.4476 58.1923 95.6012V102.083H53.8525V95.6012H53.9074ZM101.48 95.6012C101.48 94.3927 102.469 93.4588 103.623 93.4588C104.831 93.4588 105.765 94.4476 105.765 95.6012V102.083H101.425V95.6012H101.48Z" fill="#303446"/>
</svg>
