<svg width="160" height="160" viewBox="0 0 160 160" fill="none" xmlns="http://www.w3.org/2000/svg">
<g clip-path="url(#clip0_1120_4272)">
<path d="M57.305 133.2C39.5558 126.6 26.244 111.8 21.605 93.4004C22.0084 95.0004 22.8152 97.4004 23.4202 99.0004C24.4287 102 25.6389 104.6 27.0507 107.4C28.4626 110 30.0762 112.4 31.8914 114.8C33.7067 117.2 35.7236 119.2 37.7406 121.2C39.7575 123.2 42.1779 125 44.5982 126.6C47.0185 128.2 49.4389 129.8 52.2626 131C53.8762 131.8 55.6914 132.6 57.305 133.2Z" fill="#0B4765"/>
<path d="M53.4727 126.4C37.9422 118.4 27.0507 103.8 23.6219 86.8C22.4117 80.2 22.4117 73.2 23.6219 66.6C22.8151 66.8 22.0083 67.2 21.4032 67.8C20.1931 74.4 22.21 81.6 21.4032 88.6C24.6303 106 35.9253 121 51.8592 129.2L53.4727 126.4ZM99.2575 26C117.41 33 130.722 49 134.554 68C137.579 83.4 133.546 99.4 123.864 111.8C124.066 112.6 124.268 113.4 124.066 114.2C129.512 107.4 133.142 99.4 134.957 90.8C135.563 87.8 135.966 84.8 135.966 81.8C136.168 77.4 135.764 73.2 134.957 68.8C134.352 65.8 133.546 62.6 132.537 59.8C131.529 57 130.318 54.2 128.705 51.6C127.293 49 125.679 46.6 123.663 44.2C121.847 41.8 119.83 39.6 117.813 37.6C113.578 33.6 108.737 30.2 103.493 27.6C102.283 27.2 100.468 26.4 99.2575 26Z" fill="#0B4765"/>
<path d="M71.4238 127.6C49.2374 123.8 31.6899 106.8 27.4543 84.8C27.2526 83.4 27.0509 82 26.8492 80.8C25.6391 81.2 24.6306 81.8 23.4204 82.2C23.6221 83.6 23.8238 85 24.0255 86.6C28.4628 109.6 46.817 127.4 70.2136 131.4C70.617 130.2 71.0204 129 71.4238 127.6ZM127.092 52.4C129.512 57 131.125 62 132.134 67C132.336 68.6 132.739 70.2 132.739 71.8C133.546 72 134.151 72.4 134.756 72.8C134.554 71.2 134.353 69.4 134.151 67.8C133.142 62.4 131.327 57.2 128.705 52.4C128.302 52.2 127.697 52.2 127.092 52.4Z" fill="#FFB606"/>
<path d="M86.9542 117.2C63.3559 120 41.7745 104.2 37.3372 81.2003C34.9169 68.6003 38.3457 55.4003 46.6152 45.6003C44.1949 44.4003 41.7745 43.4003 39.1525 42.4003C29.2694 54.0003 25.2355 69.6003 28.0593 84.4003C33.3033 111.6 58.9186 130.2 86.7525 127C86.9542 124.4 86.9542 121 86.9542 117.2ZM77.2728 30.0003C100.064 28.4003 120.637 44.0003 124.873 66.2003C125.881 71.8003 125.881 77.8003 124.671 83.4003C127.091 84.4003 129.31 85.8003 131.529 87.2003C132.941 80.6003 133.142 73.6003 131.73 66.8003C126.688 40.6003 102.485 22.2003 75.4576 24.0003C76.2644 26.0003 76.8694 28.0003 77.2728 30.0003Z" fill="#FF3900"/>
<path d="M56.9017 105.6C48.4306 99.3996 42.7831 90.1996 40.7661 79.9996C39.3543 72.1996 40.1611 64.3996 43.1865 56.9996L40.7661 56.3996C37.539 63.9996 36.5306 72.3996 38.1441 80.5996C40.1611 91.3996 46.2119 101 55.2882 107.6L56.9017 105.6ZM109.544 43.7996C118.62 52.1996 123.461 63.9996 122.654 76.1996C123.461 76.3996 124.066 76.5996 124.671 76.7996C124.873 73.1996 124.671 69.7996 124.066 66.3996C122.453 57.3996 117.814 48.9996 110.956 42.5996C110.553 42.9996 109.948 43.3996 109.544 43.7996Z" fill="#0B4765"/>
<path d="M106.721 125C89.5765 136.2 67.5917 136 50.6494 124.6C45.0019 120.8 40.1612 115.8 36.7324 110.2L38.1443 109.8C41.5731 115.4 46.2121 120.2 51.6578 123.8C67.9951 134.8 89.5765 135 106.115 124.2L106.721 125ZM69.8104 36.8C82.9206 34.2 96.6358 37 107.729 44.4C115.999 50 122.251 57.8 125.882 67.2C125.478 67.6 125.075 67.8 124.671 68.2C121.243 59.2 115.192 51.6 107.124 46.2C96.4341 38.8 83.1222 36.2 70.2138 38.6C70.2138 38 70.0121 37.4 69.8104 36.8Z" fill="#FFB606"/>
<path d="M93.6106 129.399C79.6936 133.799 64.3648 131.599 52.2631 123.399C44.8004 118.399 38.9513 111.199 35.5225 102.799C37.3377 102.599 39.3547 102.199 41.5733 101.799C44.5987 108.999 49.6411 115.199 56.0953 119.599C66.5835 126.799 79.8953 128.599 92.1987 124.799C92.6021 126.599 93.0055 128.199 93.6106 129.399ZM50.6496 48.3995C67.1886 35.9995 89.5767 35.5995 106.721 46.9995C111.965 50.3995 116.402 54.9995 119.629 60.1995C118.217 61.5995 116.604 63.1995 114.789 64.7995C111.763 60.1995 108.133 56.3995 103.494 53.3995C88.7699 43.3995 69.0038 43.9995 54.8852 54.5995C53.2716 52.3995 52.0614 50.3995 50.6496 48.3995Z" fill="#1C97F8"/>
<path d="M79.2897 136.2C67.9948 136.4 56.6999 133.2 47.4219 126.8C34.3118 118 25.8406 103.8 24.4287 87.9998C25.8406 88.3998 27.4541 88.7998 28.866 89.1998C30.0762 103.8 37.9423 117 50.2457 125.2C58.9185 131 69.205 134.2 79.6931 134C79.4914 134.6 79.4914 135.4 79.2897 136.2ZM77.2728 29.5998C88.9711 29.1998 100.468 32.3998 109.947 38.9998C112.166 40.5998 114.385 42.1998 116.402 44.1998C115.797 45.5998 114.99 46.9998 113.981 48.5998C104.098 39.3998 91.1897 34.5998 77.6762 35.1998C77.6762 32.9998 77.4745 31.1998 77.2728 29.5998Z" fill="#16AFB2"/>
<path d="M104.3 130.599C85.9455 140.199 63.5574 138.999 46.4133 127.399C40.1608 123.199 34.9167 117.599 30.8828 111.199H31.6896C35.7235 117.599 40.9676 122.999 47.2201 127.199C64.1625 138.599 85.9455 139.799 104.3 130.599Z" fill="#FF3900"/>
<path d="M30.8828 48.5997C49.2371 22.7997 84.937 16.3997 111.157 33.9997C114.586 36.3997 117.612 38.9997 120.435 41.9997L119.83 44.3997C117.007 41.5997 113.981 38.9997 110.754 36.7997C85.1387 19.5997 50.4472 25.7997 32.4964 50.7997C31.8913 49.9997 31.2862 49.3997 30.8828 48.5997Z" fill="#0B4765"/>
<path d="M35.1186 118.601C33.1017 116.401 31.0847 114.001 29.4712 111.401C27.8576 108.801 26.2441 106.201 25.0339 103.401C23.8237 100.601 22.8153 97.8008 22.0085 95.0008L21 91.4008V91.6008C21 92.0008 21.2017 92.4008 21.6051 92.6008C24.0254 104.401 30.4797 115.001 39.5559 123.001C38.1441 121.601 36.3288 120.001 35.1186 118.601ZM63.5576 24.4008C79.8949 20.2008 97.039 23.2008 110.956 32.6008C117.208 36.8008 122.654 42.2008 126.688 48.6008V50.0008C124.873 47.2008 122.654 44.4008 120.436 42.0008C117.612 39.0008 114.586 36.4008 111.158 34.0008C97.2407 24.8008 80.0966 21.8008 63.961 26.0008C63.7593 25.6008 63.7593 25.2008 63.5576 24.8008V24.4008Z" fill="#16AFB2"/>
<path d="M54.6831 26.8C55.8933 26.4 57.7086 25.6 58.9187 25.2C61.7425 24.2 64.5662 23.6 67.3899 23C70.4153 22.4 73.2391 22 76.2645 22C79.2899 22 82.1136 22 85.1391 22.4C88.1645 22.8 90.9882 23.4 93.812 24.2C96.8374 25 99.6611 26 102.283 27.4C105.107 28.6 107.931 30.2 110.553 32C114.183 34.4 117.41 37.4 120.436 40.4C122.453 42.6 124.47 45 126.083 47.6C122.049 41.6 116.805 36.4 110.754 32.4C94.2153 21.2 72.8357 19.2 54.4814 27.2C54.6831 27.2 54.4814 26.8 54.6831 26.8Z" fill="#0B4765"/>
</g>
<defs>
<clipPath id="clip0_1120_4272">
<rect width="119" height="116" fill="white" transform="translate(21 22)"/>
</clipPath>
</defs>
</svg>
