<svg width="160" height="160" viewBox="0 0 160 160" fill="none" xmlns="http://www.w3.org/2000/svg">
<path fill-rule="evenodd" clip-rule="evenodd" d="M119.861 75.7911L107.038 89.4153V113.143H53.4726V71.811C53.4726 58.0337 65.6466 46.7057 80.4177 46.7057C84.638 46.7057 88.5337 47.6242 92.267 49.155H92.4294C95.8381 50.8389 99.0845 53.2882 101.519 56.0437L102.818 55.1252L110.772 46.7057C107.038 43.1849 102.98 40.1232 98.1106 37.827H97.9482C92.754 35.3777 86.7482 34 80.4177 34C58.3422 34 40 50.8389 40 71.811V125.849H120.511V75.7911H119.861Z" fill="#78B943"/>
<path d="M82.5282 90.6402L119.05 51.2984C119.213 51.1453 119.213 51.1453 119.375 51.2984C120.998 52.9823 120.511 54.6662 119.05 56.197L82.8529 94.4672C82.5282 94.7734 82.2036 94.7734 81.8789 94.6203L61.7513 83.7516C60.2904 82.8331 59.1541 81.4554 60.615 79.3122C60.7773 79.1591 60.7773 79.1591 60.9397 79.3122L82.2036 90.9464C82.3659 90.9464 82.5282 90.7933 82.5282 90.6402Z" fill="#015293"/>
<path d="M82.5282 83.9039L119.213 44.5621C119.375 44.409 119.375 44.409 119.537 44.5621C121.16 46.246 120.673 47.9299 119.213 49.4607L82.8529 87.7309C82.5282 88.0371 82.2036 88.0371 81.8789 87.884L61.7513 76.8622C60.2904 75.9437 59.1541 74.566 60.615 72.4228C60.7773 72.2697 60.7773 72.2697 60.9397 72.4228L82.2036 84.057C82.3659 84.2101 82.5282 84.057 82.5282 83.9039Z" fill="#015293"/>
<path d="M82.5282 97.5289L119.05 58.1871C119.213 58.034 119.213 58.034 119.375 58.1871C120.998 59.871 120.511 61.5549 119.05 63.0857L82.8529 101.203C82.5282 101.509 82.2036 101.509 81.8789 101.356L61.7513 90.4872C60.2904 89.5687 59.1541 88.191 60.615 86.0478C60.7773 85.8947 60.7773 85.8947 60.9397 86.0478L82.2036 97.682C82.3659 97.682 82.5282 97.5289 82.5282 97.5289Z" fill="#015293"/>
<path d="M82.5282 104.263L119.05 64.9215C119.213 64.7684 119.213 64.7684 119.375 64.9215C120.998 66.6053 120.511 68.2892 119.05 69.82L82.8529 107.937C82.5282 108.243 82.2036 108.243 81.8789 108.09L61.7513 97.2215C60.2904 96.3031 59.1541 94.9253 60.615 92.7822C60.7773 92.6291 60.7773 92.6291 60.9397 92.7822L82.2036 104.416C82.3659 104.416 82.5282 104.416 82.5282 104.263Z" fill="#015293"/>
</svg>
