<svg width="160" height="160" viewBox="0 0 160 160" fill="none" xmlns="http://www.w3.org/2000/svg">
<path d="M61.3337 117C40.7162 117 24 100.433 24 80C24 59.5667 40.7162 43 61.3337 43C81.9513 43 98.6674 59.5667 98.6674 80C98.6674 100.433 81.9513 117 61.3337 117Z" fill="#475EEE"/>
<path d="M42.6665 73.0625C42.6665 72.4492 42.9124 71.8609 43.3499 71.4273C43.7874 70.9937 44.3811 70.75 44.9999 70.75C45.6187 70.75 46.2123 70.9937 46.6498 71.4273C47.0873 71.8609 47.3332 72.4492 47.3332 73.0625V89.25C47.3332 89.8633 47.0873 90.4516 46.6498 90.8852C46.2123 91.3188 45.6187 91.5625 44.9999 91.5625C44.3811 91.5625 43.7874 91.3188 43.3499 90.8852C42.9124 90.4516 42.6665 89.8633 42.6665 89.25V73.0625Z" fill="white"/>
<path d="M52 82.3125C52 81.6992 52.2459 81.1109 52.6834 80.6773C53.1209 80.2437 53.7146 80 54.3334 80C54.9522 80 55.5458 80.2437 55.9833 80.6773C56.4208 81.1109 56.6667 81.6992 56.6667 82.3125V89.25C56.6667 89.8633 56.4208 90.4516 55.9833 90.8852C55.5458 91.3188 54.9522 91.5625 54.3334 91.5625C53.7146 91.5625 53.1209 91.3188 52.6834 90.8852C52.2459 90.4516 52 89.8633 52 89.25V82.3125Z" fill="white"/>
<path d="M98.6662 117C78.0487 117 61.3325 100.433 61.3325 80C61.3325 59.5667 78.0487 43 98.6662 43C119.284 43 136 59.5667 136 80C136 100.433 119.284 117 98.6662 117Z" fill="#F24949"/>
<path d="M98.6668 107.75C83.2039 107.75 70.6665 95.3247 70.6665 80C70.6665 64.6753 83.2039 52.25 98.6668 52.25C114.13 52.25 126.667 64.6753 126.667 80C126.667 95.3247 114.13 107.75 98.6668 107.75Z" stroke="white" stroke-width="8" stroke-miterlimit="50"/>
<path fill-rule="evenodd" clip-rule="evenodd" d="M136 80H101C100.381 80 99.7874 79.7563 99.3499 79.3227C98.9124 78.8891 98.6665 78.3008 98.6665 77.6875V43C119.284 43 136 59.5667 136 80Z" fill="white"/>
</svg>
