<svg width="160" height="160" viewBox="0 0 160 160" fill="none" xmlns="http://www.w3.org/2000/svg">
<path d="M73.334 119.86C71.6853 118.657 70.3311 116.422 69.229 113.153L55.5231 72.5941L49.0819 110.995C48.4842 114.504 47.6272 117.038 46.4952 118.537C44.7672 120.846 42.1963 122 38.7809 122C36.4692 122 34.378 121.303 32.5336 119.923C30.1796 118.105 29 115.697 29 112.624C29 111.665 29.1922 110.131 29.5695 108.017L39.7965 48.6902C40.389 45.2991 41.6762 42.7921 43.6528 41.1692C46.2236 39.0575 49.3658 38 53.0634 38C56.1756 38 58.8751 38.799 61.1497 40.3852C63.1757 41.7747 64.5793 43.6545 65.3816 45.9997L79.9057 88.013L93.2325 47.7961C94.2834 44.6019 96.0766 42.1316 98.6087 40.3869C100.832 38.8357 103.392 38.0617 106.302 38.0617C109.627 38.0617 112.577 39.0575 115.148 41.0357C117.462 42.9172 118.862 45.1657 119.318 47.7944L130.374 107.85C130.803 110.067 131 111.675 131 112.681C131 115.633 129.843 118.015 127.53 119.858C125.633 121.284 123.503 121.997 121.15 121.997C117.786 121.997 115.187 120.842 113.381 118.534C112.202 117.061 111.329 114.552 110.733 110.991L104.094 72.5908L91.91 110.953C90.9755 113.777 90.2596 115.713 89.7641 116.759C89.2581 117.827 88.6233 118.716 87.8686 119.43C85.9731 121.149 83.441 121.998 80.2848 121.998C77.5041 121.998 75.1907 121.286 73.334 119.86Z" fill="#99CC33"/>
</svg>
