<svg width="160" height="160" viewBox="0 0 160 160" fill="none" xmlns="http://www.w3.org/2000/svg">
<path d="M136 80C136 110.928 110.928 136 80 136C49.0721 136 24 110.928 24 80C24 49.0721 49.0721 24 80 24C110.928 24 136 49.0721 136 80ZM34.3072 80C34.3072 105.235 54.7646 125.693 80 125.693C105.235 125.693 125.693 105.235 125.693 80C125.693 54.7646 105.235 34.3072 80 34.3072C54.7646 34.3072 34.3072 54.7646 34.3072 80Z" fill="#ADD0EE"/>
<path d="M122.363 116.625C131.18 106.426 136.022 93.3895 136 79.9081C135.978 66.4267 131.093 53.4057 122.242 43.2362L114.467 50.0029C121.689 58.3006 125.675 68.9249 125.693 79.925C125.711 90.9251 121.76 101.562 114.566 109.884L122.363 116.625Z" fill="#035335"/>
</svg>
