<svg width="160" height="160" viewBox="0 0 160 160" fill="none" xmlns="http://www.w3.org/2000/svg">
<g clip-path="url(#clip0_1120_4318)">
<path d="M121.733 53.0439L24.4762 61.7404C24.9341 62.2045 25.1723 62.7791 25.1723 63.4583C25.1723 64.1485 24.9172 64.7391 24.4147 65.2133C24.1597 65.4538 23.876 65.6326 23.5654 65.7533L109.873 106.02C112.104 107.067 114.644 107.246 117 106.523C119.356 105.8 121.36 104.227 122.625 102.107L137.492 77.1853C138.473 75.5413 138.961 73.6488 138.896 71.7344C138.832 69.8199 138.219 67.9645 137.13 66.3903L130.841 57.2913C129.926 55.9676 128.704 54.8859 127.281 54.1385C125.858 53.3912 124.275 53.0006 122.669 53C122.359 53 122.046 53.0152 121.733 53.0439Z" fill="url(#paint0_linear_1120_4318)"/>
<path d="M25.5773 69.6641H22.4941L22 92.8537H27.0335L26.5588 71.4942L25.5773 69.6641Z" fill="#020303"/>
<path d="M43.1148 74.9727C42.1384 74.9727 41.0088 75.1878 39.7563 75.6139C38.4967 76.0456 37.3017 76.6474 36.2042 77.4027L36.1142 77.4642L35.2758 75.5481H32.2607V92.8112H36.918V80.7684L36.9576 80.7414C37.8498 80.1195 38.6806 79.615 39.4264 79.242C40.1788 78.8664 41.0083 78.6722 41.8488 78.675C42.6939 78.675 43.364 78.9897 43.8387 79.6099C44.3084 80.2242 44.5466 81.0898 44.5466 82.1833V92.8112H49.2047V81.9673C49.2047 79.7694 48.7468 78.0321 47.8445 76.8053C46.9489 75.5894 45.3572 74.9727 43.1148 74.9727Z" fill="#020303"/>
<path d="M65.0545 84.4139C63.8996 83.4664 62.43 82.6724 60.6876 82.0548C59.7769 81.7468 59.0648 81.4599 58.5724 81.2051C58.0581 80.9368 57.798 80.6255 57.798 80.2787C57.798 79.8433 58.0168 79.4603 58.4486 79.1447C58.8729 78.8342 59.4099 78.6772 60.0479 78.6772C60.8459 78.6772 61.6236 78.7743 62.3601 78.9675C63.0756 79.1565 63.8971 79.4484 64.8045 79.8366L66.1866 76.859C65.3685 76.3358 64.3601 75.9072 63.1876 75.5824C61.9864 75.2508 60.9544 75.082 60.122 75.082C57.9924 75.082 56.2837 75.5545 55.0396 76.4843C53.8048 77.4099 53.1777 78.6975 53.1777 80.3141C53.1777 81.5983 53.7417 82.6758 54.8528 83.5153C55.9807 84.3675 57.4116 85.0762 59.1077 85.623C61.2785 86.2659 62.3349 87.0591 62.3349 88.0479C62.3349 88.5652 62.0032 88.9685 61.3484 89.2461C60.7221 89.5144 60.021 89.6502 59.2668 89.6502C57.9646 89.6502 56.3898 89.2596 54.5843 88.4909L53.2005 91.5082C53.9488 92.0532 54.9311 92.4802 56.1238 92.7805C57.3527 93.0877 58.436 93.2446 59.3409 93.2446C61.7423 93.2446 63.6034 92.7721 64.871 91.8406C66.1302 90.9158 66.7691 89.5793 66.7691 87.8682C66.7691 86.5132 66.1925 85.3505 65.0545 84.4139Z" fill="#020303"/>
<path d="M81.5656 75.9005C80.3914 75.3579 79.0766 75.082 77.6575 75.082C76.8233 75.082 75.6895 75.244 74.2906 75.5655C72.9354 75.876 71.9261 76.2278 71.2898 76.6126L72.5128 80.1082C73.1946 79.8121 74.0212 79.5514 74.9724 79.3328C75.9656 79.105 76.8873 78.9894 77.7097 78.9894C78.6608 78.9894 79.5286 79.2805 80.0362 79.7691C80.5471 80.2652 80.7853 81.0769 80.7264 82.1181L80.7222 82.2041H77.0994C75.0456 82.2041 73.3857 82.6876 72.1669 83.6419C70.9548 84.5911 70.3403 85.9521 70.3403 87.6885C70.3403 89.3811 70.8816 90.7446 71.9497 91.7393C73.0187 92.7383 74.6382 93.2446 76.7644 93.2446C78.394 93.2446 79.9756 92.4793 81.4646 90.9698L81.5589 90.8745L82.409 92.8126H85.4224V81.4304C85.4224 80.2323 85.0714 79.1354 84.3787 78.1735C83.6834 77.2074 82.7373 76.443 81.5656 75.9005ZM80.7643 87.9425L80.7365 87.9695C79.5084 89.133 78.1465 89.7228 76.6903 89.7228C75.9993 89.7228 75.4227 89.5211 74.9732 89.1237C74.5204 88.7246 74.2906 88.2403 74.2906 87.6868C74.2872 87.3522 74.3522 87.0204 74.4818 86.712C74.6114 86.4037 74.8027 86.1252 75.0439 85.8938C75.5431 85.3977 76.2105 85.1463 77.0253 85.1463H80.7643V87.9425Z" fill="#020303"/>
<path d="M98.7671 75.082C97.0836 75.082 95.4986 75.633 94.0559 76.7189L93.9869 76.7712L92.9911 75.5503H90.668V100.683L95.2882 100.337V92.3637L95.4187 92.427C96.5424 92.9695 97.6198 93.2454 98.6172 93.2454C100.503 93.2454 102.153 92.8615 103.525 92.1055C104.867 91.3759 105.963 90.2617 106.671 88.9052C107.395 87.5333 107.76 85.9267 107.76 84.127C107.76 81.3612 106.948 79.1371 105.347 77.5188C103.748 75.9022 101.534 75.082 98.7671 75.082ZM101.772 87.9425C100.988 88.9322 99.9135 89.4351 98.5777 89.4351C97.4481 89.4351 96.3555 89.0908 95.3294 88.4124L95.2874 88.3846V79.9775L95.3294 79.9496C96.4313 79.2493 97.523 78.8933 98.5777 78.8933C99.9371 78.8933 101.019 79.3826 101.79 80.3479C102.556 81.3081 102.944 82.5796 102.944 84.1279C102.944 85.6753 102.551 86.9595 101.772 87.9433" fill="#020303"/>
<path d="M126.719 77.5188C125.119 75.9022 122.905 75.082 120.139 75.082C118.455 75.082 116.87 75.633 115.427 76.7189L115.358 76.7712L114.363 75.5503H112.04V100.683L116.66 100.337V92.3637L116.79 92.427C117.915 92.9695 118.991 93.2454 119.989 93.2454C121.875 93.2454 123.526 92.8615 124.897 92.1055C126.239 91.3759 127.335 90.2617 128.042 88.9052C128.765 87.5333 129.132 85.9267 129.132 84.127C129.132 81.3612 128.319 79.1371 126.719 77.5188ZM123.145 87.9433C122.361 88.9322 121.285 89.4351 119.948 89.4351C118.82 89.4351 117.725 89.0908 116.699 88.4124L116.657 88.3846V79.9775L116.699 79.9496C117.801 79.2493 118.894 78.8933 119.948 78.8933C121.31 78.8933 122.392 79.3826 123.164 80.3479C123.93 81.3064 124.318 82.5787 124.318 84.1279C124.318 85.6753 123.924 86.9595 123.145 87.9433Z" fill="#020303"/>
<path d="M26.4536 62.5286C26.4317 62.5058 26.4157 62.4805 26.3921 62.4585C25.8871 61.9827 25.271 61.7422 24.558 61.7422C23.8476 61.7422 23.2365 61.9827 22.7424 62.4577C22.25 62.9327 22 63.5343 22 64.2456C22 64.9375 22.25 65.5281 22.7424 66.0023C23.2365 66.4773 23.8476 66.7178 24.558 66.7178C24.9107 66.7178 25.239 66.6587 25.5428 66.5406C25.8584 66.4179 26.1469 66.2345 26.3921 66.0006C26.8946 65.5273 27.1497 64.9366 27.1497 64.2456C27.1551 63.9271 27.0962 63.6109 26.9766 63.3158C26.857 63.0207 26.6791 62.7529 26.4536 62.5286Z" fill="#020303"/>
</g>
<defs>
<linearGradient id="paint0_linear_1120_4318" x1="138.899" y1="75.3003" x2="23.5603" y2="64.1233" gradientUnits="userSpaceOnUse">
<stop stop-color="#FBF4A2"/>
<stop offset="1" stop-color="#FFE000"/>
</linearGradient>
<clipPath id="clip0_1120_4318">
<rect width="117" height="54" fill="white" transform="translate(22 53)"/>
</clipPath>
</defs>
</svg>
