<svg width="160" height="160" viewBox="0 0 160 160" fill="none" xmlns="http://www.w3.org/2000/svg">
<path d="M123.444 117.191C113.504 114.048 96.7633 111.953 78.9763 111.953C61.1892 111.953 44.9716 114.048 35.0317 116.667V124.001H123.444V117.191Z" fill="#E30F1B"/>
<path d="M79.4994 75.8117C97.2865 75.8117 114.027 85.2403 123.444 94.6689V87.3356C113.504 72.6689 96.7633 63.2402 78.9763 63.2402C61.1892 63.2402 44.9716 72.6689 35.0317 87.3356V94.6689C44.9716 84.7165 61.1892 76.3355 79.4994 75.8117Z" fill="#E30F1B"/>
<path d="M79.501 100.429C97.288 100.429 112.459 104.619 123.969 109.857V102.524C112.982 94.1428 97.8112 88.9047 80.0241 88.3809C62.237 88.9047 46.5426 94.1428 36.0796 102.524V109.857C47.0657 104.095 61.7139 100.429 79.501 100.429Z" fill="#E30F1B"/>
<path d="M123.444 81.0478C113.504 62.7144 96.7633 50.6667 78.9763 50.6667C61.1892 50.6667 44.9716 61.6668 35.0317 79.4764V36H123.444V81.0478Z" fill="#1D1E1C"/>
</svg>
