<svg width="160" height="160" viewBox="0 0 160 160" fill="none" xmlns="http://www.w3.org/2000/svg">
<path d="M66.0605 124.315C60.3503 124.315 54.8362 123.182 49.8464 120.839C47.3333 121.583 44.6007 122.217 42.3149 122.578C37.6524 123.315 34.9871 122.953 33.4015 121.366C31.8168 119.779 31.4549 117.112 32.1913 112.446C32.5524 110.157 33.1852 107.422 33.9293 104.907C26.1806 88.3836 31.6813 66.0801 47.5951 50.1532C63.5071 34.2265 85.7919 28.7208 102.301 36.4763C104.814 35.7316 107.546 35.0981 109.832 34.7368C114.494 33.9999 117.16 34.362 118.745 35.9488C120.33 37.5351 120.692 40.2028 119.956 44.8693C119.594 47.1578 118.962 49.8929 118.217 52.4074C125.967 68.9321 120.466 91.2345 104.553 107.162C93.4497 118.274 79.2417 124.315 66.0605 124.315Z" fill="#FFB500"/>
<path d="M100.196 124.184C77.8266 124.184 59.6279 105.969 59.6279 83.5799C59.6279 81.7937 61.0746 80.3457 62.8589 80.3457H137.534C139.318 80.3457 140.765 81.7937 140.765 83.5799C140.765 105.968 122.566 124.184 100.196 124.184Z" fill="white"/>
<path d="M137.535 80.3457H100.197V124.183C122.567 124.183 140.766 105.968 140.766 83.579C140.766 81.7937 139.319 80.3457 137.535 80.3457Z" fill="#E9EFF3"/>
<path d="M137.534 80.3457H134.425C134.525 81.4105 134.578 82.4882 134.578 83.579C134.578 102.555 119.155 117.992 100.196 117.992C81.2376 117.992 65.8138 102.555 65.8138 83.579C65.8138 82.4882 65.8676 81.4105 65.9669 80.3457H62.8589C61.0746 80.3457 59.6279 81.7937 59.6279 83.579C59.6279 105.968 77.8266 124.183 100.196 124.183C122.566 124.183 140.765 105.968 140.765 83.579C140.765 81.7937 139.318 80.3457 137.534 80.3457Z" fill="#FFD400"/>
<path d="M137.535 80.3457H134.426C134.526 81.4105 134.579 82.4882 134.579 83.579C134.579 102.555 119.155 117.992 100.197 117.992V124.183C122.567 124.183 140.766 105.968 140.766 83.579C140.766 81.7937 139.319 80.3457 137.535 80.3457Z" fill="#FDBF00"/>
<path d="M72.2783 83.579C72.2783 89.2921 74.001 94.6081 76.9518 99.0388L95.6284 80.3457H72.466C72.3431 81.407 72.2783 82.4856 72.2783 83.579Z" fill="#FFDF45"/>
<path d="M104.766 80.3457L123.442 99.0388C126.394 94.6081 128.116 89.2921 128.116 83.5799C128.116 82.4856 128.052 81.407 127.928 80.3457H104.766Z" fill="#FFD400"/>
<path d="M103.428 111.337C109.507 110.631 114.997 107.966 119.247 103.988L103.428 88.1543V111.337Z" fill="#FFD400"/>
<path d="M96.9648 111.337V88.1543L81.1455 103.988C85.3963 107.966 90.8862 110.631 96.9648 111.337Z" fill="#FFDF45"/>
</svg>
