<svg width="160" height="160" viewBox="0 0 160 160" fill="none" xmlns="http://www.w3.org/2000/svg">
<path fill-rule="evenodd" clip-rule="evenodd" d="M80.5 33.885C73.2395 33.885 66.3642 35.3919 60.1932 38.0858C58.2004 38.9558 55.8809 38.0429 55.0123 36.0468C54.1438 34.0508 55.0552 31.7274 57.048 30.8575C64.2 27.7353 72.145 26 80.5 26C111.514 26 137 49.9914 137 80.0001C137 110.009 111.514 134 80.5 134C49.4854 134 24 110.009 24 80.0001C24 69.6527 27.0484 59.9843 32.3197 51.779C33.4961 49.948 35.9316 49.4188 37.7596 50.5971C39.5877 51.7753 40.116 54.2149 38.9397 56.0459C34.4498 63.0348 31.8721 71.2313 31.8721 80.0001C31.8721 105.283 53.4538 126.115 80.5 126.115C107.546 126.115 129.128 105.283 129.128 80.0001C129.128 54.7166 107.546 33.885 80.5 33.885Z" fill="url(#paint0_linear_1120_4335)"/>
<path fill-rule="evenodd" clip-rule="evenodd" d="M37 80.0001C37 56.6186 56.8896 38 80.9999 38C105.11 38 125 56.6185 125 80.0001C125 83.3875 124.579 86.6858 123.783 89.8478C123.251 91.9618 121.104 93.2444 118.989 92.7125C116.873 92.1806 115.59 90.0356 116.122 87.9216C116.761 85.3829 117.1 82.7313 117.1 80.0001C117.1 61.3493 101.128 45.8943 80.9999 45.8943C60.8718 45.8943 44.8995 61.3493 44.8995 80.0001C44.8995 98.6506 60.8718 114.106 80.9999 114.106C87.7527 114.106 94.0533 112.357 99.4401 109.326C101.341 108.257 103.749 108.93 104.82 110.83C105.89 112.729 105.216 115.136 103.315 116.205C96.7624 119.892 89.1294 122 80.9999 122C56.8896 122 37 103.381 37 80.0001Z" fill="url(#paint1_linear_1120_4335)"/>
<path fill-rule="evenodd" clip-rule="evenodd" d="M80.5 57.9486C67.2522 57.9486 56.8554 68.2319 56.8554 80.5C56.8554 82.8664 57.2365 85.142 57.9416 87.2783C58.6288 89.3602 57.518 91.6116 55.4605 92.3069C53.403 93.0023 51.178 91.8783 50.4908 89.7964C49.5223 86.8622 49 83.737 49 80.5C49 63.4686 63.2922 50 80.5 50C97.7078 50 112 63.4686 112 80.5C112 97.5314 97.7078 111 80.5 111C76.3706 111 72.4151 110.229 68.7862 108.821C66.7608 108.035 65.7486 105.736 66.5253 103.687C67.302 101.638 69.5736 100.613 71.599 101.399C74.3387 102.462 77.3414 103.051 80.5 103.051C93.7478 103.051 104.145 92.7681 104.145 80.5C104.145 68.2319 93.7478 57.9486 80.5 57.9486Z" fill="url(#paint2_linear_1120_4335)"/>
<path d="M71.6299 96V91.3543H68V87.1428H71.6299V83.7564H68V78.3725H71.6299V65H81.9755C86.1501 65 89.1902 65.8104 91.0961 67.4314C93.032 69.0521 94 71.2809 94 74.1175C94 75.7965 93.6068 77.374 92.8203 78.8501C92.0338 80.3263 90.718 81.5131 88.8725 82.4104C87.0576 83.3077 84.5769 83.7564 81.431 83.7564H78.4815V87.1428H85.4695V91.3543H78.4815V96H71.6299ZM80.7504 78.3725C82.6864 78.3725 84.214 78.054 85.3334 77.4172C86.4829 76.7805 87.0576 75.753 87.0576 74.3346C87.0576 71.7006 85.2427 70.3836 81.6125 70.3836H78.4815V78.3725H80.7504Z" fill="black"/>
<defs>
<linearGradient id="paint0_linear_1120_4335" x1="80.5" y1="29.9425" x2="121.657" y2="118.092" gradientUnits="userSpaceOnUse">
<stop stop-color="#06F7F7"/>
<stop offset="1" stop-color="#007EFE"/>
</linearGradient>
<linearGradient id="paint1_linear_1120_4335" x1="80.9999" y1="41.9471" x2="117.872" y2="119.563" gradientUnits="userSpaceOnUse">
<stop stop-color="#06F7F7"/>
<stop offset="1" stop-color="#007EFE"/>
</linearGradient>
<linearGradient id="paint2_linear_1120_4335" x1="80.5" y1="53.9743" x2="106.763" y2="88.8107" gradientUnits="userSpaceOnUse">
<stop stop-color="#06F7F7"/>
<stop offset="1" stop-color="#007EFE"/>
</linearGradient>
</defs>
</svg>
