<svg width="160" height="160" viewBox="0 0 160 160" fill="none" xmlns="http://www.w3.org/2000/svg">
<path d="M109.421 65.8181C109.432 70.1833 108.578 74.5075 106.906 78.54C105.235 82.5726 102.78 86.2333 99.6831 89.31L65.7319 123.261L62.9181 126.094C57.4237 119.738 54.533 111.541 54.8248 103.145C55.1166 94.7483 58.5693 86.772 64.4916 80.8129L101.275 44.0293C105.914 49.3373 108.724 55.996 109.291 63.0227C109.383 63.9484 109.421 64.874 109.421 65.8181Z" fill="url(#paint0_linear_1120_4341)"/>
<path d="M59.8641 76.2032C56.1658 79.887 53.2343 84.2671 51.2388 89.0904C49.2434 93.9138 48.2236 99.0848 48.2384 104.305C48.2345 105.969 48.3334 107.632 48.5346 109.284C43.5756 101.932 41.3274 93.0835 42.1751 84.2553C43.0228 75.4272 46.9136 67.1684 53.1812 60.8937L80.2274 33.7734L91.3347 44.8807L59.8641 76.2032Z" fill="url(#paint1_linear_1120_4341)"/>
<path d="M107.348 114.895C102.91 119.334 97.4468 122.612 91.4416 124.44C85.4363 126.267 79.0735 126.588 72.915 125.373L104.386 93.9024C110.204 88.1576 114.086 80.742 115.493 72.6875C118.529 79.7276 119.375 87.5183 117.923 95.0462C116.47 102.574 112.785 109.49 107.348 114.895Z" fill="url(#paint2_linear_1120_4341)"/>
<defs>
<linearGradient id="paint0_linear_1120_4341" x1="54.7542" y1="85.0522" x2="109.421" y2="85.0522" gradientUnits="userSpaceOnUse">
<stop stop-color="#EF1414"/>
<stop offset="1" stop-color="#F48F2A"/>
</linearGradient>
<linearGradient id="paint1_linear_1120_4341" x1="41.9813" y1="71.5382" x2="91.2606" y2="71.5382" gradientUnits="userSpaceOnUse">
<stop stop-color="#EF1414"/>
<stop offset="1" stop-color="#F48F2A"/>
</linearGradient>
<linearGradient id="paint2_linear_1120_4341" x1="72.8225" y1="99.4005" x2="118.455" y2="99.4005" gradientUnits="userSpaceOnUse">
<stop stop-color="#EF1414"/>
<stop offset="1" stop-color="#F48F2A"/>
</linearGradient>
</defs>
</svg>
