<svg width="160" height="160" viewBox="0 0 160 160" fill="none" xmlns="http://www.w3.org/2000/svg">
<path fill-rule="evenodd" clip-rule="evenodd" d="M102.073 102.107C98.3382 102.268 94.9472 101.286 93.3126 97.68C89.9093 90.182 77.0551 88.6332 71.3234 97.0412C67.3058 102.937 68.3667 110.299 73.9889 114.782C79.4434 119.132 87.7858 118.234 92.3541 112.787C93.062 111.948 93.6198 110.981 94.3276 110.139C96.7848 107.223 102.403 105.704 106.003 106.934C107.81 107.551 108.29 108.452 107.844 110.371C105.36 121.006 96.1387 128.934 85.4063 129.856C75.4628 130.714 66.9899 127.786 60.7499 119.68C55.5072 112.881 54.3245 105.117 57.2901 96.9752C64.568 76.8544 72.0083 56.7551 79.4151 36.6558C80.4266 33.9149 81.4645 33.6598 83.8405 35.4799C90.2659 40.4208 92.5624 50.7756 88.806 58.7126C86.3877 63.8016 83.6834 68.7694 81.115 73.7924C80.995 74.0244 80.8608 74.2421 80.7302 74.4705C78.9491 77.7181 79.4928 78.8244 83.1486 78.9314C87.4521 79.0653 91.528 79.9896 95.3002 82.0898C101.576 85.5872 105.545 91.001 107.639 97.8906C108.44 100.521 107.944 101.352 105.334 101.806C104.253 102.029 103.159 102.029 102.073 102.107ZM69.4894 30C70.6438 30.1481 71.7736 30.2587 72.9051 30.4586C76.0277 30.9975 76.9544 32.5106 76.0118 35.5477C73.1575 44.7016 70.2979 53.8626 67.4294 63.0308C66.6598 65.5717 65.9713 68.1555 65.0817 70.6572C64.8946 71.1819 63.9908 71.4406 63.4171 71.8314C63.1876 71.2639 62.7287 70.6769 62.764 70.1291C63.2176 63.3127 63.749 56.5017 64.2414 49.6871C64.6474 43.9753 65.0093 38.2599 65.433 32.5481C65.5706 30.662 66.5874 30.0857 69.4894 30ZM59.2141 76.5243C58.8646 74.508 58.4886 72.5005 58.1727 70.4806C56.4961 59.8175 54.8297 49.1529 53.1736 38.4865C53.0894 37.9068 53.034 37.3232 53.0077 36.7378C52.9053 35.007 53.8355 34.3878 55.3854 34.5216C56.3421 34.5948 57.2918 34.7251 58.2344 34.9142C60.6528 35.4335 61.4189 36.4791 61.3377 39.0397C61.08 47.3014 60.8646 55.5703 60.5681 63.8302C60.4145 68.0271 60.1073 72.215 59.8655 76.4083L59.2141 76.5243Z" fill="#B50001"/>
</svg>
