<svg width="160" height="160" viewBox="0 0 160 160" fill="none" xmlns="http://www.w3.org/2000/svg">
<path d="M118.883 57.4473C118.028 57.4461 117.181 57.6042 116.391 57.9127C115.601 58.2211 114.884 58.6738 114.28 59.2449C113.675 59.8158 113.196 60.4939 112.869 61.2402C112.543 61.9864 112.375 62.7862 112.377 63.5938V93.3877C112.401 97.1112 111.584 100.797 109.981 104.199C108.423 107.511 106.197 110.506 103.427 113.014C100.622 115.54 97.3464 117.552 93.7652 118.949C90.0376 120.4 86.0414 121.135 82.0101 121.111C75.0224 121.154 66.7424 118.925 61.3542 114.721C58.7842 112.706 56.5858 110.303 54.8485 107.608C53.6245 105.703 52.6437 103.668 51.9267 101.545C51.4958 100.287 50.6494 99.1922 49.5118 98.4225C48.3742 97.6523 47.0053 97.2469 45.606 97.266C44.5688 97.2585 43.545 97.4867 42.6211 97.932C41.6971 98.3773 40.9004 99.0263 40.2981 99.8238C39.6783 100.603 39.2661 101.511 39.0966 102.472C38.9271 103.433 39.0051 104.418 39.3242 105.345C40.2054 107.972 41.3841 110.502 42.84 112.89C45.3304 116.938 48.5429 120.549 52.3357 123.563C56.1837 126.635 60.5619 129.06 65.2791 130.731C70.1754 132.473 76.866 133.305 82.0979 133.284C87.8564 133.294 93.5601 132.224 98.8782 130.137C104.013 128.147 108.689 125.235 112.65 121.562C116.558 117.902 119.7 113.579 121.912 108.818C124.211 103.891 125.382 98.5607 125.349 93.1761V63.5661C125.337 61.9486 124.652 60.4006 123.442 59.256C122.232 58.1113 120.595 57.4617 118.883 57.4473Z" fill="#014382"/>
<path d="M118.652 38H97.1092C95.3319 38 93.6278 38.667 92.371 39.8542C91.1146 41.0414 90.4087 42.6515 90.4087 44.3305C90.4087 46.0095 91.1146 47.6196 92.371 48.8068C93.6278 49.994 95.3319 50.661 97.1092 50.661H118.652C120.422 50.661 122.121 49.9991 123.376 48.8199C124.632 47.6406 125.343 46.0399 125.353 44.3673C125.357 43.5332 125.186 42.7066 124.851 41.9349C124.516 41.1631 124.024 40.4614 123.401 39.8699C122.779 39.2784 122.039 38.8087 121.224 38.4879C120.409 38.167 119.535 38.0012 118.652 38Z" fill="#014382"/>
<path d="M46.0497 50.6564H67.5636C68.4444 50.6552 69.3162 50.49 70.1293 50.1701C70.9424 49.8503 71.6808 49.3821 72.3022 48.7925C72.9237 48.2028 73.4159 47.5032 73.7509 46.7336C74.0859 45.964 74.257 45.1396 74.2544 44.3075C74.2443 42.6404 73.5394 41.0442 72.2926 39.8646C71.0458 38.6849 69.3574 38.0167 67.5928 38.0046H46.0497C45.149 37.9721 44.2505 38.1117 43.4082 38.415C42.5658 38.7183 41.7969 39.179 41.1475 39.7696C40.498 40.3603 39.9814 41.0686 39.6285 41.8523C39.2756 42.636 39.0938 43.4788 39.0938 44.3305C39.0938 45.1821 39.2756 46.025 39.6285 46.8087C39.9814 47.5924 40.498 48.3007 41.1475 48.8913C41.7969 49.482 42.5658 49.9427 43.4082 50.246C44.2505 50.5492 45.149 50.6888 46.0497 50.6564Z" fill="#014382"/>
</svg>
