<svg width="160" height="160" viewBox="0 0 160 160" fill="none" xmlns="http://www.w3.org/2000/svg">
<path d="M79.3471 128.575C107.705 128.575 130.694 106.601 130.694 79.4936C130.694 52.3867 107.705 30.4121 79.3471 30.4121C50.9888 30.4121 28 52.3867 28 79.4936C28 106.601 50.9888 128.575 79.3471 128.575Z" fill="#55199B"/>
<path d="M112.984 79.2188C108.029 79.2188 103.879 82.9646 103.534 87.7017C103.418 90.0153 103.188 92.3289 102.842 93.4306C99.9606 103.456 92.8147 111.829 83.2487 116.566C84.286 117.448 84.286 117.448 83.2487 116.566C77.9468 119.21 71.9538 120.642 65.6146 120.642C55.1266 120.642 45.4103 115.77 38.4951 109.27C46.2284 118.733 58.3746 127.501 78.6241 129.959C98.8739 132.418 136.208 121.717 143.758 90.1255C145.14 84.507 140.415 79.2188 134.422 79.2188H112.984Z" fill="#23C8F0"/>
<path d="M61.1454 94.5476H67.2843V99.9165C67.2843 99.9165 67.6534 99.9165 68.1616 99.9165H72.7382C73.2344 99.9165 73.615 99.9165 73.615 99.9165V94.5476H87.455C87.9639 94.5476 88.3321 94.5476 88.3321 94.5476V88.9727C88.3321 88.9727 87.963 88.9727 87.455 88.9727H73.6145V84.4104H84.1259C87.7797 84.4104 90.7621 83.2308 93.0742 80.8683C95.385 78.5083 96.5412 75.4593 96.5412 71.722C96.5412 67.9869 95.385 64.9382 93.0742 62.5757C90.7626 60.2155 87.7797 59.0335 84.1259 59.0335H68.1611C67.6527 59.0335 67.2838 59.0312 67.2838 59.0312V78.2267H61.1454C60.6504 78.2267 60.2681 78.2267 60.2681 78.2267V84.4104C60.2681 84.4104 60.6365 84.4104 61.1454 84.4104H67.2843V88.9725H61.1454C60.6374 88.9725 60.2681 88.9725 60.2681 88.9725V94.5476C60.2681 94.5476 60.6365 94.5476 61.1454 94.5476ZM73.6145 65.2187H83.5778C85.5142 65.2187 87.0763 65.8187 88.2641 67.0189C89.4515 68.2189 90.0454 69.7876 90.0454 71.7224C90.0454 73.6584 89.4515 75.2273 88.2641 76.4262C87.0763 77.6273 85.5142 78.2271 83.5778 78.2271H73.6145V65.2187Z" fill="white" stroke="white"/>
</svg>
