<svg width="160" height="160" viewBox="0 0 160 160" fill="none" xmlns="http://www.w3.org/2000/svg">
<path d="M70.6756 78.4241C84.6679 78.4241 96.0109 67.584 96.0109 54.2121C96.0109 40.8401 84.6679 30 70.6756 30C56.6833 30 45.3403 40.8401 45.3403 54.2121C45.3403 67.584 56.6833 78.4241 70.6756 78.4241Z" fill="#D10C6D"/>
<path d="M70.6744 70.355C80.0025 70.355 87.5645 63.1282 87.5645 54.2136C87.5645 45.299 80.0025 38.0723 70.6744 38.0723C61.3463 38.0723 53.7842 45.299 53.7842 54.2136C53.7842 63.1282 61.3463 70.355 70.6744 70.355Z" fill="#F5F5F7"/>
<path fill-rule="evenodd" clip-rule="evenodd" d="M61.2808 102.655V54.5434C61.2808 49.0723 65.1985 44.5273 70.2124 44.5273C75.2245 44.5273 79.1439 49.0731 79.1439 54.5434V87.3037C80.7025 86.337 82.6202 85.8236 84.4954 85.8236C87.2708 85.8236 90.1921 86.8965 91.9435 88.8657C93.8308 86.905 96.9146 85.8236 99.6043 85.8236C102.168 85.8236 105.053 86.8647 106.864 88.7484C108.507 86.8476 111.221 85.8236 113.976 85.8236C118.481 85.8236 123.036 88.4265 123.036 93.0525V126.848H79.0368C68.2484 126.848 68.2484 126.848 61.3832 126.848C56.4795 126.848 56.4795 126.848 55.4987 126.848H54.4885L54.0106 125.998L39.4826 100.142C37.2013 96.2446 39.476 91.7471 43.9111 89.9433C48.5927 88.0391 53.8156 89.7677 56.9833 95.0836C58.9676 98.5798 60.3195 100.962 61.2808 102.655Z" fill="#22E891" stroke="#F5F5F7" stroke-width="2"/>
</svg>
