<svg width="160" height="160" viewBox="0 0 160 160" fill="none" xmlns="http://www.w3.org/2000/svg">
<path d="M118 113.643C118 114.021 118 114.399 118 115.154C118 118.932 118 122.711 118 126.489C118 127.622 117.605 128 116.814 128C102.19 128 87.1714 128 72.5476 128C65.0381 128 57.5286 126.111 51.2048 121.955C43.6952 117.421 39.7429 110.243 37.3714 102.308C35.7905 96.6412 35 90.9739 35 85.3067C35 77.3725 35 69.4384 36.9762 61.882C38.1619 56.9704 39.7429 52.0588 42.5095 47.525C47.2524 40.7243 54.3667 36.5683 62.6667 34.6792C67.0143 33.9236 71.3619 33.1679 75.7095 33.1679C88.7524 32.7901 101.795 33.1679 115.233 33.1679C116.419 33.1679 116.814 33.5457 116.814 34.6792C116.814 38.4574 116.814 42.2355 116.814 46.0137C116.814 47.1472 116.419 47.525 115.233 47.525C104.957 47.525 94.681 47.525 84.4048 47.525C80.4524 47.525 76.1048 47.9028 72.1524 48.6584C63.8524 49.7919 59.1095 55.0813 56.7381 62.2598C54.7619 68.6827 54.3667 75.1056 54.3667 81.5285C54.3667 86.8179 54.7619 91.7296 55.9476 97.019C57.9238 105.709 63.4571 110.62 72.1524 112.132C75.7095 112.887 79.6619 113.265 83.6143 113.265C94.681 113.265 105.748 113.265 117.21 113.265C117.21 113.643 117.605 113.643 118 113.643Z" fill="#5BB73B"/>
</svg>
