<svg width="160" height="160" viewBox="0 0 160 160" fill="none" xmlns="http://www.w3.org/2000/svg">
<path fill-rule="evenodd" clip-rule="evenodd" d="M90.5822 73.6052L81.8504 75.2163C80.3392 75.5744 79.4996 77.0065 79.6675 78.4386C80.0033 80.0498 81.3467 80.9448 82.69 80.7658L91.4218 79.1547C93.2689 78.9757 95.116 80.2288 95.2839 82.377C95.4518 83.8091 94.7802 85.2412 93.7727 85.9573L81.0108 94.729C79.1637 95.8031 76.9808 95.2661 75.8054 93.2969C75.4695 92.7599 75.3016 92.0438 75.3016 91.3278V69.6669C75.3016 64.2964 71.2716 60 66.234 60C64.3869 60 62.7077 60.537 61.1964 61.6111L29.2919 83.6301C25.094 86.3153 23.7506 92.0438 26.2694 96.3402C28.1165 99.7415 31.9786 101.532 35.5049 100.637L63.5473 95.2661C64.8907 94.9081 65.7302 93.2969 65.3944 91.8648C65.0586 90.4327 63.8831 89.7166 62.5398 89.7166L34.4974 95.0871C32.6503 95.4451 30.8032 94.192 30.4673 92.0438C30.1315 90.6117 30.8032 89.0006 31.9786 88.2845L64.219 66.2656C65.8982 65.0124 68.249 65.5495 69.4245 67.3396C69.7603 68.0557 70.0961 68.7718 70.0961 69.4878V91.1487C70.0961 96.5192 74.2941 100.816 79.3316 100.816C81.0108 100.816 82.69 100.279 84.2013 99.2044L96.9631 90.4327C100.993 87.5684 102.169 81.8399 99.6498 77.5435C97.6348 74.5003 94.1085 72.8891 90.5822 73.6052ZM135.416 79.5127C133.905 75.2163 129.875 72.8891 125.677 73.7842L116.945 75.3954C115.938 75.5744 115.098 76.1114 114.762 77.1855C114.259 78.6176 114.93 80.2288 116.274 80.9448C116.777 81.1239 117.281 81.1239 117.953 81.1239L126.685 79.5127C128.532 79.1547 130.379 80.4078 130.715 82.556C131.051 83.9881 130.379 85.5993 129.203 86.3153L116.442 95.0871C114.762 96.3402 112.412 95.8031 111.236 93.834C110.9 93.1179 110.565 92.4018 110.565 91.6858V63.0433C110.732 61.4321 109.557 60.179 108.046 60C107.542 60 107.038 60.179 106.534 60.358C105.695 60.8951 105.191 61.9692 105.191 62.8643V91.5068C105.191 96.8772 109.389 101.174 114.427 100.995C116.106 100.995 117.785 100.458 119.128 99.5625L131.89 90.7907C135.416 88.2845 136.928 83.4511 135.416 79.5127Z" fill="#009A3D"/>
</svg>
