<svg width="160" height="160" viewBox="0 0 160 160" fill="none" xmlns="http://www.w3.org/2000/svg">
<path d="M32.2963 59.3155C20.2529 61.4777 20.2529 75.2913 21.5777 82.1381C23.7455 92.8287 32.8984 93.3092 34.1028 93.3092C34.4641 93.3092 34.7049 93.4293 34.8254 93.7897C37.234 97.7535 41.6901 101.117 45.4235 100.997C48.0729 100.877 48.4343 97.5134 46.0256 96.6726C45.0621 96.3122 42.1718 95.8316 40.3653 92.5885C40.4857 92.4684 40.6061 92.4684 40.6061 92.4684C44.2191 91.1471 46.7482 88.6245 48.0729 85.0211C49.9999 79.7358 49.9999 74.4505 48.6751 69.0451C46.5074 59.6759 38.0771 58.2344 32.2963 59.3155ZM43.3762 82.7387C41.0879 90.3062 33.0189 89.4654 29.8876 86.7026C25.1907 82.7387 26.2746 72.1682 27.8402 68.4445C29.5263 64.7209 32.778 63.5197 36.391 63.7599C46.6278 64.7209 44.2191 79.8558 43.3762 82.7387ZM114.311 89.4654C115.034 89.8257 115.636 90.1861 115.877 91.0269C116.118 92.2281 115.516 93.1891 114.311 93.3092C113.107 93.5495 111.903 93.1891 110.939 92.4684C110.217 91.9879 109.494 91.3873 108.771 90.7867C105.279 93.4293 101.425 94.1501 97.2097 92.8287C90.4654 90.7867 89.8633 81.5375 97.0893 78.7747C100.462 77.4535 103.713 77.6937 107.206 77.6937C107.085 76.3724 107.085 75.0511 106.965 73.7298C106.844 72.7688 106.001 72.1682 105.038 71.928C102.991 71.4475 100.943 71.6878 99.0162 72.1682C97.8119 72.5286 96.3667 73.2493 95.5238 73.2493C93.9581 73.2493 93.1151 71.5676 93.9581 70.2463C94.0784 70.1262 95.1624 67.9641 100.582 67.4836C110.096 66.5226 112.023 70.9671 112.023 74.0902C112.144 77.5736 112.023 81.057 112.144 84.6606C112.144 85.1411 112.144 85.7417 112.264 86.2223C112.144 87.9038 112.986 88.8648 114.311 89.4654ZM106.965 87.6636C107.085 87.5435 107.206 87.3032 107.206 87.1831C107.085 85.6217 106.965 83.3393 107.085 82.2582C107.085 81.7777 106.965 81.5375 106.483 81.5375C104.677 81.5375 101.786 81.1771 99.2572 82.3783C97.6915 83.099 96.9689 84.4205 97.0893 86.102C97.4507 90.5465 103.593 90.1861 106.965 87.6636ZM73.0027 82.3783C72.7619 85.7417 75.291 88.7447 78.5426 89.2251C80.8309 89.5855 82.9986 89.105 85.0461 88.1441C85.4073 88.0239 85.889 87.7837 86.2504 87.6636C88.2977 87.063 89.5021 89.4654 88.4181 90.7867C87.9363 91.2672 87.4546 91.7477 86.8526 92.108C81.6739 94.7505 76.4953 93.4293 74.3274 92.7086C66.7402 89.8257 66.981 79.4956 68.9079 74.4505C72.0391 66.4025 81.3125 66.1623 85.6483 69.7659C89.0203 72.6487 89.6225 78.0541 89.2611 80.5765C89.1407 81.7777 88.4181 82.2582 87.2138 82.3783H73.0027ZM73.0027 78.5346H84.5643C84.5643 77.934 84.4439 77.4535 84.4439 76.973C84.2029 75.5316 83.8418 73.97 82.7578 72.889C80.9513 71.0872 77.2179 71.2073 75.291 73.0091C73.6049 74.4505 73.1231 76.3724 73.0027 78.5346ZM138.759 73.7298C138.88 74.6907 139 75.6517 139 76.4925C139 81.2974 139 86.102 139 90.7867C139 92.8287 136.953 94.0299 135.146 93.069C134.183 92.5885 133.942 91.6275 133.942 90.6666V76.973C133.942 76.6127 133.942 76.3724 133.942 76.0121C133.821 73.2493 132.135 71.8079 129.365 71.928C126.836 72.0481 124.669 73.0091 123.103 74.931C122.862 75.1712 122.742 75.6517 122.742 75.8919C122.742 80.8169 122.742 85.7417 122.742 90.5465C122.742 92.2281 122.139 93.069 120.815 93.3092C119.129 93.6696 117.804 92.5885 117.804 90.9068C117.804 90.7867 117.804 82.0181 117.804 77.934C117.804 73.1292 115.997 72.0481 115.997 69.886C115.997 67.9641 118.767 67.1232 119.972 68.4445C120.574 69.0451 121.417 70.6067 121.658 71.2073C122.742 70.4866 123.705 69.5256 124.789 68.925C127.92 67.2434 131.172 67.1232 134.424 68.2043C136.953 69.0451 138.277 71.0872 138.759 73.7298ZM59.9959 86.2223C59.9959 87.9038 60.4777 90.3062 63.2476 89.8257C64.8133 89.5855 65.7767 89.8257 66.2584 90.9068C66.7402 92.5885 65.5359 93.7897 63.4884 94.1499C54.5764 95.5915 54.9378 87.3032 54.9378 86.4624C54.9378 78.1741 54.9378 69.886 54.9378 61.5978C54.9378 58.1143 59.8755 58.1143 59.8755 61.7179L59.9959 86.2223Z" fill="#289F57"/>
</svg>
