<svg width="160" height="160" viewBox="0 0 160 160" fill="none" xmlns="http://www.w3.org/2000/svg">
<g opacity="0.87">
<path d="M38 52C38 44.268 44.268 38 52 38H108C115.732 38 122 44.268 122 52V108C122 115.732 115.732 122 108 122H52C44.268 122 38 115.732 38 108V52Z" fill="#1E1E1E"/>
<path fill-rule="evenodd" clip-rule="evenodd" d="M78.8961 86.525C78.8961 83.42 77.5911 81.08 75.0261 79.415C76.8711 77.84 77.7711 75.77 77.7711 73.25C77.7711 70.595 76.8261 68.435 74.8911 66.77C73.0011 65.105 70.6611 64.25 67.8261 64.25H55.4961V95.75H68.7261C71.6061 95.75 74.0361 94.895 75.9711 93.185C77.9061 91.475 78.8961 89.27 78.8961 86.525ZM62.696 70.9968H67.826C69.446 70.9968 70.571 72.1668 70.571 73.7868C70.571 75.4068 69.446 76.5768 67.826 76.5768H62.696V70.9968ZM62.696 88.9968H68.726C70.526 88.9968 71.696 87.7818 71.696 85.9818C71.696 84.1818 70.526 82.9668 68.726 82.9668H62.696V88.9968Z" fill="#FF0025"/>
<path fill-rule="evenodd" clip-rule="evenodd" d="M105.287 86.525C105.287 83.42 103.982 81.08 101.417 79.415C103.262 77.84 104.162 75.77 104.162 73.25C104.162 70.595 103.217 68.435 101.282 66.77C99.3917 65.105 97.0517 64.25 94.2167 64.25H81.8867V95.75H95.1167C97.9967 95.75 100.427 94.895 102.362 93.185C104.297 91.475 105.287 89.27 105.287 86.525ZM89.0859 70.9968H94.2159C95.8359 70.9968 96.9609 72.1668 96.9609 73.7868C96.9609 75.4068 95.8359 76.5768 94.2159 76.5768H89.0859V70.9968ZM89.0859 88.9968H95.1159C96.9159 88.9968 98.0859 87.7818 98.0859 85.9818C98.0859 84.1818 96.9159 82.9668 95.1159 82.9668H89.0859V88.9968Z" fill="#F8E800"/>
</g>
</svg>
