<svg width="160" height="160" viewBox="0 0 160 160" fill="none" xmlns="http://www.w3.org/2000/svg">
<path fill-rule="evenodd" clip-rule="evenodd" d="M80.0001 122.369C103.4 122.369 122.369 103.4 122.369 80.0001C122.369 56.6002 103.4 37.6309 80.0001 37.6309C56.6002 37.6309 37.6309 56.6002 37.6309 80.0001C37.6309 84.6802 38.3897 89.183 39.791 93.3924C39.8989 93.3549 43.7356 92.0216 45.2617 91.4929C48.8184 90.2606 52.4109 89.016 56.1152 88.3443C62.8458 87.1484 67.0986 83.3434 69.5584 77.5443C71.2199 73.6203 73.5756 70.0606 75.9217 66.5155L75.9223 66.5147C79.7954 60.6628 83.6426 54.8498 84.2949 47.5035C87.9343 47.9692 88.9971 49.9958 88.7148 52.2391C88.2167 56.2104 87.42 60.1979 86.2728 64.0362C84.694 69.3031 85.5913 71.0312 91.0416 71.7621C91.6395 71.8414 92.2557 71.8648 92.8709 71.8881C93.9302 71.9282 94.9868 71.9682 95.9435 72.2935C98.5185 73.1576 101.194 74.0881 101.874 77.3285C103.12 83.2436 103.205 89.1255 101.326 94.8744C99.1335 101.62 96.5747 103.282 89.148 103.514C88.4503 103.542 87.7526 103.532 87.0565 103.521L87.0556 103.521C86.0937 103.507 85.1334 103.494 84.1797 103.58L83.211 103.671C75.5507 104.373 67.8953 105.076 64.7556 114.131C64.5154 114.819 60.0598 117.386 60.0598 117.386C60.0555 117.386 60.0512 117.386 60.0469 117.386C65.9928 120.566 72.7859 122.369 80.0001 122.369Z" fill="#046D99"/>
<path d="M134 80C134 109.823 109.823 134 80 134C50.1766 134 26 109.823 26 80C26 50.1766 50.1766 26 80 26C109.823 26 134 50.1766 134 80ZM32.5642 80C32.5642 106.198 53.8019 127.436 80 127.436C106.198 127.436 127.436 106.198 127.436 80C127.436 53.8019 106.198 32.5642 80 32.5642C53.8019 32.5642 32.5642 53.8019 32.5642 80Z" fill="#046D99"/>
</svg>
