<svg width="160" height="160" viewBox="0 0 160 160" fill="none" xmlns="http://www.w3.org/2000/svg">
<path fill-rule="evenodd" clip-rule="evenodd" d="M30 80C30 107.614 52.3858 130 80 130V30C52.3858 30 30 52.3858 30 80Z" fill="#E95141"/>
<path d="M80 130C107.614 130 130 107.614 130 80C130 52.3858 107.614 30 80 30V130Z" fill="#D74B3D"/>
<path fill-rule="evenodd" clip-rule="evenodd" d="M63.3327 74.4429C59.6507 74.4429 56.666 77.4276 56.666 81.1096V94.4429C56.666 98.1249 59.6507 101.11 63.3327 101.11H65.5548V74.4429H63.3327ZM69.9993 71.826V101.11H93.8596C96.836 101.11 99.452 99.1365 100.27 96.2745L105.349 78.4967C106.566 74.2378 103.368 69.9985 98.9389 69.9985H89.1627C87.168 69.9985 85.62 68.2583 85.852 66.2771L86.6751 59.2549C87.1138 55.51 84.1876 52.2207 80.4169 52.2207C79.1531 52.2207 78.0118 52.9758 77.5174 54.1389L70.0382 71.7369C70.0255 71.7668 70.0125 71.7965 69.9993 71.826Z" fill="white"/>
</svg>
