<svg width="122" height="56" viewBox="0 0 122 56" fill="none" xmlns="http://www.w3.org/2000/svg">
<g clip-path="url(#clip0_1208_163)">
<path d="M12.073 0H30.6078L29.2839 6.66667H18.6926L14.7208 25.3333H6.77734L12.073 0Z" fill="#92CA00"/>
<path d="M51.2942 2.32637C49.6225 0.764139 47.406 -0.0695437 45.1266 0.00535049L33.9347 0L28.6001 25.3327H36.6239L38.0609 18.4579H42.6117C45.5942 18.5564 48.4961 17.4739 50.6954 15.4427C51.7011 14.4561 52.4877 13.2663 53.0038 11.9514C53.5198 10.6365 53.7535 9.22648 53.6893 7.81411C53.6969 6.78103 53.4873 5.75804 53.0745 4.81227C52.6617 3.86649 52.0549 3.01933 51.2942 2.32637ZM44.7374 9.97316C44.2469 10.4241 43.6053 10.6718 42.9411 10.6667H39.6178L40.4861 6.68656H43.6596C44.1435 6.67403 44.6141 6.84639 44.9769 7.16899C45.1777 7.32499 45.3393 7.52635 45.4485 7.75681C45.5577 7.98728 45.6116 8.24039 45.6056 8.49569C45.5683 8.78848 45.472 9.07051 45.3227 9.32453C45.1735 9.57857 44.9743 9.79928 44.7374 9.97316Z" fill="#92CA00"/>
<path d="M66.5869 0L63.9823 12.1266L75.7185 0H82.9639L77.5747 25.3333H69.4911L72.0359 13.2121L60.3296 25.3333H53.1143L58.5333 0H66.5869Z" fill="#92CA00"/>
<path d="M106.616 25.3333H98.5025L100.504 16H93.1017C92.3366 19.6449 91.8226 21.6884 91.0575 25.3333H82.9639L88.3829 0.00535049H96.5774L94.7131 8.60755L102.086 8.56844L103.921 0H112.005L106.616 25.3333Z" fill="#92CA00"/>
<path d="M16.2305 50.2108L11.1397 42.3694L8.23502 56.0012H0L5.39019 30.668H13.6551L18.087 39.7156L27.1006 30.668H35.3956L30.0054 56.0012H21.7405L24.6751 42.3393L16.2305 50.2108Z" fill="#DF005E"/>
<path d="M55.9133 30.666H46.9297L32.436 55.9992H41.27L43.7935 50.666H51.0259L51.3616 55.9992H59.7464L55.9133 30.666ZM46.0313 45.9335L50.074 37.7532L50.6429 45.9335H46.0313Z" fill="#DF005E"/>
<path d="M104.758 30.666L102.242 42.7897L113.951 30.666H121.138L115.748 55.9992H107.722L110.298 43.8755L98.559 55.9992H91.2822L96.6724 30.666H104.758Z" fill="#DF005E"/>
<path d="M85.8762 55.9993H77.7626L79.7639 46.666H72.3619C71.5969 50.3109 71.0827 52.3544 70.3177 55.9993H62.2241L67.6432 30.6713H75.8375L73.9733 39.2736L81.3465 39.2344L83.1817 30.666H91.2653L85.8762 55.9993Z" fill="#DF005E"/>
</g>
<defs>
<clipPath id="clip0_1208_163">
<rect width="121.8" height="56" fill="white"/>
</clipPath>
</defs>
</svg>
