<svg width="160" height="160" viewBox="0 0 160 160" fill="none" xmlns="http://www.w3.org/2000/svg">
<path d="M36 37H123V124H36V37Z" fill="#F14C21"/>
<path d="M78.6865 53.4575C79.0522 52.8475 79.9478 52.8475 80.3135 53.4575L82.8525 57.6925C83.1474 58.1845 83.8184 58.3011 84.2664 57.9382L88.1222 54.8142C88.6777 54.3642 89.5194 54.6661 89.6514 55.3626L90.5671 60.1979C90.6735 60.7596 91.2636 61.0951 91.8104 60.9051L96.5179 59.269C97.1962 59.0333 97.8824 59.6006 97.7646 60.2996L96.9467 65.1518C96.8518 65.7155 97.2897 66.2298 97.8695 66.2355L102.861 66.2845C103.58 66.2914 104.028 67.0559 103.675 67.6731L101.222 71.9571C100.937 72.4546 101.17 73.0855 101.713 73.2863L106.387 75.0146C107.06 75.2635 107.216 76.1327 106.669 76.5936L102.878 79.7928C102.437 80.1642 102.437 80.8357 102.878 81.2072L106.669 84.4063C107.216 84.8672 107.06 85.7364 106.387 85.9853L101.713 87.7137C101.17 87.9144 100.937 88.5453 101.222 89.0428L103.675 93.3269C104.028 93.944 103.58 94.7085 102.861 94.7154L97.8695 94.7644C97.2897 94.7702 96.8518 95.2844 96.9467 95.8482L97.7646 100.7C97.8824 101.399 97.1962 101.967 96.5179 101.731L91.8104 100.095C91.2636 99.9049 90.6735 100.24 90.5671 100.802L89.6514 105.637C89.5194 106.334 88.6777 106.636 88.1222 106.186L84.2664 103.062C83.8184 102.699 83.1474 102.816 82.8525 103.307L80.3135 107.542C79.9478 108.153 79.0522 108.153 78.6865 107.542L76.1475 103.307C75.8526 102.816 75.1816 102.699 74.7336 103.062L70.8778 106.186C70.3223 106.636 69.4806 106.334 69.3486 105.637L68.4329 100.802C68.3265 100.24 67.7364 99.9049 67.1896 100.095L62.4821 101.731C61.8038 101.967 61.1176 101.399 61.2354 100.7L62.0533 95.8482C62.1482 95.2844 61.7103 94.7702 61.1305 94.7644L56.1388 94.7154C55.4197 94.7085 54.9718 93.944 55.3251 93.3269L57.7779 89.0428C58.0628 88.5453 57.8298 87.9144 57.2869 87.7137L52.6132 85.9853C51.94 85.7364 51.7844 84.8672 52.3307 84.4063L56.1225 81.2072C56.563 80.8357 56.563 80.1642 56.1225 79.7928L52.3307 76.5936C51.7844 76.1327 51.94 75.2635 52.6132 75.0146L57.2868 73.2863C57.8298 73.0855 58.0628 72.4546 57.7779 71.9571L55.3251 67.6731C54.9718 67.0559 55.4197 66.2914 56.1388 66.2845L61.1305 66.2355C61.7103 66.2298 62.1482 65.7155 62.0533 65.1518L61.2354 60.2996C61.1176 59.6006 61.8038 59.0333 62.4821 59.269L67.1896 60.9051C67.7364 61.0951 68.3265 60.7596 68.4329 60.1979L69.3486 55.3626C69.4806 54.6661 70.3223 54.3642 70.8778 54.8142L74.7336 57.9382C75.1816 58.3011 75.8526 58.1845 76.1475 57.6925L78.6865 53.4575Z" fill="white"/>
</svg>
