<svg width="160" height="160" viewBox="0 0 160 160" fill="none" xmlns="http://www.w3.org/2000/svg">
<path d="M93.6173 63.6017C96.0365 63.6017 97.9181 61.6305 97.9181 59.3009C97.9181 56.8816 95.9469 55 93.6173 55C91.198 55 89.3164 56.9712 89.3164 59.3009C89.3164 61.6305 91.198 63.6017 93.6173 63.6017Z" fill="#FC7321"/>
<path d="M116.913 69.3351C118.615 69.3351 119.959 67.991 119.959 66.2886C119.959 64.5862 118.615 63.2422 116.913 63.2422C115.21 63.2422 113.866 64.5862 113.866 66.2886C113.777 67.991 115.21 69.3351 116.913 69.3351Z" fill="#FC7321"/>
<path d="M129.368 84.0339C129.278 84.0339 129.278 84.0339 129.368 84.0339C114.673 74.5362 97.828 69.1602 79.8182 69.1602C61.8084 69.1602 44.8738 74.6258 30.2688 84.0339C30.2688 84.0339 30.1792 84.0339 30.1792 84.1235C30.0896 84.2131 30 84.3923 30 84.5716C30 84.6612 30 84.6611 30 84.7508C30.0896 84.93 30.2688 85.1092 30.5376 85.1092C30.6272 85.1092 30.6272 85.1092 30.7168 85.0196L31.6128 84.6612L35.5553 83.1379C35.5553 83.1379 36.3617 82.8691 36.8097 83.0483C37.4369 83.2275 37.8849 83.7651 38.0641 84.3027C38.0641 84.3923 38.1537 84.4819 38.1537 84.5716V84.6612C38.3329 85.378 38.5121 86.4532 38.5121 86.4532L41.2897 103.836C41.3793 104.463 41.9169 105.001 42.5442 105.001C43.1714 105.001 43.6194 104.463 43.5298 103.836C43.5298 103.836 43.3506 96.2197 43.3506 96.1301C43.3506 95.5925 43.7986 95.1445 44.3362 95.1445C44.8738 95.1445 45.4114 95.5925 45.5906 96.1301C45.5906 96.2197 45.6802 96.3093 45.6802 96.3093L47.3826 103.836C47.4722 104.463 48.0098 105.001 48.637 105.001C49.2642 105.001 49.7122 104.463 49.6226 103.836L48.637 84.6612V84.0339V82.9587L48.5474 81.2563C48.5474 78.6579 50.6979 76.5074 53.2963 76.5074C55.8947 76.5074 58.0451 78.6579 58.0451 81.2563L59.7476 103.209C59.7476 104.105 60.4644 104.821 61.3604 104.821C62.2564 104.821 62.9732 104.105 62.9732 103.209C62.9732 103.209 63.7796 92.3668 63.7796 92.2772C63.8692 91.4708 64.586 90.8436 65.3924 90.8436C66.1988 90.8436 66.9157 91.4708 67.0053 92.1876C67.0053 92.2772 67.0053 92.4565 67.0053 92.4565L68.3493 103.209C68.3493 104.105 69.0661 104.821 69.9621 104.821C70.8581 104.821 71.5749 104.105 71.5749 103.209L71.4853 84.5716L71.5749 82.4211V81.4355C71.5749 77.2243 74.9798 73.8194 79.191 73.8194C79.2806 73.8194 79.2806 73.8194 79.3702 73.8194C79.3702 73.8194 79.4598 73.8194 79.5494 73.8194C83.7607 73.8194 87.1655 77.2243 87.1655 81.4355V82.4211L87.2551 84.5716L87.3447 103.209C87.3447 104.105 88.0615 104.821 88.9575 104.821C89.8535 104.821 90.5704 104.105 90.5704 103.209L91.9144 92.4565C91.9144 92.4565 91.9144 92.2772 91.9144 92.1876C92.004 91.3812 92.7208 90.8436 93.5272 90.8436C94.3336 90.8436 95.0504 91.4708 95.14 92.2772C95.14 92.3668 95.9464 103.209 95.9464 103.209C95.9464 104.105 96.6632 104.821 97.5592 104.821C98.4552 104.821 99.1721 104.105 99.1721 103.209L100.785 81.2563C100.785 78.6579 102.935 76.5074 105.534 76.5074C108.132 76.5074 110.283 78.6579 110.283 81.2563L110.193 82.9587V84.0339V84.6612L109.835 103.836C109.745 104.463 110.193 105.001 110.82 105.001C111.447 105.001 111.985 104.463 112.075 103.836L113.777 96.1301V95.9509C113.956 95.4133 114.404 95.0549 115.031 95.0549C115.569 95.0549 116.017 95.5029 116.017 96.0405C116.017 96.1301 115.838 103.836 115.838 103.836C115.748 104.463 116.196 105.001 116.913 105.001C117.54 105.001 118.078 104.463 118.167 103.836L120.945 86.4532C120.945 86.4532 121.124 85.378 121.304 84.6612C121.304 84.6612 121.304 84.6612 121.304 84.5716C121.304 84.4819 121.304 84.3923 121.393 84.3027C121.572 83.6755 122.02 83.2275 122.648 83.0483C123.185 82.8691 123.902 83.1379 123.902 83.1379L127.844 84.6612L128.74 85.0196C128.83 85.0196 128.83 85.1092 128.92 85.1092C129.188 85.1092 129.368 84.93 129.457 84.7508C129.457 84.6611 129.457 84.6612 129.457 84.5716C129.547 84.3027 129.457 84.1235 129.368 84.0339Z" fill="#FC7321"/>
<path d="M65.8409 63.6017C68.2601 63.6017 70.1418 61.6305 70.1418 59.3009C70.1418 56.8816 68.1705 55 65.8409 55C63.4217 55 61.54 56.9712 61.54 59.3009C61.4504 61.6305 63.4217 63.6017 65.8409 63.6017Z" fill="#FC7321"/>
<path d="M42.6334 69.3351C44.3358 69.3351 45.6798 67.991 45.6798 66.2886C45.6798 64.5862 44.3358 63.2422 42.6334 63.2422C40.9309 63.2422 39.5869 64.5862 39.5869 66.2886C39.5869 67.991 40.9309 69.3351 42.6334 69.3351Z" fill="#FC7321"/>
</svg>
