<svg width="160" height="160" viewBox="0 0 160 160" fill="none" xmlns="http://www.w3.org/2000/svg">
<path d="M30 79.2816C30 77.1698 30.1355 75.0774 30.5225 72.9657C31.0449 68.4903 32.3607 64.2862 34.3344 60.4695C36.3081 56.1296 39.0557 52.1773 42.4806 48.7675C42.7516 48.38 42.8676 48.2444 43.274 47.9731C46.6989 44.544 50.627 41.7928 54.9613 39.8167C58.7731 37.8405 62.9721 36.5231 67.442 36V61.6512C62.1788 63.4917 57.98 67.6959 56.1417 72.9657C55.3483 74.9418 54.9613 77.0342 54.9613 79.2816C54.9613 81.5097 55.3483 83.6215 56.1417 85.5976C57.98 90.8672 62.1788 95.0716 67.442 96.9119C69.4156 97.7064 71.5053 98.0938 73.75 98.0938H130V123.086H73.7694C71.6601 123.086 69.5704 122.951 67.4613 122.563C62.9915 122.04 58.7925 120.723 54.9806 118.747C50.6462 116.77 46.6989 114.019 43.2934 110.59C42.9064 110.319 42.7709 110.203 42.5 109.796C39.0751 106.366 36.3274 102.434 34.3537 98.0938C32.38 94.2771 31.0642 90.073 30.5418 85.5976C30.1355 83.4859 30 81.3739 30 79.2816Z" fill="#51B905"/>
<path d="M79.9424 61.5156V36C84.4122 36.5231 88.6112 37.8405 92.5585 39.8167C96.8929 41.7928 100.84 44.544 104.246 47.9731C104.633 48.2444 104.768 48.3606 105.039 48.7675C108.464 52.1967 111.212 56.1297 113.185 60.4695C115.159 64.2862 116.475 68.4903 116.997 72.9657C117.384 75.0774 117.52 77.1698 117.52 79.2816C117.52 81.3935 117.384 83.4859 116.997 85.5976H91.3782C92.1714 83.6215 92.5585 81.5291 92.5585 79.2816C92.5585 77.0536 92.1714 74.9418 91.3782 72.9657C89.5206 67.5603 85.3217 63.3561 79.9424 61.5156Z" fill="#1677E9"/>
</svg>
