<svg width="306" height="306" viewBox="0 0 306 306" fill="none" xmlns="http://www.w3.org/2000/svg">
<path d="M281.423 279.479C280.487 279.154 279.015 279.36 277.988 279.363L269.692 279.451C269.263 279.737 269.212 279.751 269.027 280.226C269.11 280.747 269.119 280.758 269.502 281.123C270.375 281.368 271.351 281.291 272.253 281.296L276.973 281.305C278.202 281.314 279.704 281.514 280.898 281.315C281.418 281.229 281.541 281.022 281.809 280.6C281.801 279.983 281.764 279.951 281.423 279.479Z" fill="#1E2033"/>
<path d="M256.881 192.15C254.199 183.551 249.131 174.806 242.323 168.819C241.044 167.694 239.647 166.504 238.127 165.727C237.536 165.426 236.922 165.184 236.258 165.425C235.537 165.687 235.095 166.366 234.844 167.056C234.133 169.015 233.89 171.225 233.638 173.281C233.208 176.801 232.992 180.384 232.941 183.929L232.873 193.366L233.009 193.498C234.07 194.511 235.301 195.319 236.402 196.287C239.948 199.404 243.03 202.624 245.803 206.465C246.844 207.906 247.819 209.414 248.689 210.963C249.271 211.999 249.753 213.165 250.46 214.115C250.768 215.233 251.297 216.839 252.09 217.698C252.547 218.658 252.799 219.788 253.065 220.817C253.952 224.245 254.174 227.526 254.504 231.027C254.473 231.494 254.412 231.935 254.552 232.391L254.714 232.477L254.862 232.73C255.765 232.892 256.777 232.806 257.694 232.802C260.352 232.79 263.177 232.69 265.797 232.237C267.006 232.029 268.147 231.511 269.365 231.433L269.563 231.391C275.782 227.445 281.266 222.097 285.495 216.069C287.733 212.878 289.479 209.417 290.735 205.729C291.222 204.301 291.826 202.426 291.47 200.923C291.382 200.553 291.08 200.253 290.76 200.068C289.915 199.579 288.723 199.8 287.804 199.915C285.908 200.151 284.017 200.506 282.185 201.056L278.36 202.369C279.191 200.852 280.065 199.325 280.76 197.739C283.254 192.055 285.023 185.512 285.288 179.288C285.379 177.165 285.364 175.076 284.808 173.011C278.997 173.207 273.834 175.641 269.066 178.827L267.309 180.038C264.997 182.049 262.803 184.118 260.861 186.498C259.394 188.296 258.178 190.233 256.881 192.15Z" fill="#65AB8B"/>
<path d="M252.09 217.697L250.597 208.307C248.892 198.417 246.806 188.378 242.903 179.096C242.216 177.463 241.421 175.136 240.232 173.814L239.996 173.936C239.868 175.04 241.742 178.482 242.222 179.701L244.266 185.365C246.499 191.988 247.996 198.929 249.162 205.813L250.46 214.114C250.768 215.233 251.297 216.839 252.09 217.697Z" fill="#1E2033"/>
<path d="M254.714 232.476C256.054 230.518 257.995 228.759 259.656 227.057C265.936 220.623 272.541 214.656 279.76 209.287L285.377 205.294C286.577 204.463 287.905 203.721 288.902 202.643C285.578 203.913 282.539 206.112 279.669 208.184C274.714 211.762 269.908 215.645 265.441 219.817L254.504 231.026C254.473 231.493 254.412 231.934 254.552 232.39L254.714 232.476Z" fill="#1E2033"/>
<path d="M284.808 173.01C278.997 173.206 273.834 175.641 269.066 178.827L267.309 180.038C264.997 182.049 262.803 184.117 260.861 186.498C259.394 188.296 258.178 190.233 256.881 192.15L258.453 197.931C259.288 201.691 259.766 205.733 259.885 209.584C259.921 210.768 260.025 211.906 259.961 213.094C261.377 211.88 262.743 210.55 264.241 209.438C268.374 206.369 273.505 204.025 278.36 202.369C279.191 200.851 280.065 199.324 280.76 197.739C283.254 192.055 285.023 185.512 285.288 179.288C285.379 177.165 285.364 175.076 284.808 173.01Z" fill="#2E7D72"/>
<path d="M279.727 179.371L279.328 179.365C278.726 179.841 278.291 180.394 277.826 180.997C275.607 183.866 273.68 186.945 271.756 190.015C268.172 195.735 264.872 201.651 261.909 207.715C261.382 208.794 260.055 210.866 260.205 212.022C260.393 211.925 260.572 211.802 260.717 211.645C261.89 210.366 262.68 208.323 263.471 206.775L267.154 199.787C270.913 193.04 274.919 186.363 279.462 180.109C279.698 179.785 279.728 179.764 279.727 179.371Z" fill="#1E2033"/>
<path d="M232.873 193.366L228.308 190.121C226.311 188.85 224.16 187.716 221.88 187.055C221.109 186.832 220.174 186.632 219.374 186.844C218.797 186.997 218.362 187.472 218.102 187.985C217.934 188.315 217.871 188.649 217.803 189.009L217.766 189.197C217.394 191.262 217.785 193.919 218.06 195.98C219.557 207.165 224.022 217.913 230.624 227.061C232.952 230.288 235.624 233.44 238.625 236.063C240.06 237.317 241.846 238.416 243.142 239.782L228.987 239.822C226.932 239.825 224.738 239.652 222.702 239.832C222.37 239.862 222.111 239.965 221.87 240.194C221.648 240.405 221.511 240.583 221.449 240.886C221.314 241.546 221.406 242.359 221.406 243.042L221.401 247.288L221.417 255.146C221.426 257.855 221.36 260.613 222.171 263.231L222.64 264.343L222.642 264.929C224.661 270.434 229.138 275.084 234.452 277.516C236.236 278.333 238.089 278.855 239.993 279.311C241.44 279.293 242.915 279.519 244.369 279.574L250.83 279.556C253.216 279.547 255.578 279.611 257.953 279.302C259.077 278.792 260.427 278.496 261.607 278.093C262.983 277.623 264.301 276.978 265.543 276.223C270.618 273.139 274.217 268.176 275.603 262.416L275.823 247.413L275.865 242.164C275.866 241.666 275.97 240.769 275.744 240.336C275.659 240.175 275.506 240.061 275.387 239.923C274.705 239.611 273.868 239.766 273.131 239.778L269.529 239.83L269.563 231.391L269.365 231.433C268.147 231.511 267.006 232.029 265.797 232.237C263.177 232.69 260.352 232.791 257.694 232.802C256.777 232.806 255.765 232.892 254.862 232.73L254.714 232.477L254.552 232.391C254.412 231.935 254.473 231.494 254.504 231.027C254.174 227.526 253.952 224.245 253.065 220.817C252.799 219.788 252.547 218.658 252.09 217.698C251.297 216.839 250.768 215.233 250.46 214.115C249.753 213.165 249.271 211.999 248.689 210.963C247.819 209.414 246.844 207.906 245.803 206.466C243.03 202.624 239.948 199.404 236.402 196.287C235.3 195.319 234.07 194.512 233.009 193.498L232.873 193.366Z" fill="#2E7D72"/>
<path d="M249.301 239.778C243.653 226.06 238.689 211.448 229.848 199.367C228.751 197.868 227.479 195.867 225.835 194.946C226.213 195.941 226.918 196.692 227.557 197.525L229.602 200.388L233.942 207.494C237.742 214.34 240.938 221.632 243.918 228.863L248.292 239.766L243.142 239.782L228.987 239.822C226.932 239.824 224.738 239.651 222.702 239.832C222.37 239.861 222.111 239.964 221.87 240.193C221.648 240.405 221.511 240.583 221.449 240.885C221.314 241.545 221.406 242.359 221.406 243.042L221.401 247.287L275.823 247.413L275.865 242.164C275.866 241.665 275.97 240.768 275.744 240.335C275.659 240.174 275.506 240.06 275.387 239.923C274.705 239.61 273.868 239.766 273.131 239.777L269.529 239.829L269.563 231.39L269.365 231.432L268.019 232.36C265.168 234.046 262.299 235.678 259.287 237.061L256.245 238.323C255.789 238.487 255.068 238.635 254.676 238.902C254.341 239.132 254.251 239.448 254.131 239.812L249.301 239.778Z" fill="#1E2033"/>
<path d="M268.019 232.36C265.168 234.046 262.299 235.678 259.287 237.061L256.245 238.323C255.789 238.487 255.068 238.635 254.676 238.902C254.341 239.131 254.251 239.448 254.131 239.812L267.93 239.824L268.019 232.36Z" fill="#F4555A"/>
<path d="M275.823 247.413L221.401 247.287L221.417 255.146C221.426 257.854 221.361 260.612 222.171 263.23L222.64 264.342L222.642 264.928C224.661 270.433 229.138 275.083 234.452 277.515C236.236 278.332 238.089 278.854 239.993 279.31C241.44 279.292 242.915 279.518 244.369 279.573L250.83 279.555C253.217 279.547 255.578 279.61 257.953 279.301C259.077 278.791 260.428 278.496 261.607 278.093C262.983 277.623 264.301 276.977 265.543 276.223C270.618 273.139 274.218 268.175 275.603 262.415L275.823 247.413Z" fill="#4F6D8E"/>
<path d="M275.603 262.415L270.112 261.972C265.983 261.613 261.409 260.87 257.91 263.672C255.216 265.829 253.17 268.687 250.343 270.708C248.485 272.037 246.473 272.8 244.233 273.191C239.152 274.08 235.097 271.572 230.989 269.016L225.813 265.995C224.834 265.459 223.696 264.678 222.64 264.342L222.642 264.928C224.661 270.433 229.138 275.083 234.452 277.515C236.236 278.332 238.089 278.854 239.993 279.31C241.44 279.292 242.915 279.518 244.369 279.573L250.83 279.555C253.216 279.547 255.578 279.61 257.953 279.301C259.077 278.791 260.428 278.496 261.607 278.093C262.983 277.623 264.301 276.978 265.543 276.223C270.618 273.139 274.218 268.175 275.603 262.415Z" fill="#2C3E6E"/>
<path d="M138.491 234.992L132.964 236.186C123.247 238.343 113.787 241.432 104.269 244.311L95.1767 247.095C93.5173 247.62 91.8006 248.079 90.2144 248.803L90.0046 248.916C88.7205 249.592 87.3166 250.073 86.0137 250.736C81.8621 252.85 77.4529 256.206 75.9501 260.808C75.6883 261.61 75.5264 262.371 75.3982 263.203C75.1866 264.575 75.2798 266.002 75.423 267.374L75.4496 267.772L69.7736 267.783C69.5426 271.586 68.3037 274.356 65.4556 276.887C64.0935 278.097 62.4631 278.767 60.7541 279.343C57.3672 280.119 54.2791 280.173 50.8315 280.177C47.6388 280.18 44.7617 280.174 41.6354 279.413L28.7908 279.451L26.0123 279.421C25.7969 279.418 25.1849 279.34 25.0268 279.405C24.8526 279.476 24.728 279.634 24.5786 279.749C24.4091 280.301 24.3951 280.413 24.5278 280.973C24.9255 281.283 25.1215 281.327 25.6245 281.346L34.1004 281.341L50.9191 281.325L106.056 281.321L222.932 281.214L251.558 281.208L259.845 281.215C260.841 281.214 262.074 281.353 263.043 281.188C263.502 281.11 263.643 280.889 263.886 280.525C263.891 280.052 263.875 279.974 263.641 279.564C263.153 279.236 262.471 279.352 261.905 279.358C260.649 279.37 259.373 279.434 258.121 279.319L257.953 279.301C255.578 279.61 253.216 279.547 250.83 279.555L244.369 279.573C242.915 279.519 241.44 279.292 239.993 279.311C238.089 278.854 236.236 278.333 234.452 277.516C229.138 275.083 224.661 270.433 222.642 264.929L222.64 264.342L222.171 263.23L205.872 263.179C206.049 261.227 206.158 259.258 205.979 257.3C205.336 250.294 202.323 243.38 199.568 236.987C197.231 237.903 194.983 239.001 192.599 239.812C183.368 242.953 173.008 244.457 163.267 244.301C157.005 244.2 150.029 243.56 144.173 241.245C142.475 240.573 140.705 239.755 139.441 238.401C138.369 237.254 138.44 236.484 138.491 234.992Z" fill="#1E2033"/>
<path d="M75.4496 267.771L69.7737 267.783C69.5427 271.586 68.3038 274.356 65.4556 276.887C64.0936 278.097 62.4632 278.767 60.7542 279.343C61.85 279.486 63.0256 279.433 64.1327 279.441L69.9336 279.466L87.3349 279.414C85.2754 278.596 83.3656 278.149 81.4797 276.87C78.2825 274.7 76.16 271.55 75.4496 267.771Z" fill="#C61C32"/>
<path d="M90.2144 248.803L90.0046 248.916C88.7206 249.592 87.3167 250.073 86.0138 250.736C81.8621 252.85 77.4529 256.206 75.9501 260.808C75.6884 261.61 75.5264 262.371 75.3982 263.203C75.1866 264.575 75.2799 266.002 75.423 267.375L75.4496 267.772C76.1599 271.551 78.2825 274.701 81.4797 276.87C83.3656 278.15 85.2754 278.596 87.3349 279.415C88.6184 279.627 89.9466 279.588 91.2454 279.606C88.3524 277.314 86.6072 275.156 85.8605 271.486L85.6776 270.546C85.5706 269.754 85.4009 268.106 85.8835 267.454C85.8551 265.585 86.4049 264.008 87.3014 262.384C89.4153 258.553 93.9426 254.799 98.1728 253.595C95.6994 251.683 93.1674 249.901 90.2144 248.803Z" fill="#E09C78"/>
<path d="M222.642 264.928L205.53 264.911C204.402 270.602 201.993 275.503 197.002 278.777L195.893 279.415L227.812 279.362L235.864 279.369C237.184 279.374 238.705 279.543 239.993 279.31C238.089 278.854 236.236 278.332 234.452 277.515C229.138 275.083 224.661 270.433 222.642 264.928Z" fill="#C61C32"/>
<path d="M98.1728 253.595C93.9426 254.798 89.4154 258.553 87.3014 262.383C86.405 264.008 85.8551 265.585 85.8835 267.453L85.8799 267.863C85.9427 271.243 87.6977 275.067 90.1308 277.395C90.9758 278.204 92.2614 279.243 93.402 279.567C94.0293 279.745 94.8854 279.659 95.5374 279.661L99.7231 279.665L117.312 279.628C113.268 269.567 106.669 260.356 98.1728 253.595Z" fill="#F4B790"/>
<path d="M269.063 148.207L269.11 83.6268L269.117 63.0994L269.103 52.2478C269.07 51.5599 268.91 50.9225 268.611 50.2991C267.876 48.7673 266.534 47.512 264.927 46.9561L264.687 46.8772C263.272 46.4003 261.474 46.5736 259.986 46.5575L252.741 46.5034L224.563 46.5647L183.365 46.5414C181.348 46.7323 179.952 47.471 178.634 49.0252C178.086 49.671 177.679 50.5032 177.57 51.3462C177.328 53.2273 177.51 55.3472 177.507 57.2502L177.502 69.4917L177.546 94.8311L177.566 115.764C172.921 111.932 168.902 107.258 166.1 101.916C163.534 97.0251 162.495 91.6055 160.362 86.5494C158.584 82.3359 156.255 78.3579 153.155 74.9752C147.341 68.631 138.87 64.8628 130.215 65.6855C122.442 66.4239 114.935 70.2839 109.98 76.3507C108.659 77.9673 107.593 79.7427 106.709 81.6313C106.415 82.2603 105.721 84.3458 105.21 84.621C102.394 86.1376 100.399 89.0882 99.5068 92.1139C98.4167 95.8092 98.8933 99.7937 100.759 103.148C101.961 105.31 104.169 108.292 106.375 109.445L106.686 109.406C106.934 110.106 107.351 110.721 107.7 111.372C108.314 112.518 108.921 113.649 109.714 114.683C110.037 115.277 110.335 115.818 110.777 116.336C111.155 117.46 111.999 118.585 112.63 119.603C115.677 124.529 119.391 129.187 124.681 131.836C127.253 133.124 129.714 134.016 132.583 133.158C134.658 131.992 136.489 130.325 138.204 128.69C138.558 129.059 138.726 129.449 138.934 129.913L140.941 134.25C141.561 135.468 142.738 137.119 142.933 138.437C143.071 138.676 143.304 138.846 143.508 139.03C148.439 139.992 154.588 137.61 158.745 135.143C159.774 134.533 160.615 133.644 161.626 133.06L161.835 132.942L171.769 136.196C177.057 136.795 181.963 137.524 186.768 139.956C187.718 140.459 188.678 140.962 189.51 141.653C193.18 144.703 195.126 149.466 196.484 153.918C198.685 161.136 198.532 168.709 197.845 176.138L195.946 190.262C196.158 190.564 196.285 190.599 196.242 190.979C195.964 193.432 195.928 195.973 195.784 198.441C195.132 209.611 194.953 221.254 198.965 231.872C199.149 232.36 200.883 236.358 200.847 236.448C200.812 236.535 200.724 236.59 200.663 236.661C200.293 236.755 199.916 236.828 199.568 236.987C202.323 243.38 205.336 250.294 205.979 257.3C206.158 259.258 206.05 261.227 205.872 263.179L222.171 263.23C221.361 260.612 221.426 257.854 221.417 255.146L221.401 247.287L221.406 243.042C221.406 242.359 221.314 241.545 221.449 240.885C221.511 240.583 221.648 240.405 221.87 240.193C222.111 239.964 222.37 239.861 222.702 239.832C224.739 239.651 226.932 239.824 228.987 239.822L243.142 239.782C241.846 238.415 240.06 237.316 238.625 236.062C235.624 233.439 232.952 230.287 230.624 227.061C224.022 217.912 219.557 207.164 218.06 195.979C217.785 193.919 217.394 191.262 217.766 189.197L217.803 189.009C217.871 188.648 217.934 188.315 218.102 187.984C218.362 187.471 218.797 186.996 219.374 186.843C220.174 186.631 221.109 186.831 221.88 187.055C224.16 187.716 226.311 188.849 228.308 190.121L232.873 193.365L232.941 183.929C232.992 180.383 233.209 176.801 233.639 173.28C233.89 171.224 234.133 169.014 234.844 167.055C235.095 166.365 235.537 165.686 236.258 165.425C236.922 165.184 237.536 165.425 238.127 165.727C239.647 166.504 241.044 167.693 242.323 168.818C249.131 174.806 254.199 183.55 256.881 192.15C258.178 190.233 259.394 188.296 260.861 186.498C262.803 184.117 264.997 182.049 267.309 180.037L269.066 178.827C273.834 175.641 278.997 173.206 284.808 173.01C284.253 171.16 283.799 169.287 283.093 167.484C280.241 160.201 275.12 153.164 269.063 148.207Z" fill="#F4555A"/>
<path d="M248.156 99.5415C246.642 99.3751 245.147 99.639 243.816 100.389C242.26 101.268 240.947 102.857 240.521 104.609C240.086 106.401 240.471 108.435 241.458 109.969C242.549 111.662 244.122 112.525 246.049 112.941C246.966 113.012 247.959 113.02 248.843 112.749L249.073 112.674C249.6 112.506 250.071 112.292 250.547 112.008C252.197 111.024 253.342 109.337 253.763 107.472C254.154 105.741 253.742 103.705 252.714 102.27C251.582 100.692 250.029 99.8957 248.156 99.5415Z" fill="white"/>
<path d="M196.122 64.7729L194.501 64.7766C193.284 64.7794 192.3 65.7674 192.301 66.9843C192.302 68.2011 193.289 69.1869 194.506 69.1872L250.07 69.2001L251.524 69.2013C252.743 69.2023 253.731 68.2152 253.732 66.9968C253.732 65.7784 252.745 64.7903 251.527 64.7899L196.122 64.7729Z" fill="white"/>
<path d="M253.702 82.6629C253.703 81.4111 252.689 80.3956 251.437 80.3957L194.522 80.4004C193.284 80.4005 192.28 81.4039 192.279 82.6422C192.278 83.8811 193.282 84.8861 194.521 84.8869L251.436 84.9251C252.686 84.926 253.701 83.9133 253.702 82.6629Z" fill="white"/>
<path d="M230.125 101.923C230.127 100.6 229.054 99.5276 227.731 99.5291L194.695 99.5667C193.376 99.5682 192.308 100.637 192.307 101.956L192.301 110.2C192.3 111.523 193.373 112.594 194.695 112.593L227.726 112.549C229.044 112.547 230.111 111.479 230.113 110.161L230.125 101.923Z" fill="white"/>
<path d="M255.443 134.319C255.445 132.998 254.374 131.925 253.053 131.925L227.12 131.918C225.8 131.917 224.73 132.987 224.729 134.307L224.716 156.238C224.715 157.557 225.783 158.628 227.102 158.63L253.013 158.676C254.334 158.678 255.406 157.609 255.408 156.289L255.443 134.319Z" fill="white"/>
<path d="M269.063 148.207L269.11 83.6268L269.117 63.0994L269.103 52.2478C269.07 51.5599 268.91 50.9225 268.611 50.2991C267.876 48.7673 266.534 47.512 264.927 46.9561L264.687 46.8772C263.272 46.4003 261.474 46.5736 259.986 46.5575L252.741 46.5034L224.563 46.5647L183.365 46.5414C181.348 46.7323 179.952 47.471 178.634 49.0252C178.086 49.671 177.679 50.5032 177.57 51.3462C177.328 53.2273 177.51 55.3472 177.507 57.2502L177.502 69.4917L177.546 94.8311L177.566 115.764C172.921 111.932 168.902 107.258 166.1 101.916C163.534 97.0251 162.495 91.6055 160.362 86.5494C158.584 82.3359 156.255 78.3579 153.155 74.9752C147.341 68.631 138.87 64.8628 130.215 65.6855C122.442 66.4239 114.935 70.2839 109.98 76.3507C108.659 77.9673 107.593 79.7427 106.709 81.6313C106.415 82.2603 105.721 84.3458 105.21 84.621C102.394 86.1376 100.399 89.0882 99.5068 92.1139C98.4167 95.8092 98.8933 99.7937 100.759 103.148C101.961 105.31 104.169 108.292 106.375 109.445L106.686 109.406C106.934 110.106 107.351 110.721 107.7 111.372C108.314 112.518 108.921 113.649 109.714 114.683C110.037 115.277 110.335 115.818 110.777 116.336C111.155 117.46 111.999 118.585 112.63 119.603C115.677 124.529 119.391 129.187 124.681 131.836C127.253 133.124 129.714 134.016 132.583 133.158C134.658 131.992 136.489 130.325 138.204 128.69C138.558 129.059 138.726 129.449 138.934 129.913L140.941 134.25C141.561 135.468 142.738 137.119 142.933 138.437C143.071 138.676 143.304 138.846 143.508 139.03C148.439 139.992 154.588 137.61 158.745 135.143C159.774 134.533 160.615 133.644 161.626 133.06L161.835 132.942L171.769 136.196C177.057 136.795 181.963 137.524 186.768 139.956C187.718 140.459 188.678 140.962 189.51 141.653C193.18 144.703 195.126 149.466 196.484 153.918C198.685 161.136 198.532 168.709 197.845 176.138C199.081 175.363 200.368 174.641 201.537 173.767C208.256 168.744 214.329 161.248 216.198 152.925C217.457 147.316 216.508 141.668 213.405 136.825C209.905 131.364 204.003 127.22 197.906 125.145C194.95 124.139 191.889 123.464 188.976 122.328C186.338 121.299 183.905 119.923 181.514 118.421L179.451 117.105C179.358 117.045 178.935 116.804 178.89 116.738C178.868 116.707 178.901 116.052 178.902 115.998L178.954 111.797L178.973 93.417L179.006 62.5263L179.02 55.3015C179.018 54.1286 178.852 52.6924 179.096 51.5551C179.326 50.4853 180.447 49.3518 181.371 48.8184C182.017 48.4458 182.633 48.3517 183.366 48.3328L206.338 48.2841L241.265 48.259L256.021 48.2716L261.011 48.2961C262.032 48.3065 263.111 48.2522 264.105 48.5151C265.284 48.8271 266.276 49.7493 266.853 50.8009C267.09 51.233 267.273 51.7257 267.304 52.2203C267.399 53.7204 267.319 55.2707 267.317 56.7774L267.312 64.8822L267.305 90.6096L267.309 149.692L267.309 180.037L269.066 178.827C273.834 175.641 278.997 173.206 284.808 173.01C284.253 171.16 283.799 169.287 283.093 167.484C280.241 160.201 275.12 153.164 269.063 148.207Z" fill="#1E2033"/>
<path d="M148.341 105.752C147.912 107.85 147.829 109.995 147.384 112.106C146.53 116.156 144.83 120.122 142.559 123.578C141.888 124.599 141.119 125.761 140.189 126.554L138.643 128.207C138.553 128.304 138.239 128.594 138.204 128.69C138.558 129.059 138.726 129.449 138.934 129.913L140.941 134.25C141.561 135.468 142.738 137.119 142.933 138.437C143.071 138.676 143.304 138.846 143.508 139.03C148.439 139.992 154.588 137.609 158.745 135.142C159.774 134.532 160.615 133.644 161.626 133.059L161.835 132.941C157.005 126.247 153.868 118.915 150.558 111.413L148.341 105.752Z" fill="#F4555A"/>
<path d="M135.495 99.5081C126.465 100.104 116.391 99.9273 109.142 93.6373C108.613 93.1786 108.074 92.664 107.653 92.1034C107.343 91.6904 107.104 91.1424 106.747 90.7832C105.696 94.7182 104.324 98.8904 104.789 103.021C104.969 104.619 105.49 106.294 106.106 107.775C107.282 107.647 110.082 107.132 111.075 107.908C111.369 108.137 111.288 108.273 111.325 108.624C110.563 109.341 107.803 109.233 106.686 109.406C106.934 110.106 107.351 110.721 107.7 111.372C108.314 112.518 108.921 113.649 109.714 114.683C110.037 115.277 110.335 115.818 110.777 116.336C111.155 117.46 111.999 118.585 112.63 119.603C115.677 124.529 119.391 129.187 124.681 131.836C127.253 133.124 129.714 134.016 132.583 133.158C134.658 131.992 136.489 130.325 138.204 128.69C138.239 128.594 138.553 128.304 138.643 128.208L140.189 126.554C141.119 125.762 141.888 124.599 142.559 123.578C144.83 120.123 146.53 116.157 147.384 112.106C147.829 109.995 147.912 107.85 148.341 105.753L148.214 105.262C148.248 105.169 148.25 105.057 148.315 104.982C148.4 104.884 149.215 104.659 149.414 104.578C150.369 104.189 151.053 103.791 151.714 102.983C152.647 101.841 153.157 99.9339 152.967 98.464C152.754 96.818 151.901 94.8777 150.547 93.8728C149.459 93.0648 148.214 92.9156 146.902 93.1894C142.457 94.1169 142.039 99.6518 142.174 103.298C142.211 104.289 142.616 106.734 142.11 107.542C141.888 106.908 141.841 106.191 141.663 105.536C141.122 103.547 139.993 101.196 138.281 99.9641C137.355 99.2971 136.577 99.3285 135.495 99.5081Z" fill="url(#paint0_linear_32_1542)"/>
<path d="M126.876 123.79L126.492 123.747C125.481 124.616 124.516 125.359 123.324 125.962C122.769 126.243 121.888 126.356 121.477 126.778C121.602 127.21 121.622 127.239 121.97 127.525C123.3 127.43 124.585 126.857 125.657 126.083C126.227 125.672 127.167 125.031 127.278 124.313L126.876 123.79Z" fill="#C61C32"/>
<path d="M110.776 116.336C111.275 116.512 111.839 116.737 112.378 116.676C112.867 116.62 113.4 116.336 113.693 115.938C114.007 115.514 114.112 114.95 113.97 114.431C113.845 113.973 113.275 113.401 112.867 113.19C112.337 112.917 111.517 112.876 110.968 113.1C110.241 113.397 110.003 114.003 109.714 114.684C110.037 115.277 110.335 115.818 110.776 116.336Z" fill="#1E2033"/>
<path d="M124.06 107.803C123.665 107.717 123.182 107.678 122.784 107.755C122.18 107.872 121.671 108.337 121.359 108.845C121.109 109.251 121.062 109.772 121.198 110.234C121.426 111.017 121.967 111.41 122.64 111.805C122.983 111.867 123.292 111.918 123.642 111.872C124.154 111.805 124.697 111.456 125.004 111.051C125.389 110.546 125.536 109.611 125.341 109.01C125.155 108.433 124.559 108.069 124.06 107.803Z" fill="#1E2033"/>
<path d="M149.234 95.9982C148.764 95.8721 148.113 95.8547 147.637 95.9689C146.708 96.1915 145.911 96.9036 145.455 97.7308C145.11 98.3556 144.817 99.3382 145.066 100.032C145.202 100.413 145.558 100.572 145.903 100.732C146.595 101.051 146.905 101.373 147.377 101.957L147.546 102.17C147.747 102.295 147.916 102.326 148.144 102.382C148.308 102.282 148.411 102.227 148.56 102.092C148.895 101.787 149.051 101.302 148.969 100.854C148.779 99.822 147.48 99.1209 146.737 98.5382C146.796 98.2827 146.863 98.0646 146.981 97.8279C147.306 97.1773 148.203 96.7727 148.865 96.5943C149.149 96.5178 149.36 96.4584 149.613 96.297L149.234 95.9982Z" fill="#C61C32"/>
<path d="M126.057 100.837C124.76 100.835 123.593 100.807 122.342 101.204C120.798 101.694 118.004 103.162 117.365 104.716C117.166 105.2 117.268 105.406 117.473 105.86L117.742 106.034C119.017 105.543 120.36 104.298 121.538 103.554C123.026 102.615 124.599 101.825 126.057 100.837Z" fill="#1E2033"/>
<path d="M117.104 113.249C116.802 112.861 116.744 112.75 116.273 112.565C115.924 113 116.071 114.07 116.065 114.648C116.053 115.677 116.042 116.699 115.915 117.722C115.799 118.656 115.271 120.137 115.388 121.011L115.457 121.324L115.496 121.492C115.658 122.098 116.215 122.748 116.767 123.046C117.723 123.562 119.168 123.486 120.161 123.136C120.997 122.841 122.15 122.113 122.554 121.297C122.861 120.677 122.899 119.58 122.666 118.938L122.586 118.751C122.369 118.24 120.38 117.453 119.821 117.024C118.605 116.09 118.207 114.521 117.217 113.377L117.104 113.249Z" fill="#F4555A"/>
<path d="M122.666 118.938L122.586 118.75C122.369 118.24 120.38 117.453 119.821 117.024C118.605 116.09 118.207 114.521 117.217 113.377L117.104 113.249L117.287 117.339C117.295 117.885 117.176 118.799 117.307 119.307C117.337 119.421 117.517 119.669 117.61 119.755C118.428 120.512 119.866 120.268 120.874 120.233C121.413 119.918 121.839 119.59 122.301 119.172C122.508 118.986 122.414 119.051 122.666 118.938Z" fill="#E09C78"/>
<path d="M277.814 126.727C277.237 126.657 276.51 126.596 275.946 126.745C275.146 126.957 274.51 127.417 274.103 128.158C273.723 128.849 273.684 129.586 273.902 130.34C274.189 131.333 274.828 131.903 275.72 132.384C276.193 132.48 276.733 132.583 277.209 132.477C278.044 132.292 278.804 131.739 279.255 131.014C279.662 130.36 279.8 129.498 279.609 128.753C279.344 127.719 278.713 127.227 277.814 126.727Z" fill="#F4555A"/>
<path d="M221.32 34.0791C220.512 34.051 219.803 34.0528 219.061 34.4069C218.344 34.7488 217.625 35.6495 217.37 36.3843C217.048 37.3104 217 38.4605 217.44 39.3537C217.942 40.3739 218.757 40.8766 219.783 41.2489C220.376 41.3 221.087 41.3529 221.665 41.1859L221.955 41.0929L222.314 40.9728C223.003 40.694 223.693 39.9129 223.961 39.2214C224.377 38.148 224.329 36.8645 223.786 35.8461C223.231 34.8032 222.404 34.4016 221.32 34.0791Z" fill="#F4555A"/>
<path d="M143.441 19.6084L143.351 19.616C142.483 19.6774 141.739 19.7787 140.967 20.2221C139.934 20.8165 139.101 21.9244 138.816 23.0843C138.524 24.2797 138.718 25.6867 139.416 26.7152C140.252 27.9446 141.31 28.3832 142.704 28.6842C143.662 28.7126 144.55 28.5859 145.392 28.0891C146.474 27.4499 147.317 26.2727 147.588 25.0438C147.83 23.951 147.609 22.5737 146.999 21.6416C146.158 20.3562 144.881 19.8709 143.441 19.6084Z" fill="#F4555A"/>
<path d="M27.9019 101.921C26.6666 101.87 25.5451 101.962 24.4292 102.547C23.054 103.267 21.9962 104.662 21.5683 106.14C21.1619 107.544 21.3122 109.349 22.0344 110.622C22.9441 112.225 24.2224 113.038 25.9533 113.537C26.868 113.65 27.8741 113.687 28.7622 113.395C30.2764 112.896 31.5088 111.677 32.1746 110.252C32.7489 109.024 33.0205 107.273 32.5149 105.974L32.4384 105.785C32.3019 105.425 32.1779 105.082 31.9845 104.746C31.0662 103.151 29.6459 102.35 27.9019 101.921Z" fill="#F4555A"/>
<path d="M269.063 148.207L269.066 178.827C273.834 175.641 278.997 173.206 284.808 173.01C284.253 171.16 283.799 169.287 283.093 167.484C280.241 160.201 275.12 153.164 269.063 148.207Z" fill="#F4555A"/>
<path d="M183.365 46.5412C183.908 46.3039 184.787 46.4252 185.394 46.4255L190.339 46.4282L211.138 46.4572C207.935 37.9385 200.58 30.4932 192.345 26.7387C183.051 22.5016 172.879 21.9319 163.27 25.5516C153.841 29.1035 145.735 36.5863 141.574 45.7866C140.389 48.4064 139.639 51.1592 138.82 53.9067C138.635 52.5891 138.556 51.2698 138.196 49.9819C137.254 46.6174 135.025 43.3554 132.225 41.2486C128.839 38.7005 124.342 37.4194 120.123 38.0556C115.821 38.7041 111.775 41.0905 109.239 44.6478C106.889 47.9442 106.362 51.2776 106.36 55.2164C96.7719 49.5799 84.9419 47.5079 74.0757 50.3055C62.1228 53.3825 52.1865 60.8526 45.8806 71.4748C38.7428 83.4981 37.916 97.5915 41.706 110.865L41.9205 111.479C39.2688 117.048 37.4617 124.178 39.6085 130.224C40.2444 132.015 41.0563 133.345 42.4017 134.686C38.2976 139.271 34.9447 144.74 33.046 150.607C29.385 148.933 25.2131 147.628 21.1657 147.408C22.154 152.766 22.5021 158.548 25.0959 163.449C25.7465 164.678 26.6062 165.783 27.3912 166.927C27.0945 167.821 27.0219 168.78 26.8874 169.711C26.3325 173.554 26.6669 177.342 26.9283 181.189L19.0838 179.73C19.3524 187.097 21.4189 195.44 27.0392 200.618C30.6885 203.981 35.1936 204.777 39.9955 204.559C41.3432 204.498 42.9978 204.379 44.2648 203.9L44.7866 203.748L48.6364 209.191C49.1382 209.937 49.8353 210.837 50.124 211.691C50.2829 212.16 50.1951 212.845 50.1963 213.346L50.2047 216.835L50.236 233.11L46.299 228.128C45.9467 227.694 45.1631 226.951 44.9543 226.469C44.8822 226.303 44.948 225.676 44.9435 225.47C44.9291 224.836 44.853 224.281 44.731 223.658L44.679 223.377C43.8644 219.094 40.7333 214.106 37.122 211.652C31.4541 207.801 24.3874 208.321 18.002 209.587L14.5117 210.49C16.0169 212.875 17.7537 215.132 19.4044 217.42C23.0642 222.494 26.7 228.268 33.2127 229.736L35.6762 230.156C38.323 230.505 41.4801 230.313 43.6564 228.612L43.7171 228.542L44.3641 228.255L50.1049 234.816C50.5471 235.386 50.5355 236.565 50.6682 237.269C50.9891 238.974 51.4418 240.622 51.6713 242.352L38.4434 242.346C36.3668 242.343 33.8976 242.09 31.8677 242.475C31.1595 242.609 30.4901 242.979 29.9764 243.479C29.218 244.215 28.9299 244.989 28.9633 246.041C28.9926 246.97 29.4005 247.812 30.107 248.425C31.0967 249.283 32.3046 249.272 33.5477 249.191L33.5844 255.249L33.5883 263.654C33.5877 265.654 33.3959 267.802 33.6322 269.782C33.9251 272.235 35.1891 274.65 36.9334 276.382C38.2984 277.738 39.9145 278.595 41.6355 279.413C44.7618 280.174 47.6389 280.18 50.8316 280.177C54.2792 280.172 57.3673 280.118 60.7542 279.343C62.4632 278.767 64.0936 278.097 65.4557 276.887C68.3038 274.356 69.5427 271.586 69.7737 267.783L75.4496 267.772L75.4231 267.374C75.2799 266.002 75.1867 264.574 75.3983 263.203C75.5265 262.371 75.6884 261.61 75.9502 260.808C77.453 256.206 81.8622 252.849 86.0138 250.736C87.3167 250.073 88.7206 249.592 90.0047 248.915L90.2144 248.802C91.8006 248.078 93.5174 247.619 95.1768 247.095L104.269 244.31C113.787 241.432 123.247 238.343 132.964 236.185L138.491 234.991C138.441 236.484 138.369 237.253 139.441 238.401C140.705 239.755 142.475 240.573 144.173 241.244C150.029 243.56 157.005 244.2 163.267 244.301C173.008 244.457 183.368 242.953 192.599 239.812C194.983 239 197.231 237.903 199.568 236.987C199.916 236.828 200.293 236.755 200.663 236.661C200.724 236.59 200.812 236.535 200.847 236.448C200.883 236.357 199.149 232.359 198.965 231.872C194.953 221.254 195.132 209.611 195.784 198.44C195.928 195.973 195.964 193.431 196.242 190.979C196.285 190.599 196.158 190.564 195.946 190.262L197.845 176.138C198.532 168.709 198.685 161.136 196.484 153.918C195.126 149.466 193.18 144.703 189.51 141.653C188.678 140.962 187.718 140.459 186.768 139.955C181.963 137.524 177.057 136.794 171.769 136.196L161.835 132.941L161.626 133.059C160.615 133.644 159.774 134.532 158.745 135.142C154.588 137.609 148.439 139.992 143.508 139.03C143.304 138.846 143.071 138.676 142.933 138.437C142.738 137.119 141.561 135.468 140.941 134.25L138.934 129.913C138.726 129.449 138.558 129.059 138.204 128.69C136.489 130.325 134.658 131.992 132.583 133.158C129.714 134.016 127.253 133.123 124.681 131.836C119.391 129.187 115.677 124.528 112.63 119.603C111.999 118.584 111.155 117.46 110.777 116.335C110.335 115.818 110.037 115.277 109.714 114.683C108.921 113.648 108.314 112.518 107.7 111.372C107.351 110.72 106.934 110.106 106.686 109.406L106.375 109.444C104.169 108.292 101.961 105.309 100.759 103.148C98.8933 99.7935 98.4167 95.8089 99.5068 92.1136C100.399 89.088 102.394 86.1374 105.21 84.6208C105.721 84.3456 106.415 82.2601 106.709 81.631C107.593 79.7425 108.659 77.9671 109.98 76.3505C114.935 70.2836 122.442 66.4237 130.215 65.6853C138.87 64.8626 147.341 68.6308 153.155 74.9749C156.255 78.3577 158.584 82.3357 160.362 86.5492C162.495 91.6053 163.534 97.0249 166.1 101.915C168.902 107.258 172.921 111.932 177.566 115.764L177.546 94.8309L177.502 69.4915L177.507 57.25C177.51 55.347 177.328 53.2271 177.57 51.346C177.679 50.503 178.086 49.6708 178.634 49.025C179.952 47.4708 181.348 46.7321 183.365 46.5412Z" fill="#F4555A"/>
<path d="M138.934 129.913C138.726 129.449 138.558 129.059 138.203 128.69C136.489 130.325 134.658 131.992 132.583 133.158C134.049 135.234 134.954 137.61 136.34 139.726C136.9 140.581 137.604 141.306 138.316 142.034C139.065 141.269 139.781 140.651 140.677 140.065C141.223 139.469 142.263 138.947 142.933 138.437C142.738 137.119 141.561 135.468 140.941 134.25L138.934 129.913Z" fill="#1E2033"/>
<path d="M135.774 144.012C135.092 144.148 134.54 144.506 133.961 144.878C131.915 146.191 130.268 148.119 128.92 150.12C126.275 154.045 124.862 158.992 124.627 163.705C124.418 167.921 124.833 172.199 124.444 176.402L127.211 178.479L130.552 162.788L133.049 151.765C133.767 149.07 134.485 146.501 135.774 144.012Z" fill="#2C3E6E"/>
<path d="M55.8379 242.265C56.4827 241.22 62.2438 232.329 62.7551 232.276C62.97 232.253 64.4011 232.955 64.7029 233.066C68.7299 234.544 73.1866 235.321 77.3965 234.121C84.6619 232.051 89.8388 226.266 93.454 219.919C88.683 217.405 82.9738 216.191 77.6688 217.28C75.32 217.762 73.0781 218.713 71.1495 220.144C68.7048 221.958 66.6501 224.679 64.7704 227.058L58.9463 234.652L55.1054 240.533L54.4313 241.977C54.5448 242.269 54.4636 242.159 54.6396 242.332L55.8379 242.265Z" fill="#1E2033"/>
<path d="M161.835 132.941L161.626 133.059C160.615 133.644 159.774 134.532 158.745 135.143C154.588 137.609 148.439 139.992 143.508 139.03C143.304 138.846 143.071 138.676 142.933 138.437C142.263 138.947 141.223 139.469 140.678 140.065C140.17 141.811 140.311 143.993 140.37 145.804C140.636 154.081 142.083 162.187 144.966 169.956L163.135 146.494L167.572 140.989C168.916 139.33 170.212 137.664 171.769 136.196L161.835 132.941Z" fill="#F9E6D5"/>
<path d="M93.2347 153.1C92.5136 152.286 91.7576 151.569 90.5981 151.514C89.3747 151.457 88.0369 151.719 86.8215 151.866L79.3108 152.877C77.9192 153.071 76.3653 153.104 75.0137 153.459C74.6924 153.543 74.4145 153.698 74.1841 153.938C73.836 154.3 73.5999 154.835 73.6319 155.341C73.6824 156.15 75.0752 157.862 75.5533 158.566L83.8019 170.215L83.7367 170.321C82.5704 172.187 80.0561 174.228 80.5725 176.622C80.6959 177.195 81.1839 177.996 81.6787 178.326C82 178.54 82.415 178.585 82.7892 178.625L82.8376 178.891C83.2515 181.047 84.2872 182.617 86.1142 183.819L86.4373 184.026C87.251 185.868 87.6529 187.622 89.7262 188.426L93.9468 189.678L93.9226 189.536C93.824 189.272 93.6444 189.079 93.5679 188.785C93.4612 188.375 93.4573 187.552 93.6716 187.202L93.85 187.459L107.433 187.239L107.607 187.189L108.848 187.2C109.742 187.151 110.748 187.068 111.375 186.357C111.981 185.67 111.801 184.829 111.737 183.982C114.02 184.827 115.318 186.68 117.202 188.077C118.536 189.067 120.292 189.748 121.789 190.471L124.575 191.808C124.688 191.862 125.292 192.111 125.336 192.182C126.9 192.929 128.578 193.619 130.047 194.532C132.641 196.146 134.793 198.477 136.966 200.604L143.689 191.231C142.317 189.835 140.517 188.697 138.955 187.504L127.211 178.48L124.444 176.402C122.947 175.312 121.421 174.033 119.75 173.225C117.449 172.112 114.64 171.812 112.137 171.417L105.173 170.351C105.029 169.658 104.291 168.813 103.879 168.24L100.78 163.912L93.2347 153.1Z" fill="#1E2033"/>
<path d="M86.7564 156.661C86.1351 156.482 85.166 156.519 84.5364 156.679C83.974 156.822 83.8156 157.064 83.5494 157.557C83.6581 158.083 83.8727 158.26 84.2725 158.603L84.5418 158.721C85.0958 158.942 85.9869 158.942 86.5236 158.659C87.1284 158.34 87.2369 157.937 87.4021 157.333C87.2435 156.886 87.1741 156.904 86.7564 156.661Z" fill="#F4B790"/>
<path d="M93.2347 153.1C92.291 153.113 91.3613 153.054 90.4702 153.394L89.9774 153.567C90.6911 154.256 91.4575 154.955 92.0435 155.757L98.642 165.711L100.258 167.898C100.732 168.485 101.332 169.032 101.499 169.787C102.666 170.029 103.983 170.332 105.173 170.351C105.029 169.658 104.291 168.813 103.879 168.24L100.78 163.912L93.2347 153.1Z" fill="#2C3E6E"/>
<path d="M97.9618 175.369L98.0903 174.836C98.1381 174.462 98.0852 174.308 97.8629 174.013C97.6466 173.725 97.3295 173.515 96.9736 173.473C95.1726 173.263 89.0334 179.125 87.3328 180.446C87.839 179.466 88.7747 178.513 89.4856 177.656C91.3873 175.365 93.5123 173.127 95.2213 170.697C95.6139 170.139 95.9301 169.486 95.7269 168.791C95.5566 168.209 95.1457 167.93 94.6538 167.646C94.0538 167.596 93.6527 167.612 93.1032 167.879C92.2375 168.3 91.4181 169.34 90.7553 170.036L86.7827 174.22C86.0135 175.03 85.2751 175.936 84.387 176.616C85.6325 174.34 87.1813 172.229 88.5738 170.041C89.1571 169.125 90.1418 167.855 90.1263 166.746C90.0327 166.444 89.9434 166.262 89.7034 166.058C89.2238 165.649 88.6844 165.597 88.0796 165.689C86.7241 165.895 84.6631 169.118 83.8019 170.215L83.7367 170.321C82.5704 172.187 80.056 174.228 80.5724 176.622C80.6958 177.194 81.1838 177.996 81.6787 178.326C81.9999 178.54 82.415 178.585 82.7891 178.625L82.8375 178.891C83.2514 181.047 84.2871 182.617 86.1142 183.819L86.4372 184.026C87.2509 185.868 87.6529 187.622 89.7261 188.426L93.9468 189.678L93.9226 189.536C93.8239 189.272 93.6444 189.079 93.5679 188.785C93.4612 188.375 93.4573 187.552 93.6716 187.202C95.5297 185.155 98.0025 182.916 99.34 180.492C99.5232 180.16 99.6941 179.858 99.5402 179.481C99.4058 179.152 98.9109 178.653 98.566 178.541C98.1608 178.409 97.833 178.466 97.4556 178.643C96.6371 179.027 95.9101 179.734 95.2305 180.321C93.512 181.808 91.7426 183.742 89.753 184.832C90.3788 183.809 91.3195 182.956 92.1335 182.081C94.1458 179.916 96.2968 177.818 97.9618 175.369Z" fill="#F4B790"/>
<path d="M101.499 169.787C100.457 169.738 98.6438 169.426 97.7853 170.182C97.4831 170.448 97.2557 170.734 97.2381 171.154C97.2223 171.53 97.3591 171.784 97.6397 172.02C98.4493 172.703 99.86 172.901 100.855 173.187C101.874 173.479 102.911 173.88 103.956 174.058C104.847 174.21 105.837 174.645 106.715 174.903L113.695 177.063L107.492 176.108C104.756 175.595 101.459 174.553 98.688 174.846L98.272 175.276C98.9495 176.545 100.772 176.958 102.083 177.361L112.744 180.27C110.371 180.246 107.803 179.468 105.469 179.019C104.91 178.912 103.705 178.589 103.17 178.707C103.072 178.729 102.753 178.934 102.668 179.02C102.539 179.15 102.446 179.364 102.364 179.521C102.511 180.063 102.722 180.323 103.228 180.605L103.792 180.884L108.52 182.724C109.463 183.117 110.742 183.887 111.737 183.982C114.02 184.826 115.318 186.68 117.202 188.077C118.536 189.067 120.292 189.748 121.789 190.47L124.575 191.808C124.688 191.862 125.292 192.111 125.336 192.182C126.9 192.929 128.578 193.619 130.047 194.532C132.641 196.145 134.793 198.477 136.966 200.603L143.689 191.231C142.317 189.835 140.517 188.697 138.955 187.504L127.211 178.48L124.444 176.402C122.947 175.312 121.421 174.033 119.75 173.224C117.449 172.112 114.64 171.812 112.137 171.417L105.173 170.351C103.983 170.332 102.666 170.029 101.499 169.787Z" fill="#F4B790"/>
<path d="M125.336 192.182C125.292 192.111 124.688 191.862 124.575 191.808L121.789 190.47C120.292 189.748 118.536 189.067 117.202 188.077C115.317 186.68 114.02 184.826 111.737 183.982C111.801 184.829 111.981 185.67 111.375 186.356C110.748 187.068 109.742 187.151 108.848 187.2L107.607 187.189L107.433 187.239L93.8499 187.459L93.6715 187.202C93.4573 187.552 93.4612 188.375 93.5679 188.785C93.6444 189.078 93.8239 189.272 93.9225 189.536L93.9467 189.678C95.1731 189.735 96.1073 190.811 96.8899 191.665C98.9091 193.868 100.778 196.875 101.693 199.722C101.179 203.334 102.781 206.633 104.894 209.465L116.092 224.093C118.322 226.961 120.694 230.537 123.504 232.851C125.103 234.167 127.327 235.261 129.388 235.56C130.592 235.735 131.727 235.687 132.931 235.547C132.959 235.769 133.004 235.964 132.964 236.185L138.491 234.992L138.491 232.968C138.369 232.173 138.439 231.248 138.428 230.44L138.398 224.935L138.432 205.883L134.891 203.151L136.966 200.603C134.793 198.477 132.641 196.145 130.047 194.532C128.578 193.619 126.9 192.929 125.336 192.182Z" fill="#1E2033"/>
<path d="M138.491 232.968C136.733 234.288 135.118 235.143 132.931 235.547C132.959 235.769 133.004 235.964 132.964 236.185L138.491 234.992L138.491 232.968Z" fill="#F4B790"/>
<path d="M125.336 192.182C125.292 192.111 124.688 191.862 124.575 191.808L121.789 190.47C120.292 189.748 118.536 189.067 117.202 188.077C115.317 186.68 114.02 184.826 111.737 183.982C111.801 184.829 111.981 185.67 111.375 186.356C110.748 187.068 109.742 187.151 108.848 187.2L107.607 187.189L107.433 187.239C108.046 188.151 108.817 188.958 109.547 189.778C111.064 189.872 115.392 195.26 116.565 196.566L120.714 201.058C121.363 201.763 122.633 203.508 123.557 203.669C124.04 202.766 124.086 201.238 124.231 200.217L125.336 192.182Z" fill="#F4555A"/>
<path d="M93.6715 187.202C93.4573 187.552 93.4612 188.375 93.5678 188.785C93.6443 189.078 93.8239 189.272 93.9225 189.536L93.9467 189.678C95.1731 189.735 96.1073 190.811 96.8899 191.665C98.9091 193.868 100.778 196.875 101.693 199.722C102.129 200.64 102.578 201.816 103.382 202.469C104.13 203.077 105.221 203.28 106.159 203.161C107.817 202.951 109.243 201.862 110.213 200.549C111.479 198.835 111.983 196.748 111.666 194.644L111.625 194.388C111.362 192.626 110.535 191.226 109.547 189.778C108.817 188.958 108.046 188.151 107.433 187.239L93.8499 187.459L93.6715 187.202Z" fill="#E09C78"/>
<path d="M58.3549 132.55C58.4045 132.01 59.0132 131.064 59.2188 130.496C59.7056 129.154 60.04 127.703 60.1858 126.281C61.1884 116.507 55.0179 107.662 49.1842 100.39L41.9205 111.479C39.2687 117.048 37.4617 124.179 39.6085 130.224C40.2444 132.015 41.0563 133.345 42.4016 134.687C38.2975 139.271 34.9447 144.741 33.0459 150.607C29.385 148.934 25.213 147.629 21.1657 147.408C22.1539 152.766 22.5021 158.548 25.0959 163.45C25.7465 164.679 26.6062 165.784 27.3912 166.927C27.0945 167.821 27.0219 168.781 26.8874 169.711C26.3325 173.554 26.6668 177.342 26.9283 181.19L19.0838 179.73C19.3524 187.097 21.4188 195.44 27.0392 200.619C30.6885 203.981 35.1936 204.777 39.9955 204.559C41.3432 204.498 42.9978 204.379 44.2648 203.901L44.7866 203.748L48.6364 209.192C49.1381 209.937 49.8353 210.837 50.124 211.691C50.2829 212.161 50.1951 212.845 50.1963 213.346L50.2046 216.835L50.236 233.11L46.299 228.128C45.9466 227.695 45.1631 226.951 44.9542 226.47C44.8822 226.304 44.948 225.676 44.9435 225.47C44.9291 224.836 44.8529 224.281 44.731 223.658L44.679 223.377C43.8644 219.094 40.7333 214.106 37.1219 211.652C31.4541 207.801 24.3874 208.321 18.002 209.587L14.5117 210.49C16.0169 212.876 17.7537 215.133 19.4044 217.421C23.0642 222.494 26.7 228.269 33.2127 229.737L35.6762 230.156C38.3229 230.506 41.4801 230.314 43.6564 228.613L43.7171 228.542L44.3641 228.255L50.1048 234.816C50.5471 235.387 50.5355 236.566 50.6681 237.27C50.9891 238.974 51.4418 240.622 51.6713 242.352L52.6795 242.334L54.6396 242.332C54.4635 242.158 54.5448 242.269 54.4313 241.976L55.1054 240.533C54.7821 238.376 55.2226 236.024 54.7068 233.903C54.6219 233.528 55.0714 232.253 55.1813 231.845C56.03 228.7 56.9148 225.611 58.2216 222.619C58.5739 221.812 58.9732 221.032 59.4068 220.266C59.6419 219.851 60.048 219.334 60.0791 218.852C60.2324 218.721 60.5683 218.352 60.7368 218.292C61.2852 218.096 62.7871 218.293 63.4403 218.27C68.0465 218.103 71.777 217.176 75.3773 214.194C79.3329 210.918 82.3732 206.122 83.7726 201.184C84.4237 198.887 84.705 196.58 84.9231 194.21C79.4405 194.889 74.3455 196.227 69.6264 199.18C64.1181 202.627 61.215 207.447 59.901 213.697C59.6144 215.06 59.595 216.48 59.2741 217.823L59.2364 217.975C58.77 218.341 58.4977 219.056 58.2288 219.578L56.1373 224.159C55.6594 222.357 55.8334 219.982 55.6726 218.101C55.2728 213.419 54.356 208.501 52.6834 204.099C52.3389 203.193 52.0702 202.259 51.6321 201.392C51.5876 200.404 51.3832 199.13 51.5491 198.168C51.6844 197.38 52.3604 196.624 52.7369 195.924L54.8577 191.911C56.6438 192.069 58.6749 192.136 60.4521 191.893C64.6234 191.322 68.186 189.791 71.3001 186.923C75.3412 183.201 78.0279 177.418 78.9902 172.05C79.3365 170.118 79.4294 168.155 79.5 166.198C76.2161 166.487 72.8749 166.87 69.7017 167.793C64.4632 169.317 58.8142 173.67 56.1794 178.46C55.1138 180.397 54.4462 182.69 54.0816 184.867C53.908 185.904 53.7882 186.959 53.8196 188.011C53.8441 188.828 54.0831 190.049 53.9337 190.824C53.8766 191.12 53.475 191.683 53.3229 191.967L51.5709 195.198L51.5685 155.301L52.6661 155.363C54.234 155.433 55.9078 155.537 57.4683 155.344C60.906 154.919 64.0099 153.159 66.5138 150.834C73.1487 144.673 75.0606 136 75.3723 127.295L70.2384 128.403C66.9196 129.281 63.8919 130.495 60.8857 132.141C57.6233 134.378 54.9524 136.6 53.0862 140.178C52.5289 141.246 52.1527 142.455 51.5467 143.481L51.5548 137.296C54.2935 136.335 56.6578 134.933 58.3549 132.55Z" fill="#1E2033"/>
<path d="M44.364 228.255C43.7385 226.946 38.1794 223.15 36.7923 222.654C36.5894 222.582 36.6599 222.597 36.4597 222.603C37.6693 224.15 39.5726 225.329 41.1061 226.573C41.861 227.185 42.8178 228.21 43.717 228.542L44.364 228.255Z" fill="#2C3E6E"/>
<path d="M63.9872 140.823L63.8817 140.795C63.1325 140.774 62.4885 141.794 61.9548 142.242L61.7827 142.353L57.4252 146.982C56.4507 147.978 53.2963 150.594 52.9711 151.73L53.2296 151.799L53.5634 151.581C53.9074 151.38 53.9949 151.084 54.2985 150.894C55.6504 150.044 56.9713 148.197 58.0826 147.054C59.5941 145.498 61.3524 144.02 62.6777 142.317C63.0996 141.775 63.6692 141.465 63.9872 140.823Z" fill="#2C3E6E"/>
<path d="M44.7866 203.748C44.0374 202.037 35.8041 195.504 33.94 194.718L33.7213 194.647C36.2789 197.424 39.3814 199.905 42.2842 202.316C42.9341 202.856 43.64 203.332 44.2648 203.901L44.7866 203.748Z" fill="#2C3E6E"/>
<path d="M50.2554 138.614L50.398 138.534L50.4257 137.387C50.6552 136.232 50.5853 135.07 50.5752 133.875L50.7246 133.651L50.7231 125.116C50.7216 124.45 50.8842 123.004 50.6427 122.446C50.5076 122.133 50.5447 121.738 50.5372 121.399L50.2031 121.115L50.0187 121.25L49.9829 130.953C49.9862 132.956 49.8284 135.112 50.1081 137.092L50.1299 137.237L48.9445 137.33L50.1284 137.464C50.317 137.815 50.2599 138.227 50.2554 138.614Z" fill="#2C3E6E"/>
<path d="M54.7068 233.902C53.8602 236.59 52.7823 239.509 52.6795 242.333L54.6396 242.331C54.4635 242.158 54.5448 242.269 54.4313 241.976L55.1054 240.532C54.7821 238.376 55.2226 236.024 54.7068 233.902Z" fill="#C61C32"/>
<path d="M50.2797 204.878C48.8324 203.512 47.7991 201.595 46.6576 199.965C46.0399 199.083 45.4572 198.182 44.5245 197.604C44.7068 198.905 44.7242 200.475 45.0762 201.713C45.3084 202.53 46.3513 203.572 46.8829 204.258C48.0346 205.746 49.2248 207.261 50.2268 208.854L50.2797 204.878Z" fill="#C61C32"/>
<path d="M51.6321 201.392L51.5768 209.439L51.6255 223.564L51.6465 230.487C51.642 231.795 51.5404 233.196 51.6617 234.496C51.7639 235.588 51.9895 236.721 52.2848 237.777L56.1372 224.159C55.6594 222.356 55.8333 219.982 55.6726 218.101C55.2727 213.419 54.3559 208.501 52.6834 204.099C52.3388 203.193 52.0702 202.259 51.6321 201.392Z" fill="#C61C32"/>
<path d="M42.4016 134.686C38.2975 139.271 34.9446 144.74 33.0459 150.606L36.7672 152.785C41.7155 156.303 44.8227 161.418 45.9018 167.343C46.1477 168.694 46.2469 170.069 46.3046 171.44C46.3249 171.923 46.1543 172.878 46.3126 173.305C46.5284 173.887 47.2507 174.657 47.6236 175.175L50.2906 179.045L50.2554 138.614C50.2599 138.227 50.3169 137.814 50.1284 137.463L48.9444 137.329C46.5565 137.347 44.2728 136.045 42.4016 134.686Z" fill="#F4555A"/>
<path d="M27.3912 166.927C27.0945 167.821 27.0218 168.781 26.8874 169.711C26.3324 173.554 26.6668 177.342 26.9283 181.19C32.878 182.973 39.0915 185.527 42.1727 191.313C43.221 193.281 43.9693 195.449 44.5245 197.604C45.4571 198.181 46.0399 199.083 46.6575 199.964C47.7991 201.594 48.8324 203.512 50.2796 204.878C50.2874 202.091 50.6048 182.021 50.0173 181.238C48.2249 178.85 46.8853 176.13 44.95 173.835L39.7208 173.55C34.3554 173.123 30.8453 170.98 27.3912 166.927Z" fill="#F4555A"/>
<path d="M197.845 176.138C198.532 168.708 198.685 161.135 196.484 153.918C195.126 149.466 193.18 144.703 189.51 141.652C188.678 140.962 187.718 140.458 186.768 139.955L186.574 140.029C185.606 140.375 184.327 140.189 183.256 140.506C178.753 141.837 175.473 145.832 173.393 149.86C171.769 153.004 170.608 156.339 169.88 159.798C168.974 164.107 168.723 168.58 168.368 172.963L167.204 187.366L166.517 195.691C166.392 197.114 166.149 198.65 166.178 200.073L165.969 201.079L146.112 188.292C145.219 189.186 144.499 190.26 143.689 191.23L136.966 200.603L134.891 203.151L138.432 205.883L138.398 224.934L138.428 230.44C138.439 231.248 138.369 232.172 138.491 232.968L138.491 234.991C138.44 236.483 138.369 237.253 139.441 238.401C140.705 239.754 142.475 240.573 144.173 241.244C150.029 243.56 157.005 244.199 163.267 244.3C173.008 244.456 183.368 242.952 192.599 239.811C194.983 239 197.231 237.903 199.568 236.986C199.916 236.827 200.293 236.755 200.663 236.661C200.724 236.59 200.812 236.535 200.847 236.447C200.883 236.357 199.149 232.359 198.965 231.872C194.952 221.253 195.132 209.611 195.784 198.44C195.928 195.973 195.964 193.431 196.242 190.978C196.285 190.599 196.158 190.564 195.946 190.261L197.845 176.138Z" fill="#2C3E6E"/>
<path d="M166.178 200.074L165.969 201.08C171.385 203.937 176.321 207.094 180.081 212.038C181.243 213.565 182.107 215.513 183.35 216.921C183.805 217 183.851 216.89 184.23 216.651C184.352 215.794 183.264 214.248 182.798 213.511C179.773 208.729 175.522 204.915 170.65 202.083C169.228 201.256 167.797 200.438 166.178 200.074Z" fill="#1E2033"/>
<path d="M195.946 190.262C194.237 199.836 192.356 209.409 189.658 218.761C188.796 221.747 187.976 224.965 186.508 227.716C185.712 229.207 184.589 230.528 183.206 231.507C182.333 232.125 181.366 232.532 180.343 232.825L180.125 232.89C176.624 233.877 172.365 232.265 169.37 230.514C164.429 227.625 159.967 223.573 155.599 219.89L145.251 211.402L141.232 208.059C140.339 207.314 139.431 206.481 138.432 205.883L138.398 224.934L138.428 230.44C138.439 231.248 138.369 232.173 138.491 232.968L138.491 234.992C138.44 236.484 138.369 237.253 139.441 238.401C140.705 239.755 142.475 240.573 144.173 241.244C150.029 243.56 157.005 244.2 163.267 244.301C173.008 244.457 183.368 242.953 192.599 239.812C194.983 239.001 197.231 237.903 199.568 236.987C199.916 236.828 200.293 236.755 200.663 236.661C200.724 236.59 200.812 236.535 200.847 236.448C200.883 236.357 199.149 232.359 198.965 231.872C194.952 221.254 195.132 209.611 195.784 198.44C195.928 195.973 195.964 193.431 196.242 190.979C196.285 190.599 196.158 190.564 195.946 190.262Z" fill="#C61C32"/>
<defs>
<linearGradient id="paint0_linear_32_1542" x1="153.367" y1="98.7494" x2="109.371" y2="115.999" gradientUnits="userSpaceOnUse">
<stop stop-color="#D77A5C"/>
<stop offset="1" stop-color="#FFDCB3"/>
</linearGradient>
</defs>
</svg>
