<svg width="30" height="32" viewBox="0 0 30 32" fill="none" xmlns="http://www.w3.org/2000/svg">
<rect x="-1" y="1" width="30" height="30" rx="15" fill="#F4555A"/>
<rect x="-1" y="1" width="30" height="30" rx="15" stroke="white" stroke-width="2"/>
<path d="M8.38248 24V8.23445H14.8689C16.9409 8.23445 18.57 8.68489 19.7562 9.58578C20.9574 10.4717 21.558 11.7855 21.558 13.5272C21.558 15.2539 20.9574 16.5677 19.7562 17.4686C18.57 18.3544 16.9409 18.7974 14.8689 18.7974H10.0041L11.3104 17.446V24H8.38248ZM11.3104 17.7613L10.0041 16.4325H14.8464C16.0475 16.4325 16.9709 16.1848 17.6166 15.6893C18.2772 15.1788 18.6076 14.4656 18.6076 13.5497C18.6076 12.6338 18.2772 11.9356 17.6166 11.4551C16.9709 10.9596 16.0475 10.7119 14.8464 10.7119H10.0041L11.3104 9.27047V17.7613ZM6.13026 21.6577V20.0811H16.2653V21.6577H6.13026Z" fill="white"/>
</svg>
