<svg width="22" height="22" viewBox="0 0 22 22" fill="none" xmlns="http://www.w3.org/2000/svg">
<path d="M1.375 9.2502C1.14294 9.2502 0.920376 9.15802 0.756282 8.99392C0.592187 8.82983 0.5 8.60727 0.5 8.3752V1.37695C0.5 1.14489 0.592187 0.922329 0.756282 0.758235C0.920376 0.594141 1.14294 0.501953 1.375 0.501953H8.375C8.60707 0.501953 8.82962 0.594141 8.99372 0.758235C9.15781 0.922329 9.25 1.14489 9.25 1.37695V8.3752C9.25 8.60727 9.15781 8.82983 8.99372 8.99392C8.82962 9.15802 8.60707 9.2502 8.375 9.2502H1.375ZM13.625 9.2502C13.3929 9.2502 13.1704 9.15802 13.0063 8.99392C12.8422 8.82983 12.75 8.60727 12.75 8.3752V1.37695C12.75 1.14489 12.8422 0.922329 13.0063 0.758235C13.1704 0.594141 13.3929 0.501953 13.625 0.501953H20.6233C20.8553 0.501953 21.0779 0.594141 21.242 0.758235C21.4061 0.922329 21.4983 1.14489 21.4983 1.37695V8.3752C21.4983 8.60727 21.4061 8.82983 21.242 8.99392C21.0779 9.15802 20.8553 9.2502 20.6233 9.2502H13.625ZM1.375 21.5002C1.14294 21.5002 0.920376 21.408 0.756282 21.2439C0.592187 21.0798 0.5 20.8573 0.5 20.6252V13.6252C0.5 13.3931 0.592187 13.1706 0.756282 13.0065C0.920376 12.8424 1.14294 12.7502 1.375 12.7502H8.375C8.60707 12.7502 8.82962 12.8424 8.99372 13.0065C9.15781 13.1706 9.25 13.3931 9.25 13.6252V20.6252C9.25 20.8573 9.15781 21.0798 8.99372 21.2439C8.82962 21.408 8.60707 21.5002 8.375 21.5002H1.375ZM13.625 21.5002C13.3929 21.5002 13.1704 21.408 13.0063 21.2439C12.8422 21.0798 12.75 20.8573 12.75 20.6252V13.6252C12.75 13.3931 12.8422 13.1706 13.0063 13.0065C13.1704 12.8424 13.3929 12.7502 13.625 12.7502H20.6233C20.8553 12.7502 21.0779 12.8424 21.242 13.0065C21.4061 13.1706 21.4983 13.3931 21.4983 13.6252V20.6252C21.4983 20.8573 21.4061 21.0798 21.242 21.2439C21.0779 21.408 20.8553 21.5002 20.6233 21.5002H13.625Z" fill="#1E2033"/>
</svg>
