<svg width="166" height="30" viewBox="0 0 166 30" fill="none" xmlns="http://www.w3.org/2000/svg">
<g clip-path="url(#clip0_1161_1533)">
<mask id="mask0_1161_1533" style="mask-type:alpha" maskUnits="userSpaceOnUse" x="-10" y="-10" width="92" height="57">
<path d="M81.3201 -9.26913L41.7648 46.1484H-9.63696V-9.26913H81.3201Z" fill="white"/>
</mask>
<g mask="url(#mask0_1161_1533)">
<path d="M2.93353 11.0843L7.96689 11.1148L7.55924 12.9427C8.29629 12.1336 9.01153 11.5685 9.70495 11.2473C10.4188 10.9059 11.2334 10.738 12.1485 10.7435C13.1653 10.7496 13.9676 10.9274 14.5553 11.2767C15.143 11.626 15.6578 12.2392 16.1 13.1164C17.533 11.5591 19.2257 10.7863 21.1781 10.7982C22.5406 10.8064 23.6163 11.1688 24.4051 11.8854C25.194 12.602 25.5847 13.5704 25.5773 14.7906C25.5735 15.4211 25.4863 16.3866 25.3157 17.6871L24.3571 24.8503L19.3543 24.82L20.2182 18.1749C20.3037 17.4839 20.3473 17.0063 20.3489 16.7419C20.3522 16.1928 20.2023 15.7648 19.8991 15.4579C19.6163 15.1308 19.2106 14.9656 18.6818 14.9624C17.8684 14.9575 17.2669 15.2081 16.8774 15.7142C16.5084 16.2 16.2388 17.0627 16.0686 18.3023L15.2361 24.7951L10.2027 24.7646L11.1304 17.6623C11.1944 17.1746 11.2272 16.7883 11.2289 16.5036C11.2319 16.0155 11.0817 15.6282 10.7784 15.3417C10.4954 15.0552 10.0997 14.9105 9.59127 14.9074C8.16769 14.8988 7.31694 16.0122 7.03902 18.2476L6.20654 24.7404L1.17318 24.7099L2.93353 11.0843ZM28.8892 11.2414L33.9225 11.2719L32.1622 24.8976L27.1288 24.8671L28.8892 11.2414ZM29.9489 7.52609C29.4235 6.97379 29.163 6.32141 29.1676 5.56895C29.1721 4.81649 29.4404 4.17748 29.9724 3.65192C30.5248 3.10615 31.1772 2.83555 31.9297 2.8401C32.6821 2.84466 33.3211 3.12309 33.8465 3.67538C34.3924 4.20746 34.6631 4.84974 34.6585 5.6022C34.654 6.35466 34.3755 7.00377 33.8231 7.54954C33.2911 8.0751 32.6489 8.3356 31.8964 8.33104C31.144 8.32649 30.4948 8.05817 29.9489 7.52609ZM46.2309 11.3464L51.2643 11.3769L49.5039 25.0026L44.4706 24.9721L44.8457 23.4796C44.0686 24.1867 43.3334 24.6805 42.6403 24.961C41.9472 25.2212 41.1329 25.3485 40.1974 25.3428C38.4688 25.3324 37.0894 24.7444 36.0593 23.5789C35.0494 22.4136 34.5505 20.8445 34.5624 18.8719C34.5764 16.5738 35.2691 14.6764 36.6408 13.1798C38.0126 11.6628 39.7255 10.9105 41.7796 10.9229C42.7354 10.9287 43.5277 11.0759 44.1564 11.3644C44.7852 11.6326 45.4634 12.1451 46.191 12.902L46.2309 11.3464ZM42.4176 21.421C43.3328 21.4265 44.0873 21.0853 44.6813 20.3974C45.2957 19.6894 45.6061 18.8065 45.6125 17.749C45.6178 16.8746 45.378 16.1816 44.893 15.6702C44.408 15.1589 43.7587 14.9007 42.9452 14.8958C42.0301 14.8903 41.2551 15.2415 40.6204 15.9494C40.0061 16.6372 39.6958 17.4997 39.6895 18.5368C39.6842 19.4113 39.924 20.1144 40.4089 20.6461C40.9143 21.1576 41.5838 21.4159 42.4176 21.421ZM60.4002 20.5841L69.5213 20.6394L68.945 25.1203L51.3435 25.0137L62.4825 9.21789L54.4596 9.16931L55.0358 4.68837L71.3866 4.78737L60.4002 20.5841ZM81.6682 11.561L86.7016 11.5915L84.9412 25.2172L79.9079 25.1867L80.283 23.6942C79.5059 24.4013 78.7707 24.8951 78.0775 25.1756C77.3845 25.4358 76.5702 25.5631 75.6347 25.5574C73.9061 25.5469 72.5267 24.959 71.4965 23.7935C70.4867 22.6281 69.9878 21.0591 69.9997 19.0864C70.0136 16.7884 70.7064 14.891 72.0781 13.3943C73.4499 11.8773 75.1628 11.1251 77.2169 11.1375C78.1727 11.1433 78.965 11.2904 79.5937 11.579C80.2225 11.8472 80.9007 12.3597 81.6283 13.1166L81.6682 11.561ZM77.8549 21.6355C78.7701 21.6411 79.5246 21.2999 80.1186 20.612C80.733 19.9039 81.0434 19.0211 81.0498 17.9636C81.0551 17.0891 80.8153 16.3962 80.3303 15.8848C79.8453 15.3734 79.196 15.1153 78.3825 15.1104C77.4674 15.1048 76.6924 15.456 76.0577 16.164C75.4434 16.8518 75.1331 17.7142 75.1268 18.7514C75.1215 19.6259 75.3613 20.329 75.8462 20.8607C76.3515 21.3722 77.0211 21.6305 77.8549 21.6355ZM89.4563 11.6082L94.4897 11.6387L92.7293 25.2643L87.696 25.2339L89.4563 11.6082ZM90.516 7.89283C89.9906 7.34053 89.7302 6.68815 89.7347 5.93569C89.7393 5.18323 90.0075 4.54422 90.5395 4.01866C91.0919 3.47289 91.7444 3.20229 92.4968 3.20684C93.2493 3.2114 93.8882 3.48983 94.4137 4.04212C94.9596 4.5742 95.2302 5.21648 95.2257 5.96894C95.2211 6.7214 94.9426 7.37052 94.3902 7.91628C93.8583 8.44184 93.216 8.70234 92.4636 8.69778C91.7111 8.69323 91.0619 8.42491 90.516 7.89283ZM96.8229 11.6528L101.856 11.6833L101.449 13.5112C102.186 12.7021 102.901 12.137 103.594 11.8158C104.308 11.4744 105.123 11.3065 106.038 11.312C107.055 11.3182 107.857 11.4959 108.445 11.8452C109.032 12.1945 109.547 12.8077 109.989 13.6849C111.422 12.1276 113.115 11.3549 115.067 11.3667C116.43 11.3749 117.506 11.7373 118.294 12.4539C119.083 13.1705 119.474 14.1389 119.467 15.3591C119.463 15.9896 119.376 16.9551 119.205 18.2557L118.246 25.4188L113.244 25.3885L114.108 18.7434C114.193 18.0524 114.237 17.5748 114.238 17.3104C114.242 16.7613 114.092 16.3333 113.788 16.0264C113.506 15.6993 113.1 15.5341 112.571 15.5309C111.758 15.526 111.156 15.7766 110.767 16.2827C110.398 16.7685 110.128 17.6312 109.958 18.8708L109.125 25.3636L104.092 25.3331L105.02 18.2308C105.084 17.7431 105.117 17.3568 105.118 17.0721C105.121 16.584 104.971 16.1967 104.668 15.9102C104.385 15.6237 103.989 15.479 103.481 15.4759C102.057 15.4673 101.206 16.5807 100.928 18.8161L100.096 25.3089L95.0625 25.2785L96.8229 11.6528Z" fill="#1E2033"/>
</g>
<mask id="mask1_1161_1533" style="mask-type:alpha" maskUnits="userSpaceOnUse" x="43" y="-10" width="92" height="57">
<path d="M43.9805 46.149L83.5358 -9.26855H134.938V46.149H43.9805Z" fill="white"/>
</mask>
<g mask="url(#mask1_1161_1533)">
<path d="M10.3734 11.0843L15.4067 11.1148L14.9991 12.9427C15.7361 12.1336 16.4513 11.5685 17.1448 11.2473C17.8587 10.9059 18.6732 10.738 19.5883 10.7435C20.6052 10.7496 21.4074 10.9274 21.9951 11.2767C22.5828 11.626 23.0977 12.2392 23.5398 13.1164C24.9728 11.5591 26.6655 10.7863 28.6179 10.7982C29.9804 10.8064 31.0561 11.1688 31.845 11.8854C32.6338 12.602 33.0245 13.5704 33.0171 14.7906C33.0133 15.4211 32.9261 16.3866 32.7555 17.6871L31.797 24.8503L26.7941 24.82L27.658 18.1749C27.7436 17.4839 27.7871 17.0063 27.7887 16.7419C27.792 16.1928 27.6421 15.7648 27.3389 15.4579C27.0562 15.1308 26.6504 14.9656 26.1216 14.9624C25.3082 14.9575 24.7067 15.2081 24.3172 15.7142C23.9482 16.2 23.6786 17.0627 23.5084 18.3023L22.6759 24.7951L17.6425 24.7646L18.5702 17.6623C18.6342 17.1746 18.667 16.7883 18.6688 16.5036C18.6717 16.0155 18.5215 15.6282 18.2182 15.3417C17.9352 15.0552 17.5395 14.9105 17.0311 14.9074C15.6075 14.8988 14.7568 16.0122 14.4788 18.2476L13.6464 24.7404L8.613 24.7099L10.3734 11.0843ZM36.329 11.2414L41.3624 11.2719L39.602 24.8976L34.5686 24.8671L36.329 11.2414ZM37.3887 7.52609C36.8633 6.97379 36.6028 6.32141 36.6074 5.56895C36.612 4.81649 36.8802 4.17748 37.4122 3.65192C37.9646 3.10615 38.617 2.83555 39.3695 2.8401C40.122 2.84466 40.7609 3.12309 41.2863 3.67538C41.8322 4.20746 42.1029 4.84974 42.0983 5.6022C42.0938 6.35466 41.8153 7.00377 41.2629 7.54954C40.7309 8.0751 40.0887 8.3356 39.3362 8.33104C38.5838 8.32649 37.9346 8.05817 37.3887 7.52609ZM53.6707 11.3464L58.7041 11.3769L56.9437 25.0026L51.9104 24.9721L52.2855 23.4796C51.5084 24.1867 50.7732 24.6805 50.0801 24.961C49.387 25.2212 48.5727 25.3485 47.6373 25.3428C45.9086 25.3324 44.5292 24.7444 43.4991 23.5789C42.4893 22.4136 41.9903 20.8445 42.0023 18.8719C42.0162 16.5738 42.709 14.6764 44.0806 13.1798C45.4524 11.6628 47.1654 10.9105 49.2194 10.9229C50.1752 10.9287 50.9675 11.0759 51.5962 11.3644C52.225 11.6326 52.9032 12.1451 53.6308 12.902L53.6707 11.3464ZM49.8575 21.421C50.7726 21.4265 51.5272 21.0853 52.1211 20.3974C52.7355 19.6894 53.0459 18.8065 53.0523 17.749C53.0576 16.8746 52.8178 16.1816 52.3328 15.6702C51.8478 15.1589 51.1985 14.9007 50.3851 14.8958C49.4699 14.8903 48.695 15.2415 48.0602 15.9494C47.4459 16.6372 47.1356 17.4997 47.1293 18.5368C47.1241 19.4113 47.3638 20.1144 47.8487 20.6461C48.3541 21.1576 49.0236 21.4159 49.8575 21.421ZM67.84 20.5841L76.9611 20.6394L76.3849 25.1203L58.7834 25.0137L69.9223 9.21789L61.8994 9.16931L62.4757 4.68837L78.8265 4.78737L67.84 20.5841ZM89.108 11.561L94.1414 11.5915L92.381 25.2172L87.3477 25.1867L87.7228 23.6942C86.9457 24.4013 86.2105 24.8951 85.5174 25.1756C84.8243 25.4358 84.01 25.5631 83.0745 25.5574C81.3459 25.5469 79.9665 24.959 78.9364 23.7935C77.9265 22.6281 77.4276 21.0591 77.4395 19.0864C77.4535 16.7884 78.1463 14.891 79.5179 13.3943C80.8897 11.8773 82.6027 11.1251 84.6567 11.1375C85.6125 11.1433 86.4048 11.2904 87.0335 11.579C87.6623 11.8472 88.3405 12.3597 89.0681 13.1166L89.108 11.561ZM85.2947 21.6355C86.2099 21.6411 86.9645 21.2999 87.5584 20.612C88.1728 19.9039 88.4832 19.0211 88.4896 17.9636C88.4949 17.0891 88.2551 16.3962 87.7701 15.8848C87.2851 15.3734 86.6358 15.1153 85.8224 15.1104C84.9072 15.1048 84.1323 15.456 83.4975 16.164C82.8832 16.8518 82.5729 17.7142 82.5666 18.7514C82.5613 19.6259 82.8011 20.329 83.286 20.8607C83.7914 21.3722 84.4609 21.6305 85.2947 21.6355ZM96.8962 11.6082L101.93 11.6387L100.169 25.2643L95.1358 25.2339L96.8962 11.6082ZM97.9559 7.89283C97.4304 7.34053 97.17 6.68815 97.1746 5.93569C97.1791 5.18323 97.4474 4.54422 97.9793 4.01866C98.5317 3.47289 99.1842 3.20229 99.9366 3.20684C100.689 3.2114 101.328 3.48983 101.853 4.04212C102.399 4.5742 102.67 5.21648 102.665 5.96894C102.661 6.7214 102.382 7.37052 101.83 7.91628C101.298 8.44184 100.656 8.70234 99.9034 8.69778C99.1509 8.69323 98.5018 8.42491 97.9559 7.89283ZM104.263 11.6528L109.296 11.6833L108.888 13.5112C109.625 12.7021 110.341 12.137 111.034 11.8158C111.748 11.4744 112.563 11.3065 113.478 11.312C114.494 11.3182 115.297 11.4959 115.884 11.8452C116.472 12.1945 116.987 12.8077 117.429 13.6849C118.862 12.1276 120.555 11.3549 122.507 11.3667C123.87 11.3749 124.945 11.7373 125.734 12.4539C126.523 13.1705 126.914 14.1389 126.906 15.3591C126.903 15.9896 126.815 16.9551 126.645 18.2557L125.686 25.4188L120.683 25.3885L121.547 18.7434C121.633 18.0524 121.676 17.5748 121.678 17.3104C121.681 16.7613 121.531 16.3333 121.228 16.0264C120.945 15.6993 120.54 15.5341 120.011 15.5309C119.198 15.526 118.596 15.7766 118.207 16.2827C117.838 16.7685 117.568 17.6312 117.398 18.8708L116.565 25.3636L111.532 25.3331L112.46 18.2308C112.524 17.7431 112.556 17.3568 112.558 17.0721C112.561 16.584 112.411 16.1967 112.108 15.9102C111.825 15.6237 111.429 15.479 110.92 15.4759C109.497 15.4673 108.646 16.5807 108.368 18.8161L107.536 25.3089L102.502 25.2785L104.263 11.6528Z" fill="#E83F44"/>
</g>
<path d="M131.672 19.7209C132.567 19.7263 133.318 20.0257 133.924 20.6192C134.531 21.2127 134.832 21.9365 134.827 22.7906C134.821 23.6651 134.522 24.4056 133.928 25.0121C133.335 25.6187 132.611 25.9194 131.757 25.9142C130.903 25.909 130.162 25.5995 129.536 24.9855C128.929 24.3514 128.629 23.6174 128.634 22.7836C128.639 21.9295 128.938 21.2093 129.532 20.6231C130.125 20.0166 130.839 19.7158 131.672 19.7209ZM138.725 11.9235L143.759 11.9539L143.351 13.8124C144.148 13.1054 144.863 12.6216 145.495 12.361C146.147 12.1006 146.951 11.9733 147.907 11.9791C147.989 11.9796 148.314 12.0019 148.883 12.046L148.306 16.6794C147.556 16.2682 146.794 16.0602 146.022 16.0555C144.984 16.0492 144.22 16.3293 143.729 16.8958C143.258 17.442 142.926 18.4061 142.735 19.7879L141.998 25.5796L136.965 25.5491L138.725 11.9235ZM159.75 12.0508L164.753 12.0811L163.855 19.2751C163.514 21.8763 162.822 23.6008 161.78 24.4486C160.492 25.5391 158.567 26.0765 156.005 26.061C153.829 26.0478 152.143 25.58 150.949 24.6576C149.775 23.715 149.193 22.3793 149.204 20.6507C149.207 20.0813 149.252 19.4613 149.337 18.7906L150.233 11.9931L155.235 12.0234L154.403 18.5162C154.296 19.4308 154.242 19.9592 154.241 20.1016C154.234 21.2811 154.911 21.875 156.274 21.8833C157.067 21.8881 157.658 21.6883 158.047 21.2839C158.436 20.8591 158.694 20.1489 158.822 19.1531L159.75 12.0508Z" fill="#B5B4C4"/>
</g>
<defs>
<clipPath id="clip0_1161_1533">
<rect width="166" height="29.2335" fill="white"/>
</clipPath>
</defs>
</svg>
