<svg width="636" height="464" viewBox="0 0 636 464" fill="none" xmlns="http://www.w3.org/2000/svg">
<g clip-path="url(#clip0_26_910)">
<rect width="636" height="464" rx="8" fill="white"/>
<path opacity="0.03" d="M-149 633L215.792 268.887L371.146 423.97L846 -50" stroke="#1E2033" stroke-width="150"/>
<path opacity="0.12" d="M43.952 146.646V57.0465H82.48C92.208 57.0465 99.8453 59.0091 105.392 62.9345C110.939 66.8598 113.712 72.5771 113.712 80.0865C113.712 87.4251 111.067 93.0571 105.776 96.9825C100.485 100.822 93.5307 102.742 84.912 102.742L87.216 98.9025C97.2 98.9025 104.837 100.908 110.128 104.918C115.504 108.844 118.192 114.604 118.192 122.198C118.192 129.878 115.376 135.894 109.744 140.246C104.197 144.513 95.92 146.646 84.912 146.646H43.952ZM56.624 136.534H84.656C91.4827 136.534 96.6027 135.297 100.016 132.822C103.515 130.262 105.264 126.38 105.264 121.174C105.264 115.969 103.515 112.172 100.016 109.782C96.6027 107.393 91.4827 106.198 84.656 106.198H56.624V136.534ZM56.624 96.4705H81.584C87.8133 96.4705 92.5493 95.2331 95.792 92.7585C99.12 90.2838 100.784 86.6571 100.784 81.8785C100.784 77.0145 99.12 73.3451 95.792 70.8705C92.5493 68.3958 87.8133 67.1585 81.584 67.1585H56.624V96.4705ZM173.241 147.67C166.414 147.67 160.1 146.561 154.297 144.342C148.58 142.038 143.588 138.838 139.321 134.742C135.14 130.561 131.854 125.697 129.465 120.15C127.076 114.604 125.881 108.502 125.881 101.846C125.881 95.1905 127.076 89.0891 129.465 83.5425C131.854 77.9958 135.182 73.1745 139.449 69.0785C143.716 64.8971 148.708 61.6971 154.425 59.4785C160.228 57.1745 166.542 56.0225 173.369 56.0225C180.281 56.0225 186.638 57.2172 192.441 59.6065C198.329 61.9105 203.321 65.3665 207.417 69.9745L199.097 78.0385C195.684 74.4545 191.844 71.8091 187.577 70.1025C183.31 68.3105 178.745 67.4145 173.881 67.4145C168.846 67.4145 164.153 68.2678 159.801 69.9745C155.534 71.6811 151.822 74.0705 148.665 77.1425C145.508 80.2145 143.033 83.8838 141.241 88.1505C139.534 92.3318 138.681 96.8971 138.681 101.846C138.681 106.796 139.534 111.404 141.241 115.67C143.033 119.852 145.508 123.478 148.665 126.55C151.822 129.622 155.534 132.012 159.801 133.718C164.153 135.425 168.846 136.278 173.881 136.278C178.745 136.278 183.31 135.425 187.577 133.718C191.844 131.926 195.684 129.196 199.097 125.526L207.417 133.59C203.321 138.198 198.329 141.697 192.441 144.086C186.638 146.476 180.238 147.67 173.241 147.67ZM269.647 146.646V117.462L272.975 120.534H244.943C237.69 120.534 231.418 119.297 226.127 116.822C220.922 114.348 216.911 110.806 214.095 106.198C211.364 101.505 209.999 95.8731 209.999 89.3025C209.999 82.4758 211.492 76.6731 214.479 71.8945C217.466 67.0305 221.69 63.3611 227.151 60.8865C232.612 58.3265 238.97 57.0465 246.223 57.0465H282.191V146.646H269.647ZM209.999 146.646L232.143 114.902H245.199L223.567 146.646H209.999ZM269.647 113.366V64.4705L272.975 68.1825H246.735C239.055 68.1825 233.167 69.9745 229.071 73.5585C224.975 77.0571 222.927 82.2625 222.927 89.1745C222.927 95.7451 224.847 100.822 228.687 104.406C232.612 107.99 238.372 109.782 245.967 109.782H272.975L269.647 113.366ZM43.952 246.646V157.046H78.896C86.7467 157.046 93.4453 158.284 98.992 160.758C104.539 163.233 108.805 166.817 111.792 171.51C114.779 176.204 116.272 181.793 116.272 188.278C116.272 194.764 114.779 200.353 111.792 205.046C108.805 209.654 104.539 213.238 98.992 215.798C93.4453 218.273 86.7467 219.51 78.896 219.51H50.992L56.752 213.494V246.646H43.952ZM56.752 214.774L50.992 208.374H78.512C86.704 208.374 92.8907 206.625 97.072 203.126C101.339 199.628 103.472 194.678 103.472 188.278C103.472 181.878 101.339 176.929 97.072 173.43C92.8907 169.932 86.704 168.182 78.512 168.182H50.992L56.752 161.782V214.774ZM169.247 247.67C162.42 247.67 156.063 246.518 150.175 244.214C144.372 241.91 139.338 238.71 135.071 234.614C130.804 230.433 127.476 225.569 125.087 220.022C122.698 214.476 121.503 208.417 121.503 201.846C121.503 195.276 122.698 189.217 125.087 183.67C127.476 178.124 130.804 173.302 135.071 169.206C139.338 165.025 144.372 161.782 150.175 159.478C155.978 157.174 162.335 156.022 169.247 156.022C176.074 156.022 182.346 157.174 188.063 159.478C193.866 161.697 198.9 164.897 203.167 169.078C207.519 173.174 210.847 177.996 213.151 183.542C215.54 189.089 216.735 195.19 216.735 201.846C216.735 208.502 215.54 214.604 213.151 220.15C210.847 225.697 207.519 230.561 203.167 234.742C198.9 238.838 193.866 242.038 188.063 244.342C182.346 246.561 176.074 247.67 169.247 247.67ZM169.247 236.278C174.196 236.278 178.762 235.425 182.943 233.718C187.21 232.012 190.879 229.622 193.951 226.55C197.108 223.393 199.54 219.724 201.247 215.542C203.039 211.361 203.935 206.796 203.935 201.846C203.935 196.897 203.039 192.332 201.247 188.15C199.54 183.969 197.108 180.342 193.951 177.27C190.879 174.113 187.21 171.681 182.943 169.974C178.762 168.268 174.196 167.414 169.247 167.414C164.212 167.414 159.562 168.268 155.295 169.974C151.114 171.681 147.444 174.113 144.287 177.27C141.13 180.342 138.655 183.969 136.863 188.15C135.156 192.332 134.303 196.897 134.303 201.846C134.303 206.796 135.156 211.361 136.863 215.542C138.655 219.724 141.13 223.393 144.287 226.55C147.444 229.622 151.114 232.012 155.295 233.718C159.562 235.425 164.212 236.278 169.247 236.278ZM271.091 247.67C264.264 247.67 257.95 246.561 252.147 244.342C246.43 242.038 241.438 238.838 237.171 234.742C232.99 230.561 229.704 225.697 227.315 220.15C224.926 214.604 223.731 208.502 223.731 201.846C223.731 195.19 224.926 189.089 227.315 183.542C229.704 177.996 233.032 173.174 237.299 169.078C241.566 164.897 246.558 161.697 252.275 159.478C258.078 157.174 264.392 156.022 271.219 156.022C278.131 156.022 284.488 157.217 290.291 159.606C296.179 161.91 301.171 165.366 305.267 169.974L296.947 178.038C293.534 174.454 289.694 171.809 285.427 170.102C281.16 168.31 276.595 167.414 271.731 167.414C266.696 167.414 262.003 168.268 257.651 169.974C253.384 171.681 249.672 174.07 246.515 177.142C243.358 180.214 240.883 183.884 239.091 188.15C237.384 192.332 236.531 196.897 236.531 201.846C236.531 206.796 237.384 211.404 239.091 215.67C240.883 219.852 243.358 223.478 246.515 226.55C249.672 229.622 253.384 232.012 257.651 233.718C262.003 235.425 266.696 236.278 271.731 236.278C276.595 236.278 281.16 235.425 285.427 233.718C289.694 231.926 293.534 229.196 296.947 225.526L305.267 233.59C301.171 238.198 296.179 241.697 290.291 244.086C284.488 246.476 278.088 247.67 271.091 247.67ZM354.691 247.67C347.864 247.67 341.55 246.561 335.747 244.342C330.03 242.038 325.038 238.838 320.771 234.742C316.59 230.561 313.304 225.697 310.915 220.15C308.526 214.604 307.331 208.502 307.331 201.846C307.331 195.19 308.526 189.089 310.915 183.542C313.304 177.996 316.632 173.174 320.899 169.078C325.166 164.897 330.158 161.697 335.875 159.478C341.678 157.174 347.992 156.022 354.819 156.022C361.731 156.022 368.088 157.217 373.891 159.606C379.779 161.91 384.771 165.366 388.867 169.974L380.547 178.038C377.134 174.454 373.294 171.809 369.027 170.102C364.76 168.31 360.195 167.414 355.331 167.414C350.296 167.414 345.603 168.268 341.251 169.974C336.984 171.681 333.272 174.07 330.115 177.142C326.958 180.214 324.483 183.884 322.691 188.15C320.984 192.332 320.131 196.897 320.131 201.846C320.131 206.796 320.984 211.404 322.691 215.67C324.483 219.852 326.958 223.478 330.115 226.55C333.272 229.622 336.984 232.012 341.251 233.718C345.603 235.425 350.296 236.278 355.331 236.278C360.195 236.278 364.76 235.425 369.027 233.718C373.294 231.926 377.134 229.196 380.547 225.526L388.867 233.59C384.771 238.198 379.779 241.697 373.891 244.086C368.088 246.476 361.688 247.67 354.691 247.67ZM400.102 246.646V157.046H412.774V226.166L465.766 157.046H477.542V246.646H464.998V177.654L411.878 246.646H400.102ZM552.197 246.646V217.462L555.525 220.534H527.493C520.24 220.534 513.968 219.297 508.677 216.822C503.472 214.348 499.461 210.806 496.645 206.198C493.914 201.505 492.549 195.873 492.549 189.302C492.549 182.476 494.042 176.673 497.029 171.894C500.016 167.03 504.24 163.361 509.701 160.886C515.162 158.326 521.52 157.046 528.773 157.046H564.741V246.646H552.197ZM492.549 246.646L514.693 214.902H527.749L506.117 246.646H492.549ZM552.197 213.366V164.47L555.525 168.182H529.285C521.605 168.182 515.717 169.974 511.621 173.558C507.525 177.057 505.477 182.262 505.477 189.174C505.477 195.745 507.397 200.822 511.237 204.406C515.162 207.99 520.922 209.782 528.517 209.782H555.525L552.197 213.366Z" fill="#1E2033"/>
<path d="M566.232 303.19L550.249 285.48L531.148 281.494L523.616 292.797L512.638 292.322L509.41 255.641L522.754 232.737L533.786 228.188L522.97 204.158L530.61 189.434L539.112 193.548L556.222 220.916L565.639 226.372L598.623 232.908L572.204 196.579L556.331 197.877L545.354 190.082L545.406 170.034L532.654 144.268L516.35 136.342L509.894 126.599L518.932 116.51L503.221 108.63L500.315 121.057L479.547 138.637L472.498 155.786L475.242 164.708L456.194 180.642L450.922 192.291L438.868 193.113L423.64 203.941L426.061 212.86L412.072 228.233L401.955 219.399L390.387 227.108L362.514 231.828L362.066 232.517L358.803 215.761L348.364 216.368L315.432 227.971L308.276 238.582L294.556 239.489L287.4 246.205L274.269 247.242L265.876 238.97L245.589 255.858L208.302 240.067L157.399 230.829L148.844 234.251L158.852 217.277L158.786 217.088L164.986 229.315L181.076 229.012L176.823 201.516L164.502 200.736L134.262 219.05L131.68 225.808L108.112 230.095L97.5661 227.148L78.7869 237.455L81.7457 247.503L64.4196 277.857L72.3835 299.77L51.3983 305.008L38.377 306.135L40.259 325.36L56.7797 348.571L60.6533 361.692L73.6199 342.854L80.4545 341.34L91.9702 343.504L92.4538 324.883L104.506 319.818L134.783 324.342L163.198 348.191L180.051 336.576L223.691 343.245L233.161 357.707L245.429 356.106L261.841 379.704L283.633 383.082L300.96 393.607L325.011 383.993L355.842 387.846L361.976 372.43L379.895 374.681L389.689 380.312L411.586 376.416L429.291 376.717L444.194 364.288L463.888 361.692L467.493 354.2L468.731 331.984L486.219 325.836L508.065 336.748L526.036 332.375L533.624 336.576L544.277 322.935L551.757 331.725L558.913 354.459L568.059 351.601L572.957 341.037L566.232 303.19Z" fill="#F4555A"/>
</g>
<defs>
<clipPath id="clip0_26_910">
<rect width="636" height="464" rx="8" fill="white"/>
</clipPath>
</defs>
</svg>
