<svg width="160" height="50" viewBox="0 0 160 50" fill="none" xmlns="http://www.w3.org/2000/svg">
<path fill-rule="evenodd" clip-rule="evenodd" d="M141.642 37.3557C139.039 37.3557 137.738 36.209 137.738 33.9059C137.738 33.0701 137.966 31.7401 138.423 29.9057C138.882 28.0767 139.11 26.813 139.11 26.1148C139.11 25.0703 138.743 24.5459 138.007 24.5459C137.274 24.5459 136.618 25.1315 136.039 26.2938C135.871 26.624 135.734 26.9813 135.622 27.3686L133.552 37.1765H129.16L131.392 26.624C131.453 26.3851 131.484 26.1303 131.484 25.8601C131.484 24.9686 131.184 24.5207 130.584 24.5207C129.983 24.5207 129.47 24.8005 129.048 25.3607C128.626 25.9213 128.306 26.5938 128.087 27.3688L126.017 37.1767H121.619L122.331 33.8117C120.355 36.1738 118.057 37.3559 115.437 37.3559C113.987 37.3559 112.834 36.9786 111.969 36.2296C111.529 35.8457 111.202 35.3365 110.985 34.7005C110.294 35.7021 109.44 36.4323 108.425 36.8917C107.917 37.1217 107.429 37.2948 106.961 37.4169L106.503 39.6232C106.112 41.5848 105.339 43.0015 104.18 43.8632C103.325 44.5003 102.344 44.8209 101.242 44.8209C100.143 44.8209 99.2581 44.5757 98.5927 44.0869C97.9262 43.6028 97.5952 42.8188 97.5952 41.7434C97.5952 39.8838 99.2535 38.4005 102.568 37.2951L102.94 35.6542C101.887 36.7907 100.667 37.3563 99.2781 37.3563C98.3633 37.3563 97.5904 37.0711 96.9545 36.4901C96.5233 36.0919 96.2393 35.524 96.1047 34.7878C95.1545 36.2696 94.0316 37.1057 92.7397 37.2951C92.4195 37.3357 92.0283 37.3563 91.5614 37.3563C91.0981 37.3563 90.6347 37.2592 90.1774 37.0601C88.9066 36.5198 88.2708 35.4707 88.2708 33.9065C88.2708 33.0707 88.5004 31.7407 88.9575 29.9063C89.415 28.0773 89.6441 26.8136 89.6441 26.1155C89.6441 25.0709 89.2731 24.5465 88.5402 24.5465C87.8041 24.5465 87.1479 25.1321 86.5722 26.2944C86.4045 26.6246 86.2629 26.9819 86.1564 27.3692L84.0866 37.1771H79.6887L80.036 35.5373C78.9354 36.7496 77.595 37.3561 76.0122 37.3561C74.2175 37.3561 73.2158 36.4234 73.0177 34.5484C71.6904 36.4234 70.1343 37.3561 68.3654 37.3561C66.5906 37.3561 65.3858 36.4842 64.7499 34.7419L64.7274 34.6778C63.6008 36.4638 62.2039 37.3559 60.5354 37.3559C59.295 37.3559 58.3695 37.0505 57.7643 36.4386C57.1593 35.8267 56.8541 35.0019 56.8541 33.9673C56.8541 33.4623 56.9149 32.9332 57.0374 32.393C57.1539 31.8532 57.2154 31.4036 57.2154 31.0576C57.2154 30.0794 56.8283 29.5951 56.0506 29.5951C55.6947 29.5951 55.3389 29.7323 54.9779 30.0132L54.0987 30.7263L52.7614 37.1769H48.3633L51.6279 21.8913H56.0206L54.7139 27.9494L56.6204 25.983L58.0793 24.3828C59.0404 23.349 59.8033 22.6296 60.3724 22.2173C60.9279 21.8261 61.5672 21.6273 62.2808 21.6211H62.3149H62.3495C63.0639 21.6273 63.5864 21.8207 63.9266 22.1969C64.2677 22.5794 64.4404 23.0688 64.4404 23.6592C64.4404 24.2503 64.2725 24.7292 63.9468 25.0865C63.6164 25.443 63.1443 25.6211 62.5183 25.6211C61.8933 25.6211 61.4558 25.453 61.2064 25.1167C60.9677 24.7757 60.8508 24.5255 60.8508 24.3519V24.0567C60.271 24.4036 59.7581 24.8265 59.2999 25.3259L58.1664 26.579C57.8816 26.8957 57.5714 27.2211 57.2458 27.5473C57.6983 27.4707 58.1249 27.4301 58.527 27.4301C59.6252 27.4301 60.3881 27.6746 60.8045 28.169C61.2216 28.663 61.4304 29.3607 61.4304 30.2682C61.4304 30.5026 61.4097 30.7417 61.3689 30.9813L61.2372 31.7151C61.1147 32.4182 61.0589 32.9376 61.0589 33.264C61.0589 34.0232 61.466 34.4007 62.2797 34.4007C62.8945 34.4007 63.3679 34.1865 63.7033 33.7588C63.9214 33.4757 64.1572 33.0801 64.4093 32.5719C64.4112 31.7819 64.4829 30.9917 64.6181 30.1971C64.7554 29.3969 64.9685 28.5969 65.2587 27.8019C65.8945 26.049 66.8041 24.6021 67.9843 23.4609C69.1633 22.3142 70.5922 21.7438 72.2597 21.7438C73.1345 21.7438 73.7654 21.8915 74.151 22.1815C74.5374 22.4778 74.7308 22.8442 74.7308 23.2928V23.5167L75.0618 21.8915H79.4545L77.2631 32.2807C77.1768 32.6282 77.1308 32.9588 77.1308 33.2642C77.1308 34.1411 77.5481 34.5792 78.3812 34.5792C79.4529 34.5792 80.2693 33.6426 80.8337 31.7642L82.922 21.8915H87.3143L86.9891 23.4763C87.9812 22.3394 89.1697 21.774 90.5481 21.774C91.5247 21.774 92.3329 22.0392 92.9781 22.5796C93.6247 23.1142 93.945 23.909 93.945 24.9692C93.945 26.0238 93.7772 27.2157 93.4414 28.5511L92.7097 31.5069C92.5516 32.1538 92.4699 32.679 92.4699 33.0863C92.4699 33.9628 92.8412 34.4011 93.5893 34.4011C94.2752 34.4011 94.7999 34.1817 95.1649 33.744C95.5362 33.3057 95.8981 32.6226 96.2535 31.7003L98.3233 21.8917H102.715L100.529 32.2809C100.469 32.5409 100.438 32.8007 100.438 33.0555C100.438 33.9526 100.727 34.4011 101.312 34.4011C101.891 34.4011 102.386 34.1615 102.792 33.6826C103.188 33.1984 103.504 32.6026 103.733 31.8944L105.863 21.8917H110.257L107.231 36.0719C108.156 35.7661 108.919 35.2923 109.519 34.6607C109.946 34.2105 110.332 33.5798 110.676 32.7707C110.674 32.6836 110.673 32.5944 110.673 32.5055C110.673 30.1669 111.262 27.9094 112.448 25.7286C113.338 24.0878 114.568 22.9059 116.124 22.1928C116.914 21.8159 117.73 21.6276 118.571 21.6217H118.611C121.056 21.6217 122.276 22.5492 122.276 24.399C122.276 25.1784 122.119 25.7442 121.798 26.1111C121.483 26.4732 121.127 26.6557 120.725 26.6557C120.329 26.6557 119.948 26.5338 119.581 26.2948C119.831 25.6369 119.952 25.0355 119.952 24.4907C119.952 23.6551 119.663 23.2376 119.084 23.2376C118.498 23.2376 117.889 23.7617 117.242 24.8165C116.316 26.3096 115.682 28.1644 115.336 30.3861C115.234 31.0536 115.188 31.7821 115.188 32.5821C115.188 34.0544 115.885 34.7882 117.288 34.7882C118.457 34.7882 119.444 34.529 120.242 34.0036C121.038 33.4853 121.885 32.719 122.777 31.709L124.854 21.8919H129.247L128.922 23.4767C129.934 22.3194 131.174 21.7442 132.643 21.7442C134.443 21.7442 135.486 22.6203 135.775 24.3682C136.893 22.6361 138.313 21.7746 140.021 21.7746C140.981 21.7746 141.786 22.0398 142.431 22.5803C143.076 23.1148 143.402 23.9044 143.402 24.939C143.402 25.973 143.228 27.1653 142.893 28.5211L142.176 31.5073C142.018 32.1542 141.942 32.6794 141.942 33.0867C141.942 33.9632 142.313 34.4015 143.056 34.4015C143.743 34.4015 144.271 34.1821 144.637 33.7444C144.868 33.4682 145.096 33.0957 145.324 32.6278V32.6032C145.324 31.803 145.395 31.0028 145.532 30.198C145.669 29.3978 145.883 28.5978 146.173 27.8028C146.809 26.0498 147.719 24.603 148.898 23.4617C150.078 22.3151 151.507 21.7446 153.175 21.7446C154.048 21.7446 154.679 21.8923 155.066 22.1823C155.452 22.4786 155.645 22.8451 155.645 23.2936V23.5176L155.976 21.8923H160.368L158.178 32.2815C158.09 32.629 158.045 32.9596 158.045 33.2651C158.045 34.1419 158.461 34.5801 159.296 34.5801C160.378 34.5801 161.202 33.6219 161.767 31.7011H163.047C161.757 35.4717 159.718 37.3571 156.926 37.3571C155.132 37.3571 154.129 36.4244 153.931 34.5494C152.605 36.4244 151.048 37.3571 149.279 37.3571C147.505 37.3571 146.3 36.4853 145.664 34.743L145.646 34.6957C145.191 35.4253 144.69 36.0057 144.144 36.4342C143.351 37.0503 142.516 37.3557 141.642 37.3557ZM155.364 24.8005C155.364 24.6115 155.273 24.3723 155.101 24.0767C154.928 23.7861 154.557 23.6386 153.992 23.6386C153.428 23.6386 152.874 23.9394 152.34 24.5459C151.048 26.0128 150.239 28.1128 149.91 30.8488C149.858 31.2661 149.838 31.7096 149.838 32.1782C149.838 33.0803 150.026 33.7119 150.402 34.0742C150.621 34.2934 150.895 34.4003 151.221 34.4003C151.826 34.4003 152.381 34.1607 152.874 33.6763C153.371 33.1921 153.713 32.5348 153.901 31.6994L155.364 24.8005ZM74.451 24.8005C74.451 24.6115 74.3593 24.3723 74.1866 24.0767C74.0135 23.7861 73.6422 23.6386 73.0781 23.6386C72.5137 23.6386 71.9593 23.9394 71.4256 24.5459C70.1337 26.0128 69.326 28.1128 68.9956 30.8488C68.9447 31.2661 68.9241 31.7096 68.9241 32.1782C68.9241 33.0803 69.1124 33.7119 69.4885 34.0742C69.707 34.2934 69.982 34.4003 70.307 34.4003C70.9122 34.4003 71.4664 34.1607 71.9595 33.6763C72.4577 33.1921 72.7987 32.5348 72.9866 31.6994L74.451 24.8005ZM102.258 38.8328C100.269 39.5515 99.2777 40.4171 99.2777 41.4313C99.2777 41.8392 99.4718 42.1446 99.8585 42.3434C99.9847 42.3998 100.172 42.4301 100.422 42.4301C100.671 42.4301 100.961 42.2115 101.287 41.768C101.617 41.3242 101.877 40.6417 102.08 39.7144L102.258 38.8328Z" fill="#A9A9AA"/>
<path fill-rule="evenodd" clip-rule="evenodd" d="M25.5515 2.86621C31.2269 2.86621 36.3782 5.15871 40.1913 8.89225L37.5505 12.3364H43.0494C45.4307 15.8827 46.8313 20.1889 46.8313 24.8331C46.8313 30.2808 44.9067 35.2675 41.7267 39.1027L38.3184 36.3118V42.4077C34.7651 45.1658 30.3451 46.8002 25.5515 46.8002C20.2863 46.8002 15.4669 44.8239 11.7528 41.5506L14.3828 38.1275H8.61922C5.89568 34.4373 4.27734 29.8308 4.27734 24.8331C4.27734 19.9695 5.81276 15.47 8.40672 11.8329L11.5815 14.4308V8.271C15.3167 4.90704 20.2084 2.86621 25.5515 2.86621ZM36.0257 28.0739H34.4848C33.1259 29.6004 31.8651 30.7575 30.698 31.545C29.5307 32.3485 28.0317 32.7339 26.3042 32.7339C25.3236 32.7339 24.5767 32.4823 24.0165 31.9787C23.4978 31.4754 23.2176 30.436 23.2176 28.8452C23.2176 28.4914 23.2176 27.8702 23.3107 26.997C26.1173 26.831 28.5451 25.8081 30.6046 23.9652C32.659 22.1175 33.7328 19.8889 33.7328 17.2537C33.7328 15.9148 33.3594 14.8377 32.6123 14.0348C31.8188 13.231 30.418 12.8295 28.3117 12.8295C27.0513 12.8295 25.7905 13.1133 24.6234 13.7025C22.2838 14.7577 20.463 16.552 19.1555 19.0643C17.3763 22.3531 16.5359 25.76 16.5359 29.2791C16.5359 31.8985 17.1428 33.7733 18.4503 34.9143C19.7159 36.0389 21.4432 36.6066 23.5909 36.6066C28.4982 36.6064 32.6121 33.757 36.0257 28.0739ZM30.2311 16.9377C30.2311 15.8289 29.8576 15.277 29.1105 15.277C27.9846 15.3091 26.9109 16.3002 25.8838 18.2608C24.8567 20.2212 24.1563 22.4012 23.6842 24.7848C25.4171 24.6673 26.9109 23.8475 28.2651 22.321C29.5776 20.7783 30.2311 18.9837 30.2311 16.9377Z" fill="#3AC45B"/>
<path fill-rule="evenodd" clip-rule="evenodd" d="M38.2342 42.4188C36.6157 43.6725 34.8207 44.695 32.8909 45.4342L32.8859 45.4292L25.9395 36.3659C28.767 35.7763 31.3036 34.1379 33.5705 31.4434L38.2499 36.3015L38.2342 42.4082V42.4188Z" fill="#4AD96C"/>
<path fill-rule="evenodd" clip-rule="evenodd" d="M25.9371 36.3656L32.8885 45.4339C30.5802 46.3181 28.0848 46.8004 25.4804 46.8004C20.2152 46.8004 15.3958 44.8242 11.6816 41.5508L14.3066 38.1277H14.2962L17.6889 34.1533C17.8912 34.4375 18.1196 34.6889 18.3789 34.9142C19.6396 36.0387 21.3721 36.6064 23.52 36.6064C24.3498 36.6064 25.1537 36.5262 25.9371 36.3656Z" fill="#3AC45B"/>
<path fill-rule="evenodd" clip-rule="evenodd" d="M33.4459 29.1136L31.677 22.7715C31.3397 23.1892 30.9561 23.5856 30.5359 23.9656C28.4761 25.8086 26.0486 26.8315 23.242 26.9975C23.1484 27.8707 23.1484 28.4919 23.1484 28.8456C23.1484 30.4365 23.4286 31.4759 23.9424 31.9792C24.5024 32.4827 25.2497 32.7344 26.2351 32.7344C27.9626 32.7344 29.4568 32.349 30.6293 31.5454C31.5109 30.9452 32.4499 30.1365 33.4459 29.1136Z" fill="#2CB64D"/>
<path fill-rule="evenodd" clip-rule="evenodd" d="M14.3001 38.1279H8.54693C6.15526 34.8767 4.61464 30.9238 4.27734 26.6119L10.513 26.1621L16.4788 28.519C16.4734 28.7759 16.4684 29.0282 16.4684 29.2794C16.4684 31.3792 16.8573 33.0075 17.6926 34.1536L14.3001 38.1279Z" fill="#43CE64"/>
<path fill-rule="evenodd" clip-rule="evenodd" d="M11.4952 14.4307L10.5098 26.1615L16.4756 28.5184C16.5896 25.2669 17.4352 22.1173 19.0798 19.0642C19.5414 18.175 20.0708 17.3767 20.6621 16.6698L11.4952 14.4307Z" fill="#4ADA6C"/>
<path fill-rule="evenodd" clip-rule="evenodd" d="M4.27648 26.612C4.23503 26.028 4.20898 25.4335 4.20898 24.8337C4.20898 19.9701 5.7394 15.4814 8.33315 11.8389L11.4975 14.4314L10.5121 26.1622L4.27648 26.612Z" fill="#3AC45B"/>
<path fill-rule="evenodd" clip-rule="evenodd" d="M37.5605 12.2354L42.9816 12.337C44.8545 15.1279 46.1201 18.3845 46.5716 21.9093H41.2074L37.5605 12.2354Z" fill="#43CE64"/>
<path fill-rule="evenodd" clip-rule="evenodd" d="M11.4863 14.4143L11.5124 14.4305V8.27074C13.4832 6.49241 15.7817 5.08345 18.2976 4.15137L23.3245 14.3505C22.3284 14.9664 21.4411 15.7376 20.6632 16.6697L11.4965 14.4307L11.4863 14.4143Z" fill="#3AC45B"/>
<path fill-rule="evenodd" clip-rule="evenodd" d="M18.2988 4.15142L23.3257 14.3506C23.7147 14.1093 24.1245 13.8952 24.5499 13.7023C25.7224 13.1131 26.9832 12.8293 28.2434 12.8293C28.5392 12.8293 28.8195 12.8345 29.084 12.8506L32.3315 4.0285C30.1838 3.27309 27.8803 2.86621 25.4836 2.86621C22.9624 2.866 20.5399 3.32121 18.2988 4.15142Z" fill="#4ADA6C"/>
<path fill-rule="evenodd" clip-rule="evenodd" d="M32.3315 4.02832L29.084 12.8504C29.9917 12.9039 30.7442 13.0487 31.3509 13.2844L37.5607 12.2344L40.1234 8.89186C37.9184 6.73332 35.2677 5.05665 32.3315 4.02832Z" fill="#3AC45B"/>
<path fill-rule="evenodd" clip-rule="evenodd" d="M35.9407 28.0744L41.2064 21.9092H46.5705C46.6951 22.8679 46.7574 23.8427 46.7574 24.8338C46.7574 30.2815 44.8376 35.2681 41.6578 39.1033L38.2497 36.3125V36.3236L38.2341 36.3125L33.5703 31.449C34.4003 30.4636 35.1943 29.3386 35.9568 28.0744H35.9407Z" fill="#3AC45B"/>
<path fill-rule="evenodd" clip-rule="evenodd" d="M37.5594 12.2354L37.6996 12.337L41.2063 21.9093L35.9407 28.0745H34.4104L34.3948 28.0904L34.3794 28.1066L34.3638 28.1222L34.3482 28.1439L34.3377 28.1601L34.3223 28.176L34.3065 28.192L34.2913 28.2083L34.2859 28.2135L34.2754 28.2293L34.26 28.2458L34.2446 28.2618L34.2292 28.2776L34.2238 28.2829L34.2136 28.2937L34.1979 28.3095L34.1823 28.3314L34.1669 28.347L34.1619 28.3522L34.1513 28.3631C34.115 28.406 34.0734 28.4489 34.0319 28.4914V28.497L34.0167 28.5129L34.0009 28.5291L33.9698 28.5614L33.9544 28.5772L33.9388 28.5931L33.9232 28.6091L33.9077 28.6254L33.8973 28.641L33.8819 28.6572L33.8661 28.6733L33.8507 28.6897L33.8454 28.6945L33.835 28.7056L33.8196 28.7216L33.8038 28.7374L33.7884 28.7533L33.7832 28.7587L33.7727 28.7695L33.7573 28.786L33.7469 28.8016L33.7311 28.8176L33.7209 28.8285L33.7156 28.8339L33.6998 28.8499L33.6842 28.8656L33.6688 28.8816L33.6427 28.9085L33.6377 28.9141L33.6219 28.9299L33.6117 28.9458L33.5961 28.9568L33.5804 28.9729L33.565 28.9889L33.5494 29.0049L33.534 29.021L33.5184 29.037L33.5027 29.0526L33.4923 29.0687L33.4765 29.0851L33.4611 29.0958L33.4454 29.112L31.6765 22.7699C33.6529 20.3435 35.1265 14.762 31.3496 13.2835L37.5594 12.2354Z" fill="#4ADA6C"/>
</svg>
