<svg width="200" height="200" viewBox="0 0 200 200" fill="none" xmlns="http://www.w3.org/2000/svg">
<path d="M142.639 6.33594C143.191 7.92214 143.908 9.7789 145.26 10.8571C146.232 11.6328 147.476 12.1305 148.574 12.7084L147.484 13.1105C146.838 13.3847 146.12 13.6781 145.558 14.1015C144.051 15.2362 143.342 17.0031 142.663 18.697L142.519 18.528C142.294 17.816 141.997 17.1375 141.627 16.4894C140.408 14.3554 138.492 13.3201 136.19 12.6845C136.778 12.2135 137.918 11.9894 138.629 11.6154C140.79 10.4774 141.923 8.58865 142.639 6.33594Z" fill="#F3F1F0"/>
<path d="M19.0397 99.2725L19.0752 102.314C19.0747 102.658 19.1443 103.089 18.9643 103.381C19.1555 104.011 19.0669 104.721 19.0573 105.376L19.0206 108.933L19.0268 113.714C19.0287 114.349 19.1546 115.239 18.9677 115.827C19.1705 116.704 19.0058 117.797 18.9696 118.699L18.8175 118.855C19.0592 119.329 18.9717 119.935 18.9722 120.456C18.9727 121.247 19.0604 122.164 18.9191 122.94C19.0616 123.72 18.9817 124.602 18.977 125.397C18.9705 126.434 19.0316 127.529 18.9081 128.557L11.739 118.203L9.06383 114.421C8.5208 113.657 7.89719 112.881 7.45976 112.052C7.18609 111.532 7.08287 111.002 7.11505 110.417C7.15915 109.62 7.42257 108.817 7.91983 108.182C8.58087 107.339 9.8474 106.619 10.6977 105.953C13.4906 103.764 16.3881 101.631 19.0397 99.2725Z" fill="#1E2033"/>
<path d="M18.8155 118.855C19.0573 119.33 18.9698 119.935 18.9702 120.457C18.9707 121.248 19.0584 122.165 18.9171 122.941C18.2613 122.32 17.8136 121.659 17.5664 120.785C17.6694 119.944 18.2606 119.443 18.8155 118.855Z" fill="#2C3E6E"/>
<path d="M18.962 103.381C19.1531 104.011 19.0645 104.722 19.0549 105.376L19.0182 108.933L19.0244 113.714C19.0263 114.35 19.1522 115.239 18.9653 115.828L15.8206 118.522C15.7228 118.446 15.7066 118.438 15.6084 118.332C14.3037 116.932 13.2269 115.037 12.1309 113.458C11.6369 112.747 10.8338 111.87 10.523 111.071C10.4789 110.958 10.4879 110.592 10.5141 110.475C10.7213 109.555 12.529 108.394 13.2615 107.811L18.962 103.381Z" fill="#2C3E6E"/>
<path d="M60.0488 13.9203C63.087 13.7127 66.0804 14.5999 68.5112 16.4224C71.4075 18.594 73.146 21.7075 73.6011 25.2816C74.0309 28.6576 72.9537 32.0817 70.8788 34.7395C68.5383 37.7376 65.504 39.2744 61.7878 39.7376C58.137 39.7731 54.9496 38.9729 52.1128 36.5333C49.5161 34.3001 48.0253 30.993 47.7714 27.6025C47.5261 24.3264 48.769 20.9087 50.9047 18.4407C53.247 15.7339 56.4991 14.1696 60.0488 13.9203Z" fill="#FAA839"/>
<path d="M59.6814 16.173C62.173 15.8736 65.0124 16.6135 67.0317 18.1153C69.4165 19.8891 70.8652 22.4777 71.2633 25.4108C71.6189 28.0306 70.9748 31.0807 69.3428 33.1964C67.3531 35.7759 64.78 36.9857 61.6083 37.4207C59.2056 37.5902 56.6995 36.9969 54.6749 35.6836C52.2389 34.1034 50.7399 31.5975 50.1943 28.7748C49.6655 26.0401 50.1218 23.2553 51.6944 20.9232L51.7893 20.784L52.1092 20.3158C53.9121 17.936 56.7965 16.6094 59.6814 16.173Z" fill="#EB8720"/>
<path d="M59.921 17.3754C60.5611 17.3341 61.2817 17.3818 61.9172 17.4705C64.3693 17.8135 66.447 19.1511 67.9352 21.0965C69.3457 22.9399 70.2435 25.4587 69.9069 27.7936L69.8761 27.9944C69.6513 29.5431 68.9922 31.1706 68.0594 32.435C66.3733 34.7201 64.1592 35.7208 61.4352 36.1468C59.3356 36.2186 57.526 36.0183 55.7224 34.8414C53.58 33.4433 52.032 31.1353 51.4766 28.6499L51.376 28.2118C50.9228 26.078 51.6155 23.3063 52.8344 21.5163L52.93 21.3792C53.4783 20.578 54.2418 19.7351 55.032 19.1675L55.1701 19.0712C56.6685 18.0071 58.0886 17.5134 59.921 17.3754Z" fill="#FAA839"/>
<path d="M23.3631 79.1769C21.5977 77.7923 19.8239 76.1384 18.4641 74.3468C15.2905 70.165 13.9275 64.801 14.666 59.6028C15.3902 54.5059 18.2658 49.8884 22.3769 46.8126C26.3846 43.814 31.9552 42.4387 36.8968 43.1753C41.9806 43.9329 46.6922 46.7082 49.7163 50.8749C52.6413 54.9052 53.9956 59.864 53.6287 64.8291C53.5414 66.0105 53.2833 67.1817 53.0952 68.3507C52.4058 70.4831 51.5741 72.3205 50.4837 74.2776C49.5159 75.5361 48.3435 77.1103 46.9945 77.9761L41.0159 77.9566L29.1613 77.9003C28.2321 77.9273 27.219 77.8875 26.3072 78.0593C25.243 78.2598 24.3224 78.6901 23.3631 79.1769Z" fill="#EB8720"/>
<path d="M23.3631 79.1769C21.5977 77.7923 19.8239 76.1384 18.4641 74.3468C15.2905 70.165 13.9275 64.801 14.666 59.6028C15.3902 54.5059 18.2658 49.8884 22.3769 46.8126C26.3846 43.814 31.9552 42.4387 36.8968 43.1753C41.9806 43.9329 46.6922 46.7082 49.7163 50.8749C52.6413 54.9052 53.9956 59.864 53.6287 64.8291C53.5414 66.0105 53.2833 67.1817 53.0952 68.3507C52.4058 70.4831 51.5741 72.3205 50.4837 74.2776C49.5159 75.5361 48.3435 77.1103 46.9945 77.9761L41.0159 77.9566L40.9265 77.8155C41.5248 77.2121 42.5351 76.7723 43.2397 76.2584C47.0569 73.474 49.3924 69.8618 50.0975 65.1485C50.7512 60.7802 49.6632 56.634 47.0841 53.0837C46.4369 52.1929 45.6534 51.3509 44.7914 50.662L44.219 50.21C40.9331 47.732 36.0053 46.316 31.9058 46.963C27.7985 47.6114 23.5762 50.0782 21.1664 53.5028L21.0298 53.699C18.9128 56.6981 17.9306 60.5511 18.4486 64.2024C19.1254 68.9715 21.561 72.9567 25.5448 75.6705C26.1551 76.0862 26.7932 76.5053 27.439 76.8624C28.0002 77.1728 28.5921 77.4176 29.0865 77.8345L29.1613 77.9003C28.2321 77.9273 27.219 77.8875 26.3072 78.0593C25.243 78.2598 24.3224 78.6901 23.3631 79.1769Z" fill="#FAA839"/>
<path d="M33.4435 49.0802C36.7735 48.8619 40.2544 50.0574 42.8687 52.1106C45.5555 54.2205 47.2717 57.8244 47.6495 61.1782C48.0443 64.685 47.0564 68.6848 44.8118 71.4425C42.2344 74.6087 38.9254 75.9438 34.9508 76.3372C31.7491 76.2893 28.7641 75.5035 26.2394 73.4775C23.2338 71.0653 21.0703 67.4891 20.6994 63.6178C20.3787 60.2723 21.3761 56.786 23.5578 54.2098C26.1993 51.0908 29.3903 49.4023 33.4435 49.0802Z" fill="#FAA839"/>
<path d="M20.2523 155.332C21.9105 157.12 23.5222 158.068 25.9954 158.186L32.4232 158.195L45.0863 158.179L85.0662 158.099L102.847 158.115L107.859 158.147C108.654 158.152 109.615 158.262 110.39 158.104L110.468 158.089C110.877 158.441 111.262 158.722 111.796 158.85C112.517 159.022 113.431 158.927 114.173 158.929L118.93 158.924L132.036 158.923L134.772 158.93C135.526 158.884 135.887 158.479 136.364 157.941L153.859 158.011L158.784 158.031C159.596 158.042 160.51 158.147 161.313 158.048C161.501 158.054 161.963 158.357 162.146 158.448C162.805 158.773 163.47 159.082 164.159 159.337C165.492 159.831 166.881 160.162 168.306 160.222C172.964 160.419 176.643 158.964 180.061 155.842L186.643 155.803C187.635 155.798 188.938 155.656 189.89 155.903L190.017 155.939C190.297 156.017 190.548 156.109 190.807 156.246C192.254 157.012 193.371 158.483 193.842 160.043L193.891 160.212C194.127 161.004 194.203 162.08 194.003 162.887L193.962 163.038C193.601 164.409 192.98 165.486 191.89 166.4C190.897 167.234 189.416 167.702 188.129 167.752L175.553 167.754L151.375 167.725L76.5676 167.734L31.529 167.736L17.8565 167.742C15.6458 167.745 13.2767 167.94 11.091 167.706C9.45473 167.531 7.97485 166.698 6.97388 165.389C6.03537 164.163 5.46397 162.456 5.6971 160.905L5.72762 160.714C5.82964 160.035 6.01415 159.446 6.34264 158.842C7.15338 157.35 8.59798 156.108 10.2257 155.614L10.3956 155.564C11.5451 155.22 12.9063 155.261 14.0984 155.274C16.1414 155.296 18.2124 155.427 20.2523 155.332Z" fill="#C61C32"/>
<path d="M110.072 134.347C110.109 133.536 110.152 132.986 110.782 132.406C111.031 132.178 111.433 131.906 111.772 131.836C112.6 131.665 113.651 131.773 114.501 131.774L120.459 131.791L130.689 131.796L135.126 131.905C135.649 132.136 136.062 132.404 136.288 132.955C136.743 134.068 136.531 135.871 136.533 137.08C136.534 137.732 136.616 138.491 136.349 139.095C136.114 139.624 135.702 139.947 135.214 140.229C135.48 140.704 135.614 141.034 135.636 141.582C136.197 142.113 136.462 142.528 136.494 143.312L136.491 145.312L153.275 145.106C153.307 146.762 153.556 148.344 154.17 149.891L154.356 150.454C155.892 153.632 158.124 156.392 161.312 158.049C160.509 158.147 159.595 158.042 158.783 158.032L153.858 158.011L136.363 157.941C135.886 158.479 135.525 158.884 134.771 158.93L132.035 158.923L118.929 158.924L114.172 158.93C113.43 158.928 112.516 159.022 111.795 158.85C111.26 158.722 110.876 158.442 110.467 158.089L110.389 158.105C109.614 158.262 108.653 158.153 107.858 158.147L102.846 158.115L85.065 158.099L45.0851 158.179L32.422 158.196L25.9942 158.186C23.521 158.069 21.9093 157.121 20.2511 155.332C19.3274 153.814 18.9925 152.594 18.9736 150.83L19.3345 150.345C20.4609 148.813 22.4035 147.505 24.219 146.967C25.6486 146.544 27.1654 146.644 28.6432 146.582L36.674 146.317C37.654 146.29 39.2881 146.373 40.1923 146.014C40.5294 145.88 40.8064 145.787 41.1666 145.701C42.195 145.695 47.9576 145.908 48.6549 145.573C48.9357 145.439 49.1095 145.204 49.2299 144.927C49.4466 144.428 49.321 144.143 49.1298 143.663L49.3081 143.384L61.653 139.038L65.813 137.453C66.6631 137.124 67.5415 136.711 68.4364 136.534C69.8653 136.252 71.5363 136.389 72.9955 136.386L80.6597 136.382L110.093 136.387L110.072 134.347Z" fill="#1E2033"/>
<path d="M154.171 149.891L154.357 150.453L150.148 150.449L150.029 150.205L150.148 149.933L154.171 149.891Z" fill="#4F6D8E"/>
<path d="M136.315 149.569C137.314 149.451 138.367 149.514 139.373 149.512L144.791 149.494L147.685 149.464C148.042 149.46 148.427 149.396 148.751 149.569L148.741 150.046L148.358 150.145L136.32 150.11C136.09 149.949 136.017 149.976 135.961 149.688L136.315 149.569Z" fill="#F3F1F0"/>
<path d="M133.119 141.198C134.024 141.229 134.805 141.184 135.637 141.582C136.197 142.113 136.462 142.528 136.495 143.312L136.491 145.312L136.495 147.398C136.495 147.514 136.536 147.884 136.495 147.982C136.411 148.185 136.102 148.539 135.938 148.711C135.059 149.636 134.345 149.512 133.162 149.502C131.952 149.492 130.621 149.561 129.424 149.411C130.44 149.232 131.647 149.358 132.686 149.36C133.075 149.052 133.59 148.643 133.708 148.132C133.843 147.543 133.786 146.776 133.792 146.168C133.808 144.5 133.947 142.704 133.119 141.198Z" fill="#EB8720"/>
<path d="M132.877 150.415C133.948 150.359 135.084 150.095 135.927 150.883C136.745 151.648 136.506 153.079 136.505 154.106C136.505 155.385 136.683 156.698 136.362 157.941C135.884 158.479 135.523 158.884 134.769 158.93L132.034 158.923C132.504 158.436 133.438 157.771 133.599 157.121C133.752 156.499 133.674 155.718 133.663 155.076C133.643 153.978 133.718 152.604 133.439 151.552C133.333 151.15 133.089 150.769 132.877 150.415Z" fill="#EB8720"/>
<path d="M122.613 141.15L133.119 141.198C133.947 142.703 133.808 144.5 133.792 146.168C133.785 146.775 133.843 147.542 133.708 148.131C133.59 148.642 133.075 149.051 132.686 149.36C131.647 149.358 130.44 149.232 129.424 149.41C128.617 149.538 127.602 149.424 126.773 149.421L120.487 149.397L120.649 149.271C121.262 148.822 121.834 148.383 122.242 147.725C123.163 146.242 123.008 142.851 122.613 141.15Z" fill="#F9982B"/>
<path d="M122.758 150.367L129.576 150.376C130.646 150.378 131.822 150.282 132.878 150.414C133.091 150.768 133.334 151.15 133.441 151.552C133.72 152.603 133.645 153.977 133.664 155.075C133.675 155.717 133.753 156.499 133.6 157.121C133.44 157.771 132.506 158.435 132.035 158.923L118.929 158.923C119.26 158.582 119.557 158.547 119.991 158.392C120.913 158.065 121.823 157.493 122.282 156.6L122.353 156.457C123.24 154.678 123.036 152.286 122.758 150.367Z" fill="#F9982B"/>
<path d="M120.487 149.397L114.463 149.411C113.597 149.414 112.466 149.547 111.628 149.356C110.98 149.209 110.5 148.477 110.168 147.96L110.119 144.475C110.112 143.891 110.034 143.205 110.151 142.638C110.215 142.331 110.416 142.046 110.629 141.822C110.93 141.507 111.334 141.261 111.767 141.186C112.776 141.013 114.019 141.147 115.055 141.146L122.614 141.15C123.009 142.852 123.164 146.242 122.242 147.726C121.834 148.383 121.262 148.823 120.65 149.271L120.487 149.397Z" fill="#FAA839"/>
<path d="M110.466 158.089C110.233 157.669 110.098 157.353 110.093 156.864L110.084 153.492C110.08 152.941 109.993 152.07 110.214 151.567C110.316 151.338 110.471 151.144 110.65 150.971C110.953 150.679 111.369 150.43 111.792 150.371C112.836 150.228 114.066 150.347 115.127 150.348L122.757 150.367C123.035 152.286 123.239 154.678 122.352 156.457L122.282 156.6C121.822 157.493 120.912 158.065 119.991 158.392C119.556 158.547 119.259 158.582 118.929 158.923L114.172 158.929C113.43 158.927 112.516 159.021 111.794 158.849C111.26 158.722 110.876 158.441 110.466 158.089Z" fill="#FAA839"/>
<path d="M110.072 134.347C110.109 133.536 110.152 132.986 110.782 132.406C111.031 132.178 111.433 131.906 111.771 131.836C112.6 131.665 113.651 131.773 114.501 131.774L120.459 131.791L130.689 131.796L135.126 131.905C135.649 132.136 136.062 132.404 136.287 132.955C136.743 134.068 136.531 135.871 136.533 137.08C136.534 137.732 136.616 138.491 136.348 139.095C136.114 139.624 135.701 139.947 135.214 140.229L132.509 140.237C130.664 140.425 128.671 140.283 126.811 140.286L117.747 140.237L117.665 140.253C116.346 140.348 114.946 140.255 113.619 140.25C113.067 140.247 112.221 140.343 111.702 140.212C111.478 140.155 111.018 139.771 110.85 139.605C109.947 138.713 110.098 137.552 110.093 136.387L110.072 134.347Z" fill="#F9982B"/>
<path d="M130.689 131.796L135.126 131.904C135.649 132.135 136.063 132.403 136.288 132.954C136.744 134.068 136.532 135.871 136.533 137.079C136.534 137.732 136.617 138.49 136.349 139.095C136.115 139.623 135.702 139.947 135.214 140.228L132.51 140.237C132.992 139.852 133.423 139.555 133.657 138.957C133.825 138.527 133.787 137.87 133.804 137.412C133.874 135.623 133.988 133.602 133.338 131.911L130.842 131.91L130.689 131.796Z" fill="#EB8720"/>
<path d="M110.072 134.347C110.109 133.536 110.152 132.986 110.782 132.406C111.031 132.178 111.433 131.906 111.771 131.836C112.6 131.665 113.651 131.773 114.501 131.774L120.459 131.791L120.685 131.845C121.25 131.971 121.905 131.914 122.484 131.909C122.953 133.585 123.333 136.329 122.461 137.909C122.235 138.319 121.897 138.697 121.521 138.974C121.107 139.28 119.872 139.67 119.807 140.157C119.148 140.17 118.393 140.124 117.747 140.237L117.665 140.253C116.346 140.348 114.946 140.255 113.619 140.25C113.067 140.247 112.221 140.343 111.702 140.212C111.478 140.155 111.018 139.771 110.85 139.605C109.947 138.713 110.098 137.552 110.093 136.387L110.072 134.347Z" fill="#FAA839"/>
<path d="M53.0944 68.3515L117.73 12.5776C118.785 11.7411 119.878 11.3334 121.229 11.532C121.892 11.6295 122.561 11.8627 123.072 12.3063C123.908 13.0322 124.604 13.9342 125.314 14.7793L128.356 18.3555L135.924 27.2326L140.77 32.9607L169.791 67.4742L182.447 82.659L185.627 86.4486C186.432 87.4202 187.327 88.4812 187.909 89.6033C188.456 90.6577 188.685 91.892 188.522 93.0732C188.384 94.0785 188.012 95.0115 187.383 95.8103C185.96 97.6158 183.888 99.1229 182.142 100.624L173.672 108.049C175.58 108.037 177.85 107.615 179.312 109.08C179.904 109.673 180.356 110.481 180.495 111.309L180.522 111.454C180.664 112.269 180.589 113.192 180.591 114.021L180.601 118.881L180.742 134.592C183.672 138.465 185.125 142.459 184.444 147.332C184 150.508 182.336 153.607 180.06 155.842C176.642 158.964 172.963 160.419 168.304 160.223C166.88 160.162 165.491 159.832 164.158 159.338C163.469 159.082 162.804 158.773 162.145 158.448C161.961 158.358 161.499 158.054 161.312 158.049C158.124 156.392 155.891 153.632 154.356 150.454L154.17 149.891C153.556 148.344 153.306 146.762 153.275 145.106L136.491 145.312L136.494 143.312C136.462 142.528 136.197 142.113 135.636 141.582C135.614 141.034 135.48 140.704 135.213 140.229C135.701 139.947 136.114 139.624 136.348 139.095C136.616 138.491 136.534 137.732 136.533 137.08C136.531 135.871 136.743 134.068 136.287 132.955C136.062 132.404 135.649 132.136 135.126 131.905L130.689 131.796L120.459 131.791L114.501 131.774C113.651 131.773 112.6 131.665 111.771 131.836C111.433 131.906 111.031 132.178 110.782 132.406C110.152 132.986 110.109 133.536 110.072 134.347L110.093 136.387L80.6596 136.382L72.9953 136.386C71.5362 136.389 69.8651 136.252 68.4362 136.534C67.5414 136.711 66.6629 137.124 65.8128 137.453L61.6528 139.038L49.3079 143.384L49.1296 143.663C49.3208 144.143 49.4464 144.428 49.2297 144.927C49.1094 145.204 48.9356 145.439 48.6548 145.573C47.9575 145.908 42.1948 145.695 41.1665 145.701C40.8063 145.787 40.5293 145.88 40.1922 146.014C39.288 146.373 37.6539 146.29 36.6739 146.317L28.643 146.582C27.1653 146.645 25.6484 146.544 24.2189 146.967C22.4033 147.505 20.4608 148.813 19.3344 150.345L18.9735 150.83L18.9065 128.558C19.03 127.529 18.969 126.435 18.9754 125.397C18.9802 124.603 19.06 123.721 18.9175 122.94C19.0588 122.165 18.9711 121.247 18.9706 120.457C18.9702 119.935 19.0576 119.33 18.8159 118.855L18.968 118.699C19.0042 117.798 19.169 116.704 18.9661 115.828C19.153 115.239 19.0271 114.35 19.0252 113.715L19.019 108.933L19.0557 105.377C19.0653 104.722 19.1539 104.011 18.9628 103.382C19.1427 103.09 19.0731 102.659 19.0736 102.314L19.0381 99.2731L19.0538 91.3311L19.0543 87.3649C19.0588 86.4981 19.0178 85.5806 19.2619 84.742L19.3213 84.551C19.9954 82.2452 21.3933 80.5166 23.3624 79.1777C24.3216 78.6909 25.2422 78.2606 26.3064 78.0601C27.2182 77.8882 28.2313 77.928 29.1605 77.9011L41.0151 77.9574L46.9937 77.9769C48.3427 77.1111 49.5151 75.5368 50.4829 74.2784C51.5733 72.3213 52.405 70.4838 53.0944 68.3515Z" fill="#1E2033"/>
<path d="M136.384 114.84C137.868 114.703 139.402 114.777 140.893 114.778C142.002 114.779 143.212 114.679 144.306 114.876C144.512 115.158 144.483 115.173 144.456 115.527C144.043 115.801 143.003 115.673 142.469 115.676L136.397 115.691L136.384 114.84Z" fill="#F3F1F0"/>
<path d="M145.089 115.004C145.186 114.973 145.215 114.959 145.329 114.946C146.084 114.86 146.96 114.942 147.727 114.944L152.625 114.949L168.034 114.955L171.073 114.957C171.36 114.957 171.891 114.882 172.137 114.957C172.215 114.981 172.27 115.052 172.336 115.099L172.316 115.588L172.016 115.64C169.945 115.804 167.72 115.635 165.636 115.631L152.357 115.63L146.927 115.64C146.489 115.641 145.663 115.756 145.26 115.643C145.177 115.62 145.125 115.535 145.058 115.481L145.089 115.004Z" fill="#AC95A8"/>
<path d="M133.011 113.578C134.074 113.598 134.843 113.526 135.696 114.261C135.906 114.442 136.138 114.711 136.383 114.841L136.397 115.692C136.492 117.125 136.872 120.227 135.886 121.332C135.431 121.843 134.839 121.8 134.209 121.809L132.881 121.776C133.139 121.11 133.538 120.548 133.747 119.852L133.803 119.653C134.105 118.634 134.066 117.26 133.921 116.21L133.892 116.018C133.76 115.065 133.47 114.411 133.011 113.578Z" fill="#EB8720"/>
<path d="M122.596 113.601L133.011 113.578C133.47 114.411 133.761 115.065 133.892 116.018L133.921 116.21C134.066 117.26 134.105 118.634 133.804 119.653L133.747 119.852C133.539 120.548 133.139 121.11 132.881 121.776L120.251 121.769C120.476 121.379 120.9 121.183 121.242 120.907C121.831 120.431 122.313 119.869 122.619 119.171C123.383 117.425 123.259 115.352 122.596 113.601Z" fill="#F9982B"/>
<path d="M120.107 130.911L113.838 130.929C113.305 130.931 112.033 131.066 111.582 130.858L111.425 130.755L110.96 130.432C110.395 129.966 110.124 129.439 110.085 128.711C110.01 127.334 109.693 124.463 110.668 123.458C111.032 123.082 111.547 122.822 112.059 122.726C112.972 122.554 114.154 122.681 115.091 122.681L122.41 122.709C123.041 123.727 122.918 125.276 122.92 126.447C122.922 127.078 122.951 127.785 122.785 128.399C122.54 129.304 121.698 130.027 120.884 130.43L120.633 130.536C120.389 130.637 120.293 130.729 120.107 130.911Z" fill="#FAA839"/>
<path d="M120.251 121.768L119.936 121.803C118.347 121.917 116.678 121.831 115.08 121.834C114.006 121.835 112.8 121.948 111.749 121.787C111.432 121.738 111.195 121.651 110.953 121.44C110.371 120.932 110.105 120.367 110.074 119.593L110.077 116.68C110.084 116.195 110.041 115.501 110.173 115.04C110.236 114.819 110.548 114.451 110.709 114.289C111.001 113.994 111.351 113.741 111.766 113.662C112.753 113.474 114.044 113.618 115.064 113.615L122.596 113.6C123.259 115.351 123.383 117.424 122.619 119.17C122.313 119.869 121.831 120.43 121.242 120.906C120.9 121.182 120.476 121.378 120.251 121.768Z" fill="#FAA839"/>
<path d="M133.32 122.713C134.338 122.708 135.344 122.505 136.111 123.305L136.21 123.417C136.675 124.822 136.503 126.635 136.498 128.116C136.497 128.623 136.58 129.329 136.382 129.79C136.152 130.327 135.643 130.671 135.123 130.888L128.208 130.892C127.507 131.008 126.59 130.901 125.86 130.902L120.106 130.911C120.292 130.729 120.388 130.637 120.632 130.536L120.884 130.43C121.697 130.027 122.54 129.304 122.785 128.399C122.951 127.785 122.921 127.078 122.92 126.447C122.917 125.276 123.04 123.727 122.409 122.709L133.32 122.713Z" fill="#F9982B"/>
<path d="M133.321 122.713C134.34 122.708 135.346 122.505 136.113 123.305L136.212 123.417C136.676 124.822 136.504 126.635 136.5 128.116C136.499 128.623 136.582 129.329 136.384 129.79C136.154 130.327 135.644 130.671 135.124 130.888L128.21 130.892C129.246 130.587 131.059 130.788 132.179 130.783C132.629 130.393 133.307 129.9 133.574 129.367C133.801 128.913 133.763 128.077 133.771 127.567C133.797 125.914 133.855 124.3 133.321 122.713Z" fill="#EB8720"/>
<path d="M126.436 79.9058C128.807 79.9613 130.559 80.1108 132.301 81.9253C133.147 82.8066 133.743 83.8987 133.954 85.1082C134.074 85.7976 134 86.5981 134.001 87.2982L134.007 91.5169L134.088 108.03L128.485 108.049L128.506 91.2297L128.498 86.4372C128.495 85.4124 128.551 84.3483 128.342 83.3401C128.054 81.9523 127.321 80.9673 126.436 79.9058Z" fill="#2E7D72"/>
<path d="M98.8574 113.918C100.968 113.89 102.918 114.459 104.624 115.726C106.438 117.073 107.826 119.074 108.127 121.344C108.442 123.716 107.747 126.125 106.262 127.995C104.669 130 102.537 130.942 100.042 131.207C98.9416 131.244 97.8779 131.144 96.8135 130.872C94.6812 130.325 92.6561 128.655 91.5648 126.758C90.4954 124.898 90.192 122.466 90.7731 120.392L90.832 120.189C91.1662 119.007 91.6745 118.008 92.4568 117.059C94.1045 115.062 96.3456 114.162 98.8574 113.918Z" fill="#F4555A"/>
<path d="M98.9883 77.9884L143.331 40.292L146.922 44.5836C147.962 45.7896 149.503 47.1944 150.211 48.6173L150.056 48.7257C148.823 49.5985 147.721 50.6531 146.559 51.6171L139.742 57.2758L123.514 71.014L117.866 75.8785C117.125 76.5171 116.379 77.3166 115.58 77.8656C115.277 78.0735 114.802 78.0089 114.449 78.0018L98.9883 77.9884Z" fill="#FAA839"/>
<path d="M136.211 123.417C136.743 123.174 137.417 123.243 137.998 123.227L141.258 123.102L156.34 122.01L168.127 120.832C170.673 120.538 173.356 120.038 175.904 120.046C176.503 120.332 177.099 120.715 177.343 121.366C177.758 122.471 177.513 124.385 177.51 125.608C177.503 127.664 177.622 129.812 177.454 131.857C173.648 129.58 169.571 128.856 165.229 129.935C161.213 130.933 157.654 133.234 155.513 136.836C153.967 139.437 153.287 142.089 153.275 145.106L136.491 145.312L136.494 143.313C136.461 142.528 136.196 142.114 135.636 141.582C135.614 141.035 135.479 140.704 135.213 140.229C135.701 139.948 136.114 139.624 136.348 139.095C136.616 138.491 136.533 137.732 136.532 137.08C136.53 135.871 136.742 134.069 136.287 132.955C136.062 132.404 135.648 132.136 135.125 131.905L135.123 130.888C135.643 130.671 136.153 130.328 136.383 129.791C136.581 129.329 136.497 128.624 136.499 128.116C136.503 126.635 136.675 124.822 136.211 123.417Z" fill="#2C3E6E"/>
<path d="M170.513 124.063C170.727 124.032 170.925 123.997 171.138 124.054C171.582 124.174 171.996 124.519 172.203 124.927C172.386 125.289 172.414 125.688 172.272 126.07C172.08 126.59 171.81 126.808 171.32 127.043C170.987 127.089 170.601 127.165 170.282 127.022C169.928 126.863 169.596 126.478 169.456 126.12C169.314 125.755 169.345 125.26 169.508 124.905C169.72 124.444 170.06 124.245 170.513 124.063Z" fill="#F3F1F0"/>
<path d="M153.275 145.106C153.288 142.088 153.968 139.437 155.514 136.835C157.654 133.233 161.214 130.933 165.229 129.935C169.572 128.855 173.649 129.58 177.454 131.856C178.601 132.702 179.763 133.552 180.742 134.592C183.672 138.464 185.125 142.459 184.444 147.332C184 150.507 182.336 153.607 180.06 155.842C176.642 158.964 172.963 160.419 168.304 160.222C166.88 160.162 165.491 159.831 164.158 159.337C163.469 159.082 162.804 158.773 162.145 158.448C161.962 158.357 161.5 158.054 161.312 158.048C158.124 156.392 155.892 153.632 154.356 150.454L154.17 149.891C153.556 148.344 153.307 146.762 153.275 145.106Z" fill="#FAA839"/>
<path d="M168.396 132.51L169.716 132.495C173.109 132.725 176.176 134.173 178.425 136.744C180.777 139.432 181.782 142.527 181.533 146.077C181.328 149.003 179.819 152.181 177.569 154.084L177.407 154.218C175.225 156.054 172.778 156.817 169.987 157.121L167.802 157.049C164.574 156.745 161.615 154.96 159.589 152.461C158.285 150.852 157.192 149.044 156.75 146.997L156.702 146.767L156.57 146.062C156.201 143.115 156.987 140.096 158.84 137.77C161.294 134.688 164.504 132.93 168.396 132.51Z" fill="#EB8720"/>
<path d="M168.289 134.063C170.803 133.842 173.411 134.748 175.464 136.156C177.8 137.758 179.342 140.45 179.842 143.21C180.351 146.02 179.388 149.197 177.729 151.477C175.849 154.06 173.312 155.1 170.257 155.58C167.84 155.742 165.617 155.168 163.556 153.907C161.201 152.466 159.436 149.739 158.803 147.067L158.762 146.888C158.395 145.343 158.289 143.631 158.723 142.087L158.783 141.882C159.199 140.428 159.926 139.181 160.895 138.024C162.813 135.733 165.311 134.341 168.289 134.063Z" fill="#FAA839"/>
<path d="M67.0288 78.0001L129.728 24.3823C131.024 25.3323 132.148 27.0329 133.208 28.2715C134.444 29.7161 135.784 31.0825 136.93 32.6003L128.874 39.4939L104.149 60.4389L90.9498 71.6601L86.1612 75.7304C85.2384 76.5011 84.3273 77.3212 83.3273 77.9901L67.0288 78.0001Z" fill="#FAA839"/>
<path d="M126.438 79.9063C125.513 79.2257 124.556 78.518 123.417 78.2503C122.319 77.9926 121.004 78.118 119.874 78.1246L152.011 50.6367L171.629 73.8302L179.42 83.2139C181.3 85.4637 183.44 87.7498 185.047 90.1956C185.484 90.8602 185.702 91.5587 185.661 92.3582C185.581 93.9282 183.708 95.083 182.597 96.0103L172.136 104.939L169.611 107.127C169.315 107.378 168.879 107.827 168.53 107.985C168.187 108.14 167.212 108.029 166.813 108.03L161.103 108.031L134.09 108.03L134.009 91.5175L134.003 87.2988C134.002 86.5987 134.077 85.7982 133.956 85.1088C133.745 83.8992 133.149 82.8072 132.303 81.9259C130.561 80.1113 128.81 79.9619 126.438 79.9063Z" fill="#65AB8B"/>
<path d="M147.729 60.8642C148.959 60.7932 150.112 60.9669 151.221 61.5162C152.553 62.1763 153.693 63.5362 154.128 64.9613L154.175 65.1224L154.284 65.4977C154.673 67.0886 154.205 69.0183 153.299 70.3504C152.308 71.8093 150.904 72.4341 149.223 72.7471C148.353 72.7645 147.469 72.8191 146.622 72.581C145.101 72.1531 143.741 70.9488 143.009 69.5606C142.371 68.3478 142.081 66.7558 142.503 65.4235L142.565 65.2416C142.736 64.7212 142.951 64.2616 143.251 63.803C144.321 62.1727 145.838 61.2563 147.729 60.8642Z" fill="#2E7D72"/>
<path d="M167.169 82.1786C167.913 82.1521 168.596 82.1264 169.311 82.3843C171.074 83.0206 172.638 85.5689 173.805 87.0125C174.69 88.1072 175.787 89.2226 176.368 90.5175C176.751 91.3692 176.87 92.5084 176.494 93.3802C175.73 95.154 173.271 96.5981 171.81 97.8065C170.579 98.8239 169.387 99.9586 168.059 100.848C167.529 101.203 166.976 101.449 166.39 101.691C165.592 101.786 164.698 101.804 163.937 101.509C163.455 101.322 163.009 100.992 162.642 100.633C161.737 99.7448 160.944 98.5624 160.158 97.5667C159.132 96.2651 157.724 94.8474 157.069 93.3185C156.766 92.6128 156.794 91.6231 157.074 90.9189C157.297 90.3563 157.633 89.8915 158.049 89.4562C159.093 88.3649 160.37 87.474 161.53 86.5114C163.276 85.0628 165.092 83.1073 167.169 82.1786Z" fill="#2E7D72"/>
<path d="M50.4829 74.2785L50.5745 74.2184C51.091 73.8697 51.4527 73.4144 51.9127 73.0077L54.7757 70.5318L64.1516 62.2902L107.897 24.8215L116.447 17.3677C117.838 16.1665 119.256 14.7121 120.854 13.8115C122.303 14.9608 123.426 16.6473 124.607 18.0676C125.778 19.4753 127.068 20.8472 128.126 22.3387L106.979 40.2744L84.7002 59.3998L70.8859 71.1204L66.2131 75.0146C65.0264 75.9908 63.7623 76.9667 62.6972 78.0776L67.0295 78.0006L83.328 77.9906C85.0112 78.1732 86.7953 78.0454 88.4883 78.0223L95.6724 77.9784C96.6708 77.9742 98.0384 77.8028 98.9893 77.9887L114.45 78.0021L114.392 78.0895C113.858 78.9384 113.596 80.0826 113.193 81.0195C112.085 83.5935 110.977 86.1383 109.67 88.6203C104.645 98.163 98.0162 106.879 89.8628 113.965C87.7135 115.833 85.4 117.535 83.1156 119.233C83.9614 121.691 84.1948 123.982 83.0167 126.39C82.0295 128.408 80.1673 130.092 78.0354 130.801C76.1417 131.431 73.5941 131.309 71.7982 130.405L70.5826 129.732C69.2134 130.206 67.1473 130.69 66.0896 131.691C65.9316 132.024 65.8639 132.305 65.9783 132.671C66.1323 133.163 66.7604 133.655 67.2169 133.849C67.5712 133.999 67.9669 134.099 68.3509 134.125C70.4985 134.272 72.7219 134.167 74.8776 134.183L87.6687 134.268L100.936 134.284L110.072 134.347L110.093 136.387L80.6596 136.382L72.9953 136.386C71.5362 136.389 69.8651 136.252 68.4362 136.534C67.5414 136.711 66.6629 137.124 65.8128 137.453L61.6528 139.038L49.3079 143.384L49.1296 143.663C49.3208 144.143 49.4464 144.428 49.2297 144.927C49.1094 145.205 48.9356 145.439 48.6548 145.574C47.9575 145.908 42.1948 145.695 41.1665 145.702C40.8063 145.787 40.5293 145.88 40.1922 146.014C39.288 146.373 37.6539 146.29 36.6739 146.317L28.643 146.582C27.1653 146.645 25.6484 146.544 24.2189 146.967C22.4033 147.505 20.4608 148.813 19.3344 150.345L18.9735 150.83L18.9065 128.558C19.03 127.529 18.969 126.435 18.9754 125.398C18.9802 124.603 19.06 123.721 18.9175 122.941C19.0588 122.165 18.9711 121.248 18.9706 120.457C18.9702 119.935 19.0576 119.33 18.8159 118.855L18.968 118.699C19.0042 117.798 19.169 116.704 18.9661 115.828C19.153 115.239 19.0271 114.35 19.0252 113.715L19.019 108.933L19.0557 105.377C19.0653 104.722 19.1539 104.012 18.9628 103.382C19.1427 103.09 19.0731 102.659 19.0736 102.314L19.0381 99.2732L19.0538 91.3312L19.0543 87.365C19.0588 86.4982 19.0178 85.5807 19.2619 84.7421L19.3213 84.5511C19.9954 82.2453 21.3933 80.5168 23.3624 79.1778C24.3216 78.691 25.2422 78.2607 26.3064 78.0602C27.2182 77.8883 28.2313 77.9281 29.1605 77.9012L41.0151 77.9575L46.9937 77.977C48.3427 77.1112 49.5151 75.5369 50.4829 74.2785Z" fill="#27457A"/>
<path d="M46.9921 89.6898C47.3843 89.6789 47.7841 89.6593 48.1617 89.7837C48.889 90.0236 49.4172 90.5795 49.7157 91.2755C49.94 91.7985 49.9297 92.5464 49.7061 93.0727C49.3738 93.8548 48.8143 94.1764 48.0632 94.4973C47.6723 94.5049 47.2634 94.5233 46.8823 94.4231C46.2555 94.2582 45.7173 93.7993 45.42 93.2279C45.1087 92.63 45.0593 91.9433 45.2939 91.3101C45.6136 90.4464 46.1902 90.0567 46.9921 89.6898Z" fill="#F3F1F0"/>
<path d="M38.9322 89.688C39.2633 89.688 39.6347 89.7216 39.9532 89.8103C40.6047 89.9917 41.204 90.6203 41.4726 91.2256C41.7575 91.8673 41.7268 92.5147 41.4633 93.1557C41.1518 93.915 40.5363 94.259 39.819 94.5481C39.4268 94.5672 39.0345 94.5939 38.6578 94.4618C37.9765 94.223 37.3906 93.6802 37.1033 93.0158C36.8614 92.4561 36.8993 91.6277 37.1644 91.0868C37.561 90.278 38.0931 89.9469 38.9322 89.688Z" fill="#F3F1F0"/>
<path d="M55.2306 89.6864C55.608 89.675 56.0314 89.6268 56.3966 89.7365C57.0664 89.9377 57.6235 90.5205 57.8931 91.1515C58.1558 91.7672 58.1451 92.5353 57.8865 93.1511C57.5477 93.9573 56.9146 94.251 56.137 94.5389C55.7377 94.5561 55.3148 94.5239 54.9334 94.3959C54.3164 94.1892 53.7608 93.6841 53.5036 93.0843C53.2375 92.4643 53.2435 91.7944 53.5107 91.1744C53.8495 90.3887 54.4826 90.0034 55.2306 89.6864Z" fill="#F3F1F0"/>
<path d="M30.4377 89.6952C30.91 89.6597 31.3607 89.6793 31.8122 89.8392C32.4776 90.0747 33.0113 90.6619 33.2742 91.3072C33.4778 91.8063 33.4761 92.5739 33.2585 93.0731C32.9264 93.8352 32.3395 94.1716 31.6029 94.4757C31.182 94.5086 30.7529 94.5497 30.3405 94.4362C29.6823 94.2555 29.1819 93.8095 28.8656 93.2126C28.5774 92.6686 28.5133 91.891 28.7254 91.3064C29.0365 90.4502 29.6549 90.0697 30.4377 89.6952Z" fill="#F3F1F0"/>
<path d="M41.1668 145.701L32.8072 145.699C31.6825 145.697 30.4601 145.793 29.3449 145.679C29.1013 145.654 28.8574 145.564 28.6662 145.409C28.3861 145.182 28.1685 144.806 28.1516 144.445C28.1354 144.1 28.2376 143.858 28.4605 143.599C28.7327 143.282 29.0615 143.185 29.4679 143.163C30.7333 143.092 32.0351 143.169 33.3054 143.174L40.5263 143.174L45.5735 143.173C46.4517 143.173 47.4279 143.095 48.2968 143.207C48.6375 143.251 48.8782 143.45 49.13 143.662C49.3211 144.143 49.4468 144.428 49.2301 144.927C49.1097 145.204 48.9359 145.439 48.6551 145.573C47.9578 145.908 42.1952 145.695 41.1668 145.701Z" fill="#F3F1F0"/>
<path d="M29.0336 136.816C29.9912 136.663 31.0508 136.749 32.0207 136.746L37.278 136.73L49.626 136.717L52.8168 136.731C53.4385 136.736 54.1465 136.686 54.7529 136.827C55.0826 136.905 55.4359 137.172 55.5982 137.47C55.7825 137.809 55.7927 138.172 55.6535 138.529C55.5184 138.875 55.2306 139.019 54.9141 139.166C54.2166 139.39 29.6193 139.375 28.9303 139.111C28.6224 138.993 28.4026 138.732 28.2667 138.438C28.1187 138.117 28.1156 137.737 28.2576 137.412C28.4071 137.071 28.7175 136.959 29.0336 136.816Z" fill="#F3F1F0"/>
<path d="M35.7493 115.705C37.2063 115.617 38.7634 115.877 40.0127 116.66C41.6402 117.68 42.8137 119.335 43.1878 121.224C43.5403 123.005 43.2412 124.794 42.2321 126.312C41.0082 128.154 39.2971 129.063 37.166 129.478C35.5864 129.567 34.1068 129.426 32.7049 128.617C31.2124 127.755 30.0591 126.335 29.6033 124.664L29.5546 124.48L29.3816 123.734C29.1265 121.759 29.5818 119.738 30.8507 118.184C32.1087 116.643 33.7988 115.909 35.7493 115.705Z" fill="#F3F1F0"/>
<path d="M70.5818 129.731C69.4011 128.935 68.4039 128.019 67.6831 126.779C66.6582 125.016 66.1388 122.619 66.7002 120.625L66.7589 120.427L66.8709 120.017C67.4914 117.962 69.0526 116.199 70.917 115.172C73.0262 114.011 75.7249 113.848 78.0048 114.56C80.4434 115.322 81.9815 117.013 83.1148 119.232C83.9606 121.69 84.1939 123.981 83.0158 126.389C82.0287 128.407 80.1664 130.091 78.0346 130.8C76.1409 131.43 73.5933 131.308 71.7973 130.404L70.5818 129.731Z" fill="#F4555A"/>
</svg>
