<svg width="270" height="180" viewBox="0 0 270 180" fill="none" xmlns="http://www.w3.org/2000/svg">
<path d="M160.039 32.8286C160.478 35.7891 160.029 38.8132 158.748 41.518C157.466 44.2228 155.411 46.4866 152.843 48.0226C150.274 49.5585 147.307 50.2977 144.318 50.1464C141.329 49.9951 138.453 48.9601 136.052 47.1726C133.652 45.385 131.836 42.9253 130.834 40.105C129.833 37.2846 129.691 34.2306 130.427 31.3295C131.162 28.4285 132.742 25.811 134.967 23.8085C137.191 21.8061 139.959 20.5088 142.921 20.081C144.882 19.7939 146.881 19.896 148.802 20.3813C150.724 20.8666 152.531 21.7256 154.121 22.9093C155.71 24.0931 157.051 25.5783 158.067 27.2803C159.082 28.9822 159.753 30.8676 160.039 32.8286Z" fill="#F5F5F5"/>
<path d="M156.483 33.3471C156.816 35.6023 156.472 37.9055 155.495 39.9652C154.518 42.0248 152.952 43.7483 150.995 44.9174C149.038 46.0866 146.778 46.6488 144.501 46.533C142.224 46.4172 140.033 45.6285 138.205 44.2667C136.377 42.905 134.994 41.0315 134.231 38.8834C133.468 36.7352 133.359 34.409 133.919 32.1991C134.479 29.9893 135.682 27.9952 137.375 26.4693C139.069 24.9434 141.177 23.9543 143.433 23.6271C146.452 23.1893 149.521 23.9668 151.968 25.789C154.414 27.6112 156.038 30.3293 156.483 33.3471Z" fill="#EBEBEB"/>
<path d="M156.427 32.9907C156.359 32.9907 156.237 32.5083 155.927 31.6623C155.493 30.4746 154.879 29.361 154.105 28.3611C153.575 27.6802 152.971 27.0597 152.305 26.5107C151.535 25.8868 150.688 25.3642 149.785 24.9555C149.299 24.733 148.797 24.5465 148.284 24.3975C147.195 24.081 146.063 23.9305 144.929 23.9511C143.741 23.974 142.564 24.1829 141.441 24.5703C140.896 24.7596 140.367 24.9895 139.857 25.2579C139.364 25.5161 138.892 25.8122 138.445 26.1435C138.014 26.4584 137.607 26.8063 137.229 27.1839C135.9 28.4843 134.911 30.0915 134.349 31.8639C133.966 33.0687 133.771 34.3256 133.773 35.5899C133.773 36.4935 133.83 36.9975 133.773 37.0083C133.715 37.0191 133.549 36.5331 133.441 35.6115C133.303 34.2963 133.41 32.9669 133.758 31.6911C133.993 30.8116 134.329 29.9623 134.759 29.1603C135.27 28.2384 135.905 27.3906 136.645 26.6403C137.044 26.2278 137.475 25.8475 137.934 25.5027C138.41 25.1375 138.914 24.8112 139.443 24.5271C139.989 24.2302 140.559 23.9774 141.145 23.7711C141.751 23.564 142.37 23.4016 142.999 23.2851C143.631 23.1773 144.27 23.1171 144.911 23.1051C145.532 23.0948 146.154 23.1357 146.769 23.2275C147.362 23.3114 147.947 23.4438 148.518 23.6235C149.067 23.7782 149.603 23.9769 150.12 24.2175C151.914 25.0694 153.459 26.3686 154.606 27.9903C155.367 29.0693 155.921 30.2802 156.24 31.5615C156.471 32.4651 156.478 32.9835 156.427 32.9907Z" fill="#E0E0E0"/>
<path d="M140.38 28.9275L141.757 35.8261L140.377 36.1014L140.652 37.4812L142.032 37.2058L142.307 38.5855L140.928 38.8609L141.203 40.2406L142.583 39.9652L143.133 42.7247L144.513 42.4493L143.962 39.6899L147.412 39.0015L147.136 37.6218L143.687 38.3102L143.412 36.9304L147.551 36.1044C149.827 35.65 151.318 33.4157 150.864 31.1392C150.409 28.8626 148.175 27.3717 145.899 27.8261L140.38 28.9275ZM142.035 30.0319L146.174 29.2058C147.705 28.9003 149.179 29.8837 149.484 31.4145C149.79 32.9453 148.806 34.4191 147.275 34.7247L143.136 35.5507L142.035 30.0319Z" fill="#DEE0E1"/>
<path d="M238.93 97.92C238.93 97.92 235.578 95.9832 232.112 103.928C228.645 111.874 227.432 116.406 227.432 116.406C227.432 116.406 226.488 118.084 225.318 117.097C224.148 116.111 222.438 113.202 220.592 113.857C218.669 114.534 218.158 116.755 218.723 119.938C219.288 123.12 220.271 130.147 220.358 130.781C220.444 131.414 220.142 132.35 219.234 131.803C218.327 131.256 212.981 125.982 210.627 128.668C208.272 131.353 211.307 139.968 211.624 140.908C211.941 141.847 211.772 142.279 211.329 142.546C210.886 142.812 209.255 140.868 207.675 139.428C206.094 137.988 204.006 136.598 202.779 138.262C201.551 139.925 201.522 146.542 208.424 156.83L211.934 161.395L217.694 160.729C229.901 158.569 234.639 153.954 234.974 151.916C235.308 149.879 232.871 149.339 230.74 149.198C228.609 149.058 226.06 149.231 225.959 148.727C225.858 148.223 226.035 147.812 226.935 147.38C227.835 146.948 236.144 143.161 236.446 139.601C236.748 136.04 229.246 135.853 228.216 135.58C227.187 135.306 227.666 134.431 228.173 134.06C228.681 133.69 234.434 129.517 237.119 127.717C239.805 125.917 241.05 124.006 240.204 122.152C239.391 120.352 236.118 121.154 234.596 120.996C233.073 120.838 233.624 118.994 233.624 118.994C233.624 118.994 236.043 114.97 239.362 106.963C242.681 98.9568 238.865 97.8804 238.865 97.8804" fill="#EBEBEB"/>
<path d="M212.145 160.2C214.607 154.329 218.074 146.25 221.933 137.333C225.792 128.416 229.281 120.352 231.772 114.495L234.72 107.558L235.523 105.671L235.735 105.185C235.786 105.074 235.815 105.02 235.815 105.02C235.799 105.078 235.78 105.136 235.757 105.192L235.559 105.686C235.383 106.128 235.123 106.766 234.792 107.586C234.123 109.235 233.136 111.615 231.912 114.549C229.439 120.42 225.972 128.52 222.12 137.412C218.268 146.304 214.773 154.401 212.281 160.254" fill="#E0E0E0"/>
<path d="M222.803 118.001C222.875 118.121 222.933 118.249 222.976 118.383C223.073 118.631 223.206 118.995 223.368 119.463C223.685 120.366 224.088 121.623 224.509 123.023L225.589 126.605C225.719 127.03 225.827 127.39 225.917 127.685C225.967 127.815 226.001 127.95 226.018 128.088C225.945 127.97 225.887 127.843 225.845 127.71C225.744 127.458 225.611 127.095 225.456 126.63C225.146 125.723 224.761 124.47 224.34 123.063L223.26 119.491L222.929 118.411C222.867 118.281 222.824 118.143 222.803 118.001Z" fill="#E0E0E0"/>
<path d="M226.531 128.16C226.531 128.11 229.073 127.159 232.244 126.036C235.416 124.913 238.004 124.045 238.004 124.099C238.004 124.153 235.463 125.1 232.291 126.223C229.12 127.347 226.549 128.196 226.531 128.16Z" fill="#E0E0E0"/>
<path d="M219.99 141.563C220.128 141.53 220.27 141.514 220.411 141.516L221.567 141.448C222.539 141.39 223.885 141.304 225.365 141.156C226.845 141.008 228.18 140.839 229.145 140.702L230.29 140.548C230.429 140.518 230.572 140.506 230.715 140.512C230.583 140.567 230.445 140.604 230.304 140.623C230.038 140.681 229.649 140.756 229.167 140.843C228.205 141.012 226.87 141.203 225.383 141.354C223.896 141.505 222.55 141.563 221.571 141.584C221.081 141.584 220.689 141.584 220.415 141.584C220.273 141.596 220.13 141.589 219.99 141.563Z" fill="#E0E0E0"/>
<path d="M214.594 133.135C214.594 133.135 214.695 133.236 214.842 133.441C214.99 133.646 215.202 133.942 215.458 134.316C215.965 135.058 216.66 136.094 217.416 137.243C218.172 138.391 218.856 139.439 219.331 140.202C219.573 140.584 219.763 140.897 219.893 141.113C219.968 141.225 220.03 141.346 220.077 141.473C219.98 141.383 219.897 141.28 219.828 141.167C219.681 140.962 219.468 140.663 219.213 140.292C218.705 139.547 218.01 138.514 217.254 137.362C216.498 136.21 215.814 135.166 215.339 134.402C215.098 134.021 214.907 133.711 214.777 133.492C214.703 133.38 214.641 133.261 214.594 133.135Z" fill="#E0E0E0"/>
<path d="M207.314 144.249C207.43 144.37 207.533 144.501 207.624 144.641C207.833 144.94 208.099 145.314 208.416 145.761C209.075 146.711 209.975 148.032 210.958 149.494C211.94 150.955 212.822 152.291 213.452 153.259L214.19 154.415C214.287 154.553 214.371 154.7 214.439 154.854C214.321 154.733 214.216 154.6 214.126 154.458L213.337 153.339C212.678 152.388 211.778 151.071 210.792 149.605C209.806 148.14 208.927 146.808 208.297 145.84C208.002 145.379 207.757 144.99 207.559 144.684C207.461 144.549 207.379 144.403 207.314 144.249Z" fill="#E0E0E0"/>
<path d="M214.338 154.552C214.514 154.51 214.693 154.484 214.874 154.476L216.314 154.34C217.545 154.221 219.248 154.055 221.12 153.818C222.992 153.58 224.684 153.328 225.908 153.134L227.348 152.907C227.525 152.869 227.704 152.85 227.885 152.849C227.715 152.909 227.54 152.954 227.363 152.982C227.024 153.058 226.535 153.159 225.923 153.27C224.706 153.501 223.014 153.778 221.138 154.012C219.263 154.246 217.538 154.397 216.318 154.476C215.699 154.516 215.198 154.545 214.853 154.556C214.681 154.571 214.509 154.569 214.338 154.552Z" fill="#E0E0E0"/>
<path d="M111.025 122.278L42.4131 100.923C41.5662 100.659 40.8587 100.07 40.4462 99.2846C40.0337 98.4995 39.95 97.5826 40.2135 96.7357L53.4075 54.3601C53.5368 53.939 53.7481 53.5477 54.0292 53.2086C54.3103 52.8696 54.6556 52.5894 55.0454 52.3843C55.4352 52.1792 55.8617 52.0532 56.3004 52.0136C56.7391 51.9739 57.1812 52.0214 57.6015 52.1533L126.217 73.5121C127.063 73.7756 127.77 74.3644 128.182 75.1489C128.594 75.9334 128.677 76.8494 128.413 77.6953L115.201 120.082C114.939 120.927 114.351 121.632 113.568 122.044C112.785 122.456 111.87 122.54 111.025 122.278Z" fill="#E0E0E0"/>
<path d="M114.816 82.4113C114.497 83.4349 113.882 84.341 113.048 85.0149C112.214 85.6889 111.199 86.1004 110.131 86.1974C109.063 86.2945 107.991 86.0727 107.049 85.5601C106.107 85.0476 105.338 84.2673 104.84 83.3179C104.342 82.3685 104.136 81.2927 104.249 80.2264C104.362 79.1602 104.789 78.1514 105.475 77.3276C106.161 76.5038 107.077 75.9021 108.105 75.5984C109.133 75.2948 110.229 75.3029 111.252 75.6217C111.933 75.833 112.564 76.1763 113.112 76.632C113.659 77.0878 114.111 77.6469 114.442 78.2775C114.773 78.9081 114.977 79.5978 115.041 80.3071C115.105 81.0164 115.029 81.7315 114.816 82.4113Z" fill="white"/>
<path d="M115.2 88.3442C114.867 88.3006 114.538 88.2283 114.217 88.1282C112.849 87.6949 111.7 86.7506 111.01 85.4918C110.321 84.2331 110.143 82.7568 110.514 81.3703C110.885 79.9837 111.776 78.7937 113.003 78.0477C114.229 77.3018 115.696 77.0575 117.098 77.3656C118.5 77.6737 119.729 78.5105 120.529 79.7019C121.33 80.8933 121.64 82.3475 121.396 83.7619C121.151 85.1762 120.371 86.4419 119.217 87.2954C118.063 88.1489 116.624 88.5246 115.2 88.3442ZM116.543 77.5802C115.561 77.4571 114.564 77.6166 113.669 78.0402C112.775 78.4637 112.02 79.1336 111.493 79.9713C110.966 80.809 110.688 81.7796 110.694 82.7693C110.699 83.759 110.986 84.7267 111.522 85.5587C112.058 86.3908 112.82 87.0527 113.719 87.4667C114.618 87.8807 115.617 88.0298 116.597 87.8962C117.578 87.7627 118.5 87.3522 119.256 86.7129C120.011 86.0736 120.569 85.2321 120.863 84.287C121.272 82.9699 121.141 81.5443 120.5 80.3233C119.859 79.1023 118.759 78.1857 117.443 77.7746C117.143 77.6843 116.836 77.6193 116.525 77.5802H116.543Z" fill="white"/>
<path d="M51.3305 84.4309L50.0417 88.5925L49.6133 88.4593L50.7905 84.6793L49.8113 84.3733L49.9301 83.9917L51.3305 84.4309Z" fill="white"/>
<path d="M54.4329 89.5469L54.3141 89.9285L51.3945 89.0177L51.4917 88.7153L53.7489 87.5597C54.3609 87.2393 54.5373 86.9873 54.6273 86.7029C54.7785 86.2205 54.5301 85.8173 53.9073 85.6229C53.699 85.544 53.4757 85.5132 53.2538 85.5325C53.0319 85.5518 52.8173 85.6208 52.6257 85.7345L52.4025 85.3745C52.6521 85.2311 52.9302 85.1445 53.2171 85.1209C53.5039 85.0972 53.7924 85.1371 54.0621 85.2377C54.9081 85.5005 55.3113 86.0981 55.0953 86.7929C54.9693 87.1925 54.7353 87.5129 54.0153 87.8729L52.1649 88.8233L54.4329 89.5469Z" fill="white"/>
<path d="M59.0405 90.1946L58.2053 89.939L57.8669 91.019L57.4385 90.8822L57.7769 89.8022L55.4297 89.0822L55.5233 88.7726L58.5905 86.7026L59.0657 86.8502L56.0993 88.8734L57.8993 89.4386L58.1981 88.4738L58.6121 88.6034L58.3133 89.5682L59.1449 89.8274L59.0405 90.1946Z" fill="white"/>
<path d="M65.4194 92.1816L64.5878 91.9224L64.2458 93.0024L63.8174 92.8692L64.1594 91.7892L61.8086 91.0692L61.9058 90.7596L64.9694 88.686L65.4446 88.8336L62.4818 90.8604L64.2818 91.422L64.5806 90.4608L64.9982 90.5904L64.6958 91.5516L65.531 91.8108L65.4194 92.1816Z" fill="white"/>
<path d="M69.0983 93.1825C68.8787 93.9025 68.2127 94.2913 67.1939 93.9745C66.6406 93.8226 66.1665 93.4645 65.8691 92.9737L66.1823 92.7001C66.4279 93.1296 66.8327 93.4451 67.3091 93.5785C68.0291 93.8017 68.5007 93.5785 68.6591 93.0673C68.8175 92.5561 68.5943 92.0953 67.5359 91.7641L66.6503 91.4905L67.5143 89.4673L69.7931 90.1873L69.6743 90.5689L67.7699 89.9749L67.2155 91.2601L67.7519 91.4257C69.0047 91.8001 69.3287 92.4481 69.0983 93.1825Z" fill="white"/>
<path d="M73.2175 94.4461C72.9763 95.2273 72.2095 95.5261 71.4175 95.2849C70.3123 94.9249 69.9487 93.9853 70.3591 92.6713C70.7983 91.2565 71.7991 90.7561 72.9331 91.1089C73.2802 91.2012 73.596 91.3853 73.8475 91.6417L73.5703 91.9333C73.3684 91.7161 73.1086 91.5612 72.8215 91.4869C71.9251 91.2061 71.1655 91.6057 70.8163 92.7361C70.7802 92.8484 70.7502 92.9625 70.7263 93.0781C70.918 92.8852 71.1618 92.7525 71.4279 92.6963C71.6939 92.64 71.9706 92.6626 72.2239 92.7613C73.0303 93.0205 73.4407 93.6865 73.2175 94.4461ZM72.7927 94.3201C72.9619 93.7729 72.6667 93.2977 72.0259 93.0961C71.3851 92.8945 70.8343 93.1573 70.6723 93.6721C70.5283 94.1329 70.7767 94.6837 71.4931 94.9069C71.6161 94.9618 71.7494 94.99 71.8841 94.9898C72.0188 94.9895 72.1519 94.9607 72.2747 94.9052C72.3974 94.8498 72.5071 94.769 72.5964 94.6681C72.6857 94.5673 72.7526 94.4487 72.7927 94.3201Z" fill="white"/>
<path d="M78.9033 96.2676C78.6837 96.9624 78.0141 97.3476 77.0097 97.0272C76.4545 96.8754 75.9781 96.5174 75.6777 96.0264L75.9909 95.7529C76.2395 96.1864 76.6499 96.5036 77.1321 96.6348C77.8197 96.8508 78.3021 96.6348 78.4605 96.1308C78.6189 95.6268 78.3669 95.1949 77.5965 94.9537L77.2977 94.86L77.3949 94.5468L79.0005 93.4668L76.8693 92.8045L76.9881 92.4229L79.6665 93.258L79.5693 93.5605L77.9313 94.6764C78.8097 94.9932 79.1085 95.6016 78.9033 96.2676Z" fill="white"/>
<path d="M83.089 97.5207C82.8478 98.2983 82.081 98.6007 81.271 98.3559C80.1658 97.9959 79.8022 97.0563 80.2126 95.7423C80.6518 94.3275 81.6526 93.8307 82.7866 94.1835C83.1339 94.2753 83.4499 94.4594 83.701 94.7163L83.4238 95.0079C83.2222 94.7896 82.9624 94.6335 82.675 94.5579C81.775 94.2807 81.019 94.6767 80.6698 95.8071C80.6333 95.9253 80.6032 96.0455 80.5798 96.1671C80.7706 95.9739 81.0136 95.8407 81.279 95.7838C81.5444 95.7269 81.8207 95.7487 82.0738 95.8467C82.9018 96.0915 83.3266 96.7575 83.089 97.5207ZM82.6642 97.3983C82.8334 96.8547 82.5382 96.3759 81.8974 96.1779C81.2566 95.9799 80.7058 96.2355 80.5438 96.7539C80.3998 97.2111 80.6446 97.7619 81.3646 97.9887C81.4879 98.0436 81.6213 98.0716 81.7562 98.0711C81.8911 98.0706 82.0244 98.0415 82.1472 97.9857C82.27 97.9299 82.3796 97.8487 82.4687 97.7475C82.5578 97.6462 82.6245 97.5272 82.6642 97.3983Z" fill="white"/>
<path d="M87.8426 95.7925L87.7454 96.0949L84.8042 99.4141L84.3398 99.2665L87.2198 96.0265L85.0814 95.3605L84.8366 96.1381L84.4154 96.0049L84.7754 94.8457L87.8426 95.7925Z" fill="white"/>
<path d="M93.7821 97.643L93.6885 97.949L90.7437 101.265L90.2793 101.121L93.1593 97.8806L90.9993 97.2146L90.7581 97.9958L90.3333 97.8626L90.6933 96.7034L93.7821 97.643Z" fill="white"/>
<path d="M96.9419 101.923C96.7115 102.661 95.9447 102.924 94.9511 102.614C93.9575 102.305 93.4895 101.657 93.7199 100.919C93.7894 100.681 93.9386 100.474 94.1424 100.333C94.3463 100.192 94.5924 100.126 94.8395 100.145C94.6664 100.022 94.5376 99.847 94.4727 99.6451C94.4078 99.4432 94.4102 99.2257 94.4795 99.0253C94.6883 98.3485 95.3975 98.1073 96.2795 98.3809C97.1615 98.6545 97.6151 99.2593 97.4063 99.9361C97.348 100.144 97.2231 100.327 97.0508 100.457C96.8785 100.587 96.6682 100.657 96.4523 100.656C96.6667 100.779 96.8322 100.972 96.9213 101.203C97.0104 101.434 97.0177 101.688 96.9419 101.923ZM96.5063 101.779C96.6647 101.268 96.3227 100.811 95.5847 100.58C94.8467 100.35 94.3139 100.537 94.1447 101.048C93.9755 101.56 94.3175 102.024 95.0555 102.251C95.7935 102.478 96.3443 102.298 96.5063 101.779ZM95.6927 100.242C96.3407 100.444 96.8159 100.271 96.9563 99.8209C97.0967 99.3709 96.7835 98.9389 96.1571 98.7409C95.5307 98.5429 95.0411 98.7049 94.8971 99.1693C94.7531 99.6337 95.0411 100.04 95.6927 100.242Z" fill="white"/>
<path d="M101.283 102.24C100.844 103.655 99.8433 104.152 98.7093 103.799C98.3617 103.708 98.0455 103.524 97.7949 103.266L98.0721 102.974C98.2725 103.194 98.5329 103.349 98.8209 103.421C99.7173 103.702 100.477 103.306 100.826 102.175C100.859 102.078 100.887 101.959 100.916 101.815C100.724 102.008 100.481 102.141 100.215 102.197C99.9486 102.253 99.6719 102.231 99.4185 102.132C98.5941 101.877 98.1693 101.207 98.4069 100.447C98.6445 99.6877 99.4149 99.3673 100.207 99.6121C101.33 99.9541 101.694 100.908 101.283 102.24ZM100.952 101.228C101.096 100.771 100.848 100.217 100.131 99.9937C100.008 99.9394 99.8751 99.9116 99.7406 99.9121C99.606 99.9127 99.4731 99.9416 99.3505 99.997C99.2279 100.052 99.1183 100.133 99.029 100.233C98.9396 100.334 98.8724 100.452 98.8317 100.581C98.6589 101.128 98.9541 101.606 99.5985 101.804C100.243 102.002 100.801 101.732 100.952 101.214V101.228Z" fill="white"/>
<path d="M106.142 101.491L104.846 105.657L104.418 105.523L105.595 101.74L104.612 101.434L104.731 101.052L106.142 101.491Z" fill="white"/>
<path d="M109.247 106.607L109.128 106.988L106.201 106.078L106.295 105.775L108.552 104.62C109.168 104.303 109.344 104.051 109.434 103.763C109.582 103.284 109.337 102.881 108.714 102.683C108.506 102.604 108.283 102.572 108.061 102.591C107.839 102.61 107.624 102.678 107.432 102.791L107.213 102.431C107.463 102.288 107.741 102.202 108.028 102.179C108.315 102.156 108.603 102.197 108.872 102.298C109.715 102.56 110.118 103.154 109.902 103.849C109.776 104.249 109.542 104.569 108.822 104.929L106.975 105.88L109.247 106.607Z" fill="white"/>
<path d="M113.235 106.956C113.019 107.651 112.346 108.036 111.338 107.716C110.785 107.561 110.311 107.204 110.01 106.715L110.323 106.441C110.573 106.872 110.981 107.188 111.461 107.323C112.152 107.539 112.634 107.323 112.793 106.819C112.951 106.315 112.699 105.883 111.929 105.642L111.63 105.549L111.727 105.235L113.333 104.155L111.201 103.493L111.32 103.111L113.999 103.943L113.905 104.249L112.263 105.361C113.142 105.682 113.441 106.29 113.235 106.956Z" fill="white"/>
<path d="M79.9358 101.285L79.373 103.093L112.719 113.473L113.281 111.665L79.9358 101.285Z" fill="white"/>
<path d="M95.055 109.953L94.4922 111.761L111.596 117.086L112.159 115.278L95.055 109.953Z" fill="white"/>
<g opacity="0.5">
<path d="M65.4505 73.4217L54.867 70.1274C53.9254 69.8343 52.9245 70.36 52.6314 71.3016L50.4391 78.3447C50.146 79.2863 50.6717 80.2872 51.6133 80.5803L62.1968 83.8747C63.1384 84.1678 64.1393 83.642 64.4324 82.7004L66.6248 75.6574C66.9179 74.7158 66.3921 73.7148 65.4505 73.4217Z" fill="#EBEBEB"/>
</g>
<path d="M50.8086 77.1553L51.0174 76.4857L58.2174 78.7285C58.4171 78.7965 58.6285 78.8237 58.8389 78.8087C59.0494 78.7937 59.2547 78.7366 59.4428 78.641C59.6308 78.5453 59.7979 78.413 59.934 78.2518C60.0701 78.0906 60.1725 77.9037 60.2353 77.7023C60.298 77.5008 60.3198 77.2888 60.2993 77.0789C60.2788 76.8689 60.2165 76.6651 60.116 76.4796C60.0155 76.294 59.8788 76.1305 59.7141 75.9987C59.5494 75.8668 59.36 75.7692 59.157 75.7117L51.957 73.4689L52.1658 72.7993L59.3658 75.0421C59.6604 75.1238 59.9357 75.2639 60.1751 75.4541C60.4146 75.6442 60.6134 75.8806 60.7598 76.149C60.9062 76.4175 60.9971 76.7127 61.0272 77.017C61.0572 77.3213 61.0259 77.6285 60.9349 77.9204C60.8439 78.2124 60.6953 78.4831 60.4977 78.7164C60.3001 78.9498 60.0576 79.1411 59.7846 79.2789C59.5117 79.4167 59.2138 79.4983 58.9087 79.5188C58.6036 79.5393 58.2975 79.4982 58.0086 79.3981L50.8086 77.1553Z" fill="#E0E0E0"/>
<path d="M60.4157 77.8902L60.2051 78.5571L65.1265 80.1112L65.3371 79.4443L60.4157 77.8902Z" fill="#E0E0E0"/>
<path d="M93.4795 72.7101L57.4941 61.5088L56.5333 64.5955L92.5187 75.7968L93.4795 72.7101Z" fill="white"/>
<path d="M68.6636 142.377C68.9402 144.248 68.6555 146.159 67.8456 147.868C67.0357 149.577 65.7369 151.007 64.1137 151.978C62.4905 152.948 60.6158 153.416 58.7269 153.32C56.8381 153.225 55.0199 152.572 53.5026 151.443C51.9853 150.314 50.837 148.76 50.2032 146.978C49.5693 145.196 49.4783 143.266 49.9418 141.432C50.4052 139.599 51.4023 137.944 52.8066 136.677C54.211 135.41 55.9597 134.589 57.8312 134.316C59.0717 134.134 60.336 134.198 61.5517 134.505C62.7675 134.811 63.911 135.354 64.9169 136.103C65.9228 136.851 66.7714 137.791 67.4142 138.867C68.0571 139.944 68.4816 141.136 68.6636 142.377Z" fill="#F5F5F5"/>
<path d="M66.4144 142.704C66.6253 144.131 66.4082 145.588 65.7906 146.891C65.173 148.194 64.1828 149.284 62.9451 150.024C61.7075 150.764 60.2782 151.12 58.8381 151.047C57.398 150.974 56.0119 150.476 54.8553 149.615C53.6987 148.753 52.8235 147.569 52.3407 146.21C51.8578 144.851 51.7889 143.38 52.1426 141.982C52.4964 140.584 53.257 139.323 54.3281 138.357C55.3992 137.392 56.7326 136.766 58.1596 136.559C60.0689 136.281 62.0105 136.772 63.5582 137.924C65.1059 139.076 66.1331 140.795 66.4144 142.704Z" fill="#EBEBEB"/>
<path d="M66.3776 142.478C66.243 142.21 66.1368 141.929 66.0608 141.639C65.7861 140.888 65.3976 140.184 64.9088 139.551C63.9781 138.341 62.6872 137.459 61.2223 137.031C60.8857 136.93 60.5414 136.856 60.1927 136.811C59.8349 136.763 59.4739 136.741 59.1127 136.746C58.7376 136.758 58.3635 136.794 57.9931 136.854C57.6271 136.924 57.2662 137.019 56.9131 137.139C56.5689 137.258 56.2343 137.404 55.9123 137.574C55.3025 137.898 54.7423 138.308 54.2491 138.791C53.8015 139.23 53.413 139.725 53.0935 140.264C52.8153 140.735 52.5895 141.236 52.4203 141.758C52.1804 142.519 52.059 143.313 52.0603 144.112C52.0946 144.411 52.0946 144.713 52.0603 145.012C51.931 144.734 51.8599 144.433 51.8515 144.126C51.767 143.294 51.8353 142.454 52.0531 141.646C52.207 141.085 52.4244 140.544 52.7011 140.033C53.0256 139.447 53.4277 138.907 53.8964 138.428C54.1481 138.166 54.4202 137.926 54.7099 137.708C55.0116 137.478 55.3305 137.272 55.6639 137.092C56.0111 136.906 56.3722 136.747 56.7439 136.617C57.1272 136.485 57.5194 136.382 57.9176 136.307C58.3173 136.239 58.7216 136.2 59.1272 136.192C59.5198 136.187 59.9123 136.214 60.3007 136.271C60.6765 136.324 61.0473 136.407 61.4095 136.52C61.7562 136.626 62.0944 136.758 62.4211 136.916C63.556 137.454 64.533 138.276 65.258 139.302C65.7417 139.984 66.0957 140.749 66.3019 141.56C66.3935 141.856 66.4193 142.17 66.3776 142.478Z" fill="#E0E0E0"/>
<path d="M211.477 146.358C210.778 147.352 209.421 147.024 208.795 146.416C208.168 145.807 207.898 144.925 207.657 144.083C207.103 142.164 206.548 140.148 206.959 138.19C207.058 137.597 207.319 137.043 207.711 136.588C207.91 136.364 208.165 136.197 208.449 136.102C208.733 136.007 209.037 135.989 209.331 136.048C210.015 136.228 210.44 136.901 210.746 137.538C211.651 139.419 212.126 141.477 212.135 143.564C212.135 144.536 212.024 145.555 211.477 146.358Z" fill="#C62F44"/>
<g opacity="0.2">
<path d="M211.477 146.358C210.778 147.352 209.421 147.024 208.795 146.416C208.168 145.807 207.898 144.925 207.657 144.083C207.103 142.164 206.548 140.148 206.959 138.19C207.058 137.597 207.319 137.043 207.711 136.588C207.91 136.364 208.165 136.197 208.449 136.102C208.733 136.007 209.037 135.989 209.331 136.048C210.015 136.228 210.44 136.901 210.746 137.538C211.651 139.419 212.126 141.477 212.135 143.564C212.135 144.536 212.024 145.555 211.477 146.358Z" fill="black"/>
</g>
<path d="M208.863 151.405C207.692 150.855 206.376 150.695 205.108 150.948C204.416 151.009 203.764 151.301 203.258 151.776C202.793 152.287 202.707 153.187 203.236 153.627C203.58 153.858 203.993 153.963 204.406 153.922C205.396 153.922 206.498 153.735 207.286 154.332C207.74 154.674 208.038 155.239 208.582 155.412C208.852 155.474 209.135 155.446 209.388 155.333C209.641 155.22 209.851 155.028 209.986 154.786C210.246 154.289 210.303 153.711 210.144 153.173C210.082 152.799 209.934 152.445 209.711 152.139C209.489 151.832 209.198 151.581 208.863 151.405Z" fill="#DF6A70"/>
<path d="M213.392 147.787C213.035 147.319 212.797 146.77 212.699 146.188C212.601 145.607 212.646 145.01 212.831 144.45C213.211 143.326 213.895 142.329 214.807 141.57C215.84 140.651 217.042 139.942 218.346 139.482C218.851 139.279 219.394 139.187 219.937 139.212C220.209 139.228 220.472 139.309 220.705 139.45C220.938 139.59 221.133 139.786 221.273 140.019C221.633 140.739 221.291 141.592 220.913 142.294C220.233 143.535 219.455 144.719 218.587 145.836C217.892 146.733 217.093 147.636 216.031 148.025C214.969 148.414 213.871 148.385 213.302 147.665" fill="#DF6A70"/>
<path d="M211.523 161.392C211.489 161.243 211.469 161.091 211.462 160.938C211.429 160.611 211.39 160.197 211.339 159.703C211.277 159.099 211.185 158.498 211.062 157.903C210.899 157.174 210.679 156.459 210.403 155.765C210.137 155.071 209.774 154.419 209.323 153.828C208.709 153.008 207.795 152.465 206.782 152.316C206.629 152.312 206.476 152.29 206.328 152.251C206.481 152.237 206.636 152.237 206.789 152.251C207.209 152.284 207.62 152.392 208.002 152.568C208.565 152.839 209.057 153.236 209.442 153.727C209.913 154.326 210.294 154.991 210.573 155.7C210.854 156.406 211.074 157.134 211.228 157.878C211.344 158.485 211.425 159.098 211.469 159.714C211.509 160.236 211.523 160.661 211.53 160.956C211.545 161.101 211.542 161.247 211.523 161.392Z" fill="#263238"/>
<path d="M211.441 160.441C211.432 160.372 211.432 160.302 211.441 160.233C211.441 160.074 211.441 159.873 211.441 159.631C211.441 159.109 211.441 158.353 211.412 157.421C211.365 155.556 211.207 152.986 210.897 150.156C210.588 147.327 210.177 144.781 209.792 142.956C209.702 142.499 209.612 142.089 209.529 141.725C209.446 141.361 209.378 141.052 209.313 140.8C209.248 140.548 209.209 140.371 209.173 140.217C209.152 140.149 209.14 140.079 209.137 140.008C209.167 140.071 209.191 140.138 209.209 140.206L209.385 140.782C209.461 141.034 209.54 141.343 209.63 141.703C209.72 142.063 209.824 142.47 209.922 142.927C210.435 145.305 210.822 147.709 211.081 150.127C211.394 152.964 211.531 155.527 211.545 157.41C211.545 158.346 211.545 159.102 211.513 159.624C211.513 159.869 211.484 160.067 211.477 160.225C211.471 160.298 211.459 160.371 211.441 160.441Z" fill="#263238"/>
<path d="M211.425 155.463C211.41 155.254 211.41 155.045 211.425 154.836C211.45 154.433 211.504 153.85 211.62 153.137C211.756 152.3 211.94 151.472 212.17 150.657C212.446 149.656 212.793 148.677 213.207 147.726C213.926 145.974 214.958 144.367 216.253 142.985C216.479 142.748 216.719 142.526 216.973 142.319C217.084 142.229 217.182 142.135 217.279 142.063L217.56 141.869C217.726 141.743 217.902 141.63 218.085 141.531C217.478 142.012 216.9 142.529 216.354 143.079C215.104 144.472 214.101 146.068 213.387 147.798C212.976 148.743 212.627 149.713 212.343 150.703C212.073 151.614 211.893 152.453 211.756 153.159C211.62 153.864 211.551 154.444 211.504 154.843C211.496 155.052 211.469 155.259 211.425 155.463Z" fill="#263238"/>
<path d="M133.201 126.907L77.4806 67.9679C77.1992 67.6691 77.0477 67.2711 77.0592 66.8609C77.0707 66.4506 77.2442 66.0617 77.5418 65.7791L114.121 31.2047C114.269 31.065 114.443 30.9557 114.633 30.8831C114.823 30.8106 115.025 30.7762 115.228 30.7819C115.432 30.7875 115.632 30.8332 115.817 30.9163C116.003 30.9993 116.17 31.1181 116.31 31.2659L172.027 90.2087C172.309 90.5075 172.46 90.9055 172.449 91.3157C172.437 91.726 172.264 92.1149 171.966 92.3975L135.394 126.957C135.247 127.099 135.074 127.21 134.884 127.284C134.694 127.358 134.491 127.394 134.287 127.389C134.083 127.384 133.882 127.339 133.696 127.257C133.51 127.174 133.342 127.055 133.201 126.907Z" fill="#C62F44"/>
<g opacity="0.3">
<path d="M133.201 126.907L77.4806 67.9679C77.1992 67.6691 77.0477 67.2711 77.0592 66.8609C77.0707 66.4506 77.2442 66.0617 77.5418 65.7791L114.121 31.2047C114.269 31.065 114.443 30.9557 114.633 30.8831C114.823 30.8106 115.025 30.7762 115.228 30.7819C115.432 30.7875 115.632 30.8332 115.817 30.9163C116.003 30.9993 116.17 31.1181 116.31 31.2659L172.027 90.2087C172.309 90.5075 172.46 90.9055 172.449 91.3157C172.437 91.726 172.264 92.1149 171.966 92.3975L135.394 126.957C135.247 127.099 135.074 127.21 134.884 127.284C134.694 127.358 134.491 127.394 134.287 127.389C134.083 127.384 133.882 127.339 133.696 127.257C133.51 127.174 133.342 127.055 133.201 126.907Z" fill="black"/>
</g>
<path d="M171.619 89.7767L116.711 31.6979C116.518 31.493 116.287 31.3282 116.03 31.213C115.774 31.0977 115.497 31.0343 115.215 31.0263C114.934 31.0182 114.654 31.0658 114.391 31.1662C114.128 31.2666 113.888 31.4179 113.684 31.6115L103.294 41.4359C103.191 41.5319 103.114 41.6518 103.069 41.7849C103.024 41.9181 103.012 42.0603 103.035 42.1991C104.075 48.0095 108.23 53.2043 113.183 56.6459C119.167 60.8039 126.259 62.9963 132.983 65.7719C139.708 68.5475 146.487 72.2051 150.53 78.2711C154.342 83.9987 155.242 91.1015 157.183 97.7111C157.71 99.5068 158.37 101.261 159.155 102.96C159.213 103.083 159.298 103.191 159.405 103.275C159.512 103.359 159.638 103.416 159.771 103.442C159.905 103.468 160.043 103.462 160.173 103.425C160.304 103.387 160.424 103.319 160.523 103.226L171.536 92.8151C171.742 92.6218 171.908 92.3895 172.024 92.1317C172.14 91.8739 172.203 91.5957 172.211 91.3131C172.219 91.0306 172.17 90.7493 172.069 90.4856C171.967 90.2219 171.814 89.9809 171.619 89.7767Z" fill="#E54F54"/>
<path d="M103.444 59.3567L102.962 58.8275L102.242 59.4827L101.986 59.2127L102.681 58.5575L101.273 57.0707L101.468 56.8835L104.539 56.6279L104.823 56.9303L101.846 57.1931L102.926 58.3379L103.534 57.7583L103.783 58.0247L103.174 58.6007L103.671 59.1263L103.444 59.3567Z" fill="white"/>
<path d="M105.34 61.2323C104.898 61.6463 104.26 61.6499 103.656 61.0127C103.315 60.6752 103.116 60.2209 103.098 59.7419L103.436 59.6699C103.441 60.0855 103.609 60.4825 103.904 60.7751C104.318 61.2143 104.746 61.2611 105.074 60.9515C105.402 60.6419 105.387 60.2315 104.926 59.7455L104.746 59.5583L104.948 59.3675L106.554 59.2343L105.279 57.8843L105.52 57.6575L107.122 59.3531L106.932 59.5331L105.286 59.6735C105.79 60.2675 105.762 60.8399 105.34 61.2323Z" fill="white"/>
<path d="M107.374 63.3598C106.924 63.7846 106.294 63.8026 105.672 63.1582C105.331 62.8227 105.132 62.3689 105.117 61.891L105.456 61.819C105.463 62.2252 105.628 62.6126 105.916 62.899C106.338 63.349 106.78 63.3814 107.101 63.0754C107.421 62.7694 107.461 62.3554 106.82 61.675L106.287 61.1134L107.727 60.001L109.092 61.441L108.85 61.6678L107.724 60.4798L106.795 61.1818L107.115 61.5418C107.868 62.305 107.839 62.9026 107.374 63.3598Z" fill="white"/>
<path d="M109.581 65.6567C109.467 65.7636 109.331 65.8455 109.183 65.8971C109.035 65.9487 108.878 65.9688 108.722 65.9563C108.566 65.9438 108.414 65.8988 108.276 65.8243C108.139 65.7498 108.018 65.6473 107.922 65.5235C107.259 64.8215 107.385 63.9827 108.217 63.1943C109.113 62.3483 110.042 62.3951 110.719 63.1115C110.936 63.3199 111.092 63.5839 111.169 63.8747L110.845 63.9719C110.791 63.7305 110.666 63.5109 110.485 63.3419C109.949 62.7731 109.239 62.7515 108.523 63.4283C108.462 63.4859 108.39 63.5615 108.318 63.6443C108.535 63.5814 108.766 63.5837 108.981 63.6509C109.197 63.7181 109.388 63.8472 109.531 64.0223C110.028 64.5443 110.064 65.2031 109.581 65.6567ZM109.322 65.3975C109.682 65.0699 109.65 64.6055 109.265 64.1987C109.196 64.1069 109.109 64.0303 109.009 63.9735C108.909 63.9167 108.799 63.8809 108.685 63.8684C108.571 63.8559 108.456 63.867 108.346 63.9009C108.236 63.9348 108.135 63.9908 108.048 64.0655C107.756 64.3391 107.709 64.8395 108.141 65.2931C108.208 65.3831 108.293 65.458 108.391 65.5128C108.488 65.5676 108.597 65.601 108.708 65.6109C108.82 65.6208 108.932 65.6069 109.038 65.5701C109.144 65.5333 109.241 65.4744 109.322 65.3975Z" fill="white"/>
<path d="M114.184 72.1005L114.418 70.6893L112.978 70.8405L112.693 70.5382L114.454 70.3582L114.709 68.7021L114.997 69.0045L114.781 70.3329L116.121 70.1925L116.398 70.4878L114.731 70.6533L114.461 72.4066L114.184 72.1005Z" fill="white"/>
<path d="M116.084 74.1132L116.318 72.6984L114.878 72.8496L114.59 72.5472L116.35 72.3708L116.609 70.7148L116.894 71.0136L116.681 72.342L118.017 72.2052L118.298 72.5004L116.627 72.666L116.357 74.4192L116.084 74.1132Z" fill="white"/>
<path d="M117.985 76.122L118.219 74.7108L116.779 74.862L116.494 74.5596L118.251 74.3832L118.51 72.7236L118.795 73.026L118.582 74.3544L119.921 74.2176L120.199 74.5092L118.528 74.6748L118.258 76.428L117.985 76.122Z" fill="white"/>
<path d="M119.881 78.1198L120.115 76.7086L118.675 76.8598L118.391 76.5574L120.147 76.3774L120.407 74.7214L120.691 75.0238L120.479 76.3522L121.818 76.2118L122.095 76.507L120.425 76.6726L120.158 78.4258L119.881 78.1198Z" fill="white"/>
<path d="M126.451 85.0786L126.685 83.6674L125.245 83.8186L124.961 83.5162L126.718 83.3398L126.977 81.6802L127.261 81.9826L127.049 83.311L128.388 83.1706L128.665 83.4658L126.995 83.6314L126.725 85.3846L126.451 85.0786Z" fill="white"/>
<path d="M128.354 87.0913L128.588 85.6765L127.148 85.8277L126.863 85.5289L128.62 85.3489L128.879 83.6929L129.164 83.9953L128.951 85.3237L130.29 85.1833L130.568 85.4785L128.897 85.6441L128.627 87.3973L128.354 87.0913Z" fill="white"/>
<path d="M130.252 89.1035L130.49 87.6887L129.05 87.8399L128.766 87.5375L130.522 87.3611L130.782 85.7051L131.066 86.0039L130.854 87.3323L132.193 87.1955L132.47 87.4871L130.8 87.6527L130.533 89.4059L130.252 89.1035Z" fill="white"/>
<path d="M132.158 91.1123L132.392 89.7011L130.952 89.8523L130.668 89.5499L132.425 89.3735L132.684 87.7139L132.972 88.0163L132.756 89.3447L134.095 89.2043L134.372 89.4995L132.702 89.6651L132.436 91.4183L132.158 91.1123Z" fill="white"/>
<path d="M140.689 94.8562L138.054 97.351L137.795 97.0774L140.193 94.813L139.606 94.1938L139.847 93.9634L140.689 94.8562Z" fill="white"/>
<path d="M141.051 99.0001C140.612 99.4177 139.971 99.4177 139.367 98.7805C139.026 98.443 138.827 97.9887 138.809 97.5097L139.147 97.4377C139.154 97.8539 139.321 98.2513 139.615 98.5465C140.029 98.9821 140.461 99.0325 140.789 98.7229C141.116 98.4133 141.102 98.0029 140.637 97.5133L140.461 97.3261L140.659 97.1389L142.265 97.0021L140.99 95.6557L141.231 95.4253L142.833 97.1209L142.643 97.3045L141.001 97.4449C141.505 98.0461 141.48 98.6077 141.051 99.0001Z" fill="white"/>
<path d="M143.468 101.689L142.968 101.16L142.277 101.815L142.017 101.545L142.712 100.89L141.305 99.4031L141.503 99.2159L144.57 98.9639L144.854 99.2627L141.877 99.5255L142.957 100.67L143.565 100.094L143.817 100.357L143.205 100.933L143.706 101.462L143.468 101.689Z" fill="white"/>
<path d="M144.938 104.151L144.697 104.378L142.947 102.528L143.142 102.348L145.251 102.427C145.827 102.449 146.058 102.337 146.238 102.168C146.544 101.876 146.529 101.484 146.148 101.088C146.029 100.946 145.879 100.833 145.71 100.757C145.541 100.681 145.357 100.644 145.172 100.649V100.289C145.412 100.286 145.649 100.336 145.866 100.436C146.084 100.535 146.277 100.682 146.432 100.865C146.936 101.401 146.986 101.995 146.544 102.413C146.292 102.65 145.993 102.773 145.312 102.773L143.581 102.711L144.938 104.151Z" fill="white"/>
<path d="M125.944 103.698C126.743 102.942 127.614 102.956 128.179 103.55C128.745 104.144 128.709 105.019 127.906 105.775C127.103 106.531 126.239 106.52 125.67 105.923C125.101 105.325 125.145 104.454 125.944 103.698ZM127.384 105.21C127.935 104.692 127.981 104.281 127.715 104C127.449 103.72 127.042 103.745 126.491 104.267C125.94 104.789 125.893 105.196 126.156 105.473C126.419 105.75 126.822 105.732 127.373 105.21H127.384Z" fill="white"/>
<path d="M129.602 108.472C129.109 108.94 128.414 108.832 127.928 108.317C127.298 107.647 127.323 106.834 128.104 106.096C128.943 105.304 129.904 105.376 130.578 106.096C130.809 106.326 130.973 106.615 131.053 106.931L130.444 107.111C130.399 106.895 130.292 106.697 130.135 106.542C130.053 106.444 129.951 106.364 129.835 106.309C129.72 106.254 129.594 106.225 129.466 106.223C129.338 106.221 129.211 106.247 129.094 106.299C128.977 106.351 128.873 106.428 128.788 106.524C129.091 106.548 129.372 106.69 129.57 106.92C129.676 107.019 129.761 107.137 129.82 107.269C129.88 107.402 129.912 107.544 129.915 107.689C129.918 107.834 129.892 107.978 129.838 108.112C129.784 108.247 129.704 108.369 129.602 108.472ZM129.062 107.953C129.114 107.904 129.155 107.844 129.182 107.778C129.209 107.712 129.221 107.64 129.219 107.569C129.216 107.497 129.198 107.427 129.166 107.363C129.134 107.299 129.089 107.242 129.033 107.197C128.99 107.14 128.935 107.093 128.873 107.058C128.81 107.023 128.741 107.001 128.67 106.994C128.599 106.987 128.527 106.995 128.459 107.017C128.39 107.039 128.327 107.074 128.274 107.122C128.222 107.173 128.183 107.234 128.157 107.302C128.131 107.37 128.12 107.442 128.124 107.515C128.128 107.587 128.147 107.658 128.18 107.722C128.214 107.787 128.26 107.843 128.317 107.888C128.359 107.946 128.414 107.993 128.476 108.028C128.538 108.063 128.607 108.084 128.678 108.09C128.75 108.097 128.821 108.087 128.889 108.064C128.956 108.04 129.018 108.002 129.069 107.953H129.062Z" fill="white"/>
<path d="M132.842 107.568L133.299 108.047L128.954 109.991L128.5 109.508L132.842 107.568Z" fill="white"/>
<path d="M132.518 112.165L132.061 112.597L130.322 110.765L130.682 110.423L132.45 110.523C132.57 110.547 132.694 110.544 132.812 110.515C132.931 110.485 133.042 110.431 133.137 110.354C133.328 110.174 133.314 109.937 133.069 109.681C132.981 109.579 132.869 109.501 132.744 109.453C132.618 109.405 132.482 109.39 132.349 109.407L132.227 108.749C132.48 108.719 132.737 108.753 132.974 108.846C133.212 108.94 133.422 109.091 133.587 109.285C134.099 109.829 134.16 110.448 133.721 110.865C133.487 111.089 133.209 111.225 132.572 111.182L131.521 111.121L132.518 112.165Z" fill="white"/>
<path d="M134.854 114.53L134.494 114.138L133.986 114.617L133.468 114.069L133.979 113.591L132.744 112.284L133.122 111.924L135.739 111.614L136.297 112.201L133.835 112.518L134.451 113.169L134.904 112.741L135.405 113.27L134.951 113.699L135.311 114.095L134.854 114.53Z" fill="white"/>
<path d="M146.225 84.546C147.593 82.4436 147.057 79.65 145.221 77.9436C144.663 77.4167 144.015 76.9926 143.309 76.6908C141.556 75.9708 139.234 76.4928 138.313 78.156C137.56 79.5132 137.863 81.2088 138.392 82.6668C138.943 84.1968 139.832 85.7592 141.347 86.3532C142.863 86.9472 144.559 86.4036 145.646 85.2732C145.863 85.0513 146.058 84.8076 146.225 84.546Z" fill="#F06168"/>
<path d="M179.615 85.4136H87.5518C84.0844 85.4136 81.2734 88.2245 81.2734 91.692V155.063C81.2734 158.53 84.0844 161.341 87.5518 161.341H179.615C183.082 161.341 185.893 158.53 185.893 155.063V91.692C185.893 88.2245 183.082 85.4136 179.615 85.4136Z" fill="#F06168"/>
<path d="M185.892 91.6918C185.892 91.6918 185.892 91.6162 185.892 91.465C185.885 91.2394 185.864 91.0145 185.827 90.7918C185.701 89.9154 185.386 89.0766 184.906 88.333C184.553 87.7861 184.121 87.2947 183.624 86.875C183.016 86.3772 182.322 85.9963 181.576 85.7518C181.374 85.6834 181.162 85.6438 180.949 85.5826C180.737 85.5214 180.51 85.5142 180.283 85.4782L179.588 85.4458H175.707L138.17 85.4746H112.25H97.8071H88.3355C87.6963 85.449 87.0561 85.4852 86.4239 85.5826C85.1508 85.8163 83.984 86.4463 83.0903 87.3826C82.639 87.849 82.2658 88.3851 81.9851 88.9702C81.6957 89.5551 81.5059 90.1841 81.4235 90.8314C81.3614 91.4895 81.3409 92.1508 81.3623 92.8114V102.96C81.3623 108.446 81.3623 114.042 81.3623 119.747V155.027C81.3645 156.532 81.9118 157.986 82.9031 159.12C83.8808 160.247 85.2366 160.978 86.7155 161.175C87.4529 161.239 88.1933 161.26 88.9331 161.237H145.871H175.625H179.088C179.653 161.254 180.218 161.217 180.776 161.125C181.325 161.019 181.856 160.84 182.357 160.592C182.605 160.47 182.845 160.333 183.077 160.182C183.302 160.023 183.518 159.853 183.725 159.671C184.338 159.131 184.837 158.476 185.194 157.741C185.55 157.007 185.757 156.209 185.802 155.394C185.838 151.074 185.802 146.919 185.823 142.959C185.823 127.119 185.849 114.289 185.856 105.426C185.856 100.994 185.856 97.5562 185.874 95.2198C185.874 94.057 185.874 93.1678 185.874 92.5666C185.874 91.9654 185.874 91.663 185.874 91.663C185.874 91.663 185.874 91.969 185.874 92.5666C185.874 93.1642 185.874 94.057 185.874 95.2198C185.874 97.5562 185.874 100.98 185.892 105.426C185.892 114.289 185.892 127.112 185.921 142.959C185.921 146.919 185.946 151.07 185.921 155.401C185.86 156.511 185.507 157.585 184.898 158.515C184.595 158.982 184.232 159.408 183.818 159.782C183.607 159.969 183.384 160.143 183.152 160.304C182.921 160.459 182.68 160.599 182.432 160.725C181.921 160.981 181.377 161.166 180.816 161.273C180.249 161.368 179.674 161.407 179.099 161.388H175.635H145.882H112.999H88.9187C88.1705 161.411 87.4215 161.389 86.6759 161.323C85.1522 161.123 83.7548 160.371 82.7483 159.21C81.732 158.046 81.1697 156.554 81.1643 155.009C81.1643 142.916 81.1643 131.115 81.1643 119.729V102.96C81.1643 100.219 81.1643 97.507 81.1643 94.8238V92.8186C81.1428 92.1495 81.1644 91.4797 81.2291 90.8134C81.3142 90.1483 81.5101 89.5022 81.8087 88.9018C82.0964 88.2987 82.4807 87.7467 82.9463 87.2674C83.4073 86.7934 83.9363 86.3905 84.5159 86.0722C85.0985 85.7629 85.7249 85.5444 86.3735 85.4242L86.8595 85.3486L87.3455 85.3234C87.6731 85.3054 87.9935 85.3234 88.3139 85.3234H112.229H138.149L175.686 85.3558H179.549L180.251 85.3918C180.478 85.4314 180.704 85.4566 180.92 85.5034C181.136 85.5502 181.349 85.6042 181.55 85.6762C182.303 85.9239 183.002 86.3097 183.613 86.8138C184.113 87.2374 184.546 87.7337 184.898 88.2862C185.377 89.0361 185.687 89.8813 185.806 90.763C185.842 90.9868 185.862 91.2131 185.863 91.4398C185.892 91.6162 185.892 91.6918 185.892 91.6918Z" fill="#263238"/>
<path d="M182.227 90.0936C182.941 89.9688 183.672 89.9688 184.387 90.0936C183.672 90.2184 182.941 90.2184 182.227 90.0936Z" fill="#263238"/>
<path d="M173.416 90.0936C174.882 89.9688 176.356 89.9688 177.822 90.0936C176.356 90.2184 174.882 90.2184 173.416 90.0936Z" fill="#263238"/>
<path d="M164.604 90.0934C166.068 89.9685 167.541 89.9685 169.006 90.0934C167.541 90.2183 166.068 90.2183 164.604 90.0934Z" fill="#263238"/>
<path d="M155.793 90.0936C157.259 89.9688 158.733 89.9688 160.199 90.0936C158.733 90.2184 157.259 90.2184 155.793 90.0936Z" fill="#263238"/>
<path d="M146.982 90.0934C148.447 89.9685 149.92 89.9685 151.385 90.0934C149.92 90.2183 148.447 90.2183 146.982 90.0934Z" fill="#263238"/>
<path d="M138.172 90.0936C139.638 89.9688 141.112 89.9688 142.578 90.0936C141.112 90.2184 139.638 90.2184 138.172 90.0936Z" fill="#263238"/>
<path d="M129.361 90.0934C130.826 89.9685 132.299 89.9685 133.764 90.0934C132.299 90.2183 130.826 90.2183 129.361 90.0934Z" fill="#263238"/>
<path d="M120.549 90.0936C122.015 89.9688 123.489 89.9688 124.955 90.0936C123.489 90.2184 122.015 90.2184 120.549 90.0936Z" fill="#263238"/>
<path d="M111.736 90.0934C113.202 89.9686 114.677 89.9686 116.143 90.0934C114.677 90.2181 113.202 90.2181 111.736 90.0934Z" fill="#263238"/>
<path d="M102.928 90.0935C103.655 90.0016 104.388 89.9703 105.12 89.9999C105.856 89.9697 106.593 90.001 107.323 90.0935C106.593 90.1882 105.856 90.2196 105.12 90.1871C104.388 90.2189 103.654 90.1876 102.928 90.0935Z" fill="#263238"/>
<path d="M94.1152 90.0935C94.8457 90.001 95.5827 89.9697 96.3184 89.9999C97.0542 89.9697 97.7911 90.001 98.5216 90.0935C97.7913 90.1882 97.0542 90.2196 96.3184 90.1871C95.5827 90.2196 94.8456 90.1882 94.1152 90.0935Z" fill="#263238"/>
<path d="M87.5514 92.2536C87.4565 91.5378 87.4252 90.8149 87.4578 90.0936L87.5514 90H88.3902L89.0778 90.0216C89.291 90.0138 89.5042 90.0356 89.7114 90.0864C89.5046 90.1397 89.2912 90.1627 89.0778 90.1548L88.3902 90.1728H87.987H87.5514L87.645 90.0792C87.6762 90.8053 87.6448 91.5328 87.5514 92.2536Z" fill="#263238"/>
<path d="M87.5513 100.328C87.4566 99.6593 87.4253 98.9831 87.4577 98.3085C87.4254 97.635 87.4567 96.96 87.5513 96.2925C87.6437 96.9602 87.6751 97.635 87.6449 98.3085C87.6751 98.9831 87.6438 99.6591 87.5513 100.328Z" fill="#263238"/>
<path d="M87.5526 108.403C87.4278 107.061 87.4278 105.71 87.5526 104.367C87.6774 105.71 87.6774 107.061 87.5526 108.403Z" fill="#263238"/>
<path d="M87.5526 116.478C87.4278 115.134 87.4278 113.782 87.5526 112.438C87.6774 113.782 87.6774 115.134 87.5526 116.478Z" fill="#263238"/>
<path d="M87.5526 124.56C87.4278 123.216 87.4278 121.864 87.5526 120.521C87.6774 121.864 87.6774 123.216 87.5526 124.56Z" fill="#263238"/>
<path d="M87.5526 132.624C87.4278 131.282 87.4278 129.931 87.5526 128.588C87.6774 129.931 87.6774 131.282 87.5526 132.624Z" fill="#263238"/>
<path d="M87.5526 140.699C87.4278 139.356 87.4278 138.005 87.5526 136.663C87.6774 138.005 87.6774 139.356 87.5526 140.699Z" fill="#263238"/>
<path d="M87.5526 148.773C87.4278 147.431 87.4278 146.08 87.5526 144.738C87.6774 146.08 87.6774 147.431 87.5526 148.773Z" fill="#263238"/>
<path d="M89.7123 154.973C88.9962 155.065 88.2736 155.096 87.5523 155.066C87.3651 154.879 87.4983 155.012 87.4587 154.969V154.541C87.4587 154.4 87.4587 154.267 87.4587 154.134C87.4587 153.896 87.4587 153.669 87.4587 153.446C87.4483 153.234 87.4714 153.021 87.5271 152.816C87.578 153.022 87.5998 153.234 87.5919 153.446C87.5919 153.669 87.5918 153.896 87.6134 154.134C87.6134 154.267 87.6134 154.4 87.6134 154.541C87.6134 154.609 87.6134 154.681 87.6134 154.753V154.969C87.5702 154.929 87.7071 155.066 87.5199 154.879C88.252 154.845 88.9857 154.876 89.7123 154.973Z" fill="#263238"/>
<path d="M98.3942 154.973C97.6781 155.065 96.9556 155.096 96.2342 155.066C95.5129 155.096 94.7903 155.065 94.0742 154.973C94.7901 154.879 95.5129 154.847 96.2342 154.879C96.9556 154.847 97.6783 154.879 98.3942 154.973Z" fill="#263238"/>
<path d="M107.078 154.973C106.362 155.065 105.639 155.096 104.918 155.066C104.196 155.096 103.474 155.065 102.758 154.973C103.474 154.879 104.196 154.847 104.918 154.879C105.639 154.847 106.362 154.879 107.078 154.973Z" fill="#263238"/>
<path d="M115.762 154.973C114.317 155.097 112.864 155.097 111.42 154.973C112.864 154.848 114.317 154.848 115.762 154.973Z" fill="#263238"/>
<path d="M124.443 154.973C122.999 155.097 121.546 155.097 120.102 154.973C121.546 154.848 122.999 154.848 124.443 154.973Z" fill="#263238"/>
<path d="M133.127 154.973C131.682 155.097 130.23 155.097 128.785 154.973C130.23 154.848 131.682 154.848 133.127 154.973Z" fill="#263238"/>
<path d="M141.81 154.973C140.366 155.097 138.913 155.097 137.469 154.973C138.913 154.848 140.366 154.848 141.81 154.973Z" fill="#263238"/>
<path d="M150.48 154.973C149.036 155.097 147.583 155.097 146.139 154.973C147.583 154.848 149.036 154.848 150.48 154.973Z" fill="#263238"/>
<path d="M159.178 154.973C157.733 155.097 156.28 155.097 154.836 154.973C156.28 154.848 157.733 154.848 159.178 154.973Z" fill="#263238"/>
<path d="M167.861 154.973C166.417 155.097 164.964 155.097 163.52 154.973C164.964 154.848 166.417 154.848 167.861 154.973Z" fill="#263238"/>
<path d="M176.547 154.973C175.102 155.098 173.65 155.098 172.205 154.973C173.65 154.848 175.102 154.848 176.547 154.973Z" fill="#263238"/>
<path d="M183.049 154.972C182.334 155.097 181.603 155.097 180.889 154.972C181.603 154.848 182.334 154.848 183.049 154.972Z" fill="#263238"/>
<g opacity="0.3">
<path d="M117.359 127.526C117.359 127.526 117.381 131.126 116.279 133.286C115.178 135.446 114.839 136.303 112.535 137.138C110.231 137.974 81.2441 141.16 81.2441 141.16V131.378L117.359 127.526Z" fill="black"/>
</g>
<g opacity="0.3">
<path d="M116.85 113.954C116.85 113.954 117.181 110.279 107.962 108.914C97.4175 107.356 81.2715 105.44 81.2715 105.44V112.392L116.85 113.954Z" fill="black"/>
</g>
<path d="M112.221 110.621H82.2297C79.3846 110.621 77.0781 112.927 77.0781 115.772V129.2C77.0781 132.045 79.3846 134.352 82.2297 134.352H112.221C115.066 134.352 117.373 132.045 117.373 129.2V115.772C117.373 112.927 115.066 110.621 112.221 110.621Z" fill="#F06168"/>
<path d="M82.2304 134.348C82.2304 134.348 82.126 134.348 81.9244 134.348C81.6223 134.337 81.3221 134.296 81.028 134.226C80.5469 134.117 80.0846 133.938 79.6564 133.693C79.0699 133.362 78.5548 132.918 78.1408 132.386C77.6164 131.72 77.264 130.935 77.1148 130.1C77.0398 129.624 77.0109 129.142 77.0284 128.66C77.0284 128.163 77.0284 127.645 77.0284 127.109C77.0284 124.967 77.0284 122.529 77.0284 119.833C77.0284 118.483 77.0284 117.075 77.0284 115.599C77.0526 114.821 77.2508 114.059 77.6084 113.367C77.9659 112.676 78.4739 112.073 79.0948 111.603C79.7475 111.102 80.5121 110.766 81.3232 110.624C81.7347 110.556 82.1518 110.527 82.5688 110.538H89.0488H112.247C113.029 110.536 113.801 110.71 114.506 111.046C115.211 111.383 115.832 111.873 116.322 112.482C116.972 113.278 117.37 114.249 117.467 115.272C117.507 115.779 117.492 116.273 117.496 116.766C117.496 117.752 117.496 118.73 117.496 119.7V125.413C117.496 126.345 117.496 127.271 117.496 128.181C117.496 128.642 117.514 129.089 117.496 129.549C117.483 129.778 117.455 130.005 117.413 130.23C117.364 130.451 117.304 130.67 117.233 130.885C116.94 131.728 116.437 132.482 115.771 133.076C115.105 133.67 114.299 134.084 113.428 134.28C113.22 134.328 113.01 134.365 112.798 134.391C112.586 134.409 112.373 134.417 112.161 134.424H108.507H99.6868L86.914 134.391L83.44 134.373H82.54H82.2304C82.2304 134.373 82.3348 134.373 82.54 134.373H83.44L86.914 134.355L99.6868 134.327H108.507H110.922C111.743 134.305 112.582 134.395 113.388 134.183C114.223 133.983 114.994 133.576 115.628 132.998C116.263 132.42 116.741 131.69 117.017 130.878C117.327 130.046 117.284 129.143 117.284 128.228V125.46C117.284 123.595 117.284 121.687 117.284 119.747V116.813C117.284 116.319 117.284 115.819 117.258 115.337C117.161 114.35 116.777 113.414 116.153 112.644C115.839 112.263 115.476 111.925 115.073 111.639C114.655 111.364 114.201 111.147 113.723 110.995C113.24 110.854 112.74 110.779 112.236 110.772H89.038H82.558C82.1495 110.761 81.7409 110.789 81.3376 110.855C80.5522 110.991 79.8112 111.314 79.1776 111.798C78.5737 112.253 78.0791 112.837 77.7303 113.508C77.3815 114.179 77.1872 114.919 77.1616 115.675C77.1436 117.14 77.1616 118.555 77.1616 119.905C77.1616 122.601 77.1616 125.039 77.1616 127.181C77.1616 127.717 77.1616 128.235 77.1616 128.732C77.1435 129.208 77.17 129.684 77.2408 130.154C77.4136 131.136 77.8675 132.046 78.5474 132.774C79.2273 133.503 80.104 134.018 81.0712 134.258C81.3628 134.331 81.6604 134.377 81.9604 134.395L82.2304 134.348Z" fill="#263238"/>
<path d="M105.233 132.005C109.997 132.005 113.859 128.143 113.859 123.379C113.859 118.615 109.997 114.753 105.233 114.753C100.469 114.753 96.6074 118.615 96.6074 123.379C96.6074 128.143 100.469 132.005 105.233 132.005Z" fill="#263238"/>
<path d="M107.445 130.424C108.175 130.154 108.867 129.791 109.505 129.344C110.183 128.847 110.772 128.238 111.247 127.544C111.838 126.702 112.23 125.736 112.391 124.72C112.553 123.704 112.48 122.664 112.179 121.68C111.944 120.872 111.571 120.111 111.078 119.43C110.612 118.807 110.068 118.248 109.458 117.767C109.458 117.767 109.512 117.788 109.598 117.846C109.731 117.929 109.86 118.019 109.983 118.116C110.437 118.473 110.841 118.888 111.186 119.351C111.703 120.036 112.096 120.807 112.345 121.629C112.665 122.637 112.745 123.705 112.579 124.749C112.413 125.793 112.005 126.783 111.387 127.641C110.898 128.342 110.288 128.952 109.587 129.441C109.117 129.774 108.603 130.042 108.061 130.237C107.915 130.293 107.766 130.34 107.615 130.377C107.562 130.404 107.504 130.42 107.445 130.424Z" fill="#FAFAFA"/>
<path d="M240.271 68.0904C240.563 71.2317 239.916 74.3889 238.412 77.1622C236.908 79.9354 234.615 82.2 231.823 83.669C229.031 85.138 225.866 85.7453 222.729 85.4141C219.591 85.0829 216.623 83.8279 214.199 81.8083C211.776 79.7886 210.006 77.0951 209.115 74.0689C208.223 71.0428 208.25 67.82 209.191 64.809C210.132 61.7979 211.946 59.1341 214.403 57.1547C216.86 55.1754 219.848 53.9697 222.991 53.6904C227.191 53.3122 231.37 54.6162 234.61 57.316C237.849 60.0158 239.885 63.8908 240.271 68.0904Z" fill="#F06168"/>
<g opacity="0.3">
<path d="M236.457 68.0401C236.385 68.0401 236.287 67.5253 236.01 66.6001C235.622 65.3243 235.039 64.1161 234.282 63.0181C233.76 62.2687 233.156 61.5793 232.482 60.9625C231.712 60.2546 230.852 59.6496 229.926 59.1625C229.428 58.8998 228.91 58.6748 228.378 58.4893C227.825 58.2948 227.258 58.142 226.683 58.0321C226.089 57.9181 225.487 57.8495 224.883 57.8269C224.258 57.8056 223.632 57.8309 223.011 57.9025C222.391 57.9795 221.777 58.0998 221.175 58.2625C220.591 58.4304 220.02 58.6422 219.468 58.8961C218.422 59.3765 217.452 60.0072 216.588 60.7681C215.804 61.4576 215.112 62.2452 214.529 63.1117C214.023 63.8719 213.603 64.6856 213.276 65.5381C212.802 66.7835 212.525 68.0953 212.455 69.4261C212.401 70.3765 212.434 70.9093 212.358 70.9201C212.283 70.9309 212.153 70.4053 212.092 69.4261C212.023 68.034 212.214 66.6412 212.653 65.3185C213.308 63.3291 214.466 61.5431 216.016 60.1345C216.929 59.2975 217.963 58.6022 219.083 58.0717C219.675 57.7916 220.289 57.5593 220.919 57.3769C221.568 57.1914 222.23 57.0554 222.899 56.9701C223.569 56.8938 224.244 56.8673 224.919 56.8909C225.574 56.9202 226.226 56.9996 226.87 57.1285C228.083 57.3759 229.253 57.803 230.34 58.3957C232.181 59.396 233.732 60.8542 234.844 62.6293C235.588 63.8085 236.105 65.116 236.37 66.4849C236.521 67.5001 236.521 68.0401 236.457 68.0401Z" fill="black"/>
</g>
<g opacity="0.3">
<path d="M220.348 63.3283L221.297 70.0693L219.949 70.259L220.139 71.6072L221.487 71.4175L221.677 72.7657L220.328 72.9554L220.518 74.3036L221.866 74.1138L222.246 76.8102L223.594 76.6205L223.214 73.9241L226.585 73.4497L226.395 72.1015L223.025 72.5759L222.835 71.2277L226.88 70.6584C229.104 70.3453 230.668 68.2691 230.355 66.0446C230.042 63.8201 227.965 62.2562 225.741 62.5693L220.348 63.3283ZM221.886 64.4867L225.931 63.9175C227.427 63.7069 228.796 64.7385 229.007 66.2343C229.217 67.7302 228.186 69.0997 226.69 69.3102L222.645 69.8795L221.886 64.4867Z" fill="#C62F44"/>
</g>
<path d="M212.307 70.6212C212.319 70.6526 212.328 70.6852 212.332 70.7184C212.332 70.794 212.361 70.8876 212.383 71.0028C212.405 71.118 212.426 71.2872 212.455 71.4636C212.484 71.6748 212.526 71.884 212.581 72.09C213.098 74.3339 214.236 76.3872 215.864 78.0156L216.433 78.534C216.53 78.6168 216.62 78.7104 216.724 78.7932L217.045 79.0308C217.261 79.1892 217.473 79.3656 217.704 79.5132L218.424 79.9488C219.454 80.5311 220.564 80.9616 221.718 81.2268C224.215 81.798 226.83 81.5571 229.18 80.5392C230.267 80.0681 231.279 79.4424 232.187 78.6816L232.813 78.1236C233.014 77.9364 233.173 77.724 233.371 77.5296C233.461 77.4324 233.554 77.3352 233.641 77.238C233.727 77.1408 233.803 77.0292 233.886 76.9284C234.04 76.7196 234.195 76.518 234.35 76.3164C234.875 75.5435 235.313 74.7154 235.657 73.8468C236.154 72.5825 236.438 71.2442 236.496 69.8868C236.51 69.6747 236.51 69.4618 236.496 69.2496C236.496 69.0696 236.496 68.9112 236.496 68.7816C236.496 68.652 236.496 68.5692 236.496 68.4936C236.493 68.4601 236.493 68.4264 236.496 68.3928C236.5 68.4251 236.5 68.4577 236.496 68.49C236.496 68.5656 236.496 68.6628 236.517 68.778C236.539 68.8932 236.517 69.066 236.542 69.2496C236.559 69.4629 236.559 69.6772 236.542 69.8904C236.513 71.2592 236.246 72.6124 235.754 73.89C235.418 74.7774 234.981 75.623 234.451 76.41L234.001 77.04C233.918 77.1444 233.842 77.256 233.756 77.3568L233.482 77.6556C233.299 77.8536 233.122 78.066 232.917 78.2568L232.287 78.8292C231.369 79.6042 230.343 80.242 229.242 80.7228C226.861 81.7574 224.212 82.0022 221.682 81.4212C220.51 81.1496 219.385 80.7081 218.341 80.1108L217.621 79.668C217.387 79.5168 217.175 79.3368 216.955 79.1784L216.634 78.9336C216.53 78.8508 216.436 78.7536 216.336 78.6672L215.752 78.12C215.091 77.4435 214.508 76.6948 214.014 75.888C213.297 74.7206 212.788 73.4381 212.509 72.0972C212.458 71.8901 212.421 71.6796 212.401 71.4672C212.379 71.2872 212.361 71.1288 212.343 70.9992C212.325 70.8696 212.322 70.7868 212.311 70.7112C212.307 70.6814 212.306 70.6513 212.307 70.6212Z" fill="#263238"/>
<path d="M217.801 115.074C217.009 116.726 215.744 118.106 214.167 119.039C212.59 119.972 210.771 120.416 208.941 120.315C207.112 120.214 205.353 119.572 203.889 118.471C202.424 117.37 201.319 115.859 200.713 114.129C200.108 112.4 200.029 110.529 200.487 108.755C200.946 106.981 201.92 105.382 203.287 104.162C204.654 102.942 206.352 102.155 208.167 101.9C209.982 101.646 211.831 101.936 213.481 102.733C214.575 103.26 215.555 103.997 216.364 104.902C217.173 105.807 217.796 106.863 218.197 108.009C218.599 109.155 218.77 110.369 218.702 111.581C218.634 112.793 218.328 113.98 217.801 115.074Z" fill="#F06168"/>
<g opacity="0.3">
<path d="M215.923 113.918C215.96 113.63 216.028 113.346 216.125 113.072C216.311 112.32 216.38 111.544 216.33 110.772C216.291 110.242 216.196 109.718 216.046 109.209C215.869 108.629 215.618 108.074 215.3 107.557C215.129 107.278 214.937 107.013 214.728 106.761C214.045 105.945 213.183 105.297 212.208 104.868C211.876 104.722 211.533 104.602 211.182 104.508C210.841 104.418 210.493 104.354 210.142 104.317C209.804 104.278 209.463 104.266 209.123 104.281C208.795 104.294 208.469 104.331 208.147 104.392C207.551 104.501 206.971 104.687 206.423 104.947C205.944 105.176 205.492 105.456 205.073 105.782C204.466 106.264 203.938 106.838 203.507 107.481C203.367 107.737 203.202 107.978 203.014 108.201C203.057 107.907 203.164 107.626 203.327 107.377C203.707 106.655 204.22 106.011 204.839 105.48C205.264 105.11 205.731 104.794 206.232 104.536C206.809 104.241 207.423 104.024 208.057 103.892C208.767 103.745 209.496 103.706 210.217 103.777C210.596 103.815 210.972 103.882 211.34 103.978C211.719 104.081 212.09 104.211 212.449 104.367C212.808 104.528 213.153 104.716 213.482 104.929C213.8 105.138 214.101 105.371 214.382 105.627C214.656 105.873 214.909 106.142 215.138 106.43C215.36 106.702 215.56 106.991 215.736 107.294C216.067 107.857 216.32 108.463 216.488 109.094C216.632 109.637 216.71 110.196 216.722 110.757C216.743 111.568 216.612 112.374 216.337 113.137C216.255 113.423 216.114 113.689 215.923 113.918Z" fill="black"/>
</g>
<path d="M209.408 107.273L208.045 110.682L207.363 110.409L207.091 111.091L207.773 111.364L207.5 112.046L206.818 111.773L206.545 112.455L207.227 112.728L206.682 114.092L207.364 114.364L207.909 113L209.614 113.682L209.887 113L208.182 112.319L208.455 111.637L210.5 112.455C211.625 112.904 212.914 112.352 213.364 111.227C213.814 110.102 213.261 108.813 212.136 108.363L209.408 107.273ZM209.818 108.227L211.863 109.045C212.62 109.348 212.984 110.198 212.682 110.954C212.379 111.711 211.529 112.075 210.773 111.773L208.727 110.955L209.818 108.227Z" fill="#C62F44"/>
<path d="M203.108 108C203.108 108 203 108.292 202.824 108.821C202.586 109.57 202.474 110.353 202.493 111.139C202.507 111.68 202.581 112.217 202.712 112.741C202.869 113.347 203.1 113.931 203.4 114.48C203.741 115.074 204.166 115.615 204.66 116.089C205.729 117.115 207.097 117.771 208.566 117.961C209.244 118.049 209.932 118.04 210.607 117.932C211.758 117.748 212.845 117.279 213.768 116.568C214.392 116.089 214.933 115.512 215.37 114.858C215.669 114.39 215.809 114.109 215.827 114.12C215.806 114.192 215.776 114.261 215.737 114.325C215.646 114.52 215.544 114.71 215.431 114.894C215.012 115.574 214.477 116.176 213.851 116.672C212.921 117.421 211.814 117.917 210.636 118.112C209.943 118.229 209.237 118.242 208.541 118.152C207.793 118.048 207.065 117.833 206.381 117.515C205.705 117.182 205.082 116.75 204.534 116.233C204.029 115.746 203.597 115.188 203.252 114.577C202.939 114.022 202.697 113.429 202.532 112.813C202.405 112.276 202.339 111.727 202.334 111.175C202.326 110.377 202.458 109.583 202.727 108.832C202.797 108.628 202.881 108.43 202.979 108.238C203.012 108.153 203.056 108.074 203.108 108Z" fill="#263238"/>
<path d="M64.9595 113.76C65.3981 116.72 64.9485 119.744 63.6675 122.448C62.3865 125.153 60.3318 127.416 57.7636 128.952C55.1954 130.488 52.2291 131.228 49.2404 131.077C46.2517 130.926 43.375 129.892 40.9745 128.105C38.5741 126.318 36.7578 123.859 35.7557 121.039C34.7537 118.22 34.6108 115.166 35.3454 112.265C36.0799 109.364 37.6587 106.746 39.8819 104.743C42.1052 102.74 44.8728 101.442 47.8343 101.012C49.7958 100.725 51.7948 100.826 53.717 101.311C55.6392 101.796 57.4471 102.655 59.0373 103.839C60.6276 105.023 61.9691 106.508 62.9852 108.211C64.0014 109.913 64.6722 111.799 64.9595 113.76Z" fill="#F06168"/>
<g opacity="0.3">
<path d="M61.3462 113.911C61.2778 113.911 61.1554 113.432 60.8458 112.586C60.4148 111.396 59.8001 110.281 59.0242 109.282C58.4928 108.602 57.8893 107.981 57.2242 107.431C56.4551 106.806 55.608 106.283 54.7042 105.876C54.2187 105.653 53.7168 105.468 53.203 105.322C52.6696 105.159 52.1243 105.039 51.5722 104.962C51.002 104.884 50.4267 104.85 49.8514 104.861C49.2588 104.876 48.6681 104.934 48.0838 105.034C47.5 105.14 46.9248 105.289 46.363 105.48C45.8189 105.67 45.2895 105.9 44.779 106.168C44.2863 106.427 43.8145 106.724 43.3678 107.057C42.9365 107.372 42.5287 107.719 42.1474 108.094C40.8217 109.397 39.8332 111.003 39.2674 112.774C38.8832 113.979 38.69 115.238 38.695 116.503C38.695 117.403 38.749 117.907 38.695 117.918C38.641 117.929 38.4718 117.443 38.3674 116.521C38.2254 115.206 38.3329 113.876 38.6842 112.601C38.9225 111.714 39.2658 110.858 39.7066 110.052C40.2195 109.126 40.8539 108.272 41.593 107.514C41.9929 107.102 42.4238 106.722 42.8818 106.376C43.3584 106.012 43.8628 105.686 44.3902 105.401C44.9369 105.105 45.5063 104.853 46.093 104.648C47.3031 104.221 48.5752 103.995 49.8586 103.979C50.48 103.972 51.101 104.013 51.7162 104.101C52.3103 104.185 52.8967 104.318 53.4694 104.497C54.018 104.665 54.5535 104.873 55.0714 105.12C56.8655 105.972 58.4103 107.271 59.557 108.893C60.3219 109.973 60.8808 111.185 61.2058 112.468C61.393 113.4 61.3966 113.904 61.3462 113.911Z" fill="black"/>
</g>
<path d="M38.6107 117.612C38.6215 117.641 38.63 117.672 38.6359 117.702C38.6539 117.771 38.6755 117.861 38.7007 117.969L38.7943 118.401C38.833 118.599 38.8834 118.795 38.9455 118.987C39.3032 120.223 39.864 121.391 40.6051 122.443C41.1163 123.167 41.7067 123.831 42.3655 124.423L42.9307 124.884C43.0279 124.96 43.1215 125.043 43.2223 125.115L43.5391 125.323C43.7515 125.46 43.9603 125.615 44.1871 125.745L44.8855 126.105C45.8923 126.602 46.9652 126.952 48.0715 127.145C49.2632 127.334 50.476 127.347 51.6715 127.185C52.8624 126.992 54.0192 126.628 55.1059 126.105C56.108 125.6 57.033 124.955 57.8527 124.189L58.4143 123.624C58.5979 123.437 58.7491 123.228 58.9147 123.037L59.1559 122.746C59.2351 122.645 59.2999 122.541 59.3683 122.44C59.5087 122.235 59.6419 122.033 59.7787 121.835C60.2342 121.076 60.606 120.27 60.8875 119.43C61.2925 118.208 61.4909 116.927 61.4743 115.639C61.4814 115.437 61.4729 115.235 61.4491 115.035C61.4491 114.865 61.4239 114.718 61.4167 114.592C61.4095 114.466 61.4167 114.394 61.3987 114.318C61.394 114.287 61.394 114.256 61.3987 114.225C61.4097 114.255 61.4158 114.286 61.4167 114.318C61.4167 114.39 61.4383 114.48 61.4527 114.588C61.4671 114.696 61.4851 114.862 61.5067 115.031C61.5342 115.233 61.5475 115.436 61.5463 115.639C61.593 116.937 61.4127 118.234 61.0135 119.47C60.7395 120.325 60.3687 121.147 59.9083 121.918L59.5015 122.53C59.4295 122.634 59.3647 122.742 59.2855 122.843L59.0443 123.138C58.8787 123.336 58.7239 123.549 58.5403 123.739C58.3567 123.93 58.1803 124.121 57.9715 124.312C57.1422 125.096 56.2037 125.755 55.1851 126.27C52.9799 127.377 50.4775 127.747 48.0463 127.325C46.9198 127.123 45.8285 126.76 44.8063 126.245L44.0863 125.86C43.8559 125.73 43.6471 125.572 43.4311 125.431L43.1107 125.219C43.0099 125.143 42.9163 125.057 42.8155 124.981L42.2467 124.513C41.5845 123.907 40.9928 123.229 40.4827 122.49C39.7437 121.421 39.1955 120.233 38.8627 118.977C38.801 118.783 38.7552 118.584 38.7259 118.383C38.6971 118.213 38.6719 118.069 38.6467 117.943L38.6035 117.673C38.6042 117.653 38.6066 117.632 38.6107 117.612Z" fill="#263238"/>
<path d="M255.05 161.352C255.05 161.406 201.298 161.449 135.008 161.449C68.7172 161.449 14.9512 161.406 14.9512 161.352C14.9512 161.298 68.692 161.258 135.008 161.258C201.323 161.258 255.05 161.302 255.05 161.352Z" fill="#263238"/>
<path d="M199.08 93.7222C199.08 93.7222 199.054 91.3282 198.95 91.3066L194.04 92.4046C193.986 92.7142 193.366 96.6454 193.471 97.027L199.011 98.5642C199.011 98.5642 199.08 93.8626 199.08 93.7222Z" fill="#FFBE9D"/>
<path d="M199.079 98.2009C199.094 98.167 199.102 98.1301 199.1 98.0929C199.158 97.5565 199.126 95.2129 198.838 95.1157C198.55 95.0185 197.718 95.1841 197.664 95.4937C197.61 95.8033 197.797 98.4385 197.797 98.4385C197.797 98.4385 197.851 98.8525 198.55 98.9533C198.989 99.0001 199.079 98.2009 199.079 98.2009Z" fill="#FFBE9D"/>
<path d="M197.682 99.0433C197.698 99.0095 197.705 98.9725 197.704 98.9354C197.762 98.399 197.729 96.0554 197.441 95.9546C197.153 95.8538 196.322 96.0266 196.268 96.3362C196.214 96.6458 196.401 99.281 196.401 99.281C196.401 99.281 196.455 99.6949 197.153 99.7957C197.585 99.8569 197.682 99.0433 197.682 99.0433Z" fill="#FFBE9D"/>
<path d="M196.307 99.4608C196.307 99.4608 196.325 99.4176 196.333 99.3528C196.39 98.8164 196.354 96.4728 196.07 96.3756C195.785 96.2784 194.947 96.4476 194.893 96.7572C194.839 97.0668 195.026 99.6984 195.026 99.6984C195.026 99.6984 195.08 100.116 195.778 100.217C196.199 100.278 196.307 99.4608 196.307 99.4608Z" fill="#FFBE9D"/>
<path d="M194.939 99.8568C194.939 99.8568 194.939 99.8136 194.965 99.7488C195.022 99.2124 194.986 96.8688 194.702 96.7716C194.417 96.6744 193.582 96.8436 193.525 97.1496C193.467 97.4556 193.658 100.094 193.658 100.094C193.658 100.094 193.715 100.508 194.414 100.609C194.846 100.674 194.939 99.8568 194.939 99.8568Z" fill="#FFBE9D"/>
<path d="M197.661 96.1777C197.744 96.5521 197.78 96.9355 197.769 97.3189C197.806 97.6945 197.794 98.0733 197.733 98.4457C197.649 98.0713 197.613 97.688 197.625 97.3045C197.587 96.929 197.599 96.5501 197.661 96.1777Z" fill="#EB996E"/>
<path d="M196.278 96.1704C196.373 96.7051 196.417 97.2474 196.411 97.7904C196.457 98.3322 196.451 98.877 196.393 99.4176C196.303 98.8824 196.26 98.3404 196.264 97.7976C196.22 97.2558 196.225 96.7113 196.278 96.1704Z" fill="#EB996E"/>
<g opacity="0.78">
<path d="M194.879 96.2856C194.969 96.8208 195.013 97.3629 195.009 97.9056C195.057 98.447 195.057 98.9915 195.009 99.5329C194.916 98.9979 194.871 98.4557 194.875 97.9129C194.829 97.3714 194.831 96.8269 194.879 96.2856Z" fill="#EB996E"/>
</g>
<path d="M193.996 92.52C193.996 92.52 192.049 96.948 192.333 97.2252C192.707 97.4987 193.109 97.7316 193.532 97.92L193.996 92.52Z" fill="#FFBE9D"/>
<path d="M183.24 33.1489L181.8 49.7089L173.52 49.0465C173.466 48.0781 173.538 44.3305 173.538 44.3305C173.538 44.3305 170.085 43.7941 170.042 40.3453C170.024 38.6713 170.262 35.2081 170.514 32.0869C170.648 30.4237 171.428 28.8792 172.687 27.7839C173.946 26.6885 175.583 26.1294 177.249 26.2261C178.101 26.2758 178.934 26.4959 179.7 26.8732C180.465 27.2504 181.148 27.7773 181.706 28.4227C182.264 29.068 182.688 29.8188 182.951 30.6305C183.215 31.4423 183.313 32.2986 183.24 33.1489Z" fill="#FFBE9D"/>
<path d="M173.519 44.2801C175.112 44.3094 176.677 43.8632 178.015 42.9985C178.015 42.9985 176.935 45.4825 173.512 45.1585L173.519 44.2801Z" fill="#EB996E"/>
<path d="M171.414 34.5059C171.414 34.634 171.463 34.7572 171.552 34.8498C171.64 34.9424 171.761 34.9972 171.889 35.0027C171.952 35.0081 172.015 35.0009 172.075 34.9813C172.135 34.9618 172.19 34.9305 172.237 34.8891C172.284 34.8478 172.323 34.7974 172.35 34.7408C172.378 34.6842 172.394 34.6227 172.397 34.5599C172.4 34.4313 172.352 34.3067 172.264 34.213C172.175 34.1194 172.054 34.0642 171.925 34.0595C171.862 34.0546 171.799 34.0624 171.739 34.0823C171.679 34.1021 171.624 34.1338 171.576 34.1754C171.528 34.2169 171.489 34.2676 171.462 34.3243C171.434 34.3811 171.418 34.4428 171.414 34.5059Z" fill="#263238"/>
<path d="M171.234 33.8399C171.295 33.9047 171.67 33.6275 172.199 33.6311C172.728 33.6347 173.117 33.8975 173.174 33.8327C173.232 33.7679 173.142 33.6887 172.973 33.5627C172.742 33.4047 172.468 33.3206 172.188 33.3215C171.913 33.3234 171.645 33.4102 171.421 33.5699C171.259 33.6815 171.205 33.7967 171.234 33.8399Z" fill="#263238"/>
<path d="M176.633 34.5059C176.633 34.6358 176.684 34.7606 176.774 34.8535C176.865 34.9463 176.989 34.9999 177.119 35.0027C177.181 35.0066 177.243 34.9982 177.301 34.978C177.36 34.9578 177.413 34.9262 177.46 34.885C177.506 34.8438 177.543 34.7939 177.57 34.7381C177.597 34.6823 177.612 34.6217 177.616 34.5599C177.619 34.4313 177.571 34.3067 177.482 34.213C177.394 34.1194 177.273 34.0642 177.144 34.0595C177.081 34.0546 177.018 34.0624 176.958 34.0823C176.898 34.1021 176.842 34.1338 176.795 34.1754C176.747 34.2169 176.708 34.2676 176.68 34.3243C176.653 34.3811 176.636 34.4428 176.633 34.5059Z" fill="#263238"/>
<path d="M176.442 33.9262C176.503 33.991 176.878 33.7138 177.407 33.7138C177.936 33.7138 178.328 33.9802 178.386 33.9154C178.444 33.8506 178.35 33.7714 178.181 33.649C177.951 33.4902 177.679 33.406 177.4 33.4078C177.124 33.4049 176.855 33.4921 176.633 33.6562C176.471 33.7822 176.399 33.8974 176.442 33.9262Z" fill="#263238"/>
<path d="M174.521 37.8574C174.242 37.7711 173.953 37.7191 173.661 37.7026C173.524 37.7026 173.398 37.6594 173.373 37.5694C173.361 37.429 173.393 37.2885 173.463 37.1662L173.866 36.1366C174.42 34.6678 174.824 33.4618 174.762 33.4402C174.701 33.4186 174.204 34.5886 173.65 36.0574C173.517 36.4174 173.387 36.7774 173.265 37.0942C173.181 37.2585 173.157 37.4469 173.196 37.627C173.217 37.6741 173.248 37.7161 173.286 37.7502C173.325 37.7844 173.37 37.8099 173.42 37.825C173.495 37.8434 173.572 37.8543 173.65 37.8574C173.939 37.8939 174.232 37.8939 174.521 37.8574Z" fill="#263238"/>
<path d="M176.079 38.2247C175.993 38.2247 175.993 38.7935 175.499 39.2039C175.006 39.6143 174.394 39.5639 174.391 39.6287C174.387 39.6935 174.527 39.7403 174.787 39.7475C175.123 39.751 175.451 39.6364 175.712 39.4235C175.964 39.22 176.126 38.925 176.162 38.6027C176.183 38.3615 176.119 38.2211 176.079 38.2247Z" fill="#263238"/>
<path d="M176.305 31.8491C176.359 31.9931 176.889 31.9247 177.511 32.0003C178.134 32.0759 178.635 32.2451 178.717 32.1155C178.753 32.0507 178.667 31.9175 178.465 31.7771C178.195 31.6062 177.889 31.4992 177.571 31.4642C177.252 31.4293 176.931 31.4673 176.629 31.5755C176.399 31.6799 176.284 31.7807 176.305 31.8491Z" fill="#263238"/>
<path d="M171.429 32.292C171.522 32.4144 171.886 32.292 172.325 32.292C172.764 32.292 173.139 32.3748 173.225 32.2488C173.261 32.1876 173.204 32.0652 173.042 31.9536C172.824 31.8185 172.571 31.7505 172.315 31.7582C172.059 31.7658 171.811 31.8489 171.602 31.9968C171.44 32.1084 171.389 32.2344 171.429 32.292Z" fill="#263238"/>
<path d="M183.96 31.0176C183.762 32.6916 183.305 34.812 183.172 36.5256C183.174 36.6852 183.132 36.8423 183.05 36.9792C182.805 37.3032 182.218 38.0088 181.919 37.728C181.199 37.0512 180.911 35.1576 180.764 34.1748C180.616 33.192 180.645 32.1912 180.512 31.2048V31.1364C180.414 30.4459 180.054 29.8195 179.507 29.3868C179.383 29.2985 179.247 29.2271 179.104 29.1744C178.089 28.8144 176.4 29.4768 175.389 29.844C174.87 30.0348 174.363 30.2688 173.859 30.4992C173.291 30.7664 172.664 30.8795 172.038 30.827C171.413 30.7746 170.813 30.5584 170.298 30.2004C169.683 29.754 169.629 28.3464 169.899 27.4572C170.619 25.056 173.646 24.2172 177.524 25.146C181.401 26.0748 184.356 27.5688 183.96 31.0176Z" fill="#263238"/>
<path d="M182.059 34.7112C182.116 34.686 184.428 33.9912 184.352 36.3672C184.276 38.7432 181.926 38.1672 181.922 38.0988C181.918 38.0304 182.059 34.7112 182.059 34.7112Z" fill="#FFBE9D"/>
<path d="M182.673 37.2277C182.673 37.2277 182.713 37.2565 182.781 37.2925C182.879 37.3323 182.989 37.3323 183.087 37.2925C183.243 37.201 183.371 37.0697 183.459 36.9122C183.547 36.7546 183.592 36.5765 183.588 36.3961C183.6 36.1933 183.566 35.9905 183.491 35.8021C183.471 35.7277 183.434 35.6592 183.382 35.6027C183.33 35.5462 183.264 35.5034 183.192 35.4781C183.145 35.4643 183.095 35.4672 183.051 35.4862C183.006 35.5053 182.969 35.5393 182.947 35.5825C182.911 35.6473 182.925 35.6941 182.911 35.6977C182.897 35.7013 182.864 35.6581 182.886 35.5609C182.9 35.5029 182.935 35.4518 182.983 35.4169C183.05 35.3701 183.133 35.3508 183.213 35.3629C183.31 35.3855 183.399 35.4325 183.472 35.4993C183.545 35.5661 183.6 35.6505 183.631 35.7445C183.723 35.9512 183.764 36.1773 183.75 36.4033C183.753 36.6133 183.696 36.8198 183.584 36.9976C183.472 37.1753 183.311 37.3166 183.12 37.4041C183.058 37.4195 182.993 37.4208 182.931 37.4077C182.869 37.3946 182.81 37.3675 182.76 37.3285C182.673 37.2853 182.663 37.2313 182.673 37.2277Z" fill="#EB996E"/>
<path d="M183.923 31.176C183.406 31.461 182.827 31.6156 182.237 31.6263C181.646 31.6369 181.062 31.5034 180.535 31.2372C181.095 31.3523 181.663 31.4198 182.234 31.4388C182.803 31.398 183.368 31.3101 183.923 31.176Z" fill="#455A64"/>
<path d="M183.841 31.8528C183.363 32.1654 182.799 32.3226 182.228 32.3028C181.656 32.343 181.086 32.2073 180.594 31.914C181.131 32.0241 181.676 32.0903 182.225 32.112C182.77 32.0712 183.31 31.9845 183.841 31.8528Z" fill="#455A64"/>
<path d="M167.43 149.346L168.963 156.406C168.963 156.406 162.303 160.333 162.462 161.665L176.25 159.185L174.313 148.09L167.43 149.346Z" fill="#263238"/>
<path d="M176.25 159.185L176.012 158.072L162.88 160.866C162.88 160.866 162.314 161.226 162.462 161.665L176.25 159.185Z" fill="#455A64"/>
<path d="M183.115 150.12L183.342 157.338C183.342 157.338 176.081 159.995 175.994 161.33L190.005 161.391L190.113 150.131L183.115 150.12Z" fill="#263238"/>
<g opacity="0.6">
<path d="M190.005 161.395L189.972 160.261L176.552 160.621C176.552 160.621 175.925 160.888 175.994 161.341L190.005 161.395Z" fill="#455A64"/>
</g>
<path d="M166.68 155.401C166.68 155.401 159.48 120.168 159.48 119.462L172.318 112.68L177.286 154.026L166.68 155.401Z" fill="#263238"/>
<path d="M182.828 156.6L172.91 95.5186V82.3462L186.461 83.6062C186.633 84.1174 191.069 156.661 191.069 156.661L189.672 156.582H182.832" fill="#263238"/>
<path d="M165.11 81.4141L159.486 119.462L172.061 116.413L177.184 82.6525L165.11 81.4141Z" fill="#263238"/>
<path d="M176.76 84.6396C176.76 84.6396 176.76 84.7044 176.76 84.8268C176.76 84.9492 176.792 85.14 176.817 85.374C176.875 85.86 176.954 86.5656 177.059 87.4692C177.271 89.2908 177.595 91.9224 178.02 95.1732C178.859 101.671 180.129 110.653 181.497 120.542C182.181 125.496 182.808 130.219 183.341 134.518C183.481 135.598 183.589 136.645 183.74 137.66C183.891 138.676 184.046 139.662 184.194 140.612C184.482 142.517 184.752 144.292 184.997 145.912C185.483 149.152 185.868 151.776 186.12 153.59C186.246 154.498 186.339 155.203 186.393 155.682C186.422 155.923 186.44 156.103 186.447 156.229C186.451 156.275 186.451 156.321 186.447 156.366C186.447 156.406 186.426 156.366 186.426 156.366C186.426 156.366 186.455 156.366 186.451 156.366C186.458 156.319 186.458 156.272 186.451 156.226C186.451 156.103 186.451 155.92 186.415 155.678C186.372 155.2 186.289 154.49 186.174 153.583C185.94 151.765 185.576 149.137 185.094 145.894C184.853 144.274 184.59 142.499 184.309 140.591C184.165 139.64 184.017 138.654 183.866 137.639C183.715 136.624 183.611 135.572 183.474 134.5C182.948 130.198 182.325 125.474 181.645 120.517C180.277 110.614 178.985 101.653 178.113 95.1553L177.12 87.48C177.005 86.5764 176.911 85.8744 176.85 85.3884L176.774 84.8448C176.76 84.7044 176.76 84.6396 176.76 84.6396Z" fill="#455A64"/>
<path d="M169.201 155.074C169.201 155.074 169.201 155.013 169.176 154.894C169.15 154.775 169.125 154.591 169.089 154.365C169.01 153.897 168.895 153.213 168.729 152.338L167.422 144.889L163.052 120.33C162.923 119.745 162.887 119.144 162.948 118.548C163.02 117.961 163.12 117.364 163.207 116.781C163.387 115.607 163.566 114.452 163.743 113.317C164.103 111.049 164.463 108.86 164.798 106.78C165.493 102.618 166.159 98.8597 166.756 95.7385C167.354 92.6173 167.88 90.0757 168.279 88.3369C168.466 87.4621 168.639 86.7925 168.744 86.3317C168.798 86.1085 168.837 85.9357 168.866 85.8133C168.895 85.6909 168.898 85.6333 168.898 85.6333C168.898 85.6333 168.898 85.6909 168.848 85.8097C168.798 85.9285 168.769 86.1013 168.711 86.3245C168.592 86.7817 168.412 87.4513 168.214 88.3189C167.793 90.0577 167.25 92.5813 166.638 95.7169C166.026 98.8525 165.342 102.589 164.643 106.755C164.283 108.835 163.923 111.024 163.563 113.292C163.386 114.427 163.207 115.582 163.027 116.755C162.937 117.342 162.84 117.925 162.764 118.53C162.705 119.143 162.741 119.761 162.872 120.363C164.596 129.946 166.159 138.622 167.293 144.911C167.865 148.047 168.33 150.588 168.654 152.349C168.816 153.223 168.942 153.904 169.032 154.372C169.075 154.595 169.107 154.771 169.132 154.897C169.158 155.023 169.201 155.074 169.201 155.074Z" fill="#455A64"/>
<path d="M172.911 95.0869C172.861 95.0869 173.448 99.0469 174.218 103.896C174.988 108.745 175.658 112.687 175.698 112.68C175.737 112.673 175.158 108.72 174.387 103.871C173.617 99.0217 172.958 95.0797 172.911 95.0869Z" fill="#455A64"/>
<path d="M182.711 156.47C182.817 156.506 182.927 156.526 183.039 156.528C183.247 156.553 183.553 156.582 183.928 156.611C184.684 156.672 185.728 156.726 186.88 156.744C188.032 156.762 189.079 156.744 189.835 156.708C190.195 156.708 190.516 156.672 190.728 156.654C190.839 156.652 190.949 156.638 191.056 156.611C190.649 156.577 190.24 156.568 189.832 156.586C189.076 156.586 188.032 156.586 186.883 156.586C185.735 156.586 184.691 156.532 183.935 156.503C183.528 156.467 183.119 156.456 182.711 156.47Z" fill="#455A64"/>
<path d="M166.68 155.401C166.82 155.408 166.962 155.401 167.101 155.38L168.238 155.257C169.203 155.149 170.528 154.984 171.993 154.796C173.458 154.609 174.783 154.436 175.741 154.285L176.875 154.112C177.015 154.096 177.154 154.067 177.289 154.026C177.149 154.012 177.008 154.012 176.868 154.026C176.598 154.051 176.205 154.091 175.726 154.145C174.765 154.253 173.437 154.415 171.972 154.606C170.506 154.796 169.182 154.966 168.224 155.12L167.09 155.293C166.95 155.315 166.812 155.351 166.68 155.401Z" fill="#455A64"/>
<path d="M147.793 58.9247L155.878 65.0771C155.878 65.0771 163.402 52.2395 164.068 51.4403C164.734 50.6411 166.423 49.7915 166.423 49.7915L165.494 66.2399C165.494 66.2399 161.422 76.6295 155.835 76.0643C151.558 75.6323 144.164 64.3463 144.164 64.3463L147.793 58.9247Z" fill="#455A64"/>
<g opacity="0.2">
<path d="M155.733 64.8828C155.175 65.7509 154.813 66.7299 154.672 67.752C154.531 68.774 154.614 69.8145 154.916 70.8012C154.959 71.0089 155.075 71.1943 155.243 71.3232C155.388 71.3848 155.55 71.3913 155.7 71.3416C155.849 71.2919 155.975 71.1893 156.053 71.0532C156.199 70.7721 156.271 70.4588 156.262 70.1424C156.396 70.447 156.601 70.7149 156.86 70.9236C156.992 71.0241 157.155 71.0758 157.321 71.0699C157.487 71.064 157.646 71.0008 157.771 70.8912C158.037 70.596 157.889 70.128 157.727 69.7608C157.041 68.2008 156.352 66.6408 155.661 65.0808" fill="black"/>
</g>
<path d="M149.828 60.7679C149.878 60.8003 149.05 62.1899 147.974 63.8711C146.897 65.5523 145.99 66.8879 145.94 66.8555C145.889 66.8231 146.717 65.4155 147.79 63.7523C148.863 62.0891 149.777 60.7355 149.828 60.7679Z" fill="#263238"/>
<path d="M147.768 60.5411C147.746 60.5411 147.851 60.4151 148.034 60.4871C148.088 60.5087 148.136 60.5428 148.173 60.5867C148.211 60.6305 148.237 60.6828 148.25 60.7391C148.267 60.8156 148.258 60.8954 148.224 60.9664C148.191 61.0373 148.136 61.0955 148.067 61.1321C147.997 61.1687 147.918 61.1818 147.841 61.1693C147.764 61.1569 147.693 61.1196 147.638 61.0631C147.599 61.0201 147.57 60.9682 147.555 60.9117C147.54 60.8553 147.539 60.796 147.552 60.7391C147.599 60.5483 147.746 60.5231 147.75 60.5519C147.754 60.5807 147.7 60.6419 147.707 60.7571C147.714 60.8723 147.808 60.9947 147.955 60.9191C147.982 60.9052 148.005 60.8841 148.021 60.858C148.037 60.832 148.046 60.802 148.046 60.7715C148.046 60.7409 148.037 60.7109 148.021 60.6849C148.005 60.6588 147.982 60.6377 147.955 60.6239C147.872 60.5519 147.782 60.5699 147.768 60.5411Z" fill="#263238"/>
<path d="M155.879 68.9759C155.616 68.364 155.493 67.701 155.519 67.0355C155.501 65.9303 155.775 65.0663 155.829 65.0843C155.883 65.1023 155.717 65.9591 155.739 67.0319C155.76 68.1047 155.955 68.9579 155.879 68.9759Z" fill="#263238"/>
<path d="M157.459 68.9185C157.409 68.9509 156.88 68.1697 156.423 67.1005C156.113 66.4702 155.907 65.7944 155.811 65.0989C155.872 65.0809 156.171 65.9629 156.624 67.0141C157.078 68.0653 157.513 68.8861 157.459 68.9185Z" fill="#263238"/>
<path d="M183.355 48.24L182.131 45.8208H173.286L171.893 48.5676L166.428 49.806L164.074 85.0464C164.059 85.493 164.167 85.9351 164.387 86.3244L185.875 87.12L186.75 87.48C187.52 87.0048 187.042 85.0392 187.049 84.1176L187.326 66.6648L191.578 52.7184L183.355 48.24Z" fill="#455A64"/>
<g opacity="0.2">
<path d="M174.186 49.4495L175.748 47.8835C176.334 49.2995 176.919 50.7119 177.505 52.1207C179.529 50.9329 181.455 49.5859 183.265 48.0923L177.314 50.0039C176.81 48.6671 176.307 47.3327 175.806 46.0007C175.451 47.2137 174.948 48.3781 174.308 49.4675" fill="black"/>
</g>
<path d="M199.119 92.4155L193.326 92.7143V76.0931L187.336 66.6791L191.588 52.7327C192.462 53.0927 199.061 69.6527 200.742 74.1455C200.984 74.7938 201.091 75.4848 201.056 76.1759L199.119 92.4155Z" fill="#455A64"/>
<path d="M166.427 57.0635C166.489 57.0635 166.201 60.4799 165.787 64.6739C165.373 68.8679 164.987 72.2735 164.926 72.2663C164.865 72.2591 165.153 68.8535 165.571 64.6523C165.988 60.4511 166.37 57.0599 166.427 57.0635Z" fill="#263238"/>
<path d="M175.795 46.0115C175.51 46.9795 175.158 47.9262 174.74 48.8447L174.621 49.1291C174.584 49.2425 174.519 49.3443 174.43 49.4243C174.375 49.4641 174.309 49.4872 174.241 49.4911C174.173 49.4949 174.105 49.4792 174.045 49.4459C173.961 49.3999 173.879 49.3494 173.8 49.2947L173.005 48.7547C172.749 48.6038 172.513 48.4211 172.303 48.2111C172.58 48.3162 172.844 48.4553 173.088 48.6251L173.908 49.1219C174.067 49.2227 174.225 49.3379 174.297 49.2551C174.402 49.104 174.484 48.9377 174.538 48.7619C175.176 47.2175 175.737 45.9899 175.795 46.0115Z" fill="#263238"/>
<path d="M182.829 48.1716C182.393 48.386 181.942 48.5677 181.479 48.7152C180.633 49.0248 179.463 49.4352 178.167 49.8816L177.447 50.1228L177.35 50.1552L177.314 50.0616C176.856 48.9564 176.46 47.9808 176.19 47.2752C176.025 46.905 175.891 46.5222 175.787 46.1304C175.996 46.4742 176.174 46.8356 176.32 47.2104C176.63 47.898 177.04 48.8664 177.512 49.968L177.378 49.9068L178.098 49.662C179.398 49.2192 180.575 48.8304 181.432 48.5568C181.886 48.3912 182.354 48.2623 182.829 48.1716Z" fill="#263238"/>
<path d="M190.667 53.2295C190.667 53.2943 189.44 53.6327 187.996 54.2771C186.553 54.9215 185.476 55.6163 185.426 55.5623C185.624 55.3574 185.852 55.1838 186.103 55.0475C187.257 54.3128 188.514 53.7535 189.832 53.3879C190.101 53.2943 190.383 53.241 190.667 53.2295Z" fill="#263238"/>
<path d="M175.794 46.0115C175.799 46.0461 175.799 46.0812 175.794 46.1159C175.794 46.1987 175.794 46.2995 175.794 46.4255C175.794 46.6991 175.819 47.0987 175.823 47.6171C175.823 48.6503 175.823 50.1371 175.754 51.9947C175.625 55.6919 175.16 60.7859 174.426 66.3767C174.066 69.1775 173.67 71.8343 173.404 74.2607C173.147 76.411 173.027 78.5753 173.044 80.7407C173.068 82.1978 173.189 83.6517 173.404 85.0931C173.468 85.6079 173.551 86.0003 173.591 86.2667C173.609 86.3927 173.623 86.4935 173.634 86.5763C173.639 86.6109 173.639 86.646 173.634 86.6807C173.619 86.6487 173.608 86.6148 173.602 86.5799C173.584 86.4971 173.562 86.3999 173.533 86.2775C173.483 86.0111 173.386 85.6187 173.31 85.1075C173.065 83.6652 172.926 82.2069 172.896 80.7443C172.854 78.58 172.955 76.4152 173.198 74.2643C173.454 71.8307 173.846 69.1703 174.203 66.3767C174.923 60.7859 175.427 55.7027 175.596 52.0127C175.69 50.1695 175.718 48.6755 175.733 47.6423C175.733 47.1383 175.733 46.7423 175.733 46.4507C175.733 46.3283 175.733 46.2239 175.733 46.1411C175.745 46.0945 175.766 46.0506 175.794 46.0115Z" fill="#263238"/>
<path d="M199.44 89.8703C199.44 89.9315 198.065 89.9135 196.369 89.8307C194.673 89.7479 193.309 89.6327 193.313 89.5715C193.316 89.5103 194.688 89.5283 196.38 89.6111C197.404 89.6263 198.427 89.7129 199.44 89.8703Z" fill="#263238"/>
<path d="M194.294 90.5183C194.294 90.5435 194.294 90.6011 194.294 90.6767C194.294 90.7523 194.388 90.7991 194.463 90.7379C194.539 90.6767 194.514 90.6083 194.442 90.5579C194.37 90.5075 194.312 90.5291 194.291 90.5075C194.269 90.4859 194.33 90.3887 194.485 90.4103C194.532 90.4169 194.576 90.4357 194.613 90.4648C194.651 90.4938 194.68 90.5322 194.697 90.5759C194.72 90.6342 194.722 90.6981 194.705 90.758C194.687 90.8178 194.65 90.8702 194.6 90.9071C194.552 90.9517 194.49 90.9785 194.425 90.9831C194.359 90.9877 194.294 90.9698 194.24 90.9323C194.202 90.9053 194.171 90.869 194.15 90.8269C194.129 90.7847 194.119 90.7381 194.121 90.6911C194.168 90.5327 194.283 90.4931 194.294 90.5183Z" fill="#263238"/>
<g opacity="0.2">
<path d="M187.408 66.6323L185.522 63.2231C184.77 69.2401 185.193 75.3457 186.767 81.2015L187.35 66.7079" fill="black"/>
</g>
<path d="M177.839 60.3685C177.958 60.35 178.079 60.3428 178.199 60.3469L179.204 60.3217C180.079 60.3037 181.342 60.2821 182.861 60.2749H182.962V60.3757C182.865 61.7077 182.753 63.2557 182.631 64.8901V64.9513L182.577 64.9801L182.35 65.0989L179.906 66.3841L179.845 66.4165L179.791 66.3733L177.479 64.5157L177.443 64.4869V64.4401C177.551 63.2197 177.638 62.2009 177.703 61.4485C177.735 61.1245 177.764 60.8545 177.785 60.6385C177.789 60.5474 177.803 60.4569 177.825 60.3685C177.833 60.4716 177.833 60.575 177.825 60.6781C177.825 60.8977 177.803 61.1749 177.789 61.5097C177.749 62.2297 177.692 63.2521 177.623 64.4509L177.591 64.3753L179.884 66.2077H179.769L182.21 64.9153L182.433 64.7965L182.375 64.8829C182.509 63.2413 182.631 61.7041 182.735 60.3721L182.833 60.4765C181.353 60.4765 180.115 60.4477 179.233 60.4297L178.203 60.4045C178.081 60.3994 177.96 60.3873 177.839 60.3685Z" fill="#263238"/>
<path d="M167.201 86.4863C167.201 86.5439 166.747 86.4647 166.456 86.0291C166.164 85.5935 166.254 85.1471 166.312 85.1687C166.369 85.1903 166.387 85.5287 166.639 85.8887C166.891 86.2487 167.219 86.4251 167.201 86.4863Z" fill="#263238"/>
<path d="M167.759 86.2523C167.463 85.9879 167.252 85.6409 167.155 85.256C167.057 84.8711 167.077 84.4658 167.212 84.0923C167.276 84.0923 167.212 84.6107 167.366 85.2047C167.521 85.7987 167.809 86.2127 167.759 86.2523Z" fill="#263238"/>
<path d="M183.98 83.8296C184.034 83.8296 184.084 84.6756 183.641 85.6044C183.199 86.5332 182.518 87.0444 182.489 86.994C182.461 86.9436 183.037 86.3928 183.443 85.5108C183.85 84.6288 183.911 83.8224 183.98 83.8296Z" fill="#263238"/>
<path d="M147.34 59.598C147.34 59.598 140.795 54.6408 139.881 54.3096C138.358 53.7588 137.991 53.9064 137.991 53.9064L141.591 57.7728C141.591 57.7728 137.797 59.0508 137.523 59.2128C137.249 59.3748 137.116 60.1992 138.038 60.1992C138.797 60.1992 142.437 60.2856 142.437 60.2856L145.436 62.4744L147.34 59.598Z" fill="#FFBE9D"/>
<path d="M205.251 16.8874C205.323 16.8787 205.395 16.8787 205.467 16.8874L206.101 16.9054C206.241 16.9054 206.396 16.9054 206.569 16.9054L207.127 16.9846L207.782 17.0782L208.502 17.2618C209.759 17.5826 210.954 18.108 212.041 18.817C213.655 19.8361 215.014 21.2123 216.013 22.8394C217.011 24.4666 217.623 26.3013 217.801 28.2022C217.851 28.7708 217.863 29.3421 217.837 29.9122C217.815 30.2002 217.837 30.4954 217.779 30.787C217.721 31.0786 217.689 31.3702 217.646 31.669C217.423 32.8804 217.023 34.0522 216.458 35.1466C215.854 36.2949 215.088 37.3498 214.183 38.2786C213.218 39.2259 212.113 40.0189 210.907 40.6294C209.659 41.2706 208.307 41.6862 206.914 41.857C206.557 41.9113 206.196 41.9414 205.834 41.947C205.475 41.967 205.114 41.967 204.754 41.947C204.028 41.9179 203.305 41.8276 202.594 41.677C201.065 41.3487 199.609 40.7383 198.303 39.877H198.433L194.059 41.6338L193.799 41.7382L193.875 41.4682C194.314 39.8626 194.746 38.3038 195.16 36.7882L195.182 36.9034C193.996 35.3304 193.197 33.5002 192.849 31.561C192.683 30.6592 192.626 29.7405 192.68 28.825C192.688 28.3834 192.729 27.943 192.802 27.5074C192.835 27.295 192.871 27.0826 192.903 26.8702C192.935 26.6578 193.004 26.4562 193.054 26.251C193.786 23.3769 195.515 20.8561 197.932 19.1374C198.829 18.5082 199.808 18.0044 200.841 17.6398C201.068 17.557 201.284 17.4778 201.496 17.4058L202.115 17.2474L202.684 17.107C202.864 17.071 203.044 17.053 203.206 17.0278C203.537 16.9846 203.829 16.927 204.081 16.9162L204.725 16.8946H205.118C205.162 16.8893 205.207 16.8893 205.251 16.8946C205.207 16.9035 205.163 16.9095 205.118 16.9126L204.725 16.9414L204.088 16.9846C203.836 17.0062 203.548 17.0674 203.221 17.1178C200.848 17.5272 198.646 18.6167 196.88 20.254C195.115 21.8913 193.864 24.0059 193.277 26.341C193.231 26.5426 193.166 26.7442 193.13 26.9494C193.094 27.1546 193.069 27.367 193.036 27.5794C192.963 28.0052 192.924 28.4362 192.921 28.8682C192.871 29.7661 192.93 30.6667 193.097 31.5502C193.444 33.4488 194.232 35.2393 195.398 36.7774L195.437 36.8314V36.8926C195.027 38.4046 194.602 39.967 194.163 41.5726L193.979 41.4106L198.35 39.6502L198.418 39.6214L198.479 39.661C199.757 40.5062 201.18 41.1056 202.677 41.4286C203.37 41.576 204.075 41.6651 204.783 41.695C205.135 41.7077 205.487 41.7005 205.838 41.6734C206.186 41.67 206.534 41.6411 206.878 41.587C208.241 41.4232 209.563 41.0185 210.784 40.3918C211.965 39.7955 213.047 39.0208 213.992 38.095C214.879 37.189 215.631 36.1596 216.224 35.0386C216.782 33.9675 217.178 32.82 217.401 31.633C217.444 31.3414 217.491 31.0534 217.534 30.769C217.577 30.4846 217.57 30.1966 217.592 29.9122C217.621 29.3519 217.613 28.7902 217.567 28.231C217.399 26.3633 216.809 24.5581 215.841 22.9521C214.873 21.3461 213.553 19.9813 211.979 18.961C210.913 18.2535 209.738 17.7234 208.502 17.3914L207.782 17.2006L207.137 17.0926L206.583 17.0026C206.414 16.9846 206.255 16.981 206.119 16.9666L205.463 16.9198C205.392 16.9129 205.321 16.9021 205.251 16.8874Z" fill="#263238"/>
<path d="M209.358 32.3997C209.309 32.4041 209.259 32.4041 209.21 32.3997H208.786L207.209 32.4249L201.928 32.4717H201.884V32.4285C201.841 32.1513 201.798 31.8525 201.755 31.5537C201.395 28.9941 201.064 26.7081 200.851 25.2177L200.88 25.2429H199.476H199.116H198.986C199.029 25.2382 199.073 25.2382 199.116 25.2429H199.476L200.88 25.1997H200.909V25.2249C201.132 26.7189 201.47 29.0013 201.852 31.5573L201.978 32.4321L201.928 32.3889H207.209L208.8 32.3997H209.228C209.271 32.3957 209.315 32.3957 209.358 32.3997Z" fill="#C62F44"/>
<path d="M202.041 32.5438H201.865L201.836 32.3638V32.3206L201.732 31.6006L200.814 25.3078H199.1C198.949 25.3078 198.924 25.3078 198.924 25.2574V25.2394C198.924 25.2394 198.924 25.2394 199.086 25.2142H199.446L200.767 25.1962V25.1602L200.803 25.1926H200.925V25.2574C200.924 25.2765 200.924 25.2958 200.925 25.315L200.961 25.3474H200.929C201.152 26.8414 201.483 29.0842 201.858 31.5898L201.973 32.3854H207.171H209.173C209.342 32.3854 209.364 32.3854 209.364 32.4394C209.364 32.4934 209.364 32.4898 209.173 32.4934H208.748L207.175 32.515L202.002 32.5618L202.041 32.5438ZM201.559 29.8798L201.919 32.3422L201.804 31.561C201.721 30.9886 201.638 30.427 201.559 29.8798Z" fill="#C62F44"/>
<path d="M201.707 30.9021H201.855H202.279L203.867 30.8769L209.35 30.8265L209.303 30.8661C209.461 29.9445 209.631 28.9437 209.807 27.9105C209.897 27.3813 209.987 26.8593 210.07 26.3589L210.12 26.4165L203.658 26.4381H201.243H201.757L203.669 26.4129L210.131 26.3589H210.189V26.4165C210.106 26.9133 210.016 27.4353 209.926 27.9681C209.749 29.0013 209.566 29.9985 209.418 30.9237V30.9633H209.379H203.896H202.308H201.883H201.736L201.707 30.9021Z" fill="#C62F44"/>
<path d="M203.864 30.96H201.74C201.7 30.96 201.657 30.96 201.657 30.9096C201.657 30.8592 201.7 30.8628 201.74 30.8592H202.272L203.864 30.8376L209.264 30.7872L209.753 27.9072C209.84 27.414 209.922 26.9316 210.002 26.4672L203.651 26.4888H201.088C201.041 26.4888 200.998 26.4888 200.998 26.4384C200.998 26.388 201.041 26.3916 201.088 26.388H201.736L203.651 26.3592L210.034 26.3052H210.239L210.21 26.478L209.49 30.798L209.462 30.9708H209.285L203.864 30.96ZM210.106 26.442C210.027 26.91 209.944 27.3996 209.858 27.882L209.372 30.762L210.092 26.442H210.106Z" fill="#C62F44"/>
<path d="M203.796 34.4445C203.796 34.4445 203.796 34.3797 203.753 34.2681C203.708 34.1126 203.611 33.9769 203.479 33.8829C203.384 33.8155 203.273 33.7724 203.157 33.7573C203.041 33.7422 202.923 33.7557 202.813 33.7965C202.681 33.847 202.566 33.9368 202.486 34.0538C202.406 34.1709 202.363 34.3097 202.363 34.4517C202.366 34.5939 202.411 34.7319 202.493 34.8485C202.574 34.9651 202.688 35.055 202.821 35.1069C202.931 35.1462 203.05 35.1579 203.166 35.1409C203.282 35.124 203.392 35.0789 203.487 35.0097C203.616 34.9125 203.711 34.7762 203.757 34.6209C203.789 34.5129 203.789 34.4445 203.796 34.4445C203.813 34.5058 203.813 34.5704 203.796 34.6317C203.762 34.802 203.669 34.9549 203.533 35.0637C203.444 35.1352 203.34 35.1863 203.229 35.2135C203.118 35.2407 203.003 35.2433 202.891 35.2212C202.778 35.199 202.672 35.1527 202.58 35.0853C202.488 35.0179 202.411 34.9312 202.356 34.8312C202.301 34.7311 202.268 34.6202 202.26 34.5062C202.252 34.3921 202.269 34.2777 202.31 34.171C202.35 34.0642 202.414 33.9676 202.496 33.888C202.578 33.8084 202.677 33.7477 202.785 33.7101C202.908 33.6646 203.041 33.6517 203.171 33.6725C203.301 33.6933 203.423 33.7472 203.526 33.8289C203.663 33.9366 203.758 34.0878 203.796 34.2573C203.814 34.3797 203.803 34.4445 203.796 34.4445Z" fill="#C62F44"/>
<path d="M203.041 35.2798C202.95 35.2797 202.86 35.2639 202.775 35.233C202.612 35.1777 202.47 35.0732 202.37 34.9338C202.269 34.7945 202.214 34.6273 202.213 34.4554C202.211 34.2998 202.254 34.1469 202.335 34.0142C202.416 33.8816 202.534 33.7745 202.673 33.7054C202.812 33.6362 202.969 33.6078 203.123 33.6233C203.278 33.6388 203.426 33.6976 203.549 33.793C203.695 33.9065 203.796 34.0687 203.833 34.2502C203.845 34.3144 203.845 34.3804 203.833 34.4446C203.844 34.509 203.844 34.5747 203.833 34.639C203.797 34.8211 203.697 34.9844 203.552 35.0998C203.407 35.2152 203.227 35.2786 203.041 35.2798ZM202.886 33.7246L202.793 33.7534C202.648 33.8049 202.524 33.8996 202.436 34.0246C202.348 34.1496 202.3 34.2989 202.3 34.4518C202.3 34.6048 202.348 34.754 202.436 34.879C202.524 35.004 202.648 35.0988 202.793 35.1502L202.886 35.1754L202.796 35.1466C202.653 35.0944 202.53 34.9996 202.443 34.875C202.356 34.7504 202.309 34.6021 202.309 34.45C202.309 34.298 202.356 34.1496 202.443 34.025C202.53 33.9004 202.653 33.8056 202.796 33.7534L202.886 33.7246ZM203.059 33.7966C202.979 33.7958 202.899 33.8105 202.825 33.8398C202.701 33.8872 202.594 33.9711 202.519 34.0803C202.444 34.1896 202.404 34.3192 202.404 34.4518C202.405 34.5732 202.44 34.6919 202.504 34.7948C202.569 34.8977 202.661 34.9807 202.769 35.0347C202.878 35.0887 203 35.1116 203.121 35.1009C203.242 35.0901 203.357 35.0462 203.455 34.9738C203.576 34.8835 203.665 34.7576 203.711 34.6138C203.724 34.5704 203.734 34.5258 203.739 34.4806C203.739 34.4806 203.739 34.459 203.739 34.4482C203.737 34.4387 203.737 34.4289 203.739 34.4194C203.733 34.3741 203.722 34.3295 203.707 34.2862C203.664 34.1414 203.574 34.0149 203.451 33.9262C203.339 33.843 203.203 33.7976 203.063 33.7966H203.059Z" fill="#C62F44"/>
<path d="M208.577 34.416C208.577 34.416 208.577 34.3512 208.533 34.2396C208.487 34.0854 208.391 33.951 208.26 33.858C208.154 33.7869 208.03 33.7454 207.903 33.7378C207.775 33.7301 207.648 33.7567 207.534 33.8146C207.42 33.8725 207.323 33.9597 207.254 34.0673C207.185 34.1749 207.146 34.299 207.14 34.4268C207.144 34.5687 207.19 34.7063 207.272 34.8223C207.354 34.9382 207.469 35.0273 207.601 35.0784C207.712 35.1176 207.83 35.1293 207.946 35.1124C208.062 35.0954 208.172 35.0504 208.267 34.9812C208.396 34.8853 208.491 34.7501 208.537 34.596C208.569 34.4844 208.569 34.416 208.577 34.416C208.591 34.4775 208.591 34.5416 208.577 34.6032C208.545 34.7755 208.452 34.9304 208.314 35.0388C208.198 35.1291 208.059 35.185 207.913 35.2002C207.767 35.2154 207.619 35.1892 207.487 35.1247C207.355 35.0601 207.244 34.9598 207.166 34.8352C207.088 34.7105 207.047 34.5665 207.047 34.4196C207.047 34.2726 207.088 34.1286 207.166 34.004C207.244 33.8793 207.355 33.779 207.487 33.7145C207.619 33.6499 207.767 33.6238 207.913 33.639C208.059 33.6542 208.198 33.7101 208.314 33.8004C208.451 33.9088 208.547 34.0615 208.584 34.2324C208.597 34.2932 208.595 34.3564 208.577 34.416Z" fill="#C62F44"/>
<path d="M207.826 35.2512C207.734 35.2521 207.643 35.2375 207.556 35.208C207.44 35.1702 207.334 35.1074 207.245 35.0241C207.156 34.9408 207.087 34.839 207.042 34.7259C206.997 34.6128 206.977 34.4912 206.984 34.3697C206.991 34.2481 207.024 34.1295 207.082 34.0224C207.14 33.9153 207.221 33.8221 207.319 33.7496C207.416 33.6771 207.529 33.6269 207.648 33.6026C207.768 33.5784 207.891 33.5806 208.009 33.6092C208.128 33.6377 208.238 33.692 208.333 33.768C208.478 33.8827 208.579 34.0444 208.618 34.2252C208.63 34.2894 208.63 34.3554 208.618 34.4196C208.629 34.484 208.629 34.5497 208.618 34.614C208.579 34.7963 208.479 34.9596 208.334 35.0765C208.189 35.1933 208.008 35.2563 207.822 35.2548L207.826 35.2512ZM207.664 33.6996L207.577 33.7248C207.433 33.7762 207.309 33.871 207.221 33.996C207.132 34.121 207.085 34.2702 207.085 34.4232C207.085 34.5762 207.132 34.7254 207.221 34.8504C207.309 34.9754 207.433 35.0702 207.577 35.1216L207.682 35.1504L207.581 35.1216C207.438 35.0686 207.316 34.9733 207.229 34.8484C207.142 34.7236 207.096 34.5752 207.096 34.4232C207.096 34.2712 207.142 34.1228 207.229 33.998C207.316 33.8731 207.438 33.7778 207.581 33.7248L207.664 33.6996ZM207.844 33.768C207.764 33.7669 207.684 33.7815 207.61 33.8112C207.522 33.8447 207.443 33.8967 207.377 33.9636C207.311 34.0305 207.26 34.1108 207.228 34.199C207.196 34.2872 207.183 34.3813 207.191 34.4748C207.198 34.5684 207.225 34.6593 207.271 34.7414C207.317 34.8234 207.379 34.8947 207.455 34.9504C207.53 35.0062 207.617 35.045 207.709 35.0643C207.801 35.0837 207.896 35.083 207.987 35.0625C208.079 35.0419 208.165 35.0019 208.24 34.9452C208.361 34.8549 208.45 34.729 208.495 34.5852C208.507 34.5413 208.517 34.4969 208.524 34.452C208.522 34.4413 208.522 34.4303 208.524 34.4196C208.522 34.4101 208.522 34.4003 208.524 34.3908C208.524 34.362 208.524 34.3152 208.492 34.2576C208.448 34.1128 208.359 33.9862 208.236 33.8976C208.122 33.8141 207.985 33.7688 207.844 33.768Z" fill="#C62F44"/>
<path d="M45.3482 110.328L46.297 117.069L44.9488 117.259L45.1386 118.607L46.4867 118.417L46.6765 119.766L45.3283 119.955L45.5181 121.304L46.8663 121.114L47.2458 123.81L48.594 123.62L48.2145 120.924L51.5849 120.45L51.3952 119.101L48.0247 119.576L47.8349 118.228L51.8795 117.658C54.104 117.345 55.6679 115.269 55.3548 113.045C55.0417 110.82 52.9655 109.256 50.741 109.569L45.3482 110.328ZM46.8861 111.487L50.9307 110.917C52.4265 110.707 53.7961 111.739 54.0066 113.234C54.2172 114.73 53.1856 116.1 51.6898 116.31L47.6452 116.88L46.8861 111.487Z" fill="#C62F44"/>
<path d="M56.8011 140.119L57.6005 144.125L56.7994 144.285L56.9593 145.086L57.7604 144.926L57.9202 145.727L57.1192 145.887L57.279 146.688L58.0801 146.528L58.3999 148.13L59.201 147.97L58.8812 146.368L60.8839 145.968L60.7241 145.167L58.7213 145.567L58.5615 144.766L60.9647 144.286C62.2865 144.022 63.1522 142.725 62.8884 141.403C62.6246 140.081 61.3273 139.216 60.0055 139.48L56.8011 140.119ZM57.7621 140.76L60.1653 140.281C61.0541 140.103 61.9099 140.674 62.0873 141.563C62.2647 142.452 61.6937 143.308 60.8048 143.485L58.4016 143.965L57.7621 140.76Z" fill="#DEE0E1"/>
</svg>
