<svg width="306" height="306" viewBox="0 0 306 306" fill="none" xmlns="http://www.w3.org/2000/svg">
<path d="M148.51 212L142.185 213.365C131.066 215.832 120.241 219.364 109.349 222.655L98.9456 225.839C97.0467 226.438 95.0822 226.963 93.2672 227.791L93.0271 227.92C91.5578 228.694 89.9513 229.244 88.4604 230.002C83.7097 232.418 78.6642 236.256 76.9446 241.518C76.645 242.435 76.4597 243.305 76.313 244.256C76.0709 245.825 76.1776 247.457 76.3414 249.026L76.3718 249.48L69.8769 249.493C69.6125 253.841 68.1948 257.009 64.9357 259.902C63.3771 261.286 61.5114 262.052 59.5558 262.71C55.6802 263.597 52.1465 263.659 48.2014 263.664C44.548 263.668 41.2557 263.661 37.6783 262.79L22.9803 262.833L19.8008 262.8C19.5543 262.796 18.854 262.707 18.6731 262.781C18.4738 262.863 18.3311 263.043 18.1602 263.174C17.9663 263.806 17.9502 263.934 18.1021 264.574C18.5572 264.928 18.7815 264.979 19.357 265L29.056 264.994L48.3016 264.976L111.395 264.972L245.136 264.85L277.892 264.842L287.375 264.851C288.515 264.849 289.926 265.009 291.035 264.82C291.561 264.731 291.721 264.478 291.999 264.062C292.005 263.521 291.987 263.432 291.719 262.963C291.16 262.588 290.381 262.721 289.733 262.727C288.295 262.741 286.835 262.815 285.402 262.682L285.211 262.663C282.493 263.016 279.79 262.943 277.059 262.953L269.666 262.973C268.002 262.911 266.315 262.652 264.659 262.673C262.48 262.151 260.36 261.555 258.318 260.621C252.238 257.84 247.114 252.523 244.804 246.229L244.802 245.558L244.265 244.287L225.614 244.229C225.817 241.997 225.942 239.746 225.736 237.507C225.001 229.496 221.553 221.591 218.4 214.281C215.727 215.329 213.154 216.584 210.426 217.511C199.863 221.103 188.008 222.822 176.861 222.644C169.695 222.529 161.713 221.797 155.012 219.15C153.069 218.382 151.044 217.446 149.597 215.898C148.371 214.586 148.452 213.706 148.51 212Z" fill="#1E2033"/>
<path d="M254.485 158.684L254.453 162.839C252.637 164.459 250.3 165.98 248.773 167.858L248.763 164.901L254.485 158.684Z" fill="#2C3E6E"/>
<path d="M260.677 150.153C260.926 150.862 260.826 151.716 260.824 152.464L260.924 156.279L260.891 156.412C258.76 158.497 256.875 160.953 254.567 162.838H254.453L254.485 158.683C255.005 158.243 255.529 157.356 255.957 156.791L260.677 150.153Z" fill="#2C3E6E"/>
<path d="M252.908 73.1924C255.25 76.5146 257.087 80.2391 257.898 84.2479C259.059 89.9883 258.395 96.1767 258.519 102.012L252.028 102.016L252.046 99.7185C252.938 99.6912 253.923 99.5252 254.735 99.1399C256.274 98.4096 256.002 96.5177 256.029 95.0621C256.075 92.5792 256.02 90.1466 255.611 87.6917C255.019 84.1356 253.806 80.7437 253.086 77.2225C252.905 76.3362 252.581 75.24 252.599 74.3527C252.606 73.9677 252.78 73.5527 252.908 73.1924Z" fill="#7E9BB5"/>
<path d="M260.677 150.154L266.873 138.314C268.516 138.314 270.28 138.191 271.904 138.437L272.156 138.478C273.423 138.676 274.492 139.053 275.637 139.607L267.319 149.158L263.379 153.564C262.61 154.452 261.813 155.523 260.924 156.279L260.824 152.464C260.826 151.716 260.926 150.862 260.677 150.154Z" fill="#2C3E6E"/>
<path d="M213.913 80.2544C215.866 80.9814 217.818 81.885 219.325 83.3676C220.357 84.3822 221.165 85.6868 221.541 87.0888C222.088 89.1247 221.806 91.6765 221.798 93.7921L221.832 102.1L219.658 102.115L211.498 102.138L211.509 93.0548C211.514 88.4487 211.559 84.3732 213.913 80.2544Z" fill="#C61C32"/>
<path d="M252.046 99.7184L252.041 91.9374C252.036 89.7108 252.075 87.5139 251.621 85.3207C250.847 81.5839 248.862 78.0797 246.282 75.2925C242.33 71.025 236.704 68.0275 230.814 67.8485C224.767 67.6645 218.784 69.7274 214.362 73.9309C211.087 77.0447 208.776 81.0592 207.952 85.5273C207.533 87.8026 207.632 90.1555 207.63 92.4594L207.574 102.185L200.728 102.158L200.834 87.1629C201.589 79.7689 205.497 72.5306 211.269 67.8555C217.599 62.7284 225.301 60.6381 233.357 61.5434C241.302 62.4361 248.04 67.0588 252.908 73.1922C252.78 73.5526 252.606 73.9675 252.599 74.3525C252.581 75.2398 252.905 76.3361 253.086 77.2224C253.806 80.7436 255.019 84.1354 255.611 87.6916C256.02 90.1465 256.076 92.579 256.03 95.0619C256.002 96.5175 256.275 98.4094 254.735 99.1397C253.923 99.525 252.938 99.691 252.046 99.7184Z" fill="#9FC2E9"/>
<path d="M228.358 71.5649C232.316 71.3209 236.459 72.3892 239.758 74.6228C244.32 77.712 246.982 81.6448 248.135 86.9972C248.558 88.9638 248.378 91.0634 248.365 93.0666L248.304 102.082L236.991 102.038L225.558 102.058L225.547 93.5239C225.539 90.7827 225.669 87.9345 224.779 85.3013C223.463 81.4108 219.883 78.7812 216.355 77.025C219.968 73.9445 223.579 72.0469 228.358 71.5649Z" fill="#F4555A"/>
<path d="M43.5717 155.307C44.1974 155.063 45.048 155.172 45.7133 155.171L49.7215 155.166L65.3198 155.155L143.432 155.116L149.985 163.512L58.6671 163.533L43.4808 163.572L43.4251 158.137C43.4194 157.288 43.2614 156.09 43.5717 155.307Z" fill="#1E2033"/>
<path d="M43.5717 155.306L61.4686 155.323L58.6671 163.533L43.4808 163.572L43.4251 158.137C43.4194 157.288 43.2614 156.09 43.5717 155.306Z" fill="#1E2033"/>
<path d="M153.08 163C154.412 163.019 155.664 163 156.946 163.405L157.246 163.498C159.387 164.192 161.091 165.778 162.062 167.8C162.465 168.64 162.736 169.677 162.812 170.61C163.027 173.267 162.913 175.994 162.916 178.662L162.926 192.236L162.92 208.926L162.857 217.808C162.816 218.537 162.704 219.238 162.435 219.921C161.448 222.427 159.774 224.328 157.239 225.367C156.072 225.844 154.92 226.007 153.671 226.033L118.571 226.058L50.1615 226.079L25.0894 226.067L17.3881 226.061C15.7166 226.06 13.8883 226.215 12.2712 225.761L12.0102 225.69C9.83258 225.06 7.85361 223.151 6.80115 221.178C5.47245 218.685 5.8343 215.853 5.86322 213.12C5.91154 213.553 5.97813 213.947 6.09418 214.367L15.4476 214.315L35.3632 214.277L91.64 214.303L128.323 214.398L140.139 214.389C142.438 214.381 144.817 214.48 147.107 214.278C148.527 214.152 150.095 213.345 151.102 212.357C152.009 211.468 152.638 210.184 152.84 208.938C153.087 207.421 152.979 205.745 152.991 204.208L153.03 195.722L153.08 163Z" fill="#2C3E6E"/>
<path d="M186.448 77.1169L199.845 77.0029C198.659 79.8808 197.644 82.8303 197.196 85.9232C196.616 89.9323 196.869 94.3001 196.921 98.3496L171.25 98.3583L158.91 98.4006L150.207 98.4056L43.4248 98.503L43.4148 89.7243C43.4161 87.5571 43.2278 85.2692 43.8258 83.1673C44.2024 81.8424 44.9161 80.7064 45.9007 79.7478C47.0986 78.5812 48.8242 77.4269 50.4988 77.2076C51.7184 77.0479 53.0337 77.1383 54.266 77.1376L60.9827 77.1359L83.9183 77.1163L165.456 77.1552L174.156 77.1339L186.448 77.1169Z" fill="#C61C32"/>
<path d="M56.6717 83.5517L63.5897 83.5954C65.0839 83.606 67.3978 83.3437 68.7648 83.9344C69.3188 84.1737 69.9227 84.8097 70.1257 85.3806C70.3844 86.1083 70.3017 87.0172 69.9714 87.7092C69.5538 88.5838 68.8418 88.9291 67.9788 89.2638C65.6979 89.4768 63.254 89.3411 60.9561 89.3291C59.4805 89.3215 57.559 89.4988 56.1554 89.0111C55.519 88.7898 54.8627 88.1878 54.5958 87.5679C54.3311 86.9526 54.3191 86.0316 54.5908 85.4146C55.0184 84.4437 55.7017 83.9177 56.6717 83.5517Z" fill="#FFFFFE"/>
<path d="M77.2715 83.5503L87.0394 83.531C88.3126 83.5267 90.5425 83.2283 91.7078 83.7743C92.3688 84.0836 92.9481 84.8119 93.1591 85.5046C93.3984 86.2915 93.2871 87.1142 92.8718 87.8145C92.3665 88.6658 91.5842 89.0494 90.6495 89.2694C88.3313 89.3741 77.6255 89.7201 76.1252 88.8958C75.3676 88.4798 74.9013 87.9201 74.6863 87.0808C74.4823 86.2845 74.6369 85.5209 75.0839 84.8309C75.6002 84.0346 76.3859 83.7497 77.2715 83.5503Z" fill="#FFFFFE"/>
<path d="M230.724 173.5L220.069 166.602C206.497 155.985 197.052 141.796 192.968 125.017C191.436 118.722 190.653 112.242 189.867 105.821L218.044 105.797H267C267.564 119.962 266.432 131.961 259.5 144C255.782 150.457 251.59 156.524 246 161.5C243.579 163.655 240.097 167.066 237.5 169C236.139 170.014 231.873 172.256 230.724 173.5Z" fill="#65AB8B"/>
<path d="M211.625 147.912L211.858 147.876C212.976 147.855 213.728 148.803 214.382 149.583C215.173 150.524 216.364 151.687 216.247 152.995C215.944 153.531 215.833 153.6 215.33 153.911C215.199 153.949 215.131 153.979 214.982 153.968C214.234 153.917 213.524 153.137 213.033 152.637C211.941 151.524 210.717 150.413 210.734 148.745C211.025 148.245 211.142 148.192 211.625 147.912Z" fill="#FFFFFE"/>
<path d="M204.828 137.246C205.202 137.157 205.444 137.159 205.825 137.161C206.79 137.746 207.305 139.366 207.881 140.329C208.442 141.265 209.143 142.14 209.633 143.116C209.862 143.573 210.003 144.009 209.793 144.507C209.573 145.029 209.313 145.181 208.825 145.421C208.657 145.456 208.5 145.498 208.325 145.488C207.79 145.456 207.346 145.076 207.007 144.695C205.91 143.465 203.673 139.971 203.752 138.246C204.051 137.728 204.314 137.541 204.828 137.246Z" fill="#FFFFFE"/>
<path d="M198.926 117.913C199.219 117.823 199.515 117.764 199.825 117.82C200.151 117.878 200.47 118.151 200.643 118.423C201.274 119.419 201.176 121.465 201.394 122.659C201.776 124.758 202.171 126.922 202.833 128.95C203.166 129.968 204.073 131.68 203.746 132.746C203.586 133.269 203.289 133.51 202.825 133.756C202.657 133.788 202.5 133.826 202.325 133.819C201.838 133.801 201.447 133.557 201.156 133.178C200.657 132.527 200.414 131.568 200.127 130.804C199.067 127.987 198.455 125.206 198.152 122.211C198.061 121.307 197.871 120.247 197.992 119.345C198.088 118.633 198.379 118.351 198.926 117.913Z" fill="#FFFFFE"/>
<path d="M232.018 119.38C234.755 119.87 236.846 121.116 238.42 123.438C239.706 125.337 240.181 127.504 239.688 129.766C239.2 132.004 237.896 134.15 235.914 135.365L234.631 136.081C234.426 136.205 234.479 136.197 234.302 136.45C233.758 135.46 235.23 132.425 235.488 131.278C236.271 127.797 235.663 124.124 233.579 121.176C233.164 120.589 232.477 120.169 232.122 119.564L232.018 119.38Z" fill="#7E9BB5"/>
<path d="M228.153 151.305L224.6 151.326L226.791 136.163C225.733 135.507 224.816 134.823 224.034 133.832C222.714 132.159 221.872 129.846 222.158 127.698L222.2 127.413C222.54 125.003 223.519 123.151 225.304 121.488C227.192 119.729 229.454 119.284 231.936 119.375L231.901 119.573C231.665 120.329 230.702 121.044 230.236 121.711C227.968 124.955 227.72 129.372 229.258 132.986C229.563 133.704 229.954 134.32 230.399 134.954C230.567 135.194 230.999 135.729 231.047 136.02C231.087 136.261 230.925 136.863 230.883 137.125L229.963 141.662C229.338 144.842 229.049 148.2 228.153 151.305Z" fill="#FFFFFE"/>
<path d="M231.936 119.375L232.018 119.379L232.122 119.564C232.477 120.168 233.164 120.589 233.579 121.176C235.663 124.124 236.27 127.796 235.488 131.277C235.23 132.425 233.758 135.459 234.302 136.449C234.638 138.327 236.814 150.224 236.324 151.315L228.153 151.304C229.049 148.199 229.338 144.841 229.963 141.662L230.883 137.124C230.925 136.862 231.087 136.26 231.047 136.019C230.999 135.728 230.567 135.193 230.399 134.953C229.954 134.319 229.563 133.703 229.258 132.985C227.72 129.371 227.968 124.954 230.236 121.71C230.702 121.043 231.665 120.328 231.901 119.573L231.936 119.375Z" fill="url(#paint0_linear_46_1567)"/>
<path d="M275.638 139.607C279.668 141.741 282.984 144.931 284.327 149.386C285.537 153.398 285.077 157.962 285.073 162.124L285.078 174.541L285.076 220.262L285.106 240.687C285.114 244.088 285.32 247.632 285.068 251.012C284.924 252.947 284.194 254.973 283.27 256.668C281.39 260.115 278.066 262.634 274.312 263.697C272.014 264.348 269.886 264.337 267.523 264.346L260.612 264.352L255.36 264.367L249.949 264.377L249.908 255.639L238.564 255.674L238.52 254.931L238.498 250.996C235.218 251.002 232.091 251.175 228.885 250.363C227.632 249.692 226.502 248.991 225.489 247.982C223.193 245.694 222.284 242.942 222.26 239.759L222.244 220.775L222.248 214.744C222.251 213.353 222.184 211.929 222.487 210.563C222.962 208.422 224.06 206.373 225.611 204.82C229.318 201.105 233.496 201.34 238.376 201.336L238.229 173.596L248.763 164.901L248.774 167.858C250.301 165.979 252.638 164.458 254.453 162.839H254.567C256.875 160.953 258.76 158.498 260.891 156.413L260.925 156.28C261.813 155.523 262.61 154.452 263.379 153.565L267.32 149.158L275.638 139.607Z" fill="#1E2033"/>
<path d="M255.279 255.516L255.233 251.296L260.707 251.358L260.602 255.487L255.327 255.501C255.418 258.28 255.608 261.26 255.288 264.017L255.279 255.516Z" fill="#2C3E6E"/>
<path d="M260.602 255.487L260.611 264.352L255.36 264.367L255.288 264.017C255.608 261.26 255.418 258.281 255.327 255.501L260.602 255.487Z" fill="#2C3E6E"/>
<path d="M249.925 255.527L255.278 255.516L255.287 264.017L255.36 264.367L249.948 264.377L249.907 255.638L249.925 255.527Z" fill="#1E2033"/>
<path d="M260.891 156.413L260.911 201.331L254.592 201.332L248.89 201.334L238.376 201.336L238.229 173.596L248.763 164.901L248.774 167.858C250.301 165.979 252.638 164.458 254.453 162.838H254.567C256.875 160.953 258.76 158.498 260.891 156.413Z" fill="#2C3E6E"/>
<path d="M254.453 162.838H254.567L254.592 201.332L248.89 201.334L248.814 178.084C248.832 174.726 249.123 171.186 248.773 167.858C250.3 165.979 252.637 164.458 254.453 162.838Z" fill="#1E2033"/>
<path d="M248.763 164.901L248.774 167.858C249.123 171.186 248.832 174.726 248.814 178.084L248.89 201.334L238.376 201.336L238.229 173.596L248.763 164.901Z" fill="#2C3E6E"/>
<path d="M260.911 201.331C262.986 201.325 265.17 201.177 267.216 201.547C270.113 202.709 271.86 204.136 273.592 206.738C274.004 207.785 274.375 208.819 274.48 209.948C274.638 211.654 274.546 213.432 274.549 215.148L274.556 224.181L274.552 234.637C274.55 236.539 274.646 238.507 274.515 240.401C274.421 241.771 274.175 243.102 273.628 244.367C272.375 247.265 270.079 249.486 267.125 250.605C265.667 251.158 264.21 251.198 262.668 251.227L249.929 251.138L249.926 255.527L249.908 255.638L238.564 255.674L238.52 254.931L238.498 250.995C235.218 251.001 232.091 251.175 228.885 250.362C227.632 249.692 226.502 248.99 225.489 247.981C223.193 245.694 222.284 242.941 222.26 239.758L222.244 220.775L222.248 214.743C222.251 213.353 222.184 211.929 222.487 210.563C222.962 208.422 224.06 206.373 225.611 204.819C229.318 201.105 233.496 201.34 238.376 201.336L248.891 201.334L254.592 201.332L260.911 201.331Z" fill="white"/>
<path d="M248.925 248.03L239.028 248.011C236.342 248.003 232.619 248.461 230.149 247.336C228.079 246.392 226.608 244.658 225.824 242.542C225.633 242.026 225.459 241.495 225.414 240.943C225.285 239.354 225.396 237.673 225.396 236.072L225.4 226.807L225.415 217.211C225.419 215.629 225.316 213.959 225.449 212.388C225.536 211.352 225.806 210.307 226.26 209.37C227.259 207.311 229.121 205.588 231.299 204.867L231.574 204.779C232.668 204.42 233.768 204.497 234.903 204.497L239.787 204.496L254.151 204.5L261.917 204.491C263.217 204.494 264.679 204.349 265.941 204.649C267.228 204.954 268.296 205.576 269.226 206.504C270.127 207.405 270.739 208.514 270.992 209.768C271.201 210.805 271.125 211.992 271.13 213.052L271.144 218.716L271.142 238.551C271.119 241.24 270.982 243.546 268.966 245.55C267.803 246.705 266.178 247.614 264.554 247.925C262.943 248.234 260.968 248.038 259.322 248.038L248.925 248.03Z" fill="#F4555A"/>
<path d="M256.682 213.608C259.109 215.6 261.267 218.246 263.478 220.492C262.849 221.324 261.903 222.123 261.046 222.708C259.672 221.237 257.648 219.637 256.667 217.91C257.006 217.485 256.705 214.387 256.682 213.608Z" fill="#FFFFFE"/>
<path d="M263.478 220.492L265.87 223.034L245.663 242.979L229.135 226.59L239.608 216.162L245.764 221.933L255.621 212.537L256.683 213.608C256.705 214.387 257.006 217.485 256.667 217.91C257.648 219.637 259.672 221.237 261.046 222.709C261.904 222.123 262.85 221.324 263.478 220.492Z" fill="#FFFFFE"/>
<path d="M243.146 224.616L245.743 227.248L253.139 219.82C253.819 219.14 255.166 217.435 256.073 217.321L256.667 217.91C257.648 219.637 259.672 221.237 261.046 222.709L260.855 222.855C258.147 224.953 255.706 227.778 253.247 230.173L247.985 235.31C247.217 236.079 246.261 236.89 245.649 237.781L234.373 226.554L236.37 224.458L239.738 221.032C240.878 222.183 242.173 223.324 243.146 224.616Z" fill="#F4555A"/>
<path d="M5.86322 213.12L5.86132 184.242L5.86512 176.126C5.86702 174.59 5.74983 172.956 5.97965 171.44C6.26769 169.542 7.10593 167.655 8.43044 166.26C9.84589 164.77 11.9915 163.539 14.0553 163.328C15.6679 163.162 17.3695 163.256 18.9927 163.254L27.4123 163.245L54.866 163.23L115.81 163.102L153.08 163L153.029 195.722L152.991 204.208C152.979 205.745 153.087 207.421 152.84 208.938C152.638 210.184 152.009 211.468 151.102 212.357C150.095 213.345 148.527 214.152 147.107 214.278C144.817 214.48 142.438 214.381 140.139 214.389L128.323 214.398L91.64 214.303L35.3632 214.277L15.4476 214.315L6.09418 214.367C5.97813 213.947 5.91154 213.553 5.86322 213.12Z" fill="#4F6D8E"/>
<path d="M122.425 205.615C124.088 205.223 126.554 205.537 128.294 205.539L138.307 205.523C139.404 205.521 141.484 205.255 142.459 205.69C142.704 206.139 142.666 206.238 142.624 206.757L142.161 207.058C140.522 207.298 138.636 207.137 136.968 207.144L126.721 207.18L123.706 207.181C123.465 207.18 122.863 207.258 122.66 207.177C122.478 207.104 122.344 206.945 122.185 206.829C122.114 206.177 122.064 206.152 122.425 205.615Z" fill="white"/>
<path d="M77.3926 180.693C78.7616 180.432 80.4659 180.611 81.8756 180.612L91.3721 180.625C94.4088 180.628 97.7671 180.311 100.771 180.618C101.319 180.674 101.324 180.793 101.666 181.204L101.603 181.772L101.067 182.152L85.2921 182.156C82.6663 182.157 79.8875 182.399 77.2857 182.142C76.8317 181.739 76.8918 181.688 76.8203 181.074L77.3926 180.693Z" fill="white"/>
<path d="M110.903 180.693C111.592 180.525 112.396 180.606 113.108 180.606L117.582 180.603L134.803 180.603L140.08 180.601C140.682 180.601 141.586 180.482 142.161 180.601C142.319 180.634 142.443 180.756 142.585 180.834L142.751 181.454L142.372 182.024C141.457 182.258 140.309 182.126 139.365 182.126L133.889 182.127L110.96 182.12C110.536 181.761 110.582 181.727 110.5 181.168L110.903 180.693Z" fill="white"/>
<path d="M77.4203 205.615C78.4979 205.385 79.8327 205.527 80.9403 205.529L87.3547 205.539L104.628 205.568L109.575 205.571C110.538 205.573 111.54 205.5 112.482 205.712C112.851 206.161 112.862 206.176 112.886 206.756L112.291 207.128C110.642 207.432 108.496 207.186 106.8 207.186L93.639 207.185L82.379 207.213C80.7508 207.217 78.7292 207.477 77.1787 207.089C76.794 206.604 76.8431 206.622 76.9051 205.998L77.4203 205.615Z" fill="white"/>
<path d="M94.6491 192.869L130.111 192.833L138.966 192.805C139.843 192.804 141.165 192.618 141.97 192.816C142.273 192.89 142.3 192.928 142.527 193.073C142.691 193.617 142.699 193.619 142.486 194.144C141.609 194.668 138.852 194.349 137.705 194.349L124.358 194.342L86.8443 194.376L79.4117 194.443C78.8733 194.45 77.7333 194.633 77.2858 194.475C77.1393 194.424 77.032 194.296 76.9053 194.206C76.8155 193.63 76.8292 193.603 77.0956 193.083C78.4155 192.495 92.0606 192.867 94.6491 192.869Z" fill="white"/>
<path d="M41.114 172.688C45.5564 172.406 50.5785 174.37 54.1054 177.015C58.3898 180.228 61.043 184.652 61.7431 189.939C62.3656 194.638 60.7021 199.776 57.8255 203.487C53.8687 208.593 48.9763 210.777 42.7194 211.583C41.5996 211.604 40.4729 211.657 39.3607 211.502C35.5732 210.976 32.1704 209.943 29.1599 207.487C25.0254 204.114 22.1455 199.054 21.663 193.731C21.217 188.809 22.9985 183.501 26.2195 179.756C29.9879 175.374 35.4652 173.124 41.114 172.688Z" fill="#1E2033"/>
<path d="M35.7921 175.307L33.2169 179.172L29.9134 179.113L29.4629 178.968C31.0473 177.232 33.6788 176.208 35.7921 175.307Z" fill="#FFFFFE"/>
<path d="M39.0024 174.986C39.1226 175.031 39.2284 175.108 39.3372 175.176L38.9042 179.211L35.6217 179.102L35.0764 179.042L35.0635 178.791C36.0486 177.19 37.2563 175.772 39.0024 174.986Z" fill="#FFFFFE"/>
<path d="M29.6581 205.045L32.7318 204.934L36.3861 209.381C33.9433 208.51 30.8578 207.386 29.2251 205.259L29.6581 205.045Z" fill="#FFFFFE"/>
<path d="M37.0434 204.851L38.8873 204.851L39.3275 208.924C39.3873 209.239 39.4048 209.064 39.2362 209.408L38.9706 209.275L37.9254 208.508C36.6454 207.525 35.5652 206.212 34.5869 204.939L37.0434 204.851Z" fill="#FFFFFE"/>
<path d="M41.3013 174.604C41.883 174.671 42.3796 175.212 42.7487 175.636C43.4716 176.466 44.5842 178.069 44.5286 179.17L43.8019 179.262L40.2846 179.257L40.213 179.045C40.1449 178.073 40.6658 175.271 41.3013 174.604Z" fill="#FFFFFE"/>
<path d="M43.9062 174.44C46.4693 174.963 48.4212 176.003 49.9607 178.167C50.1434 178.424 50.054 178.494 50.0033 178.791C48.7629 179.128 47.4076 179.068 46.128 179.1C45.6337 177.486 44.7182 175.913 43.9062 174.44Z" fill="#FFFFFE"/>
<path d="M40.2192 204.801L44.9146 204.777C44.4066 206.041 43.8739 207.149 43.1133 208.28C42.6704 208.744 42.1271 209.483 41.519 209.704L41.3272 209.556C40.3733 208.665 40.3364 206.073 40.2192 204.801Z" fill="#FFFFFE"/>
<path d="M46.2974 204.882L50.9235 204.935C49.8105 206.413 48.7508 207.649 47.2106 208.703C46.009 209.294 44.7381 209.505 43.4326 209.746C44.9641 208.212 45.6037 206.904 46.2974 204.882Z" fill="#FFFFFE"/>
<path d="M55.9571 196.592L59.6251 196.579C58.1773 200.507 55.9891 203.281 52.9074 206.084L50.1553 207.939C52.9987 204.526 55.0085 200.953 55.9571 196.592Z" fill="#FFFFFE"/>
<path d="M55.8745 188.77L59.9725 188.75C60.3237 190.906 60.326 192.8 60.0079 194.961C59.3857 195.53 56.9631 195.259 56.0233 195.259L55.8745 188.77Z" fill="#FFFFFE"/>
<path d="M50.0278 176.474L50.1796 176.543C54.6638 178.634 57.8996 182.9 59.5943 187.448L55.7855 187.454C55.0306 183.046 52.7522 179.888 50.0278 176.474Z" fill="#FFFFFE"/>
<path d="M27.9453 180.391L32.4356 180.394C31.1826 182.666 30.2953 184.853 29.599 187.352L28.9148 187.449L24.0566 187.437C24.745 184.863 26.2061 182.39 27.9453 180.391Z" fill="#FFFFFE"/>
<path d="M23.7666 196.444L29.4353 196.422C29.982 199.03 30.8834 201.243 32.0767 203.619L27.863 203.772C25.9438 202.222 24.6216 198.694 23.7666 196.444Z" fill="#FFFFFE"/>
<path d="M23.6739 188.772L29.478 188.758L29.2946 195.131L23.5589 195.103C23.3329 192.933 23.422 190.939 23.6739 188.772Z" fill="#FFFFFE"/>
<path d="M40.0094 180.571L45.0978 180.565L46.2328 187.062L45.8949 187.445L39.6943 187.449L40.0094 180.571Z" fill="#FFFFFE"/>
<path d="M39.6982 196.508L46.3318 196.511L45.2725 202.596L45.0442 203.333C44.1805 203.85 41.186 203.488 40.0544 203.482L39.6982 196.508Z" fill="#FFFFFE"/>
<path d="M51.2076 180.312L51.4267 180.369C53.083 182.381 53.9137 184.904 54.3493 187.434L49.6673 187.436L47.6853 187.447L46.4502 180.439L51.2076 180.312Z" fill="#FFFFFE"/>
<path d="M37.077 180.502L38.8053 180.537L38.3582 187.448L33.2005 187.443L30.9678 187.386C31.7467 184.907 32.5522 182.744 33.9197 180.515L37.077 180.502Z" fill="#FFFFFE"/>
<path d="M47.6434 196.544L54.519 196.58C54.032 198.679 53.3547 200.424 52.3958 202.347C52.1591 202.827 51.927 203.251 51.6017 203.682L46.6278 203.626C46.4075 203.079 47.5011 197.691 47.6434 196.544Z" fill="#FFFFFE"/>
<path d="M39.5703 188.758L46.3774 188.762L46.4029 195.24L39.6574 195.224L39.5703 188.758Z" fill="#FFFFFE"/>
<path d="M47.7348 188.776L54.5195 188.784C54.7858 190.923 54.7147 193.103 54.61 195.25L47.7227 195.247L47.7348 188.776Z" fill="#FFFFFE"/>
<path d="M30.8887 196.423L38.2924 196.456L38.7494 203.46L33.6781 203.48C32.3228 201.125 31.4564 199.077 30.8887 196.423Z" fill="#FFFFFE"/>
<path d="M30.7725 188.739L38.3455 188.74L38.3295 195.207L30.7873 195.175L30.7725 188.739Z" fill="#FFFFFE"/>
<path d="M196.111 100.081L196.578 99.998L196.844 100.189L196.867 102.201L187.677 102.363C187.062 102.882 186.418 103.399 186.252 104.231C186.048 105.253 186.243 106.295 186.369 107.317L187.013 112.122C188.538 122.946 191.038 134.276 196.046 144.075C197.42 146.762 199.12 149.301 200.731 151.85L58.6654 151.685L43.3374 151.69L43.3674 101.83L132.044 101.839L171.438 101.83L184.826 101.767C186.744 101.74 188.824 101.854 190.716 101.622C192.473 101.405 194.365 100.517 196.111 100.081Z" fill="#F4555A"/>
<path d="M143.432 155.116L203.181 154.956C209.498 162.718 216.564 168.849 224.852 174.427C226.795 175.734 228.718 177.111 230.745 178.283L238.229 173.597L238.376 201.336C233.496 201.34 229.318 201.105 225.611 204.82C224.06 206.373 222.962 208.423 222.487 210.564C222.184 211.929 222.251 213.353 222.248 214.744L222.244 220.775L222.26 239.759C222.285 242.942 223.194 245.695 225.489 247.982C226.502 248.991 227.632 249.692 228.885 250.363C232.091 251.175 235.218 251.002 238.498 250.996L238.52 254.932L238.564 255.674L238.432 264.358L61.3869 264.311C59.6016 264.32 57.6967 264.462 55.9268 264.244C53.3099 263.922 50.6857 262.796 48.6001 261.186C45.4862 258.781 43.7427 255.345 43.2127 251.491C42.9284 249.425 43.0807 247.211 43.0817 245.125L43.0973 233.878L43.0773 227.677C43.0763 227.099 42.9387 226.065 43.2263 225.575L44.1553 225.546L143.667 225.528C146.982 225.523 150.704 225.86 153.954 225.24C155.817 224.632 157.766 223.716 159.16 222.304C163.343 218.069 162.597 212.66 162.591 207.22L168.642 207.175L213.583 207.167C213.938 206.484 213.729 205.051 213.731 204.24L213.74 195.988L168.737 195.97L168.546 196.013L162.631 196.003L162.599 188.38L168.728 188.354L173.832 188.359L213.865 188.321L213.827 177.355L168.741 177.327L162.637 177.322C162.708 174.621 162.658 172.391 161.736 169.832C160.037 167.094 157.763 164.757 154.569 163.843L154.328 163.777C152.928 163.371 151.432 163.494 149.985 163.512L143.432 155.116Z" fill="#1E2033"/>
<path d="M127.91 229.653L151.113 229.683L148.947 233.64L148.797 233.672L125.618 233.63L127.91 229.653Z" fill="#1E2033"/>
<path d="M168.641 207.175L213.582 207.167C212.425 207.538 210.679 207.334 209.451 207.339L200.7 207.345L168.543 207.3L168.548 214.197C168.546 218.679 168.444 222.871 165.045 226.242C163.132 228.14 160.815 229.299 158.161 229.672L157.879 229.715C155.699 230.027 153.292 229.857 151.083 229.861L153.092 226.811C153.421 226.337 153.881 225.823 153.954 225.24C155.816 224.632 157.765 223.716 159.159 222.304C163.342 218.069 162.597 212.661 162.59 207.22L168.641 207.175Z" fill="#1E2033"/>
<path d="M125.511 233.639L125.618 233.63L148.797 233.672L142.033 244.826L141.928 244.845L118.409 244.835L118.219 244.712C118.41 244.653 118.63 244.651 118.793 244.534C118.912 244.449 119.093 244.03 119.182 243.88L120.543 241.61L125.511 233.639Z" fill="white"/>
<path d="M44.1548 225.546L143.667 225.527L143.518 225.552C142.038 225.769 140.44 225.651 138.944 225.653L130.263 225.666L127.91 229.653C126.571 229.732 125.173 229.616 123.83 229.598L116.751 229.579L86.0082 229.627L69.4123 229.588C66.8524 229.58 63.9432 229.841 61.4267 229.438L61.4417 225.688L49.9419 225.708C48.1456 225.707 45.89 225.959 44.1548 225.546Z" fill="#1E2033"/>
<path d="M118.409 244.835L141.928 244.845L130.112 264.164L106.435 264.166L118.409 244.835Z" fill="#1E2033"/>
<path d="M118.218 244.712L74.6147 244.789L74.6367 233.672L125.511 233.638L120.542 241.609L119.182 243.88C119.093 244.03 118.912 244.449 118.793 244.534C118.63 244.651 118.41 244.653 118.218 244.712Z" fill="white"/>
<path d="M43.0969 233.878C43.6125 232.811 44.6391 231.585 45.5611 230.852L45.7681 230.692C46.3317 230.248 46.8377 229.877 47.5413 229.688C48.9323 229.316 50.7345 229.502 52.1874 229.497L61.3167 229.48C61.509 230.356 61.4304 231.292 61.43 232.185L61.4267 236.271L61.4004 252.257L61.4097 260.004C61.4137 261.403 61.5377 262.923 61.3864 264.311C59.6011 264.32 57.6962 264.462 55.9263 264.244C53.3094 263.922 50.6852 262.796 48.5996 261.185C45.4858 258.781 43.7422 255.345 43.2122 251.49C42.9279 249.425 43.0802 247.211 43.0812 245.125L43.0969 233.878Z" fill="#1E2033"/>
<path d="M148.947 233.64L213.801 233.65L213.786 244.825L142.033 244.825L148.797 233.672L148.947 233.64Z" fill="white"/>
<path d="M249.985 251.042L249.985 264.5L238.5 264.5L238 264.5L238 251.097L249.834 251L249.985 251.042Z" fill="#2C3E6E"/>
<path d="M197.228 39L197.148 39.0067C196.377 39.0608 195.715 39.1501 195.029 39.5407C194.11 40.0645 193.37 41.0406 193.117 42.0626C192.857 43.1159 193.029 44.3556 193.65 45.2618C194.393 46.345 195.334 46.7314 196.573 46.9967C197.425 47.0218 198.214 46.9101 198.962 46.4723C199.924 45.9091 200.673 44.872 200.915 43.7892C201.129 42.8262 200.933 41.6128 200.391 40.7914C199.644 39.6589 198.508 39.2313 197.228 39Z" fill="#F4555A"/>
<path d="M114.814 48L114.704 48.0092C113.643 48.0836 112.733 48.2064 111.79 48.7435C110.526 49.4636 109.508 50.8059 109.161 52.2111C108.803 53.6593 109.04 55.3639 109.894 56.61C110.915 58.0994 112.209 58.6307 113.912 58.9954C115.084 59.0299 116.169 58.8764 117.198 58.2744C118.521 57.5 119.551 56.0739 119.883 54.5851C120.178 53.2611 119.908 51.5925 119.163 50.4632C118.135 48.906 116.573 48.318 114.814 48Z" fill="#F4555A"/>
<path d="M22.7566 131L22.6669 131.008C21.7987 131.068 21.054 131.169 20.2827 131.608C19.2489 132.198 18.4157 133.296 18.1315 134.445C17.839 135.63 18.0326 137.025 18.7313 138.045C19.5669 139.263 20.6257 139.698 22.0193 139.996C22.9777 140.024 23.8656 139.899 24.7072 139.406C25.7899 138.773 26.6324 137.606 26.904 136.388C27.1455 135.305 26.9249 133.939 26.315 133.015C25.474 131.741 24.1964 131.26 22.7566 131Z" fill="#F4555A"/>
<path d="M290.171 106L290.111 106.005C289.532 106.046 289.036 106.113 288.522 106.406C287.833 106.798 287.277 107.53 287.088 108.297C286.893 109.087 287.022 110.017 287.488 110.696C288.045 111.509 288.75 111.799 289.68 111.998C290.318 112.016 290.91 111.933 291.471 111.604C292.193 111.182 292.755 110.404 292.936 109.592C293.097 108.87 292.95 107.96 292.543 107.344C291.983 106.494 291.131 106.173 290.171 106Z" fill="#F4555A"/>
<defs>
<linearGradient id="paint0_linear_46_1567" x1="223.159" y1="142.02" x2="239.772" y2="131.806" gradientUnits="userSpaceOnUse">
<stop stop-color="#AFC6DC"/>
<stop offset="1" stop-color="#BDDCE5"/>
</linearGradient>
</defs>
</svg>
