<svg width="56" height="56" viewBox="0 0 56 56" fill="none" xmlns="http://www.w3.org/2000/svg">
<g clip-path="url(#clip0_46_1691)">
<rect y="27.9517" width="39.5294" height="39.5294" rx="3.29412" transform="rotate(-45 0 27.9517)" fill="#1E2033"/>
<g clip-path="url(#clip1_46_1691)">
<path fill-rule="evenodd" clip-rule="evenodd" d="M27.22 17.1409C27.7229 16.953 28.2771 16.953 28.78 17.1409L36.5578 20.0469C36.9815 20.2051 37.3466 20.4884 37.6043 20.8589C37.862 21.2295 38.0001 21.6696 38 22.1204V28.0575C38 29.9078 37.4829 31.7216 36.5066 33.2956C35.5303 34.8696 34.1333 36.1417 32.4722 36.9692L28.7456 38.8246C28.5141 38.9399 28.2588 39 28 39C27.7412 39 27.4859 38.9399 27.2544 38.8246L23.5278 36.9681C21.8667 36.1406 20.4697 34.8685 19.4934 33.2945C18.5171 31.7205 18 29.9067 18 28.0564V22.1215C17.9997 21.6705 18.1377 21.2302 18.3954 20.8594C18.6531 20.4887 19.0184 20.2052 19.4422 20.0469L27.22 17.1409ZM29.1111 27.6988C29.5347 27.4551 29.8658 27.0789 30.053 26.6286C30.2402 26.1783 30.273 25.6791 30.1464 25.2083C30.0198 24.7375 29.7408 24.3215 29.3527 24.0248C28.9647 23.7281 28.4892 23.5673 28 23.5673C27.5108 23.5673 27.0353 23.7281 26.6473 24.0248C26.2592 24.3215 25.9802 24.7375 25.8536 25.2083C25.727 25.6791 25.7598 26.1783 25.947 26.6286C26.1342 27.0789 26.4653 27.4551 26.8889 27.6988V31.3166C26.8889 31.6102 27.006 31.8918 27.2143 32.0994C27.4227 32.307 27.7053 32.4236 28 32.4236C28.2947 32.4236 28.5773 32.307 28.7857 32.0994C28.994 31.8918 29.1111 31.6102 29.1111 31.3166V27.6988Z" fill="white"/>
</g>
</g>
<defs>
<clipPath id="clip0_46_1691">
<rect y="27.9517" width="39.5294" height="39.5294" rx="3.29412" transform="rotate(-45 0 27.9517)" fill="white"/>
</clipPath>
<clipPath id="clip1_46_1691">
<rect width="28" height="28" fill="white" transform="translate(14 14)"/>
</clipPath>
</defs>
</svg>
