<svg width="56" height="56" viewBox="0 0 56 56" fill="none" xmlns="http://www.w3.org/2000/svg">
<rect y="27.9517" width="39.5294" height="39.5294" rx="3.29412" transform="rotate(-45 0 27.9517)" fill="#1E2033"/>
<path d="M28 26.4507C27.5822 26.4507 27.1816 26.6166 26.8862 26.912C26.5908 27.2074 26.4248 27.6081 26.4248 28.0258C26.4248 28.4436 26.5908 28.8442 26.8862 29.1396C27.1816 29.435 27.5822 29.601 28 29.601C28.4177 29.601 28.8184 29.435 29.1138 29.1396C29.4091 28.8442 29.5751 28.4436 29.5751 28.0258C29.5751 27.6081 29.4091 27.2074 29.1138 26.912C28.8184 26.6166 28.4177 26.4507 28 26.4507Z" fill="white"/>
<path d="M19.3943 21.2371C19.3942 20.7331 19.5711 20.2451 19.894 19.8582C20.217 19.4713 20.6655 19.2101 21.1613 19.1201L32.6355 17.0346C32.9454 16.9783 33.2639 16.9908 33.5685 17.0711C33.8731 17.1514 34.1563 17.2976 34.3981 17.4994C34.64 17.7012 34.8346 17.9536 34.9682 18.2389C35.1018 18.5241 35.1712 18.8352 35.1713 19.1502V19.8243C35.6076 20.0762 35.9699 20.4385 36.2216 20.8748C36.4734 21.3112 36.6059 21.8061 36.6056 22.3099V36.6527C36.6056 37.4135 36.3034 38.1431 35.7654 38.681C35.2275 39.219 34.4979 39.5212 33.7371 39.5212H22.2628C21.8523 39.5213 21.4464 39.4333 21.0728 39.263C20.6992 39.0928 20.3664 38.8443 20.0971 38.5344C19.8755 38.3327 19.6986 38.0868 19.5775 37.8126C19.4565 37.5385 19.3941 37.2421 19.3943 36.9424V21.2371ZM23.6971 28.047C23.6971 29.1882 24.1505 30.2826 24.9574 31.0896C25.7643 31.8965 26.8588 32.3498 28 32.3498C29.1411 32.3498 30.2356 31.8965 31.0425 31.0896C31.8495 30.2826 32.3028 29.1882 32.3028 28.047C32.3028 26.9058 31.8495 25.8114 31.0425 25.0044C30.2356 24.1975 29.1411 23.7442 28 23.7442C26.8588 23.7442 25.7643 24.1975 24.9574 25.0044C24.1505 25.8114 23.6971 26.9058 23.6971 28.047ZM23.6971 34.5012C23.6971 34.6914 23.7727 34.8739 23.9072 35.0083C24.0417 35.1428 24.2241 35.2184 24.4143 35.2184H31.5856C31.7758 35.2184 31.9583 35.1428 32.0927 35.0083C32.2272 34.8739 32.3028 34.6914 32.3028 34.5012C32.3028 34.3111 32.2272 34.1286 32.0927 33.9942C31.9583 33.8597 31.7758 33.7841 31.5856 33.7841H24.4143C24.2241 33.7841 24.0417 33.8597 23.9072 33.9942C23.7727 34.1286 23.6971 34.3111 23.6971 34.5012Z" fill="white"/>
</svg>
