<svg width="56" height="56" viewBox="0 0 56 56" fill="none" xmlns="http://www.w3.org/2000/svg">
<rect y="27.9517" width="39.5294" height="39.5294" rx="3.29412" transform="rotate(-45 0 27.9517)" fill="#1E2033"/>
<path d="M22.9125 37.9946C22.2525 37.9761 21.6244 37.8053 21.0282 37.4821C20.432 37.159 19.8684 36.6827 19.3375 36.0534C18.6042 35.166 18.0314 34.1077 17.6193 32.8786C17.2072 31.6496 17.0007 30.3876 17 29.0927C17 27.5582 17.2889 26.1162 17.8668 24.7666C18.4447 23.4169 19.2282 22.243 20.2175 21.2446C21.2075 20.2463 22.3717 19.4561 23.71 18.8741C25.0483 18.2921 26.4783 18.0007 28 18C29.5217 18 30.9517 18.2958 32.29 18.8874C33.6283 19.479 34.7925 20.2832 35.7825 21.3001C36.7725 22.3169 37.5564 23.5094 38.1343 24.8775C38.7122 26.2456 39.0007 27.7154 39 29.2868C39 30.7104 38.7708 32.0415 38.3125 33.2802C37.8542 34.5189 37.2033 35.5635 36.36 36.4139C35.8467 36.9316 35.3058 37.3246 34.7375 37.593C34.1692 37.8615 33.5917 37.9953 33.005 37.9946C32.675 37.9946 32.345 37.9532 32.015 37.8704C31.685 37.7875 31.355 37.6626 31.025 37.4954L29.485 36.7189C29.265 36.608 29.0311 36.5248 28.7832 36.4694C28.5353 36.4139 28.2743 36.3862 28 36.3862C27.725 36.3862 27.4639 36.4139 27.2168 36.4694C26.9697 36.5248 26.7357 36.608 26.515 36.7189L24.975 37.4954C24.6267 37.6803 24.2831 37.8145 23.9443 37.8981C23.6055 37.9817 23.2616 38.0138 22.9125 37.9946ZM28 31.3112C28.605 31.3112 29.1231 31.0942 29.5543 30.6601C29.9855 30.226 30.2007 29.7035 30.2 29.0927C30.2 28.9448 30.1861 28.7969 30.1582 28.649C30.1303 28.5011 30.0893 28.3532 30.035 28.2053L31.41 26.3473C31.5933 26.5876 31.7539 26.8416 31.8918 27.1093C32.0297 27.377 32.1441 27.6684 32.235 27.9834H34.49C34.215 26.3565 33.4681 25.0254 32.2493 23.9901C31.0305 22.9547 29.6141 22.4371 28 22.4371C26.3867 22.4371 24.9658 22.9595 23.7375 24.0045C22.5092 25.0494 21.7667 26.3757 21.51 27.9834H23.765C24.0217 26.9851 24.5442 26.1809 25.3325 25.5708C26.1208 24.9607 27.01 24.6556 28 24.6556C28.3117 24.6556 28.605 24.6834 28.88 24.7388C29.155 24.7943 29.4208 24.8775 29.6775 24.9884L28.275 26.9019C28.2383 26.9019 28.1925 26.8971 28.1375 26.8875C28.0825 26.8779 28.0367 26.8734 28 26.8742C27.395 26.8742 26.8773 27.0916 26.4468 27.5264C26.0163 27.9613 25.8007 28.4833 25.8 29.0927C25.8 29.7028 26.0156 30.2253 26.4468 30.6601C26.878 31.0949 27.3957 31.312 28 31.3112Z" fill="white"/>
</svg>
