<svg width="56" height="56" viewBox="0 0 56 56" fill="none" xmlns="http://www.w3.org/2000/svg">
<rect y="27.9517" width="39.5294" height="39.5294" rx="3.29412" transform="rotate(-45 0 27.9517)" fill="#1E2033"/>
<mask id="mask0_26_1013" style="mask-type:luminance" maskUnits="userSpaceOnUse" x="18" y="15" width="20" height="26">
<path d="M28.0001 39.3751C28.0001 39.3751 36.5314 32.5501 36.5314 25.1563C36.5314 20.4447 32.7116 16.625 28.0001 16.625C23.2885 16.625 19.4688 20.4447 19.4688 25.1563C19.4688 32.5501 28.0001 39.3751 28.0001 39.3751Z" fill="white" stroke="white" stroke-width="2.33333" stroke-linejoin="round"/>
<path d="M28.0002 28.5687C28.4483 28.5687 28.8921 28.4804 29.3061 28.3089C29.7201 28.1374 30.0963 27.8861 30.4132 27.5692C30.7301 27.2523 30.9814 26.8761 31.1529 26.4621C31.3244 26.0481 31.4127 25.6043 31.4127 25.1562C31.4127 24.708 31.3244 24.2643 31.1529 23.8503C30.9814 23.4362 30.7301 23.06 30.4132 22.7432C30.0963 22.4263 29.7201 22.1749 29.3061 22.0034C28.8921 21.8319 28.4483 21.7437 28.0002 21.7437C27.0951 21.7437 26.2271 22.1032 25.5872 22.7432C24.9472 23.3831 24.5876 24.2511 24.5876 25.1562C24.5876 26.0612 24.9472 26.9292 25.5872 27.5692C26.2271 28.2092 27.0951 28.5687 28.0002 28.5687Z" fill="black" stroke="black" stroke-width="2.33333" stroke-linejoin="round"/>
</mask>
<g mask="url(#mask0_26_1013)">
<path d="M14.3499 14.3501H41.65V41.6503H14.3499V14.3501Z" fill="white"/>
</g>
</svg>
