<svg width="28" height="28" viewBox="0 0 28 28" fill="none" xmlns="http://www.w3.org/2000/svg">
<path d="M14.0007 2.3335C20.4442 2.3335 25.6673 7.55666 25.6673 14.0002C25.6673 20.4437 20.4442 25.6668 14.0007 25.6668C7.55715 25.6668 2.33398 20.4437 2.33398 14.0002C2.33398 7.55666 7.55715 2.3335 14.0007 2.3335ZM14.0007 7.00016C13.6912 7.00016 13.3945 7.12308 13.1757 7.34187C12.9569 7.56066 12.834 7.85741 12.834 8.16683V14.0002C12.8341 14.3096 12.957 14.6063 13.1758 14.825L16.6758 18.325C16.8959 18.5375 17.1906 18.6551 17.4965 18.6524C17.8023 18.6498 18.095 18.5271 18.3113 18.3108C18.5276 18.0945 18.6503 17.8019 18.6529 17.496C18.6556 17.1901 18.538 16.8954 18.3255 16.6753L15.1673 13.5172V8.16683C15.1673 7.85741 15.0444 7.56066 14.8256 7.34187C14.6068 7.12308 14.3101 7.00016 14.0007 7.00016Z" fill="white"/>
</svg>
