<svg width="56" height="56" viewBox="0 0 56 56" fill="none" xmlns="http://www.w3.org/2000/svg">
<g clip-path="url(#clip0_1604_3012)">
<rect y="27.9517" width="39.5294" height="39.5294" rx="3.29412" transform="rotate(-45 0 27.9517)" fill="#1E2033"/>
<path d="M28.0007 16.3335C34.4442 16.3335 39.6673 21.5567 39.6673 28.0002C39.6673 34.4437 34.4442 39.6668 28.0007 39.6668C21.5572 39.6668 16.334 34.4437 16.334 28.0002C16.334 21.5567 21.5572 16.3335 28.0007 16.3335ZM28.0007 21.0002C27.6912 21.0002 27.3945 21.1231 27.1757 21.3419C26.9569 21.5607 26.834 21.8574 26.834 22.1668V28.0002C26.8341 28.3096 26.957 28.6063 27.1758 28.825L30.6758 32.325C30.8959 32.5375 31.1906 32.6551 31.4965 32.6524C31.8023 32.6498 32.095 32.5271 32.3113 32.3108C32.5276 32.0945 32.6503 31.8019 32.6529 31.496C32.6556 31.1901 32.538 30.8954 32.3255 30.6753L29.1673 27.5172V22.1668C29.1673 21.8574 29.0444 21.5607 28.8256 21.3419C28.6068 21.1231 28.3101 21.0002 28.0007 21.0002Z" fill="white"/>
</g>
<defs>
<clipPath id="clip0_1604_3012">
<rect y="27.9517" width="39.5294" height="39.5294" rx="3.29412" transform="rotate(-45 0 27.9517)" fill="white"/>
</clipPath>
</defs>
</svg>
