<svg width="55" height="51" viewBox="0 0 55 51" fill="none" xmlns="http://www.w3.org/2000/svg">
<path d="M10.4323 0.156876C11.745 -0.0442505 13.0784 0.0180893 14.4029 0.0128937C23.2995 0.0102959 32.196 0.0154953 41.0957 0.0102997C42.9857 -0.0442505 44.9166 0.104923 46.6836 0.769905C51.0236 2.27316 54.2061 6.30795 54.3351 10.6084C54.3379 20.1917 54.3319 29.7752 54.3379 39.3587C54.3059 41.7408 53.2975 44.0635 51.7065 45.9166C49.5147 48.4753 46.0508 50.0355 42.5256 50.0735C32.3691 50.0762 22.2152 50.0788 12.0585 50.0707C6.96249 50.0274 2.18314 46.6357 0.805809 42.0936C0.17585 40.3327 0.366372 38.466 0.342889 36.6426C0.342889 27.96 0.342889 19.2746 0.342889 10.5895C0.486448 5.47747 4.98461 0.886425 10.4323 0.156876Z" fill="#E22338"/>
<path d="M24.0439 12.8227C25.1603 11.8761 26.2298 10.8801 27.3025 9.89265C28.3924 10.8693 29.4767 11.8516 30.6137 12.7819C29.6027 13.8349 28.4189 14.7358 27.3025 15.6907C26.2123 14.7385 25.1047 13.8024 24.0439 12.8227ZM10.1333 22.2542C14.7224 18.7188 20.6183 16.7571 26.5669 16.5591C26.5669 21.8826 26.5932 27.206 26.5551 32.5295C24.4571 32.4672 22.3618 32.5377 20.2666 32.5024C19.5633 32.4672 19.2206 31.8459 18.9829 31.3195C17.6115 28.3809 16.2051 25.456 14.8483 22.5121C14.4674 22.6884 14.0953 22.881 13.7319 23.0845C15.1473 26.2808 16.759 29.4012 18.2417 32.573C17.1546 32.5759 16.0673 32.5676 14.9801 32.5812C13.3158 29.1596 11.742 25.6975 10.1333 22.2542ZM17.4769 21.188C18.737 24.0072 20.0702 26.7992 21.3683 29.6047C21.6643 30.4566 22.8335 30.123 23.5603 30.1988C23.575 26.6174 23.5721 23.0357 23.5603 19.4514C21.4593 19.7742 19.408 20.355 17.4769 21.188ZM28.1142 16.5618C34.0716 16.7382 39.9499 18.7243 44.5533 22.238C43.0064 25.6595 41.3624 29.0458 39.8034 32.4645L39.6306 32.5704C38.5931 32.5759 37.553 32.5759 36.5155 32.5704C38.01 29.4554 39.4283 26.308 40.9813 23.2175C40.6442 22.938 40.2811 22.6856 39.8972 22.4686C38.3821 25.5456 36.9874 28.674 35.4782 31.7535C35.2614 32.2774 34.6518 32.5676 34.0628 32.5215C32.0789 32.5024 30.0951 32.4944 28.1142 32.5215C28.1083 27.2007 28.1053 21.8798 28.1142 16.5618ZM31.1178 19.4569C31.1148 23.0357 31.112 26.6119 31.1206 30.1908C31.8152 30.123 32.8848 30.4458 33.2628 29.7133C34.6138 26.8805 35.9704 24.0478 37.2803 21.1989C35.3259 20.3577 33.2452 19.7797 31.1178 19.4569ZM15.0651 33.6204C23.2672 33.5527 31.4752 33.604 39.6803 33.5933C39.6919 34.4506 39.6919 35.3081 39.6803 36.1654C31.4782 36.1681 23.2732 36.1788 15.0709 36.16C15.0681 35.3135 15.0709 34.4669 15.0651 33.6204Z" fill="#F8C622"/>
</svg>
