<svg width="103" height="52" viewBox="0 0 103 52" fill="none" xmlns="http://www.w3.org/2000/svg">
<g clip-path="url(#clip0_757_8783)">
<path d="M41.8235 21.5915C41.3178 21.5915 40.8543 21.5248 40.4329 21.3914C40.0116 21.2509 39.6499 21.0297 39.3479 20.7277C39.0529 20.4257 38.8212 20.036 38.6526 19.5584C38.4841 19.0809 38.3998 18.498 38.3998 17.8097V17.6096C38.3998 16.9635 38.4876 16.4087 38.6632 15.9452C38.8388 15.4817 39.081 15.1024 39.39 14.8075C39.699 14.5125 40.0607 14.2948 40.4751 14.1543C40.8964 14.0139 41.3459 13.9437 41.8235 13.9437C42.2519 13.9437 42.6522 13.9928 43.0244 14.0911C43.4036 14.1895 43.7337 14.344 44.0146 14.5547C44.3025 14.7653 44.5343 15.0392 44.7098 15.3763C44.8924 15.7134 45.0013 16.1243 45.0364 16.6088H43.077C43.0419 16.4122 42.9857 16.2472 42.9085 16.1137C42.8312 15.9733 42.7364 15.8609 42.6241 15.7766C42.5117 15.6853 42.3853 15.6221 42.2448 15.587C42.1114 15.5449 41.9709 15.5238 41.8235 15.5238C41.6128 15.5238 41.4161 15.5624 41.2335 15.6397C41.058 15.7099 40.9035 15.8293 40.77 15.9978C40.6436 16.1594 40.5418 16.3736 40.4645 16.6404C40.3943 16.9073 40.3592 17.2304 40.3592 17.6096V17.8308C40.3592 18.2381 40.3978 18.5822 40.4751 18.8632C40.5593 19.1371 40.6682 19.3618 40.8016 19.5374C40.9351 19.7059 41.0896 19.8288 41.2651 19.9061C41.4407 19.9763 41.6268 20.0114 41.8235 20.0114C42.1816 20.0114 42.466 19.9271 42.6767 19.7586C42.8944 19.583 43.0279 19.3056 43.077 18.9264H45.0364C45.0083 19.418 44.9065 19.8323 44.7309 20.1694C44.5624 20.5065 44.3341 20.7804 44.0462 20.9911C43.7653 21.2018 43.4352 21.3563 43.056 21.4546C42.6767 21.5459 42.2659 21.5915 41.8235 21.5915ZM48.4596 21.5915C48.0663 21.5915 47.6976 21.5354 47.3535 21.423C47.0094 21.3036 46.7074 21.1245 46.4476 20.8857C46.1877 20.647 45.9841 20.3485 45.8366 19.9903C45.6891 19.6251 45.6154 19.2003 45.6154 18.7157V18.505C45.6154 18.0485 45.6891 17.6482 45.8366 17.3041C45.9841 16.96 46.1877 16.672 46.4476 16.4403C46.7074 16.2085 47.0094 16.033 47.3535 15.9136C47.6976 15.7942 48.0663 15.7345 48.4596 15.7345C48.8529 15.7345 49.2216 15.7942 49.5657 15.9136C49.9098 16.033 50.2118 16.2085 50.4717 16.4403C50.7315 16.672 50.9352 16.96 51.0827 17.3041C51.2301 17.6482 51.3039 18.0485 51.3039 18.505V18.7157C51.3039 19.1932 51.2301 19.6146 51.0827 19.9798C50.9352 20.338 50.7315 20.6364 50.4717 20.8752C50.2118 21.114 49.9098 21.2931 49.5657 21.4125C49.2216 21.5318 48.8529 21.5915 48.4596 21.5915ZM48.4596 20.2432C48.8389 20.2432 49.1303 20.1062 49.334 19.8323C49.5376 19.5584 49.6395 19.1862 49.6395 18.7157V18.505C49.6395 18.0836 49.5376 17.743 49.334 17.4832C49.1303 17.2163 48.8389 17.0829 48.4596 17.0829C48.0804 17.0829 47.7889 17.2163 47.5853 17.4832C47.3816 17.743 47.2798 18.0836 47.2798 18.505V18.7157C47.2798 19.2003 47.3816 19.576 47.5853 19.8428C47.7889 20.1097 48.0804 20.2432 48.4596 20.2432ZM56.5669 21.4546H52.0372V15.8714H53.6594V20.1273H55.5767V15.8714H57.1989V20.1273H57.9363V22.7714H56.5669V21.4546ZM58.5672 15.8714H60.1473V19.2424L62.5175 15.8714H63.9396V21.4546H62.3595V18.0836L59.9893 21.4546H58.5672V15.8714ZM66.6296 21.5915C66.3276 21.5915 66.0572 21.5459 65.8184 21.4546C65.5867 21.3633 65.39 21.2404 65.2285 21.0859C65.067 20.9244 64.9441 20.7383 64.8598 20.5276C64.7755 20.3099 64.7334 20.0746 64.7334 19.8218C64.7334 19.267 64.902 18.8421 65.2391 18.5471C65.5832 18.2522 66.0994 18.1047 66.7876 18.1047H68.3783V17.8729C68.3783 17.5358 68.2975 17.3041 68.136 17.1777C67.9744 17.0442 67.7532 16.9775 67.4723 16.9775C67.2054 16.9775 67.0088 17.0197 66.8824 17.1039C66.756 17.1882 66.6858 17.3216 66.6717 17.5042H65.0494C65.0635 17.2514 65.1267 17.0197 65.2391 16.809C65.3514 16.5913 65.5094 16.4052 65.7131 16.2507C65.9238 16.0891 66.1801 15.9627 66.4821 15.8714C66.7841 15.7801 67.1317 15.7345 67.525 15.7345C67.8902 15.7345 68.2238 15.7766 68.5257 15.8609C68.8347 15.9381 69.0981 16.0681 69.3158 16.2507C69.5335 16.4262 69.7021 16.658 69.8215 16.9459C69.9408 17.2268 70.0005 17.571 70.0005 17.9783V20.0325C70.0005 20.3274 70.0076 20.5873 70.0216 20.812C70.0357 21.0297 70.0567 21.2439 70.0848 21.4546H68.5468C68.5328 21.3352 68.5187 21.2299 68.5047 21.1386C68.4977 21.0473 68.4941 20.9349 68.4941 20.8015C68.3256 21.0262 68.0903 21.2158 67.7883 21.3703C67.4934 21.5178 67.1071 21.5915 66.6296 21.5915ZM67.1563 20.4538C67.5004 20.4538 67.7883 20.3555 68.0201 20.1589C68.2589 19.9622 68.3783 19.6919 68.3783 19.3477V19.116H67.1036C66.8648 19.116 66.6858 19.1792 66.5664 19.3056C66.454 19.432 66.3978 19.5795 66.3978 19.748C66.3978 19.9517 66.454 20.1203 66.5664 20.2537C66.6858 20.3871 66.8824 20.4538 67.1563 20.4538ZM71.0548 21.5915C70.9986 21.5915 70.9178 21.588 70.8125 21.581C70.7142 21.581 70.6369 21.574 70.5807 21.5599V20.1483C70.6159 20.1554 70.6685 20.1589 70.7388 20.1589C70.8581 20.1589 70.9635 20.1238 71.0548 20.0535C71.1461 19.9763 71.2233 19.8534 71.2865 19.6848C71.3497 19.5093 71.3954 19.2845 71.4235 19.0106C71.4586 18.7297 71.4762 18.3856 71.4762 17.9783V15.8714H76.1112V21.4546H74.489V17.1987H72.9931V18.189C72.9931 18.8842 72.951 19.4531 72.8667 19.8955C72.7824 20.338 72.6595 20.6856 72.498 20.9384C72.3365 21.1912 72.1328 21.3633 71.887 21.4546C71.6482 21.5459 71.3708 21.5915 71.0548 21.5915ZM77.1618 15.8714H78.7841V17.6833H79.9007C80.6311 17.6833 81.1824 17.8378 81.5546 18.1468C81.9268 18.4558 82.1129 18.9299 82.1129 19.569C82.1129 19.8499 82.0707 20.1062 81.9865 20.338C81.9092 20.5697 81.7793 20.7699 81.5967 20.9384C81.4211 21.0999 81.1929 21.2263 80.912 21.3176C80.6381 21.4089 80.301 21.4546 79.9007 21.4546H77.1618V15.8714ZM79.69 20.2326C79.9779 20.2326 80.1816 20.1799 80.301 20.0746C80.4274 19.9622 80.4906 19.7937 80.4906 19.569C80.4906 19.3372 80.4274 19.1687 80.301 19.0633C80.1816 18.958 79.9779 18.9053 79.69 18.9053H78.7841V20.2326H79.69ZM82.7429 15.8714H84.3652V17.9467H86.4931V15.8714H88.1153V21.4546H86.4931V19.274H84.3652V21.4546H82.7429V15.8714ZM89.0671 15.8714H90.6894V17.6833H91.5954C92.3257 17.6833 92.877 17.8378 93.2492 18.1468C93.6214 18.4558 93.8075 18.9299 93.8075 19.569C93.8075 19.8499 93.7654 20.1062 93.6811 20.338C93.6039 20.5697 93.474 20.7699 93.2914 20.9384C93.1158 21.0999 92.8876 21.2263 92.6066 21.3176C92.3328 21.4089 91.9957 21.4546 91.5954 21.4546H89.0671V15.8714ZM91.3847 20.2326C91.6726 20.2326 91.8763 20.1799 91.9957 20.0746C92.1221 19.9622 92.1853 19.7937 92.1853 19.569C92.1853 19.3372 92.1221 19.1687 91.9957 19.0633C91.8763 18.958 91.6726 18.9053 91.3847 18.9053H90.6894V20.2326H91.3847ZM94.2921 15.8714H95.9144V21.4546H94.2921V15.8714ZM96.8625 15.8714H98.4426V19.2424L100.813 15.8714H102.235V21.4546H100.655V18.0836L98.2846 21.4546H96.8625V15.8714ZM99.5487 15.292C98.8605 15.292 98.3724 15.1621 98.0845 14.9023C97.7965 14.6354 97.6526 14.2386 97.6526 13.7119H99.0852C99.0852 13.9507 99.1238 14.1157 99.2011 14.207C99.2783 14.2983 99.3942 14.344 99.5487 14.344C99.7032 14.344 99.8191 14.2983 99.8964 14.207C99.9736 14.1157 100.012 13.9507 100.012 13.7119H101.445C101.445 14.2386 101.301 14.6354 101.013 14.9023C100.725 15.1621 100.237 15.292 99.5487 15.292Z" fill="#2F76E2"/>
<path d="M42.9672 37.4617C41.4924 37.4617 40.3788 37.1407 39.6263 36.4986C38.8839 35.8465 38.4926 34.9486 38.4525 33.8049H41.2516C41.2917 34.2864 41.4372 34.6677 41.688 34.9486C41.9388 35.2195 42.3652 35.3549 42.9672 35.3549C43.5691 35.3549 44.0056 35.2445 44.2764 35.0238C44.5473 34.8031 44.6828 34.4921 44.6828 34.0908C44.6828 33.9002 44.6527 33.7246 44.5925 33.5641C44.5423 33.3935 44.447 33.2531 44.3065 33.1427C44.1761 33.0223 43.9855 32.932 43.7347 32.8718C43.4939 32.8016 43.1879 32.7665 42.8167 32.7665H41.8536V30.9305H42.8167C43.0976 30.9305 43.3334 30.9004 43.524 30.8402C43.7146 30.77 43.8651 30.6797 43.9755 30.5693C44.0958 30.459 44.1811 30.3336 44.2313 30.1931C44.2814 30.0527 44.3065 29.9072 44.3065 29.7567C44.3065 29.6062 44.2865 29.4657 44.2463 29.3353C44.2062 29.1949 44.136 29.0745 44.0357 28.9741C43.9353 28.8738 43.7949 28.7936 43.6143 28.7334C43.4437 28.6732 43.228 28.6431 42.9672 28.6431C42.4856 28.6431 42.1244 28.7534 41.8837 28.9741C41.6429 29.1848 41.5074 29.5159 41.4773 29.9674H38.6782C38.7184 28.8036 39.0845 27.9408 39.7768 27.379C40.4691 26.8171 41.5325 26.5362 42.9672 26.5362C44.4018 26.5362 45.4503 26.7921 46.1124 27.3037C46.7746 27.8154 47.1056 28.5578 47.1056 29.531C47.1056 30.0828 46.9652 30.5543 46.6843 30.9456C46.4134 31.3268 46.0221 31.6027 45.5104 31.7733C46.1525 31.9237 46.6391 32.2147 46.9702 32.6461C47.3113 33.0675 47.4819 33.6193 47.4819 34.3015C47.4819 34.773 47.3916 35.2044 47.211 35.5957C47.0304 35.9769 46.7545 36.308 46.3833 36.5889C46.0121 36.8698 45.5405 37.0855 44.9687 37.236C44.4069 37.3865 43.7397 37.4617 42.9672 37.4617ZM51.063 37.4617C50.6316 37.4617 50.2454 37.3965 49.9043 37.2661C49.5732 37.1357 49.2923 36.9601 49.0615 36.7394C48.8308 36.5087 48.6552 36.2428 48.5348 35.9418C48.4144 35.6308 48.3542 35.2947 48.3542 34.9335C48.3542 34.141 48.595 33.534 49.0766 33.1126C49.5682 32.6912 50.3056 32.4806 51.2888 32.4806H53.5612V32.1495C53.5612 31.6679 53.4458 31.3368 53.215 31.1562C52.9843 30.9656 52.6683 30.8703 52.2669 30.8703C51.8857 30.8703 51.6048 30.9305 51.4242 31.0509C51.2436 31.1713 51.1433 31.3619 51.1232 31.6228H48.8057C48.8258 31.2616 48.9161 30.9305 49.0766 30.6295C49.2371 30.3185 49.4628 30.0527 49.7538 29.8319C50.0548 29.6012 50.4209 29.4206 50.8523 29.2902C51.2838 29.1598 51.7804 29.0945 52.3422 29.0945C52.8639 29.0945 53.3404 29.1547 53.7718 29.2751C54.2133 29.3855 54.5895 29.5711 54.9005 29.8319C55.2115 30.0828 55.4523 30.4138 55.6229 30.8252C55.7934 31.2265 55.8787 31.7181 55.8787 32.3V35.2345C55.8787 35.6559 55.8887 36.0271 55.9088 36.3481C55.9289 36.6591 55.959 36.9651 55.9991 37.2661H53.8019C53.7819 37.0956 53.7618 36.9451 53.7417 36.8146C53.7317 36.6842 53.7267 36.5237 53.7267 36.3331C53.4859 36.6541 53.1498 36.925 52.7184 37.1457C52.297 37.3564 51.7453 37.4617 51.063 37.4617ZM51.8155 35.8365C52.3071 35.8365 52.7184 35.696 53.0495 35.4151C53.3906 35.1342 53.5612 34.7479 53.5612 34.2563V33.9252H51.7402C51.3991 33.9252 51.1433 34.0155 50.9727 34.1961C50.8122 34.3767 50.732 34.5874 50.732 34.8282C50.732 35.1191 50.8122 35.3599 50.9727 35.5505C51.1433 35.7412 51.4242 35.8365 51.8155 35.8365ZM57.159 29.2902H59.4164V34.1058L62.8024 29.2902H64.834V37.2661H62.5766V32.4505L59.1906 37.2661H57.159V29.2902ZM60.9965 28.4625C60.0133 28.4625 59.316 28.2769 58.9047 27.9057C58.4934 27.5244 58.2877 26.9576 58.2877 26.2051H60.3344C60.3344 26.5463 60.3895 26.782 60.4999 26.9124C60.6103 27.0429 60.7758 27.1081 60.9965 27.1081C61.2172 27.1081 61.3828 27.0429 61.4931 26.9124C61.6035 26.782 61.6587 26.5463 61.6587 26.2051H63.7053C63.7053 26.9576 63.4996 27.5244 63.0883 27.9057C62.677 28.2769 61.9797 28.4625 60.9965 28.4625ZM66.1937 29.2902H69.0078L70.904 33.248L72.8002 29.2902H75.524V37.2661H73.3269V32.3752L71.6113 35.7612H70.1064L68.3908 32.3752V37.2661H66.1937V29.2902Z" fill="#E64A70"/>
<path d="M11.7741 19.7983C9.23832 17.2626 5.12709 17.2626 2.59135 19.7983C0.0556206 22.334 0.0556171 26.4453 2.59135 28.981L9.11811 35.5078C11.6538 38.0435 15.7651 38.0435 18.3008 35.5078C20.8365 32.972 20.8365 28.8608 18.3008 26.3251L11.7741 19.7983Z" fill="#E64A70"/>
<path d="M9.11348 26.3199C6.57775 28.8557 6.57775 32.9669 9.11348 35.5026C11.6492 38.0384 15.7605 38.0384 18.2962 35.5026L29.0247 24.7741C31.5604 22.2384 31.5604 18.1272 29.0247 15.5914C26.489 13.0557 22.3777 13.0557 19.842 15.5914L9.11348 26.3199Z" fill="#2F76E2"/>
<path d="M13.67 33.5167C15.1456 33.5167 16.3419 32.3204 16.3419 30.8448C16.3419 29.3691 15.1456 28.1729 13.67 28.1729C12.1943 28.1729 10.998 29.3691 10.998 30.8448C10.998 32.3204 12.1943 33.5167 13.67 33.5167Z" fill="white"/>
</g>
<defs>
<clipPath id="clip0_757_8783">
<rect width="103" height="52" fill="white"/>
</clipPath>
</defs>
</svg>
