<svg width="62" height="49" viewBox="0 0 62 49" fill="none" xmlns="http://www.w3.org/2000/svg">
<path d="M11.2775 48.0016V44.8084C11.2775 43.5844 10.5324 42.7861 9.25518 42.7861C8.61656 42.7861 7.92471 42.999 7.44574 43.6908C7.07321 43.1054 6.54102 42.7861 5.74273 42.7861C5.21054 42.7861 4.67836 42.9458 4.25261 43.5312V42.8926H3.13501V48.0016H4.25261V45.181C4.25261 44.2762 4.73157 43.8505 5.47664 43.8505C6.2217 43.8505 6.59424 44.3295 6.59424 45.181V48.0016H7.71184V45.181C7.71184 44.2762 8.24402 43.8505 8.93587 43.8505C9.68093 43.8505 10.0535 44.3295 10.0535 45.181V48.0016H11.2775ZM27.8286 42.8926H26.0191V41.3492H24.9015V42.8926H23.8904V43.9037H24.9015V46.2453C24.9015 47.4162 25.3805 48.108 26.6578 48.108C27.1367 48.108 27.6689 47.9483 28.0414 47.7355L27.7221 46.7775C27.4028 46.9904 27.0303 47.0436 26.7642 47.0436C26.232 47.0436 26.0191 46.7243 26.0191 46.1921V43.9037H27.8286V42.8926ZM37.3015 42.7861C36.6629 42.7861 36.2372 43.1054 35.9711 43.5312V42.8926H34.8535V48.0016H35.9711V45.1278C35.9711 44.2762 36.3436 43.7973 37.0354 43.7973C37.2483 43.7973 37.5144 43.8505 37.7273 43.9037L38.0466 42.8393C37.8337 42.7861 37.5144 42.7861 37.3015 42.7861ZM22.9857 43.3183C22.4535 42.9458 21.7084 42.7861 20.9101 42.7861C19.6329 42.7861 18.7814 43.4247 18.7814 44.4359C18.7814 45.2874 19.42 45.7664 20.5376 45.926L21.0698 45.9792C21.6552 46.0857 21.9745 46.2453 21.9745 46.5114C21.9745 46.884 21.5487 47.1501 20.8037 47.1501C20.0586 47.1501 19.4732 46.884 19.1007 46.6179L18.5685 47.4694C19.1539 47.8951 19.9522 48.108 20.7505 48.108C22.2406 48.108 23.0921 47.4162 23.0921 46.4582C23.0921 45.5535 22.4002 45.0745 21.3359 44.9149L20.8037 44.8617C20.3247 44.8084 19.9522 44.702 19.9522 44.3827C19.9522 44.0101 20.3247 43.7973 20.9101 43.7973C21.5487 43.7973 22.1874 44.0634 22.5067 44.223L22.9857 43.3183ZM52.6818 42.7861C52.0432 42.7861 51.6174 43.1054 51.3513 43.5312V42.8926H50.2337V48.0016H51.3513V45.1278C51.3513 44.2762 51.7239 43.7973 52.4157 43.7973C52.6286 43.7973 52.8947 43.8505 53.1075 43.9037L53.4269 42.8393C53.214 42.7861 52.8947 42.7861 52.6818 42.7861ZM38.4191 45.4471C38.4191 46.9904 39.4835 48.108 41.1333 48.108C41.8784 48.108 42.4105 47.9484 42.9427 47.5226L42.4105 46.6179C41.9848 46.9372 41.559 47.0968 41.0801 47.0968C40.1754 47.0968 39.5367 46.4582 39.5367 45.4471C39.5367 44.4891 40.1754 43.8505 41.0801 43.7973C41.559 43.7973 41.9848 43.9569 42.4105 44.2762L42.9427 43.3715C42.4105 42.9458 41.8784 42.7861 41.1333 42.7861C39.4835 42.7861 38.4191 43.9037 38.4191 45.4471ZM48.7436 45.4471V42.8926H47.626V43.5312C47.2535 43.0522 46.7213 42.7861 46.0294 42.7861C44.5925 42.7861 43.4749 43.9037 43.4749 45.4471C43.4749 46.9904 44.5925 48.108 46.0294 48.108C46.7745 48.108 47.3067 47.8419 47.626 47.3629V48.0016H48.7436V45.4471ZM44.6457 45.4471C44.6457 44.5423 45.2312 43.7973 46.1891 43.7973C47.0938 43.7973 47.7324 44.4891 47.7324 45.4471C47.7324 46.3518 47.0938 47.0968 46.1891 47.0968C45.2312 47.0436 44.6457 46.3518 44.6457 45.4471ZM31.2878 42.7861C29.7977 42.7861 28.7333 43.8505 28.7333 45.4471C28.7333 47.0436 29.7977 48.108 31.341 48.108C32.0861 48.108 32.8312 47.8951 33.4166 47.4162L32.8844 46.6179C32.4586 46.9372 31.9264 47.1501 31.3942 47.1501C30.7024 47.1501 30.0105 46.8308 29.8509 45.926H33.6294C33.6294 45.7664 33.6294 45.6599 33.6294 45.5003C33.6826 43.8505 32.7247 42.7861 31.2878 42.7861ZM31.2878 43.7441C31.9796 43.7441 32.4586 44.1698 32.5651 44.9681H29.9041C30.0105 44.2762 30.4895 43.7441 31.2878 43.7441ZM59.0149 45.4471V40.8702H57.8973V43.5312C57.5247 43.0522 56.9925 42.7861 56.3007 42.7861C54.8638 42.7861 53.7462 43.9037 53.7462 45.4471C53.7462 46.9904 54.8638 48.108 56.3007 48.108C57.0457 48.108 57.5779 47.8419 57.8973 47.3629V48.0016H59.0149V45.4471ZM54.917 45.4471C54.917 44.5423 55.5024 43.7973 56.4603 43.7973C57.3651 43.7973 58.0037 44.4891 58.0037 45.4471C58.0037 46.3518 57.3651 47.0968 56.4603 47.0968C55.5024 47.0436 54.917 46.3518 54.917 45.4471ZM17.5573 45.4471V42.8926H16.4397V43.5312C16.0672 43.0522 15.535 42.7861 14.8432 42.7861C13.4063 42.7861 12.2886 43.9037 12.2886 45.4471C12.2886 46.9904 13.4063 48.108 14.8432 48.108C15.5882 48.108 16.1204 47.8419 16.4397 47.3629V48.0016H17.5573V45.4471ZM13.4062 45.4471C13.4062 44.5423 13.9917 43.7973 14.9496 43.7973C15.8543 43.7973 16.493 44.4891 16.493 45.4471C16.493 46.3518 15.8543 47.0968 14.9496 47.0968C13.9917 47.0436 13.4062 46.3518 13.4062 45.4471Z" fill="black"/>
<path d="M39.3833 4.09839H22.6194V34.2203H39.3833V4.09839Z" fill="#FF5F00"/>
<path d="M23.6824 19.1588C23.6824 13.0386 26.5562 7.61031 30.9734 4.09786C27.727 1.54335 23.6292 0 19.1588 0C8.56824 0 0 8.56824 0 19.1588C0 29.7494 8.56824 38.3176 19.1588 38.3176C23.6292 38.3176 27.727 36.7743 30.9734 34.2198C26.5562 30.7605 23.6824 25.279 23.6824 19.1588Z" fill="#EB001B"/>
<path d="M61.9986 19.1588C61.9986 29.7494 53.4303 38.3176 42.8397 38.3176C38.3694 38.3176 34.2715 36.7743 31.0251 34.2198C35.4955 30.7073 38.3161 25.279 38.3161 19.1588C38.3161 13.0386 35.4423 7.61031 31.0251 4.09786C34.2715 1.54335 38.3694 0 42.8397 0C53.4303 0 61.9986 8.62146 61.9986 19.1588Z" fill="#F79E1B"/>
</svg>
