<svg width="82" height="24" viewBox="0 0 82 24" fill="none" xmlns="http://www.w3.org/2000/svg">
<g clip-path="url(#clip0_757_8893)">
<path d="M22.6841 0.838868V0.848858C22.6741 0.848858 19.5233 0.838867 18.6831 3.84564C17.9129 6.60269 15.7424 14.2112 15.6824 14.421H15.0823C15.0823 14.421 12.8617 6.64264 12.0815 3.83565C11.2413 0.828877 8.08057 0.838868 8.08057 0.838868H0.885498V23.7077H8.0839V10.1255H8.68405L12.8851 23.7076H17.8829L22.0839 10.1355H22.6841V23.7076H29.8825V0.838868H22.6841ZM48.9804 0.838868C48.9804 0.838868 46.8699 1.02866 45.8797 3.2364L40.7818 14.421H40.1816V0.838868H32.9832V23.7077H39.7815C39.7815 23.7077 41.9921 23.5079 42.9824 21.3102L47.9803 10.1256H48.5804V23.7077H55.7788V0.838868H48.9804ZM58.9795 11.2244V23.7077H66.1779V16.4188H73.9766C77.3774 16.4188 80.2547 14.2512 81.325 11.2277H58.9795V11.2244Z" fill="#4DB45E"/>
<path d="M73.982 0.838867H57.9714C58.7716 5.1942 62.0423 8.68712 66.27 9.8259C67.2515 10.0914 68.2639 10.2258 69.2807 10.2256H81.6204C81.7304 9.70613 81.7804 9.17669 81.7804 8.62728C81.7805 4.32513 78.2897 0.838867 73.982 0.838867Z" fill="url(#paint0_linear_757_8893)"/>
</g>
<defs>
<linearGradient id="paint0_linear_757_8893" x1="57.9714" y1="5.5322" x2="81.7804" y2="5.5322" gradientUnits="userSpaceOnUse">
<stop offset="0.3" stop-color="#00B4E6"/>
<stop offset="1" stop-color="#088CCB"/>
</linearGradient>
<clipPath id="clip0_757_8893">
<rect width="80.8929" height="22.8788" fill="white" transform="translate(0.885498 0.833984)"/>
</clipPath>
</defs>
</svg>
