<svg width="84" height="46" viewBox="0 0 84 46" fill="none" xmlns="http://www.w3.org/2000/svg">
<path d="M78.4565 27.5965H79.7182V29.5343H80.3345L81.5664 27.5965H82.9673L81.3579 30.0109V30.0309L83.166 32.664H81.7056L80.3741 30.6071H79.7182V32.664H78.4565V27.5965ZM76.1316 29.5042C76.1217 28.8286 75.6849 28.4312 75.1184 28.4312C74.4725 28.4312 74.0153 28.8588 73.8962 29.5042H76.1316ZM75.1483 27.4775C76.5988 27.4775 77.3936 28.5405 77.3936 29.8817C77.3936 30.041 77.3737 30.2097 77.354 30.369H73.8664C73.9458 31.2531 74.6216 31.7102 75.3866 31.7102C75.9031 31.7102 76.4297 31.4814 76.8371 31.1534L77.3341 32.0581C76.8174 32.5148 76.0226 32.7832 75.2972 32.7832C73.6181 32.7832 72.5648 31.5708 72.5648 30.1305C72.5648 28.5706 73.6281 27.4775 75.1483 27.4775ZM66.7803 31.6009C67.406 31.5115 67.8433 30.9848 67.8433 29.1865V27.5965H71.5394V32.664H70.2777V28.6202H69.0456V29.1865C69.0456 31.392 68.4596 32.664 66.7803 32.7137V31.6009ZM64.9217 29.5042C64.9117 28.8286 64.4744 28.4312 63.9079 28.4312C63.2622 28.4312 62.8053 28.8588 62.686 29.5042H64.9217ZM63.9378 27.4775C65.3886 27.4775 66.1834 28.5405 66.1834 29.8817C66.1834 30.041 66.1635 30.2097 66.1436 30.369H62.6561C62.7356 31.2531 63.4114 31.7102 64.1764 31.7102C64.6931 31.7102 65.2197 31.4814 65.6269 31.1534L66.1237 32.0581C65.607 32.5148 64.8123 32.7832 64.0867 32.7832C62.4076 32.7832 61.3545 31.5708 61.3545 30.1305C61.3545 28.5706 62.4176 27.4775 63.9378 27.4775ZM53.553 27.5965H54.7555V31.5907H56.3353V27.5965H57.5375V31.5907H59.1172V27.5965H60.3197V32.664H53.553V27.5965ZM49.759 31.7102C50.5837 31.7102 51.2693 31.0742 51.2693 30.1305C51.2693 29.1962 50.5837 28.5507 49.759 28.5507C48.9343 28.5507 48.2587 29.1962 48.2587 30.1305C48.2587 31.0742 48.9343 31.7102 49.759 31.7102ZM49.749 27.4775C51.2991 27.4775 52.541 28.5804 52.541 30.1305C52.541 31.6903 51.2991 32.7832 49.759 32.7832C48.2188 32.7832 46.977 31.6903 46.977 30.1305C46.977 28.5804 48.2188 27.4775 49.749 27.4775ZM41.5105 25.6096H42.7924V28.4808H43.7063L45.3655 25.6096H46.7565L44.7596 28.9681V28.988L46.8758 32.664H45.4252L43.7063 29.5839H42.7924V32.664H41.5105V25.6096Z" fill="#2A303B"/>
<path d="M17.8238 37.4485C8.80993 37.4485 1.50269 30.1403 1.50269 21.1263C1.50269 12.1126 8.80993 4.80526 17.8238 4.80526C26.8375 4.80526 34.1451 12.1126 34.1451 21.1263C34.1451 24.1893 33.3019 27.0554 31.8343 29.5043C31.7866 29.5842 31.6657 29.5564 31.6529 29.4642C31.093 25.4532 28.6425 23.2431 25.0759 22.5986C24.7665 22.5427 24.7088 22.352 25.1181 22.3167C26.2061 22.2225 27.7564 22.2384 28.5448 22.3807C28.5923 21.9693 28.6131 21.5503 28.6131 21.1263C28.6131 15.1678 23.7826 10.3372 17.8238 10.3372C11.865 10.3372 7.03471 15.1678 7.03471 21.1263C7.03471 27.0851 11.865 31.9157 17.8238 31.9157C17.9938 31.9157 18.1627 31.9178 18.3306 31.9099C18.1506 30.862 18.0951 29.7969 18.1278 28.9923C18.1544 28.334 18.2879 28.2437 18.5848 28.7559C20.078 31.329 22.2204 33.6727 26.3853 34.5904C29.7905 35.3407 33.2049 36.2282 36.8965 40.8893C37.2247 41.3035 36.7239 41.7178 36.3475 41.3841C32.5912 38.0561 29.1972 36.9833 26.0692 36.9833C22.5875 36.9833 20.2153 37.4485 17.8238 37.4485ZM26.1086 30.5858C25.7806 30.5858 25.507 30.7001 25.3386 30.9079C24.9078 31.4395 25.1015 32.3749 25.7617 32.9519C26.0498 33.2035 26.465 33.3541 26.8724 33.3541C27.2874 33.3541 27.6333 33.1983 27.847 32.9163C28.2311 32.4012 28.0104 31.6716 27.2843 31.0576C26.9248 30.7535 26.5074 30.5858 26.1086 30.5858ZM29.7276 27.915C29.4149 27.7967 29.1666 27.8911 29.0483 28.1076C28.8688 28.4353 29.0013 29.0831 29.3632 29.6477C29.7298 30.2196 30.0406 30.5099 30.2882 30.5099C30.5151 30.5099 30.7411 30.2137 30.6344 29.4983C30.5709 29.071 30.3333 28.1441 29.7276 27.915ZM48.7534 19.4358L47.4399 17.8558C47.3021 17.6903 47.42 17.439 47.6355 17.439H50.3838C50.5147 17.0494 50.5887 16.6332 50.5887 16.2009C50.5887 14.2216 49.1155 12.515 47.0932 12.515C45.0712 12.515 43.5982 14.2216 43.5982 16.2009C43.5982 18.1802 45.0712 19.8626 47.0932 19.8626C47.706 19.8626 48.2673 19.7061 48.7534 19.4358ZM54.6977 22.1061C54.8402 22.264 54.7233 22.5182 54.5082 22.5182H51.5088C51.3869 22.5182 51.2712 22.4639 51.1929 22.37L50.6848 21.7587C49.6495 22.43 48.4166 22.8218 47.0932 22.8218C43.4426 22.8218 40.4724 19.8517 40.4724 16.2009C40.4724 12.5501 43.4426 9.58007 47.0932 9.58007C50.7443 9.58007 53.7143 12.5501 53.7143 16.2009C53.7143 17.517 53.3266 18.7434 52.6622 19.7754L54.6977 22.1061ZM82.4032 9.88454H79.9554C79.7759 9.88454 79.6298 10.0304 79.6298 10.2104V22.1915C79.6298 22.3712 79.7759 22.5171 79.9554 22.5171H82.4032C82.5827 22.5171 82.7288 22.3712 82.7288 22.1915V10.2104C82.7288 10.0304 82.5827 9.88454 82.4032 9.88454ZM78.2843 9.88454H75.546C75.4025 9.88454 75.2764 9.97749 75.2344 10.1134L73.0675 17.1938L70.6858 10.1055C70.6414 9.9737 70.5172 9.88454 70.3768 9.88454H68.4658C68.3257 9.88454 68.2012 9.9737 68.1571 10.1055L65.7753 17.1938L63.6082 10.1134C63.5665 9.97749 63.4401 9.88454 63.2967 9.88454H60.5583C60.4535 9.88454 60.3553 9.93457 60.2941 10.0188C60.233 10.1029 60.2164 10.2113 60.2496 10.3099L64.2717 22.2975C64.3161 22.4293 64.4406 22.5182 64.5805 22.5182H66.754C66.8941 22.5182 67.0186 22.4293 67.063 22.2977L69.4214 15.2941L71.7797 22.2977C71.824 22.4293 71.9485 22.5182 72.0886 22.5182H74.2622C74.4021 22.5182 74.5268 22.4293 74.5709 22.2975L78.5933 10.3099C78.6265 10.2113 78.6099 10.1029 78.5487 10.0188C78.4873 9.93457 78.3891 9.88454 78.2843 9.88454ZM59.2128 10.2104V22.1915C59.2128 22.3712 59.067 22.5171 58.8873 22.5171H56.4394C56.2599 22.5171 56.1138 22.3712 56.1138 22.1915V10.2104C56.1138 10.0304 56.2599 9.88454 56.4394 9.88454H58.8873C59.067 9.88454 59.2128 10.0304 59.2128 10.2104Z" fill="#F57D14"/>
</svg>
