<svg xmlns="http://www.w3.org/2000/svg" xmlns:xlink="http://www.w3.org/1999/xlink">
    <symbol xmlns="http://www.w3.org/2000/svg" id="icon-time" viewBox="0 0 28 28">
        <path d="M18.0163 19.25L13.125 14.3587V6.125H14.875V13.6325L19.25 18.0163L18.0163 19.25Z" />
        <path d="M14 1.75C12.3681 1.75023 10.7528 2.07793 9.24983 2.71369C7.74685 3.34945 6.38672 4.28035 5.25 5.45125V1.75H3.5V8.75H10.5V7H6.195C7.83652 5.17588 10.0651 3.98434 12.4937 3.6323C14.9223 3.28027 17.3975 3.78999 19.4894 5.07293C21.5813 6.35588 23.1578 8.331 23.945 10.6553C24.7322 12.9796 24.6805 15.5062 23.7988 17.7963C22.9171 20.0864 21.2612 21.9953 19.1185 23.1916C16.9759 24.3879 14.4819 24.7959 12.0697 24.3448C9.65758 23.8936 7.47963 22.6119 5.91412 20.7221C4.34862 18.8324 3.49446 16.454 3.5 14H1.75C1.75 16.4228 2.46845 18.7912 3.8145 20.8057C5.16054 22.8202 7.07373 24.3903 9.31213 25.3175C11.5505 26.2447 14.0136 26.4873 16.3899 26.0146C18.7661 25.5419 20.9489 24.3752 22.6621 22.6621C24.3752 20.9489 25.5419 18.7661 26.0146 16.3899C26.4873 14.0136 26.2447 11.5505 25.3175 9.31213C24.3903 7.07373 22.8202 5.16054 20.8057 3.8145C18.7912 2.46845 16.4228 1.75 14 1.75Z" />
    </symbol>
    <symbol xmlns="http://www.w3.org/2000/svg" id="icon-thumbs" viewBox="0 0 28 28">
        <path d="M22.75 10.5H17.5V5.25C17.4993 4.55402 17.2225 3.88674 16.7304 3.39461C16.2383 2.90248 15.571 2.62569 14.875 2.625H13.0086C12.5879 2.62679 12.1817 2.77935 11.8638 3.055C11.546 3.33065 11.3375 3.71112 11.2761 4.12738L10.5367 9.30475L7.40688 14H1.75V26.25H20.125C21.7489 26.2481 23.3057 25.6022 24.454 24.454C25.6022 23.3057 26.2481 21.7489 26.25 20.125V14C26.2488 13.0721 25.8797 12.1825 25.2236 11.5264C24.5675 10.8703 23.6779 10.5012 22.75 10.5ZM7 24.5H3.5V15.75H7V24.5ZM24.5 20.125C24.4986 21.2849 24.0372 22.3969 23.2171 23.2171C22.3969 24.0372 21.2849 24.4986 20.125 24.5H8.75V15.1401L12.2133 9.94525L13.0095 4.375H14.875C15.1071 4.375 15.3296 4.46719 15.4937 4.63128C15.6578 4.79538 15.75 5.01794 15.75 5.25V12.25H22.75C23.2139 12.2507 23.6586 12.4353 23.9867 12.7633C24.3147 13.0914 24.4993 13.5361 24.5 14V20.125Z" />
    </symbol>
    <symbol xmlns="http://www.w3.org/2000/svg" id="icon-check" viewBox="0 0 28 28">
        <path d="M12.25 18.7372L7.875 14.3614L9.11138 13.125L12.25 16.2628L18.8869 9.625L20.125 10.8631L12.25 18.7372Z" />
        <path d="M14 1.75C11.5772 1.75 9.20877 2.46845 7.19427 3.8145C5.17977 5.16054 3.60965 7.07373 2.68248 9.31213C1.75531 11.5505 1.51272 14.0136 1.98539 16.3899C2.45805 18.7661 3.62475 20.9489 5.33795 22.6621C7.05114 24.3752 9.23388 25.5419 11.6101 26.0146C13.9864 26.4873 16.4495 26.2447 18.6879 25.3175C20.9263 24.3903 22.8395 22.8202 24.1855 20.8057C25.5316 18.7912 26.25 16.4228 26.25 14C26.25 10.7511 24.9594 7.63526 22.6621 5.33794C20.3647 3.04062 17.2489 1.75 14 1.75ZM14 24.5C11.9233 24.5 9.89323 23.8842 8.16652 22.7304C6.4398 21.5767 5.09399 19.9368 4.29927 18.0182C3.50455 16.0996 3.29662 13.9884 3.70176 11.9516C4.1069 9.91475 5.10693 8.04383 6.57538 6.57538C8.04384 5.10693 9.91476 4.1069 11.9516 3.70175C13.9884 3.29661 16.0996 3.50454 18.0182 4.29926C19.9368 5.09398 21.5767 6.4398 22.7304 8.16651C23.8842 9.89323 24.5 11.9233 24.5 14C24.5 16.7848 23.3938 19.4555 21.4246 21.4246C19.4555 23.3938 16.7848 24.5 14 24.5Z" />
    </symbol>
    <symbol xmlns="http://www.w3.org/2000/svg" id="icon-light" viewBox="0 0 29 38">
        <path d="M22.3164 2H10.6706C10.213 2 9.79529 2.26019 9.59353 2.67084L2.64961 16.8042C2.25785 17.6015 2.83823 18.5333 3.72664 18.5333H9.04509C9.83138 18.5333 10.4052 19.2769 10.2059 20.0375L6.46948 34.2968C6.14872 35.5209 7.69596 36.3436 8.53151 35.3933L26.4484 15.0146C27.13 14.2393 26.5795 13.0222 25.5472 13.0222H21.2221C20.36 13.0222 19.7792 12.1403 20.1197 11.3483L23.4189 3.67394C23.7594 2.88195 23.1785 2 22.3164 2Z" stroke-width="3.6"/>
    </symbol>
    <symbol xmlns="http://www.w3.org/2000/svg" id="icon-docs" viewBox="0 0 38 43">
        <path d="M2.6001 9.39998L7.49112 38.2027C7.78504 39.9336 9.28465 41.2 11.0403 41.2H26.7779C28.9236 41.2 30.5929 39.3349 30.3559 37.2024L30.2001 35.8M2.6001 9.39998L23.1093 10.4517C24.7975 10.5383 26.1981 11.7878 26.476 13.4552L30.2001 35.8M2.6001 9.39998L26.9467 2.66582C29.0064 2.09611 31.1061 3.43571 31.4574 5.5437L35.6787 30.8714C35.9767 32.6596 34.8985 34.3904 33.1621 34.9114L30.2001 35.8" stroke="#4D83FA" stroke-width="3.6"/>
    </symbol>
    <symbol xmlns="http://www.w3.org/2000/svg" id="icon-garant" viewBox="0 0 37 37">
        <path d="M12.5998 17.8L14.9029 25.093C15.469 26.8859 17.7833 27.361 19.0101 25.9364L34.7998 7.59995M22.1998 2.19995H5.39981C3.41158 2.19995 1.7998 3.81173 1.7998 5.79995V31.6C1.7998 33.5882 3.41158 35.2 5.3998 35.2H22.1998C24.188 35.2 25.7998 33.5882 25.7998 31.6V5.79995C25.7998 3.81173 24.188 2.19995 22.1998 2.19995Z" stroke="#4D83FA" stroke-width="3.6" stroke-linecap="round"/>
    </symbol>
    <symbol xmlns="http://www.w3.org/2000/svg" id="icon-plus" viewBox="0 0 18 19">
        <path d="M17 9.5H9M9 9.5H1M9 9.5V1.5M9 9.5V17.5" stroke="#2F76E2" stroke-width="1.5" stroke-linecap="round" stroke-linejoin="round"/>
    </symbol>
    <symbol xmlns="http://www.w3.org/2000/svg" id="icon-phone" viewBox="0 0 18 18">
        <path d="M16.23 12.26L13.69 11.97C13.3914 11.9349 13.0886 11.968 12.8046 12.0667C12.5206 12.1654 12.2626 12.3273 12.05 12.54L10.21 14.38C7.37123 12.9362 5.06382 10.6288 3.62004 7.79001L5.47004 5.94001C5.90004 5.51001 6.11004 4.91001 6.04004 4.30001L5.75004 1.78001C5.69335 1.29219 5.45923 0.842247 5.09228 0.515858C4.72532 0.18947 4.25115 0.00942751 3.76004 0.0100112H2.03004C0.900041 0.0100112 -0.0399593 0.950011 0.0300407 2.08001C0.560041 10.62 7.39004 17.44 15.92 17.97C17.05 18.04 17.99 17.1 17.99 15.97V14.24C18 13.23 17.24 12.38 16.23 12.26Z" />
    </symbol>
    <symbol xmlns="http://www.w3.org/2000/svg" id="icon-mail" viewBox="0 0 20 16">
        <path d="M2 16C1.45 16 0.979333 15.8043 0.588 15.413C0.196667 15.0217 0.000666667 14.5507 0 14V2C0 1.45 0.196 0.979333 0.588 0.588C0.98 0.196666 1.45067 0.000666667 2 0H18C18.55 0 19.021 0.196 19.413 0.588C19.805 0.98 20.0007 1.45067 20 2V14C20 14.55 19.8043 15.021 19.413 15.413C19.0217 15.805 18.5507 16.0007 18 16H2ZM10 9L18 4V2L10 7L2 2V4L10 9Z" />
    </symbol>
    <symbol xmlns="http://www.w3.org/2000/svg" id="icon-map" viewBox="0 0 18 22">
        <path d="M9.00001 0.5C6.81276 0.50258 4.71584 1.3726 3.16923 2.91922C1.62261 4.46584 0.752589 6.56276 0.750009 8.75C0.747389 10.5374 1.33124 12.2763 2.41201 13.7C2.41201 13.7 2.63701 13.9963 2.67376 14.039L9.00001 21.5L15.3293 14.0353C15.3623 13.9955 15.588 13.7 15.588 13.7L15.5888 13.6978C16.669 12.2747 17.2526 10.5366 17.25 8.75C17.2474 6.56276 16.3774 4.46584 14.8308 2.91922C13.2842 1.3726 11.1873 0.50258 9.00001 0.5ZM9.00001 11.75C8.40666 11.75 7.82665 11.5741 7.3333 11.2444C6.83995 10.9148 6.45543 10.4462 6.22837 9.89805C6.00131 9.34987 5.9419 8.74667 6.05765 8.16473C6.17341 7.58279 6.45913 7.04824 6.87869 6.62868C7.29825 6.20912 7.83279 5.9234 8.41474 5.80764C8.99668 5.69189 9.59988 5.7513 10.1481 5.97836C10.6962 6.20542 11.1648 6.58994 11.4944 7.08329C11.8241 7.57664 12 8.15666 12 8.75C11.999 9.54535 11.6826 10.3078 11.1202 10.8702C10.5578 11.4326 9.79535 11.749 9.00001 11.75Z" />
    </symbol>
    <symbol xmlns="http://www.w3.org/2000/svg" id="icon-clock" viewBox="0 0 18 18">
        <path d="M9 0.0625C4.06418 0.0625 0.0625 4.06418 0.0625 9C0.0625 13.9358 4.06418 17.9375 9 17.9375C13.9358 17.9375 17.9375 13.9358 17.9375 9C17.9375 4.06418 13.9358 0.0625 9 0.0625ZM13.125 10.375H9C8.81766 10.375 8.6428 10.3026 8.51386 10.1736C8.38493 10.0447 8.3125 9.86984 8.3125 9.6875V3.5C8.3125 3.31766 8.38493 3.1428 8.51386 3.01386C8.6428 2.88493 8.81766 2.8125 9 2.8125C9.18234 2.8125 9.35721 2.88493 9.48614 3.01386C9.61507 3.1428 9.6875 3.31766 9.6875 3.5V9H13.125C13.3073 9 13.4822 9.07243 13.6111 9.20136C13.7401 9.33029 13.8125 9.50516 13.8125 9.6875C13.8125 9.86984 13.7401 10.0447 13.6111 10.1736C13.4822 10.3026 13.3073 10.375 13.125 10.375Z" />
    </symbol>
    <symbol xmlns="http://www.w3.org/2000/svg" id="icon-alert" viewBox="0 0 20 20">
        <path d="M13.728 1H6.272L1 6.272V13.728L6.272 19H13.728L19 13.728V6.272L13.728 1ZM11 15H9V13H11V15ZM11 11H9V5H11V11Z" fill="#FF3D00"/>
    </symbol>
    <symbol xmlns="http://www.w3.org/2000/svg" id="icon-menu" viewBox="0 0 22 22">
        <path d="M1.375 9.24996C1.14294 9.24996 0.920376 9.15777 0.756282 8.99368C0.592187 8.82958 0.5 8.60702 0.5 8.37496V1.37671C0.5 1.14464 0.592187 0.922085 0.756282 0.757991C0.920376 0.593896 1.14294 0.501709 1.375 0.501709H8.375C8.60707 0.501709 8.82962 0.593896 8.99372 0.757991C9.15781 0.922085 9.25 1.14464 9.25 1.37671V8.37496C9.25 8.60702 9.15781 8.82958 8.99372 8.99368C8.82962 9.15777 8.60707 9.24996 8.375 9.24996H1.375ZM13.625 9.24996C13.3929 9.24996 13.1704 9.15777 13.0063 8.99368C12.8422 8.82958 12.75 8.60702 12.75 8.37496V1.37671C12.75 1.14464 12.8422 0.922085 13.0063 0.757991C13.1704 0.593896 13.3929 0.501709 13.625 0.501709H20.6233C20.8553 0.501709 21.0779 0.593896 21.242 0.757991C21.4061 0.922085 21.4983 1.14464 21.4983 1.37671V8.37496C21.4983 8.60702 21.4061 8.82958 21.242 8.99368C21.0779 9.15777 20.8553 9.24996 20.6233 9.24996H13.625ZM1.375 21.5C1.14294 21.5 0.920376 21.4078 0.756282 21.2437C0.592187 21.0796 0.5 20.857 0.5 20.625V13.625C0.5 13.3929 0.592187 13.1703 0.756282 13.0062C0.920376 12.8421 1.14294 12.75 1.375 12.75H8.375C8.60707 12.75 8.82962 12.8421 8.99372 13.0062C9.15781 13.1703 9.25 13.3929 9.25 13.625V20.625C9.25 20.857 9.15781 21.0796 8.99372 21.2437C8.82962 21.4078 8.60707 21.5 8.375 21.5H1.375ZM13.625 21.5C13.3929 21.5 13.1704 21.4078 13.0063 21.2437C12.8422 21.0796 12.75 20.857 12.75 20.625V13.625C12.75 13.3929 12.8422 13.1703 13.0063 13.0062C13.1704 12.8421 13.3929 12.75 13.625 12.75H20.6233C20.8553 12.75 21.0779 12.8421 21.242 13.0062C21.4061 13.1703 21.4983 13.3929 21.4983 13.625V20.625C21.4983 20.857 21.4061 21.0796 21.242 21.2437C21.0779 21.4078 20.8553 21.5 20.6233 21.5H13.625Z" />
    </symbol>
    <symbol xmlns="http://www.w3.org/2000/svg" id="icon-star" viewBox="0 0 18 18">
        <path d="M8.66746 0.848876C8.78596 0.546377 9.21404 0.546376 9.33254 0.848876L11.4618 6.28423C11.5126 6.41391 11.6341 6.50223 11.7732 6.51048L17.6005 6.85589C17.9248 6.87511 18.0571 7.28223 17.806 7.48841L13.2946 11.193C13.187 11.2814 13.1406 11.4243 13.1757 11.5591L14.6479 17.208C14.7299 17.5223 14.3835 17.774 14.1099 17.5989L9.19246 14.4531C9.07513 14.3781 8.92487 14.3781 8.80754 14.4531L3.89013 17.5989C3.61646 17.774 3.27014 17.5223 3.35208 17.208L4.8243 11.5591C4.85943 11.4243 4.813 11.2814 4.70536 11.193L0.194005 7.48841C-0.057071 7.28223 0.0752106 6.87511 0.399524 6.85589L6.22682 6.51048C6.36586 6.50223 6.48742 6.41391 6.53822 6.28423L8.66746 0.848876Z" fill="#FFC700"/>
    </symbol>
</svg>