<svg width="82" height="27" viewBox="0 0 82 27" fill="none" xmlns="http://www.w3.org/2000/svg">
<path d="M46.6645 26.3535V26.322H45.9386V26.2904H45.5598V26.2588H45.1811V26.2273H44.8339V26.1957H44.5815V26.1642H44.329V26.1326H44.0765V26.101H43.824V26.0695H43.6346V26.0379H43.4768V26.0063H43.2875V25.9748H43.0981V25.9432H42.9087V25.9117H42.7509V25.8801H42.6247V25.8485H42.4669V25.817H42.3091V25.7854H42.1828V25.7539H42.025V25.7223H41.8988V25.6907H41.7725V25.6592H41.6779V25.6276H41.5516V25.5961H41.4254V25.5645H41.3307V25.5329H41.2045V25.5014H41.0782V25.4698H40.9835V25.4383H40.8888V25.4067H40.7942V25.3751H40.6995V25.3436H40.6048V25.312H40.5101V25.2804H40.4154V25.2489H40.3208V25.2173H40.2576V25.1858H40.163V25.1542H40.0998V25.1226H40.0051V25.0911H39.942V25.0595H39.8473V25.028H39.7842V24.9964H39.7527V24.9017H39.7842V24.7439H39.8158V24.6177H39.8473V24.4599H39.8789V24.3021H39.9105V24.1443H39.942V24.018H39.9736V23.8602H40.0051V23.7024H40.0367V23.5762H40.0683V23.4184H40.0998V23.2606H40.1314V23.1343H40.163V22.9765H40.1945V22.8187H40.2261V22.6925H40.2576V22.5347H40.2892V22.3769H40.3208V22.2506H40.3523V22.0928H40.3839V21.935H40.4154V21.8088H40.447V21.651H40.4786V21.4932H40.5101V21.3669H40.5417V21.2091H40.5732V21.0513H40.6048V20.9251H40.6364V20.7673H40.6679V20.6095H40.6995V20.4832H40.731V20.3254H40.7626V20.1676H40.7942V20.0098H40.8257V19.8836H40.8573V19.7258H40.8888V19.5679H40.9204V19.4417H40.952V19.3786H41.0151V19.4101H41.0782V19.4417H41.1413V19.4733H41.2045V19.5048H41.2676V19.5364H41.3307V19.5679H41.3938V19.5995H41.4885V19.6311H41.5516V19.6626H41.6147V19.6942H41.6779V19.7258H41.7725V19.7573H41.8357V19.7889H41.8988V19.8204H41.9619V19.852H42.0566V19.8836H42.1197V19.9151H42.1828V19.9467H42.2775V19.9782H42.3406V20.0098H42.4353V20.0414H42.4984V20.0729H42.5931V20.1045H42.6562V20.136H42.7509V20.1676H42.8141V20.1992H42.9087V20.2307H43.0034V20.2623H43.0981V20.2938H43.1928V20.3254H43.2875V20.357H43.3821V20.3885H43.4768V20.4201H43.5715V20.4516H43.6662V20.4832H43.7924V20.5148H43.9187V20.5463H44.0449V20.5779H44.1712V20.6095H44.2974V20.641H44.3921V20.6726H44.5183V20.7041H44.7077V20.7357H44.8655V20.7673H45.0549V20.7988H45.2442V20.8304H45.402V20.8619H45.6545V20.8935H45.9701V20.9251H46.2857V20.9566H46.7276V20.9882H48.1163V20.9566H48.4634V20.9251H48.6844V20.8935H48.8737V20.8619H49.0315V20.8304H49.1893V20.7988H49.3156V20.7673H49.4418V20.7357H49.5365V20.7041H49.6312V20.6726H49.7259V20.641H49.8205V20.6095H49.9152V20.5779H49.9784V20.5463H50.073V20.5148H50.1362V20.4832H50.1993V20.4516H50.2624V20.4201H50.3255V20.3885H50.3886V20.357H50.4518V20.3254H50.4833V20.2938H50.5464V20.2623H50.6096V20.2307H50.6411V20.1992H50.7043V20.1676H50.7358V20.136H50.7674V20.1045H50.8305V20.0729H50.8621V20.0414H50.8936V20.0098H50.9252V19.9782H50.9567V19.9467H51.0199V19.9151H51.0514V19.8836H51.083V19.852H51.1145V19.8204H51.1461V19.7573H51.1777V19.7258H51.2092V19.6942H51.2408V19.6626H51.2723V19.6311H51.3039V19.5679H51.3355V19.5048H51.367V19.4733H51.3986V19.4101H51.4301V19.347H51.4617V19.2839H51.4933V19.2208H51.5248V19.1261H51.5564V19.0314H51.588V18.9052H51.6195V18.7474H51.6511V18.274H51.6195V18.0846H51.588V17.9899H51.5564V17.8952H51.5248V17.8005H51.4933V17.7374H51.4617V17.6743H51.4301V17.6427H51.3986V17.5796H51.367V17.5165H51.3355V17.4849H51.3039V17.4218H51.2723V17.3587H51.2408V17.3271H51.2092V17.2956H51.1777V17.264H51.1461V17.2325H51.1145V17.2009H51.083V17.1693H51.0514V17.1378H51.0199V17.1062H50.9883V17.0746H50.9567V17.0431H50.9252V17.0115H50.8936V16.98H50.8621V16.9484H50.8305V16.9168H50.7989V16.8853H50.7674V16.8537H50.7043V16.8222H50.6727V16.7906H50.6411V16.759H50.6096V16.7275H50.5464V16.6959H50.5149V16.6644H50.4833V16.6328H50.4518V16.6012H50.3886V16.5697H50.3571V16.5381H50.294V16.5066H50.2624V16.475H50.1993V16.4434H50.1677V16.4119H50.1046V16.3803H50.0415V16.3487H50.0099V16.3172H49.9468V16.2856H49.9152V16.2541H49.8521V16.2225H49.8205V16.1909H49.7574V16.1594H49.6943V16.1278H49.6312V16.0963H49.5996V16.0647H49.5365V16.0331H49.4734V16.0016H49.4103V15.97H49.3787V15.9385H49.3156V15.9069H49.2525V15.8753H49.1893V15.8438H49.1578V15.8122H49.0946V15.7807H49.0315V15.7491H48.9684V15.7175H48.9053V15.686H48.8422V15.6544H48.779V15.6229H48.7159V15.5913H48.6528V15.5597H48.5897V15.5282H48.5266V15.4966H48.4634V15.465H48.4003V15.4335H48.3372V15.4019H48.2741V15.3704H48.2109V15.3388H48.1478V15.3072H48.0847V15.2757H48.0216V15.2441H47.9585V15.2126H47.8953V15.181H47.8322V15.1494H47.7691V15.1179H47.706V15.0863H47.6429V15.0548H47.5797V15.0232H47.5166V14.9916H47.485V14.9601H47.4219V14.9285H47.3588V14.897H47.2957V14.8654H47.2326V14.8338H47.1694V14.8023H47.1379V14.7707H47.0748V14.7391H47.0116V14.7076H46.9485V14.676H46.8854V14.6445H46.8538V14.6129H46.7907V14.5813H46.7276V14.5498H46.696V14.5182H46.6329V14.4867H46.5698V14.4551H46.5382V14.4235H46.4751V14.392H46.412V14.3604H46.3804V14.3289H46.3173V14.2973H46.2857V14.2657H46.2226V14.2342H46.1911V14.2026H46.1279V14.1711H46.0964V14.1395H46.0333V14.1079H46.0017V14.0764H45.9386V14.0448H45.8755V14.0133H45.8439V13.9817H45.7808V13.9501H45.7492V13.9186H45.7176V13.887H45.6545V13.8554H45.623V13.8239H45.5914V13.7923H45.5283V13.7608H45.4967V13.7292H45.4652V13.6976H45.402V13.6661H45.3705V13.6345H45.3074V13.603H45.2758V13.5714H45.2442V13.5398H45.2127V13.5083H45.1811V13.4767H45.118V13.4452H45.0864V13.4136H45.0549V13.382H45.0233V13.3505H44.9602V13.3189H44.9286V13.2874H44.8971V13.2558H44.8655V13.2242H44.8339V13.1927H44.8024V13.1611H44.7393V13.1295H44.7077V13.098H44.6761V13.0664H44.6446V13.0349H44.613V13.0033H44.5815V12.9717H44.5499V12.9402H44.5183V12.9086H44.4868V12.8771H44.4552V12.8455H44.4237V12.8139H44.3921V12.7824H44.3605V12.7508H44.329V12.7193H44.2974V12.6877H44.2659V12.6561H44.2343V12.6246H44.2027V12.593H44.1712V12.5615H44.1396V12.5299H44.108V12.4983H44.0765V12.4668H44.0449V12.4352H44.0134V12.4037H43.9818V12.3405H43.9502V12.309H43.9187V12.2774H43.8871V12.2458H43.8556V12.1827H43.824V12.1512H43.7924V12.1196H43.7609V12.088H43.7293V12.0249H43.6978V11.9934H43.6662V11.9618H43.6346V11.9302H43.6031V11.8671H43.5715V11.8356H43.54V11.7724H43.5084V11.7409H43.4768V11.6778H43.4453V11.6462H43.4137V11.5831H43.3821V11.5515H43.3506V11.4884H43.319V11.4568H43.2875V11.3937H43.2559V11.3306H43.2243V11.2675H43.1928V11.2043H43.1612V11.1728H43.1297V11.1097H43.0981V11.0465H43.0665V10.9834H43.035V10.9203H43.0034V10.8572H42.9719V10.7941H42.9403V10.6994H42.9087V10.6362H42.8772V10.5416H42.8456V10.4784H42.8141V10.3838H42.7825V10.3206H42.7509V10.1944H42.7194V10.0997H42.6878V9.97347H42.6562V9.87879H42.6247V9.75255H42.5931V9.56318H42.5616V9.37382H42.53V9.18445H42.4984V8.80572H42.4669V8.04826H42.4984V7.7011H42.53V7.41705H42.5616V7.25924H42.5931V7.06988H42.6247V6.91208H42.6562V6.72271H42.6878V6.59647H42.7194V6.50179H42.7509V6.37554H42.7825V6.28086H42.8141V6.18618H42.8456V6.0915H42.8772V5.99681H42.9087V5.87057H42.9403V5.77589H42.9719V5.71277H43.0034V5.64964H43.035V5.58652H43.0665V5.49184H43.0981V5.42872H43.1297V5.3656H43.1612V5.30248H43.1928V5.23935H43.2243V5.14467H43.2559V5.08155H43.2875V5.01843H43.319V4.95531H43.3506V4.92375H43.3821V4.86062H43.4137V4.7975H43.4453V4.76594H43.4768V4.70282H43.5084V4.6397H43.54V4.60814H43.5715V4.54502H43.6031V4.4819H43.6346V4.45034H43.6662V4.38721H43.6978V4.32409H43.7293V4.29253H43.7609V4.22941H43.7924V4.19785H43.824V4.16629H43.8556V4.10317H43.8871V4.07161H43.9187V4.04004H43.9502V3.97692H43.9818V3.94536H44.0134V3.9138H44.0449V3.85068H44.0765V3.81912H44.108V3.78756H44.1396V3.756H44.1712V3.69288H44.2027V3.66132H44.2343V3.62976H44.2659V3.56663H44.2974V3.53507H44.329V3.50351H44.3605V3.47195H44.3921V3.44039H44.4237V3.40883H44.4552V3.37727H44.4868V3.34571H44.5183V3.31415H44.5499V3.28259H44.5815V3.25103H44.613V3.21946H44.6446V3.1879H44.6761V3.15634H44.7077V3.12478H44.7393V3.09322H44.7708V3.06166H44.8024V3.0301H44.8339V2.99854H44.8655V2.96698H44.8971V2.93542H44.9286V2.90386H44.9602V2.8723H44.9917V2.84073H45.0233V2.80918H45.0549V2.77761H45.118V2.74605H45.1496V2.71449H45.1811V2.68293H45.2127V2.65137H45.2442V2.61981H45.3074V2.58825H45.3389V2.55669H45.3705V2.52513H45.402V2.49357H45.4336V2.46201H45.4967V2.43045H45.5283V2.39888H45.5598V2.36732H45.5914V2.33576H45.623V2.3042H45.6861V2.27264H45.7176V2.24108H45.7808V2.20952H45.8123V2.17796H45.8755V2.1464H45.907V2.11484H45.9701V2.08328H46.0017V2.05172H46.0648V2.02015H46.0964V1.98859H46.1595V1.95704H46.1911V1.92547H46.2542V1.89391H46.2857V1.86235H46.3489V1.83079H46.3804V1.79923H46.4435V1.76767H46.5067V1.73611H46.5382V1.70455H46.6013V1.67299H46.6645V1.64143H46.7276V1.60987H46.7907V1.5783H46.8223V1.54674H46.8854V1.51518H46.9485V1.48362H47.0116V1.45206H47.0748V1.4205H47.1379V1.38894H47.1694V1.35738H47.2326V1.32582H47.3272V1.29426H47.3904V1.2627H47.4535V1.23114H47.5166V1.19957H47.6113V1.16801H47.6744V1.13645H47.7375V1.10489H47.8007V1.07333H47.8953V1.04177H47.9585V1.01021H48.0216V0.978649H48.0847V0.947088H48.1794V0.915527H48.2741V0.883968H48.3688V0.852406H48.4634V0.820845H48.5581V0.789286H48.6528V0.757725H48.7475V0.726162H48.8106V0.694603H48.9053V0.663042H49V0.631481H49.0946V0.59992H49.2209V0.568359H49.3471V0.536798H49.4734V0.505238H49.5996V0.473677H49.6943V0.442116H49.8205V0.410557H49.9468V0.378994H50.073V0.347433H50.2308V0.315874H50.3886V0.284313H50.578V0.25275H50.7674V0.221191H50.9252V0.189631H51.1145V0.15807H51.3039V0.126509H51.6195V0.0949478H51.9351V0.0633869H52.2507V0.031826H52.7241V0.000265121H54.5547V0.031826H54.965V0.0633869H55.3437V0.0949478H55.6277V0.126509H55.8802V0.15807H56.1011V0.189631H56.3221V0.221191H56.5114V0.25275H56.6692V0.284313H56.8586V0.315874H57.0164V0.347433H57.1742V0.378994H57.3005V0.410557H57.4583V0.442116H57.5845V0.473677H57.7423V0.505238H57.8685V0.536798H57.9632V0.568359H58.0895V0.59992H58.2157V0.631481H58.3104V0.663042H58.4366V0.694603H58.5629V0.726162H58.6576V0.757725H58.7522V0.789286H58.8469V0.820845H58.9416V0.852406H59.0679V0.883968H59.1625V0.915527H59.2572V0.947088H59.3519V0.978649H59.4466V1.01021H59.5413V1.04177H59.6359V1.07333H59.6991V1.10489H59.7938V1.23114H59.7622V1.35738H59.7306V1.51518H59.6991V1.67299H59.6675V1.79923H59.6359V1.95704H59.6044V2.11484H59.5728V2.24108H59.5413V2.39888H59.5097V2.55669H59.4781V2.68293H59.4466V2.84073H59.415V2.99854H59.3835V3.12478H59.3519V3.28259H59.3203V3.44039H59.2888V3.56663H59.2572V3.72444H59.2257V3.88224H59.1941V4.00848H59.1625V4.16629H59.131V4.32409H59.0994V4.45034H59.0679V4.60814H59.0363V4.76594H59.0047V4.89219H58.9732V5.04999H58.9416V5.20779H58.91V5.33404H58.8785V5.49184H58.8469V5.64964H58.8154V5.77589H58.7838V5.93369H58.7522V6.0915H58.7207V6.21774H58.6891V6.37554H58.6576V6.53335H58.626V6.56491H58.5944V6.53335H58.5313V6.50179H58.4682V6.47023H58.4051V6.43866H58.3104V6.4071H58.2473V6.37554H58.1842V6.34398H58.0895V6.31242H58.0263V6.28086H57.9317V6.2493H57.837V6.21774H57.7739V6.18618H57.6792V6.15462H57.6161V6.12306H57.5214V6.0915H57.4267V6.05993H57.332V6.02837H57.2373V5.99681H57.1426V5.96525H57.048V5.93369H56.9533V5.90213H56.827V5.87057H56.7324V5.83901H56.6377V5.80745H56.5114V5.77589H56.3852V5.74433H56.2589V5.71277H56.1327V5.68121H56.0065V5.64964H55.8487V5.61808H55.6908V5.58652H55.5646V5.55496H55.3752V5.5234H55.1859V5.49184H54.9965V5.46028H54.744V5.42872H54.4915V5.39716H54.1444V5.3656H53.5132V5.33404H52.9766V5.3656H52.4085V5.39716H52.1245V5.42872H51.9036V5.46028H51.7773V5.49184H51.6195V5.5234H51.4617V5.55496H51.367V5.58652H51.2723V5.61808H51.1777V5.64964H51.083V5.68121H50.9883V5.71277H50.8936V5.74433H50.8305V5.77589H50.7674V5.80745H50.7043V5.83901H50.6411V5.87057H50.578V5.90213H50.5149V5.93369H50.4518V5.96525H50.3886V5.99681H50.3571V6.02837H50.294V6.05993H50.2624V6.0915H50.1993V6.12306H50.1677V6.15462H50.1362V6.18618H50.073V6.21774H50.0415V6.2493H50.0099V6.28086H49.9784V6.31242H49.9468V6.34398H49.9152V6.37554H49.8837V6.4071H49.8521V6.43866H49.8205V6.47023H49.789V6.50179H49.7574V6.53335H49.7259V6.56491H49.6943V6.62803H49.6627V6.69115H49.6312V6.72271H49.5996V6.78583H49.5681V6.81739H49.5365V6.88051H49.5049V6.9752H49.4734V7.03832H49.4418V7.133H49.4103V7.22768H49.3787V7.38549H49.3471V7.7011H49.3787V7.8589H49.4103V7.98514H49.4418V8.07982H49.4734V8.14295H49.5049V8.20607H49.5365V8.26919H49.5681V8.33231H49.5996V8.36387H49.6312V8.42699H49.6627V8.45855H49.6943V8.49012H49.7259V8.55324H49.7574V8.5848H49.789V8.61636H49.8205V8.64792H49.8521V8.67948H49.8837V8.71104H49.9152V8.7426H49.9468V8.77416H49.9784V8.80572H50.0099V8.83728H50.0415V8.86884H50.073V8.9004H50.1046V8.93196H50.1362V8.96353H50.1677V8.99509H50.2308V9.02665H50.2624V9.05821H50.294V9.08977H50.3255V9.12133H50.3886V9.15289H50.4202V9.18445H50.4518V9.21601H50.5149V9.24757H50.5464V9.27913H50.6096V9.3107H50.6411V9.34226H50.7043V9.37382H50.7358V9.40538H50.7989V9.43694H50.8305V9.4685H50.8936V9.50006H50.9252V9.53162H50.9883V9.56318H51.0514V9.59474H51.083V9.6263H51.1461V9.65786H51.2092V9.68942H51.2408V9.72099H51.3039V9.75255H51.367V9.78411H51.4301V9.81567H51.4617V9.84723H51.5248V9.87879H51.588V9.91035H51.6511V9.94191H51.7142V9.97347H51.7458V10.005H51.8089V10.0366H51.872V10.0682H51.9351V10.0997H51.9982V10.1313H52.0614V10.1628H52.1245V10.1944H52.156V10.226H52.2192V10.2575H52.2823V10.2891H52.3454V10.3206H52.4085V10.3522H52.4716V10.3838H52.5348V10.4153H52.5979V10.4469H52.661V10.4784H52.7241V10.51H52.7557V10.5416H52.8188V10.5731H52.8819V10.6047H52.9451V10.6362H53.0082V10.6678H53.0713V10.6994H53.1344V10.7309H53.1975V10.7625H53.2291V10.7941H53.2922V10.8256H53.3554V10.8572H53.4185V10.8887H53.4816V10.9203H53.5447V10.9519H53.6078V10.9834H53.6394V11.015H53.7025V11.0465H53.7656V11.0781H53.8288V11.1097H53.8919V11.1412H53.9235V11.1728H53.9866V11.2043H54.0497V11.2359H54.1128V11.2675H54.1444V11.299H54.2075V11.3306H54.2706V11.3621H54.3337V11.3937H54.3653V11.4253H54.4284V11.4568H54.4915V11.4884H54.5231V11.5199H54.5862V11.5515H54.6493V11.5831H54.6809V11.6146H54.744V11.6462H54.7756V11.6778H54.8387V11.7093H54.9018V11.7409H54.9334V11.7724H54.9965V11.804H55.0281V11.8356H55.0912V11.8671H55.1228V11.8987H55.1859V11.9302H55.2174V11.9618H55.2806V11.9934H55.3121V12.0249H55.3437V12.0565H55.4068V12.088H55.4384V12.1196H55.5015V12.1512H55.533V12.1827H55.5962V12.2143H55.6277V12.2458H55.6593V12.2774H55.7224V12.309H55.754V12.3405H55.7855V12.3721H55.8171V12.4037H55.8802V12.4352H55.9118V12.4668H55.9433V12.4983H56.0065V12.5299H56.038V12.5615H56.0696V12.593H56.1011V12.6246H56.1327V12.6561H56.1958V12.6877H56.2274V12.7193H56.2589V12.7508H56.2905V12.7824H56.3221V12.8139H56.3536V12.8455H56.4167V12.8771H56.4483V12.9086H56.4799V12.9402H56.5114V12.9717H56.543V13.0033H56.5746V13.0349H56.6061V13.0664H56.6377V13.098H56.6692V13.1295H56.7008V13.1611H56.7324V13.1927H56.7639V13.2242H56.7955V13.2558H56.827V13.2874H56.8586V13.3189H56.8902V13.3505H56.9217V13.382H56.9533V13.4136H56.9848V13.4767H57.0164V13.5083H57.048V13.5398H57.0795V13.5714H57.1111V13.603H57.1426V13.6345H57.1742V13.6661H57.2058V13.7292H57.2373V13.7608H57.2689V13.7923H57.3005V13.8554H57.332V13.887H57.3636V13.9186H57.3951V13.9501H57.4267V14.0133H57.4583V14.0448H57.4898V14.1079H57.5214V14.1395H57.5529V14.2026H57.5845V14.2342H57.6161V14.2973H57.6476V14.3289H57.6792V14.392H57.7107V14.4235H57.7423V14.4867H57.7739V14.5498H57.8054V14.6129H57.837V14.6445H57.8685V14.7076H57.9001V14.7707H57.9317V14.8338H57.9632V14.897H57.9948V14.9601H58.0263V15.0232H58.0579V15.1179H58.0895V15.181H58.121V15.2441H58.1526V15.3072H58.1842V15.4019H58.2157V15.4966H58.2473V15.5913H58.2788V15.686H58.3104V15.7807H58.342V15.8753H58.3735V16.0331H58.4051V16.1594H58.4366V16.3172H58.4682V16.475H58.4998V16.6959H58.5313V16.9484H58.5629V18.274H58.5313V18.6527H58.4998V18.8105H58.4682V18.9999H58.4366V19.1892H58.4051V19.3786H58.3735V19.5364H58.342V19.6626H58.3104V19.7573H58.2788V19.852H58.2473V19.9782H58.2157V20.0729H58.1842V20.1992H58.1526V20.2938H58.121V20.3885H58.0895V20.4832H58.0579V20.5463H58.0263V20.6095H57.9948V20.7041H57.9632V20.7673H57.9317V20.8304H57.9001V20.9251H57.8685V20.9882H57.837V21.0513H57.8054V21.146H57.7739V21.2091H57.7423V21.2722H57.7107V21.3354H57.6792V21.3669H57.6476V21.43H57.6161V21.4932H57.5845V21.5563H57.5529V21.5878H57.5214V21.651H57.4898V21.7141H57.4583V21.7456H57.4267V21.8088H57.3951V21.8719H57.3636V21.935H57.332V21.9666H57.3005V22.0297H57.2689V22.0612H57.2373V22.1244H57.2058V22.1559H57.1742V22.1875H57.1426V22.2506H57.1111V22.2822H57.0795V22.3137H57.048V22.3769H57.0164V22.4084H56.9848V22.44H56.9533V22.5031H56.9217V22.5347H56.8902V22.5662H56.8586V22.5978H56.827V22.6609H56.7955V22.6925H56.7639V22.724H56.7324V22.7556H56.7008V22.7871H56.6692V22.8503H56.6377V22.8818H56.6061V22.9134H56.5746V22.945H56.543V22.9765H56.5114V23.0081H56.4799V23.0396H56.4483V23.0712H56.4167V23.1028H56.3852V23.1343H56.3536V23.1659H56.3221V23.1974H56.2905V23.229H56.2589V23.2606H56.2274V23.2921H56.1958V23.3237H56.1643V23.3552H56.1327V23.3868H56.1011V23.4184H56.0696V23.4499H56.038V23.4815H56.0065V23.513H55.9749V23.5446H55.9118V23.5762H55.8802V23.6077H55.8487V23.6393H55.8171V23.6708H55.7855V23.7024H55.7224V23.734H55.6908V23.7655H55.6593V23.7971H55.6277V23.8287H55.5962V23.8602H55.5646V23.8918H55.5015V23.9233H55.4699V23.9549H55.4384V23.9865H55.4068V24.018H55.3437V24.0496H55.3121V24.0811H55.249V24.1127H55.2174V24.1443H55.1543V24.1758H55.1228V24.2074H55.0596V24.2389H55.0281V24.2705H54.965V24.3021H54.9334V24.3336H54.8703V24.3652H54.8387V24.3967H54.7756V24.4283H54.744V24.4599H54.7125V24.4914H54.6493V24.523H54.5862V24.5546H54.5231V24.5861H54.4915V24.6177H54.4284V24.6492H54.3653V24.6808H54.3022V24.7124H54.2391V24.7439H54.1759V24.7755H54.1444V24.807H54.0812V24.8386H54.0181V24.8702H53.955V24.9017H53.8919V24.9333H53.8288V24.9648H53.7972V24.9964H53.7025V25.028H53.6394V25.0595H53.5763V25.0911H53.4816V25.1226H53.4185V25.1542H53.3554V25.1858H53.2607V25.2173H53.1975V25.2489H53.1344V25.2804H53.0713V25.312H52.9766V25.3436H52.9135V25.3751H52.8504V25.4067H52.7557V25.4383H52.661V25.4698H52.5663V25.5014H52.4716V25.5329H52.377V25.5645H52.2823V25.5961H52.1876V25.6276H52.0929V25.6592H51.9982V25.6907H51.9036V25.7223H51.7773V25.7539H51.6511V25.7854H51.5248V25.817H51.3986V25.8485H51.2723V25.8801H51.1461V25.9117H51.0199V25.9432H50.8936V25.9748H50.7674V26.0063H50.578V26.0379H50.3886V26.0695H50.1993V26.101H50.0099V26.1326H49.8205V26.1642H49.6627V26.1957H49.3787V26.2273H49.0315V26.2588H48.7159V26.2904H48.4003V26.322H47.6429V26.3535H46.6645ZM13.6203 25.9432V25.8485H13.5888V25.7223H13.5572V25.5961H13.5257V25.4698H13.4941V25.3436H13.4625V25.2489H13.431V25.1226H13.3994V24.9964H13.3679V24.8702H13.3363V24.7439H13.3047V24.6177H13.2732V24.4914H13.2416V24.3652H13.21V24.2705H13.1785V24.1443H13.1469V24.018H13.1154V23.8918H13.0838V23.7655H13.0522V23.6393H13.0207V23.513H12.9891V23.3868H12.9576V23.2921H12.926V23.1659H12.8944V23.0396H12.8629V22.9134H12.8313V22.7871H12.7998V22.6609H12.7682V22.5347H12.7366V22.4084H12.7051V22.3137H12.6735V22.1875H12.642V22.0612H12.6104V21.935H12.5788V21.8088H12.5473V21.6825H12.5157V21.5563H12.4842V21.4616H12.4526V21.3354H12.421V21.2091H12.3895V21.0829H12.3579V20.9566H12.3263V20.8304H12.2948V20.7041H12.2632V20.5779H12.2317V20.4832H12.2001V20.357H12.1685V20.2307H12.137V20.1045H12.1054V19.9782H12.0739V19.852H12.0423V19.7258H12.0107V19.6311H11.9792V19.5048H11.9476V19.3786H11.9161V19.2523H11.8845V19.1261H11.8529V18.9999H11.8214V18.8736H11.7898V18.7474H11.7583V18.6527H11.7267V18.5264H11.6951V18.4002H11.6636V18.274H11.632V18.1477H11.6004V18.0215H11.5689V17.8952H11.5373V17.769H11.5058V17.6743H11.4742V17.5481H11.4426V17.4218H11.4111V17.2956H11.3795V17.1693H11.348V17.0431H11.3164V16.9168H11.2848V16.8222H11.2533V16.6959H11.2217V16.5697H11.1902V16.4434H11.1586V16.3172H11.127V16.1909H11.0955V16.0647H11.0639V15.9385H11.0324V15.8438H11.0008V15.7175H10.9692V15.5913H10.9377V15.465H10.9061V15.3388H10.8745V15.2126H10.843V15.0863H10.8114V14.9601H10.7799V14.8654H10.7483V14.7391H10.7167V14.6129H10.6852V14.4867H10.6536V14.3604H10.6221V14.2342H10.5905V14.1079H10.5589V14.0133H10.5274V13.887H10.4958V13.7608H10.4643V13.6345H10.4327V13.5083H10.4011V13.382H10.3696V13.2558H10.338V13.1295H10.3065V13.0349H10.2749V12.9086H10.2433V12.7824H10.2118V12.6561H10.1802V12.5299H10.1487V12.4037H10.1171V12.2774H10.0855V12.1512H10.054V12.0565H10.0224V11.9302H9.99085V11.804H9.95929V11.6778H9.92773V11.5515H9.89617V11.4253H9.86461V11.299H9.83305V11.2043H9.80148V11.0781H9.76992V10.9519H9.73836V10.8256H9.7068V10.6994H9.67524V10.5731H9.64368V10.4469H9.61212V10.3206H9.58056V10.226H9.549V10.0997H9.51744V9.97347H9.48588V9.84723H9.45432V9.72099H9.42276V9.59474H9.39119V9.4685H9.35963V9.34226H9.32807V9.24757H9.29651V9.12133H9.26495V8.99509H9.23339V8.86884H9.20183V8.7426H9.17027V8.61636H9.13871V8.49012H9.10715V8.39543H9.07559V8.26919H9.04403V8.14295H9.01246V8.0167H8.9809V7.89046H8.94934V7.76422H8.91778V7.63797H8.88622V7.51173H8.85466V7.41705H8.8231V7.29081H8.79154V7.16456H8.75998V7.03832H8.72842V6.91208H8.69686V6.78583H8.6653V6.65959H8.63374V6.53335H8.60217V6.43866H8.57061V6.31242H8.53905V6.18618H8.50749V6.05993H8.47593V5.93369H8.44437V5.80745H8.41281V5.68121H8.38125V5.58652H8.34969V5.46028H8.31813V5.33404H8.28657V5.23935H8.25501V5.14467H8.22345V5.04999H8.19188V4.95531H8.16032V4.86062H8.12876V4.76594H8.0972V4.70282H8.06564V4.6397H8.03408V4.54502H8.00252V4.4819H7.97096V4.41877H7.9394V4.38721H7.90784V4.32409H7.87628V4.26097H7.84472V4.22941H7.81316V4.19785H7.78159V4.13473H7.75003V4.10317H7.71847V4.07161H7.68691V4.04004H7.65535V3.97692H7.62379V3.94536H7.56067V3.9138H7.52911V3.88224H7.49755V3.85068H7.46599V3.81912H7.43443V3.78756H7.40287V3.756H7.3713V3.72444H7.30818V3.69288H7.27662V3.66132H7.2135V3.62976H7.18194V3.59819H7.15038V3.56663H7.08726V3.53507H7.02414V3.50351H6.99258V3.47195H6.92945V3.44039H6.86633V3.40883H6.80321V3.37727H6.77165V3.34571H6.70853V3.31415H6.64541V3.28259H6.58229V3.25103H6.51916V3.21946H6.45604V3.1879H6.39292V3.15634H6.3298V3.12478H6.23512V3.09322H6.172V3.06166H6.10887V3.0301H6.04575V2.99854H5.95107V2.96698H5.88795V2.93542H5.82483V2.90386H5.76171V2.8723H5.66702V2.84073H5.6039V2.80918H5.54078V2.77761H5.4461V2.74605H5.38298V2.71449H5.28829V2.68293H5.19361V2.65137H5.13049V2.61981H5.03581V2.58825H4.97269V2.55669H4.878V2.52513H4.78332V2.49357H4.7202V2.46201H4.62552V2.43045H4.53083V2.39888H4.43615V2.36732H4.34147V2.33576H4.24679V2.3042H4.15211V2.27264H4.08898V2.24108H3.9943V2.20952H3.89962V2.17796H3.80494V2.1464H3.67869V2.11484H3.58401V2.08328H3.48933V2.05172H3.39465V2.02015H3.29996V1.98859H3.17372V1.95704H3.07904V1.92547H2.98436V1.89391H2.85811V1.86235H2.76343V1.83079H2.63719V1.79923H2.54251V1.76767H2.41626V1.73611H2.32158V1.70455H2.19534V1.67299H2.10066V1.64143H1.97441V1.60987H1.84817V1.5783H1.72193V1.54674H1.59568V1.51518H1.46944V1.48362H1.3432V1.45206H1.21695V1.4205H1.09071V1.38894H0.964467V1.35738H0.838224V1.32582H0.68042V1.29426H0.554177V1.2627H0.427934V1.23114H0.333252V1.04177H0.364813V0.883968H0.396374V0.757725H0.427934V0.59992H0.459495V0.442116H11.8529V0.473677H12.137V0.505238H12.3263V0.536798H12.4526V0.568359H12.5788V0.59992H12.6735V0.631481H12.7682V0.663042H12.8629V0.694603H12.926V0.726162H12.9891V0.757725H13.0522V0.789286H13.1154V0.820845H13.21V0.852406H13.2416V0.883968H13.3047V0.915527H13.3363V0.947088H13.3994V0.978649H13.431V1.01021H13.4941V1.04177H13.5257V1.07333H13.5888V1.10489H13.6203V1.13645H13.6519V1.16801H13.6835V1.19957H13.715V1.23114H13.7466V1.2627H13.7781V1.29426H13.8097V1.32582H13.8413V1.35738H13.8728V1.38894H13.9044V1.4205H13.9359V1.45206H13.9675V1.48362H13.9991V1.51518H14.0306V1.54674H14.0622V1.5783H14.0938V1.64143H14.1253V1.67299H14.1569V1.70455H14.1884V1.76767H14.22V1.79923H14.2516V1.86235H14.2831V1.89391H14.3147V1.92547H14.3462V1.98859H14.3778V2.05172H14.4094V2.1464H14.4409V2.20952H14.4725V2.27264H14.504V2.33576H14.5356V2.39888H14.5672V2.46201H14.5987V2.55669H14.6303V2.65137H14.6618V2.77761H14.6934V2.8723H14.725V2.99854H14.7565V3.15634H14.7881V3.34571H14.8196V3.50351H14.8512V3.66132H14.8828V3.85068H14.9143V4.00848H14.9459V4.16629H14.9775V4.35565H15.009V4.51346H15.0406V4.67126H15.0721V4.86062H15.1037V5.01843H15.1353V5.17623H15.1668V5.3656H15.1984V5.5234H15.2299V5.68121H15.2615V5.83901H15.2931V6.02837H15.3246V6.18618H15.3562V6.34398H15.3877V6.53335H15.4193V6.69115H15.4509V6.84896H15.4824V7.03832H15.514V7.19612H15.5455V7.35393H15.5771V7.54329H15.6087V7.7011H15.6402V7.8589H15.6718V8.04826H15.7033V8.20607H15.7349V8.36387H15.7665V8.52168H15.798V8.71104H15.8296V8.86884H15.8612V9.02665H15.8927V9.21601H15.9243V9.37382H15.9558V9.53162H15.9874V9.72099H16.019V9.87879H16.0505V10.0366H16.0821V10.226H16.1136V10.3838H16.1452V10.5416H16.1768V10.7309H16.2083V10.8887H16.2399V11.0465H16.2714V11.2043H16.303V11.3937H16.3346V11.5515H16.3661V11.7093H16.3977V11.8987H16.4292V12.0565H16.4608V12.2143H16.4924V12.4037H16.5239V12.5615H16.5555V12.7193H16.5871V12.9086H16.6186V13.0664H16.6502V13.2242H16.6817V13.4136H16.7133V13.5714H16.7449V13.7292H16.7764V13.9186H16.808V14.0764H16.8395V14.2342H16.8711V14.392H16.9027V14.5813H16.9342V14.7391H16.9658V14.897H16.9973V15.0863H17.0289V15.2441H17.0605V15.4019H17.092V15.5913H17.1236V15.7491H17.1551V15.9069H17.1867V16.0963H17.2183V16.2541H17.2498V16.4119H17.2814V16.6012H17.3129V16.759H17.3445V16.9168H17.3761V17.0746H17.4076V17.264H17.4392V17.4218H17.4708V17.5796H17.5023V17.7059H17.5339V17.6427H17.5654V17.5481H17.597V17.4849H17.6286V17.3903H17.6601V17.3271H17.6917V17.2325H17.7232V17.1693H17.7548V17.0746H17.7864V17.0115H17.8179V16.9168H17.8495V16.8537H17.881V16.759H17.9126V16.6959H17.9442V16.6012H17.9757V16.5066H18.0073V16.4434H18.0388V16.3487H18.0704V16.2856H18.102V16.1909H18.1335V16.1278H18.1651V16.0331H18.1966V15.97H18.2282V15.8753H18.2598V15.8122H18.2913V15.7175H18.3229V15.6544H18.3545V15.5597H18.386V15.4966H18.4176V15.4019H18.4491V15.3388H18.4807V15.2441H18.5123V15.1494H18.5438V15.0863H18.5754V14.9916H18.6069V14.9285H18.6385V14.8338H18.6701V14.7707H18.7016V14.676H18.7332V14.6129H18.7647V14.5182H18.7963V14.4551H18.8279V14.3604H18.8594V14.2973H18.891V14.2026H18.9225V14.1395H18.9541V14.0448H18.9857V13.9817H19.0172V13.887H19.0488V13.8239H19.0804V13.7292H19.1119V13.6345H19.1435V13.5714H19.175V13.4767H19.2066V13.4136H19.2382V13.3189H19.2697V13.2558H19.3013V13.1611H19.3328V13.098H19.3644V13.0033H19.396V12.9402H19.4275V12.8455H19.4591V12.7824H19.4906V12.6877H19.5222V12.6246H19.5538V12.5299H19.5853V12.4668H19.6169V12.3721H19.6484V12.2774H19.68V12.2143H19.7116V12.1196H19.7431V12.0565H19.7747V11.9618H19.8062V11.8987H19.8378V11.804H19.8694V11.7409H19.9009V11.6462H19.9325V11.5831H19.9641V11.4884H19.9956V11.4253H20.0272V11.3306H20.0587V11.2675H20.0903V11.1728H20.1219V11.1097H20.1534V11.015H20.185V10.9519H20.2165V10.8572H20.2481V10.7625H20.2797V10.6994H20.3112V10.6047H20.3428V10.5416H20.3743V10.4469H20.4059V10.3838H20.4375V10.2891H20.469V10.226H20.5006V10.1313H20.5321V10.0682H20.5637V9.97347H20.5953V9.91035H20.6268V9.81567H20.6584V9.75255H20.69V9.65786H20.7215V9.59474H20.7531V9.50006H20.7846V9.40538H20.8162V9.34226H20.8478V9.24757H20.8793V9.18445H20.9109V9.08977H20.9424V9.02665H20.974V8.93196H21.0056V8.86884H21.0371V8.77416H21.0687V8.71104H21.1002V8.61636H21.1318V8.55324H21.1634V8.45855H21.1949V8.39543H21.2265V8.30075H21.258V8.23763H21.2896V8.14295H21.3212V8.07982H21.3527V7.98514H21.3843V7.89046H21.4158V7.82734H21.4474V7.73266H21.479V7.66953H21.5105V7.57485H21.5421V7.51173H21.5737V7.41705H21.6052V7.35393H21.6368V7.25924H21.6683V7.19612H21.6999V7.10144H21.7315V7.03832H21.763V6.94364H21.7946V6.88051H21.8261V6.78583H21.8577V6.72271H21.8893V6.62803H21.9208V6.53335H21.9524V6.47023H21.9839V6.37554H22.0155V6.31242H22.0471V6.21774H22.0786V6.15462H22.1102V6.05993H22.1417V5.99681H22.1733V5.90213H22.2049V5.83901H22.2364V5.74433H22.268V5.68121H22.2996V5.58652H22.3311V5.5234H22.3627V5.42872H22.3942V5.3656H22.4258V5.27092H22.4574V5.20779H22.4889V5.11311H22.5205V5.01843H22.552V4.95531H22.5836V4.86062H22.6152V4.7975H22.6467V4.70282H22.6783V4.6397H22.7098V4.54502H22.7414V4.4819H22.773V4.38721H22.8045V4.32409H22.8361V4.22941H22.8676V4.16629H22.8992V4.07161H22.9308V4.00848H22.9623V3.9138H22.9939V3.85068H23.0254V3.756H23.057V3.66132H23.0886V3.59819H23.1201V3.50351H23.1517V3.44039H23.1833V3.34571H23.2148V3.28259H23.2464V3.1879H23.2779V3.12478H23.3095V3.0301H23.3411V2.96698H23.3726V2.8723H23.4042V2.80918H23.4357V2.71449H23.4673V2.65137H23.4989V2.55669H23.5304V2.49357H23.562V2.39888H23.5935V2.33576H23.6251V2.24108H23.6567V2.1464H23.6882V2.08328H23.7198V1.98859H23.7513V1.92547H23.7829V1.83079H23.8145V1.76767H23.846V1.67299H23.8776V1.60987H23.9091V1.51518H23.9407V1.45206H23.9723V1.35738H24.0038V1.29426H24.0354V1.19957H24.067V1.13645H24.0985V1.04177H24.1301V0.978649H24.1616V0.883968H24.1932V0.789286H24.2248V0.726162H24.2563V0.631481H24.2879V0.568359H24.3194V0.473677H24.351V0.442116H31.2944V0.536798H31.2628V0.59992H31.2313V0.694603H31.1997V0.757725H31.1681V0.820845H31.1366V0.915527H31.105V0.978649H31.0734V1.04177H31.0419V1.13645H31.0103V1.19957H30.9788V1.29426H30.9472V1.35738H30.9156V1.4205H30.8841V1.51518H30.8525V1.5783H30.821V1.67299H30.7894V1.73611H30.7578V1.79923H30.7263V1.89391H30.6947V1.95704H30.6632V2.05172H30.6316V2.11484H30.6V2.17796H30.5685V2.27264H30.5369V2.33576H30.5054V2.39888H30.4738V2.49357H30.4422V2.55669H30.4107V2.65137H30.3791V2.71449H30.3475V2.77761H30.316V2.8723H30.2844V2.93542H30.2529V3.0301H30.2213V3.09322H30.1897V3.15634H30.1582V3.25103H30.1266V3.31415H30.0951V3.37727H30.0635V3.47195H30.0319V3.53507H30.0004V3.62976H29.9688V3.69288H29.9373V3.756H29.9057V3.85068H29.8741V3.9138H29.8426V4.00848H29.811V4.07161H29.7795V4.13473H29.7479V4.22941H29.7163V4.29253H29.6848V4.35565H29.6532V4.45034H29.6217V4.51346H29.5901V4.60814H29.5585V4.67126H29.527V4.73438H29.4954V4.82907H29.4638V4.89219H29.4323V4.98687H29.4007V5.04999H29.3692V5.11311H29.3376V5.20779H29.306V5.27092H29.2745V5.33404H29.2429V5.42872H29.2114V5.49184H29.1798V5.58652H29.1482V5.64964H29.1167V5.71277H29.0851V5.80745H29.0536V5.87057H29.022V5.96525H28.9904V6.02837H28.9589V6.0915H28.9273V6.18618H28.8958V6.2493H28.8642V6.31242H28.8326V6.4071H28.8011V6.47023H28.7695V6.56491H28.7379V6.62803H28.7064V6.69115H28.6748V6.78583H28.6433V6.84896H28.6117V6.94364H28.5801V7.00676H28.5486V7.06988H28.517V7.16456H28.4855V7.22768H28.4539V7.32237H28.4223V7.38549H28.3908V7.44861H28.3592V7.54329H28.3277V7.60641H28.2961V7.66953H28.2645V7.76422H28.233V7.82734H28.2014V7.92202H28.1699V7.98514H28.1383V8.04826H28.1067V8.14295H28.0752V8.20607H28.0436V8.30075H28.0121V8.36387H27.9805V8.42699H27.9489V8.52168H27.9174V8.5848H27.8858V8.64792H27.8542V8.7426H27.8227V8.80572H27.7911V8.9004H27.7596V8.96353H27.728V9.02665H27.6964V9.12133H27.6649V9.18445H27.6333V9.27913H27.6018V9.34226H27.5702V9.40538H27.5386V9.50006H27.5071V9.56318H27.4755V9.6263H27.444V9.72099H27.4124V9.78411H27.3808V9.87879H27.3493V9.94191H27.3177V10.005H27.2862V10.0997H27.2546V10.1628H27.223V10.2575H27.1915V10.3206H27.1599V10.3838H27.1284V10.4784H27.0968V10.5416H27.0652V10.6047H27.0337V10.6994H27.0021V10.7625H26.9705V10.8572H26.939V10.9203H26.9074V10.9834H26.8759V11.0781H26.8443V11.1412H26.8127V11.2359H26.7812V11.299H26.7496V11.3621H26.7181V11.4568H26.6865V11.5199H26.6549V11.6146H26.6234V11.6778H26.5918V11.7409H26.5603V11.8356H26.5287V11.8987H26.4971V11.9618H26.4656V12.0565H26.434V12.1196H26.4025V12.2143H26.3709V12.2774H26.3393V12.3405H26.3078V12.4352H26.2762V12.4983H26.2446V12.593H26.2131V12.6561H26.1815V12.7193H26.15V12.8139H26.1184V12.8771H26.0868V12.9402H26.0553V13.0349H26.0237V13.098H25.9922V13.1927H25.9606V13.2558H25.929V13.3189H25.8975V13.4136H25.8659V13.4767H25.8344V13.5714H25.8028V13.6345H25.7712V13.6976H25.7397V13.7923H25.7081V13.8554H25.6766V13.9186H25.645V14.0133H25.6134V14.0764H25.5819V14.1711H25.5503V14.2342H25.5188V14.2973H25.4872V14.392H25.4556V14.4551H25.4241V14.5498H25.3925V14.6129H25.3609V14.676H25.3294V14.7707H25.2978V14.8338H25.2663V14.897H25.2347V14.9916H25.2031V15.0548H25.1716V15.1494H25.14V15.2126H25.1085V15.2757H25.0769V15.3704H25.0453V15.4335H25.0138V15.5282H24.9822V15.5913H24.9507V15.6544H24.9191V15.7491H24.8875V15.8122H24.856V15.9069H24.8244V15.97H24.7929V16.0331H24.7613V16.1278H24.7297V16.1909H24.6982V16.2541H24.6666V16.3487H24.635V16.4119H24.6035V16.5066H24.5719V16.5697H24.5404V16.6328H24.5088V16.7275H24.4772V16.7906H24.4457V16.8853H24.4141V16.9484H24.3826V17.0115H24.351V17.1062H24.3194V17.1693H24.2879V17.2325H24.2563V17.3271H24.2248V17.3903H24.1932V17.4849H24.1616V17.5481H24.1301V17.6112H24.0985V17.7059H24.067V17.769H24.0354V17.8637H24.0038V17.9268H23.9723V17.9899H23.9407V18.0846H23.9091V18.1477H23.8776V18.2108H23.846V18.3055H23.8145V18.3686H23.7829V18.4633H23.7513V18.5264H23.7198V18.5896H23.6882V18.6842H23.6567V18.7474H23.6251V18.8421H23.5935V18.9052H23.562V18.9683H23.5304V19.063H23.4989V19.1261H23.4673V19.1892H23.4357V19.2839H23.4042V19.347H23.3726V19.4417H23.3411V19.5048H23.3095V19.5679H23.2779V19.6626H23.2464V19.7258H23.2148V19.8204H23.1833V19.8836H23.1517V19.9467H23.1201V20.0414H23.0886V20.1045H23.057V20.1992H23.0254V20.2623H22.9939V20.3254H22.9623V20.4201H22.9308V20.4832H22.8992V20.5463H22.8676V20.641H22.8361V20.7041H22.8045V20.7988H22.773V20.8619H22.7414V20.9251H22.7098V21.0197H22.6783V21.0829H22.6467V21.1775H22.6152V21.2407H22.5836V21.3038H22.552V21.3985H22.5205V21.4616H22.4889V21.5247H22.4574V21.6194H22.4258V21.6825H22.3942V21.7772H22.3627V21.8403H22.3311V21.9034H22.2996V21.9981H22.268V22.0612H22.2364V22.1559H22.2049V22.2191H22.1733V22.2822H22.1417V22.3769H22.1102V22.44H22.0786V22.5031H22.0471V22.5978H22.0155V22.6609H21.9839V22.7556H21.9524V22.8187H21.9208V22.8818H21.8893V22.9765H21.8577V23.0396H21.8261V23.1343H21.7946V23.1974H21.763V23.2606H21.7315V23.3552H21.6999V23.4184H21.6683V23.4815H21.6368V23.5762H21.6052V23.6393H21.5737V23.734H21.5421V23.7971H21.5105V23.8602H21.479V23.9549H21.4474V24.018H21.4158V24.1127H21.3843V24.1758H21.3527V24.2389H21.3212V24.3336H21.2896V24.3967H21.258V24.4914H21.2265V24.5546H21.1949V24.6177H21.1634V24.7124H21.1318V24.7755H21.1002V24.8386H21.0687V24.9333H21.0371V24.9964H21.0056V25.0911H20.974V25.1542H20.9424V25.2173H20.9109V25.312H20.8793V25.3751H20.8478V25.4698H20.8162V25.5329H20.7846V25.5961H20.7531V25.6907H20.7215V25.7539H20.69V25.817H20.6584V25.9117H20.6268V25.9432H13.6203ZM28.6433 25.9432V25.8485H28.6748V25.6907H28.7064V25.5645H28.7379V25.4067H28.7695V25.2489H28.8011V25.0911H28.8326V24.9648H28.8642V24.807H28.8958V24.6492H28.9273V24.523H28.9589V24.3652H28.9904V24.2074H29.022V24.0811H29.0536V23.9233H29.0851V23.7655H29.1167V23.6393H29.1482V23.4815H29.1798V23.3237H29.2114V23.1974H29.2429V23.0396H29.2745V22.8818H29.306V22.7556H29.3376V22.5978H29.3692V22.44H29.4007V22.3137H29.4323V22.1559H29.4638V21.9981H29.4954V21.8719H29.527V21.7141H29.5585V21.5563H29.5901V21.43H29.6217V21.2722H29.6532V21.1144H29.6848V20.9882H29.7163V20.8304H29.7479V20.6726H29.7795V20.5463H29.811V20.3885H29.8426V20.2307H29.8741V20.1045H29.9057V19.9467H29.9373V19.7889H29.9688V19.6626H30.0004V19.5048H30.0319V19.347H30.0635V19.2208H30.0951V19.063H30.1266V18.9052H30.1582V18.7789H30.1897V18.6211H30.2213V18.4633H30.2529V18.3371H30.2844V18.1793H30.316V18.0215H30.3475V17.8952H30.3791V17.7374H30.4107V17.5796H30.4422V17.4218H30.4738V17.2956H30.5054V17.1378H30.5369V16.98H30.5685V16.8537H30.6V16.6959H30.6316V16.5381H30.6632V16.4119H30.6947V16.2541H30.7263V16.0963H30.7578V15.97H30.7894V15.8122H30.821V15.6544H30.8525V15.5282H30.8841V15.3704H30.9156V15.2126H30.9472V15.0863H30.9788V14.9285H31.0103V14.7707H31.0419V14.6445H31.0734V14.4867H31.105V14.3289H31.1366V14.2026H31.1681V14.0448H31.1997V13.887H31.2313V13.7608H31.2628V13.603H31.2944V13.4452H31.3259V13.3189H31.3575V13.1611H31.3891V13.0033H31.4206V12.8771H31.4522V12.7193H31.4837V12.5615H31.5153V12.4352H31.5469V12.2774H31.5784V12.1196H31.61V11.9934H31.6415V11.8356H31.6731V11.6778H31.7047V11.5515H31.7362V11.3937H31.7678V11.2359H31.7993V11.1097H31.8309V10.9519H31.8625V10.7941H31.894V10.6678H31.9256V10.51H31.9571V10.3522H31.9887V10.226H32.0203V10.0682H32.0518V9.91035H32.0834V9.78411H32.115V9.6263H32.1465V9.4685H32.1781V9.3107H32.2096V9.18445H32.2412V9.02665H32.2728V8.86884H32.3043V8.7426H32.3359V8.5848H32.3674V8.42699H32.399V8.30075H32.4306V8.14295H32.4621V7.98514H32.4937V7.8589H32.5252V7.7011H32.5568V7.54329H32.5884V7.41705H32.6199V7.25924H32.6515V7.10144H32.683V6.9752H32.7146V6.81739H32.7462V6.65959H32.7777V6.53335H32.8093V6.37554H32.8409V6.21774H32.8724V6.0915H32.904V5.93369H32.9355V5.77589H32.9671V5.64964H32.9987V5.49184H33.0302V5.33404H33.0618V5.20779H33.0933V5.04999H33.1249V4.89219H33.1565V4.76594H33.188V4.60814H33.2196V4.45034H33.2511V4.32409H33.2827V4.16629H33.3143V4.00848H33.3458V3.88224H33.3774V3.72444H33.4089V3.56663H33.4405V3.44039H33.4721V3.28259H33.5036V3.12478H33.5352V2.99854H33.5667V2.84073H33.5983V2.68293H33.6299V2.55669H33.6614V2.39888H33.693V2.24108H33.7246V2.11484H33.7561V1.95704H33.7877V1.79923H33.8192V1.64143H33.8508V1.51518H33.8824V1.35738H33.9139V1.19957H33.9455V1.07333H33.977V0.915527H34.0086V0.757725H34.0402V0.631481H34.0717V0.473677H34.1033V0.442116H40.6995V0.59992H40.6679V0.757725H40.6364V0.883968H40.6048V1.04177H40.5732V1.19957H40.5417V1.32582H40.5101V1.48362H40.4786V1.64143H40.447V1.76767H40.4154V1.92547H40.3839V2.08328H40.3523V2.24108H40.3208V2.36732H40.2892V2.52513H40.2576V2.68293H40.2261V2.80918H40.1945V2.96698H40.163V3.12478H40.1314V3.25103H40.0998V3.40883H40.0683V3.56663H40.0367V3.69288H40.0051V3.85068H39.9736V4.00848H39.942V4.13473H39.9105V4.29253H39.8789V4.45034H39.8473V4.57658H39.8158V4.73438H39.7842V4.89219H39.7527V5.01843H39.7211V5.17623H39.6895V5.33404H39.658V5.46028H39.6264V5.61808H39.5949V5.77589H39.5633V5.90213H39.5317V6.05993H39.5002V6.21774H39.4686V6.34398H39.4371V6.50179H39.4055V6.65959H39.3739V6.78583H39.3424V6.94364H39.3108V7.10144H39.2792V7.22768H39.2477V7.38549H39.2161V7.54329H39.1846V7.66953H39.153V7.82734H39.1214V7.98514H39.0899V8.11139H39.0583V8.26919H39.0268V8.42699H38.9952V8.5848H38.9636V8.71104H38.9321V8.86884H38.9005V9.02665H38.869V9.15289H38.8374V9.3107H38.8058V9.4685H38.7743V9.59474H38.7427V9.75255H38.7112V9.91035H38.6796V10.0366H38.648V10.1944H38.6165V10.3522H38.5849V10.4784H38.5534V10.6362H38.5218V10.7941H38.4902V10.9203H38.4587V11.0781H38.4271V11.2359H38.3955V11.3621H38.364V11.5199H38.3324V11.6778H38.3009V11.804H38.2693V11.9618H38.2377V12.1196H38.2062V12.2458H38.1746V12.4037H38.1431V12.5615H38.1115V12.6877H38.0799V12.8455H38.0484V13.0033H38.0168V13.1295H37.9853V13.2874H37.9537V13.4452H37.9221V13.5714H37.8906V13.7292H37.859V13.887H37.8275V14.0133H37.7959V14.1711H37.7643V14.3289H37.7328V14.4551H37.7012V14.6129H37.6696V14.7707H37.6381V14.9285H37.6065V15.0548H37.575V15.2126H37.5434V15.3704H37.5118V15.4966H37.4803V15.6544H37.4487V15.8122H37.4172V15.9385H37.3856V16.0963H37.354V16.2541H37.3225V16.3803H37.2909V16.5381H37.2594V16.6959H37.2278V16.8222H37.1962V16.98H37.1647V17.1378H37.1331V17.264H37.1016V17.4218H37.07V17.5796H37.0384V17.7059H37.0069V17.8637H36.9753V18.0215H36.9438V18.1477H36.9122V18.3055H36.8806V18.4633H36.8491V18.5896H36.8175V18.7474H36.7859V18.9052H36.7544V19.0314H36.7228V19.1892H36.6913V19.347H36.6597V19.4733H36.6281V19.6311H36.5966V19.7889H36.565V19.9151H36.5335V20.0729H36.5019V20.2307H36.4703V20.357H36.4388V20.5148H36.4072V20.6726H36.3757V20.7988H36.3441V20.9566H36.3125V21.1144H36.281V21.2722H36.2494V21.3985H36.2179V21.5563H36.1863V21.7141H36.1547V21.8403H36.1232V21.9981H36.0916V22.1559H36.06V22.2822H36.0285V22.44H35.9969V22.5978H35.9654V22.724H35.9338V22.8818H35.9022V23.0396H35.8707V23.1659H35.8391V23.3237H35.8076V23.4815H35.776V23.6077H35.7444V23.7655H35.7129V23.9233H35.6813V24.0496H35.6498V24.2074H35.6182V24.3652H35.5866V24.4914H35.5551V24.6492H35.5235V24.807H35.492V24.9333H35.4604V25.0911H35.4288V25.2489H35.3973V25.3751H35.3657V25.5329H35.3341V25.6907H35.3026V25.817H35.271V25.9432H28.6433ZM58.2157 25.9432V25.8485H58.2473V25.7854H58.2788V25.6907H58.3104V25.6276H58.342V25.5329H58.3735V25.4698H58.4051V25.4067H58.4366V25.312H58.4682V25.2489H58.4998V25.1858H58.5313V25.0911H58.5629V25.028H58.5944V24.9333H58.626V24.8702H58.6576V24.807H58.6891V24.7124H58.7207V24.6492H58.7522V24.5546H58.7838V24.4914H58.8154V24.4283H58.8469V24.3336H58.8785V24.2705H58.91V24.2074H58.9416V24.1127H58.9732V24.0496H59.0047V23.9549H59.0363V23.8918H59.0679V23.8287H59.0994V23.734H59.131V23.6708H59.1625V23.5762H59.1941V23.513H59.2257V23.4499H59.2572V23.3552H59.2888V23.2921H59.3203V23.1974H59.3519V23.1343H59.3835V23.0712H59.415V22.9765H59.4466V22.9134H59.4781V22.8503H59.5097V22.7556H59.5413V22.6925H59.5728V22.5978H59.6044V22.5347H59.6359V22.4715H59.6675V22.3769H59.6991V22.3137H59.7306V22.2191H59.7622V22.1559H59.7938V22.0928H59.8253V21.9981H59.8569V21.935H59.8884V21.8719H59.92V21.7772H59.9516V21.7141H59.9831V21.6194H60.0147V21.5563H60.0462V21.4932H60.0778V21.3985H60.1094V21.3354H60.1409V21.2407H60.1725V21.1775H60.204V21.1144H60.2356V21.0197H60.2672V20.9566H60.2987V20.8619H60.3303V20.7988H60.3618V20.7357H60.3934V20.641H60.425V20.5779H60.4565V20.5148H60.4881V20.4201H60.5196V20.357H60.5512V20.2623H60.5828V20.1992H60.6143V20.136H60.6459V20.0414H60.6775V19.9782H60.709V19.8836H60.7406V19.8204H60.7721V19.7573H60.8037V19.6626H60.8353V19.5995H60.8668V19.5364H60.8984V19.4417H60.9299V19.3786H60.9615V19.2839H60.9931V19.2208H61.0246V19.1577H61.0562V19.063H61.0877V18.9999H61.1193V18.9052H61.1509V18.8421H61.1824V18.7789H61.214V18.6842H61.2455V18.6211H61.2771V18.5264H61.3087V18.4633H61.3402V18.4002H61.3718V18.3055H61.4033V18.2424H61.4349V18.1793H61.4665V18.0846H61.498V18.0215H61.5296V17.9268H61.5612V17.8637H61.5927V17.8005H61.6243V17.7059H61.6558V17.6427H61.6874V17.5481H61.719V17.4849H61.7505V17.4218H61.7821V17.3271H61.8136V17.264H61.8452V17.2009H61.8768V17.1062H61.9083V17.0431H61.9399V16.9484H61.9714V16.8853H62.003V16.8222H62.0346V16.7275H62.0661V16.6644H62.0977V16.5697H62.1292V16.5066H62.1608V16.4434H62.1924V16.3487H62.2239V16.2856H62.2555V16.1909H62.287V16.1278H62.3186V16.0647H62.3502V15.97H62.3817V15.9069H62.4133V15.8438H62.4449V15.7491H62.4764V15.686H62.508V15.5913H62.5395V15.5282H62.5711V15.465H62.6027V15.3704H62.6342V15.3072H62.6658V15.2126H62.6973V15.1494H62.7289V15.0863H62.7605V14.9916H62.792V14.9285H62.8236V14.8654H62.8551V14.7707H62.8867V14.7076H62.9183V14.6129H62.9498V14.5498H62.9814V14.4867H63.013V14.392H63.0445V14.3289H63.0761V14.2342H63.1076V14.1711H63.1392V14.1079H63.1708V14.0133H63.2023V13.9501H63.2339V13.8554H63.2654V13.7923H63.297V13.7292H63.3286V13.6345H63.3601V13.5714H63.3917V13.5083H63.4232V13.4136H63.4548V13.3505H63.4864V13.2558H63.5179V13.1927H63.5495V13.1295H63.581V13.0349H63.6126V12.9717H63.6442V12.8771H63.6757V12.8139H63.7073V12.7508H63.7388V12.6561H63.7704V12.593H63.802V12.5299H63.8335V12.4352H63.8651V12.3721H63.8967V12.2774H63.9282V12.2143H63.9598V12.1512H63.9913V12.0565H64.0229V11.9934H64.0545V11.8987H64.086V11.8356H64.1176V11.7724H64.1491V11.6778H64.1807V11.6146H64.2123V11.5199H64.2438V11.4568H64.2754V11.3937H64.3069V11.299H64.3385V11.2359H64.3701V11.1728H64.4016V11.0781H64.4332V11.015H64.4647V10.9203H64.4963V10.8572H64.5279V10.7941H64.5594V10.6994H64.591V10.6362H64.6226V10.5416H64.6541V10.4784H64.6857V10.4153H64.7172V10.3206H64.7488V10.2575H64.7804V10.1944H64.8119V10.0997H64.8435V10.0366H64.875V9.94191H64.9066V9.87879H64.9382V9.81567H64.9697V9.72099H65.0013V9.65786H65.0328V9.56318H65.0644V9.50006H65.096V9.43694H65.1275V9.34226H65.1591V9.27913H65.1906V9.18445H65.2222V9.12133H65.2538V9.05821H65.2853V8.96353H65.3169V8.9004H65.3484V8.83728H65.38V8.7426H65.4116V8.67948H65.4431V8.5848H65.4747V8.52168H65.5062V8.45855H65.5378V8.36387H65.5694V8.30075H65.6009V8.20607H65.6325V8.14295H65.6641V8.07982H65.6956V7.98514H65.7272V7.92202H65.7587V7.8589H65.7903V7.76422H65.8219V7.7011H65.8534V7.60641H65.885V7.54329H65.9165V7.48017H65.9481V7.38549H65.9797V7.32237H66.0112V7.22768H66.0428V7.16456H66.0743V7.10144H66.1059V7.00676H66.1375V6.94364H66.169V6.84896H66.2006V6.78583H66.2322V6.72271H66.2637V6.62803H66.2953V6.56491H66.3268V6.50179H66.3584V6.4071H66.39V6.34398H66.4215V6.2493H66.4531V6.18618H66.4846V6.12306H66.5162V6.02837H66.5478V5.96525H66.5793V5.87057H66.6109V5.80745H66.6424V5.74433H66.674V5.64964H66.7056V5.58652H66.7371V5.5234H66.7687V5.42872H66.8002V5.3656H66.8318V5.27092H66.8634V5.20779H66.8949V5.14467H66.9265V5.04999H66.958V4.98687H66.9896V4.89219H67.0212V4.82907H67.0527V4.76594H67.0843V4.67126H67.1159V4.60814H67.1474V4.51346H67.179V4.45034H67.2105V4.38721H67.2421V4.29253H67.2737V4.22941H67.3052V4.16629H67.3368V4.07161H67.3683V4.00848H67.3999V3.9138H67.4315V3.85068H67.463V3.78756H67.4946V3.69288H67.5261V3.62976H67.5577V3.53507H67.5893V3.47195H67.6208V3.40883H67.6524V3.31415H67.6839V3.25103H67.7155V3.1879H67.7471V3.09322H67.7786V3.0301H67.8102V2.93542H67.8418V2.8723H67.8733V2.80918H67.9049V2.71449H67.9364V2.65137H67.968V2.55669H67.9995V2.49357H68.0311V2.43045H68.0627V2.33576H68.0942V2.27264H68.1258V2.20952H68.1574V2.1464H68.1889V2.08328H68.2205V2.02015H68.252V1.95704H68.2836V1.89391H68.3152V1.86235H68.3467V1.83079H68.3783V1.76767H68.4098V1.73611H68.4414V1.67299H68.473V1.64143H68.5045V1.5783H68.5361V1.54674H68.5676V1.51518H68.5992V1.48362H68.6308V1.45206H68.6623V1.4205H68.6939V1.38894H68.7254V1.35738H68.757V1.32582H68.7886V1.29426H68.8201V1.2627H68.8517V1.23114H68.8833V1.19957H68.9148V1.16801H68.9464V1.13645H69.0095V1.10489H69.0411V1.07333H69.0726V1.04177H69.1042V1.01021H69.1673V0.978649H69.1989V0.947088H69.262V0.915527H69.2935V0.883968H69.3567V0.852406H69.4198V0.820845H69.4829V0.789286H69.5145V0.757725H69.5776V0.726162H69.6723V0.694603H69.767V0.663042H69.8301V0.631481H69.9248V0.59992H70.0194V0.568359H70.1457V0.536798H70.3035V0.505238H70.4297V0.473677H70.7453V0.442116H76.5525V0.568359H76.5841V0.726162H76.6156V0.883968H76.6472V1.04177H76.6788V1.16801H76.7103V1.32582H76.7419V1.48362H76.7735V1.64143H76.805V1.79923H76.8366V1.92547H76.8681V2.08328H76.8997V2.24108H76.9313V2.39888H76.9628V2.52513H76.9944V2.68293H77.0259V2.84073H77.0575V2.99854H77.0891V3.15634H77.1206V3.28259H77.1522V3.44039H77.1837V3.59819H77.2153V3.756H77.2469V3.9138H77.2784V4.04004H77.31V4.19785H77.3415V4.35565H77.3731V4.51346H77.4047V4.67126H77.4362V4.7975H77.4678V4.95531H77.4993V5.11311H77.5309V5.27092H77.5625V5.39716H77.594V5.55496H77.6256V5.71277H77.6572V5.87057H77.6887V6.02837H77.7203V6.15462H77.7518V6.31242H77.7834V6.47023H77.815V6.62803H77.8465V6.78583H77.8781V6.91208H77.9096V7.06988H77.9412V7.22768H77.9728V7.38549H78.0043V7.51173H78.0359V7.66953H78.0674V7.82734H78.099V7.98514H78.1306V8.14295H78.1621V8.26919H78.1937V8.42699H78.2252V8.5848H78.2568V8.7426H78.2884V8.9004H78.3199V9.02665H78.3515V9.18445H78.383V9.34226H78.4146V9.50006H78.4462V9.65786H78.4777V9.78411H78.5093V9.94191H78.5409V10.0997H78.5724V10.2575H78.604V10.3838H78.6355V10.5416H78.6671V10.6994H78.6987V10.8572H78.7302V11.015H78.7618V11.1412H78.7933V11.299H78.8249V11.4568H78.8565V11.6146H78.888V11.7724H78.9196V11.8987H78.9511V12.0565H78.9827V12.2143H79.0143V12.3721H79.0458V12.5299H79.0774V12.6561H79.1089V12.8139H79.1405V12.9717H79.1721V13.1295H79.2036V13.2558H79.2352V13.4136H79.2667V13.5714H79.2983V13.7292H79.3299V13.887H79.3614V14.0133H79.393V14.1711H79.4246V14.3289H79.4561V14.4867H79.4877V14.6445H79.5192V14.7707H79.5508V14.9285H79.5824V15.0863H79.6139V15.2441H79.6455V15.3704H79.677V15.5282H79.7086V15.686H79.7402V15.8438H79.7717V16.0016H79.8033V16.1278H79.8348V16.2856H79.8664V16.4434H79.898V16.6012H79.9295V16.759H79.9611V16.8853H79.9927V17.0431H80.0242V17.2009H80.0558V17.3587H80.0873V17.5165H80.1189V17.6427H80.1505V17.8005H80.182V17.9583H80.2136V18.1162H80.2451V18.2424H80.2767V18.4002H80.3083V18.558H80.3398V18.7158H80.3714V18.8736H80.4029V18.9999H80.4345V19.1577H80.4661V19.3155H80.4976V19.4733H80.5292V19.6311H80.5607V19.7573H80.5923V19.9151H80.6239V20.0729H80.6554V20.2307H80.687V20.3885H80.7185V20.5148H80.7501V20.6726H80.7817V20.8304H80.8132V20.9882H80.8448V21.1144H80.8763V21.2722H80.9079V21.43H80.9395V21.5878H80.971V21.7456H81.0026V21.8719H81.0342V22.0297H81.0657V22.1875H81.0973V22.3453H81.1288V22.5031H81.1604V22.6293H81.192V22.7871H81.2235V22.945H81.2551V23.1028H81.2866V23.229H81.3182V23.3868H81.3498V23.5446H81.3813V23.7024H81.4129V23.8602H81.4444V23.9865H81.476V24.1443H81.5076V24.3021H81.5391V24.4599H81.5707V24.6177H81.6022V24.7439H81.6338V24.9017H81.6654V25.0595H81.6969V25.2173H81.7285V25.3751H81.76V25.5014H81.7916V25.6592H81.8232V25.817H81.8547V25.9432H75.7319V25.8485H75.7004V25.6907H75.6688V25.5329H75.6373V25.4067H75.6057V25.2489H75.5741V25.0911H75.5426V24.9333H75.511V24.7755H75.4795V24.6492H75.4479V24.4914H75.4163V24.3336H75.3848V24.1758H75.3532V24.0496H75.3217V23.8918H75.2901V23.734H75.2585V23.5762H75.227V23.4184H75.1954V23.2921H75.1638V23.1343H75.1323V22.9765H75.1007V22.8187H75.0692V22.6925H75.0376V22.5347H75.006V22.3769H74.9745V22.2191H74.9429V22.1559H66.5162V22.2191H66.4846V22.2822H66.4531V22.3769H66.4215V22.4715H66.39V22.5662H66.3584V22.6609H66.3268V22.724H66.2953V22.8187H66.2637V22.9134H66.2322V23.0081H66.2006V23.0712H66.169V23.1659H66.1375V23.2606H66.1059V23.3552H66.0743V23.4184H66.0428V23.513H66.0112V23.6077H65.9797V23.7024H65.9481V23.7971H65.9165V23.8602H65.885V23.9549H65.8534V24.0496H65.8219V24.1443H65.7903V24.2074H65.7587V24.3021H65.7272V24.3967H65.6956V24.4914H65.6641V24.5546H65.6325V24.6492H65.6009V24.7439H65.5694V24.8386H65.5378V24.9333H65.5062V24.9964H65.4747V25.0911H65.4431V25.1858H65.4116V25.2804H65.38V25.3436H65.3484V25.4383H65.3169V25.5329H65.2853V25.6276H65.2538V25.6907H65.2222V25.7854H65.1906V25.8801H65.1591V25.9432H58.2157ZM68.4414 16.8537V16.8853H73.8383V16.7906H73.8067V16.6328H73.7752V16.475H73.7436V16.3487H73.7121V16.1909H73.6805V16.0331H73.6489V15.8753H73.6174V15.7175H73.5858V15.5913H73.5543V15.4335H73.5227V15.2757H73.4911V15.1179H73.4596V14.9916H73.428V14.8338H73.3964V14.676H73.3649V14.5182H73.3333V14.3604H73.3018V14.2342H73.2702V14.0764H73.2386V13.9186H73.2071V13.7608H73.1755V13.603H73.144V13.4767H73.1124V13.3189H73.0808V13.1611H73.0493V13.0033H73.0177V12.8455H72.9862V12.7193H72.9546V12.5615H72.923V12.4037H72.8915V12.2458H72.8599V12.088H72.8284V11.9618H72.7968V11.804H72.7652V11.6462H72.7337V11.4884H72.7021V11.3621H72.6705V11.2043H72.639V11.0465H72.6074V10.8887H72.5759V10.7309H72.5443V10.6047H72.5127V10.4469H72.4812V10.2891H72.4496V10.1313H72.4181V9.97347H72.3865V9.84723H72.3549V9.68942H72.3234V9.53162H72.2918V9.37382H72.2603V9.21601H72.2287V9.08977H72.1971V8.93196H72.1656V8.77416H72.134V8.61636H72.1025V8.49012H72.0709V8.33231H72.0393V8.17451H72.0078V8.0167H71.9762V7.8589H71.9446V7.73266H71.9131V7.57485H71.8815V7.41705H71.85V7.51173H71.8184V7.60641H71.7868V7.7011H71.7553V7.76422H71.7237V7.8589H71.6922V7.95358H71.6606V8.04826H71.629V8.11139H71.5975V8.20607H71.5659V8.30075H71.5344V8.39543H71.5028V8.45855H71.4712V8.55324H71.4397V8.64792H71.4081V8.7426H71.3765V8.80572H71.345V8.9004H71.3134V8.99509H71.2819V9.08977H71.2503V9.15289H71.2188V9.24757H71.1872V9.34226H71.1556V9.43694H71.1241V9.50006H71.0925V9.59474H71.061V9.68942H71.0294V9.78411H70.9978V9.84723H70.9663V9.94191H70.9347V10.0366H70.9031V10.1313H70.8716V10.1944H70.84V10.2891H70.8085V10.3838H70.7769V10.4784H70.7453V10.5731H70.7138V10.6362H70.6822V10.7309H70.6507V10.8256H70.6191V10.9203H70.5875V10.9834H70.556V11.0781H70.5244V11.1728H70.4929V11.2675H70.4613V11.3306H70.4297V11.4253H70.3982V11.5199H70.3666V11.6146H70.335V11.6778H70.3035V11.7724H70.2719V11.8671H70.2404V11.9618H70.2088V12.0249H70.1772V12.1196H70.1457V12.2143H70.1141V12.309H70.0826V12.3721H70.051V12.4668H70.0194V12.5615H69.9879V12.6561H69.9563V12.7193H69.9248V12.8139H69.8932V12.9086H69.8616V13.0033H69.8301V13.0664H69.7985V13.1611H69.767V13.2558H69.7354V13.3505H69.7038V13.4452H69.6723V13.5083H69.6407V13.603H69.6092V13.6976H69.5776V13.7923H69.546V13.8554H69.5145V13.9501H69.4829V14.0448H69.4513V14.1395H69.4198V14.2026H69.3882V14.2973H69.3567V14.392H69.3251V14.4867H69.2935V14.5498H69.262V14.6445H69.2304V14.7391H69.1989V14.8338H69.1673V14.897H69.1357V14.9916H69.1042V15.0863H69.0726V15.181H69.0411V15.2441H69.0095V15.3388H68.9779V15.4335H68.9464V15.5282H68.9148V15.5913H68.8833V15.686H68.8517V15.7807H68.8201V15.8753H68.7886V15.9385H68.757V16.0331H68.7254V16.1278H68.6939V16.2225H68.6623V16.2856H68.6308V16.3803H68.5992V16.475H68.5676V16.5697H68.5361V16.6644H68.5045V16.7275H68.473V16.8222H68.4414V16.8537Z" fill="url(#paint0_linear_757_8897)"/>
<defs>
<linearGradient id="paint0_linear_757_8897" x1="-8.94543" y1="29.0754" x2="72.5663" y2="29.0754" gradientUnits="userSpaceOnUse">
<stop stop-color="#242659"/>
<stop offset="1" stop-color="#264CA3"/>
</linearGradient>
</defs>
</svg>
