<svg width="58" height="58" viewBox="0 0 58 58" fill="none" xmlns="http://www.w3.org/2000/svg">
<path d="M54.2901 21.8296C53.7469 19.7974 51.6578 18.5877 49.6258 19.131C47.5938 19.6743 46.3842 21.7636 46.9274 23.7957C47.3447 25.3507 47.5548 26.9656 47.5548 28.5956C47.5548 38.8075 39.2496 47.1134 29.0385 47.1134C28.072 47.1134 27.1205 47.0383 26.1931 46.8942C30.4972 45.9097 33.7118 42.0644 33.7118 37.4627C33.7118 32.1166 29.3777 27.7791 24.029 27.7791C18.6833 27.7791 14.3462 32.1136 14.3462 37.4627C14.3462 38.5043 14.5142 39.5039 14.8174 40.4405C12.1371 37.2286 10.5192 33.0952 10.5192 28.5926C10.5192 20.1906 16.1831 12.8273 24.2931 10.6871C26.3281 10.1498 27.5408 8.06356 27.0035 6.02837C26.4662 3.99318 24.3802 2.77746 22.3452 3.31778C10.8944 6.34355 2.89844 16.7356 2.89844 28.5926C2.89844 43.007 14.6253 54.7318 29.0355 54.7318C43.4487 54.7318 55.1726 43.007 55.1726 28.5926C55.1756 26.3052 54.8784 24.0299 54.2901 21.8296Z" fill="#F58A1F"/>
<path d="M45.3641 12.0414C45.7076 8.57211 43.1739 5.48117 39.7049 5.13763C36.2359 4.79408 33.1452 7.32802 32.8017 10.7973C32.4582 14.2667 34.9919 17.3576 38.4609 17.7011C41.9299 18.0447 45.0206 15.5107 45.3641 12.0414Z" fill="#F58A1F"/>
</svg>
