<svg width="40" height="40" viewBox="0 0 40 40" fill="none" xmlns="http://www.w3.org/2000/svg">
<path d="M36.884 12H33.712L35.462 9.75901C35.4996 9.71097 35.5274 9.65599 35.5437 9.5972C35.5601 9.53841 35.5647 9.47698 35.5572 9.41642C35.5498 9.35586 35.5305 9.29736 35.5004 9.24426C35.4704 9.19117 35.4301 9.14453 35.382 9.10701L31.368 5.97101L26.658 12H23.485L29.398 4.43101L27.052 2.60001C26.955 2.52435 26.832 2.49027 26.7099 2.50527C26.5879 2.52027 26.4768 2.58312 26.401 2.68001L19.118 12H15.96L24.43 1.14001C24.6696 0.83306 24.9674 0.576339 25.3063 0.384521C25.6452 0.192702 26.0186 0.0695464 26.4051 0.0220908C26.7916 -0.0253647 27.1837 0.00381036 27.5589 0.107949C27.9342 0.212088 28.2852 0.389148 28.592 0.629012L36.922 7.13701C37.5412 7.6211 37.9428 8.33129 38.0384 9.11141C38.134 9.89153 37.9159 10.6777 37.432 11.297L36.884 12ZM14.594 10.5L16.547 8.00001H6.25C5.12283 8.00001 4.04183 8.44778 3.2448 9.24481C2.44777 10.0418 2 11.1228 2 12.25V33.75C2 35.4076 2.65848 36.9973 3.83058 38.1694C5.00269 39.3415 6.5924 40 8.25 40H33.75C35.4076 40 36.9973 39.3415 38.1694 38.1694C39.3415 36.9973 40 35.4076 40 33.75V20.25C40 18.5924 39.3415 17.0027 38.1694 15.8306C36.9973 14.6585 35.4076 14 33.75 14H6.25C5.78587 14 5.34075 13.8156 5.01256 13.4874C4.68437 13.1593 4.5 12.7141 4.5 12.25C4.5 11.7859 4.68437 11.3408 5.01256 11.0126C5.34075 10.6844 5.78587 10.5 6.25 10.5H14.594ZM29.25 26H33.75C34.0815 26 34.3995 26.1317 34.6339 26.3661C34.8683 26.6005 35 26.9185 35 27.25C35 27.5815 34.8683 27.8995 34.6339 28.1339C34.3995 28.3683 34.0815 28.5 33.75 28.5H29.25C28.9185 28.5 28.6005 28.3683 28.3661 28.1339C28.1317 27.8995 28 27.5815 28 27.25C28 26.9185 28.1317 26.6005 28.3661 26.3661C28.6005 26.1317 28.9185 26 29.25 26Z" fill="#F4555A"/>
</svg>
