<svg width="144" height="80" viewBox="0 0 144 80" fill="none" xmlns="http://www.w3.org/2000/svg">
<rect width="144" height="80" rx="8" fill="white"/>
<path d="M55.099 15.1569C56.4117 14.9557 57.7452 15.0181 59.0696 15.0129C67.9662 15.0103 76.8627 15.0155 85.7624 15.0103C87.6525 14.9557 89.5834 15.1049 91.3504 15.7699C95.6903 17.2732 98.8728 21.3079 99.0019 25.6084C99.0047 35.1917 98.9987 44.7752 99.0047 54.3587C98.9726 56.7408 97.9643 59.0635 96.3732 60.9166C94.1814 63.4753 90.7176 65.0355 87.1924 65.0735C77.0358 65.0762 66.882 65.0788 56.7253 65.0707C51.6292 65.0274 46.8499 61.6357 45.4726 57.0936C44.8426 55.3327 45.0331 53.466 45.0096 51.6426C45.0096 42.96 45.0096 34.2746 45.0096 25.5895C45.1532 20.4775 49.6514 15.8864 55.099 15.1569Z" fill="#E22338"/>
<path d="M68.7106 27.8227C69.827 26.8761 70.8966 25.8801 71.9693 24.8927C73.0592 25.8693 74.1434 26.8516 75.2805 27.7819C74.2694 28.8349 73.0856 29.7358 71.9693 30.6907C70.879 29.7385 69.7714 28.8024 68.7106 27.8227ZM54.8 37.2542C59.3891 33.7188 65.285 31.7571 71.2336 31.5591C71.2336 36.8826 71.2599 42.206 71.2219 47.5295C69.1238 47.4672 67.0285 47.5377 64.9334 47.5024C64.23 47.4672 63.8873 46.8459 63.6497 46.3195C62.2783 43.3809 60.8718 40.456 59.515 37.5121C59.1341 37.6884 58.762 37.881 58.3987 38.0845C59.814 41.2808 61.4257 44.4012 62.9084 47.573C61.8213 47.5759 60.7341 47.5676 59.6468 47.5812C57.9826 44.1596 56.4087 40.6975 54.8 37.2542ZM62.1437 36.188C63.4037 39.0072 64.7369 41.7992 66.0351 44.6047C66.3311 45.4566 67.5002 45.123 68.2271 45.1988C68.2418 41.6174 68.2388 38.0357 68.2271 34.4514C66.126 34.7742 64.0747 35.355 62.1437 36.188ZM72.781 31.5618C78.7383 31.7382 84.6167 33.7243 89.2201 37.238C87.6731 40.6595 86.0291 44.0458 84.4701 47.4645L84.2973 47.5704C83.2598 47.5759 82.2197 47.5759 81.1823 47.5704C82.6767 44.4554 84.095 41.308 85.648 38.2175C85.311 37.938 84.9479 37.6856 84.5639 37.4686C83.0488 40.5456 81.6541 43.674 80.145 46.7535C79.9281 47.2774 79.3185 47.5676 78.7296 47.5215C76.7456 47.5024 74.7618 47.4944 72.781 47.5215C72.775 42.2007 72.772 36.8798 72.781 31.5618ZM75.7845 34.4569C75.7816 38.0357 75.7788 41.6119 75.7874 45.1908C76.482 45.123 77.5515 45.4458 77.9296 44.7133C79.2805 41.8805 80.6371 39.0478 81.947 36.1989C79.9926 35.3577 77.9119 34.7797 75.7845 34.4569ZM59.7318 48.6204C67.934 48.5527 76.142 48.604 84.3471 48.5933C84.3587 49.4506 84.3587 50.3081 84.3471 51.1654C76.1449 51.1681 67.94 51.1788 59.7377 51.16C59.7348 50.3135 59.7377 49.4669 59.7318 48.6204Z" fill="#F8C622"/>
</svg>
