<svg width="144" height="80" viewBox="0 0 144 80" fill="none" xmlns="http://www.w3.org/2000/svg">
<rect width="144" height="80" rx="8" fill="white"/>
<path d="M52.2775 64.0014V60.8083C52.2775 59.5843 51.5324 58.786 50.2552 58.786C49.6166 58.786 48.9247 58.9989 48.4457 59.6907C48.0732 59.1053 47.541 58.786 46.7427 58.786C46.2105 58.786 45.6784 58.9457 45.2526 59.5311V58.8924H44.135V64.0014H45.2526V61.1808C45.2526 60.2761 45.7316 59.8504 46.4766 59.8504C47.2217 59.8504 47.5942 60.3293 47.5942 61.1808V64.0014H48.7118V61.1808C48.7118 60.2761 49.244 59.8504 49.9359 59.8504C50.6809 59.8504 51.0535 60.3293 51.0535 61.1808V64.0014H52.2775ZM68.8286 58.8924H67.0191V57.3491H65.9015V58.8924H64.8904V59.9036H65.9015V62.2452C65.9015 63.416 66.3805 64.1079 67.6578 64.1079C68.1367 64.1079 68.6689 63.9482 69.0414 63.7354L68.7221 62.7774C68.4028 62.9903 68.0303 63.0435 67.7642 63.0435C67.232 63.0435 67.0191 62.7242 67.0191 62.192V59.9036H68.8286V58.8924ZM78.3015 58.786C77.6629 58.786 77.2372 59.1053 76.9711 59.5311V58.8924H75.8535V64.0014H76.9711V61.1276C76.9711 60.2761 77.3436 59.7972 78.0354 59.7972C78.2483 59.7972 78.5144 59.8504 78.7273 59.9036L79.0466 58.8392C78.8337 58.786 78.5144 58.786 78.3015 58.786ZM63.9857 59.3182C63.4535 58.9456 62.7084 58.786 61.9101 58.786C60.6329 58.786 59.7814 59.4246 59.7814 60.4358C59.7814 61.2873 60.42 61.7663 61.5376 61.9259L62.0698 61.9791C62.6552 62.0856 62.9745 62.2452 62.9745 62.5113C62.9745 62.8838 62.5487 63.1499 61.8037 63.1499C61.0586 63.1499 60.4732 62.8838 60.1007 62.6178L59.5685 63.4693C60.1539 63.895 60.9522 64.1079 61.7505 64.1079C63.2406 64.1079 64.0921 63.416 64.0921 62.4581C64.0921 61.5534 63.4002 61.0744 62.3359 60.9147L61.8037 60.8615C61.3247 60.8083 60.9522 60.7019 60.9522 60.3826C60.9522 60.01 61.3247 59.7972 61.9101 59.7972C62.5487 59.7972 63.1874 60.0632 63.5067 60.2229L63.9857 59.3182ZM93.6818 58.786C93.0432 58.786 92.6174 59.1053 92.3513 59.5311V58.8924H91.2337V64.0014H92.3513V61.1276C92.3513 60.2761 92.7239 59.7972 93.4157 59.7972C93.6286 59.7972 93.8947 59.8504 94.1075 59.9036L94.4269 58.8392C94.214 58.786 93.8947 58.786 93.6818 58.786ZM79.4191 61.4469C79.4191 62.9903 80.4835 64.1079 82.1333 64.1079C82.8784 64.1079 83.4105 63.9482 83.9427 63.5225L83.4105 62.6178C82.9848 62.9371 82.559 63.0967 82.0801 63.0967C81.1754 63.0967 80.5367 62.4581 80.5367 61.4469C80.5367 60.489 81.1754 59.8504 82.0801 59.7972C82.559 59.7972 82.9848 59.9568 83.4105 60.2761L83.9427 59.3714C83.4105 58.9456 82.8784 58.786 82.1333 58.786C80.4835 58.786 79.4191 59.9036 79.4191 61.4469ZM89.7436 61.4469V58.8924H88.626V59.5311C88.2535 59.0521 87.7213 58.786 87.0294 58.786C85.5925 58.786 84.4749 59.9036 84.4749 61.4469C84.4749 62.9903 85.5925 64.1079 87.0294 64.1079C87.7745 64.1079 88.3067 63.8418 88.626 63.3628V64.0014H89.7436V61.4469ZM85.6457 61.4469C85.6457 60.5422 86.2312 59.7972 87.1891 59.7972C88.0938 59.7972 88.7324 60.489 88.7324 61.4469C88.7324 62.3517 88.0938 63.0967 87.1891 63.0967C86.2312 63.0435 85.6457 62.3517 85.6457 61.4469ZM72.2878 58.786C70.7977 58.786 69.7333 59.8504 69.7333 61.4469C69.7333 63.0435 70.7977 64.1079 72.341 64.1079C73.0861 64.1079 73.8312 63.895 74.4166 63.416L73.8844 62.6178C73.4586 62.9371 72.9264 63.1499 72.3942 63.1499C71.7024 63.1499 71.0105 62.8306 70.8509 61.9259H74.6294C74.6294 61.7663 74.6294 61.6598 74.6294 61.5002C74.6826 59.8504 73.7247 58.786 72.2878 58.786ZM72.2878 59.7439C72.9796 59.7439 73.4586 60.1697 73.5651 60.968H70.9041C71.0105 60.2761 71.4895 59.7439 72.2878 59.7439ZM100.015 61.4469V56.8701H98.8973V59.5311C98.5247 59.0521 97.9925 58.786 97.3007 58.786C95.8638 58.786 94.7462 59.9036 94.7462 61.4469C94.7462 62.9903 95.8638 64.1079 97.3007 64.1079C98.0457 64.1079 98.5779 63.8418 98.8973 63.3628V64.0014H100.015V61.4469ZM95.917 61.4469C95.917 60.5422 96.5024 59.7972 97.4603 59.7972C98.3651 59.7972 99.0037 60.489 99.0037 61.4469C99.0037 62.3517 98.3651 63.0967 97.4603 63.0967C96.5024 63.0435 95.917 62.3517 95.917 61.4469ZM58.5573 61.4469V58.8924H57.4397V59.5311C57.0672 59.0521 56.535 58.786 55.8432 58.786C54.4063 58.786 53.2886 59.9036 53.2886 61.4469C53.2886 62.9903 54.4063 64.1079 55.8432 64.1079C56.5882 64.1079 57.1204 63.8418 57.4397 63.3628V64.0014H58.5573V61.4469ZM54.4062 61.4469C54.4062 60.5422 54.9917 59.7972 55.9496 59.7972C56.8543 59.7972 57.493 60.489 57.493 61.4469C57.493 62.3517 56.8543 63.0967 55.9496 63.0967C54.9917 63.0435 54.4062 62.3517 54.4062 61.4469Z" fill="#1E2033"/>
<path d="M80.3833 20.0986H63.6194V50.2205H80.3833V20.0986Z" fill="#FF5F00"/>
<path d="M64.6824 35.1588C64.6824 29.0386 67.5562 23.6103 71.9734 20.0979C68.727 17.5434 64.6292 16 60.1588 16C49.5682 16 41 24.5682 41 35.1588C41 45.7494 49.5682 54.3176 60.1588 54.3176C64.6292 54.3176 68.727 52.7743 71.9734 50.2198C67.5562 46.7605 64.6824 41.279 64.6824 35.1588Z" fill="#EB001B"/>
<path d="M102.999 35.1588C102.999 45.7494 94.4303 54.3176 83.8397 54.3176C79.3694 54.3176 75.2715 52.7743 72.0251 50.2198C76.4955 46.7073 79.3161 41.279 79.3161 35.1588C79.3161 29.0386 76.4423 23.6103 72.0251 20.0979C75.2715 17.5434 79.3694 16 83.8397 16C94.4303 16 102.999 24.6215 102.999 35.1588Z" fill="#F79E1B"/>
</svg>
