<svg width="144" height="80" viewBox="0 0 144 80" fill="none" xmlns="http://www.w3.org/2000/svg">
<rect width="144" height="80" rx="8" fill="white"/>
<g clip-path="url(#clip0_26_1109)">
<path d="M54.0173 27.8389V27.8489C54.0073 27.8489 50.8566 27.8389 50.0164 30.8456C49.2462 33.6027 47.0757 41.2112 47.0157 41.421H46.4155C46.4155 41.421 44.195 33.6426 43.4148 30.8357C42.5746 27.8289 39.4138 27.8389 39.4138 27.8389H32.2188V50.7077H39.4172V37.1255H40.0173L44.2183 50.7076H49.2162L53.4172 37.1355H54.0173V50.7076H61.2157V27.8389H54.0173ZM80.3137 27.8389C80.3137 27.8389 78.2032 28.0287 77.2129 30.2364L72.115 41.421H71.5149V27.8389H64.3165V50.7077H71.1148C71.1148 50.7077 73.3253 50.5079 74.3157 48.3102L79.3135 37.1256H79.9137V50.7077H87.1121V27.8389H80.3137ZM90.3128 38.2244V50.7077H97.5112V43.4188H105.31C108.711 43.4188 111.588 41.2512 112.658 38.2277H90.3128V38.2244Z" fill="#4DB45E"/>
<path d="M105.315 27.8389H89.3047C90.1049 32.1942 93.3756 35.6871 97.6032 36.8259C98.5847 37.0914 99.5971 37.2258 100.614 37.2256H112.954C113.064 36.7061 113.114 36.1767 113.114 35.6273C113.114 31.3251 109.623 27.8389 105.315 27.8389Z" fill="url(#paint0_linear_26_1109)"/>
</g>
<defs>
<linearGradient id="paint0_linear_26_1109" x1="89.3046" y1="32.5322" x2="113.114" y2="32.5322" gradientUnits="userSpaceOnUse">
<stop offset="0.3" stop-color="#00B4E6"/>
<stop offset="1" stop-color="#088CCB"/>
</linearGradient>
<clipPath id="clip0_26_1109">
<rect width="80.8929" height="22.8788" fill="white" transform="translate(32.2188 27.834)"/>
</clipPath>
</defs>
</svg>
