<svg width="144" height="80" viewBox="0 0 144 80" fill="none" xmlns="http://www.w3.org/2000/svg">
<rect width="144" height="80" rx="8" fill="white"/>
<path d="M110.946 45.1055H112.324V47.2195H112.997L114.342 45.1055H115.872L114.115 47.7394V47.7611L116.089 50.6336H114.494L113.04 48.3897H112.324V50.6336H110.946V45.1055ZM108.408 47.1866C108.397 46.4496 107.92 46.0161 107.301 46.0161C106.596 46.0161 106.097 46.4825 105.967 47.1866H108.408ZM107.334 44.9756C108.918 44.9756 109.786 46.1353 109.786 47.5984C109.786 47.7722 109.764 47.9562 109.742 48.13H105.934C106.021 49.0945 106.759 49.5931 107.594 49.5931C108.158 49.5931 108.733 49.3435 109.178 48.9857L109.721 49.9727C109.156 50.4708 108.289 50.7637 107.496 50.7637C105.663 50.7637 104.513 49.441 104.513 47.8698C104.513 46.1682 105.674 44.9756 107.334 44.9756ZM98.1959 49.4739C98.8793 49.3764 99.3568 48.8018 99.3568 46.84V45.1055H103.393V50.6336H102.015V46.2222H100.67V46.84C100.67 49.246 100.03 50.6336 98.1959 50.6879V49.4739ZM96.1663 47.1866C96.1554 46.4496 95.6779 46.0161 95.0593 46.0161C94.3542 46.0161 93.8552 46.4825 93.725 47.1866H96.1663ZM95.092 44.9756C96.6762 44.9756 97.5441 46.1353 97.5441 47.5984C97.5441 47.7722 97.5224 47.9562 97.5006 48.13H93.6924C93.7791 49.0945 94.5171 49.5931 95.3525 49.5931C95.9167 49.5931 96.4918 49.3435 96.9364 48.9857L97.4789 49.9727C96.9147 50.4708 96.0469 50.7637 95.2546 50.7637C93.421 50.7637 92.271 49.441 92.271 47.8698C92.271 46.1682 93.4319 44.9756 95.092 44.9756ZM83.7518 45.1055H85.0649V49.4628H86.79V45.1055H88.1028V49.4628H89.8279V45.1055H91.141V50.6336H83.7518V45.1055ZM79.6087 49.5931C80.5093 49.5931 81.2579 48.8993 81.2579 47.8698C81.2579 46.8506 80.5093 46.1464 79.6087 46.1464C78.7081 46.1464 77.9703 46.8506 77.9703 47.8698C77.9703 48.8993 78.7081 49.5931 79.6087 49.5931ZM79.5978 44.9756C81.2905 44.9756 82.6466 46.1788 82.6466 47.8698C82.6466 49.5714 81.2905 50.7637 79.6087 50.7637C77.9268 50.7637 76.5707 49.5714 76.5707 47.8698C76.5707 46.1788 77.9268 44.9756 79.5978 44.9756ZM70.6013 42.938H72.0012V46.0701H72.9991L74.811 42.938H76.3299L74.1494 46.6017V46.6234L76.4602 50.6336H74.8762L72.9991 47.2735H72.0012V50.6336H70.6013V42.938Z" fill="#2A303B"/>
<path d="M44.7355 55.8531C34.8923 55.8531 26.9128 47.8805 26.9128 38.0471C26.9128 28.2139 34.8923 20.2423 44.7355 20.2423C54.5785 20.2423 62.5583 28.2139 62.5583 38.0471C62.5583 41.3885 61.6375 44.5152 60.0349 47.1867C59.9829 47.2738 59.8508 47.2436 59.8369 47.1429C59.2255 42.7673 56.5496 40.3563 52.6548 39.6532C52.3169 39.5922 52.2539 39.3842 52.7009 39.3457C53.8889 39.243 55.5819 39.2603 56.4429 39.4155C56.4947 38.9667 56.5175 38.5096 56.5175 38.0471C56.5175 31.5468 51.2425 26.2771 44.7355 26.2771C38.2285 26.2771 32.9538 31.5468 32.9538 38.0471C32.9538 44.5475 38.2285 49.8173 44.7355 49.8173C44.9212 49.8173 45.1056 49.8196 45.2889 49.811C45.0923 48.6678 45.0317 47.5059 45.0675 46.6282C45.0965 45.91 45.2423 45.8115 45.5665 46.3702C47.197 49.1772 49.5366 51.7341 54.0847 52.7352C57.8031 53.5536 61.5316 54.5219 65.5629 59.6067C65.9213 60.0586 65.3744 60.5105 64.9634 60.1465C60.8615 56.5159 57.1552 55.3456 53.7395 55.3456C49.9374 55.3456 47.347 55.8531 44.7355 55.8531ZM53.7825 48.3665C53.4244 48.3665 53.1256 48.4912 52.9417 48.7179C52.4712 49.2978 52.6828 50.3183 53.4037 50.9477C53.7183 51.2221 54.1717 51.3865 54.6166 51.3865C55.0697 51.3865 55.4475 51.2165 55.6808 50.9089C56.1003 50.347 55.8592 49.551 55.0663 48.8812C54.6738 48.5494 54.218 48.3665 53.7825 48.3665ZM57.7345 45.4529C57.3929 45.3239 57.1218 45.4268 56.9926 45.663C56.7966 46.0205 56.9413 46.7272 57.3365 47.3432C57.7368 47.9671 58.0763 48.2837 58.3466 48.2837C58.5944 48.2837 58.8412 47.9606 58.7247 47.1802C58.6553 46.714 58.3958 45.7028 57.7345 45.4529ZM78.5106 36.2029L77.0763 34.4793C76.9258 34.2987 77.0545 34.0245 77.2899 34.0245H80.2911C80.434 33.5995 80.5148 33.1455 80.5148 32.6739C80.5148 30.5147 78.906 28.6529 76.6977 28.6529C74.4897 28.6529 72.8811 30.5147 72.8811 32.6739C72.8811 34.8332 74.4897 36.6685 76.6977 36.6685C77.3668 36.6685 77.9797 36.4978 78.5106 36.2029ZM85.0018 39.1159C85.1574 39.2882 85.0297 39.5655 84.7949 39.5655H81.5195C81.3864 39.5655 81.26 39.5063 81.1746 39.4039L80.6197 38.737C79.4891 39.4693 78.1429 39.8967 76.6977 39.8967C72.7113 39.8967 69.4677 36.6566 69.4677 32.6739C69.4677 28.6912 72.7113 25.4512 76.6977 25.4512C80.6847 25.4512 83.9279 28.6912 83.9279 32.6739C83.9279 34.1096 83.5046 35.4475 82.779 36.5733L85.0018 39.1159ZM115.256 25.7833H112.583C112.387 25.7833 112.228 25.9424 112.228 26.1387V39.2091C112.228 39.4052 112.387 39.5642 112.583 39.5642H115.256C115.452 39.5642 115.612 39.4052 115.612 39.2091V26.1387C115.612 25.9424 115.452 25.7833 115.256 25.7833ZM110.758 25.7833H107.768C107.611 25.7833 107.474 25.8847 107.428 26.0329L105.062 33.757L102.461 26.0244C102.412 25.8806 102.277 25.7833 102.123 25.7833H100.037C99.8835 25.7833 99.7476 25.8806 99.6994 26.0244L97.0986 33.757L94.7321 26.0329C94.6865 25.8847 94.5485 25.7833 94.3918 25.7833H91.4016C91.2871 25.7833 91.1799 25.8379 91.1131 25.9297C91.0463 26.0216 91.0282 26.1398 91.0644 26.2474L95.4566 39.3247C95.5051 39.4685 95.641 39.5655 95.7938 39.5655H98.1672C98.3203 39.5655 98.4562 39.4685 98.5047 39.325L101.08 31.6847L103.655 39.325C103.704 39.4685 103.84 39.5655 103.993 39.5655H106.366C106.519 39.5655 106.655 39.4685 106.703 39.3247L111.096 26.2474C111.132 26.1398 111.114 26.0216 111.047 25.9297C110.98 25.8379 110.873 25.7833 110.758 25.7833ZM89.9323 26.1387V39.2091C89.9323 39.4052 89.7731 39.5642 89.5768 39.5642H86.9037C86.7077 39.5642 86.5482 39.4052 86.5482 39.2091V26.1387C86.5482 25.9424 86.7077 25.7833 86.9037 25.7833H89.5768C89.7731 25.7833 89.9323 25.9424 89.9323 26.1387Z" fill="#F57D14"/>
</svg>
