<svg width="144" height="80" viewBox="0 0 144 80" fill="none" xmlns="http://www.w3.org/2000/svg">
<rect width="144" height="80" rx="8" fill="white"/>
<path d="M66.3142 35.434L68.7531 33.6631H60.5879V44.271H68.7531V42.5001H62.9208V39.7917H67.9048V38.0208H62.9208V35.434H66.3142Z" fill="#21A038"/>
<path d="M54.4198 37.7951H51.592V35.434H56.1164L58.5554 33.6631H49.259V44.271H54.1193C56.8411 44.271 58.414 43.0557 58.414 40.9376C58.414 38.9063 57.0001 37.7951 54.4198 37.7951ZM54.0309 42.5001H51.592V39.566H54.0309C55.5155 39.566 56.2048 40.0521 56.2048 41.0417C56.2048 42.0313 55.4625 42.5001 54.0309 42.5001Z" fill="#21A038"/>
<path d="M75.3631 33.6631H70.927V44.271H73.2599V41.2674H75.3808C78.2086 41.2674 79.9759 39.8091 79.9759 37.4653C79.9759 35.1215 78.2086 33.6631 75.3631 33.6631ZM75.3101 39.4966H73.2423V35.434H75.3101C76.8123 35.434 77.6253 36.1631 77.6253 37.4653C77.6253 38.7674 76.8123 39.4966 75.3101 39.4966Z" fill="#21A038"/>
<path d="M45.2649 41.9795C44.6463 42.3093 43.957 42.483 43.2501 42.483C41.1469 42.483 39.627 41.0072 39.627 38.9759C39.627 36.9446 41.1469 35.4689 43.2501 35.4689C44.01 35.4515 44.7523 35.6946 45.3709 36.1286L47.0499 34.9133L46.9439 34.8092C45.9718 33.9585 44.664 33.5244 43.1794 33.5244C41.5711 33.5244 40.1041 34.0626 39.0437 35.0349C37.9833 36.0418 37.3824 37.4481 37.4177 38.9065C37.4001 40.3822 37.9833 41.8059 39.0437 42.8475C40.1572 43.8719 41.6418 44.4448 43.1617 44.4101C44.8407 44.4101 46.3076 43.8371 47.2973 42.7955L45.7951 41.7017L45.2649 41.9795Z" fill="#21A038"/>
<path d="M108.024 33.6804V44.2883H110.357V39.948H115.323V44.2883H117.656V33.6804H115.323V38.0382H110.357V33.6804H108.024ZM104.012 44.2883H106.469L101.909 33.6804H99.5409L94.8927 44.2883H97.2433L98.18 42.1529H103.129L104.012 44.2883ZM98.8869 40.382L100.69 36.1284L102.386 40.382H98.8869ZM122.888 40H124.337L127.907 44.271H130.912L126.14 38.7847L130.311 33.6631H127.642L124.178 38.2118H122.888V33.6631H120.555V44.271H122.888V40ZM87.1869 37.8125V35.4513H93.2844V33.6804H84.854V44.2883H89.7143C92.436 44.2883 94.009 43.073 94.009 40.9549C94.009 38.9236 92.5951 37.8125 90.0147 37.8125H87.1869ZM87.1869 42.5175V39.5834H89.6259C91.1105 39.5834 91.7998 40.0695 91.7998 41.0591C91.7998 42.0487 91.0752 42.5348 89.6259 42.5348H87.1869V42.5175Z" fill="#21A038"/>
<path d="M30.1184 33.5938C30.5426 34.132 30.896 34.7222 31.1965 35.3473L23.0312 41.2675L19.6025 39.1494V36.6147L23.0136 38.7154L30.1184 33.5938Z" fill="#21A038"/>
<path d="M16.1208 38.9758C16.1208 38.8543 16.1208 38.7501 16.1385 38.6286L14.0707 38.5244C14.0707 38.6633 14.053 38.8196 14.053 38.9585C14.053 41.3891 15.0604 43.594 16.6864 45.1912L18.1533 43.7502C16.8984 42.5349 16.1208 40.8509 16.1208 38.9758Z" fill="url(#paint0_linear_26_1165)"/>
<path d="M23.0135 32.2051C23.1372 32.2051 23.2432 32.2051 23.3669 32.2225L23.473 30.1912C23.3316 30.1912 23.1725 30.1738 23.0311 30.1738C20.5568 30.1738 18.3123 31.1634 16.6863 32.7607L18.1532 34.2017C19.3904 32.969 21.1224 32.2051 23.0135 32.2051Z" fill="url(#paint1_linear_26_1165)"/>
<path d="M23.0135 45.7476C22.8898 45.7476 22.7837 45.7476 22.66 45.7302L22.554 47.7615C22.6953 47.7615 22.8544 47.7788 22.9958 47.7788C25.4701 47.7788 27.7147 46.7892 29.3407 45.192L27.8737 43.751C26.6366 45.001 24.9222 45.7476 23.0135 45.7476Z" fill="url(#paint2_linear_26_1165)"/>
<path d="M26.9019 33.3855L28.6516 32.1181C27.114 30.9028 25.1522 30.1562 23.0137 30.1562V32.1875C24.4629 32.2049 25.8061 32.6389 26.9019 33.3855Z" fill="url(#paint3_linear_26_1165)"/>
<path d="M31.9918 38.9764C31.9918 38.4382 31.9388 37.9173 31.8504 37.3965L29.924 38.8028C29.924 38.8549 29.924 38.9243 29.924 38.9764C29.924 40.973 29.0403 42.7612 27.644 43.9939L29.0403 45.5043C30.843 43.9071 31.9918 41.5632 31.9918 38.9764Z" fill="#21A038"/>
<path d="M23.0135 45.7465C20.981 45.7465 19.1606 44.8784 17.9058 43.5068L16.3682 44.8784C18.0118 46.6666 20.3801 47.7778 23.0135 47.7778V45.7465Z" fill="url(#paint4_linear_26_1165)"/>
<path d="M18.4007 33.9587L17.0045 32.4482C15.1841 34.0629 14.053 36.3893 14.053 38.9762H16.1208C16.1208 36.997 17.0045 35.1914 18.4007 33.9587Z" fill="url(#paint5_linear_26_1165)"/>
<defs>
<linearGradient id="paint0_linear_26_1165" x1="256.001" y1="680.492" x2="50.9932" y2="79.174" gradientUnits="userSpaceOnUse">
<stop offset="0.1444" stop-color="#F2E913"/>
<stop offset="0.3037" stop-color="#E7E518"/>
<stop offset="0.5823" stop-color="#CADB26"/>
<stop offset="0.891" stop-color="#A3CD39"/>
</linearGradient>
<linearGradient id="paint1_linear_26_1165" x1="75.6299" y1="265.309" x2="609.672" y2="58.7994" gradientUnits="userSpaceOnUse">
<stop offset="0.0592" stop-color="#0FA8E0"/>
<stop offset="0.5385" stop-color="#0099F9"/>
<stop offset="0.9234" stop-color="#0291EB"/>
</linearGradient>
<linearGradient id="paint2_linear_26_1165" x1="10.4121" y1="273.263" x2="648.543" y2="126.915" gradientUnits="userSpaceOnUse">
<stop offset="0.1226" stop-color="#A3CD39"/>
<stop offset="0.2846" stop-color="#86C339"/>
<stop offset="0.8693" stop-color="#21A038"/>
</linearGradient>
<linearGradient id="paint3_linear_26_1165" x1="-19.4722" y1="160.122" x2="510.545" y2="326.064" gradientUnits="userSpaceOnUse">
<stop offset="0.0566" stop-color="#0291EB"/>
<stop offset="0.79" stop-color="#0C8ACB"/>
</linearGradient>
<linearGradient id="paint4_linear_26_1165" x1="68.9457" y1="213.656" x2="637.418" y2="429.183" gradientUnits="userSpaceOnUse">
<stop offset="0.1324" stop-color="#F2E913"/>
<stop offset="0.2977" stop-color="#EBE716"/>
<stop offset="0.5306" stop-color="#D9E01F"/>
<stop offset="0.8023" stop-color="#BBD62D"/>
<stop offset="0.9829" stop-color="#A3CD39"/>
</linearGradient>
<linearGradient id="paint5_linear_26_1165" x1="171.395" y1="709.776" x2="393.238" y2="124.185" gradientUnits="userSpaceOnUse">
<stop offset="0.0698" stop-color="#A3CD39"/>
<stop offset="0.2599" stop-color="#81C55F"/>
<stop offset="0.9216" stop-color="#0FA8E0"/>
</linearGradient>
</defs>
</svg>
