<svg width="144" height="80" viewBox="0 0 144 80" fill="none" xmlns="http://www.w3.org/2000/svg">
<rect width="144" height="80" rx="8" fill="white"/>
<path d="M76.3312 53.3535V53.322H75.6053V53.2904H75.2266V53.2588H74.8479V53.2273H74.5007V53.1957H74.2482V53.1642H73.9957V53.1326H73.7432V53.101H73.4907V53.0695H73.3014V53.0379H73.1436V53.0063H72.9542V52.9748H72.7649V52.9432H72.5755V52.9117H72.4177V52.8801H72.2914V52.8485H72.1336V52.817H71.9758V52.7854H71.8496V52.7539H71.6918V52.7223H71.5655V52.6907H71.4393V52.6592H71.3446V52.6276H71.2184V52.5961H71.0921V52.5645H70.9974V52.5329H70.8712V52.5014H70.745V52.4698H70.6503V52.4383H70.5556V52.4067H70.4609V52.3751H70.3662V52.3436H70.2715V52.312H70.1769V52.2804H70.0822V52.2489H69.9875V52.2173H69.9244V52.1858H69.8297V52.1542H69.7666V52.1226H69.6719V52.0911H69.6088V52.0595H69.5141V52.028H69.451V51.9964H69.4194V51.9017H69.451V51.7439H69.4825V51.6177H69.5141V51.4599H69.5457V51.3021H69.5772V51.1443H69.6088V51.018H69.6403V50.8602H69.6719V50.7024H69.7035V50.5762H69.735V50.4184H69.7666V50.2606H69.7981V50.1343H69.8297V49.9765H69.8613V49.8187H69.8928V49.6925H69.9244V49.5347H69.9559V49.3769H69.9875V49.2506H70.0191V49.0928H70.0506V48.935H70.0822V48.8088H70.1137V48.651H70.1453V48.4932H70.1769V48.3669H70.2084V48.2091H70.24V48.0513H70.2715V47.9251H70.3031V47.7673H70.3347V47.6095H70.3662V47.4832H70.3978V47.3254H70.4294V47.1676H70.4609V47.0098H70.4925V46.8836H70.524V46.7258H70.5556V46.5679H70.5872V46.4417H70.6187V46.3786H70.6818V46.4101H70.745V46.4417H70.8081V46.4733H70.8712V46.5048H70.9343V46.5364H70.9974V46.5679H71.0606V46.5995H71.1553V46.6311H71.2184V46.6626H71.2815V46.6942H71.3446V46.7258H71.4393V46.7573H71.5024V46.7889H71.5655V46.8204H71.6287V46.852H71.7233V46.8836H71.7865V46.9151H71.8496V46.9467H71.9443V46.9782H72.0074V47.0098H72.1021V47.0414H72.1652V47.0729H72.2599V47.1045H72.323V47.136H72.4177V47.1676H72.4808V47.1992H72.5755V47.2307H72.6702V47.2623H72.7649V47.2938H72.8595V47.3254H72.9542V47.357H73.0489V47.3885H73.1436V47.4201H73.2383V47.4516H73.3329V47.4832H73.4592V47.5148H73.5854V47.5463H73.7117V47.5779H73.8379V47.6095H73.9642V47.641H74.0588V47.6726H74.1851V47.7041H74.3745V47.7357H74.5323V47.7673H74.7216V47.7988H74.911V47.8304H75.0688V47.8619H75.3213V47.8935H75.6369V47.9251H75.9525V47.9566H76.3943V47.9882H77.783V47.9566H78.1302V47.9251H78.3511V47.8935H78.5405V47.8619H78.6983V47.8304H78.8561V47.7988H78.9823V47.7673H79.1086V47.7357H79.2032V47.7041H79.2979V47.6726H79.3926V47.641H79.4873V47.6095H79.582V47.5779H79.6451V47.5463H79.7398V47.5148H79.8029V47.4832H79.866V47.4516H79.9291V47.4201H79.9923V47.3885H80.0554V47.357H80.1185V47.3254H80.1501V47.2938H80.2132V47.2623H80.2763V47.2307H80.3079V47.1992H80.371V47.1676H80.4026V47.136H80.4341V47.1045H80.4972V47.0729H80.5288V47.0414H80.5604V47.0098H80.5919V46.9782H80.6235V46.9467H80.6866V46.9151H80.7182V46.8836H80.7497V46.852H80.7813V46.8204H80.8128V46.7573H80.8444V46.7258H80.876V46.6942H80.9075V46.6626H80.9391V46.6311H80.9706V46.5679H81.0022V46.5048H81.0338V46.4733H81.0653V46.4101H81.0969V46.347H81.1285V46.2839H81.16V46.2208H81.1916V46.1261H81.2231V46.0314H81.2547V45.9052H81.2863V45.7474H81.3178V45.274H81.2863V45.0846H81.2547V44.9899H81.2231V44.8952H81.1916V44.8005H81.16V44.7374H81.1285V44.6743H81.0969V44.6427H81.0653V44.5796H81.0338V44.5165H81.0022V44.4849H80.9706V44.4218H80.9391V44.3587H80.9075V44.3271H80.876V44.2956H80.8444V44.264H80.8128V44.2325H80.7813V44.2009H80.7497V44.1693H80.7182V44.1378H80.6866V44.1062H80.655V44.0746H80.6235V44.0431H80.5919V44.0115H80.5604V43.98H80.5288V43.9484H80.4972V43.9168H80.4657V43.8853H80.4341V43.8537H80.371V43.8222H80.3394V43.7906H80.3079V43.759H80.2763V43.7275H80.2132V43.6959H80.1816V43.6644H80.1501V43.6328H80.1185V43.6012H80.0554V43.5697H80.0238V43.5381H79.9607V43.5066H79.9291V43.475H79.866V43.4434H79.8345V43.4119H79.7713V43.3803H79.7082V43.3487H79.6767V43.3172H79.6135V43.2856H79.582V43.2541H79.5189V43.2225H79.4873V43.1909H79.4242V43.1594H79.3611V43.1278H79.2979V43.0963H79.2664V43.0647H79.2032V43.0331H79.1401V43.0016H79.077V42.97H79.0454V42.9385H78.9823V42.9069H78.9192V42.8753H78.8561V42.8438H78.8245V42.8122H78.7614V42.7807H78.6983V42.7491H78.6352V42.7175H78.572V42.686H78.5089V42.6544H78.4458V42.6229H78.3827V42.5913H78.3195V42.5597H78.2564V42.5282H78.1933V42.4966H78.1302V42.465H78.0671V42.4335H78.0039V42.4019H77.9408V42.3704H77.8777V42.3388H77.8146V42.3072H77.7515V42.2757H77.6883V42.2441H77.6252V42.2126H77.5621V42.181H77.499V42.1494H77.4358V42.1179H77.3727V42.0863H77.3096V42.0548H77.2465V42.0232H77.1834V41.9916H77.1518V41.9601H77.0887V41.9285H77.0256V41.897H76.9624V41.8654H76.8993V41.8338H76.8362V41.8023H76.8046V41.7707H76.7415V41.7391H76.6784V41.7076H76.6153V41.676H76.5521V41.6445H76.5206V41.6129H76.4575V41.5813H76.3943V41.5498H76.3628V41.5182H76.2997V41.4867H76.2365V41.4551H76.205V41.4235H76.1419V41.392H76.0787V41.3604H76.0472V41.3289H75.9841V41.2973H75.9525V41.2657H75.8894V41.2342H75.8578V41.2026H75.7947V41.1711H75.7631V41.1395H75.7V41.1079H75.6684V41.0764H75.6053V41.0448H75.5422V41.0133H75.5106V40.9817H75.4475V40.9501H75.416V40.9186H75.3844V40.887H75.3213V40.8554H75.2897V40.8239H75.2581V40.7923H75.195V40.7608H75.1635V40.7292H75.1319V40.6976H75.0688V40.6661H75.0372V40.6345H74.9741V40.603H74.9425V40.5714H74.911V40.5398H74.8794V40.5083H74.8479V40.4767H74.7847V40.4452H74.7532V40.4136H74.7216V40.382H74.6901V40.3505H74.6269V40.3189H74.5954V40.2874H74.5638V40.2558H74.5323V40.2242H74.5007V40.1927H74.4691V40.1611H74.406V40.1295H74.3745V40.098H74.3429V40.0664H74.3113V40.0349H74.2798V40.0033H74.2482V39.9717H74.2166V39.9402H74.1851V39.9086H74.1535V39.8771H74.122V39.8455H74.0904V39.8139H74.0588V39.7824H74.0273V39.7508H73.9957V39.7193H73.9642V39.6877H73.9326V39.6561H73.901V39.6246H73.8695V39.593H73.8379V39.5615H73.8064V39.5299H73.7748V39.4983H73.7432V39.4668H73.7117V39.4352H73.6801V39.4037H73.6486V39.3405H73.617V39.309H73.5854V39.2774H73.5539V39.2458H73.5223V39.1827H73.4907V39.1512H73.4592V39.1196H73.4276V39.088H73.3961V39.0249H73.3645V38.9934H73.3329V38.9618H73.3014V38.9302H73.2698V38.8671H73.2383V38.8356H73.2067V38.7724H73.1751V38.7409H73.1436V38.6778H73.112V38.6462H73.0805V38.5831H73.0489V38.5515H73.0173V38.4884H72.9858V38.4568H72.9542V38.3937H72.9227V38.3306H72.8911V38.2675H72.8595V38.2043H72.828V38.1728H72.7964V38.1097H72.7649V38.0465H72.7333V37.9834H72.7017V37.9203H72.6702V37.8572H72.6386V37.7941H72.607V37.6994H72.5755V37.6362H72.5439V37.5416H72.5124V37.4784H72.4808V37.3838H72.4492V37.3206H72.4177V37.1944H72.3861V37.0997H72.3546V36.9735H72.323V36.8788H72.2914V36.7525H72.2599V36.5632H72.2283V36.3738H72.1968V36.1845H72.1652V35.8057H72.1336V35.0483H72.1652V34.7011H72.1968V34.417H72.2283V34.2592H72.2599V34.0699H72.2914V33.9121H72.323V33.7227H72.3546V33.5965H72.3861V33.5018H72.4177V33.3755H72.4492V33.2809H72.4808V33.1862H72.5124V33.0915H72.5439V32.9968H72.5755V32.8706H72.607V32.7759H72.6386V32.7128H72.6702V32.6496H72.7017V32.5865H72.7333V32.4918H72.7649V32.4287H72.7964V32.3656H72.828V32.3025H72.8595V32.2394H72.8911V32.1447H72.9227V32.0816H72.9542V32.0184H72.9858V31.9553H73.0173V31.9237H73.0489V31.8606H73.0805V31.7975H73.112V31.7659H73.1436V31.7028H73.1751V31.6397H73.2067V31.6081H73.2383V31.545H73.2698V31.4819H73.3014V31.4503H73.3329V31.3872H73.3645V31.3241H73.3961V31.2925H73.4276V31.2294H73.4592V31.1978H73.4907V31.1663H73.5223V31.1032H73.5539V31.0716H73.5854V31.04H73.617V30.9769H73.6486V30.9454H73.6801V30.9138H73.7117V30.8507H73.7432V30.8191H73.7748V30.7876H73.8064V30.756H73.8379V30.6929H73.8695V30.6613H73.901V30.6298H73.9326V30.5666H73.9642V30.5351H73.9957V30.5035H74.0273V30.472H74.0588V30.4404H74.0904V30.4088H74.122V30.3773H74.1535V30.3457H74.1851V30.3141H74.2166V30.2826H74.2482V30.251H74.2798V30.2195H74.3113V30.1879H74.3429V30.1563H74.3745V30.1248H74.406V30.0932H74.4376V30.0617H74.4691V30.0301H74.5007V29.9985H74.5323V29.967H74.5638V29.9354H74.5954V29.9039H74.6269V29.8723H74.6585V29.8407H74.6901V29.8092H74.7216V29.7776H74.7847V29.7461H74.8163V29.7145H74.8479V29.6829H74.8794V29.6514H74.911V29.6198H74.9741V29.5882H75.0057V29.5567H75.0372V29.5251H75.0688V29.4936H75.1003V29.462H75.1635V29.4304H75.195V29.3989H75.2266V29.3673H75.2581V29.3358H75.2897V29.3042H75.3528V29.2726H75.3844V29.2411H75.4475V29.2095H75.4791V29.178H75.5422V29.1464H75.5738V29.1148H75.6369V29.0833H75.6684V29.0517H75.7316V29.0202H75.7631V28.9886H75.8262V28.957H75.8578V28.9255H75.9209V28.8939H75.9525V28.8624H76.0156V28.8308H76.0472V28.7992H76.1103V28.7677H76.1734V28.7361H76.205V28.7045H76.2681V28.673H76.3312V28.6414H76.3943V28.6099H76.4575V28.5783H76.489V28.5467H76.5521V28.5152H76.6153V28.4836H76.6784V28.4521H76.7415V28.4205H76.8046V28.3889H76.8362V28.3574H76.8993V28.3258H76.994V28.2943H77.0571V28.2627H77.1202V28.2311H77.1834V28.1996H77.278V28.168H77.3412V28.1365H77.4043V28.1049H77.4674V28.0733H77.5621V28.0418H77.6252V28.0102H77.6883V27.9786H77.7515V27.9471H77.8461V27.9155H77.9408V27.884H78.0355V27.8524H78.1302V27.8208H78.2249V27.7893H78.3195V27.7577H78.4142V27.7262H78.4773V27.6946H78.572V27.663H78.6667V27.6315H78.7614V27.5999H78.8876V27.5684H79.0139V27.5368H79.1401V27.5052H79.2664V27.4737H79.3611V27.4421H79.4873V27.4106H79.6135V27.379H79.7398V27.3474H79.8976V27.3159H80.0554V27.2843H80.2448V27.2528H80.4341V27.2212H80.5919V27.1896H80.7813V27.1581H80.9706V27.1265H81.2863V27.0949H81.6019V27.0634H81.9175V27.0318H82.3909V27.0003H84.2214V27.0318H84.6317V27.0634H85.0104V27.0949H85.2945V27.1265H85.547V27.1581H85.7679V27.1896H85.9888V27.2212H86.1782V27.2528H86.336V27.2843H86.5253V27.3159H86.6832V27.3474H86.841V27.379H86.9672V27.4106H87.125V27.4421H87.2512V27.4737H87.409V27.5052H87.5353V27.5368H87.63V27.5684H87.7562V27.5999H87.8825V27.6315H87.9771V27.663H88.1034V27.6946H88.2296V27.7262H88.3243V27.7577H88.419V27.7893H88.5137V27.8208H88.6084V27.8524H88.7346V27.884H88.8293V27.9155H88.924V27.9471H89.0186V27.9786H89.1133V28.0102H89.208V28.0418H89.3027V28.0733H89.3658V28.1049H89.4605V28.2311H89.4289V28.3574H89.3974V28.5152H89.3658V28.673H89.3343V28.7992H89.3027V28.957H89.2711V29.1148H89.2396V29.2411H89.208V29.3989H89.1765V29.5567H89.1449V29.6829H89.1133V29.8407H89.0818V29.9985H89.0502V30.1248H89.0186V30.2826H88.9871V30.4404H88.9555V30.5666H88.924V30.7244H88.8924V30.8822H88.8608V31.0085H88.8293V31.1663H88.7977V31.3241H88.7662V31.4503H88.7346V31.6081H88.703V31.7659H88.6715V31.8922H88.6399V32.05H88.6084V32.2078H88.5768V32.334H88.5452V32.4918H88.5137V32.6496H88.4821V32.7759H88.4506V32.9337H88.419V33.0915H88.3874V33.2177H88.3559V33.3755H88.3243V33.5333H88.2928V33.5649H88.2612V33.5333H88.1981V33.5018H88.1349V33.4702H88.0718V33.4387H87.9771V33.4071H87.914V33.3755H87.8509V33.344H87.7562V33.3124H87.6931V33.2809H87.5984V33.2493H87.5037V33.2177H87.4406V33.1862H87.3459V33.1546H87.2828V33.1231H87.1881V33.0915H87.0934V33.0599H86.9988V33.0284H86.9041V32.9968H86.8094V32.9653H86.7147V32.9337H86.62V32.9021H86.4938V32.8706H86.3991V32.839H86.3044V32.8074H86.1782V32.7759H86.0519V32.7443H85.9257V32.7128H85.7994V32.6812H85.6732V32.6496H85.5154V32.6181H85.3576V32.5865H85.2314V32.555H85.042V32.5234H84.8526V32.4918H84.6633V32.4603H84.4108V32.4287H84.1583V32.3972H83.8111V32.3656H83.1799V32.334H82.6434V32.3656H82.0753V32.3972H81.7912V32.4287H81.5703V32.4603H81.4441V32.4918H81.2863V32.5234H81.1285V32.555H81.0338V32.5865H80.9391V32.6181H80.8444V32.6496H80.7497V32.6812H80.655V32.7128H80.5604V32.7443H80.4972V32.7759H80.4341V32.8074H80.371V32.839H80.3079V32.8706H80.2448V32.9021H80.1816V32.9337H80.1185V32.9653H80.0554V32.9968H80.0238V33.0284H79.9607V33.0599H79.9291V33.0915H79.866V33.1231H79.8345V33.1546H79.8029V33.1862H79.7398V33.2177H79.7082V33.2493H79.6767V33.2809H79.6451V33.3124H79.6135V33.344H79.582V33.3755H79.5504V33.4071H79.5189V33.4387H79.4873V33.4702H79.4557V33.5018H79.4242V33.5333H79.3926V33.5649H79.3611V33.628H79.3295V33.6912H79.2979V33.7227H79.2664V33.7858H79.2348V33.8174H79.2032V33.8805H79.1717V33.9752H79.1401V34.0383H79.1086V34.133H79.077V34.2277H79.0454V34.3855H79.0139V34.7011H79.0454V34.8589H79.077V34.9851H79.1086V35.0798H79.1401V35.1429H79.1717V35.2061H79.2032V35.2692H79.2348V35.3323H79.2664V35.3639H79.2979V35.427H79.3295V35.4586H79.3611V35.4901H79.3926V35.5532H79.4242V35.5848H79.4557V35.6164H79.4873V35.6479H79.5189V35.6795H79.5504V35.711H79.582V35.7426H79.6135V35.7742H79.6451V35.8057H79.6767V35.8373H79.7082V35.8688H79.7398V35.9004H79.7713V35.932H79.8029V35.9635H79.8345V35.9951H79.8976V36.0266H79.9291V36.0582H79.9607V36.0898H79.9923V36.1213H80.0554V36.1529H80.087V36.1845H80.1185V36.216H80.1816V36.2476H80.2132V36.2791H80.2763V36.3107H80.3079V36.3423H80.371V36.3738H80.4026V36.4054H80.4657V36.4369H80.4972V36.4685H80.5604V36.5001H80.5919V36.5316H80.655V36.5632H80.7182V36.5947H80.7497V36.6263H80.8128V36.6579H80.876V36.6894H80.9075V36.721H80.9706V36.7525H81.0338V36.7841H81.0969V36.8157H81.1285V36.8472H81.1916V36.8788H81.2547V36.9104H81.3178V36.9419H81.3809V36.9735H81.4125V37.005H81.4756V37.0366H81.5387V37.0682H81.6019V37.0997H81.665V37.1313H81.7281V37.1628H81.7912V37.1944H81.8228V37.226H81.8859V37.2575H81.949V37.2891H82.0122V37.3206H82.0753V37.3522H82.1384V37.3838H82.2015V37.4153H82.2646V37.4469H82.3278V37.4784H82.3909V37.51H82.4224V37.5416H82.4856V37.5731H82.5487V37.6047H82.6118V37.6362H82.6749V37.6678H82.7381V37.6994H82.8012V37.7309H82.8643V37.7625H82.8959V37.7941H82.959V37.8256H83.0221V37.8572H83.0852V37.8887H83.1483V37.9203H83.2115V37.9519H83.2746V37.9834H83.3061V38.015H83.3693V38.0465H83.4324V38.0781H83.4955V38.1097H83.5586V38.1412H83.5902V38.1728H83.6533V38.2043H83.7164V38.2359H83.7796V38.2675H83.8111V38.299H83.8742V38.3306H83.9374V38.3621H84.0005V38.3937H84.032V38.4253H84.0952V38.4568H84.1583V38.4884H84.1898V38.5199H84.253V38.5515H84.3161V38.5831H84.3477V38.6146H84.4108V38.6462H84.4423V38.6778H84.5055V38.7093H84.5686V38.7409H84.6001V38.7724H84.6633V38.804H84.6948V38.8356H84.7579V38.8671H84.7895V38.8987H84.8526V38.9302H84.8842V38.9618H84.9473V38.9934H84.9789V39.0249H85.0104V39.0565H85.0736V39.088H85.1051V39.1196H85.1682V39.1512H85.1998V39.1827H85.2629V39.2143H85.2945V39.2458H85.326V39.2774H85.3892V39.309H85.4207V39.3405H85.4523V39.3721H85.4838V39.4037H85.547V39.4352H85.5785V39.4668H85.6101V39.4983H85.6732V39.5299H85.7048V39.5615H85.7363V39.593H85.7679V39.6246H85.7994V39.6561H85.8626V39.6877H85.8941V39.7193H85.9257V39.7508H85.9573V39.7824H85.9888V39.8139H86.0204V39.8455H86.0835V39.8771H86.1151V39.9086H86.1466V39.9402H86.1782V39.9717H86.2097V40.0033H86.2413V40.0349H86.2729V40.0664H86.3044V40.098H86.336V40.1295H86.3675V40.1611H86.3991V40.1927H86.4307V40.2242H86.4622V40.2558H86.4938V40.2874H86.5253V40.3189H86.5569V40.3505H86.5885V40.382H86.62V40.4136H86.6516V40.4767H86.6832V40.5083H86.7147V40.5398H86.7463V40.5714H86.7778V40.603H86.8094V40.6345H86.841V40.6661H86.8725V40.7292H86.9041V40.7608H86.9356V40.7923H86.9672V40.8554H86.9988V40.887H87.0303V40.9186H87.0619V40.9501H87.0934V41.0133H87.125V41.0448H87.1566V41.1079H87.1881V41.1395H87.2197V41.2026H87.2512V41.2342H87.2828V41.2973H87.3144V41.3289H87.3459V41.392H87.3775V41.4235H87.409V41.4867H87.4406V41.5498H87.4722V41.6129H87.5037V41.6445H87.5353V41.7076H87.5669V41.7707H87.5984V41.8338H87.63V41.897H87.6615V41.9601H87.6931V42.0232H87.7247V42.1179H87.7562V42.181H87.7878V42.2441H87.8193V42.3072H87.8509V42.4019H87.8825V42.4966H87.914V42.5913H87.9456V42.686H87.9771V42.7807H88.0087V42.8753H88.0403V43.0331H88.0718V43.1594H88.1034V43.3172H88.1349V43.475H88.1665V43.6959H88.1981V43.9484H88.2296V45.274H88.1981V45.6527H88.1665V45.8105H88.1349V45.9999H88.1034V46.1892H88.0718V46.3786H88.0403V46.5364H88.0087V46.6626H87.9771V46.7573H87.9456V46.852H87.914V46.9782H87.8825V47.0729H87.8509V47.1992H87.8193V47.2938H87.7878V47.3885H87.7562V47.4832H87.7247V47.5463H87.6931V47.6095H87.6615V47.7041H87.63V47.7673H87.5984V47.8304H87.5669V47.9251H87.5353V47.9882H87.5037V48.0513H87.4722V48.146H87.4406V48.2091H87.409V48.2722H87.3775V48.3354H87.3459V48.3669H87.3144V48.43H87.2828V48.4932H87.2512V48.5563H87.2197V48.5878H87.1881V48.651H87.1566V48.7141H87.125V48.7456H87.0934V48.8088H87.0619V48.8719H87.0303V48.935H86.9988V48.9666H86.9672V49.0297H86.9356V49.0612H86.9041V49.1244H86.8725V49.1559H86.841V49.1875H86.8094V49.2506H86.7778V49.2822H86.7463V49.3137H86.7147V49.3769H86.6832V49.4084H86.6516V49.44H86.62V49.5031H86.5885V49.5347H86.5569V49.5662H86.5253V49.5978H86.4938V49.6609H86.4622V49.6925H86.4307V49.724H86.3991V49.7556H86.3675V49.7871H86.336V49.8503H86.3044V49.8818H86.2729V49.9134H86.2413V49.945H86.2097V49.9765H86.1782V50.0081H86.1466V50.0396H86.1151V50.0712H86.0835V50.1028H86.0519V50.1343H86.0204V50.1659H85.9888V50.1974H85.9573V50.229H85.9257V50.2606H85.8941V50.2921H85.8626V50.3237H85.831V50.3552H85.7994V50.3868H85.7679V50.4184H85.7363V50.4499H85.7048V50.4815H85.6732V50.513H85.6416V50.5446H85.5785V50.5762H85.547V50.6077H85.5154V50.6393H85.4838V50.6708H85.4523V50.7024H85.3892V50.734H85.3576V50.7655H85.326V50.7971H85.2945V50.8287H85.2629V50.8602H85.2314V50.8918H85.1682V50.9233H85.1367V50.9549H85.1051V50.9865H85.0736V51.018H85.0104V51.0496H84.9789V51.0811H84.9157V51.1127H84.8842V51.1443H84.8211V51.1758H84.7895V51.2074H84.7264V51.2389H84.6948V51.2705H84.6317V51.3021H84.6001V51.3336H84.537V51.3652H84.5055V51.3967H84.4423V51.4283H84.4108V51.4599H84.3792V51.4914H84.3161V51.523H84.253V51.5546H84.1898V51.5861H84.1583V51.6177H84.0952V51.6492H84.032V51.6808H83.9689V51.7124H83.9058V51.7439H83.8427V51.7755H83.8111V51.807H83.748V51.8386H83.6849V51.8702H83.6218V51.9017H83.5586V51.9333H83.4955V51.9648H83.464V51.9964H83.3693V52.028H83.3061V52.0595H83.243V52.0911H83.1483V52.1226H83.0852V52.1542H83.0221V52.1858H82.9274V52.2173H82.8643V52.2489H82.8012V52.2804H82.7381V52.312H82.6434V52.3436H82.5802V52.3751H82.5171V52.4067H82.4224V52.4383H82.3278V52.4698H82.2331V52.5014H82.1384V52.5329H82.0437V52.5645H81.949V52.5961H81.8544V52.6276H81.7597V52.6592H81.665V52.6907H81.5703V52.7223H81.4441V52.7539H81.3178V52.7854H81.1916V52.817H81.0653V52.8485H80.9391V52.8801H80.8128V52.9117H80.6866V52.9432H80.5604V52.9748H80.4341V53.0063H80.2448V53.0379H80.0554V53.0695H79.866V53.101H79.6767V53.1326H79.4873V53.1642H79.3295V53.1957H79.0454V53.2273H78.6983V53.2588H78.3827V53.2904H78.0671V53.322H77.3096V53.3535H76.3312ZM43.2871 52.9432V52.8485H43.2555V52.7223H43.224V52.5961H43.1924V52.4698H43.1608V52.3436H43.1293V52.2489H43.0977V52.1226H43.0662V51.9964H43.0346V51.8702H43.003V51.7439H42.9715V51.6177H42.9399V51.4914H42.9084V51.3652H42.8768V51.2705H42.8452V51.1443H42.8137V51.018H42.7821V50.8918H42.7506V50.7655H42.719V50.6393H42.6874V50.513H42.6559V50.3868H42.6243V50.2921H42.5927V50.1659H42.5612V50.0396H42.5296V49.9134H42.4981V49.7871H42.4665V49.6609H42.4349V49.5347H42.4034V49.4084H42.3718V49.3137H42.3403V49.1875H42.3087V49.0612H42.2771V48.935H42.2456V48.8088H42.214V48.6825H42.1825V48.5563H42.1509V48.4616H42.1193V48.3354H42.0878V48.2091H42.0562V48.0829H42.0247V47.9566H41.9931V47.8304H41.9615V47.7041H41.93V47.5779H41.8984V47.4832H41.8669V47.357H41.8353V47.2307H41.8037V47.1045H41.7722V46.9782H41.7406V46.852H41.709V46.7258H41.6775V46.6311H41.6459V46.5048H41.6144V46.3786H41.5828V46.2523H41.5512V46.1261H41.5197V45.9999H41.4881V45.8736H41.4566V45.7474H41.425V45.6527H41.3934V45.5264H41.3619V45.4002H41.3303V45.274H41.2988V45.1477H41.2672V45.0215H41.2356V44.8952H41.2041V44.769H41.1725V44.6743H41.141V44.5481H41.1094V44.4218H41.0778V44.2956H41.0463V44.1693H41.0147V44.0431H40.9831V43.9168H40.9516V43.8222H40.92V43.6959H40.8885V43.5697H40.8569V43.4434H40.8253V43.3172H40.7938V43.1909H40.7622V43.0647H40.7307V42.9385H40.6991V42.8438H40.6675V42.7175H40.636V42.5913H40.6044V42.465H40.5729V42.3388H40.5413V42.2126H40.5097V42.0863H40.4782V41.9601H40.4466V41.8654H40.4151V41.7391H40.3835V41.6129H40.3519V41.4867H40.3204V41.3604H40.2888V41.2342H40.2573V41.1079H40.2257V41.0133H40.1941V40.887H40.1626V40.7608H40.131V40.6345H40.0994V40.5083H40.0679V40.382H40.0363V40.2558H40.0048V40.1295H39.9732V40.0349H39.9416V39.9086H39.9101V39.7824H39.8785V39.6561H39.847V39.5299H39.8154V39.4037H39.7838V39.2774H39.7523V39.1512H39.7207V39.0565H39.6892V38.9302H39.6576V38.804H39.626V38.6778H39.5945V38.5515H39.5629V38.4253H39.5314V38.299H39.4998V38.2043H39.4682V38.0781H39.4367V37.9519H39.4051V37.8256H39.3736V37.6994H39.342V37.5731H39.3104V37.4469H39.2789V37.3206H39.2473V37.226H39.2157V37.0997H39.1842V36.9735H39.1526V36.8472H39.1211V36.721H39.0895V36.5947H39.0579V36.4685H39.0264V36.3423H38.9948V36.2476H38.9633V36.1213H38.9317V35.9951H38.9001V35.8688H38.8686V35.7426H38.837V35.6164H38.8055V35.4901H38.7739V35.3954H38.7423V35.2692H38.7108V35.1429H38.6792V35.0167H38.6477V34.8905H38.6161V34.7642H38.5845V34.638H38.553V34.5117H38.5214V34.417H38.4898V34.2908H38.4583V34.1646H38.4267V34.0383H38.3952V33.9121H38.3636V33.7858H38.332V33.6596H38.3005V33.5333H38.2689V33.4387H38.2374V33.3124H38.2058V33.1862H38.1742V33.0599H38.1427V32.9337H38.1111V32.8074H38.0796V32.6812H38.048V32.5865H38.0164V32.4603H37.9849V32.334H37.9533V32.2394H37.9218V32.1447H37.8902V32.05H37.8586V31.9553H37.8271V31.8606H37.7955V31.7659H37.764V31.7028H37.7324V31.6397H37.7008V31.545H37.6693V31.4819H37.6377V31.4188H37.6061V31.3872H37.5746V31.3241H37.543V31.261H37.5115V31.2294H37.4799V31.1978H37.4483V31.1347H37.4168V31.1032H37.3852V31.0716H37.3537V31.04H37.3221V30.9769H37.2905V30.9454H37.2274V30.9138H37.1959V30.8822H37.1643V30.8507H37.1327V30.8191H37.1012V30.7876H37.0696V30.756H37.0381V30.7244H36.9749V30.6929H36.9434V30.6613H36.8802V30.6298H36.8487V30.5982H36.8171V30.5666H36.754V30.5351H36.6909V30.5035H36.6593V30.472H36.5962V30.4404H36.5331V30.4088H36.47V30.3773H36.4384V30.3457H36.3753V30.3141H36.3122V30.2826H36.249V30.251H36.1859V30.2195H36.1228V30.1879H36.0597V30.1563H35.9965V30.1248H35.9019V30.0932H35.8387V30.0617H35.7756V30.0301H35.7125V29.9985H35.6178V29.967H35.5547V29.9354H35.4916V29.9039H35.4285V29.8723H35.3338V29.8407H35.2706V29.8092H35.2075V29.7776H35.1128V29.7461H35.0497V29.7145H34.955V29.6829H34.8604V29.6514H34.7972V29.6198H34.7026V29.5882H34.6394V29.5567H34.5448V29.5251H34.4501V29.4936H34.3869V29.462H34.2923V29.4304H34.1976V29.3989H34.1029V29.3673H34.0082V29.3358H33.9135V29.3042H33.8189V29.2726H33.7557V29.2411H33.661V29.2095H33.5664V29.178H33.4717V29.1464H33.3454V29.1148H33.2508V29.0833H33.1561V29.0517H33.0614V29.0202H32.9667V28.9886H32.8405V28.957H32.7458V28.9255H32.6511V28.8939H32.5249V28.8624H32.4302V28.8308H32.3039V28.7992H32.2093V28.7677H32.083V28.7361H31.9883V28.7045H31.8621V28.673H31.7674V28.6414H31.6412V28.6099H31.5149V28.5783H31.3887V28.5467H31.2624V28.5152H31.1362V28.4836H31.0099V28.4521H30.8837V28.4205H30.7575V28.3889H30.6312V28.3574H30.505V28.3258H30.3472V28.2943H30.2209V28.2627H30.0947V28.2311H30V28.0418H30.0316V27.884H30.0631V27.7577H30.0947V27.5999H30.1262V27.4421H41.5197V27.4737H41.8037V27.5052H41.9931V27.5368H42.1193V27.5684H42.2456V27.5999H42.3403V27.6315H42.4349V27.663H42.5296V27.6946H42.5927V27.7262H42.6559V27.7577H42.719V27.7893H42.7821V27.8208H42.8768V27.8524H42.9084V27.884H42.9715V27.9155H43.003V27.9471H43.0662V27.9786H43.0977V28.0102H43.1608V28.0418H43.1924V28.0733H43.2555V28.1049H43.2871V28.1365H43.3186V28.168H43.3502V28.1996H43.3818V28.2311H43.4133V28.2627H43.4449V28.2943H43.4765V28.3258H43.508V28.3574H43.5396V28.3889H43.5711V28.4205H43.6027V28.4521H43.6343V28.4836H43.6658V28.5152H43.6974V28.5467H43.7289V28.5783H43.7605V28.6414H43.7921V28.673H43.8236V28.7045H43.8552V28.7677H43.8867V28.7992H43.9183V28.8624H43.9499V28.8939H43.9814V28.9255H44.013V28.9886H44.0445V29.0517H44.0761V29.1464H44.1077V29.2095H44.1392V29.2726H44.1708V29.3358H44.2023V29.3989H44.2339V29.462H44.2655V29.5567H44.297V29.6514H44.3286V29.7776H44.3602V29.8723H44.3917V29.9985H44.4233V30.1563H44.4548V30.3457H44.4864V30.5035H44.518V30.6613H44.5495V30.8507H44.5811V31.0085H44.6126V31.1663H44.6442V31.3557H44.6758V31.5135H44.7073V31.6713H44.7389V31.8606H44.7704V32.0184H44.802V32.1762H44.8336V32.3656H44.8651V32.5234H44.8967V32.6812H44.9282V32.839H44.9598V33.0284H44.9914V33.1862H45.0229V33.344H45.0545V33.5333H45.0861V33.6912H45.1176V33.849H45.1492V34.0383H45.1807V34.1961H45.2123V34.3539H45.2439V34.5433H45.2754V34.7011H45.307V34.8589H45.3385V35.0483H45.3701V35.2061H45.4017V35.3639H45.4332V35.5217H45.4648V35.711H45.4963V35.8688H45.5279V36.0266H45.5595V36.216H45.591V36.3738H45.6226V36.5316H45.6541V36.721H45.6857V36.8788H45.7173V37.0366H45.7488V37.226H45.7804V37.3838H45.8119V37.5416H45.8435V37.7309H45.8751V37.8887H45.9066V38.0465H45.9382V38.2043H45.9698V38.3937H46.0013V38.5515H46.0329V38.7093H46.0644V38.8987H46.096V39.0565H46.1276V39.2143H46.1591V39.4037H46.1907V39.5615H46.2222V39.7193H46.2538V39.9086H46.2854V40.0664H46.3169V40.2242H46.3485V40.4136H46.38V40.5714H46.4116V40.7292H46.4432V40.9186H46.4747V41.0764H46.5063V41.2342H46.5378V41.392H46.5694V41.5813H46.601V41.7391H46.6325V41.897H46.6641V42.0863H46.6957V42.2441H46.7272V42.4019H46.7588V42.5913H46.7903V42.7491H46.8219V42.9069H46.8535V43.0963H46.885V43.2541H46.9166V43.4119H46.9481V43.6012H46.9797V43.759H47.0113V43.9168H47.0428V44.0746H47.0744V44.264H47.1059V44.4218H47.1375V44.5796H47.1691V44.7059H47.2006V44.6427H47.2322V44.5481H47.2637V44.4849H47.2953V44.3903H47.3269V44.3271H47.3584V44.2325H47.39V44.1693H47.4215V44.0746H47.4531V44.0115H47.4847V43.9168H47.5162V43.8537H47.5478V43.759H47.5794V43.6959H47.6109V43.6012H47.6425V43.5066H47.674V43.4434H47.7056V43.3487H47.7372V43.2856H47.7687V43.1909H47.8003V43.1278H47.8318V43.0331H47.8634V42.97H47.895V42.8753H47.9265V42.8122H47.9581V42.7175H47.9896V42.6544H48.0212V42.5597H48.0528V42.4966H48.0843V42.4019H48.1159V42.3388H48.1474V42.2441H48.179V42.1494H48.2106V42.0863H48.2421V41.9916H48.2737V41.9285H48.3053V41.8338H48.3368V41.7707H48.3684V41.676H48.3999V41.6129H48.4315V41.5182H48.4631V41.4551H48.4946V41.3604H48.5262V41.2973H48.5577V41.2026H48.5893V41.1395H48.6209V41.0448H48.6524V40.9817H48.684V40.887H48.7155V40.8239H48.7471V40.7292H48.7787V40.6345H48.8102V40.5714H48.8418V40.4767H48.8733V40.4136H48.9049V40.3189H48.9365V40.2558H48.968V40.1611H48.9996V40.098H49.0311V40.0033H49.0627V39.9402H49.0943V39.8455H49.1258V39.7824H49.1574V39.6877H49.189V39.6246H49.2205V39.5299H49.2521V39.4668H49.2836V39.3721H49.3152V39.2774H49.3468V39.2143H49.3783V39.1196H49.4099V39.0565H49.4414V38.9618H49.473V38.8987H49.5046V38.804H49.5361V38.7409H49.5677V38.6462H49.5992V38.5831H49.6308V38.4884H49.6624V38.4253H49.6939V38.3306H49.7255V38.2675H49.757V38.1728H49.7886V38.1097H49.8202V38.015H49.8517V37.9519H49.8833V37.8572H49.9149V37.7625H49.9464V37.6994H49.978V37.6047H50.0095V37.5416H50.0411V37.4469H50.0727V37.3838H50.1042V37.2891H50.1358V37.226H50.1673V37.1313H50.1989V37.0682H50.2305V36.9735H50.262V36.9104H50.2936V36.8157H50.3251V36.7525H50.3567V36.6579H50.3883V36.5947H50.4198V36.5001H50.4514V36.4054H50.4829V36.3423H50.5145V36.2476H50.5461V36.1845H50.5776V36.0898H50.6092V36.0266H50.6407V35.932H50.6723V35.8688H50.7039V35.7742H50.7354V35.711H50.767V35.6164H50.7985V35.5532H50.8301V35.4586H50.8617V35.3954H50.8932V35.3008H50.9248V35.2376H50.9564V35.1429H50.9879V35.0798H51.0195V34.9851H51.051V34.8905H51.0826V34.8273H51.1142V34.7327H51.1457V34.6695H51.1773V34.5749H51.2088V34.5117H51.2404V34.417H51.272V34.3539H51.3035V34.2592H51.3351V34.1961H51.3666V34.1014H51.3982V34.0383H51.4298V33.9436H51.4613V33.8805H51.4929V33.7858H51.5244V33.7227H51.556V33.628H51.5876V33.5333H51.6191V33.4702H51.6507V33.3755H51.6823V33.3124H51.7138V33.2177H51.7454V33.1546H51.7769V33.0599H51.8085V32.9968H51.8401V32.9021H51.8716V32.839H51.9032V32.7443H51.9347V32.6812H51.9663V32.5865H51.9979V32.5234H52.0294V32.4287H52.061V32.3656H52.0925V32.2709H52.1241V32.2078H52.1557V32.1131H52.1872V32.0184H52.2188V31.9553H52.2503V31.8606H52.2819V31.7975H52.3135V31.7028H52.345V31.6397H52.3766V31.545H52.4082V31.4819H52.4397V31.3872H52.4713V31.3241H52.5028V31.2294H52.5344V31.1663H52.566V31.0716H52.5975V31.0085H52.6291V30.9138H52.6606V30.8507H52.6922V30.756H52.7238V30.6613H52.7553V30.5982H52.7869V30.5035H52.8184V30.4404H52.85V30.3457H52.8816V30.2826H52.9131V30.1879H52.9447V30.1248H52.9762V30.0301H53.0078V29.967H53.0394V29.8723H53.0709V29.8092H53.1025V29.7145H53.134V29.6514H53.1656V29.5567H53.1972V29.4936H53.2287V29.3989H53.2603V29.3358H53.2919V29.2411H53.3234V29.1464H53.355V29.0833H53.3865V28.9886H53.4181V28.9255H53.4497V28.8308H53.4812V28.7677H53.5128V28.673H53.5443V28.6099H53.5759V28.5152H53.6075V28.4521H53.639V28.3574H53.6706V28.2943H53.7021V28.1996H53.7337V28.1365H53.7653V28.0418H53.7968V27.9786H53.8284V27.884H53.8599V27.7893H53.8915V27.7262H53.9231V27.6315H53.9546V27.5684H53.9862V27.4737H54.0177V27.4421H60.9611V27.5368H60.9296V27.5999H60.898V27.6946H60.8664V27.7577H60.8349V27.8208H60.8033V27.9155H60.7718V27.9786H60.7402V28.0418H60.7086V28.1365H60.6771V28.1996H60.6455V28.2943H60.614V28.3574H60.5824V28.4205H60.5508V28.5152H60.5193V28.5783H60.4877V28.673H60.4561V28.7361H60.4246V28.7992H60.393V28.8939H60.3615V28.957H60.3299V29.0517H60.2983V29.1148H60.2668V29.178H60.2352V29.2726H60.2037V29.3358H60.1721V29.3989H60.1405V29.4936H60.109V29.5567H60.0774V29.6514H60.0459V29.7145H60.0143V29.7776H59.9827V29.8723H59.9512V29.9354H59.9196V30.0301H59.8881V30.0932H59.8565V30.1563H59.8249V30.251H59.7934V30.3141H59.7618V30.3773H59.7302V30.472H59.6987V30.5351H59.6671V30.6298H59.6356V30.6929H59.604V30.756H59.5724V30.8507H59.5409V30.9138H59.5093V31.0085H59.4778V31.0716H59.4462V31.1347H59.4146V31.2294H59.3831V31.2925H59.3515V31.3557H59.32V31.4503H59.2884V31.5135H59.2568V31.6081H59.2253V31.6713H59.1937V31.7344H59.1622V31.8291H59.1306V31.8922H59.099V31.9869H59.0675V32.05H59.0359V32.1131H59.0044V32.2078H58.9728V32.2709H58.9412V32.334H58.9097V32.4287H58.8781V32.4918H58.8465V32.5865H58.815V32.6496H58.7834V32.7128H58.7519V32.8074H58.7203V32.8706H58.6887V32.9653H58.6572V33.0284H58.6256V33.0915H58.5941V33.1862H58.5625V33.2493H58.5309V33.3124H58.4994V33.4071H58.4678V33.4702H58.4363V33.5649H58.4047V33.628H58.3731V33.6912H58.3416V33.7858H58.31V33.849H58.2785V33.9436H58.2469V34.0068H58.2153V34.0699H58.1838V34.1646H58.1522V34.2277H58.1207V34.3224H58.0891V34.3855H58.0575V34.4486H58.026V34.5433H57.9944V34.6064H57.9628V34.6695H57.9313V34.7642H57.8997V34.8273H57.8682V34.922H57.8366V34.9851H57.805V35.0483H57.7735V35.1429H57.7419V35.2061H57.7104V35.3008H57.6788V35.3639H57.6472V35.427H57.6157V35.5217H57.5841V35.5848H57.5526V35.6479H57.521V35.7426H57.4894V35.8057H57.4579V35.9004H57.4263V35.9635H57.3948V36.0266H57.3632V36.1213H57.3316V36.1845H57.3001V36.2791H57.2685V36.3423H57.2369V36.4054H57.2054V36.5001H57.1738V36.5632H57.1423V36.6263H57.1107V36.721H57.0791V36.7841H57.0476V36.8788H57.016V36.9419H56.9845V37.005H56.9529V37.0997H56.9213V37.1628H56.8898V37.2575H56.8582V37.3206H56.8267V37.3838H56.7951V37.4784H56.7635V37.5416H56.732V37.6047H56.7004V37.6994H56.6689V37.7625H56.6373V37.8572H56.6057V37.9203H56.5742V37.9834H56.5426V38.0781H56.5111V38.1412H56.4795V38.2359H56.4479V38.299H56.4164V38.3621H56.3848V38.4568H56.3532V38.5199H56.3217V38.6146H56.2901V38.6778H56.2586V38.7409H56.227V38.8356H56.1954V38.8987H56.1639V38.9618H56.1323V39.0565H56.1008V39.1196H56.0692V39.2143H56.0376V39.2774H56.0061V39.3405H55.9745V39.4352H55.943V39.4983H55.9114V39.593H55.8798V39.6561H55.8483V39.7193H55.8167V39.8139H55.7852V39.8771H55.7536V39.9402H55.722V40.0349H55.6905V40.098H55.6589V40.1927H55.6273V40.2558H55.5958V40.3189H55.5642V40.4136H55.5327V40.4767H55.5011V40.5714H55.4695V40.6345H55.438V40.6976H55.4064V40.7923H55.3749V40.8554H55.3433V40.9186H55.3117V41.0133H55.2802V41.0764H55.2486V41.1711H55.2171V41.2342H55.1855V41.2973H55.1539V41.392H55.1224V41.4551H55.0908V41.5498H55.0593V41.6129H55.0277V41.676H54.9961V41.7707H54.9646V41.8338H54.933V41.897H54.9015V41.9916H54.8699V42.0548H54.8383V42.1494H54.8068V42.2126H54.7752V42.2757H54.7436V42.3704H54.7121V42.4335H54.6805V42.5282H54.649V42.5913H54.6174V42.6544H54.5858V42.7491H54.5543V42.8122H54.5227V42.9069H54.4912V42.97H54.4596V43.0331H54.428V43.1278H54.3965V43.1909H54.3649V43.2541H54.3334V43.3487H54.3018V43.4119H54.2702V43.5066H54.2387V43.5697H54.2071V43.6328H54.1756V43.7275H54.144V43.7906H54.1124V43.8853H54.0809V43.9484H54.0493V44.0115H54.0177V44.1062H53.9862V44.1693H53.9546V44.2325H53.9231V44.3271H53.8915V44.3903H53.8599V44.4849H53.8284V44.5481H53.7968V44.6112H53.7653V44.7059H53.7337V44.769H53.7021V44.8637H53.6706V44.9268H53.639V44.9899H53.6075V45.0846H53.5759V45.1477H53.5443V45.2108H53.5128V45.3055H53.4812V45.3686H53.4497V45.4633H53.4181V45.5264H53.3865V45.5896H53.355V45.6842H53.3234V45.7474H53.2919V45.8421H53.2603V45.9052H53.2287V45.9683H53.1972V46.063H53.1656V46.1261H53.134V46.1892H53.1025V46.2839H53.0709V46.347H53.0394V46.4417H53.0078V46.5048H52.9762V46.5679H52.9447V46.6626H52.9131V46.7258H52.8816V46.8204H52.85V46.8836H52.8184V46.9467H52.7869V47.0414H52.7553V47.1045H52.7238V47.1992H52.6922V47.2623H52.6606V47.3254H52.6291V47.4201H52.5975V47.4832H52.566V47.5463H52.5344V47.641H52.5028V47.7041H52.4713V47.7988H52.4397V47.8619H52.4082V47.9251H52.3766V48.0197H52.345V48.0829H52.3135V48.1775H52.2819V48.2407H52.2503V48.3038H52.2188V48.3985H52.1872V48.4616H52.1557V48.5247H52.1241V48.6194H52.0925V48.6825H52.061V48.7772H52.0294V48.8403H51.9979V48.9034H51.9663V48.9981H51.9347V49.0612H51.9032V49.1559H51.8716V49.2191H51.8401V49.2822H51.8085V49.3769H51.7769V49.44H51.7454V49.5031H51.7138V49.5978H51.6823V49.6609H51.6507V49.7556H51.6191V49.8187H51.5876V49.8818H51.556V49.9765H51.5244V50.0396H51.4929V50.1343H51.4613V50.1974H51.4298V50.2606H51.3982V50.3552H51.3666V50.4184H51.3351V50.4815H51.3035V50.5762H51.272V50.6393H51.2404V50.734H51.2088V50.7971H51.1773V50.8602H51.1457V50.9549H51.1142V51.018H51.0826V51.1127H51.051V51.1758H51.0195V51.2389H50.9879V51.3336H50.9564V51.3967H50.9248V51.4914H50.8932V51.5546H50.8617V51.6177H50.8301V51.7124H50.7985V51.7755H50.767V51.8386H50.7354V51.9333H50.7039V51.9964H50.6723V52.0911H50.6407V52.1542H50.6092V52.2173H50.5776V52.312H50.5461V52.3751H50.5145V52.4698H50.4829V52.5329H50.4514V52.5961H50.4198V52.6907H50.3883V52.7539H50.3567V52.817H50.3251V52.9117H50.2936V52.9432H43.2871ZM58.31 52.9432V52.8485H58.3416V52.6907H58.3731V52.5645H58.4047V52.4067H58.4363V52.2489H58.4678V52.0911H58.4994V51.9648H58.5309V51.807H58.5625V51.6492H58.5941V51.523H58.6256V51.3652H58.6572V51.2074H58.6887V51.0811H58.7203V50.9233H58.7519V50.7655H58.7834V50.6393H58.815V50.4815H58.8465V50.3237H58.8781V50.1974H58.9097V50.0396H58.9412V49.8818H58.9728V49.7556H59.0044V49.5978H59.0359V49.44H59.0675V49.3137H59.099V49.1559H59.1306V48.9981H59.1622V48.8719H59.1937V48.7141H59.2253V48.5563H59.2568V48.43H59.2884V48.2722H59.32V48.1144H59.3515V47.9882H59.3831V47.8304H59.4146V47.6726H59.4462V47.5463H59.4778V47.3885H59.5093V47.2307H59.5409V47.1045H59.5724V46.9467H59.604V46.7889H59.6356V46.6626H59.6671V46.5048H59.6987V46.347H59.7302V46.2208H59.7618V46.063H59.7934V45.9052H59.8249V45.7789H59.8565V45.6211H59.8881V45.4633H59.9196V45.3371H59.9512V45.1793H59.9827V45.0215H60.0143V44.8952H60.0459V44.7374H60.0774V44.5796H60.109V44.4218H60.1405V44.2956H60.1721V44.1378H60.2037V43.98H60.2352V43.8537H60.2668V43.6959H60.2983V43.5381H60.3299V43.4119H60.3615V43.2541H60.393V43.0963H60.4246V42.97H60.4561V42.8122H60.4877V42.6544H60.5193V42.5282H60.5508V42.3704H60.5824V42.2126H60.614V42.0863H60.6455V41.9285H60.6771V41.7707H60.7086V41.6445H60.7402V41.4867H60.7718V41.3289H60.8033V41.2026H60.8349V41.0448H60.8664V40.887H60.898V40.7608H60.9296V40.603H60.9611V40.4452H60.9927V40.3189H61.0242V40.1611H61.0558V40.0033H61.0874V39.8771H61.1189V39.7193H61.1505V39.5615H61.182V39.4352H61.2136V39.2774H61.2452V39.1196H61.2767V38.9934H61.3083V38.8356H61.3398V38.6778H61.3714V38.5515H61.403V38.3937H61.4345V38.2359H61.4661V38.1097H61.4977V37.9519H61.5292V37.7941H61.5608V37.6678H61.5923V37.51H61.6239V37.3522H61.6555V37.226H61.687V37.0682H61.7186V36.9104H61.7501V36.7841H61.7817V36.6263H61.8133V36.4685H61.8448V36.3107H61.8764V36.1845H61.9079V36.0266H61.9395V35.8688H61.9711V35.7426H62.0026V35.5848H62.0342V35.427H62.0657V35.3008H62.0973V35.1429H62.1289V34.9851H62.1604V34.8589H62.192V34.7011H62.2236V34.5433H62.2551V34.417H62.2867V34.2592H62.3182V34.1014H62.3498V33.9752H62.3814V33.8174H62.4129V33.6596H62.4445V33.5333H62.476V33.3755H62.5076V33.2177H62.5392V33.0915H62.5707V32.9337H62.6023V32.7759H62.6338V32.6496H62.6654V32.4918H62.697V32.334H62.7285V32.2078H62.7601V32.05H62.7916V31.8922H62.8232V31.7659H62.8548V31.6081H62.8863V31.4503H62.9179V31.3241H62.9495V31.1663H62.981V31.0085H63.0126V30.8822H63.0441V30.7244H63.0757V30.5666H63.1073V30.4404H63.1388V30.2826H63.1704V30.1248H63.2019V29.9985H63.2335V29.8407H63.2651V29.6829H63.2966V29.5567H63.3282V29.3989H63.3597V29.2411H63.3913V29.1148H63.4229V28.957H63.4544V28.7992H63.486V28.6414H63.5175V28.5152H63.5491V28.3574H63.5807V28.1996H63.6122V28.0733H63.6438V27.9155H63.6753V27.7577H63.7069V27.6315H63.7385V27.4737H63.77V27.4421H70.3662V27.5999H70.3347V27.7577H70.3031V27.884H70.2715V28.0418H70.24V28.1996H70.2084V28.3258H70.1769V28.4836H70.1453V28.6414H70.1137V28.7677H70.0822V28.9255H70.0506V29.0833H70.0191V29.2411H69.9875V29.3673H69.9559V29.5251H69.9244V29.6829H69.8928V29.8092H69.8613V29.967H69.8297V30.1248H69.7981V30.251H69.7666V30.4088H69.735V30.5666H69.7035V30.6929H69.6719V30.8507H69.6403V31.0085H69.6088V31.1347H69.5772V31.2925H69.5457V31.4503H69.5141V31.5766H69.4825V31.7344H69.451V31.8922H69.4194V32.0184H69.3878V32.1762H69.3563V32.334H69.3247V32.4603H69.2932V32.6181H69.2616V32.7759H69.23V32.9021H69.1985V33.0599H69.1669V33.2177H69.1354V33.344H69.1038V33.5018H69.0722V33.6596H69.0407V33.7858H69.0091V33.9436H68.9776V34.1014H68.946V34.2277H68.9144V34.3855H68.8829V34.5433H68.8513V34.6695H68.8198V34.8273H68.7882V34.9851H68.7566V35.1114H68.7251V35.2692H68.6935V35.427H68.6619V35.5848H68.6304V35.711H68.5988V35.8688H68.5673V36.0266H68.5357V36.1529H68.5041V36.3107H68.4726V36.4685H68.441V36.5947H68.4095V36.7525H68.3779V36.9104H68.3463V37.0366H68.3148V37.1944H68.2832V37.3522H68.2517V37.4784H68.2201V37.6362H68.1885V37.7941H68.157V37.9203H68.1254V38.0781H68.0939V38.2359H68.0623V38.3621H68.0307V38.5199H67.9992V38.6778H67.9676V38.804H67.9361V38.9618H67.9045V39.1196H67.8729V39.2458H67.8414V39.4037H67.8098V39.5615H67.7782V39.6877H67.7467V39.8455H67.7151V40.0033H67.6836V40.1295H67.652V40.2874H67.6204V40.4452H67.5889V40.5714H67.5573V40.7292H67.5258V40.887H67.4942V41.0133H67.4626V41.1711H67.4311V41.3289H67.3995V41.4551H67.368V41.6129H67.3364V41.7707H67.3048V41.9285H67.2733V42.0548H67.2417V42.2126H67.2102V42.3704H67.1786V42.4966H67.147V42.6544H67.1155V42.8122H67.0839V42.9385H67.0523V43.0963H67.0208V43.2541H66.9892V43.3803H66.9577V43.5381H66.9261V43.6959H66.8945V43.8222H66.863V43.98H66.8314V44.1378H66.7999V44.264H66.7683V44.4218H66.7367V44.5796H66.7052V44.7059H66.6736V44.8637H66.6421V45.0215H66.6105V45.1477H66.5789V45.3055H66.5474V45.4633H66.5158V45.5896H66.4843V45.7474H66.4527V45.9052H66.4211V46.0314H66.3896V46.1892H66.358V46.347H66.3265V46.4733H66.2949V46.6311H66.2633V46.7889H66.2318V46.9151H66.2002V47.0729H66.1686V47.2307H66.1371V47.357H66.1055V47.5148H66.074V47.6726H66.0424V47.7988H66.0108V47.9566H65.9793V48.1144H65.9477V48.2722H65.9162V48.3985H65.8846V48.5563H65.853V48.7141H65.8215V48.8403H65.7899V48.9981H65.7584V49.1559H65.7268V49.2822H65.6952V49.44H65.6637V49.5978H65.6321V49.724H65.6006V49.8818H65.569V50.0396H65.5374V50.1659H65.5059V50.3237H65.4743V50.4815H65.4427V50.6077H65.4112V50.7655H65.3796V50.9233H65.3481V51.0496H65.3165V51.2074H65.2849V51.3652H65.2534V51.4914H65.2218V51.6492H65.1903V51.807H65.1587V51.9333H65.1271V52.0911H65.0956V52.2489H65.064V52.3751H65.0325V52.5329H65.0009V52.6907H64.9693V52.817H64.9378V52.9432H58.31ZM87.8825 52.9432V52.8485H87.914V52.7854H87.9456V52.6907H87.9771V52.6276H88.0087V52.5329H88.0403V52.4698H88.0718V52.4067H88.1034V52.312H88.1349V52.2489H88.1665V52.1858H88.1981V52.0911H88.2296V52.028H88.2612V51.9333H88.2928V51.8702H88.3243V51.807H88.3559V51.7124H88.3874V51.6492H88.419V51.5546H88.4506V51.4914H88.4821V51.4283H88.5137V51.3336H88.5452V51.2705H88.5768V51.2074H88.6084V51.1127H88.6399V51.0496H88.6715V50.9549H88.703V50.8918H88.7346V50.8287H88.7662V50.734H88.7977V50.6708H88.8293V50.5762H88.8608V50.513H88.8924V50.4499H88.924V50.3552H88.9555V50.2921H88.9871V50.1974H89.0186V50.1343H89.0502V50.0712H89.0818V49.9765H89.1133V49.9134H89.1449V49.8503H89.1765V49.7556H89.208V49.6925H89.2396V49.5978H89.2711V49.5347H89.3027V49.4715H89.3343V49.3769H89.3658V49.3137H89.3974V49.2191H89.4289V49.1559H89.4605V49.0928H89.4921V48.9981H89.5236V48.935H89.5552V48.8719H89.5867V48.7772H89.6183V48.7141H89.6499V48.6194H89.6814V48.5563H89.713V48.4932H89.7445V48.3985H89.7761V48.3354H89.8077V48.2407H89.8392V48.1775H89.8708V48.1144H89.9024V48.0197H89.9339V47.9566H89.9655V47.8619H89.997V47.7988H90.0286V47.7357H90.0602V47.641H90.0917V47.5779H90.1233V47.5148H90.1548V47.4201H90.1864V47.357H90.218V47.2623H90.2495V47.1992H90.2811V47.136H90.3126V47.0414H90.3442V46.9782H90.3758V46.8836H90.4073V46.8204H90.4389V46.7573H90.4704V46.6626H90.502V46.5995H90.5336V46.5364H90.5651V46.4417H90.5967V46.3786H90.6283V46.2839H90.6598V46.2208H90.6914V46.1577H90.7229V46.063H90.7545V45.9999H90.7861V45.9052H90.8176V45.8421H90.8492V45.7789H90.8807V45.6842H90.9123V45.6211H90.9439V45.5264H90.9754V45.4633H91.007V45.4002H91.0385V45.3055H91.0701V45.2424H91.1017V45.1793H91.1332V45.0846H91.1648V45.0215H91.1963V44.9268H91.2279V44.8637H91.2595V44.8005H91.291V44.7059H91.3226V44.6427H91.3541V44.5481H91.3857V44.4849H91.4173V44.4218H91.4488V44.3271H91.4804V44.264H91.5119V44.2009H91.5435V44.1062H91.5751V44.0431H91.6066V43.9484H91.6382V43.8853H91.6698V43.8222H91.7013V43.7275H91.7329V43.6644H91.7644V43.5697H91.796V43.5066H91.8276V43.4434H91.8591V43.3487H91.8907V43.2856H91.9222V43.1909H91.9538V43.1278H91.9854V43.0647H92.0169V42.97H92.0485V42.9069H92.08V42.8438H92.1116V42.7491H92.1432V42.686H92.1747V42.5913H92.2063V42.5282H92.2378V42.465H92.2694V42.3704H92.301V42.3072H92.3325V42.2126H92.3641V42.1494H92.3956V42.0863H92.4272V41.9916H92.4588V41.9285H92.4903V41.8654H92.5219V41.7707H92.5535V41.7076H92.585V41.6129H92.6166V41.5498H92.6481V41.4867H92.6797V41.392H92.7113V41.3289H92.7428V41.2342H92.7744V41.1711H92.8059V41.1079H92.8375V41.0133H92.8691V40.9501H92.9006V40.8554H92.9322V40.7923H92.9637V40.7292H92.9953V40.6345H93.0269V40.5714H93.0584V40.5083H93.09V40.4136H93.1216V40.3505H93.1531V40.2558H93.1847V40.1927H93.2162V40.1295H93.2478V40.0349H93.2794V39.9717H93.3109V39.8771H93.3425V39.8139H93.374V39.7508H93.4056V39.6561H93.4372V39.593H93.4687V39.5299H93.5003V39.4352H93.5318V39.3721H93.5634V39.2774H93.595V39.2143H93.6265V39.1512H93.6581V39.0565H93.6896V38.9934H93.7212V38.8987H93.7528V38.8356H93.7843V38.7724H93.8159V38.6778H93.8474V38.6146H93.879V38.5199H93.9106V38.4568H93.9421V38.3937H93.9737V38.299H94.0053V38.2359H94.0368V38.1728H94.0684V38.0781H94.0999V38.015H94.1315V37.9203H94.1631V37.8572H94.1946V37.7941H94.2262V37.6994H94.2577V37.6362H94.2893V37.5416H94.3209V37.4784H94.3524V37.4153H94.384V37.3206H94.4155V37.2575H94.4471V37.1944H94.4787V37.0997H94.5102V37.0366H94.5418V36.9419H94.5733V36.8788H94.6049V36.8157H94.6365V36.721H94.668V36.6579H94.6996V36.5632H94.7311V36.5001H94.7627V36.4369H94.7943V36.3423H94.8258V36.2791H94.8574V36.1845H94.889V36.1213H94.9205V36.0582H94.9521V35.9635H94.9836V35.9004H95.0152V35.8373H95.0468V35.7426H95.0783V35.6795H95.1099V35.5848H95.1414V35.5217H95.173V35.4586H95.2046V35.3639H95.2361V35.3008H95.2677V35.2061H95.2992V35.1429H95.3308V35.0798H95.3624V34.9851H95.3939V34.922H95.4255V34.8589H95.457V34.7642H95.4886V34.7011H95.5202V34.6064H95.5517V34.5433H95.5833V34.4802H95.6149V34.3855H95.6464V34.3224H95.678V34.2277H95.7095V34.1646H95.7411V34.1014H95.7727V34.0068H95.8042V33.9436H95.8358V33.849H95.8673V33.7858H95.8989V33.7227H95.9305V33.628H95.962V33.5649H95.9936V33.5018H96.0251V33.4071H96.0567V33.344H96.0883V33.2493H96.1198V33.1862H96.1514V33.1231H96.1829V33.0284H96.2145V32.9653H96.2461V32.8706H96.2776V32.8074H96.3092V32.7443H96.3408V32.6496H96.3723V32.5865H96.4039V32.5234H96.4354V32.4287H96.467V32.3656H96.4986V32.2709H96.5301V32.2078H96.5617V32.1447H96.5932V32.05H96.6248V31.9869H96.6564V31.8922H96.6879V31.8291H96.7195V31.7659H96.751V31.6713H96.7826V31.6081H96.8142V31.5135H96.8457V31.4503H96.8773V31.3872H96.9088V31.2925H96.9404V31.2294H96.972V31.1663H97.0035V31.0716H97.0351V31.0085H97.0666V30.9138H97.0982V30.8507H97.1298V30.7876H97.1613V30.6929H97.1929V30.6298H97.2244V30.5351H97.256V30.472H97.2876V30.4088H97.3191V30.3141H97.3507V30.251H97.3823V30.1879H97.4138V30.0932H97.4454V30.0301H97.4769V29.9354H97.5085V29.8723H97.5401V29.8092H97.5716V29.7145H97.6032V29.6514H97.6347V29.5567H97.6663V29.4936H97.6979V29.4304H97.7294V29.3358H97.761V29.2726H97.7925V29.2095H97.8241V29.1464H97.8557V29.0833H97.8872V29.0202H97.9188V28.957H97.9503V28.8939H97.9819V28.8624H98.0135V28.8308H98.045V28.7677H98.0766V28.7361H98.1081V28.673H98.1397V28.6414H98.1713V28.5783H98.2028V28.5467H98.2344V28.5152H98.266V28.4836H98.2975V28.4521H98.3291V28.4205H98.3606V28.3889H98.3922V28.3574H98.4238V28.3258H98.4553V28.2943H98.4869V28.2627H98.5184V28.2311H98.55V28.1996H98.5816V28.168H98.6131V28.1365H98.6762V28.1049H98.7078V28.0733H98.7394V28.0418H98.7709V28.0102H98.8341V27.9786H98.8656V27.9471H98.9287V27.9155H98.9603V27.884H99.0234V27.8524H99.0865V27.8208H99.1497V27.7893H99.1812V27.7577H99.2443V27.7262H99.339V27.6946H99.4337V27.663H99.4968V27.6315H99.5915V27.5999H99.6862V27.5684H99.8124V27.5368H99.9702V27.5052H100.096V27.4737H100.412V27.4421H106.219V27.5684H106.251V27.7262H106.282V27.884H106.314V28.0418H106.346V28.168H106.377V28.3258H106.409V28.4836H106.44V28.6414H106.472V28.7992H106.503V28.9255H106.535V29.0833H106.566V29.2411H106.598V29.3989H106.63V29.5251H106.661V29.6829H106.693V29.8407H106.724V29.9985H106.756V30.1563H106.787V30.2826H106.819V30.4404H106.85V30.5982H106.882V30.756H106.914V30.9138H106.945V31.04H106.977V31.1978H107.008V31.3557H107.04V31.5135H107.071V31.6713H107.103V31.7975H107.135V31.9553H107.166V32.1131H107.198V32.2709H107.229V32.3972H107.261V32.555H107.292V32.7128H107.324V32.8706H107.355V33.0284H107.387V33.1546H107.419V33.3124H107.45V33.4702H107.482V33.628H107.513V33.7858H107.545V33.9121H107.576V34.0699H107.608V34.2277H107.64V34.3855H107.671V34.5117H107.703V34.6695H107.734V34.8273H107.766V34.9851H107.797V35.1429H107.829V35.2692H107.86V35.427H107.892V35.5848H107.924V35.7426H107.955V35.9004H107.987V36.0266H108.018V36.1845H108.05V36.3423H108.081V36.5001H108.113V36.6579H108.144V36.7841H108.176V36.9419H108.208V37.0997H108.239V37.2575H108.271V37.3838H108.302V37.5416H108.334V37.6994H108.365V37.8572H108.397V38.015H108.429V38.1412H108.46V38.299H108.492V38.4568H108.523V38.6146H108.555V38.7724H108.586V38.8987H108.618V39.0565H108.649V39.2143H108.681V39.3721H108.713V39.5299H108.744V39.6561H108.776V39.8139H108.807V39.9717H108.839V40.1295H108.87V40.2558H108.902V40.4136H108.933V40.5714H108.965V40.7292H108.997V40.887H109.028V41.0133H109.06V41.1711H109.091V41.3289H109.123V41.4867H109.154V41.6445H109.186V41.7707H109.218V41.9285H109.249V42.0863H109.281V42.2441H109.312V42.3704H109.344V42.5282H109.375V42.686H109.407V42.8438H109.438V43.0016H109.47V43.1278H109.502V43.2856H109.533V43.4434H109.565V43.6012H109.596V43.759H109.628V43.8853H109.659V44.0431H109.691V44.2009H109.723V44.3587H109.754V44.5165H109.786V44.6427H109.817V44.8005H109.849V44.9583H109.88V45.1162H109.912V45.2424H109.943V45.4002H109.975V45.558H110.007V45.7158H110.038V45.8736H110.07V45.9999H110.101V46.1577H110.133V46.3155H110.164V46.4733H110.196V46.6311H110.227V46.7573H110.259V46.9151H110.291V47.0729H110.322V47.2307H110.354V47.3885H110.385V47.5148H110.417V47.6726H110.448V47.8304H110.48V47.9882H110.512V48.1144H110.543V48.2722H110.575V48.43H110.606V48.5878H110.638V48.7456H110.669V48.8719H110.701V49.0297H110.732V49.1875H110.764V49.3453H110.796V49.5031H110.827V49.6293H110.859V49.7871H110.89V49.945H110.922V50.1028H110.953V50.229H110.985V50.3868H111.017V50.5446H111.048V50.7024H111.08V50.8602H111.111V50.9865H111.143V51.1443H111.174V51.3021H111.206V51.4599H111.237V51.6177H111.269V51.7439H111.301V51.9017H111.332V52.0595H111.364V52.2173H111.395V52.3751H111.427V52.5014H111.458V52.6592H111.49V52.817H111.521V52.9432H105.399V52.8485H105.367V52.6907H105.336V52.5329H105.304V52.4067H105.272V52.2489H105.241V52.0911H105.209V51.9333H105.178V51.7755H105.146V51.6492H105.115V51.4914H105.083V51.3336H105.052V51.1758H105.02V51.0496H104.988V50.8918H104.957V50.734H104.925V50.5762H104.894V50.4184H104.862V50.2921H104.831V50.1343H104.799V49.9765H104.767V49.8187H104.736V49.6925H104.704V49.5347H104.673V49.3769H104.641V49.2191H104.61V49.1559H96.1829V49.2191H96.1514V49.2822H96.1198V49.3769H96.0883V49.4715H96.0567V49.5662H96.0251V49.6609H95.9936V49.724H95.962V49.8187H95.9305V49.9134H95.8989V50.0081H95.8673V50.0712H95.8358V50.1659H95.8042V50.2606H95.7727V50.3552H95.7411V50.4184H95.7095V50.513H95.678V50.6077H95.6464V50.7024H95.6149V50.7971H95.5833V50.8602H95.5517V50.9549H95.5202V51.0496H95.4886V51.1443H95.457V51.2074H95.4255V51.3021H95.3939V51.3967H95.3624V51.4914H95.3308V51.5546H95.2992V51.6492H95.2677V51.7439H95.2361V51.8386H95.2046V51.9333H95.173V51.9964H95.1414V52.0911H95.1099V52.1858H95.0783V52.2804H95.0468V52.3436H95.0152V52.4383H94.9836V52.5329H94.9521V52.6276H94.9205V52.6907H94.889V52.7854H94.8574V52.8801H94.8258V52.9432H87.8825ZM98.1081 43.8537V43.8853H103.505V43.7906H103.473V43.6328H103.442V43.475H103.41V43.3487H103.379V43.1909H103.347V43.0331H103.316V42.8753H103.284V42.7175H103.253V42.5913H103.221V42.4335H103.189V42.2757H103.158V42.1179H103.126V41.9916H103.095V41.8338H103.063V41.676H103.032V41.5182H103V41.3604H102.969V41.2342H102.937V41.0764H102.905V40.9186H102.874V40.7608H102.842V40.603H102.811V40.4767H102.779V40.3189H102.748V40.1611H102.716V40.0033H102.684V39.8455H102.653V39.7193H102.621V39.5615H102.59V39.4037H102.558V39.2458H102.527V39.088H102.495V38.9618H102.464V38.804H102.432V38.6462H102.4V38.4884H102.369V38.3621H102.337V38.2043H102.306V38.0465H102.274V37.8887H102.243V37.7309H102.211V37.6047H102.179V37.4469H102.148V37.2891H102.116V37.1313H102.085V36.9735H102.053V36.8472H102.022V36.6894H101.99V36.5316H101.959V36.3738H101.927V36.216H101.895V36.0898H101.864V35.932H101.832V35.7742H101.801V35.6164H101.769V35.4901H101.738V35.3323H101.706V35.1745H101.675V35.0167H101.643V34.8589H101.611V34.7327H101.58V34.5749H101.548V34.417H101.517V34.5117H101.485V34.6064H101.454V34.7011H101.422V34.7642H101.39V34.8589H101.359V34.9536H101.327V35.0483H101.296V35.1114H101.264V35.2061H101.233V35.3008H101.201V35.3954H101.17V35.4586H101.138V35.5532H101.106V35.6479H101.075V35.7426H101.043V35.8057H101.012V35.9004H100.98V35.9951H100.949V36.0898H100.917V36.1529H100.885V36.2476H100.854V36.3423H100.822V36.4369H100.791V36.5001H100.759V36.5947H100.728V36.6894H100.696V36.7841H100.665V36.8472H100.633V36.9419H100.601V37.0366H100.57V37.1313H100.538V37.1944H100.507V37.2891H100.475V37.3838H100.444V37.4784H100.412V37.5731H100.381V37.6362H100.349V37.7309H100.317V37.8256H100.286V37.9203H100.254V37.9834H100.223V38.0781H100.191V38.1728H100.16V38.2675H100.128V38.3306H100.096V38.4253H100.065V38.5199H100.033V38.6146H100.002V38.6778H99.9702V38.7724H99.9387V38.8671H99.9071V38.9618H99.8756V39.0249H99.844V39.1196H99.8124V39.2143H99.7809V39.309H99.7493V39.3721H99.7178V39.4668H99.6862V39.5615H99.6546V39.6561H99.6231V39.7193H99.5915V39.8139H99.5599V39.9086H99.5284V40.0033H99.4968V40.0664H99.4653V40.1611H99.4337V40.2558H99.4021V40.3505H99.3706V40.4452H99.339V40.5083H99.3075V40.603H99.2759V40.6976H99.2443V40.7923H99.2128V40.8554H99.1812V40.9501H99.1497V41.0448H99.1181V41.1395H99.0865V41.2026H99.055V41.2973H99.0234V41.392H98.9919V41.4867H98.9603V41.5498H98.9287V41.6445H98.8972V41.7391H98.8656V41.8338H98.8341V41.897H98.8025V41.9916H98.7709V42.0863H98.7394V42.181H98.7078V42.2441H98.6762V42.3388H98.6447V42.4335H98.6131V42.5282H98.5816V42.5913H98.55V42.686H98.5184V42.7807H98.4869V42.8753H98.4553V42.9385H98.4238V43.0331H98.3922V43.1278H98.3606V43.2225H98.3291V43.2856H98.2975V43.3803H98.266V43.475H98.2344V43.5697H98.2028V43.6644H98.1713V43.7275H98.1397V43.8222H98.1081V43.8537Z" fill="url(#paint0_linear_26_1107)"/>
<defs>
<linearGradient id="paint0_linear_26_1107" x1="20.7213" y1="56.0754" x2="102.233" y2="56.0754" gradientUnits="userSpaceOnUse">
<stop stop-color="#242659"/>
<stop offset="1" stop-color="#264CA3"/>
</linearGradient>
</defs>
</svg>
