<svg width="144" height="80" viewBox="0 0 144 80" fill="none" xmlns="http://www.w3.org/2000/svg">
<rect width="144" height="80" rx="8" fill="white"/>
<g clip-path="url(#clip0_26_1200)">
<path fill-rule="evenodd" clip-rule="evenodd" d="M34.843 24L33.3813 28.0235H53.6367L55.0984 24H34.843ZM32.6501 30.0344L31.1884 34.057H51.4438L52.9054 30.0344H32.6501ZM30.4617 36.0688L29 40.0914H49.2554L50.7161 36.0688H30.4617Z" fill="#009FDF"/>
<mask id="mask0_26_1200" style="mask-type:luminance" maskUnits="userSpaceOnUse" x="59" y="30" width="56" height="25">
<path d="M59.3894 54.758H114.836V30.1113H59.3894V54.758Z" fill="white"/>
</mask>
<g mask="url(#mask0_26_1200)">
<path fill-rule="evenodd" clip-rule="evenodd" d="M72.0615 41.6242V41.7091C72.9872 42.0506 73.8714 42.6476 74.3347 43.031C75.7661 44.2252 76.3979 45.8027 76.3979 47.8495C76.3979 51.2191 74.6295 53.6493 71.7244 54.4171C70.8402 54.6727 69.9145 54.7585 68.1875 54.7585H59.3894V30.1113H67.178C68.7779 30.1113 69.8721 30.1962 70.8402 30.4518C73.6614 31.2196 75.5137 33.1815 75.5137 36.2936C75.5137 37.957 74.9242 39.3648 73.9562 40.3023C73.5352 40.7287 72.9458 41.2408 72.0615 41.6242ZM64.2729 44.2252V50.7069H67.6413C68.6508 50.7069 69.5774 50.622 70.2516 49.9821C70.9249 49.3421 71.2197 48.5324 71.2197 47.466C71.2197 46.6563 71.0087 45.8885 70.5878 45.3344C69.8721 44.4388 68.9879 44.2252 67.4727 44.2252H64.2729ZM64.2306 39.9609H66.9671C67.8089 39.9609 68.2299 39.9609 68.6508 39.8331C69.7883 39.4916 70.504 38.4692 70.504 37.0614C70.504 35.399 69.746 34.6732 68.6508 34.3327C68.1875 34.2049 67.7251 34.162 66.7985 34.162H64.2306V39.9609ZM83.7232 54.7585V34.2469H76.6927V30.1113H96.2277L94.8387 34.2469H88.6068V54.7585H83.7232ZM97.7429 54.7585V30.1113H113.573L112.184 34.2469H102.585V39.7053H106.5C109.658 39.7053 111.3 40.473 112.437 41.4535C113.321 42.2213 114.836 43.9266 114.836 47.2963C114.836 50.622 113.279 52.4552 111.973 53.3937C110.458 54.4591 108.858 54.7585 105.616 54.7585H97.7429ZM102.585 50.622H106.248C107.637 50.622 108.479 50.2806 109.068 49.5128C109.363 49.1294 109.784 48.4465 109.784 47.1675C109.784 45.8885 109.363 44.9929 108.521 44.353C108.017 43.9695 107.342 43.7568 106.206 43.7568H102.585V50.622Z" fill="#0A2973"/>
</g>
</g>
<defs>
<clipPath id="clip0_26_1200">
<rect width="86" height="31" fill="white" transform="translate(29 24)"/>
</clipPath>
</defs>
</svg>
