<svg width="64" height="64" viewBox="0 0 64 64" fill="none" xmlns="http://www.w3.org/2000/svg">
<path d="M32.0002 45.3335C32.7557 45.3335 33.3895 45.0775 33.9015 44.5655C34.4135 44.0535 34.6686 43.4206 34.6668 42.6668C34.6668 41.9113 34.4108 41.2784 33.8988 40.7682C33.3868 40.2579 32.7539 40.0019 32.0002 40.0002C31.2446 40.0002 30.6117 40.2562 30.1015 40.7682C29.5913 41.2802 29.3353 41.913 29.3335 42.6668C29.3335 43.4224 29.5895 44.0562 30.1015 44.5682C30.6135 45.0802 31.2464 45.3353 32.0002 45.3335ZM29.3335 34.6668H34.6668V18.6668H29.3335V34.6668ZM32.0002 58.6668C28.3113 58.6668 24.8446 57.9664 21.6002 56.5655C18.3557 55.1646 15.5335 53.2651 13.1335 50.8668C10.7335 48.4668 8.83394 45.6446 7.43483 42.4002C6.03572 39.1557 5.33527 35.6891 5.3335 32.0002C5.3335 28.3113 6.03394 24.8446 7.43483 21.6002C8.83572 18.3557 10.7353 15.5335 13.1335 13.1335C15.5335 10.7335 18.3557 8.83394 21.6002 7.43483C24.8446 6.03572 28.3113 5.33527 32.0002 5.3335C35.6891 5.3335 39.1557 6.03394 42.4002 7.43483C45.6446 8.83572 48.4668 10.7353 50.8668 13.1335C53.2668 15.5335 55.1673 18.3557 56.5682 21.6002C57.969 24.8446 58.6686 28.3113 58.6668 32.0002C58.6668 35.6891 57.9664 39.1557 56.5655 42.4002C55.1646 45.6446 53.2651 48.4668 50.8668 50.8668C48.4668 53.2668 45.6446 55.1673 42.4002 56.5682C39.1557 57.969 35.6891 58.6686 32.0002 58.6668Z" fill="#F4555A"/>
</svg>
