<svg width="16" height="16" viewBox="0 0 16 16" fill="none" xmlns="http://www.w3.org/2000/svg">
<path fill-rule="evenodd" clip-rule="evenodd" d="M7.43275 0.102451C7.79851 -0.0341505 8.20154 -0.0341505 8.5673 0.102451L14.2239 2.2159C14.532 2.33098 14.7975 2.53703 14.9849 2.80651C15.1724 3.07598 15.2728 3.39604 15.2727 3.7239V8.04179C15.2728 9.38749 14.8967 10.7066 14.1866 11.8514C13.4766 12.9961 12.4606 13.9212 11.2525 14.523L8.54224 15.8724C8.3739 15.9563 8.18825 16 8.00002 16C7.81179 16 7.62615 15.9563 7.4578 15.8724L4.7475 14.5222C3.53945 13.9204 2.52347 12.9953 1.81341 11.8506C1.10335 10.7058 0.727266 9.38669 0.727295 8.04098V3.72471C0.72709 3.39671 0.827421 3.07647 1.01487 2.80684C1.20231 2.5372 1.46793 2.33103 1.77618 2.2159L7.43275 0.102451ZM8.8081 7.78093C9.11619 7.60368 9.35697 7.33011 9.49311 7.00263C9.62924 6.67515 9.65312 6.31206 9.56104 5.96968C9.46896 5.6273 9.26607 5.32476 8.98383 5.10897C8.7016 4.89319 8.35578 4.77622 8.00002 4.7762C7.64426 4.77622 7.29845 4.89319 7.01621 5.10897C6.73397 5.32476 6.53108 5.6273 6.439 5.96968C6.34692 6.31206 6.3708 6.67515 6.50694 7.00263C6.64307 7.33011 6.88385 7.60368 7.19194 7.78093V10.4121C7.19194 10.6256 7.27708 10.8304 7.42862 10.9814C7.58017 11.1324 7.78571 11.2172 8.00002 11.2172C8.21434 11.2172 8.41988 11.1324 8.57142 10.9814C8.72297 10.8304 8.8081 10.6256 8.8081 10.4121V7.78093Z" fill="#F4555A"/>
</svg>
