<svg xmlns="http://www.w3.org/2000/svg" version="1.1" xmlns:xlink="http://www.w3.org/1999/xlink" xmlns:svgjs="http://svgjs.com/svgjs" width="120" height="120"><svg width="120" height="120" viewBox="0 0 120 120" fill="none" xmlns="http://www.w3.org/2000/svg">
<rect width="120" height="120" fill="white"></rect>
<g clip-path="url(#clip0_932_1080)">
<path d="M45.1946 41.0356C36.5381 32.3791 22.5033 32.3791 13.8468 41.0355C5.19032 49.692 5.1903 63.7269 13.8468 72.3834L36.1278 94.6644C44.7842 103.321 58.8192 103.321 67.4756 94.6644C76.1321 86.0079 76.1321 71.973 67.4756 63.3165L45.1946 41.0356Z" fill="#E64A70"></path>
<path d="M36.1117 63.299C27.4553 71.9555 27.4552 85.9904 36.1117 94.6469C44.7682 103.303 58.8031 103.303 67.4596 94.6469L104.084 58.022C112.741 49.3655 112.741 35.3306 104.084 26.6741C95.428 18.0177 81.3931 18.0177 72.7366 26.6741L36.1117 63.299Z" fill="#2F76E2"></path>
<path d="M51.6667 87.8672C56.7043 87.8672 60.7881 83.7834 60.7881 78.7459C60.7881 73.7083 56.7043 69.6245 51.6667 69.6245C46.6292 69.6245 42.5454 73.7083 42.5454 78.7459C42.5454 83.7834 46.6292 87.8672 51.6667 87.8672Z" fill="white"></path>
</g>
<defs>
<clipPath id="SvgjsClipPath1000">
<rect width="109.241" height="99" fill="white" transform="translate(5 11)"></rect>
</clipPath>
</defs>
</svg><style>@media (prefers-color-scheme: light) { :root { filter: none; } }
</style></svg>