<svg width="103" height="52" viewBox="0 0 103 52" fill="none" xmlns="http://www.w3.org/2000/svg">
<g clip-path="url(#clip0_757_8783)">
<path d="M40.4856 17.6096L38.1891 14.0806H40.2855L41.7286 16.3139L43.1929 14.0806H45.2471L42.9612 17.5885L45.3524 21.4546H43.235L41.697 18.8737L40.159 21.4546H38.0838L40.4856 17.6096ZM48.3568 21.5915C47.9635 21.5915 47.5948 21.5354 47.2507 21.423C46.9065 21.3036 46.6046 21.1245 46.3447 20.8857C46.0849 20.647 45.8812 20.3485 45.7337 19.9903C45.5862 19.6251 45.5125 19.2003 45.5125 18.7157V18.505C45.5125 18.0485 45.5862 17.6482 45.7337 17.3041C45.8812 16.96 46.0849 16.672 46.3447 16.4403C46.6046 16.2085 46.9065 16.033 47.2507 15.9136C47.5948 15.7942 47.9635 15.7345 48.3568 15.7345C48.75 15.7345 49.1187 15.7942 49.4629 15.9136C49.807 16.033 50.109 16.2085 50.3688 16.4403C50.6286 16.672 50.8323 16.96 50.9798 17.3041C51.1273 17.6482 51.201 18.0485 51.201 18.505V18.7157C51.201 19.1932 51.1273 19.6146 50.9798 19.9798C50.8323 20.338 50.6286 20.6364 50.3688 20.8752C50.109 21.114 49.807 21.2931 49.4629 21.4125C49.1187 21.5318 48.75 21.5915 48.3568 21.5915ZM48.3568 20.2432C48.736 20.2432 49.0274 20.1062 49.2311 19.8323C49.4348 19.5584 49.5366 19.1862 49.5366 18.7157V18.505C49.5366 18.0836 49.4348 17.743 49.2311 17.4832C49.0274 17.2163 48.736 17.0829 48.3568 17.0829C47.9775 17.0829 47.6861 17.2163 47.4824 17.4832C47.2787 17.743 47.1769 18.0836 47.1769 18.505V18.7157C47.1769 19.2003 47.2787 19.576 47.4824 19.8428C47.6861 20.1097 47.9775 20.2432 48.3568 20.2432ZM51.9343 15.8714H53.4302V16.6299C53.5004 16.5175 53.5882 16.4087 53.6935 16.3033C53.8059 16.191 53.9358 16.0927 54.0833 16.0084C54.2308 15.9241 54.3958 15.8574 54.5784 15.8082C54.761 15.7591 54.9576 15.7345 55.1683 15.7345C55.9549 15.7345 56.5518 15.9662 56.9591 16.4297C57.3665 16.8933 57.5701 17.585 57.5701 18.505V18.7157C57.5701 19.1932 57.5139 19.6111 57.4016 19.9693C57.2892 20.3274 57.1277 20.6259 56.917 20.8647C56.7063 21.1034 56.4535 21.286 56.1585 21.4125C55.8636 21.5318 55.5335 21.5915 55.1683 21.5915C54.8523 21.5915 54.5503 21.5213 54.2624 21.3809C53.9814 21.2334 53.7462 21.0227 53.5566 20.7488V23.5614H51.9343V15.8714ZM54.7785 20.2537C55.1016 20.2537 55.3685 20.1238 55.5791 19.8639C55.7968 19.6041 55.9057 19.2213 55.9057 18.7157V18.505C55.9057 18.0204 55.8004 17.6623 55.5897 17.4305C55.386 17.1917 55.1156 17.0723 54.7785 17.0723C54.4344 17.0723 54.143 17.1812 53.9042 17.3989C53.6724 17.6096 53.5566 17.9256 53.5566 18.347V18.8737C53.5566 19.3161 53.6724 19.6567 53.9042 19.8955C54.143 20.1343 54.4344 20.2537 54.7785 20.2537ZM60.9435 21.5915C60.5503 21.5915 60.1816 21.5354 59.8374 21.423C59.4933 21.3036 59.1913 21.1245 58.9315 20.8857C58.6717 20.647 58.468 20.3485 58.3205 19.9903C58.173 19.6251 58.0993 19.2003 58.0993 18.7157V18.505C58.0993 18.0485 58.173 17.6482 58.3205 17.3041C58.468 16.96 58.6717 16.672 58.9315 16.4403C59.1913 16.2085 59.4933 16.033 59.8374 15.9136C60.1816 15.7942 60.5503 15.7345 60.9435 15.7345C61.3368 15.7345 61.7055 15.7942 62.0496 15.9136C62.3938 16.033 62.6957 16.2085 62.9556 16.4403C63.2154 16.672 63.4191 16.96 63.5666 17.3041C63.7141 17.6482 63.7878 18.0485 63.7878 18.505V18.7157C63.7878 19.1932 63.7141 19.6146 63.5666 19.9798C63.4191 20.338 63.2154 20.6364 62.9556 20.8752C62.6957 21.114 62.3938 21.2931 62.0496 21.4125C61.7055 21.5318 61.3368 21.5915 60.9435 21.5915ZM60.9435 20.2432C61.3228 20.2432 61.6142 20.1062 61.8179 19.8323C62.0216 19.5584 62.1234 19.1862 62.1234 18.7157V18.505C62.1234 18.0836 62.0216 17.743 61.8179 17.4832C61.6142 17.2163 61.3228 17.0829 60.9435 17.0829C60.5643 17.0829 60.2729 17.2163 60.0692 17.4832C59.8655 17.743 59.7637 18.0836 59.7637 18.505V18.7157C59.7637 19.2003 59.8655 19.576 60.0692 19.8428C60.2729 20.1097 60.5643 20.2432 60.9435 20.2432ZM64.5211 15.8714H66.1434V20.1273H67.6076V15.8714H69.2299V20.1273H70.6942V15.8714H72.3164V21.4546H64.5211V15.8714ZM73.2629 15.8714H74.843V19.2424L77.2132 15.8714H78.6353V21.4546H77.0552V18.0836L74.685 21.4546H73.2629V15.8714ZM79.5871 15.8714H81.1673V19.2424L83.5375 15.8714H84.9596V21.4546H83.3795V18.0836L81.0093 21.4546H79.5871V15.8714ZM82.2734 15.292C81.5851 15.292 81.097 15.1621 80.8091 14.9023C80.5212 14.6354 80.3772 14.2386 80.3772 13.7119H81.8099C81.8099 13.9507 81.8485 14.1157 81.9257 14.207C82.003 14.2983 82.1189 14.344 82.2734 14.344C82.4279 14.344 82.5437 14.2983 82.621 14.207C82.6982 14.1157 82.7369 13.9507 82.7369 13.7119H84.1695C84.1695 14.2386 84.0256 14.6354 83.7376 14.9023C83.4497 15.1621 82.9616 15.292 82.2734 15.292Z" fill="#2F76E2"/>
<path d="M42.9672 37.4617C41.4924 37.4617 40.3788 37.1407 39.6263 36.4986C38.8839 35.8465 38.4926 34.9486 38.4525 33.8049H41.2516C41.2917 34.2864 41.4372 34.6677 41.688 34.9486C41.9388 35.2195 42.3652 35.3549 42.9672 35.3549C43.5691 35.3549 44.0056 35.2445 44.2764 35.0238C44.5473 34.8031 44.6828 34.4921 44.6828 34.0908C44.6828 33.9002 44.6527 33.7246 44.5925 33.5641C44.5423 33.3935 44.447 33.2531 44.3065 33.1427C44.1761 33.0223 43.9855 32.932 43.7347 32.8718C43.4939 32.8016 43.1879 32.7665 42.8167 32.7665H41.8536V30.9305H42.8167C43.0976 30.9305 43.3334 30.9004 43.524 30.8402C43.7146 30.77 43.8651 30.6797 43.9755 30.5693C44.0958 30.459 44.1811 30.3336 44.2313 30.1931C44.2814 30.0527 44.3065 29.9072 44.3065 29.7567C44.3065 29.6062 44.2865 29.4657 44.2463 29.3353C44.2062 29.1949 44.136 29.0745 44.0357 28.9741C43.9353 28.8738 43.7949 28.7936 43.6143 28.7334C43.4437 28.6732 43.228 28.6431 42.9672 28.6431C42.4856 28.6431 42.1244 28.7534 41.8837 28.9741C41.6429 29.1848 41.5074 29.5159 41.4773 29.9674H38.6782C38.7184 28.8036 39.0845 27.9408 39.7768 27.379C40.4691 26.8171 41.5325 26.5362 42.9672 26.5362C44.4018 26.5362 45.4503 26.7921 46.1124 27.3037C46.7746 27.8154 47.1056 28.5578 47.1056 29.531C47.1056 30.0828 46.9652 30.5543 46.6843 30.9456C46.4134 31.3268 46.0221 31.6027 45.5104 31.7733C46.1525 31.9237 46.6391 32.2147 46.9702 32.6461C47.3113 33.0675 47.4819 33.6193 47.4819 34.3015C47.4819 34.773 47.3916 35.2044 47.211 35.5957C47.0304 35.9769 46.7545 36.308 46.3833 36.5889C46.0121 36.8698 45.5405 37.0855 44.9687 37.236C44.4069 37.3865 43.7397 37.4617 42.9672 37.4617ZM51.063 37.4617C50.6316 37.4617 50.2454 37.3965 49.9043 37.2661C49.5732 37.1357 49.2923 36.9601 49.0615 36.7394C48.8308 36.5087 48.6552 36.2428 48.5348 35.9418C48.4144 35.6308 48.3542 35.2947 48.3542 34.9335C48.3542 34.141 48.595 33.534 49.0766 33.1126C49.5682 32.6912 50.3056 32.4806 51.2888 32.4806H53.5612V32.1495C53.5612 31.6679 53.4458 31.3368 53.215 31.1562C52.9843 30.9656 52.6683 30.8703 52.2669 30.8703C51.8857 30.8703 51.6048 30.9305 51.4242 31.0509C51.2436 31.1713 51.1433 31.3619 51.1232 31.6228H48.8057C48.8258 31.2616 48.9161 30.9305 49.0766 30.6295C49.2371 30.3185 49.4628 30.0527 49.7538 29.8319C50.0548 29.6012 50.4209 29.4206 50.8523 29.2902C51.2838 29.1598 51.7804 29.0945 52.3422 29.0945C52.8639 29.0945 53.3404 29.1547 53.7718 29.2751C54.2133 29.3855 54.5895 29.5711 54.9005 29.8319C55.2115 30.0828 55.4523 30.4138 55.6229 30.8252C55.7934 31.2265 55.8787 31.7181 55.8787 32.3V35.2345C55.8787 35.6559 55.8887 36.0271 55.9088 36.3481C55.9289 36.6591 55.959 36.9651 55.9991 37.2661H53.8019C53.7819 37.0956 53.7618 36.9451 53.7417 36.8146C53.7317 36.6842 53.7267 36.5237 53.7267 36.3331C53.4859 36.6541 53.1498 36.925 52.7184 37.1457C52.297 37.3564 51.7453 37.4617 51.063 37.4617ZM51.8155 35.8365C52.3071 35.8365 52.7184 35.696 53.0495 35.4151C53.3906 35.1342 53.5612 34.7479 53.5612 34.2563V33.9252H51.7402C51.3991 33.9252 51.1433 34.0155 50.9727 34.1961C50.8122 34.3767 50.732 34.5874 50.732 34.8282C50.732 35.1191 50.8122 35.3599 50.9727 35.5505C51.1433 35.7412 51.4242 35.8365 51.8155 35.8365ZM57.159 29.2902H59.4164V34.1058L62.8024 29.2902H64.834V37.2661H62.5766V32.4505L59.1906 37.2661H57.159V29.2902ZM60.9965 28.4625C60.0133 28.4625 59.316 28.2769 58.9047 27.9057C58.4934 27.5244 58.2877 26.9576 58.2877 26.2051H60.3344C60.3344 26.5463 60.3895 26.782 60.4999 26.9124C60.6103 27.0429 60.7758 27.1081 60.9965 27.1081C61.2172 27.1081 61.3828 27.0429 61.4931 26.9124C61.6035 26.782 61.6587 26.5463 61.6587 26.2051H63.7053C63.7053 26.9576 63.4996 27.5244 63.0883 27.9057C62.677 28.2769 61.9797 28.4625 60.9965 28.4625ZM66.1937 29.2902H69.0078L70.904 33.248L72.8002 29.2902H75.524V37.2661H73.3269V32.3752L71.6113 35.7612H70.1064L68.3908 32.3752V37.2661H66.1937V29.2902Z" fill="#E64A70"/>
<path d="M11.7741 19.7983C9.23832 17.2626 5.12709 17.2626 2.59135 19.7983C0.0556206 22.334 0.0556171 26.4453 2.59135 28.981L9.11811 35.5078C11.6538 38.0435 15.7651 38.0435 18.3008 35.5078C20.8365 32.972 20.8365 28.8608 18.3008 26.3251L11.7741 19.7983Z" fill="#E64A70"/>
<path d="M9.11348 26.3199C6.57775 28.8557 6.57775 32.9669 9.11348 35.5026C11.6492 38.0384 15.7605 38.0384 18.2962 35.5026L29.0247 24.7741C31.5604 22.2384 31.5604 18.1272 29.0247 15.5914C26.489 13.0557 22.3777 13.0557 19.842 15.5914L9.11348 26.3199Z" fill="#2F76E2"/>
<path d="M13.67 33.5167C15.1456 33.5167 16.3419 32.3204 16.3419 30.8448C16.3419 29.3691 15.1456 28.1729 13.67 28.1729C12.1943 28.1729 10.998 29.3691 10.998 30.8448C10.998 32.3204 12.1943 33.5167 13.67 33.5167Z" fill="white"/>
</g>
<defs>
<clipPath id="clip0_757_8783">
<rect width="103" height="52" fill="white"/>
</clipPath>
</defs>
</svg>
